<?xml version="1.0" standalone="no"?>
<!DOCTYPE svg PUBLIC "-//W3C//DTD SVG 1.1//EN" "http://www.w3.org/Graphics/SVG/1.1/DTD/svg11.dtd" >
<svg xmlns="http://www.w3.org/2000/svg" xmlns:xlink="http://www.w3.org/1999/xlink" version="1.1">
<metadata>
Created by FontForge 20170812 at Fri Feb 16 15:00:18 2018
 By ,,,
Copyright 2018 IBM Corp. All rights reserved.
</metadata>
<defs>
<font id="IBMPlexSans-SemiBoldItalic" horiz-adv-x="588" >
  <font-face 
    font-family="IBM Plex Sans SemiBold"
    font-weight="600"
    font-style="italic"
    font-stretch="normal"
    units-per-em="1000"
    panose-1="2 11 7 3 5 2 3 0 2 3"
    ascent="780"
    descent="-220"
    x-height="522"
    cap-height="698"
    bbox="-278 -266 1250 1142"
    underline-thickness="88"
    underline-position="-118"
    slope="-11"
    unicode-range="U+000D-FB02"
  />
<missing-glyph horiz-adv-x="472" 
d="M32 0v780h408v-780h-408zM120 88h232v604h-232v-604z" />
    <glyph glyph-name="fi" unicode="fi" horiz-adv-x="609" 
d="M82 522h74l16 79q14 68 52.5 103.5t108.5 35.5h82l-20 -99h-94l-24 -119h302l-84 -423h63l-20 -99h-87q-38 0 -59.5 20.5t-21.5 53.5q0 7 1 14t2 11l65 324h-180l-97 -483q-27 -140 -164 -140h-79l20 99h94l105 524h-74zM535 599q-33 0 -47.5 14t-14.5 35q0 5 1 12.5
t4 22.5q6 27 25 45t58 18q33 0 47.5 -14t14.5 -34q0 -5 -1 -13t-4 -23q-7 -27 -25.5 -45t-57.5 -18z" />
    <glyph glyph-name=".notdef" horiz-adv-x="472" 
d="M32 0v780h408v-780h-408zM120 88h232v604h-232v-604z" />
    <glyph glyph-name=".null" horiz-adv-x="0" 
 />
    <glyph glyph-name=".null" horiz-adv-x="0" 
 />
    <glyph glyph-name="uni000D" unicode="&#xd;" horiz-adv-x="234" 
 />
    <glyph glyph-name="space" unicode=" " horiz-adv-x="236" 
 />
    <glyph glyph-name="a" unicode="a" 
d="M432 0q-36 0 -59 19t-23 53q0 8 1 16.5t2 13.5l4 17h-5q-32 -64 -71 -97.5t-99 -33.5q-36 0 -63.5 13.5t-45.5 38.5t-27 59t-9 76q0 76 18 141.5t50.5 114t78 76t99.5 27.5q53 0 89 -28t43 -73h5l18 89h121l-85 -423h63l-19 -99h-86zM236 90q29 0 52.5 14t41.5 35
q39 44 53 110l18 93q4 18 -1 34t-17 29t-30.5 20.5t-42.5 7.5q-103 0 -129 -129l-14 -72q-2 -11 -4 -27t-2 -28q0 -40 19.5 -63.5t55.5 -23.5z" />
    <glyph glyph-name="a.alt01" horiz-adv-x="549" 
d="M167 -12q-69 0 -106 36t-37 97q0 85 62 132t179 47h96l5 31q3 16 3 29q0 75 -87 75q-48 0 -76 -20t-51 -50l-71 69q33 45 86 72.5t128 27.5q95 0 144.5 -43.5t49.5 -116.5q0 -10 -1 -22t-4 -26l-46 -227h58l-19 -99h-70q-37 0 -59.5 19t-22.5 53v17h-5q-24 -53 -63.5 -77
t-92.5 -24zM216 79q20 0 39 5t35 15t27 24.5t15 33.5l13 70h-86q-91 0 -105 -64q-3 -14 -3.5 -22t-0.5 -12q0 -24 18.5 -37t47.5 -13z" />
    <glyph glyph-name="b" unicode="b" horiz-adv-x="580" 
d="M169 740h121l-67 -336h5q32 64 71 97t99 33q36 0 63.5 -13.5t45.5 -38t27 -59t9 -75.5q0 -76 -18 -141.5t-51 -114t-78 -76.5t-99 -28q-53 0 -89 28t-43 73h-5l-18 -89h-121zM270 90q103 0 129 128l14 72q2 11 4 27t2 28q0 40 -19.5 64t-56.5 24q-29 0 -52.5 -14.5
t-40.5 -34.5q-19 -22 -32.5 -50t-20.5 -60l-17 -88q-9 -42 15 -69t75 -27z" />
    <glyph glyph-name="c" unicode="c" horiz-adv-x="492" 
d="M237 -12q-43 0 -79.5 13.5t-63.5 40.5t-42 69t-15 99q0 69 20 128.5t56 103t86 68t109 24.5q73 0 122.5 -36t60.5 -95l-102 -40q-11 33 -29 52t-59 19q-98 0 -121 -121l-18 -87q-5 -23 -5 -43q0 -42 22 -68.5t69 -26.5q39 0 63.5 22.5t48.5 65.5l93 -44
q-34 -71 -88.5 -107.5t-127.5 -36.5z" />
    <glyph glyph-name="d" unicode="d" 
d="M432 0q-36 0 -59 19t-23 53q0 8 1 16.5t2 13.5l4 17h-5q-32 -64 -71 -97.5t-99 -33.5q-36 0 -63.5 13.5t-45.5 38.5t-27 59t-9 76q0 76 18 141.5t50.5 114t78 76t99.5 27.5q53 0 89 -28t43 -73h5l61 307h122l-129 -641h63l-19 -99h-86zM237 90q29 0 52.5 14.5t40.5 34.5
q39 44 53 109l17 88q9 42 -15.5 69.5t-75.5 27.5q-102 0 -128 -129l-14 -72q-2 -11 -4 -27t-2 -28q0 -40 19.5 -63.5t56.5 -23.5z" />
    <glyph glyph-name="e" unicode="e" horiz-adv-x="513" 
d="M250 -12q-106 0 -159.5 59t-53.5 164q0 63 20 121.5t56.5 103.5t88 71.5t115.5 26.5q31 0 63 -7.5t58 -24t43 -44.5t17 -68q0 -82 -80.5 -128t-257.5 -50q-3 -20 -3 -29q0 -43 24 -69t78 -26q39 0 71 17t66 59l75 -62q-49 -63 -102.5 -88.5t-118.5 -25.5zM309 440
q-50 0 -85 -33t-46 -90l-5 -25q64 3 104.5 10.5t63 18.5t30.5 26t8 34q0 18 -6.5 29.5t-16.5 18t-22.5 9t-24.5 2.5z" />
    <glyph glyph-name="f" unicode="f" horiz-adv-x="339" 
d="M162 -61q-14 -68 -55.5 -103.5t-116.5 -35.5h-73l20 99h95l105 524h-74l20 99h74l16 79q14 68 55 103.5t117 35.5h77l-21 -99h-99l-23 -119h102l-20 -99h-102z" />
    <glyph glyph-name="g" unicode="g" horiz-adv-x="528" 
d="M487 -27q0 -34 -13.5 -67t-46.5 -59.5t-90 -42.5t-144 -16q-62 0 -103.5 8.5t-67 24t-36.5 36.5t-11 46q0 47 30 72.5t81 38.5l1 7q-28 8 -41.5 27t-13.5 46q0 42 32 67.5t80 35.5l1 7q-74 39 -74 131q0 39 14.5 74.5t44 63.5t74 44.5t104.5 16.5q26 0 49 -4t43 -11l4 19
q15 76 83 76h77l-19 -97h-102l-5 -21q55 -40 55 -116q0 -39 -15 -74.5t-44.5 -63.5t-74 -44.5t-104.5 -16.5q-20 0 -36.5 1.5t-32.5 6.5q-23 -7 -37 -20.5t-14 -32.5q0 -17 13.5 -25.5t43.5 -8.5h125q88 0 129 -32.5t41 -96.5zM365 -53q0 23 -16 36t-59 13h-174
q-20 -12 -28.5 -29t-8.5 -34q0 -26 21 -42.5t74 -16.5h60q72 0 101.5 21t29.5 52zM267 267q45 0 70.5 21t32.5 58q4 17 4.5 26t0.5 15q0 29 -19 45.5t-60 16.5q-45 0 -70 -21t-33 -58q-4 -20 -4.5 -28t-0.5 -13q0 -62 79 -62z" />
    <glyph glyph-name="g.alt01" horiz-adv-x="579" 
d="M183 -2q-36 0 -63 13.5t-45 38.5t-27 59t-9 76q0 75 17.5 139t50 110.5t77.5 73t99 26.5q53 0 89 -28t43 -73h5l17 89h122l-102 -511q-11 -53 -30.5 -94.5t-49.5 -70t-73 -43.5t-100 -15q-67 0 -118 22t-86 70l79 72q20 -30 50.5 -47.5t72.5 -17.5q108 0 134 132l22 110
h-5q-31 -64 -70 -97.5t-100 -33.5zM238 100q29 0 52.5 14.5t41.5 34.5q19 21 32.5 49t19.5 60l15 78q3 18 -0.5 35.5t-14.5 31t-29.5 22t-45.5 8.5q-101 0 -128 -129l-12 -62q-2 -11 -4 -27t-2 -28q0 -40 19.5 -63.5t55.5 -23.5z" />
    <glyph glyph-name="g.alt02" horiz-adv-x="529" 
d="M487 -27q0 -34 -13.5 -67t-46.5 -59.5t-90 -42.5t-144 -16q-62 0 -103.5 8.5t-67 24t-36.5 36.5t-11 46q0 47 30 72.5t81 38.5l1 7q-28 8 -41.5 27t-13.5 46q0 42 32 67.5t80 35.5l1 7q-74 39 -74 131q0 39 14.5 74.5t44 63.5t74 44.5t104.5 16.5q23 0 43 -3.5t37 -8.5
h176l-17 -87h-67q13 -24 13 -55q0 -39 -15 -74.5t-44.5 -63.5t-74 -44.5t-104.5 -16.5q-20 0 -36.5 1.5t-32.5 6.5q-23 -7 -37 -20.5t-14 -32.5q0 -17 13.5 -25.5t43.5 -8.5h125q88 0 129 -32.5t41 -96.5zM267 267q45 0 70.5 21t32.5 58q4 17 4.5 26t0.5 15q0 29 -19 45.5
t-60 16.5q-45 0 -70 -21t-33 -58q-4 -20 -4.5 -28t-0.5 -13q0 -62 79 -62zM365 -53q0 23 -16 36t-59 13h-174q-20 -12 -28.5 -29t-8.5 -34q0 -26 21 -42.5t74 -16.5h60q72 0 101.5 21t29.5 52z" />
    <glyph glyph-name="h" unicode="h" horiz-adv-x="580" 
d="M169 740h121l-66 -334h5q29 62 69.5 95t100.5 33q63 0 95.5 -36t32.5 -102q0 -17 -2.5 -34.5t-6.5 -37.5l-45 -225h58l-19 -99h-85q-36 0 -57 18.5t-21 52.5q0 8 1 14.5t2 11.5l43 217q6 28 6 55q0 29 -14 45.5t-47 16.5q-26 0 -48 -12.5t-40 -33.5q-20 -23 -34.5 -51
t-20.5 -59l-55 -275h-121z" />
    <glyph glyph-name="i" unicode="i" horiz-adv-x="277" 
d="M204 598q-33 0 -48 13t-15 34q0 15 5 38q6 25 23.5 43.5t60.5 18.5q33 0 48 -13t15 -33q0 -15 -5 -38q-6 -25 -23.5 -44t-60.5 -19zM122 0q-38 0 -60.5 20.5t-22.5 54.5q0 10 3 25l84 422h122l-85 -423h63l-20 -99h-84z" />
    <glyph glyph-name="j" unicode="j" horiz-adv-x="270" 
d="M128 522h122l-120 -594q-13 -64 -47 -96t-102 -32h-75l20 99h77zM206 598q-33 0 -48 13t-15 34q0 15 5 38q5 25 23 43.5t61 18.5q33 0 48 -13t15 -33q0 -15 -5 -38q-5 -25 -23 -44t-61 -19z" />
    <glyph glyph-name="k" unicode="k" horiz-adv-x="541" 
d="M169 740h121l-88 -443h6l78 89l140 136h142l-218 -211l82 -212h62l-21 -99h-65q-70 0 -95 72l-58 158l-83 -78l-30 -152h-121z" />
    <glyph glyph-name="l" unicode="l" horiz-adv-x="276" 
d="M122 0q-39 0 -61.5 20.5t-22.5 54.5q0 10 3 25l128 640h122l-129 -641h67l-19 -99h-88z" />
    <glyph glyph-name="m" unicode="m" horiz-adv-x="869" 
d="M22 0l104 522h122l-23 -116h5q29 61 67.5 94.5t98.5 33.5q57 0 88 -34t33 -94h5q29 59 69 93.5t102 34.5q60 0 91 -36t31 -99q0 -21 -2.5 -41.5t-7.5 -42.5l-43 -216h58l-20 -99h-85q-36 0 -57 18.5t-21 51.5q0 8 1 15t2 12l43 217q3 15 5.5 29t2.5 26q0 29 -13 45.5
t-42 16.5q-23 0 -44.5 -12.5t-38.5 -32.5q-20 -23 -34 -52.5t-19 -58.5l-55 -275h-122l63 314q3 14 5 28.5t2 26.5q0 29 -13 45.5t-42 16.5q-26 0 -47 -13t-38 -33q-20 -23 -34.5 -51.5t-20.5 -58.5l-55 -275h-121z" />
    <glyph glyph-name="n" unicode="n" horiz-adv-x="581" 
d="M22 0l104 522h122l-23 -116h5q29 62 69.5 95t100.5 33q63 0 95.5 -36t32.5 -102q0 -17 -2.5 -34.5t-6.5 -37.5l-45 -225h58l-19 -99h-85q-36 0 -57 18.5t-21 52.5q0 8 0.5 13.5t2.5 12.5l43 217q6 28 6 55q0 29 -14 45.5t-47 16.5q-26 0 -48 -12.5t-40 -33.5
q-20 -23 -34.5 -51t-20.5 -59l-55 -275h-121z" />
    <glyph glyph-name="o" unicode="o" horiz-adv-x="545" 
d="M239 -12q-92 0 -147 56t-55 161q0 69 20 129.5t56 104.5t85 69.5t108 25.5q92 0 147 -56t55 -161q0 -69 -20 -129t-56 -104.5t-85.5 -70t-107.5 -25.5zM246 88q45 0 76.5 33t43.5 96l18 88q2 6 3 15t1 20q0 43 -22.5 68.5t-65.5 25.5q-45 0 -77 -32.5t-44 -95.5l-18 -88
q-2 -8 -3 -16.5t-1 -19.5q0 -42 22.5 -68t66.5 -26z" />
    <glyph glyph-name="p" unicode="p" horiz-adv-x="581" 
d="M126 522h122l-24 -118h5q32 64 71 97t99 33q36 0 63.5 -13.5t45.5 -38t27 -59t9 -75.5q0 -76 -18 -141.5t-51 -114t-78 -76.5t-99 -28q-53 0 -89 28t-43 73h-5l-58 -289h-121zM271 90q103 0 129 128l14 72q2 11 4 27t2 28q0 40 -19.5 64t-56.5 24q-29 0 -52.5 -14.5
t-40.5 -34.5q-19 -23 -32.5 -50.5t-20.5 -59.5l-17 -88q-9 -42 15 -69t75 -27z" />
    <glyph glyph-name="q" unicode="q" horiz-adv-x="579" 
d="M357 119h-5q-32 -64 -71 -97.5t-99 -33.5q-36 0 -63.5 13.5t-45.5 38.5t-27 59t-9 76q0 76 18 141.5t50.5 114t78 76t99.5 27.5q53 0 89 -28t43 -73h5l18 89h121l-144 -722h-122zM237 90q29 0 52.5 14t40.5 35q19 22 32.5 49.5t20.5 59.5l17 88q9 42 -15.5 69.5
t-75.5 27.5q-102 0 -128 -129l-14 -72q-2 -11 -4 -27t-2 -28q0 -40 19.5 -63.5t56.5 -23.5z" />
    <glyph glyph-name="r" unicode="r" horiz-adv-x="385" 
d="M21 0l104 522h122l-24 -120h6q9 21 23 42t33.5 38.5t44 28.5t55.5 11h27l-25 -119h-35q-68 0 -104.5 -28.5t-48.5 -89.5l-57 -285h-121z" />
    <glyph glyph-name="s" unicode="s" horiz-adv-x="489" 
d="M211 -12q-63 0 -117.5 23.5t-87.5 69.5l77 71q23 -31 54.5 -48t76.5 -17q49 0 73.5 20t24.5 49q0 19 -12 33t-45 19l-49 7q-65 10 -102 43t-37 96q0 36 12.5 68.5t38.5 57t65.5 39.5t92.5 15q122 0 188 -81l-78 -71q-19 24 -48.5 39t-67.5 15q-42 0 -63.5 -18t-21.5 -47
q0 -19 12 -33t44 -19l49 -7q66 -10 103 -43t37 -96q0 -38 -14.5 -72t-42.5 -59t-69 -39.5t-93 -14.5z" />
    <glyph glyph-name="t" unicode="t" horiz-adv-x="343" 
d="M170 0q-108 0 -108 89q0 8 1 19t3 21l59 294h-75l19 99h37q31 0 41.5 12.5t15.5 39.5l18 90h113l-28 -142h105l-20 -99h-105l-64 -324h98l-20 -99h-90z" />
    <glyph glyph-name="u" unicode="u" horiz-adv-x="576" 
d="M241 522l-62 -314q-3 -14 -5 -28t-2 -25q0 -30 13.5 -47t43.5 -17q26 0 47.5 12.5t39.5 33.5q20 23 34 52t20 59l55 274h122l-85 -423h63l-20 -99h-86q-36 0 -58.5 19t-22.5 54q0 8 1 16t2 14l3 13h-6q-29 -61 -68 -94.5t-97 -33.5q-62 0 -94 36t-32 102q0 18 2 35.5
t6 37.5l65 323h121z" />
    <glyph glyph-name="v" unicode="v" horiz-adv-x="504" 
d="M121 0l-69 522h120l23 -214l17 -198h6l90 198l106 214h130l-276 -522h-147z" />
    <glyph glyph-name="w" unicode="w" horiz-adv-x="776" 
d="M61 522h120l7 -208l4 -182h6l69 158l107 232h114l16 -210l11 -183h6l66 163l98 230h120l-239 -522h-131l-18 206l-12 161h-5l-65 -145l-104 -222h-134z" />
    <glyph glyph-name="x" unicode="x" horiz-adv-x="511" 
d="M-44 0l230 272l-116 250h131l71 -181h6l141 181h134l-228 -267l121 -255h-131l-75 183h-6l-144 -183h-134z" />
    <glyph glyph-name="y" unicode="y" horiz-adv-x="502" 
d="M417 522h129l-330 -616q-14 -27 -29.5 -47t-34.5 -33t-43.5 -19.5t-56.5 -6.5h-78l19 99h96l39 75l-76 548h120l25 -214l18 -194h5l90 194z" />
    <glyph glyph-name="z" unicode="z" horiz-adv-x="479" 
d="M-9 0l19 99l315 324h-247l19 99h395l-20 -98l-317 -325h265l-20 -99h-409z" />
    <glyph glyph-name="A" unicode="A" horiz-adv-x="648" 
d="M448 0l-19 180h-237l-89 -180h-135l363 698h162l83 -698h-128zM392 583h-7l-142 -296h177z" />
    <glyph glyph-name="B" unicode="B" horiz-adv-x="644" 
d="M167 698h286q78 0 125 -36.5t47 -108.5q0 -67 -34.5 -119t-103.5 -70l-1 -5q53 -14 78 -47.5t25 -84.5q0 -50 -16 -91.5t-46 -71.5t-74 -47t-101 -17h-325zM352 109q39 0 64.5 19t33.5 59q5 26 7 38.5t2 19.5q0 26 -17 41t-52 15h-176l-38 -192h176zM384 405
q41 0 66.5 17t33.5 57q5 24 6.5 36t1.5 19q0 25 -16 40t-48 15h-156l-37 -184h149z" />
    <glyph glyph-name="C" unicode="C" horiz-adv-x="625" 
d="M301 -12q-54 0 -99 18t-77.5 53.5t-50.5 88.5t-18 122q0 92 26.5 172t73.5 139.5t111.5 94t140.5 34.5q91 0 149 -43t83 -124l-112 -48q-14 46 -43 74t-87 28q-73 0 -121 -50t-65 -135l-23 -111q-4 -17 -5 -30.5t-1 -24.5q0 -69 33 -107t96 -38q62 0 100 30.5t65 80.5
l105 -49q-47 -90 -118 -132.5t-163 -42.5z" />
    <glyph glyph-name="D" unicode="D" horiz-adv-x="673" 
d="M167 698h218q121 0 190.5 -66.5t69.5 -197.5q0 -89 -24 -168t-69.5 -138t-113 -93.5t-154.5 -34.5h-257zM293 112q75 0 127 45.5t70 136.5l20 97q3 17 4.5 34t1.5 28q0 69 -34 101t-91 32h-120l-95 -474h117z" />
    <glyph glyph-name="E" unicode="E" horiz-adv-x="574" 
d="M27 0l140 698h438l-23 -112h-311l-36 -179h276l-22 -112h-276l-37 -183h323l-22 -112h-450z" />
    <glyph glyph-name="F" unicode="F" horiz-adv-x="552" 
d="M27 0l140 698h426l-23 -112h-299l-36 -179h267l-23 -112h-266l-60 -295h-126z" />
    <glyph glyph-name="G" unicode="G" horiz-adv-x="689" 
d="M483 108h-7q-13 -25 -31 -46.5t-42 -38t-54.5 -26t-66.5 -9.5q-50 0 -91.5 17.5t-71.5 53t-46.5 87.5t-16.5 121q0 93 25.5 173.5t73 140.5t114.5 94.5t150 34.5q92 0 158 -42.5t89 -120.5l-107 -55q-14 51 -52.5 78t-96.5 27q-83 0 -132.5 -50t-66.5 -137l-21 -108
q-6 -30 -6 -57q0 -73 36.5 -108.5t93.5 -35.5q33 0 63 9.5t53.5 26.5t40 41t22.5 53l8 40h-133l21 107h254l-76 -378h-106z" />
    <glyph glyph-name="H" unicode="H" horiz-adv-x="695" 
d="M496 295h-283l-60 -295h-126l140 698h126l-58 -291h284l58 291h126l-140 -698h-126z" />
    <glyph glyph-name="I" unicode="I" horiz-adv-x="406" 
d="M0 0l21 104h88l98 490h-88l21 104h302l-21 -104h-88l-98 -490h88l-21 -104h-302z" />
    <glyph glyph-name="J" unicode="J" horiz-adv-x="524" 
d="M533 698l-102 -510q-19 -93 -76 -146.5t-153 -53.5q-47 0 -82.5 14t-60 38.5t-38.5 58t-17 73.5l120 24q3 -43 20.5 -69.5t58.5 -26.5q38 0 65.5 24t38.5 78l78 391h-212l21 105h339z" />
    <glyph glyph-name="K" unicode="K" horiz-adv-x="645" 
d="M311 312l-119 -118l-39 -194h-126l140 698h127l-69 -341h7l112 127l206 214h155l-296 -301l173 -397h-139z" />
    <glyph glyph-name="L" unicode="L" horiz-adv-x="504" 
d="M27 0l140 698h127l-118 -586h265l-22 -112h-392z" />
    <glyph glyph-name="M" unicode="M" horiz-adv-x="796" 
d="M643 498h-6l-91 -129l-173 -239l-82 249l-38 120h-5l-100 -499h-121l140 698h138l106 -346h4l242 346h147l-140 -698h-121z" />
    <glyph glyph-name="N" unicode="N" horiz-adv-x="695" 
d="M300 361l-46 147h-6l-101 -508h-120l140 698h138l125 -361l46 -147h6l101 508h120l-140 -698h-138z" />
    <glyph glyph-name="O" unicode="O" horiz-adv-x="691" 
d="M305 -12q-51 0 -96 16.5t-79 51t-54 87.5t-20 125q0 89 26 169.5t73 141t113 96t146 35.5q51 0 96.5 -17t79.5 -51.5t54 -87t20 -124.5q0 -89 -26 -169.5t-73.5 -141t-113.5 -96t-146 -35.5zM315 101q78 0 126.5 50t67.5 142l22 105q3 17 4 31.5t1 26.5q0 68 -33 104.5
t-98 36.5q-76 0 -126 -50.5t-68 -142.5l-21 -104q-4 -17 -5 -31.5t-1 -26.5q0 -68 33.5 -104.5t97.5 -36.5z" />
    <glyph glyph-name="P" unicode="P" horiz-adv-x="623" 
d="M27 0l140 698h259q101 0 153.5 -48.5t52.5 -132.5q0 -55 -19 -101t-53.5 -79t-82 -51.5t-105.5 -18.5h-165l-54 -267h-126zM230 379h159q38 0 65 20t36 62q5 25 8.5 40t3.5 24q0 26 -17.5 43.5t-56.5 17.5h-157z" />
    <glyph glyph-name="Q" unicode="Q" horiz-adv-x="691" 
d="M426 -178h-104q-54 0 -76 22t-22 60q0 11 2 22t4 23l10 47q-39 9 -72.5 30t-58.5 55t-39 80.5t-14 106.5q0 89 26 169.5t73 141t113 96t146 35.5q51 0 96.5 -17t79.5 -51.5t54 -87t20 -124.5q0 -83 -22.5 -158t-64 -134t-99.5 -98t-128 -49l-12 -64h108zM315 101
q78 0 126.5 50t67.5 142l22 105q3 17 4 31.5t1 26.5q0 68 -33 104.5t-98 36.5q-76 0 -126 -50.5t-68 -142.5l-21 -104q-4 -17 -5 -31.5t-1 -26.5q0 -68 33.5 -104.5t97.5 -36.5z" />
    <glyph glyph-name="R" unicode="R" horiz-adv-x="646" 
d="M153 0h-126l140 698h265q98 0 149 -47.5t51 -128.5q0 -40 -11.5 -77t-34 -68.5t-54.5 -55t-74 -35.5l89 -286h-135l-77 271h-127zM389 379q38 0 65 20t36 62q5 25 8.5 40t3.5 24q0 26 -17.5 43.5t-56.5 17.5h-157l-41 -207h159z" />
    <glyph glyph-name="S" unicode="S" horiz-adv-x="583" 
d="M253 -12q-85 0 -150.5 28.5t-102.5 96.5l96 74q27 -45 65 -65.5t92 -20.5q72 0 109.5 32.5t37.5 81.5q0 35 -23.5 55t-63.5 28l-53 11q-75 16 -118.5 59t-43.5 123q0 46 18.5 86t52 69.5t81.5 46.5t108 17q79 0 139.5 -26t95.5 -74l-91 -81q-26 35 -60 51.5t-89 16.5
q-60 0 -94 -25.5t-34 -69.5q0 -35 21 -53.5t63 -27.5l50 -10q79 -17 125 -61t46 -123q0 -45 -18.5 -88t-54 -76.5t-87 -54t-117.5 -20.5z" />
    <glyph glyph-name="T" unicode="T" horiz-adv-x="565" 
d="M410 586l-117 -586h-126l117 586h-192l22 112h510l-22 -112h-192z" />
    <glyph glyph-name="U" unicode="U" horiz-adv-x="671" 
d="M289 698l-83 -419q-8 -35 -8 -66q0 -54 28 -81.5t81 -27.5q67 0 106 40t57 130l85 424h125l-84 -422q-15 -76 -39.5 -130.5t-60 -89.5t-84 -51.5t-112.5 -16.5q-109 0 -167 55.5t-58 163.5q0 20 2 43t8 50l79 398h125z" />
    <glyph glyph-name="V" unicode="V" horiz-adv-x="620" 
d="M185 0l-82 698h127l28 -293l21 -272h6l118 255l155 310h134l-362 -698h-145z" />
    <glyph glyph-name="W" unicode="W" horiz-adv-x="918" 
d="M131 0l-19 698h125v-301l-6 -266h8l109 275l126 292h140l10 -286l-1 -287h8l93 249l127 324h128l-298 -698h-146l-11 314l-3 243h-7l-95 -230l-140 -327h-148z" />
    <glyph glyph-name="X" unicode="X" horiz-adv-x="628" 
d="M553 0h-136l-105 256h-7l-194 -256h-146l289 366l-145 332h135l102 -247h7l192 247h146l-289 -352z" />
    <glyph glyph-name="Y" unicode="Y" horiz-adv-x="610" 
d="M188 0l55 272l-148 426h129l100 -308h6l216 308h140l-319 -435l-53 -263h-126z" />
    <glyph glyph-name="Z" unicode="Z" horiz-adv-x="569" 
d="M482 0h-494l23 113l433 473h-325l22 112h476l-23 -113l-434 -473h344z" />
    <glyph glyph-name="zero" unicode="0" horiz-adv-x="600" 
d="M260 -12q-60 0 -100 22t-64 57t-33.5 80t-9.5 92q0 87 20 171t59.5 151t98.5 108t136 41q60 0 100 -22t64 -57t33.5 -80.5t9.5 -91.5q0 -87 -20 -171t-60 -151t-98.5 -108t-135.5 -41zM272 93q31 0 55 14t41 40t29 61.5t21 79.5l24 118q5 21 6.5 40t1.5 38q0 57 -22 89
t-73 32q-32 0 -55.5 -14t-40.5 -40t-29 -62t-21 -79l-24 -118q-5 -21 -6.5 -40t-1.5 -38q0 -57 22 -89t73 -32z" />
    <glyph glyph-name="zero.alt01" horiz-adv-x="600" 
d="M260 -12q-60 0 -100 22t-64 57t-33.5 80t-9.5 92q0 87 20 171t59.5 151t98.5 108t136 41q60 0 100 -22t64 -57t33.5 -80.5t9.5 -91.5q0 -87 -20 -171t-60 -151t-98.5 -108t-135.5 -41zM272 93q31 0 55 14.5t41.5 40t29.5 61.5t21 79l24 118q5 21 6.5 40t1.5 38
q0 57 -22.5 89.5t-73.5 32.5q-32 0 -55.5 -14.5t-41 -40t-29.5 -61.5t-21 -79l-24 -118q-5 -21 -6.5 -40t-1.5 -38q0 -57 22.5 -89.5t73.5 -32.5zM304 287q-27 0 -39 12t-12 29q0 5 1 13.5t3 16.5q5 22 21 36.5t45 14.5q26 0 38 -12t12 -29q0 -5 -1 -13.5t-3 -16.5
q-4 -22 -20 -36.5t-45 -14.5z" />
    <glyph glyph-name="zero.alt02" horiz-adv-x="600" 
d="M260 -12q-60 0 -100 22t-64 57t-33.5 80t-9.5 92q0 87 20 171t59.5 151t98.5 108t136 41q60 0 100 -22t64 -57t33.5 -80.5t9.5 -91.5q0 -87 -20 -171t-60 -151t-98.5 -108t-135.5 -41zM355 607q-32 0 -56 -14.5t-41.5 -40.5t-30 -62t-21.5 -80l-20 -100q-2 -6 -2.5 -13
t-1.5 -12l266 241q-7 38 -30 59.5t-63 21.5zM272 91q32 0 55.5 14.5t41 40.5t30 62t21.5 80l21 100q1 6 2 13t1 12l-266 -241q7 -38 30 -59.5t64 -21.5z" />
    <glyph glyph-name="one" unicode="1" horiz-adv-x="600" 
d="M53 0l21 105h184l100 498h-9l-184 -180l-72 69l210 206h198l-119 -593h157l-21 -105h-465z" />
    <glyph glyph-name="two" unicode="2" horiz-adv-x="600" 
d="M483 0h-464l24 121l253 192q65 48 94.5 89t37.5 79q3 15 3 33q0 35 -22 60.5t-66 25.5q-49 0 -80.5 -30.5t-50.5 -75.5l-107 44q17 37 40 69t53.5 54.5t69 35.5t86.5 13q49 0 88 -14t66.5 -38.5t42 -59t14.5 -75.5q0 -45 -14.5 -82.5t-41.5 -72t-66 -67t-87 -68.5
l-171 -126h319z" />
    <glyph glyph-name="three" unicode="3" horiz-adv-x="600" 
d="M298 415q56 0 87.5 22.5t39.5 63.5q3 15 3 27q0 36 -24 56t-66 20q-43 0 -78 -19t-66 -64l-73 78q21 24 45 44.5t52.5 35.5t63 23t76.5 8q46 0 84 -11.5t65 -33t41.5 -51t14.5 -65.5q0 -72 -44.5 -118.5t-116.5 -62.5l-1 -5q52 -10 82 -48t30 -98q0 -50 -18 -91.5
t-52.5 -72.5t-84 -48t-113.5 -17q-48 0 -85 10.5t-64 28.5t-45 41.5t-28 49.5l93 66q16 -41 47 -66t90 -25q57 0 88 26.5t40 74.5q3 15 3 29q0 39 -26 62t-76 23h-72l21 107h67z" />
    <glyph glyph-name="four" unicode="4" horiz-adv-x="600" 
d="M298 0l27 135h-308l23 113l361 450h155l-93 -463h89l-20 -100h-89l-27 -135h-118zM144 235h201l65 322h-9z" />
    <glyph glyph-name="five" unicode="5" horiz-adv-x="600" 
d="M562 587h-303l-61 -239h9q28 50 62.5 75.5t94.5 25.5q78 0 126 -49t48 -140q0 -53 -18.5 -102t-54.5 -87t-88 -60.5t-119 -22.5q-51 0 -89 11t-65 29t-44.5 41.5t-27.5 49.5l101 66q14 -40 45 -65.5t87 -25.5q57 0 90 31.5t44 85.5q2 11 3.5 21.5t1.5 21.5q0 43 -24.5 67
t-72.5 24q-41 0 -69.5 -16.5t-49.5 -38.5l-99 14l100 394h395z" />
    <glyph glyph-name="six" unicode="6" horiz-adv-x="600" 
d="M265 -12q-103 0 -158 61t-55 168q0 76 27.5 147.5t73.5 134t104.5 113.5t120.5 86h180q-67 -42 -124 -82t-102.5 -83t-78 -89t-50.5 -100l7 -3q14 22 29.5 41.5t34.5 33t42.5 21.5t53.5 8q39 0 70.5 -13.5t53.5 -38.5t34 -60.5t12 -78.5q0 -54 -19 -102.5t-55 -84.5
t-87 -57.5t-114 -21.5zM275 90q54 0 87 30.5t44 84.5q5 22 5 41q0 47 -25 73t-74 26q-55 0 -87.5 -30.5t-43.5 -84.5q-5 -23 -5 -41q0 -47 25 -73t74 -26z" />
    <glyph glyph-name="seven" unicode="7" horiz-adv-x="600" 
d="M117 0l355 593h-237l-26 -129h-107l47 234h470l-22 -112l-346 -586h-134z" />
    <glyph glyph-name="eight" unicode="8" horiz-adv-x="600" 
d="M259 -12q-55 0 -96.5 13t-69 37t-41.5 57t-14 72q0 73 45 126.5t124 69.5l2 7q-86 35 -86 135q0 40 16 77t48 65.5t78.5 45.5t108.5 17q100 0 150.5 -44t50.5 -115q0 -63 -39.5 -112t-106.5 -71l-1 -8q49 -14 76 -50.5t27 -95.5q0 -45 -18.5 -86t-53 -72t-85.5 -49.5
t-115 -18.5zM268 88q54 0 87 26t43 74q2 11 3 19t1 19q0 40 -26 63t-75 23q-54 0 -87.5 -26.5t-43.5 -74.5q-2 -11 -3 -19t-1 -19q0 -40 26 -62.5t76 -22.5zM330 407q51 0 79.5 25t37.5 66q5 22 5 36q0 35 -23.5 55.5t-69.5 20.5q-51 0 -80.5 -24.5t-37.5 -65.5
q-5 -22 -5 -36q0 -35 23.5 -56t70.5 -21z" />
    <glyph glyph-name="nine" unicode="9" horiz-adv-x="600" 
d="M578 481q0 -76 -27.5 -147.5t-73.5 -134t-104.5 -113.5t-120.5 -86h-179q67 42 124 82t102 83t78 89t51 100l-7 3q-14 -23 -29.5 -42t-34.5 -32.5t-42.5 -21.5t-53.5 -8q-39 0 -71 13.5t-54 38.5t-34 60.5t-12 78.5q0 54 19.5 102.5t55.5 84.5t87 57.5t114 21.5
q103 0 157.5 -61t54.5 -168zM319 353q55 0 87.5 30.5t43.5 84.5q4 19 4 41q0 47 -24.5 73t-73.5 26q-55 0 -88 -30.5t-44 -84.5q-2 -10 -3 -20t-1 -21q0 -47 24.5 -73t74.5 -26z" />
    <glyph glyph-name="ampersand" unicode="&#x26;" horiz-adv-x="694" 
d="M434 65q-38 -33 -88.5 -55t-116.5 -22q-49 0 -85.5 12.5t-61 35t-37 53t-12.5 67.5q0 43 14 76.5t38 59.5t56.5 47t69.5 40q-19 28 -35 62t-16 74q0 42 16 77.5t44.5 62t69 41t88.5 14.5q36 0 67.5 -9t54.5 -27t36 -45t13 -63q0 -37 -15 -67t-40 -54.5t-58 -44.5t-68 -38
l92 -131q18 33 31 71t21 78h162l-21 -105h-76q-22 -69 -58 -127l106 -148h-144zM362 614q-30 0 -51 -18t-28 -47q-3 -12 -3 -29q0 -20 8.5 -39.5t28.5 -48.5q51 26 80.5 52.5t29.5 68.5q0 29 -18 45t-47 16zM259 92q37 0 68 12t57 33l-124 173q-38 -20 -64.5 -43.5
t-34.5 -62.5q-3 -12 -3 -28q0 -41 25.5 -62.5t75.5 -21.5z" />
    <glyph glyph-name="at" unicode="@" horiz-adv-x="883" 
d="M377 -121q-74 0 -133 23.5t-99.5 66t-62 103t-21.5 134.5q0 24 2.5 51t8.5 58q17 87 57 159t98 124t132 81t161 29q69 0 127.5 -21.5t101.5 -61.5t67.5 -97.5t24.5 -129.5q0 -19 -1.5 -39t-6.5 -43q-10 -50 -30 -93.5t-48.5 -75.5t-64.5 -50.5t-77 -18.5q-51 0 -78 22.5
t-27 61.5v12h-4q-14 -38 -46.5 -66.5t-77.5 -28.5q-59 0 -95 38.5t-36 113.5q0 15 1.5 31.5t6.5 37.5q21 99 71.5 150t115.5 51q45 0 69 -20t32 -53h4l13 64h98l-55 -273q-3 -17 -3 -30q0 -33 32 -33q36 0 65 38.5t46 118.5l7 37q3 13 4 26.5t1 33.5q0 51 -18 92t-50.5 69.5
t-78 44t-100.5 15.5q-65 0 -122.5 -21.5t-102.5 -61.5t-76.5 -95.5t-44.5 -123.5l-9 -46q-4 -21 -6.5 -41t-2.5 -37q0 -57 16.5 -103t48 -78.5t77 -49.5t102.5 -17h201l-16 -78h-198zM416 161q18 0 34.5 7.5t29 19.5t21 26.5t11.5 29.5l21 106q5 27 -15 47.5t-57 20.5
q-38 0 -61.5 -24.5t-31.5 -64.5l-16 -78q-2 -8 -2 -13v-10q0 -32 16.5 -49.5t49.5 -17.5z" />
    <glyph glyph-name="hyphen" unicode="-" horiz-adv-x="393" 
d="M52 245l24 119h282l-24 -119h-282z" />
    <glyph glyph-name="uni00AD" unicode="&#xad;" horiz-adv-x="393" 
d="M52 245l24 119h282l-24 -119h-282z" />
    <glyph glyph-name="endash" unicode="&#x2013;" horiz-adv-x="578" 
d="M34 253l20 102h506l-20 -102h-506z" />
    <glyph glyph-name="emdash" unicode="&#x2014;" horiz-adv-x="766" 
d="M34 253l20 102h694l-20 -102h-694z" />
    <glyph glyph-name="underscore" unicode="_" horiz-adv-x="548" 
d="M-59 -180l20 103h491l-20 -103h-491z" />
    <glyph glyph-name="period" unicode="." horiz-adv-x="297" 
d="M97 -12q-36 0 -52 16.5t-16 38.5q0 8 2 20t4 22q7 29 27.5 49t59.5 20q37 0 53 -16.5t16 -38.5q0 -8 -2 -19.5t-4 -22.5q-6 -29 -27 -49t-61 -20z" />
    <glyph glyph-name="ellipsis" unicode="&#x2026;" horiz-adv-x="862" 
d="M97 -12q-36 0 -52 16.5t-16 38.5q0 8 2 20t4 22q7 29 27.5 49t59.5 20q37 0 53 -16.5t16 -38.5q0 -8 -2 -19.5t-4 -22.5q-6 -29 -27 -49t-61 -20zM379 -12q-36 0 -52 16.5t-16 38.5q0 8 2 20t4 22q7 29 27.5 49t59.5 20q37 0 53 -16.5t16 -38.5q0 -8 -2 -19.5t-4 -22.5
q-6 -29 -27 -49t-61 -20zM661 -12q-36 0 -52 16.5t-16 38.5q0 8 2 20t4 22q7 29 27.5 49t59.5 20q37 0 53 -16.5t16 -38.5q0 -8 -2 -19.5t-4 -22.5q-6 -29 -27 -49t-61 -20z" />
    <glyph glyph-name="colon" unicode=":" horiz-adv-x="317" 
d="M107 -12q-36 0 -52 16.5t-16 38.5q0 8 2 20t4 22q7 29 27.5 49t59.5 20q37 0 53 -16.5t16 -38.5q0 -8 -2 -19.5t-4 -22.5q-6 -29 -27 -49t-61 -20zM182 367q-36 0 -52 16.5t-16 38.5q0 8 2 20t4 22q7 29 27.5 49t59.5 20q37 0 53 -16.5t16 -38.5q0 -8 -2 -19.5t-4 -22.5
q-6 -29 -27 -49t-61 -20z" />
    <glyph glyph-name="comma" unicode="," horiz-adv-x="297" 
d="M124 154q38 0 53.5 -17.5t15.5 -41.5q0 -17 -5 -40q-5 -24 -16.5 -51t-28.5 -53t-39.5 -50t-49.5 -43h-94q41 32 69.5 64.5t47.5 70.5q-24 5 -34.5 19t-10.5 32q0 8 1.5 19t3.5 22q7 31 27.5 50t59.5 19z" />
    <glyph glyph-name="semicolon" unicode=";" horiz-adv-x="317" 
d="M134 154q38 0 53.5 -17.5t15.5 -41.5q0 -17 -5 -40q-5 -24 -16.5 -51t-28.5 -53t-39.5 -50t-49.5 -43h-94q41 32 69.5 64.5t47.5 70.5q-24 5 -34.5 19t-10.5 32q0 8 1.5 19t3.5 22q7 31 27.5 50t59.5 19zM182 367q-36 0 -52 16.5t-16 38.5q0 8 2 20t4 22q7 29 27.5 49
t59.5 20q37 0 53 -16.5t16 -38.5q0 -8 -2 -19.5t-4 -22.5q-6 -29 -27 -49t-61 -20z" />
    <glyph glyph-name="quotesingle" unicode="'" horiz-adv-x="254" 
d="M103 427l63 313h114l-63 -313h-114z" />
    <glyph glyph-name="quotedbl" unicode="&#x22;" horiz-adv-x="465" 
d="M103 427l63 313h114l-63 -313h-114zM313 427l63 313h114l-63 -313h-114z" />
    <glyph glyph-name="quoteleft" unicode="&#x2018;" horiz-adv-x="282" 
d="M176 455q-37 0 -52.5 17t-15.5 39q0 16 5 39t16.5 49t28.5 51.5t39.5 49.5t49.5 43h90q-40 -32 -67 -62.5t-47 -67.5q24 -5 35 -19.5t11 -31.5q0 -7 -2 -18l-4 -22q-6 -29 -26.5 -48t-60.5 -19z" />
    <glyph glyph-name="quoteright" unicode="&#x2019;" horiz-adv-x="282" 
d="M236 750q37 0 52.5 -17t15.5 -39q0 -16 -5 -39t-16.5 -49t-28.5 -51.5t-39 -49.5t-49 -43h-91q40 32 67 62.5t47 67.5q-24 5 -35 19.5t-11 31.5q0 7 2 18l4 22q6 29 27 48t60 19z" />
    <glyph glyph-name="quotedblleft" unicode="&#x201c;" horiz-adv-x="506" 
d="M176 455q-37 0 -52.5 17t-15.5 39q0 16 5 39t16.5 49t28.5 51.5t39.5 49.5t49.5 43h90q-40 -32 -67 -62.5t-47 -67.5q24 -5 35 -19.5t11 -31.5q0 -7 -2 -18l-4 -22q-6 -29 -26.5 -48t-60.5 -19zM399 455q-37 0 -52.5 17t-15.5 39q0 16 5 39t16.5 49t28.5 51.5t39.5 49.5
t49.5 43h90q-40 -32 -67 -62.5t-47 -67.5q24 -5 35 -19.5t11 -31.5q0 -7 -2 -18l-4 -22q-6 -29 -26.5 -48t-60.5 -19z" />
    <glyph glyph-name="quotedblright" unicode="&#x201d;" horiz-adv-x="506" 
d="M236 750q37 0 52.5 -17t15.5 -39q0 -16 -5 -39t-16.5 -49t-28.5 -51.5t-39 -49.5t-49 -43h-91q40 32 67 62.5t47 67.5q-24 5 -35 19.5t-11 31.5q0 7 2 18l4 22q6 29 27 48t60 19zM459 750q37 0 52.5 -17t15.5 -39q0 -16 -5 -39t-16.5 -49t-28.5 -51.5t-39 -49.5t-49 -43
h-91q40 32 67 62.5t47 67.5q-24 5 -35 19.5t-11 31.5q0 7 2 18l4 22q6 29 27 48t60 19z" />
    <glyph glyph-name="quotesinglbase" unicode="&#x201a;" horiz-adv-x="283" 
d="M119 169q37 0 52.5 -17t15.5 -39q0 -17 -5 -40t-16.5 -49t-28.5 -51.5t-39.5 -49.5t-49.5 -43h-90q40 32 67 63t47 68q-24 5 -35 19t-11 31q0 8 2 19l4 22q6 29 26.5 48t60.5 19z" />
    <glyph glyph-name="quotedblbase" unicode="&#x201e;" horiz-adv-x="504" 
d="M119 169q37 0 52.5 -17t15.5 -39q0 -17 -5 -40t-16.5 -49t-28.5 -51.5t-39.5 -49.5t-49.5 -43h-90q40 32 67 63t47 68q-24 5 -35 19t-11 31q0 8 2 19l4 22q6 29 26.5 48t60.5 19zM339 169q37 0 52.5 -17t15.5 -39q0 -17 -5 -40t-16.5 -49t-28.5 -51.5t-39.5 -49.5
t-49.5 -43h-90q40 32 67 63t47 68q-24 5 -35 19t-11 31q0 8 2 19l4 22q6 29 26.5 48t60.5 19z" />
    <glyph glyph-name="guilsinglleft" unicode="&#x2039;" horiz-adv-x="308" 
d="M188 58l-155 164l23 112l207 159l33 -83l-155 -141l97 -137z" />
    <glyph glyph-name="guilsinglright" unicode="&#x203a;" horiz-adv-x="308" 
d="M15 141l155 142l-97 136l49 74l156 -163l-23 -112l-207 -159z" />
    <glyph glyph-name="guillemotleft" unicode="&#xab;" horiz-adv-x="544" 
d="M188 58l-155 164l23 112l207 159l33 -83l-155 -141l97 -137zM423 58l-155 164l23 112l207 159l33 -83l-155 -141l97 -137z" />
    <glyph glyph-name="guillemotright" unicode="&#xbb;" horiz-adv-x="544" 
d="M250 141l155 142l-97 136l49 74l156 -163l-23 -112l-207 -159zM15 141l155 142l-97 136l49 74l156 -163l-23 -112l-207 -159z" />
    <glyph glyph-name="exclamdown" unicode="&#xa1;" horiz-adv-x="302" 
d="M-4 -176l39 198l97 291h55l-18 -291l-40 -198h-133zM172 371q-37 0 -53 15.5t-16 38.5q0 6 1 15.5t4 24.5q6 30 27 49.5t63 19.5q37 0 53 -15t16 -38q0 -5 -1 -15t-4 -25q-6 -30 -27 -50t-63 -20z" />
    <glyph glyph-name="exclam" unicode="!" horiz-adv-x="302" 
d="M114 210l20 291l39 197h131l-39 -197l-96 -291h-55zM100 -12q-37 0 -53 15t-16 38q0 6 1 16t4 25q6 30 27 49.5t63 19.5q37 0 53 -15t16 -38q0 -6 -1 -15.5t-4 -25.5q-6 -30 -27 -49.5t-63 -19.5z" />
    <glyph glyph-name="questiondown" unicode="&#xbf;" horiz-adv-x="485" 
d="M179 -188q-92 0 -144 44.5t-52 121.5q0 42 15.5 80t44 69t67 53t85.5 31l19 86h118l-32 -157q-81 -6 -126.5 -35t-56.5 -76q-2 -7 -3 -17t-1 -20q0 -35 23 -53.5t59 -18.5q45 0 75 26.5t47 70.5l100 -44q-32 -72 -89.5 -116.5t-148.5 -44.5zM287 371q-37 0 -53 15.5
t-16 38.5q0 6 1 15.5t4 24.5q6 30 27.5 49.5t62.5 19.5q37 0 53 -15t16 -38q0 -5 -1 -15t-4 -25q-6 -30 -27 -50t-63 -20z" />
    <glyph glyph-name="question" unicode="?" horiz-adv-x="484" 
d="M155 226l32 156q81 6 126.5 35t56.5 76q2 7 3.5 17.5t1.5 19.5q0 36 -23.5 54.5t-59.5 18.5q-45 0 -75 -27t-47 -71l-100 44q16 36 38 65.5t51.5 51t66 33t82.5 11.5q92 0 144 -44.5t52 -121.5q0 -42 -16 -80t-44 -69t-67 -53t-85 -31l-18 -85h-119zM173 -12
q-36 0 -52.5 15t-16.5 38q0 11 6 41t27 49.5t62 19.5q37 0 53.5 -15t16.5 -38q0 -10 -6 -41q-6 -30 -27 -49.5t-63 -19.5z" />
    <glyph glyph-name="parenleft" unicode="(" horiz-adv-x="346" 
d="M66 215q0 89 23.5 170t63.5 151t92 127t108 97h129q-51 -39 -97.5 -84t-84 -95t-63.5 -103.5t-37 -109.5l-20 -96q-3 -17 -4 -31.5t-1 -27.5q0 -106 35 -194t93 -157h-113q-25 29 -47.5 67.5t-39.5 83.5t-27 96t-10 106z" />
    <glyph glyph-name="parenright" unicode=")" horiz-adv-x="346" 
d="M304 408q0 -89 -24 -170.5t-63.5 -151.5t-91.5 -127t-109 -97h-129q51 39 97.5 84t84 95t64 104t37.5 110l19 96q4 17 5 31.5t1 27.5q0 106 -35 194t-94 156h113q25 -29 47.5 -67t40 -83t27.5 -96t10 -106z" />
    <glyph glyph-name="bracketleft" unicode="[" horiz-adv-x="321" 
d="M0 -138l180 898h200l-17 -87h-90l-146 -724h91l-17 -87h-201z" />
    <glyph glyph-name="bracketright" unicode="]" horiz-adv-x="321" 
d="M341 760l-180 -898h-200l18 87h90l145 724h-91l18 87h200z" />
    <glyph glyph-name="braceleft" unicode="{" horiz-adv-x="352" 
d="M131 -138q-35 0 -56 18.5t-21 52.5q0 14 3 25l40 202q3 15 3 29q0 71 -76 71l21 103q92 0 110 88l43 215q9 47 36.5 70.5t66.5 23.5h109l-18 -92h-81l-46 -229q-5 -23 -13.5 -44t-23.5 -38.5t-36.5 -28.5t-51.5 -13l-1 -8q35 -7 57 -31.5t22 -62.5q0 -8 -1.5 -16.5
t-3.5 -16.5l-45 -226h81l-19 -92h-99z" />
    <glyph glyph-name="braceright" unicode="}" horiz-adv-x="352" 
d="M-21 -46h81l45 229q4 22 13 43.5t24 39t37 28.5t52 13v8q-34 7 -56 32t-22 63q0 7 1 15.5t3 16.5l45 226h-81l19 92h99q35 0 56 -18.5t21 -52.5q0 -6 -0.5 -13t-1.5 -12l-41 -202q-3 -15 -3 -29q0 -71 77 -71l-21 -103q-93 0 -111 -88l-43 -215q-9 -47 -36 -70.5
t-67 -23.5h-108z" />
    <glyph glyph-name="slash" unicode="/" horiz-adv-x="449" 
d="M-72 -151l461 891h111l-461 -891h-111z" />
    <glyph glyph-name="backslash" unicode="\" horiz-adv-x="449" 
d="M250 -151l-104 891h101l103 -891h-100z" />
    <glyph glyph-name="fraction" unicode="&#x2044;" horiz-adv-x="148" 
d="M-278 0l643 698h102l-643 -698h-102z" />
    <glyph glyph-name="percent" unicode="%" horiz-adv-x="928" 
d="M137 0l576 698h111l-576 -698h-111zM241 314q-67 0 -106.5 39t-39.5 117q0 53 16 97t43 76t63 49.5t77 17.5q67 0 106.5 -39t39.5 -117q0 -53 -16 -97t-43 -75.5t-63.5 -49.5t-76.5 -18zM247 389q29 0 46.5 23.5t27.5 71.5l11 56q5 22 5 39q0 26 -13 41t-36 15
q-29 0 -46 -23.5t-27 -71.5l-12 -56q-2 -10 -3 -20.5t-1 -18.5q0 -26 12.5 -41t35.5 -15zM666 -12q-67 0 -106.5 39t-39.5 117q0 53 16 97t43 76t63 49.5t77 17.5q67 0 106.5 -39t39.5 -117q0 -53 -16 -97t-43 -75.5t-63.5 -49.5t-76.5 -18zM672 63q29 0 46 23.5t27 71.5
l12 56q2 10 3 20.5t1 18.5q0 26 -12.5 41t-35.5 15q-29 0 -46 -23.5t-28 -71.5l-11 -56q-5 -22 -5 -39q0 -26 13 -41t36 -15z" />
    <glyph glyph-name="perthousand" unicode="&#x2030;" horiz-adv-x="1313" 
d="M137 0l576 698h111l-576 -698h-111zM241 314q-67 0 -106.5 39t-39.5 117q0 53 16 97t43 76t63 49.5t77 17.5q67 0 106.5 -39t39.5 -117q0 -53 -16 -97t-43 -75.5t-63.5 -49.5t-76.5 -18zM247 389q29 0 46.5 23.5t27.5 71.5l11 56q5 22 5 39q0 26 -13 41t-36 15
q-29 0 -46 -23.5t-27 -71.5l-12 -56q-2 -10 -3 -20.5t-1 -18.5q0 -26 12.5 -41t35.5 -15zM666 -12q-67 0 -106.5 39t-39.5 117q0 53 16 97t43 76t63 49.5t77 17.5q67 0 106.5 -39t39.5 -117q0 -53 -16 -97t-43 -75.5t-63.5 -49.5t-76.5 -18zM672 63q29 0 46 23.5t27 71.5
l12 56q2 10 3 20.5t1 18.5q0 26 -12.5 41t-35.5 15q-29 0 -46 -23.5t-28 -71.5l-11 -56q-5 -22 -5 -39q0 -26 13 -41t36 -15zM1051 -11q-67 0 -106.5 39t-39.5 117q0 53 16 97t43 76t63 49.5t77 17.5q67 0 106.5 -39t39.5 -117q0 -53 -16 -97t-43 -75.5t-63.5 -49.5
t-76.5 -18zM1057 64q29 0 46 23.5t27 71.5l12 56q2 10 3 20.5t1 18.5q0 26 -12.5 41t-35.5 15q-30 0 -47 -23.5t-27 -71.5l-11 -56q-5 -22 -5 -39q0 -26 13 -41t36 -15z" />
    <glyph glyph-name="bar" unicode="|" horiz-adv-x="369" 
d="M50 -138l180 898h108l-179 -898h-109z" />
    <glyph glyph-name="brokenbar" unicode="&#xa6;" horiz-adv-x="369" 
d="M158 403l72 357h108l-71 -357h-109zM50 -138l72 357h108l-71 -357h-109z" />
    <glyph glyph-name="section" unicode="&#xa7;" horiz-adv-x="556" 
d="M426 34q0 -43 -16.5 -78.5t-46.5 -61t-70.5 -39.5t-88.5 -14q-56 0 -105.5 16.5t-81.5 53.5l73 73q20 -25 51 -38.5t75 -13.5q41 0 69.5 23.5t28.5 59.5q0 29 -17.5 45.5t-54.5 28.5l-66 20q-64 20 -91.5 55t-27.5 77q0 56 32.5 97t98.5 60l2 9q-29 23 -41.5 51t-12.5 61
q0 43 16.5 78t46 60t70 39t88.5 14q56 0 105.5 -17t82.5 -55l-73 -71q-20 25 -51 38t-75 13q-42 0 -70.5 -21.5t-28.5 -56.5q0 -29 17.5 -45.5t54.5 -28.5l66 -20q65 -20 92.5 -55.5t27.5 -77.5q0 -55 -33 -96.5t-99 -59.5l-1 -10q54 -44 54 -113zM396 271q0 29 -16.5 49.5
t-56.5 33.5l-66 20l-16.5 5.5t-12.5 6.5q-33 -21 -47.5 -47.5t-14.5 -55.5t16.5 -49.5t56.5 -33.5l65 -20q10 -3 17 -5.5t13 -5.5q32 20 47 46.5t15 55.5z" />
    <glyph glyph-name="paragraph" unicode="&#xb6;" horiz-adv-x="641" 
d="M231 274q-33 0 -62 15t-50 40.5t-33.5 59t-12.5 71.5q0 49 18.5 92t52.5 75.5t80 51.5t102 19h336l-18 -93h-61l-152 -754h-93l151 754h-98l-152 -754h-93z" />
    <glyph glyph-name="copyright" unicode="&#xa9;" horiz-adv-x="775" 
d="M352 -12q-66 0 -119.5 22t-91.5 62.5t-59 96.5t-21 124q0 89 30 165.5t82.5 132t125 87t156.5 31.5q66 0 119.5 -22.5t91.5 -62.5t59 -96t21 -123q0 -90 -30 -166.5t-82.5 -132t-125 -87t-156.5 -31.5zM356 49q56 0 107 19.5t91.5 53t68 79t38.5 96.5q7 33 11 61t4 47
q0 55 -16.5 100t-46.5 77t-71.5 49t-90.5 17q-57 0 -107.5 -19.5t-91 -53t-68.5 -78.5t-38 -96q-7 -33 -11 -61t-4 -47q0 -56 16.5 -101t46.5 -77t71 -49t91 -17zM381 140q-75 0 -119 45.5t-44 123.5q0 49 16 94.5t44.5 79.5t68 54.5t85.5 20.5q69 0 105 -31.5t50 -77.5
l-87 -38q-6 26 -22.5 42t-45.5 16q-37 0 -58 -22.5t-28 -57.5l-14 -71q-3 -15 -3 -27q0 -28 17 -45.5t49 -17.5q27 0 48 16.5t39 42.5l78 -44q-13 -21 -30 -39.5t-39 -32.5t-49.5 -22.5t-60.5 -8.5z" />
    <glyph glyph-name="registered" unicode="&#xae;" horiz-adv-x="458" 
d="M251 297q-39 0 -72 13t-56 36.5t-36 55.5t-13 70q0 52 17.5 96t48.5 75.5t72.5 49t88.5 17.5q39 0 71.5 -13t56 -36.5t36.5 -55.5t13 -69q0 -52 -18 -96t-48.5 -75.5t-72 -49.5t-88.5 -18zM257 340q60 0 105.5 37.5t59.5 101.5q5 25 6.5 38.5t1.5 21.5q0 60 -38 94.5
t-97 34.5q-30 0 -57 -10t-49 -28t-37.5 -43.5t-21.5 -57.5q-5 -26 -6.5 -39.5t-1.5 -20.5q0 -61 38 -95t97 -34zM231 400h-55l42 209h87q37 0 53.5 -17.5t16.5 -44.5q0 -23 -14 -43t-40 -27l29 -77h-58l-24 68h-24zM283 508q27 0 32 22q3 13 3 17q0 20 -23 20h-31l-12 -59
h31z" />
    <glyph glyph-name="trademark" unicode="&#x2122;" horiz-adv-x="594" 
d="M122 412l47 231h-72l11 55h210l-11 -55h-69l-47 -231h-69zM294 412l57 286h74l36 -117h5l79 117h82l-58 -286h-64l21 105l25 91h-4l-105 -143l-48 143h-4l-11 -91l-21 -105h-64z" />
    <glyph glyph-name="ordfeminine" unicode="&#xaa;" horiz-adv-x="428" 
d="M404 346h-52q-57 0 -57 49v11h-4q-16 -31 -45 -49.5t-68 -18.5q-42 0 -70.5 23t-28.5 67q0 58 42.5 90.5t126.5 32.5h67l4 21q2 8 2.5 12.5t0.5 9.5q0 49 -57 49q-31 0 -52 -13.5t-39 -33.5l-51 42q24 31 61.5 51.5t93.5 20.5q60 0 98 -26t38 -79q0 -16 -3 -32l-32 -160
h38zM243 500q-63 0 -72 -46q-3 -15 -3 -22q0 -17 13 -25t34 -8q30 0 53 15t28 43l8 43h-61z" />
    <glyph glyph-name="ordmasculine" unicode="&#xba;" horiz-adv-x="416" 
d="M232 337q-66 0 -105 40.5t-39 111.5q0 43 13.5 83t39 71t63 49t85.5 18q65 0 104.5 -40.5t39.5 -110.5q0 -44 -13.5 -84t-39 -71t-63 -49t-85.5 -18zM241 405q34 0 57 24.5t31 66.5l12 60q3 15 3 23q0 30 -17.5 46.5t-46.5 16.5q-34 0 -57 -24t-31 -66l-12 -60
q-3 -15 -3 -24q0 -29 17.5 -46t46.5 -17z" />
    <glyph glyph-name="degree" unicode="&#xb0;" horiz-adv-x="457" 
d="M263 343q-35 0 -64.5 12.5t-50.5 34.5t-33 52t-12 66q0 43 15.5 80t42 64t63 42.5t78.5 15.5q35 0 64.5 -12.5t50.5 -34.5t33 -52t12 -66q0 -44 -15.5 -81t-42.5 -64t-63 -42t-78 -15zM272 427q45 0 72 34t27 83q0 35 -21 58.5t-58 23.5q-45 0 -71.5 -34t-26.5 -83
q0 -34 21 -58t57 -24z" />
    <glyph glyph-name="asterisk" unicode="*" horiz-adv-x="552" 
d="M182 281l-80 70l138 136l-150 48l45 101l149 -66l28 177h112l-41 -175l159 62l26 -99l-174 -54l82 -141l-93 -58l-71 150z" />
    <glyph glyph-name="dagger" unicode="&#x2020;" horiz-adv-x="516" 
d="M112 -200l124 622h-176l19 94h176l45 224h106l-45 -224h173l-18 -94h-174l-124 -622h-106z" />
    <glyph glyph-name="daggerdbl" unicode="&#x2021;" horiz-adv-x="532" 
d="M120 -200l45 224h-174l19 94h174l61 304h-176l18 94h177l45 224h106l-45 -224h173l-19 -94h-173l-61 -304h175l-19 -94h-175l-45 -224h-106z" />
    <glyph glyph-name="numbersign" unicode="#" horiz-adv-x="652" 
d="M354 183h-149l-68 -183h-84l68 183h-113l17 80h126l64 172h-113l16 80h126l68 183h84l-68 -183h149l68 183h84l-68 -183h112l-16 -80h-126l-64 -172h113l-16 -80h-126l-68 -183h-84zM383 263l65 172h-149l-65 -172h149z" />
    <glyph glyph-name="asciicircum" unicode="^" horiz-adv-x="600" 
d="M474 285l-106 287h-9l-212 -287l-91 54l266 359h117l136 -373z" />
    <glyph glyph-name="asciitilde" unicode="~" horiz-adv-x="600" 
d="M403 218q-39 0 -64 11.5t-54 27.5q-26 14 -48.5 24t-52.5 10q-23 0 -41.5 -7.5t-43.5 -22.5l-33 74q22 24 55 40.5t82 16.5q39 0 64 -11t54 -27q26 -14 49 -24t53 -10q23 0 41.5 7t42.5 23l33 -75q-22 -23 -55 -40t-82 -17z" />
    <glyph glyph-name="plus" unicode="+" horiz-adv-x="600" 
d="M205 62l38 193h-175l20 101h175l38 192h110l-38 -192h174l-19 -101h-175l-38 -193h-110z" />
    <glyph glyph-name="minus" unicode="&#x2212;" horiz-adv-x="600" 
d="M68 255l20 101h459l-20 -101h-459z" />
    <glyph glyph-name="plusminus" unicode="&#xb1;" horiz-adv-x="600" 
d="M228 175l35 177h-175l19 101h176l35 176h110l-35 -176h174l-20 -101h-175l-35 -177h-109zM19 0l19 101h459l-20 -101h-458z" />
    <glyph glyph-name="multiply" unicode="&#xd7;" horiz-adv-x="600" 
d="M302 230l-173 -149l-64 77l175 152l-115 149l84 70l113 -149l173 149l64 -77l-175 -152l114 -149l-83 -70z" />
    <glyph glyph-name="divide" unicode="&#xf7;" horiz-adv-x="600" 
d="M69 255l21 102h459l-21 -102h-459zM259 36q-38 0 -53 14t-15 33q0 7 1.5 18.5t3.5 20.5q6 28 25.5 45t60.5 17q38 0 53 -13.5t15 -33.5q0 -7 -1.5 -18.5t-3.5 -20.5q-6 -28 -25.5 -45t-60.5 -17zM336 427q-38 0 -53 13.5t-15 33.5q0 7 1.5 18.5t3.5 20.5q6 28 25.5 45
t60.5 17q38 0 53 -14t15 -33q0 -7 -1.5 -18.5t-3.5 -20.5q-6 -28 -25.5 -45t-60.5 -17z" />
    <glyph glyph-name="equal" unicode="=" horiz-adv-x="600" 
d="M92 367l20 101h459l-20 -101h-459zM48 144l20 101h459l-20 -101h-459z" />
    <glyph glyph-name="approxequal" unicode="&#x2248;" horiz-adv-x="600" 
d="M421 328q-39 0 -64 11.5t-54 27.5q-26 14 -48.5 24t-52.5 10q-23 0 -41.5 -7.5t-43.5 -22.5l-33 74q22 24 55 40.5t82 16.5q39 0 64 -11t54 -27q26 -14 49 -24t53 -10q23 0 41.5 7t42.5 23l33 -75q-22 -23 -55 -40t-82 -17zM386 109q-39 0 -64 11.5t-54 27.5
q-26 14 -48.5 24t-52.5 10q-23 0 -41.5 -7.5t-43.5 -22.5l-33 74q22 24 55 40.5t82 16.5q39 0 64 -11t54 -27q26 -14 49 -24t53 -10q23 0 41.5 7t42.5 23l33 -75q-22 -23 -55 -40t-82 -17z" />
    <glyph glyph-name="notequal" unicode="&#x2260;" horiz-adv-x="600" 
d="M68 47l70 97h-90l20 100h147l86 124h-209l20 100h259l70 97h110l-70 -97h90l-20 -100h-147l-86 -124h209l-20 -100h-259l-70 -97h-110z" />
    <glyph glyph-name="less" unicode="&#x3c;" horiz-adv-x="600" 
d="M97 253l17 84l449 255l-27 -137l-299 -164l-2 -8l233 -166l-25 -122z" />
    <glyph glyph-name="greater" unicode="&#x3e;" horiz-adv-x="600" 
d="M79 133l300 166l2 7l-234 165l25 121l346 -256l-17 -84l-449 -257z" />
    <glyph glyph-name="lessequal" unicode="&#x2264;" horiz-adv-x="600" 
d="M41 0l20 101h414l-20 -101h-414zM551 482l-308 -114l-1 -7l262 -117l-22 -108l-378 181l21 102l449 178z" />
    <glyph glyph-name="greaterequal" unicode="&#x2265;" horiz-adv-x="600" 
d="M92 252l307 114l1 7l-261 116l22 109l378 -182l-21 -102l-449 -177zM62 101h414l-20 -101h-414z" />
    <glyph glyph-name="periodcentered" unicode="&#xb7;" horiz-adv-x="341" 
d="M166 221q-36 0 -52 16.5t-16 38.5q0 8 2 20.5t4 21.5q5 29 26.5 48.5t60.5 19.5q37 0 53 -16.5t16 -37.5q0 -8 -2 -20t-4 -22q-5 -29 -26.5 -49t-61.5 -20z" />
    <glyph glyph-name="bullet" unicode="&#x2022;" horiz-adv-x="411" 
d="M193 159q-70 0 -98.5 25.5t-28.5 67.5q0 5 2 20.5t7 42.5q10 52 47 87t111 35q70 0 99 -25.5t29 -67.5q0 -10 -2.5 -26t-7.5 -37q-5 -27 -16.5 -49t-31 -38.5t-46.5 -25.5t-64 -9z" />
    <glyph glyph-name="lozenge" unicode="&#x25ca;" horiz-adv-x="599" 
d="M213 0l-138 351l260 347h81l139 -351l-260 -347h-82zM276 124l169 229l-86 221h-6l-168 -229l85 -221h6z" />
    <glyph glyph-name="logicalnot" unicode="&#xac;" horiz-adv-x="600" 
d="M377 78l36 177h-346l20 102h450l-56 -279h-104z" />
    <glyph glyph-name="radical" unicode="&#x221a;" horiz-adv-x="594" 
d="M169 0l-37 418h-81l21 104h161l15 -192l12 -237h7l104 237l175 368h112l-334 -698h-155z" />
    <glyph glyph-name="integral" unicode="&#x222b;" horiz-adv-x="436" 
d="M-31 -101h109l141 700q14 69 55.5 105t117.5 36h86l-21 -99h-109l-141 -701q-14 -68 -55.5 -104t-116.5 -36h-86z" />
    <glyph glyph-name="infinity" unicode="&#x221e;" horiz-adv-x="757" 
d="M172 94q-72 0 -112.5 40t-40.5 115q0 54 17.5 99t48 78t72 51.5t90.5 18.5q62 0 107 -31t62 -107h4q23 73 71.5 105.5t104.5 32.5q72 0 112.5 -40t40.5 -116q0 -54 -17.5 -99t-48 -77.5t-72 -51t-90.5 -18.5q-30 0 -57 7t-49 23.5t-38 43t-24 64.5h-4q-12 -37 -30.5 -63
t-42 -42.5t-50 -24.5t-54.5 -8zM201 193q43 0 76.5 26t55.5 68q-6 46 -26 77.5t-64 31.5q-37 0 -66 -22.5t-39 -67.5q-2 -12 -4.5 -24t-2.5 -22q0 -32 18.5 -49.5t51.5 -17.5zM525 193q37 0 66 22.5t39 68.5q3 11 5 23t2 22q0 67 -70 67q-43 0 -76.5 -25.5t-55.5 -67.5
q7 -47 26.5 -78.5t63.5 -31.5z" />
    <glyph glyph-name="uni212E" unicode="&#x212e;" horiz-adv-x="718" 
d="M204 94q29 -21 67.5 -34.5t87.5 -13.5q90 0 149 41t95 108l52 -30q-20 -38 -48.5 -70.5t-66 -56t-83 -37t-98.5 -13.5q-71 0 -130.5 25.5t-103.5 72.5t-68.5 113.5t-24.5 149.5q0 82 24.5 149t68.5 114t103.5 72.5t130.5 25.5q70 0 130 -25.5t104 -72.5t68.5 -114
t24.5 -149h-482v-255zM513 404v203q-29 21 -67.5 34.5t-86.5 13.5q-49 0 -87.5 -13.5t-67.5 -34.5v-203h309z" />
    <glyph glyph-name="uni2113" unicode="&#x2113;" horiz-adv-x="519" 
d="M289 -12q-36 0 -66.5 12t-52.5 34t-34.5 53.5t-12.5 71.5v16q-4 -3 -11 -7.5t-15 -9.5l-16 -10t-13 -8l-47 79q26 15 55.5 31.5t46.5 30.5v264q0 57 12 96t34 64t51.5 36t65.5 11q77 0 117.5 -46t40.5 -129q0 -93 -54 -175t-162 -168v-60q0 -47 18 -66.5t49 -19.5
q35 0 62 25.5t51 89.5l88 -38q-13 -37 -32 -69.5t-44.5 -56.5t-58 -37.5t-72.5 -13.5zM285 650q-24 0 -40.5 -19.5t-16.5 -64.5v-216q51 48 80 100.5t29 105.5v17q0 42 -15 59.5t-37 17.5z" />
    <glyph glyph-name="uni2116" unicode="&#x2116;" horiz-adv-x="1017" 
d="M846 360q-29 0 -54.5 9.5t-44 27.5t-29 44.5t-10.5 61.5q0 39 13 76.5t37.5 66.5t59.5 46.5t80 17.5q59 0 98 -37t39 -106q0 -39 -13 -76.5t-37.5 -66.5t-59.5 -46.5t-79 -17.5zM27 0l140 698h145l105 -361l38 -146h5l101 507h117l-140 -698h-145l-104 359l-38 148h-6
l-101 -507h-117zM854 432q29 0 49 20.5t28 59.5l9 45q3 15 3 26q0 26 -13.5 40.5t-39.5 14.5q-29 0 -49 -21t-28 -59l-10 -45q-3 -15 -3 -26q0 -26 14 -40.5t40 -14.5zM660 226l15 74h301l-15 -74h-301z" />
    <glyph glyph-name="partialdiff" unicode="&#x2202;" horiz-adv-x="568" 
d="M242 -12q-101 0 -153.5 58.5t-52.5 159.5q0 62 18 116t49.5 94.5t74.5 64t94 23.5q55 0 89.5 -28t48.5 -74h7q-8 52 -33 97.5t-58.5 83t-70 66.5t-66.5 49h171q75 -60 121 -145t46 -203q0 -78 -18 -144.5t-54 -114.5t-89.5 -75.5t-123.5 -27.5zM251 85q51 0 83 34t42 88
l12 63q2 12 3.5 23.5t1.5 21.5q0 44 -25 67.5t-69 23.5q-51 0 -82.5 -34t-41.5 -88l-12 -64q-5 -25 -5 -44q0 -44 25 -67.5t68 -23.5z" />
    <glyph glyph-name="cent" unicode="&#xa2;" horiz-adv-x="523" 
d="M179 -4q-66 17 -104 74t-38 145q0 58 17 111.5t49 95.5t78 69.5t104 34.5l21 104h98l-22 -108q50 -13 82.5 -44.5t46.5 -75.5l-97 -47q-6 25 -20.5 43t-38.5 27l-67 -336q30 8 53.5 28t43.5 51l83 -50q-33 -54 -79.5 -86.5t-112.5 -40.5l-21 -105h-98zM154 184
q0 -32 13 -55.5t39 -34.5l66 330q-38 -12 -63 -42.5t-34 -75.5l-17 -88q-4 -16 -4 -34z" />
    <glyph glyph-name="Euro" unicode="&#x20ac;" horiz-adv-x="613" 
d="M296 -12q-50 0 -94 18t-76.5 54t-51 90t-18.5 126q0 96 29 176t77.5 137t112 89t131.5 32q84 0 140.5 -34t81.5 -98l-100 -61q-14 42 -44 65t-85 23q-58 0 -103 -35.5t-69 -98.5h234l-17 -82h-237l-17 -80h238l-17 -82h-228q4 -64 37.5 -99t87.5 -35q31 0 55.5 8t44 22
t34.5 32t27 38l79 -68q-42 -63 -102.5 -100t-149.5 -37z" />
    <glyph glyph-name="florin" unicode="&#x192;" horiz-adv-x="475" 
d="M-40 -35h124l82 304h-106l21 102h114l52 193q17 62 60 98t116 36h107l-20 -99h-130l-61 -228h142l-20 -102h-150l-73 -270q-17 -63 -61 -98t-116 -35h-101z" />
    <glyph glyph-name="sterling" unicode="&#xa3;" horiz-adv-x="587" 
d="M29 0l25 125q54 23 78 69.5t24 95.5h-98l21 103h66q-2 14 -3.5 29t-1.5 31q0 54 19 101t54 81.5t83.5 54.5t108.5 20q78 0 128 -30.5t83 -88.5l-101 -66q-20 38 -47.5 55.5t-71.5 17.5q-61 0 -95.5 -40.5t-34.5 -112.5q0 -14 1 -27.5t3 -24.5h196l-21 -103h-162
q-2 -33 -11.5 -60t-24 -49t-32.5 -37.5t-35 -25.5l-2 -8h332l-22 -110h-459z" />
    <glyph glyph-name="dollar" unicode="$" horiz-adv-x="566" 
d="M180 9q-60 10 -107.5 36.5t-72.5 68.5l83 74q20 -34 53 -54t73 -28l41 206q-86 19 -126.5 61.5t-40.5 111.5q0 43 15.5 79.5t45.5 64t74 44.5t100 20l18 87h95l-19 -93q53 -9 92.5 -32.5t62.5 -61.5l-85 -72q-14 24 -39 42.5t-60 26.5l-38 -188q84 -19 126.5 -60.5
t42.5 -110.5q0 -41 -15 -79.5t-45 -69.5t-75 -51t-104 -25l-17 -88h-95zM395 212q0 29 -15.5 50.5t-55.5 32.5l-36 -190q29 4 49.5 14.5t33 25t18.5 32t6 35.5zM202 499q0 -59 70 -79l33 174q-53 -6 -78 -32.5t-25 -62.5z" />
    <glyph glyph-name="yen" unicode="&#xa5;" horiz-adv-x="620" 
d="M347 138l-28 -138h-126l27 138h-163l16 82h164l15 77h-163l16 82h113l-104 319h134l86 -284h4l198 284h147l-235 -319h114l-17 -82h-166l-15 -77h166l-17 -82h-166z" />
    <glyph glyph-name="uni0E3F" unicode="&#xe3f;" horiz-adv-x="639" 
d="M297 -87h-98l21 107h-189l132 657h189l21 103h97l-21 -103q85 -2 129 -42.5t44 -103.5t-38.5 -104.5t-99.5 -57.5l-1 -4q47 -11 74.5 -46.5t27.5 -86.5q0 -41 -17 -79t-48 -67.5t-75 -47.5t-99 -18h-28zM303 403l34 170h-75l-33 -170h74zM387 403h8q36 0 60 17.5t31 52.5
q5 20 6.5 29.5t1.5 17.5q0 27 -17.5 40t-48.5 13h-7zM248 125l36 178h-76l-35 -178h75zM332 125h31q36 0 60 18t31 54q5 24 6.5 34t1.5 18q0 26 -18 40t-50 14h-26z" />
    <glyph glyph-name="uni20A1" unicode="&#x20a1;" horiz-adv-x="608" 
d="M121 -82l36 124q-46 32 -74 91t-28 150q0 76 20.5 145t59 123t93 90.5t123.5 47.5l27 91h68l-25 -86q21 0 43 -5l27 91h67l-33 -111q34 -17 58.5 -43.5t39.5 -58.5l-96 -58q-10 31 -36 52l-131 -445q64 19 104 85l77 -64q-40 -58 -89.5 -90t-123.5 -40l-26 -89h-68l26 87
q-22 1 -43 9l-28 -96h-68zM247 116q20 -8 44 -10l143 481q-23 6 -46 6zM175 245q0 -48 21 -81l123 415q-43 -18 -72.5 -59.5t-42.5 -105.5l-23 -116q-2 -12 -4 -25.5t-2 -27.5z" />
    <glyph glyph-name="uni20A4" unicode="&#x20a4;" horiz-adv-x="587" 
d="M488 0h-459l25 125q71 29 92 105h-101l16 82h96q-1 20 -3.5 39t-4.5 36h-73l16 81h51q-2 52 15.5 96.5t51 76.5t82.5 50.5t111 18.5q77 0 128.5 -30.5t84.5 -88.5l-100 -65q-38 74 -124 74q-59 0 -91 -33.5t-32 -98.5h197l-16 -81h-175q3 -20 5.5 -39t3.5 -36h151
l-16 -82h-148q-12 -42 -39.5 -70.5t-52.5 -42.5l-2 -9h333z" />
    <glyph glyph-name="uni20A6" unicode="&#x20a6;" horiz-adv-x="743" 
d="M371 234h-155l-47 -234h-111l46 231h-80l16 82h80l16 77h-80l16 82h80l45 226h145l69 -228h160l46 228h110l-45 -226h78l-16 -82h-78l-16 -77h78l-16 -82h-78l-46 -231h-146zM348 309l-31 102l-37 131h-4l-46 -233h118zM464 299l41 -145h4l47 240h-122z" />
    <glyph glyph-name="uni20A8" unicode="&#x20a8;" horiz-adv-x="824" 
d="M167 698h188q88 0 135 -40.5t47 -116.5q0 -77 -35 -136t-97 -86l51 -141q18 -50 41.5 -71.5t62.5 -21.5q35 0 53.5 17.5t18.5 42.5q0 16 -8 31t-22 33l-18 22q-23 30 -37.5 59.5t-14.5 67.5q0 33 13 62t36 51t54.5 34.5t69.5 12.5q30 0 62.5 -7t55.5 -24l-56 -83
q-25 19 -60 19q-26 0 -42.5 -15t-16.5 -41q0 -17 9.5 -31.5t25.5 -34.5l17 -20q26 -31 40 -59t14 -62q0 -35 -12 -66t-38 -54.5t-67 -37.5t-99 -14q-68 0 -116.5 33t-74.5 108l-56 160h-80l-58 -289h-126zM301 395q38 0 62.5 20.5t32.5 57.5l9 43q3 12 3 24q0 25 -17.5 38.5
t-49.5 13.5h-70l-39 -197h69z" />
    <glyph glyph-name="uni20A9" unicode="&#x20a9;" horiz-adv-x="912" 
d="M517 234h-135l-96 -234h-146l-3 232h-116l16 82h100v76h-84l16 82h67l-2 226h122l-3 -228h127l95 228h133l4 -228h127l88 228h125l-93 -226h67l-16 -82h-85l-32 -76h100l-15 -82h-119l-94 -232h-145zM251 152l98 242h-97l-5 -242h4zM620 152l90 242h-97l3 -242h4z
M515 309l-2 235h-4l-95 -235h101z" />
    <glyph glyph-name="uni20AA" unicode="&#x20aa;" horiz-adv-x="844" 
d="M320 517h115l-83 -412h143q33 0 57.5 5.5t42 19.5t29 37t18.5 59l95 472h114l-92 -463q-13 -61 -33 -105t-52.5 -73t-80.5 -43t-117 -14h-260zM27 0l140 698h281q82 0 128.5 -43.5t46.5 -121.5q0 -14 -1.5 -30t-5.5 -33l-58 -289h-115l61 301q5 23 5 43q0 35 -19.5 51.5
t-54.5 16.5h-174l-119 -593h-115z" />
    <glyph glyph-name="uni20AB" unicode="&#x20ab;" horiz-adv-x="568" 
d="M350 236h-7q-23 -37 -55.5 -62t-82.5 -25q-59 0 -97 37t-38 116q0 55 15 100.5t41.5 77.5t61.5 49.5t74 17.5q58 0 87 -22.5t40 -57.5h7l27 135h-129l16 80h129l11 58h119l-11 -58h57l-16 -80h-57l-90 -444h-118zM266 239q41 0 67.5 24t31.5 51l15 73q5 28 -16.5 49
t-66.5 21q-43 0 -66.5 -23.5t-31.5 -63.5q-10 -47 -10 -63q0 -32 19.5 -50t57.5 -18zM18 0l18 92h428l-19 -92h-427z" />
    <glyph glyph-name="uni20AD" unicode="&#x20ad;" horiz-adv-x="644" 
d="M170 0h-126l60 303h-83l21 103h83l59 292h126l-59 -292h49l251 292h146l-261 -292h181l-21 -103h-181l156 -303h-140l-147 303h-54z" />
    <glyph glyph-name="uni20AE" unicode="&#x20ae;" horiz-adv-x="600" 
d="M352 209l-41 -209h-126l29 147l-131 -58l17 84l131 59l15 74l-131 -58l17 84l131 59l41 201h-193l21 106h512l-21 -106h-193l-28 -140l134 61l-17 -85l-135 -60l-15 -74l135 60l-17 -85z" />
    <glyph glyph-name="uni20B1" unicode="&#x20b1;" horiz-adv-x="672" 
d="M122 318h-83l14 75h84l16 76h-84l15 76h84l30 153h225q75 0 123 -36.5t57 -116.5h98l-16 -76h-81q-2 -20 -5 -38.5t-8 -37.5h79l-15 -75h-92q-35 -70 -93 -112t-130 -42h-123l-33 -164h-126zM293 541h196q-2 29 -18.5 47.5t-47.5 18.5h-118zM262 390h200l17 83h-200z
M353 256q67 0 93 66h-198l-13 -66h118z" />
    <glyph glyph-name="uni20B2" unicode="&#x20b2;" horiz-adv-x="656" 
d="M171 35q-51 30 -83.5 89.5t-32.5 154.5q0 87 25 163t70 132t108.5 88t140.5 32h8.5t6.5 -1l32 87h98l-39 -106q46 -19 77.5 -53t45.5 -81l-104 -47q-5 27 -20 49t-41 36l-74 -200h221l-25 -129q-14 -70 -46.5 -117t-74.5 -75.5t-89.5 -40.5t-91.5 -12h-12.5t-12.5 1
l-33 -87h-97zM175 248q0 -38 10.5 -65t29.5 -44l168 452q-4 1 -9 1q-69 -5 -111.5 -53.5t-59.5 -129.5l-22 -107q-6 -27 -6 -54zM289 105h11q59 0 104.5 32.5t59.5 100.5l8 39h-121z" />
    <glyph glyph-name="uni20B4" unicode="&#x20b4;" horiz-adv-x="607" 
d="M270 -12q-47 0 -82.5 12.5t-59 35t-35 53.5t-11.5 67q0 41 16 79h-68l16 82h122l145 77h-252l17 83h351q8 14 12.5 28.5t4.5 29.5q0 35 -22.5 53.5t-64.5 18.5q-69 0 -128 -56l-64 76q42 42 97 62.5t112 20.5q46 0 81 -11.5t59 -32t36.5 -48t12.5 -60.5q0 -20 -5.5 -41.5
t-13.5 -39.5h71l-17 -83h-122l-140 -77h247l-16 -82h-355q-10 -14 -13.5 -29.5t-3.5 -30.5q0 -42 25.5 -63.5t70.5 -21.5q33 0 68 14.5t78 55.5l63 -77q-45 -47 -104.5 -71t-127.5 -24z" />
    <glyph glyph-name="uni20B5" unicode="&#x20b5;" horiz-adv-x="608" 
d="M171 35q-52 31 -84 92t-32 156q0 83 24 157.5t68.5 131t108 89.5t142.5 33h7t8 -1l33 87h98l-40 -104q85 -33 119 -109l-95 -58q-12 26 -28.5 42.5t-37.5 27.5l-173 -473q2 -1 5 -1h5q51 0 93 23.5t72 71.5l77 -63q-45 -65 -104.5 -99t-150.5 -34h-14t-14 2l-31 -88h-98z
M176 245q0 -35 10.5 -61.5t29.5 -43.5l166 452h-8q-65 -5 -109 -50.5t-61 -129.5l-22 -113q-6 -26 -6 -54z" />
    <glyph glyph-name="uni20B8" unicode="&#x20b8;" 
d="M107 605l18 93h511l-18 -93h-511zM392 427l-86 -427h-127l86 427h-194l19 93h510l-18 -93h-190z" />
    <glyph glyph-name="uni20B9" unicode="&#x20b9;" horiz-adv-x="601" 
d="M330 0l-145 244h-130l19 92h170q54 0 84 24.5t43 62.5h-279l17 93h277q0 48 -21.5 68.5t-69.5 20.5h-167l18 93h514l-18 -93h-194l-1 -5q45 -16 54 -84h123l-19 -93h-107q-14 -63 -61 -110t-128 -61l154 -252h-133z" />
    <glyph glyph-name="uni20BA" unicode="&#x20ba;" horiz-adv-x="614" 
d="M116 222l-96 -43l17 85l96 43l15 75l-96 -43l17 84l95 43l47 232h127l-34 -170l182 83l-17 -85l-182 -82l-15 -75l182 83l-17 -84l-182 -83l-35 -179h58q74 0 120 46t69 153h121q-26 -142 -104.5 -223.5t-210.5 -81.5h-202z" />
    <glyph glyph-name="uni20BD" unicode="&#x20bd;" horiz-adv-x="647" 
d="M207 113l-23 -113h-126l23 113h-84l18 93h84l18 89h-84l18 93h85l62 310h259q97 0 145 -45.5t48 -123.5q0 -45 -16.5 -87t-48 -75t-76.5 -52.5t-102 -19.5h-164l-18 -89h225l-19 -93h-224zM262 388h151q38 0 63.5 21.5t33.5 59.5q5 29 7.5 40t2.5 20q0 62 -77 62h-140z
" />
    <glyph glyph-name="uni20BF" unicode="&#x20bf;" horiz-adv-x="648" 
d="M289 20h-63l-20 -102h-95l20 102h-100l132 657h100l21 103h95l-21 -103h63l21 103h95l-22 -112q52 -14 79.5 -48.5t27.5 -83.5q0 -62 -36.5 -107t-99.5 -61v-5q46 -12 72.5 -45t26.5 -84q0 -42 -14 -78.5t-40 -64t-63 -45t-83 -23.5l-20 -105h-96zM229 402h164
q35 0 60 16.5t32 51.5q5 20 7 31t2 18q0 28 -17.5 41t-48.5 13h-165zM173 125h190q36 0 59.5 17.5t31.5 56.5q5 24 6 33t1 17q0 53 -67 53h-185z" />
    <glyph glyph-name="fl" unicode="&#xfb02;" horiz-adv-x="609" 
d="M82 522h74l16 79q14 68 55 103.5t117 35.5h77l-20 -99h-99l-24 -119h102l-20 -99h-102l-97 -484q-14 -68 -51.5 -103.5t-112.5 -35.5h-80l20 99h94l106 524h-75zM455 0q-39 0 -61.5 20.5t-22.5 54.5q0 10 3 25l128 640h121l-128 -641h66l-19 -99h-87z" />
    <glyph glyph-name="aacute" unicode="&#xe1;" 
d="M432 0q-36 0 -59 19t-23 53q0 8 1 16.5t2 13.5l4 17h-5q-32 -64 -71 -97.5t-99 -33.5q-36 0 -63.5 13.5t-45.5 38.5t-27 59t-9 76q0 76 18 141.5t50.5 114t78 76t99.5 27.5q53 0 89 -28t43 -73h5l18 89h121l-85 -423h63l-19 -99h-86zM236 90q29 0 52.5 14t41.5 35
q39 44 53 110l18 93q4 18 -1 34t-17 29t-30.5 20.5t-42.5 7.5q-103 0 -129 -129l-14 -72q-2 -11 -4 -27t-2 -28q0 -40 19.5 -63.5t55.5 -23.5zM359 581l-73 39l115 185l99 -53z" />
    <glyph glyph-name="abreve" unicode="&#x103;" 
d="M432 0q-36 0 -59 19t-23 53q0 8 1 16.5t2 13.5l4 17h-5q-32 -64 -71 -97.5t-99 -33.5q-36 0 -63.5 13.5t-45.5 38.5t-27 59t-9 76q0 76 18 141.5t50.5 114t78 76t99.5 27.5q53 0 89 -28t43 -73h5l18 89h121l-85 -423h63l-19 -99h-86zM236 90q29 0 52.5 14t41.5 35
q39 44 53 110l18 93q4 18 -1 34t-17 29t-30.5 20.5t-42.5 7.5q-103 0 -129 -129l-14 -72q-2 -11 -4 -27t-2 -28q0 -40 19.5 -63.5t55.5 -23.5zM345 584q-41 0 -68.5 14.5t-45.5 37.5t-28.5 51.5t-15.5 56.5l70 35l15 -34q16 -34 32 -52.5t47 -18.5q27 0 48.5 17.5t50.5 55.5
l25 32l73 -38q-16 -29 -35 -57t-43 -50t-55 -36t-70 -14z" />
    <glyph glyph-name="acircumflex" unicode="&#xe2;" 
d="M432 0q-36 0 -59 19t-23 53q0 8 1 16.5t2 13.5l4 17h-5q-32 -64 -71 -97.5t-99 -33.5q-36 0 -63.5 13.5t-45.5 38.5t-27 59t-9 76q0 76 18 141.5t50.5 114t78 76t99.5 27.5q53 0 89 -28t43 -73h5l18 89h121l-85 -423h63l-19 -99h-86zM236 90q29 0 52.5 14t41.5 35
q39 44 53 110l18 93q4 18 -1 34t-17 29t-30.5 20.5t-42.5 7.5q-103 0 -129 -129l-14 -72q-2 -11 -4 -27t-2 -28q0 -40 19.5 -63.5t55.5 -23.5zM430 786l95 -154l-66 -50l-96 116l-136 -115l-61 49l151 154h113z" />
    <glyph glyph-name="adieresis" unicode="&#xe4;" 
d="M432 0q-36 0 -59 19t-23 53q0 8 1 16.5t2 13.5l4 17h-5q-32 -64 -71 -97.5t-99 -33.5q-36 0 -63.5 13.5t-45.5 38.5t-27 59t-9 76q0 76 18 141.5t50.5 114t78 76t99.5 27.5q53 0 89 -28t43 -73h5l18 89h121l-85 -423h63l-19 -99h-86zM236 90q29 0 52.5 14t41.5 35
q39 44 53 110l18 93q4 18 -1 34t-17 29t-30.5 20.5t-42.5 7.5q-103 0 -129 -129l-14 -72q-2 -11 -4 -27t-2 -28q0 -40 19.5 -63.5t55.5 -23.5zM250 605q-31 0 -44.5 12.5t-13.5 31.5q0 5 1 13t4 22q5 25 22.5 41.5t54.5 16.5q30 0 43.5 -12t13.5 -32q0 -5 -1 -12.5t-4 -21.5
q-5 -25 -22.5 -42t-53.5 -17zM444 605q-31 0 -44.5 12.5t-13.5 31.5q0 5 1.5 13t3.5 22q4 25 22 41.5t55 16.5q30 0 44 -12t14 -32q0 -5 -1.5 -12.5t-3.5 -21.5q-4 -25 -22 -42t-55 -17z" />
    <glyph glyph-name="uni1EA1" unicode="&#x1ea1;" 
d="M432 0q-36 0 -59 19t-23 53q0 8 1 16.5t2 13.5l4 17h-5q-32 -64 -71 -97.5t-99 -33.5q-36 0 -63.5 13.5t-45.5 38.5t-27 59t-9 76q0 76 18 141.5t50.5 114t78 76t99.5 27.5q53 0 89 -28t43 -73h5l18 89h121l-85 -423h63l-19 -99h-86zM236 90q29 0 52.5 14t41.5 35
q39 44 53 110l18 93q4 18 -1 34t-17 29t-30.5 20.5t-42.5 7.5q-103 0 -129 -129l-14 -72q-2 -11 -4 -27t-2 -28q0 -40 19.5 -63.5t55.5 -23.5zM222 -193q-32 0 -47 13t-15 35q0 5 1 11.5t5 21.5q6 25 22.5 40t52.5 15q32 0 46.5 -13t14.5 -34q0 -5 -1 -11.5t-4 -22.5
q-5 -25 -22.5 -40t-52.5 -15z" />
    <glyph glyph-name="agrave" unicode="&#xe0;" 
d="M432 0q-36 0 -59 19t-23 53q0 8 1 16.5t2 13.5l4 17h-5q-32 -64 -71 -97.5t-99 -33.5q-36 0 -63.5 13.5t-45.5 38.5t-27 59t-9 76q0 76 18 141.5t50.5 114t78 76t99.5 27.5q53 0 89 -28t43 -73h5l18 89h121l-85 -423h63l-19 -99h-86zM236 90q29 0 52.5 14t41.5 35
q39 44 53 110l18 93q4 18 -1 34t-17 29t-30.5 20.5t-42.5 7.5q-103 0 -129 -129l-14 -72q-2 -11 -4 -27t-2 -28q0 -40 19.5 -63.5t55.5 -23.5zM223 753l109 51l66 -189l-76 -34z" />
    <glyph glyph-name="uni1EA3" unicode="&#x1ea3;" 
d="M432 0q-36 0 -59 19t-23 53q0 8 1 16.5t2 13.5l4 17h-5q-32 -64 -71 -97.5t-99 -33.5q-36 0 -63.5 13.5t-45.5 38.5t-27 59t-9 76q0 76 18 141.5t50.5 114t78 76t99.5 27.5q53 0 89 -28t43 -73h5l18 89h121l-85 -423h63l-19 -99h-86zM236 90q29 0 52.5 14t41.5 35
q39 44 53 110l18 93q4 18 -1 34t-17 29t-30.5 20.5t-42.5 7.5q-103 0 -129 -129l-14 -72q-2 -11 -4 -27t-2 -28q0 -40 19.5 -63.5t55.5 -23.5zM273 791h134q38 0 55.5 -16t17.5 -38q0 -30 -15.5 -55t-38.5 -54l-48 -55l-60 30l55 98h-117z" />
    <glyph glyph-name="amacron" unicode="&#x101;" 
d="M432 0q-36 0 -59 19t-23 53q0 8 1 16.5t2 13.5l4 17h-5q-32 -64 -71 -97.5t-99 -33.5q-36 0 -63.5 13.5t-45.5 38.5t-27 59t-9 76q0 76 18 141.5t50.5 114t78 76t99.5 27.5q53 0 89 -28t43 -73h5l18 89h121l-85 -423h63l-19 -99h-86zM236 90q29 0 52.5 14t41.5 35
q39 44 53 110l18 93q4 18 -1 34t-17 29t-30.5 20.5t-42.5 7.5q-103 0 -129 -129l-14 -72q-2 -11 -4 -27t-2 -28q0 -40 19.5 -63.5t55.5 -23.5zM230 720h277l-19 -91h-276z" />
    <glyph glyph-name="aogonek" unicode="&#x105;" 
d="M518 0q-41 -25 -64.5 -43t-35.5 -31.5t-15.5 -23t-3.5 -16.5q0 -14 8.5 -22t26.5 -8q14 0 28.5 6t25.5 21l47 -48q-17 -20 -44.5 -32.5t-71.5 -12.5q-46 0 -79 19.5t-33 60.5q0 39 32.5 71.5t101.5 53.5l-1 5h-8q-36 0 -59 19t-23 53q0 8 1 16.5t2 13.5l4 17h-5
q-32 -64 -71 -97.5t-99 -33.5q-36 0 -63.5 13.5t-45.5 38.5t-27 59t-9 76q0 76 18 141.5t50.5 114t78 76t99.5 27.5q53 0 89 -28t43 -73h5l18 89h121l-85 -423h63zM236 90q29 0 53 14.5t41 34.5q39 45 53 110l18 93q4 18 -1 34t-17 29t-30.5 20.5t-42.5 7.5
q-103 0 -129 -129l-14 -72q-2 -11 -4 -27t-2 -28q0 -40 19.5 -63.5t55.5 -23.5z" />
    <glyph glyph-name="aring" unicode="&#xe5;" 
d="M432 0q-36 0 -59 19t-23 53q0 8 1 16.5t2 13.5l4 17h-5q-32 -64 -71 -97.5t-99 -33.5q-36 0 -63.5 13.5t-45.5 38.5t-27 59t-9 76q0 76 18 141.5t50.5 114t78 76t99.5 27.5q53 0 89 -28t43 -73h5l18 89h121l-85 -423h63l-19 -99h-86zM236 90q29 0 52.5 14t41.5 35
q39 44 53 110l18 93q4 18 -1 34t-17 29t-30.5 20.5t-42.5 7.5q-103 0 -129 -129l-14 -72q-2 -11 -4 -27t-2 -28q0 -40 19.5 -63.5t55.5 -23.5zM341 563q-53 0 -86.5 33t-33.5 82q0 35 12 63.5t33 49t49.5 31.5t60.5 11q52 0 85.5 -32.5t33.5 -83.5q0 -35 -12 -63.5
t-33 -48.5t-49 -31t-60 -11zM347 629q24 0 39 14.5t20 38.5q4 17 5.5 26.5t1.5 17.5q0 40 -43 40q-25 0 -40 -14.5t-20 -37.5q-7 -31 -7 -44q0 -41 44 -41z" />
    <glyph glyph-name="aringacute" unicode="&#x1fb;" 
d="M432 0q-36 0 -59 19t-23 53q0 8 1 16.5t2 13.5l4 17h-5q-32 -64 -71 -97.5t-99 -33.5q-36 0 -63.5 13.5t-45.5 38.5t-27 59t-9 76q0 76 18 141.5t50.5 114t78 76t99.5 27.5q53 0 89 -28t43 -73h5l18 89h121l-85 -423h63l-19 -99h-86zM236 90q29 0 52.5 14t41.5 35
q39 44 53 110l18 93q4 18 -1 34t-17 29t-30.5 20.5t-42.5 7.5q-103 0 -129 -129l-14 -72q-2 -11 -4 -27t-2 -28q0 -40 19.5 -63.5t55.5 -23.5zM387 814l-43 48l128 117l59 -67zM342 565q-52 0 -85.5 27t-33.5 74q0 31 12 56.5t33.5 42.5t50 26.5t61.5 9.5q52 0 85.5 -27
t33.5 -74q0 -32 -12 -57t-33.5 -42t-50 -26.5t-61.5 -9.5zM351 627q52 0 61 48q2 8 3 15.5t1 11.5q0 37 -46 37q-52 0 -60 -47q-2 -9 -3 -16.5t-1 -11.5q0 -37 45 -37z" />
    <glyph glyph-name="atilde" unicode="&#xe3;" 
d="M432 0q-36 0 -59 19t-23 53q0 8 1 16.5t2 13.5l4 17h-5q-32 -64 -71 -97.5t-99 -33.5q-36 0 -63.5 13.5t-45.5 38.5t-27 59t-9 76q0 76 18 141.5t50.5 114t78 76t99.5 27.5q53 0 89 -28t43 -73h5l18 89h121l-85 -423h63l-19 -99h-86zM236 90q29 0 52.5 14t41.5 35
q39 44 53 110l18 93q4 18 -1 34t-17 29t-30.5 20.5t-42.5 7.5q-103 0 -129 -129l-14 -72q-2 -11 -4 -27t-2 -28q0 -40 19.5 -63.5t55.5 -23.5zM425 605q-23 0 -40 6.5t-35 15.5q-20 11 -36.5 16.5t-33.5 5.5t-29 -6t-29 -19l-39 59q21 26 48 43t62 17q23 0 40 -6.5t35 -15.5
q20 -11 36.5 -16.5t33.5 -5.5t29 6t29 19l39 -59q-21 -26 -48 -43t-62 -17z" />
    <glyph glyph-name="uni1EAF" unicode="&#x1eaf;" 
d="M432 0q-36 0 -59 19t-23 53q0 8 1 16.5t2 13.5l4 17h-5q-32 -64 -71 -97.5t-99 -33.5q-36 0 -63.5 13.5t-45.5 38.5t-27 59t-9 76q0 76 18 141.5t50.5 114t78 76t99.5 27.5q53 0 89 -28t43 -73h5l18 89h121l-85 -423h63l-19 -99h-86zM236 90q29 0 52.5 14t41.5 35
q39 44 53 110l18 93q4 18 -1 34t-17 29t-30.5 20.5t-42.5 7.5q-103 0 -129 -129l-14 -72q-2 -11 -4 -27t-2 -28q0 -40 19.5 -63.5t55.5 -23.5zM346 576q-42 0 -72 13t-49.5 33.5t-30 46.5t-15.5 52l66 38l15 -27q10 -18 19 -31t19 -21.5t22.5 -12t29.5 -3.5q29 0 52.5 15
t58.5 53l24 27l66 -41q-17 -28 -36 -54t-43.5 -45.5t-55 -31t-70.5 -11.5zM378 723l-67 36l106 186l95 -51z" />
    <glyph glyph-name="uni1EB7" unicode="&#x1eb7;" 
d="M432 0q-36 0 -59 19t-23 53q0 8 1 16.5t2 13.5l4 17h-5q-32 -64 -71 -97.5t-99 -33.5q-36 0 -63.5 13.5t-45.5 38.5t-27 59t-9 76q0 76 18 141.5t50.5 114t78 76t99.5 27.5q53 0 89 -28t43 -73h5l18 89h121l-85 -423h63l-19 -99h-86zM236 90q29 0 52.5 14t41.5 35
q39 44 53 110l18 93q4 18 -1 34t-17 29t-30.5 20.5t-42.5 7.5q-103 0 -129 -129l-14 -72q-2 -11 -4 -27t-2 -28q0 -40 19.5 -63.5t55.5 -23.5zM345 584q-41 0 -68.5 14.5t-45.5 37.5t-28.5 51.5t-15.5 56.5l70 35l15 -34q16 -34 32 -52.5t47 -18.5q27 0 48.5 17.5t50.5 55.5
l25 32l73 -38q-16 -29 -35 -57t-43 -50t-55 -36t-70 -14zM222 -193q-32 0 -47 13t-15 35q0 5 1 11.5t5 21.5q6 25 22.5 40t52.5 15q32 0 46.5 -13t14.5 -34q0 -5 -1 -11.5t-4 -22.5q-5 -25 -22.5 -40t-52.5 -15z" />
    <glyph glyph-name="uni1EB1" unicode="&#x1eb1;" 
d="M432 0q-36 0 -59 19t-23 53q0 8 1 16.5t2 13.5l4 17h-5q-32 -64 -71 -97.5t-99 -33.5q-36 0 -63.5 13.5t-45.5 38.5t-27 59t-9 76q0 76 18 141.5t50.5 114t78 76t99.5 27.5q53 0 89 -28t43 -73h5l18 89h121l-85 -423h63l-19 -99h-86zM236 90q29 0 52.5 14t41.5 35
q39 44 53 110l18 93q4 18 -1 34t-17 29t-30.5 20.5t-42.5 7.5q-103 0 -129 -129l-14 -72q-2 -11 -4 -27t-2 -28q0 -40 19.5 -63.5t55.5 -23.5zM346 576q-42 0 -72 13t-49.5 33.5t-30 46.5t-15.5 52l66 38l15 -27q10 -18 19 -31t19 -21.5t22.5 -12t29.5 -3.5q29 0 52.5 15
t58.5 53l24 27l66 -41q-17 -28 -36 -54t-43.5 -45.5t-55 -31t-70.5 -11.5zM251 896l105 48l60 -187l-73 -33z" />
    <glyph glyph-name="uni1EB3" unicode="&#x1eb3;" 
d="M432 0q-36 0 -59 19t-23 53q0 8 1 16.5t2 13.5l4 17h-5q-32 -64 -71 -97.5t-99 -33.5q-36 0 -63.5 13.5t-45.5 38.5t-27 59t-9 76q0 76 18 141.5t50.5 114t78 76t99.5 27.5q53 0 89 -28t43 -73h5l18 89h121l-85 -423h63l-19 -99h-86zM236 90q29 0 52.5 14t41.5 35
q39 44 53 110l18 93q4 18 -1 34t-17 29t-30.5 20.5t-42.5 7.5q-103 0 -129 -129l-14 -72q-2 -11 -4 -27t-2 -28q0 -40 19.5 -63.5t55.5 -23.5zM346 576q-42 0 -72 13t-49.5 33.5t-30 46.5t-15.5 52l66 38l15 -27q10 -18 19 -31t19 -21.5t22.5 -12t29.5 -3.5q29 0 52.5 15
t58.5 53l24 27l66 -41q-17 -28 -36 -54t-43.5 -45.5t-55 -31t-70.5 -11.5zM281 931h126q38 0 55 -16t17 -39q0 -29 -15 -54.5t-38 -53.5l-48 -56l-60 31l56 100h-110z" />
    <glyph glyph-name="uni1EB5" unicode="&#x1eb5;" 
d="M432 0q-36 0 -59 19t-23 53q0 8 1 16.5t2 13.5l4 17h-5q-32 -64 -71 -97.5t-99 -33.5q-36 0 -63.5 13.5t-45.5 38.5t-27 59t-9 76q0 76 18 141.5t50.5 114t78 76t99.5 27.5q53 0 89 -28t43 -73h5l18 89h121l-85 -423h63l-19 -99h-86zM236 90q29 0 52.5 14t41.5 35
q39 44 53 110l18 93q4 18 -1 34t-17 29t-30.5 20.5t-42.5 7.5q-103 0 -129 -129l-14 -72q-2 -11 -4 -27t-2 -28q0 -40 19.5 -63.5t55.5 -23.5zM346 576q-42 0 -72 13t-49.5 33.5t-30 46.5t-15.5 52l66 38l15 -27q10 -18 19 -31t19 -21.5t22.5 -12t29.5 -3.5q29 0 52.5 15
t58.5 53l24 27l66 -41q-17 -28 -36 -54t-43.5 -45.5t-55 -31t-70.5 -11.5zM436 782q-22 0 -38 7t-32 15q-20 11 -35.5 17t-32.5 6q-16 0 -30 -6.5t-31 -19.5l-32 57q20 25 48.5 42t65.5 17q22 0 38 -7t32 -15q20 -11 35.5 -17t32.5 -6q16 0 30 6.5t31 19.5l32 -57
q-20 -25 -48.5 -42t-65.5 -17z" />
    <glyph glyph-name="uni1EA5" unicode="&#x1ea5;" 
d="M432 0q-36 0 -59 19t-23 53q0 8 1 16.5t2 13.5l4 17h-5q-32 -64 -71 -97.5t-99 -33.5q-36 0 -63.5 13.5t-45.5 38.5t-27 59t-9 76q0 76 18 141.5t50.5 114t78 76t99.5 27.5q53 0 89 -28t43 -73h5l18 89h121l-85 -423h63l-19 -99h-86zM236 90q29 0 52.5 14t41.5 35
q39 44 53 110l18 93q4 18 -1 34t-17 29t-30.5 20.5t-42.5 7.5q-103 0 -129 -129l-14 -72q-2 -11 -4 -27t-2 -28q0 -40 19.5 -63.5t55.5 -23.5zM534 724l-68 36l104 184l96 -49zM423 770l104 -144l-62 -53l-97 107l-138 -107l-57 53l159 144h91z" />
    <glyph glyph-name="uni1EAD" unicode="&#x1ead;" 
d="M432 0q-36 0 -59 19t-23 53q0 8 1 16.5t2 13.5l4 17h-5q-32 -64 -71 -97.5t-99 -33.5q-36 0 -63.5 13.5t-45.5 38.5t-27 59t-9 76q0 76 18 141.5t50.5 114t78 76t99.5 27.5q53 0 89 -28t43 -73h5l18 89h121l-85 -423h63l-19 -99h-86zM236 90q29 0 52.5 14t41.5 35
q39 44 53 110l18 93q4 18 -1 34t-17 29t-30.5 20.5t-42.5 7.5q-103 0 -129 -129l-14 -72q-2 -11 -4 -27t-2 -28q0 -40 19.5 -63.5t55.5 -23.5zM430 786l95 -154l-66 -50l-96 116l-136 -115l-61 49l151 154h113zM222 -193q-32 0 -47 13t-15 35q0 5 1 11.5t5 21.5
q6 25 22.5 40t52.5 15q32 0 46.5 -13t14.5 -34q0 -5 -1 -11.5t-4 -22.5q-5 -25 -22.5 -40t-52.5 -15z" />
    <glyph glyph-name="uni1EA7" unicode="&#x1ea7;" 
d="M432 0q-36 0 -59 19t-23 53q0 8 1 16.5t2 13.5l4 17h-5q-32 -64 -71 -97.5t-99 -33.5q-36 0 -63.5 13.5t-45.5 38.5t-27 59t-9 76q0 76 18 141.5t50.5 114t78 76t99.5 27.5q53 0 89 -28t43 -73h5l18 89h121l-85 -423h63l-19 -99h-86zM236 90q29 0 52.5 14t41.5 35
q39 44 53 110l18 93q4 18 -1 34t-17 29t-30.5 20.5t-42.5 7.5q-103 0 -129 -129l-14 -72q-2 -11 -4 -27t-2 -28q0 -40 19.5 -63.5t55.5 -23.5zM106 896l100 48l69 -186l-65 -33zM422 770l105 -144l-62 -53l-97 107l-138 -107l-57 53l158 144h91z" />
    <glyph glyph-name="uni1EA9" unicode="&#x1ea9;" 
d="M432 0q-36 0 -59 19t-23 53q0 8 1 16.5t2 13.5l4 17h-5q-32 -64 -71 -97.5t-99 -33.5q-36 0 -63.5 13.5t-45.5 38.5t-27 59t-9 76q0 76 18 141.5t50.5 114t78 76t99.5 27.5q53 0 89 -28t43 -73h5l18 89h121l-85 -423h63l-19 -99h-86zM236 90q29 0 52.5 14t41.5 35
q39 44 53 110l18 93q4 18 -1 34t-17 29t-30.5 20.5t-42.5 7.5q-103 0 -129 -129l-14 -72q-2 -11 -4 -27t-2 -28q0 -40 19.5 -63.5t55.5 -23.5zM437 931h127q38 0 55 -16t17 -38q0 -30 -15.5 -55t-38.5 -53l-48 -57l-60 31l58 100h-112zM422 770l105 -144l-62 -53l-97 107
l-138 -107l-57 53l158 144h91z" />
    <glyph glyph-name="uni1EAB" unicode="&#x1eab;" 
d="M432 0q-36 0 -59 19t-23 53q0 8 1 16.5t2 13.5l4 17h-5q-32 -64 -71 -97.5t-99 -33.5q-36 0 -63.5 13.5t-45.5 38.5t-27 59t-9 76q0 76 18 141.5t50.5 114t78 76t99.5 27.5q53 0 89 -28t43 -73h5l18 89h121l-85 -423h63l-19 -99h-86zM236 90q29 0 52.5 14t41.5 35
q39 44 53 110l18 93q4 18 -1 34t-17 29t-30.5 20.5t-42.5 7.5q-103 0 -129 -129l-14 -72q-2 -11 -4 -27t-2 -28q0 -40 19.5 -63.5t55.5 -23.5zM332 924q21 0 35.5 -6.5t31.5 -15.5q20 -11 35 -16.5t31 -5.5q15 0 28.5 6t30.5 19l32 -56q-21 -24 -50 -41.5t-64 -17.5
q-20 0 -35 6.5t-31 15.5q-20 11 -35 16.5t-32 5.5q-14 0 -27.5 -6.5t-30.5 -19.5l-32 56q21 25 49.5 42.5t63.5 17.5zM418 761l106 -133l-63 -54l-101 106l-133 -106l-58 54l157 133h92z" />
    <glyph glyph-name="aacute.alt01" horiz-adv-x="549" 
d="M167 -12q-69 0 -106 36t-37 97q0 85 62 132t179 47h96l5 31q3 16 3 29q0 75 -87 75q-48 0 -76 -20t-51 -50l-71 69q33 45 86 72.5t128 27.5q95 0 144.5 -43.5t49.5 -116.5q0 -10 -1 -22t-4 -26l-46 -227h58l-19 -99h-70q-37 0 -59.5 19t-22.5 53v17h-5q-24 -53 -63.5 -77
t-92.5 -24zM216 79q20 0 39 5t35 15t27 24.5t15 33.5l13 70h-86q-91 0 -105 -64q-3 -14 -3.5 -22t-0.5 -12q0 -24 18.5 -37t47.5 -13zM330 581l-73 39l115 185l99 -53z" />
    <glyph glyph-name="abreve.alt01" horiz-adv-x="549" 
d="M167 -12q-69 0 -106 36t-37 97q0 85 62 132t179 47h96l5 31q3 16 3 29q0 75 -87 75q-48 0 -76 -20t-51 -50l-71 69q33 45 86 72.5t128 27.5q95 0 144.5 -43.5t49.5 -116.5q0 -10 -1 -22t-4 -26l-46 -227h58l-19 -99h-70q-37 0 -59.5 19t-22.5 53v17h-5q-24 -53 -63.5 -77
t-92.5 -24zM216 79q20 0 39 5t35 15t27 24.5t15 33.5l13 70h-86q-91 0 -105 -64q-3 -14 -3.5 -22t-0.5 -12q0 -24 18.5 -37t47.5 -13zM316 584q-41 0 -68.5 14.5t-45.5 37.5t-28.5 51.5t-15.5 56.5l70 35l15 -34q16 -34 32 -52.5t47 -18.5q27 0 48.5 17.5t50.5 55.5l25 32
l73 -38q-16 -29 -35 -57t-43 -50t-55 -36t-70 -14z" />
    <glyph glyph-name="acircumflex.alt01" horiz-adv-x="549" 
d="M167 -12q-69 0 -106 36t-37 97q0 85 62 132t179 47h96l5 31q3 16 3 29q0 75 -87 75q-48 0 -76 -20t-51 -50l-71 69q33 45 86 72.5t128 27.5q95 0 144.5 -43.5t49.5 -116.5q0 -10 -1 -22t-4 -26l-46 -227h58l-19 -99h-70q-37 0 -59.5 19t-22.5 53v17h-5q-24 -53 -63.5 -77
t-92.5 -24zM216 79q20 0 39 5t35 15t27 24.5t15 33.5l13 70h-86q-91 0 -105 -64q-3 -14 -3.5 -22t-0.5 -12q0 -24 18.5 -37t47.5 -13zM401 786l95 -154l-66 -50l-96 116l-136 -115l-61 49l151 154h113z" />
    <glyph glyph-name="adieresis.alt01" horiz-adv-x="549" 
d="M167 -12q-69 0 -106 36t-37 97q0 85 62 132t179 47h96l5 31q3 16 3 29q0 75 -87 75q-48 0 -76 -20t-51 -50l-71 69q33 45 86 72.5t128 27.5q95 0 144.5 -43.5t49.5 -116.5q0 -10 -1 -22t-4 -26l-46 -227h58l-19 -99h-70q-37 0 -59.5 19t-22.5 53v17h-5q-24 -53 -63.5 -77
t-92.5 -24zM216 79q20 0 39 5t35 15t27 24.5t15 33.5l13 70h-86q-91 0 -105 -64q-3 -14 -3.5 -22t-0.5 -12q0 -24 18.5 -37t47.5 -13zM221 605q-31 0 -44.5 12.5t-13.5 31.5q0 5 1 13t4 22q5 25 22.5 41.5t54.5 16.5q30 0 43.5 -12t13.5 -32q0 -5 -1 -12.5t-4 -21.5
q-5 -25 -22.5 -42t-53.5 -17zM415 605q-31 0 -44.5 12.5t-13.5 31.5q0 5 1.5 13t3.5 22q4 25 22 41.5t55 16.5q30 0 44 -12t14 -32q0 -5 -1.5 -12.5t-3.5 -21.5q-4 -25 -22 -42t-55 -17z" />
    <glyph glyph-name="uni1EA1.alt01" horiz-adv-x="549" 
d="M167 -12q-69 0 -106 36t-37 97q0 85 62 132t179 47h96l5 31q3 16 3 29q0 75 -87 75q-48 0 -76 -20t-51 -50l-71 69q33 45 86 72.5t128 27.5q95 0 144.5 -43.5t49.5 -116.5q0 -10 -1 -22t-4 -26l-46 -227h58l-19 -99h-70q-37 0 -59.5 19t-22.5 53v17h-5q-24 -53 -63.5 -77
t-92.5 -24zM216 79q20 0 39 5t35 15t27 24.5t15 33.5l13 70h-86q-91 0 -105 -64q-3 -14 -3.5 -22t-0.5 -12q0 -24 18.5 -37t47.5 -13zM211 -193q-32 0 -47 13t-15 35q0 5 1 11.5t5 21.5q6 25 22.5 40t52.5 15q32 0 46.5 -13t14.5 -34q0 -5 -1 -11.5t-4 -22.5
q-5 -25 -22.5 -40t-52.5 -15z" />
    <glyph glyph-name="agrave.alt01" horiz-adv-x="549" 
d="M167 -12q-69 0 -106 36t-37 97q0 85 62 132t179 47h96l5 31q3 16 3 29q0 75 -87 75q-48 0 -76 -20t-51 -50l-71 69q33 45 86 72.5t128 27.5q95 0 144.5 -43.5t49.5 -116.5q0 -10 -1 -22t-4 -26l-46 -227h58l-19 -99h-70q-37 0 -59.5 19t-22.5 53v17h-5q-24 -53 -63.5 -77
t-92.5 -24zM216 79q20 0 39 5t35 15t27 24.5t15 33.5l13 70h-86q-91 0 -105 -64q-3 -14 -3.5 -22t-0.5 -12q0 -24 18.5 -37t47.5 -13zM194 753l109 51l66 -189l-76 -34z" />
    <glyph glyph-name="uni1EA3.alt01" horiz-adv-x="549" 
d="M167 -12q-69 0 -106 36t-37 97q0 85 62 132t179 47h96l5 31q3 16 3 29q0 75 -87 75q-48 0 -76 -20t-51 -50l-71 69q33 45 86 72.5t128 27.5q95 0 144.5 -43.5t49.5 -116.5q0 -10 -1 -22t-4 -26l-46 -227h58l-19 -99h-70q-37 0 -59.5 19t-22.5 53v17h-5q-24 -53 -63.5 -77
t-92.5 -24zM216 79q20 0 39 5t35 15t27 24.5t15 33.5l13 70h-86q-91 0 -105 -64q-3 -14 -3.5 -22t-0.5 -12q0 -24 18.5 -37t47.5 -13zM244 791h134q38 0 55.5 -16t17.5 -38q0 -30 -15.5 -55t-38.5 -54l-48 -55l-60 30l55 98h-117z" />
    <glyph glyph-name="amacron.alt01" horiz-adv-x="549" 
d="M167 -12q-69 0 -106 36t-37 97q0 85 62 132t179 47h96l5 31q3 16 3 29q0 75 -87 75q-48 0 -76 -20t-51 -50l-71 69q33 45 86 72.5t128 27.5q95 0 144.5 -43.5t49.5 -116.5q0 -10 -1 -22t-4 -26l-46 -227h58l-19 -99h-70q-37 0 -59.5 19t-22.5 53v17h-5q-24 -53 -63.5 -77
t-92.5 -24zM216 79q20 0 39 5t35 15t27 24.5t15 33.5l13 70h-86q-91 0 -105 -64q-3 -14 -3.5 -22t-0.5 -12q0 -24 18.5 -37t47.5 -13zM201 720h277l-19 -91h-276z" />
    <glyph glyph-name="aogonek.alt01" horiz-adv-x="549" 
d="M167 -12q-69 0 -106 36t-37 97q0 85 62 132t179 47h96l5 31q3 16 3 29q0 75 -87 75q-48 0 -76 -20t-51 -50l-71 69q33 45 86 72.5t128 27.5q95 0 144.5 -43.5t49.5 -116.5q0 -10 -1 -22t-4 -26l-46 -227h58l-19 -99q-41 -25 -65 -43t-36.5 -31.5t-16 -23t-3.5 -16.5
q0 -14 8.5 -22t26.5 -8q14 0 28.5 6t25.5 21l47 -48q-17 -20 -44.5 -32.5t-71.5 -12.5q-47 0 -79.5 19.5t-32.5 60.5q0 39 33.5 71.5t101.5 53.5l-1 5q-33 2 -53 21t-20 51v17h-5q-24 -53 -63.5 -77t-92.5 -24zM216 79q20 0 39 5t35 15t27 24.5t15 33.5l13 70h-86
q-47 0 -72 -16t-33 -48q-3 -15 -3.5 -22.5t-0.5 -11.5q0 -24 18.5 -37t47.5 -13z" />
    <glyph glyph-name="aring.alt01" horiz-adv-x="549" 
d="M167 -12q-69 0 -106 36t-37 97q0 85 62 132t179 47h96l5 31q3 16 3 29q0 75 -87 75q-48 0 -76 -20t-51 -50l-71 69q33 45 86 72.5t128 27.5q95 0 144.5 -43.5t49.5 -116.5q0 -10 -1 -22t-4 -26l-46 -227h58l-19 -99h-70q-37 0 -59.5 19t-22.5 53v17h-5q-24 -53 -63.5 -77
t-92.5 -24zM216 79q20 0 39 5t35 15t27 24.5t15 33.5l13 70h-86q-91 0 -105 -64q-3 -14 -3.5 -22t-0.5 -12q0 -24 18.5 -37t47.5 -13zM312 563q-53 0 -86.5 33t-33.5 82q0 35 12 63.5t33 49t49.5 31.5t60.5 11q52 0 85.5 -32.5t33.5 -83.5q0 -35 -12 -63.5t-33 -48.5
t-49 -31t-60 -11zM318 629q24 0 39 14.5t20 38.5q4 17 5.5 26.5t1.5 17.5q0 40 -43 40q-25 0 -40 -14.5t-20 -37.5q-7 -31 -7 -44q0 -41 44 -41z" />
    <glyph glyph-name="aringacute.alt01" horiz-adv-x="549" 
d="M167 -12q-69 0 -106 36t-37 97q0 85 62 132t179 47h96l5 31q3 16 3 29q0 75 -87 75q-48 0 -76 -20t-51 -50l-71 69q33 45 86 72.5t128 27.5q95 0 144.5 -43.5t49.5 -116.5q0 -10 -1 -22t-4 -26l-46 -227h58l-19 -99h-70q-37 0 -59.5 19t-22.5 53v17h-5q-24 -53 -63.5 -77
t-92.5 -24zM216 79q20 0 39 5t35 15t27 24.5t15 33.5l13 70h-86q-91 0 -105 -64q-3 -14 -3.5 -22t-0.5 -12q0 -24 18.5 -37t47.5 -13zM358 814l-43 48l128 117l59 -67zM313 565q-52 0 -85.5 27t-33.5 74q0 31 12 56.5t33.5 42.5t50 26.5t61.5 9.5q52 0 85.5 -27t33.5 -74
q0 -32 -12 -57t-33.5 -42t-50 -26.5t-61.5 -9.5zM322 627q52 0 61 48q2 8 3 15.5t1 11.5q0 37 -46 37q-52 0 -60 -47q-2 -9 -3 -16.5t-1 -11.5q0 -37 45 -37z" />
    <glyph glyph-name="atilde.alt01" horiz-adv-x="549" 
d="M167 -12q-69 0 -106 36t-37 97q0 85 62 132t179 47h96l5 31q3 16 3 29q0 75 -87 75q-48 0 -76 -20t-51 -50l-71 69q33 45 86 72.5t128 27.5q95 0 144.5 -43.5t49.5 -116.5q0 -10 -1 -22t-4 -26l-46 -227h58l-19 -99h-70q-37 0 -59.5 19t-22.5 53v17h-5q-24 -53 -63.5 -77
t-92.5 -24zM216 79q20 0 39 5t35 15t27 24.5t15 33.5l13 70h-86q-91 0 -105 -64q-3 -14 -3.5 -22t-0.5 -12q0 -24 18.5 -37t47.5 -13zM396 605q-23 0 -40 6.5t-35 15.5q-20 11 -36.5 16.5t-33.5 5.5t-29 -6t-29 -19l-39 59q21 26 48 43t62 17q23 0 40 -6.5t35 -15.5
q20 -11 36.5 -16.5t33.5 -5.5t29 6t29 19l39 -59q-21 -26 -48 -43t-62 -17z" />
    <glyph glyph-name="uni1EAF.alt01" horiz-adv-x="549" 
d="M167 -12q-69 0 -106 36t-37 97q0 85 62 132t179 47h96l5 31q3 16 3 29q0 75 -87 75q-48 0 -76 -20t-51 -50l-71 69q33 45 86 72.5t128 27.5q95 0 144.5 -43.5t49.5 -116.5q0 -10 -1 -22t-4 -26l-46 -227h58l-19 -99h-70q-37 0 -59.5 19t-22.5 53v17h-5q-24 -53 -63.5 -77
t-92.5 -24zM216 79q20 0 39 5t35 15t27 24.5t15 33.5l13 70h-86q-91 0 -105 -64q-3 -14 -3.5 -22t-0.5 -12q0 -24 18.5 -37t47.5 -13zM317 576q-42 0 -72 13t-49.5 33.5t-30 46.5t-15.5 52l66 38l15 -27q10 -18 19 -31t19 -21.5t22.5 -12t29.5 -3.5q29 0 52.5 15t58.5 53
l24 27l66 -41q-17 -28 -36 -54t-43.5 -45.5t-55 -31t-70.5 -11.5zM349 723l-67 36l106 186l95 -51z" />
    <glyph glyph-name="uni1EB7.alt01" horiz-adv-x="549" 
d="M167 -12q-69 0 -106 36t-37 97q0 85 62 132t179 47h96l5 31q3 16 3 29q0 75 -87 75q-48 0 -76 -20t-51 -50l-71 69q33 45 86 72.5t128 27.5q95 0 144.5 -43.5t49.5 -116.5q0 -10 -1 -22t-4 -26l-46 -227h58l-19 -99h-70q-37 0 -59.5 19t-22.5 53v17h-5q-24 -53 -63.5 -77
t-92.5 -24zM216 79q20 0 39 5t35 15t27 24.5t15 33.5l13 70h-86q-91 0 -105 -64q-3 -14 -3.5 -22t-0.5 -12q0 -24 18.5 -37t47.5 -13zM316 584q-41 0 -68.5 14.5t-45.5 37.5t-28.5 51.5t-15.5 56.5l70 35l15 -34q16 -34 32 -52.5t47 -18.5q27 0 48.5 17.5t50.5 55.5l25 32
l73 -38q-16 -29 -35 -57t-43 -50t-55 -36t-70 -14zM211 -193q-32 0 -47 13t-15 35q0 5 1 11.5t5 21.5q6 25 22.5 40t52.5 15q32 0 46.5 -13t14.5 -34q0 -5 -1 -11.5t-4 -22.5q-5 -25 -22.5 -40t-52.5 -15z" />
    <glyph glyph-name="uni1EB1.alt01" horiz-adv-x="549" 
d="M167 -12q-69 0 -106 36t-37 97q0 85 62 132t179 47h96l5 31q3 16 3 29q0 75 -87 75q-48 0 -76 -20t-51 -50l-71 69q33 45 86 72.5t128 27.5q95 0 144.5 -43.5t49.5 -116.5q0 -10 -1 -22t-4 -26l-46 -227h58l-19 -99h-70q-37 0 -59.5 19t-22.5 53v17h-5q-24 -53 -63.5 -77
t-92.5 -24zM216 79q20 0 39 5t35 15t27 24.5t15 33.5l13 70h-86q-91 0 -105 -64q-3 -14 -3.5 -22t-0.5 -12q0 -24 18.5 -37t47.5 -13zM317 576q-42 0 -72 13t-49.5 33.5t-30 46.5t-15.5 52l66 38l15 -27q10 -18 19 -31t19 -21.5t22.5 -12t29.5 -3.5q29 0 52.5 15t58.5 53
l24 27l66 -41q-17 -28 -36 -54t-43.5 -45.5t-55 -31t-70.5 -11.5zM222 896l105 48l60 -187l-73 -33z" />
    <glyph glyph-name="uni1EB3.alt01" horiz-adv-x="549" 
d="M167 -12q-69 0 -106 36t-37 97q0 85 62 132t179 47h96l5 31q3 16 3 29q0 75 -87 75q-48 0 -76 -20t-51 -50l-71 69q33 45 86 72.5t128 27.5q95 0 144.5 -43.5t49.5 -116.5q0 -10 -1 -22t-4 -26l-46 -227h58l-19 -99h-70q-37 0 -59.5 19t-22.5 53v17h-5q-24 -53 -63.5 -77
t-92.5 -24zM216 79q20 0 39 5t35 15t27 24.5t15 33.5l13 70h-86q-91 0 -105 -64q-3 -14 -3.5 -22t-0.5 -12q0 -24 18.5 -37t47.5 -13zM317 576q-42 0 -72 13t-49.5 33.5t-30 46.5t-15.5 52l66 38l15 -27q10 -18 19 -31t19 -21.5t22.5 -12t29.5 -3.5q29 0 52.5 15t58.5 53
l24 27l66 -41q-17 -28 -36 -54t-43.5 -45.5t-55 -31t-70.5 -11.5zM252 931h126q38 0 55 -16t17 -39q0 -29 -15 -54.5t-38 -53.5l-48 -56l-60 31l56 100h-110z" />
    <glyph glyph-name="uni1EB5.alt01" horiz-adv-x="549" 
d="M167 -12q-69 0 -106 36t-37 97q0 85 62 132t179 47h96l5 31q3 16 3 29q0 75 -87 75q-48 0 -76 -20t-51 -50l-71 69q33 45 86 72.5t128 27.5q95 0 144.5 -43.5t49.5 -116.5q0 -10 -1 -22t-4 -26l-46 -227h58l-19 -99h-70q-37 0 -59.5 19t-22.5 53v17h-5q-24 -53 -63.5 -77
t-92.5 -24zM216 79q20 0 39 5t35 15t27 24.5t15 33.5l13 70h-86q-91 0 -105 -64q-3 -14 -3.5 -22t-0.5 -12q0 -24 18.5 -37t47.5 -13zM317 576q-42 0 -72 13t-49.5 33.5t-30 46.5t-15.5 52l66 38l15 -27q10 -18 19 -31t19 -21.5t22.5 -12t29.5 -3.5q29 0 52.5 15t58.5 53
l24 27l66 -41q-17 -28 -36 -54t-43.5 -45.5t-55 -31t-70.5 -11.5zM407 782q-22 0 -38 7t-32 15q-20 11 -35.5 17t-32.5 6q-16 0 -30 -6.5t-31 -19.5l-32 57q20 25 48.5 42t65.5 17q22 0 38 -7t32 -15q20 -11 35.5 -17t32.5 -6q16 0 30 6.5t31 19.5l32 -57q-20 -25 -48.5 -42
t-65.5 -17z" />
    <glyph glyph-name="uni1EA5.alt01" horiz-adv-x="549" 
d="M167 -12q-69 0 -106 36t-37 97q0 85 62 132t179 47h96l5 31q3 16 3 29q0 75 -87 75q-48 0 -76 -20t-51 -50l-71 69q33 45 86 72.5t128 27.5q95 0 144.5 -43.5t49.5 -116.5q0 -10 -1 -22t-4 -26l-46 -227h58l-19 -99h-70q-37 0 -59.5 19t-22.5 53v17h-5q-24 -53 -63.5 -77
t-92.5 -24zM216 79q20 0 39 5t35 15t27 24.5t15 33.5l13 70h-86q-91 0 -105 -64q-3 -14 -3.5 -22t-0.5 -12q0 -24 18.5 -37t47.5 -13zM505 724l-68 36l104 184l96 -49zM394 770l104 -144l-62 -53l-97 107l-138 -107l-57 53l159 144h91z" />
    <glyph glyph-name="uni1EAD.alt01" horiz-adv-x="549" 
d="M167 -12q-69 0 -106 36t-37 97q0 85 62 132t179 47h96l5 31q3 16 3 29q0 75 -87 75q-48 0 -76 -20t-51 -50l-71 69q33 45 86 72.5t128 27.5q95 0 144.5 -43.5t49.5 -116.5q0 -10 -1 -22t-4 -26l-46 -227h58l-19 -99h-70q-37 0 -59.5 19t-22.5 53v17h-5q-24 -53 -63.5 -77
t-92.5 -24zM216 79q20 0 39 5t35 15t27 24.5t15 33.5l13 70h-86q-91 0 -105 -64q-3 -14 -3.5 -22t-0.5 -12q0 -24 18.5 -37t47.5 -13zM401 786l95 -154l-66 -50l-96 116l-136 -115l-61 49l151 154h113zM211 -193q-32 0 -47 13t-15 35q0 5 1 11.5t5 21.5q6 25 22.5 40
t52.5 15q32 0 46.5 -13t14.5 -34q0 -5 -1 -11.5t-4 -22.5q-5 -25 -22.5 -40t-52.5 -15z" />
    <glyph glyph-name="uni1EA7.alt01" horiz-adv-x="549" 
d="M167 -12q-69 0 -106 36t-37 97q0 85 62 132t179 47h96l5 31q3 16 3 29q0 75 -87 75q-48 0 -76 -20t-51 -50l-71 69q33 45 86 72.5t128 27.5q95 0 144.5 -43.5t49.5 -116.5q0 -10 -1 -22t-4 -26l-46 -227h58l-19 -99h-70q-37 0 -59.5 19t-22.5 53v17h-5q-24 -53 -63.5 -77
t-92.5 -24zM216 79q20 0 39 5t35 15t27 24.5t15 33.5l13 70h-86q-91 0 -105 -64q-3 -14 -3.5 -22t-0.5 -12q0 -24 18.5 -37t47.5 -13zM77 896l100 48l69 -186l-65 -33zM393 770l105 -144l-62 -53l-97 107l-138 -107l-57 53l158 144h91z" />
    <glyph glyph-name="uni1EA9.alt01" horiz-adv-x="549" 
d="M167 -12q-69 0 -106 36t-37 97q0 85 62 132t179 47h96l5 31q3 16 3 29q0 75 -87 75q-48 0 -76 -20t-51 -50l-71 69q33 45 86 72.5t128 27.5q95 0 144.5 -43.5t49.5 -116.5q0 -10 -1 -22t-4 -26l-46 -227h58l-19 -99h-70q-37 0 -59.5 19t-22.5 53v17h-5q-24 -53 -63.5 -77
t-92.5 -24zM216 79q20 0 39 5t35 15t27 24.5t15 33.5l13 70h-86q-91 0 -105 -64q-3 -14 -3.5 -22t-0.5 -12q0 -24 18.5 -37t47.5 -13zM408 931h127q38 0 55 -16t17 -38q0 -30 -15.5 -55t-38.5 -53l-48 -57l-60 31l58 100h-112zM393 770l105 -144l-62 -53l-97 107l-138 -107
l-57 53l158 144h91z" />
    <glyph glyph-name="uni1EAB.alt01" horiz-adv-x="549" 
d="M167 -12q-69 0 -106 36t-37 97q0 85 62 132t179 47h96l5 31q3 16 3 29q0 75 -87 75q-48 0 -76 -20t-51 -50l-71 69q33 45 86 72.5t128 27.5q95 0 144.5 -43.5t49.5 -116.5q0 -10 -1 -22t-4 -26l-46 -227h58l-19 -99h-70q-37 0 -59.5 19t-22.5 53v17h-5q-24 -53 -63.5 -77
t-92.5 -24zM216 79q20 0 39 5t35 15t27 24.5t15 33.5l13 70h-86q-91 0 -105 -64q-3 -14 -3.5 -22t-0.5 -12q0 -24 18.5 -37t47.5 -13zM303 924q21 0 35.5 -6.5t31.5 -15.5q20 -11 35 -16.5t31 -5.5q15 0 28.5 6t30.5 19l32 -56q-21 -24 -50 -41.5t-64 -17.5q-20 0 -35 6.5
t-31 15.5q-20 11 -35 16.5t-32 5.5q-14 0 -27.5 -6.5t-30.5 -19.5l-32 56q21 25 49.5 42.5t63.5 17.5zM389 761l106 -133l-63 -54l-101 106l-133 -106l-58 54l157 133h92z" />
    <glyph glyph-name="ae" unicode="&#xe6;" horiz-adv-x="821" 
d="M218 79q20 0 39 5t34.5 15t26.5 24.5t15 33.5l13 64l-87 -4q-38 -2 -67 -12t-37 -42q-3 -14 -3.5 -23t-0.5 -11q0 -24 18 -37t49 -13zM618 440q-51 0 -86 -33t-46 -90l-5 -21q64 3 104 10t62.5 17.5t31 24.5t8.5 31q0 19 -6.5 31t-16.5 18.5t-22 9t-24 2.5zM179 -12
q-75 0 -114.5 36t-39.5 100q0 80 61.5 120.5t178.5 45.5l96 4l6 37q3 16 3 29q0 75 -88 75q-47 0 -75 -20t-51 -50l-71 69q33 46 86.5 73t121.5 27q59 0 97 -21.5t57 -59.5h7q32 38 74.5 59.5t97.5 21.5q30 0 61.5 -7.5t58 -24t43.5 -44t17 -67.5q0 -82 -81.5 -124.5
t-256.5 -46.5q-3 -24 -3 -38q0 -42 24 -68t78 -26q38 0 70.5 17t65.5 59l76 -62q-49 -63 -102.5 -88.5t-118.5 -25.5q-72 0 -120 27.5t-71 77.5h-7q-27 -55 -74.5 -80t-106.5 -25z" />
    <glyph glyph-name="aeacute" unicode="&#x1fd;" horiz-adv-x="821" 
d="M218 79q20 0 39 5t34.5 15t26.5 24.5t15 33.5l13 64l-87 -4q-38 -2 -67 -12t-37 -42q-3 -14 -3.5 -23t-0.5 -11q0 -24 18 -37t49 -13zM618 440q-51 0 -86 -33t-46 -90l-5 -21q64 3 104 10t62.5 17.5t31 24.5t8.5 31q0 19 -6.5 31t-16.5 18.5t-22 9t-24 2.5zM179 -12
q-75 0 -114.5 36t-39.5 100q0 80 61.5 120.5t178.5 45.5l96 4l6 37q3 16 3 29q0 75 -88 75q-47 0 -75 -20t-51 -50l-71 69q33 46 86.5 73t121.5 27q59 0 97 -21.5t57 -59.5h7q32 38 74.5 59.5t97.5 21.5q30 0 61.5 -7.5t58 -24t43.5 -44t17 -67.5q0 -82 -81.5 -124.5
t-256.5 -46.5q-3 -24 -3 -38q0 -42 24 -68t78 -26q38 0 70.5 17t65.5 59l76 -62q-49 -63 -102.5 -88.5t-118.5 -25.5q-72 0 -120 27.5t-71 77.5h-7q-27 -55 -74.5 -80t-106.5 -25zM500 581l-73 39l115 185l99 -53z" />
    <glyph glyph-name="cacute" unicode="&#x107;" horiz-adv-x="492" 
d="M237 -12q-43 0 -79.5 13.5t-63.5 40.5t-42 69t-15 99q0 69 20 128.5t56 103t86 68t109 24.5q73 0 122.5 -36t60.5 -95l-102 -40q-11 33 -29 52t-59 19q-98 0 -121 -121l-18 -87q-5 -23 -5 -43q0 -42 22 -68.5t69 -26.5q39 0 63.5 22.5t48.5 65.5l93 -44
q-34 -71 -88.5 -107.5t-127.5 -36.5zM338 581l-73 39l115 185l99 -53z" />
    <glyph glyph-name="ccaron" unicode="&#x10d;" horiz-adv-x="492" 
d="M237 -12q-43 0 -79.5 13.5t-63.5 40.5t-42 69t-15 99q0 69 20 128.5t56 103t86 68t109 24.5q73 0 122.5 -36t60.5 -95l-102 -40q-11 33 -29 52t-59 19q-98 0 -121 -121l-18 -87q-5 -23 -5 -43q0 -42 22 -68.5t69 -26.5q39 0 63.5 22.5t48.5 65.5l93 -44
q-34 -71 -88.5 -107.5t-127.5 -36.5zM265 591l-95 154l65 49l94 -115l138 115l63 -49l-150 -154h-115z" />
    <glyph glyph-name="ccedilla" unicode="&#xe7;" horiz-adv-x="492" 
d="M308 534q74 0 123 -36t60 -95l-102 -40q-10 33 -28.5 52t-58.5 19q-97 0 -122 -121l-17 -87q-5 -23 -5 -43q0 -42 21.5 -68.5t68.5 -26.5q40 0 64 22.5t49 65.5l93 -44q-63 -131 -192 -143l-17 -46l2 -4q19 6 39 6q26 0 44 -14t18 -42q0 -24 -10.5 -42.5t-28.5 -31
t-42.5 -19t-52.5 -6.5q-40 0 -67.5 13t-40.5 30l49 48q6 -9 21 -18t37 -9q21 0 35 8.5t14 24.5q0 13 -13.5 23t-49.5 14l-23 2l25 64q-72 10 -118 64t-46 156q0 69 20 128.5t56 103t86 68t109 24.5z" />
    <glyph glyph-name="ccircumflex" unicode="&#x109;" horiz-adv-x="492" 
d="M237 -12q-43 0 -79.5 13.5t-63.5 40.5t-42 69t-15 99q0 69 20 128.5t56 103t86 68t109 24.5q73 0 122.5 -36t60.5 -95l-102 -40q-11 33 -29 52t-59 19q-98 0 -121 -121l-18 -87q-5 -23 -5 -43q0 -42 22 -68.5t69 -26.5q39 0 63.5 22.5t48.5 65.5l93 -44
q-34 -71 -88.5 -107.5t-127.5 -36.5zM409 786l95 -154l-66 -50l-96 116l-136 -115l-61 49l151 154h113z" />
    <glyph glyph-name="cdotaccent" unicode="&#x10b;" horiz-adv-x="492" 
d="M237 -12q-43 0 -79.5 13.5t-63.5 40.5t-42 69t-15 99q0 69 20 128.5t56 103t86 68t109 24.5q73 0 122.5 -36t60.5 -95l-102 -40q-11 33 -29 52t-59 19q-98 0 -121 -121l-18 -87q-5 -23 -5 -43q0 -42 22 -68.5t69 -26.5q39 0 63.5 22.5t48.5 65.5l93 -44
q-34 -71 -88.5 -107.5t-127.5 -36.5zM327 598q-36 0 -51 14.5t-15 37.5q0 5 1 12t5 24q6 28 23.5 45t58.5 17q36 0 51 -14.5t15 -37.5q0 -5 -1 -12t-5 -24q-6 -28 -23.5 -45t-58.5 -17z" />
    <glyph glyph-name="dcaron" unicode="&#x10f;" 
d="M432 0q-36 0 -59 19t-23 53q0 8 1 16.5t2 13.5l4 17h-5q-32 -64 -71 -97.5t-99 -33.5q-36 0 -63.5 13.5t-45.5 38.5t-27 59t-9 76q0 76 18 141.5t50.5 114t78 76t99.5 27.5q53 0 89 -28t43 -73h5l61 307h122l-129 -641h63l-19 -99h-86zM237 90q29 0 52.5 14.5t40.5 34.5
q39 44 53 109l17 88q9 42 -15.5 69.5t-75.5 27.5q-102 0 -128 -129l-14 -72q-2 -11 -4 -27t-2 -28q0 -40 19.5 -63.5t56.5 -23.5zM706 534h-84l45 206h138z" />
    <glyph glyph-name="dcroat" unicode="&#x111;" 
d="M432 0q-36 0 -59 19t-23 53q0 8 1 16.5t2 13.5l4 17h-5q-32 -64 -71 -97.5t-99 -33.5q-36 0 -63.5 13.5t-45.5 38.5t-27 59t-9 76q0 76 18 141.5t50.5 114t78 76t99.5 27.5q53 0 89 -28t43 -73h5l33 163h-150l17 85h150l11 59h122l-12 -59h59l-18 -85h-58l-100 -497h63
l-19 -99h-86zM237 90q29 0 52 14.5t41 34.5q39 44 53 109l17 88q9 42 -15.5 69.5t-75.5 27.5q-102 0 -128 -129l-14 -72q-2 -11 -4 -27t-2 -28q0 -40 19.5 -63.5t56.5 -23.5z" />
    <glyph glyph-name="eth" unicode="&#xf0;" horiz-adv-x="571" 
d="M438 647q42 -57 66 -132.5t24 -166.5q0 -92 -23 -159.5t-62.5 -112t-92 -66.5t-110.5 -22q-97 0 -150.5 58t-53.5 161q0 61 18 115t49.5 93.5t74 62.5t90.5 23q53 0 86.5 -26.5t47.5 -71.5h8q-8 53 -27.5 101t-47.5 87l-102 -55l-30 57l90 50q-30 32 -60.5 56t-57.5 41
h171q13 -10 25 -21t23 -22l97 55l31 -58zM250 84q48 0 79.5 35t44.5 95l11 53q2 12 3 22.5t1 19.5q0 45 -24 70t-67 25q-48 0 -79.5 -35t-44.5 -95l-11 -53q-2 -12 -3 -22.5t-1 -19.5q0 -45 24 -70t67 -25z" />
    <glyph glyph-name="eacute" unicode="&#xe9;" horiz-adv-x="513" 
d="M250 -12q-106 0 -159.5 59t-53.5 164q0 63 20 121.5t56.5 103.5t88 71.5t115.5 26.5q31 0 63 -7.5t58 -24t43 -44.5t17 -68q0 -82 -80.5 -128t-257.5 -50q-3 -20 -3 -29q0 -43 24 -69t78 -26q39 0 71 17t66 59l75 -62q-49 -63 -102.5 -88.5t-118.5 -25.5zM309 440
q-50 0 -85 -33t-46 -90l-5 -25q64 3 104.5 10.5t63 18.5t30.5 26t8 34q0 18 -6.5 29.5t-16.5 18t-22.5 9t-24.5 2.5zM349 581l-73 39l115 185l99 -53z" />
    <glyph glyph-name="ebreve" unicode="&#x115;" horiz-adv-x="513" 
d="M250 -12q-106 0 -159.5 59t-53.5 164q0 63 20 121.5t56.5 103.5t88 71.5t115.5 26.5q31 0 63 -7.5t58 -24t43 -44.5t17 -68q0 -82 -80.5 -128t-257.5 -50q-3 -20 -3 -29q0 -43 24 -69t78 -26q39 0 71 17t66 59l75 -62q-49 -63 -102.5 -88.5t-118.5 -25.5zM309 440
q-50 0 -85 -33t-46 -90l-5 -25q64 3 104.5 10.5t63 18.5t30.5 26t8 34q0 18 -6.5 29.5t-16.5 18t-22.5 9t-24.5 2.5zM335 584q-41 0 -68.5 14.5t-45.5 37.5t-28.5 51.5t-15.5 56.5l70 35l15 -34q16 -34 32 -52.5t47 -18.5q27 0 48.5 17.5t50.5 55.5l25 32l73 -38
q-16 -29 -35 -57t-43 -50t-55 -36t-70 -14z" />
    <glyph glyph-name="ecaron" unicode="&#x11b;" horiz-adv-x="513" 
d="M250 -12q-106 0 -159.5 59t-53.5 164q0 63 20 121.5t56.5 103.5t88 71.5t115.5 26.5q31 0 63 -7.5t58 -24t43 -44.5t17 -68q0 -82 -80.5 -128t-257.5 -50q-3 -20 -3 -29q0 -43 24 -69t78 -26q39 0 71 17t66 59l75 -62q-49 -63 -102.5 -88.5t-118.5 -25.5zM309 440
q-50 0 -85 -33t-46 -90l-5 -25q64 3 104.5 10.5t63 18.5t30.5 26t8 34q0 18 -6.5 29.5t-16.5 18t-22.5 9t-24.5 2.5zM276 591l-95 154l65 49l94 -115l138 115l63 -49l-150 -154h-115z" />
    <glyph glyph-name="ecircumflex" unicode="&#xea;" horiz-adv-x="513" 
d="M250 -12q-106 0 -159.5 59t-53.5 164q0 63 20 121.5t56.5 103.5t88 71.5t115.5 26.5q31 0 63 -7.5t58 -24t43 -44.5t17 -68q0 -82 -80.5 -128t-257.5 -50q-3 -20 -3 -29q0 -43 24 -69t78 -26q39 0 71 17t66 59l75 -62q-49 -63 -102.5 -88.5t-118.5 -25.5zM309 440
q-50 0 -85 -33t-46 -90l-5 -25q64 3 104.5 10.5t63 18.5t30.5 26t8 34q0 18 -6.5 29.5t-16.5 18t-22.5 9t-24.5 2.5zM420 786l95 -154l-66 -50l-96 116l-136 -115l-61 49l151 154h113z" />
    <glyph glyph-name="edieresis" unicode="&#xeb;" horiz-adv-x="513" 
d="M250 -12q-106 0 -159.5 59t-53.5 164q0 63 20 121.5t56.5 103.5t88 71.5t115.5 26.5q31 0 63 -7.5t58 -24t43 -44.5t17 -68q0 -82 -80.5 -128t-257.5 -50q-3 -20 -3 -29q0 -43 24 -69t78 -26q39 0 71 17t66 59l75 -62q-49 -63 -102.5 -88.5t-118.5 -25.5zM309 440
q-50 0 -85 -33t-46 -90l-5 -25q64 3 104.5 10.5t63 18.5t30.5 26t8 34q0 18 -6.5 29.5t-16.5 18t-22.5 9t-24.5 2.5zM240 605q-31 0 -44.5 12.5t-13.5 31.5q0 5 1 13t4 22q5 25 22.5 41.5t54.5 16.5q30 0 43.5 -12t13.5 -32q0 -5 -1 -12.5t-4 -21.5q-5 -25 -22.5 -42
t-53.5 -17zM434 605q-31 0 -44.5 12.5t-13.5 31.5q0 5 1.5 13t3.5 22q4 25 22 41.5t55 16.5q30 0 44 -12t14 -32q0 -5 -1.5 -12.5t-3.5 -21.5q-4 -25 -22 -42t-55 -17z" />
    <glyph glyph-name="edotaccent" unicode="&#x117;" horiz-adv-x="513" 
d="M250 -12q-106 0 -159.5 59t-53.5 164q0 63 20 121.5t56.5 103.5t88 71.5t115.5 26.5q31 0 63 -7.5t58 -24t43 -44.5t17 -68q0 -82 -80.5 -128t-257.5 -50q-3 -20 -3 -29q0 -43 24 -69t78 -26q39 0 71 17t66 59l75 -62q-49 -63 -102.5 -88.5t-118.5 -25.5zM309 440
q-50 0 -85 -33t-46 -90l-5 -25q64 3 104.5 10.5t63 18.5t30.5 26t8 34q0 18 -6.5 29.5t-16.5 18t-22.5 9t-24.5 2.5zM338 598q-36 0 -51 14.5t-15 37.5q0 5 1 12t5 24q6 28 23.5 45t58.5 17q36 0 51 -14.5t15 -37.5q0 -5 -1 -12t-5 -24q-6 -28 -23.5 -45t-58.5 -17z" />
    <glyph glyph-name="uni1EB9" unicode="&#x1eb9;" horiz-adv-x="513" 
d="M250 -12q-106 0 -159.5 59t-53.5 164q0 63 20 121.5t56.5 103.5t88 71.5t115.5 26.5q31 0 63 -7.5t58 -24t43 -44.5t17 -68q0 -82 -80.5 -128t-257.5 -50q-3 -20 -3 -29q0 -43 24 -69t78 -26q39 0 71 17t66 59l75 -62q-49 -63 -102.5 -88.5t-118.5 -25.5zM309 440
q-50 0 -85 -33t-46 -90l-5 -25q64 3 104.5 10.5t63 18.5t30.5 26t8 34q0 18 -6.5 29.5t-16.5 18t-22.5 9t-24.5 2.5zM203 -193q-32 0 -47 13t-15 35q0 5 1 11.5t5 21.5q6 25 22.5 40t52.5 15q32 0 46.5 -13t14.5 -34q0 -5 -1 -11.5t-4 -22.5q-5 -25 -22.5 -40t-52.5 -15z
" />
    <glyph glyph-name="egrave" unicode="&#xe8;" horiz-adv-x="513" 
d="M250 -12q-106 0 -159.5 59t-53.5 164q0 63 20 121.5t56.5 103.5t88 71.5t115.5 26.5q31 0 63 -7.5t58 -24t43 -44.5t17 -68q0 -82 -80.5 -128t-257.5 -50q-3 -20 -3 -29q0 -43 24 -69t78 -26q39 0 71 17t66 59l75 -62q-49 -63 -102.5 -88.5t-118.5 -25.5zM309 440
q-50 0 -85 -33t-46 -90l-5 -25q64 3 104.5 10.5t63 18.5t30.5 26t8 34q0 18 -6.5 29.5t-16.5 18t-22.5 9t-24.5 2.5zM213 753l109 51l66 -189l-76 -34z" />
    <glyph glyph-name="uni1EBB" unicode="&#x1ebb;" horiz-adv-x="513" 
d="M250 -12q-106 0 -159.5 59t-53.5 164q0 63 20 121.5t56.5 103.5t88 71.5t115.5 26.5q31 0 63 -7.5t58 -24t43 -44.5t17 -68q0 -82 -80.5 -128t-257.5 -50q-3 -20 -3 -29q0 -43 24 -69t78 -26q39 0 71 17t66 59l75 -62q-49 -63 -102.5 -88.5t-118.5 -25.5zM309 440
q-50 0 -85 -33t-46 -90l-5 -25q64 3 104.5 10.5t63 18.5t30.5 26t8 34q0 18 -6.5 29.5t-16.5 18t-22.5 9t-24.5 2.5zM263 791h134q38 0 55.5 -16t17.5 -38q0 -30 -15.5 -55t-38.5 -54l-48 -55l-60 30l55 98h-117z" />
    <glyph glyph-name="emacron" unicode="&#x113;" horiz-adv-x="513" 
d="M250 -12q-106 0 -159.5 59t-53.5 164q0 63 20 121.5t56.5 103.5t88 71.5t115.5 26.5q31 0 63 -7.5t58 -24t43 -44.5t17 -68q0 -82 -80.5 -128t-257.5 -50q-3 -20 -3 -29q0 -43 24 -69t78 -26q39 0 71 17t66 59l75 -62q-49 -63 -102.5 -88.5t-118.5 -25.5zM309 440
q-50 0 -85 -33t-46 -90l-5 -25q64 3 104.5 10.5t63 18.5t30.5 26t8 34q0 18 -6.5 29.5t-16.5 18t-22.5 9t-24.5 2.5zM220 720h277l-19 -91h-276z" />
    <glyph glyph-name="eogonek" unicode="&#x119;" horiz-adv-x="513" 
d="M233 -210q-46 0 -79 19.5t-33 60.5q0 36 30 66t87 49l-1 3q-100 4 -150 63t-50 160q0 63 20 121.5t56.5 103.5t88 71.5t115.5 26.5q31 0 63 -7.5t58 -24t43 -44.5t17 -68q0 -82 -80.5 -128t-257.5 -50q-3 -20 -3 -29q0 -43 24 -69t78 -26q39 0 71 17t66 59l75 -62
q-19 -25 -37 -41t-35.5 -27.5t-34.5 -20.5t-35 -18q-35 -19 -57.5 -34.5t-35 -29t-17.5 -25t-5 -20.5q0 -14 8.5 -22t25.5 -8q15 0 29 6t25 21l48 -48q-17 -20 -45 -32.5t-72 -12.5zM309 440q-50 0 -85 -33t-46 -90l-5 -25q64 3 104.5 10.5t63 18.5t30.5 26t8 34
q0 18 -6.5 29.5t-16.5 18t-22.5 9t-24.5 2.5z" />
    <glyph glyph-name="uni1EBD" unicode="&#x1ebd;" horiz-adv-x="513" 
d="M250 -12q-106 0 -159.5 59t-53.5 164q0 63 20 121.5t56.5 103.5t88 71.5t115.5 26.5q31 0 63 -7.5t58 -24t43 -44.5t17 -68q0 -82 -80.5 -128t-257.5 -50q-3 -20 -3 -29q0 -43 24 -69t78 -26q39 0 71 17t66 59l75 -62q-49 -63 -102.5 -88.5t-118.5 -25.5zM309 440
q-50 0 -85 -33t-46 -90l-5 -25q64 3 104.5 10.5t63 18.5t30.5 26t8 34q0 18 -6.5 29.5t-16.5 18t-22.5 9t-24.5 2.5zM415 605q-23 0 -40 6.5t-35 15.5q-20 11 -36.5 16.5t-33.5 5.5t-29 -6t-29 -19l-39 59q21 26 48 43t62 17q23 0 40 -6.5t35 -15.5q20 -11 36.5 -16.5
t33.5 -5.5t29 6t29 19l39 -59q-21 -26 -48 -43t-62 -17z" />
    <glyph glyph-name="uni1EBF" unicode="&#x1ebf;" horiz-adv-x="513" 
d="M250 -12q-106 0 -159.5 59t-53.5 164q0 63 20 121.5t56.5 103.5t88 71.5t115.5 26.5q31 0 63 -7.5t58 -24t43 -44.5t17 -68q0 -82 -80.5 -128t-257.5 -50q-3 -20 -3 -29q0 -43 24 -69t78 -26q39 0 71 17t66 59l75 -62q-49 -63 -102.5 -88.5t-118.5 -25.5zM309 440
q-50 0 -85 -33t-46 -90l-5 -25q64 3 104.5 10.5t63 18.5t30.5 26t8 34q0 18 -6.5 29.5t-16.5 18t-22.5 9t-24.5 2.5zM524 724l-68 36l104 184l96 -49zM413 770l104 -144l-62 -53l-97 107l-138 -107l-57 53l159 144h91z" />
    <glyph glyph-name="uni1EC7" unicode="&#x1ec7;" horiz-adv-x="513" 
d="M250 -12q-106 0 -159.5 59t-53.5 164q0 63 20 121.5t56.5 103.5t88 71.5t115.5 26.5q31 0 63 -7.5t58 -24t43 -44.5t17 -68q0 -82 -80.5 -128t-257.5 -50q-3 -20 -3 -29q0 -43 24 -69t78 -26q39 0 71 17t66 59l75 -62q-49 -63 -102.5 -88.5t-118.5 -25.5zM309 440
q-50 0 -85 -33t-46 -90l-5 -25q64 3 104.5 10.5t63 18.5t30.5 26t8 34q0 18 -6.5 29.5t-16.5 18t-22.5 9t-24.5 2.5zM420 786l95 -154l-66 -50l-96 116l-136 -115l-61 49l151 154h113zM203 -193q-32 0 -47 13t-15 35q0 5 1 11.5t5 21.5q6 25 22.5 40t52.5 15q32 0 46.5 -13
t14.5 -34q0 -5 -1 -11.5t-4 -22.5q-5 -25 -22.5 -40t-52.5 -15z" />
    <glyph glyph-name="uni1EC1" unicode="&#x1ec1;" horiz-adv-x="513" 
d="M250 -12q-106 0 -159.5 59t-53.5 164q0 63 20 121.5t56.5 103.5t88 71.5t115.5 26.5q31 0 63 -7.5t58 -24t43 -44.5t17 -68q0 -82 -80.5 -128t-257.5 -50q-3 -20 -3 -29q0 -43 24 -69t78 -26q39 0 71 17t66 59l75 -62q-49 -63 -102.5 -88.5t-118.5 -25.5zM309 440
q-50 0 -85 -33t-46 -90l-5 -25q64 3 104.5 10.5t63 18.5t30.5 26t8 34q0 18 -6.5 29.5t-16.5 18t-22.5 9t-24.5 2.5zM96 896l100 48l69 -186l-65 -33zM412 770l105 -144l-62 -53l-97 107l-138 -107l-57 53l158 144h91z" />
    <glyph glyph-name="uni1EC3" unicode="&#x1ec3;" horiz-adv-x="513" 
d="M250 -12q-106 0 -159.5 59t-53.5 164q0 63 20 121.5t56.5 103.5t88 71.5t115.5 26.5q31 0 63 -7.5t58 -24t43 -44.5t17 -68q0 -82 -80.5 -128t-257.5 -50q-3 -20 -3 -29q0 -43 24 -69t78 -26q39 0 71 17t66 59l75 -62q-49 -63 -102.5 -88.5t-118.5 -25.5zM309 440
q-50 0 -85 -33t-46 -90l-5 -25q64 3 104.5 10.5t63 18.5t30.5 26t8 34q0 18 -6.5 29.5t-16.5 18t-22.5 9t-24.5 2.5zM427 931h127q38 0 55 -16t17 -38q0 -30 -15.5 -55t-38.5 -53l-48 -57l-60 31l58 100h-112zM412 770l105 -144l-62 -53l-97 107l-138 -107l-57 53l158 144
h91z" />
    <glyph glyph-name="uni1EC5" unicode="&#x1ec5;" horiz-adv-x="513" 
d="M250 -12q-106 0 -159.5 59t-53.5 164q0 63 20 121.5t56.5 103.5t88 71.5t115.5 26.5q31 0 63 -7.5t58 -24t43 -44.5t17 -68q0 -82 -80.5 -128t-257.5 -50q-3 -20 -3 -29q0 -43 24 -69t78 -26q39 0 71 17t66 59l75 -62q-49 -63 -102.5 -88.5t-118.5 -25.5zM309 440
q-50 0 -85 -33t-46 -90l-5 -25q64 3 104.5 10.5t63 18.5t30.5 26t8 34q0 18 -6.5 29.5t-16.5 18t-22.5 9t-24.5 2.5zM322 924q21 0 35.5 -6.5t31.5 -15.5q20 -11 35 -16.5t31 -5.5q15 0 28.5 6t30.5 19l32 -56q-21 -24 -50 -41.5t-64 -17.5q-20 0 -35 6.5t-31 15.5
q-20 11 -35 16.5t-32 5.5q-14 0 -27.5 -6.5t-30.5 -19.5l-32 56q21 25 49.5 42.5t63.5 17.5zM408 761l106 -133l-63 -54l-101 106l-133 -106l-58 54l157 133h92z" />
    <glyph glyph-name="uni0259" unicode="&#x259;" horiz-adv-x="513" 
d="M197 -12q-31 0 -63 7.5t-58.5 24t-43.5 44t-17 67.5q0 82 81 128.5t258 50.5q3 19 3 29q0 43 -24 69t-78 26q-39 0 -71 -16.5t-66 -58.5l-75 61q48 63 102 88.5t119 25.5q106 0 159.5 -58.5t53.5 -163.5q0 -64 -20 -122.5t-56.5 -103.5t-88 -71.5t-115.5 -26.5zM205 83
q49 0 84.5 33t46.5 90l5 24q-64 -3 -104.5 -10t-63 -18.5t-30.5 -26.5t-8 -34q0 -18 6.5 -29.5t16.5 -17.5t22.5 -8.5t24.5 -2.5z" />
    <glyph glyph-name="gbreve" unicode="&#x11f;" horiz-adv-x="528" 
d="M312 584q-41 0 -68.5 14.5t-45.5 37.5t-28.5 51.5t-15.5 56.5l70 35l15 -34q16 -34 32 -52.5t47 -18.5q27 0 48.5 17.5t50.5 55.5l25 32l73 -38q-16 -29 -35 -57t-43 -50t-55 -36t-70 -14zM487 -27q0 -34 -13.5 -67t-46.5 -59.5t-90 -42.5t-144 -16q-62 0 -103.5 8.5
t-67 24t-36.5 36.5t-11 46q0 47 30 72.5t81 38.5l1 7q-28 8 -41.5 27t-13.5 46q0 42 32 67.5t80 35.5l1 7q-74 39 -74 131q0 39 14.5 74.5t44 63.5t74 44.5t104.5 16.5q23 0 43 -3.5t37 -8.5h176l-17 -87h-67q13 -24 13 -55q0 -39 -15 -74.5t-44.5 -63.5t-74 -44.5
t-104.5 -16.5q-20 0 -36.5 1.5t-32.5 6.5q-23 -7 -37 -20.5t-14 -32.5q0 -17 13.5 -25.5t43.5 -8.5h125q88 0 129 -32.5t41 -96.5zM267 267q45 0 70.5 21t32.5 58q4 17 4.5 26t0.5 15q0 29 -19 45.5t-60 16.5q-45 0 -70 -21t-33 -58q-4 -20 -4.5 -28t-0.5 -13q0 -62 79 -62z
M365 -53q0 23 -16 36t-59 13h-174q-20 -12 -28.5 -29t-8.5 -34q0 -26 21 -42.5t74 -16.5h60q72 0 101.5 21t29.5 52z" />
    <glyph glyph-name="gcircumflex" unicode="&#x11d;" horiz-adv-x="528" 
d="M397 786l95 -154l-66 -50l-96 116l-136 -115l-61 49l151 154h113zM487 -27q0 -34 -13.5 -67t-46.5 -59.5t-90 -42.5t-144 -16q-62 0 -103.5 8.5t-67 24t-36.5 36.5t-11 46q0 47 30 72.5t81 38.5l1 7q-28 8 -41.5 27t-13.5 46q0 42 32 67.5t80 35.5l1 7q-74 39 -74 131
q0 39 14.5 74.5t44 63.5t74 44.5t104.5 16.5q23 0 43 -3.5t37 -8.5h176l-17 -87h-67q13 -24 13 -55q0 -39 -15 -74.5t-44.5 -63.5t-74 -44.5t-104.5 -16.5q-20 0 -36.5 1.5t-32.5 6.5q-23 -7 -37 -20.5t-14 -32.5q0 -17 13.5 -25.5t43.5 -8.5h125q88 0 129 -32.5t41 -96.5z
M267 267q45 0 70.5 21t32.5 58q4 17 4.5 26t0.5 15q0 29 -19 45.5t-60 16.5q-45 0 -70 -21t-33 -58q-4 -20 -4.5 -28t-0.5 -13q0 -62 79 -62zM365 -53q0 23 -16 36t-59 13h-174q-20 -12 -28.5 -29t-8.5 -34q0 -26 21 -42.5t74 -16.5h60q72 0 101.5 21t29.5 52z" />
    <glyph glyph-name="gcommaaccent" unicode="&#x123;" horiz-adv-x="528" 
d="M487 -27q0 -34 -13.5 -67t-46.5 -59.5t-90 -42.5t-144 -16q-62 0 -103.5 8.5t-67 24t-36.5 36.5t-11 46q0 47 30 72.5t81 38.5l1 7q-28 8 -41.5 27t-13.5 46q0 42 32 67.5t80 35.5l1 7q-74 39 -74 131q0 39 14.5 74.5t44 63.5t74 44.5t104.5 16.5q26 0 49 -4t43 -11l4 19
q15 76 83 76h77l-19 -97h-102l-5 -21q55 -40 55 -116q0 -39 -15 -74.5t-44.5 -63.5t-74 -44.5t-104.5 -16.5q-20 0 -36.5 1.5t-32.5 6.5q-23 -7 -37 -20.5t-14 -32.5q0 -17 13.5 -25.5t43.5 -8.5h125q88 0 129 -32.5t41 -96.5zM365 -53q0 23 -16 36t-59 13h-174
q-20 -12 -28.5 -29t-8.5 -34q0 -26 21 -42.5t74 -16.5h60q72 0 101.5 21t29.5 52zM267 267q45 0 70.5 21t32.5 58q4 17 4.5 26t0.5 15q0 29 -19 45.5t-60 16.5q-45 0 -70 -21t-33 -58q-4 -20 -4.5 -28t-0.5 -13q0 -62 79 -62zM310 582q-57 0 -57 46q0 6 0.5 11t2.5 16
q8 42 33.5 81t55.5 63h75q-28 -23 -44.5 -44t-28.5 -49q20 -2 27.5 -13t7.5 -28q0 -3 -0.5 -9t-2.5 -17q-11 -57 -69 -57z" />
    <glyph glyph-name="gdotaccent" unicode="&#x121;" horiz-adv-x="528" 
d="M487 -27q0 -34 -13.5 -67t-46.5 -59.5t-90 -42.5t-144 -16q-62 0 -103.5 8.5t-67 24t-36.5 36.5t-11 46q0 47 30 72.5t81 38.5l1 7q-28 8 -41.5 27t-13.5 46q0 42 32 67.5t80 35.5l1 7q-74 39 -74 131q0 39 14.5 74.5t44 63.5t74 44.5t104.5 16.5q26 0 49 -4t43 -11l4 19
q15 76 83 76h77l-19 -97h-102l-5 -21q55 -40 55 -116q0 -39 -15 -74.5t-44.5 -63.5t-74 -44.5t-104.5 -16.5q-20 0 -36.5 1.5t-32.5 6.5q-23 -7 -37 -20.5t-14 -32.5q0 -17 13.5 -25.5t43.5 -8.5h125q88 0 129 -32.5t41 -96.5zM365 -53q0 23 -16 36t-59 13h-174
q-20 -12 -28.5 -29t-8.5 -34q0 -26 21 -42.5t74 -16.5h60q72 0 101.5 21t29.5 52zM267 267q45 0 70.5 21t32.5 58q4 17 4.5 26t0.5 15q0 29 -19 45.5t-60 16.5q-45 0 -70 -21t-33 -58q-4 -20 -4.5 -28t-0.5 -13q0 -62 79 -62zM315 598q-36 0 -51 14.5t-15 37.5q0 5 1 12
t5 24q6 28 23.5 45t58.5 17q36 0 51 -14.5t15 -37.5q0 -5 -1 -12t-5 -24q-6 -28 -23.5 -45t-58.5 -17z" />
    <glyph glyph-name="gbreve.alt01" horiz-adv-x="579" 
d="M183 -2q-36 0 -63 13.5t-45 38.5t-27 59t-9 76q0 75 17.5 139t50 110.5t77.5 73t99 26.5q53 0 89 -28t43 -73h5l17 89h122l-102 -511q-11 -53 -30.5 -94.5t-49.5 -70t-73 -43.5t-100 -15q-67 0 -118 22t-86 70l79 72q20 -30 50.5 -47.5t72.5 -17.5q108 0 134 132l22 110
h-5q-31 -64 -70 -97.5t-100 -33.5zM238 100q29 0 52.5 14.5t41.5 34.5q19 21 32.5 49t19.5 60l15 78q3 18 -0.5 35.5t-14.5 31t-29.5 22t-45.5 8.5q-101 0 -128 -129l-12 -62q-2 -11 -4 -27t-2 -28q0 -40 19.5 -63.5t55.5 -23.5zM342 584q-41 0 -68.5 14.5t-45.5 37.5
t-28.5 51.5t-15.5 56.5l70 35l15 -34q16 -34 32 -52.5t47 -18.5q27 0 48.5 17.5t50.5 55.5l25 32l73 -38q-16 -29 -35 -57t-43 -50t-55 -36t-70 -14z" />
    <glyph glyph-name="gcircumflex.alt01" horiz-adv-x="579" 
d="M183 -2q-36 0 -63 13.5t-45 38.5t-27 59t-9 76q0 75 17.5 139t50 110.5t77.5 73t99 26.5q53 0 89 -28t43 -73h5l17 89h122l-102 -511q-11 -53 -30.5 -94.5t-49.5 -70t-73 -43.5t-100 -15q-67 0 -118 22t-86 70l79 72q20 -30 50.5 -47.5t72.5 -17.5q108 0 134 132l22 110
h-5q-31 -64 -70 -97.5t-100 -33.5zM238 100q29 0 52.5 14.5t41.5 34.5q19 21 32.5 49t19.5 60l15 78q3 18 -0.5 35.5t-14.5 31t-29.5 22t-45.5 8.5q-101 0 -128 -129l-12 -62q-2 -11 -4 -27t-2 -28q0 -40 19.5 -63.5t55.5 -23.5zM427 786l95 -154l-66 -50l-96 116l-136 -115
l-61 49l151 154h113z" />
    <glyph glyph-name="gcommaaccent.alt01" horiz-adv-x="579" 
d="M183 -2q-36 0 -63 13.5t-45 38.5t-27 59t-9 76q0 75 17.5 139t50 110.5t77.5 73t99 26.5q53 0 89 -28t43 -73h5l17 89h122l-102 -511q-11 -53 -30.5 -94.5t-49.5 -70t-73 -43.5t-100 -15q-67 0 -118 22t-86 70l79 72q20 -30 50.5 -47.5t72.5 -17.5q108 0 134 132l22 110
h-5q-31 -64 -70 -97.5t-100 -33.5zM238 100q29 0 52.5 14.5t41.5 34.5q19 21 32.5 49t19.5 60l15 78q3 18 -0.5 35.5t-14.5 31t-29.5 22t-45.5 8.5q-101 0 -128 -129l-12 -62q-2 -11 -4 -27t-2 -28q0 -40 19.5 -63.5t55.5 -23.5zM339 582q-57 0 -57 46q0 6 0.5 11t2.5 16
q8 42 33.5 81t55.5 63h75q-28 -23 -44.5 -44t-28.5 -49q20 -2 27.5 -13t7.5 -28q0 -3 -0.5 -9t-2.5 -17q-11 -57 -69 -57z" />
    <glyph glyph-name="gdotaccent.alt01" horiz-adv-x="579" 
d="M183 -2q-36 0 -63 13.5t-45 38.5t-27 59t-9 76q0 75 17.5 139t50 110.5t77.5 73t99 26.5q53 0 89 -28t43 -73h5l17 89h122l-102 -511q-11 -53 -30.5 -94.5t-49.5 -70t-73 -43.5t-100 -15q-67 0 -118 22t-86 70l79 72q20 -30 50.5 -47.5t72.5 -17.5q108 0 134 132l22 110
h-5q-31 -64 -70 -97.5t-100 -33.5zM238 100q29 0 52.5 14.5t41.5 34.5q19 21 32.5 49t19.5 60l15 78q3 18 -0.5 35.5t-14.5 31t-29.5 22t-45.5 8.5q-101 0 -128 -129l-12 -62q-2 -11 -4 -27t-2 -28q0 -40 19.5 -63.5t55.5 -23.5zM345 598q-36 0 -51 14.5t-15 37.5q0 5 1 12
t5 24q6 28 23.5 45t58.5 17q36 0 51 -14.5t15 -37.5q0 -5 -1 -12t-5 -24q-6 -28 -23.5 -45t-58.5 -17z" />
    <glyph glyph-name="hbar" unicode="&#x127;" horiz-adv-x="580" 
d="M140 596h-67l17 86h67l12 58h121l-12 -58h142l-17 -86h-142l-37 -190h5q29 62 69.5 95t100.5 33q63 0 95.5 -36t32.5 -102q0 -17 -2.5 -34.5t-6.5 -37.5l-45 -225h58l-19 -99h-85q-36 0 -57 18.5t-21 52.5q0 8 1 14.5t2 11.5l43 217q6 28 6 55q0 29 -14 45.5t-47 16.5
q-26 0 -47.5 -13t-40.5 -33q-20 -22 -34.5 -50.5t-20.5 -59.5l-55 -275h-121z" />
    <glyph glyph-name="hcircumflex" unicode="&#x125;" horiz-adv-x="580" 
d="M169 740h121l-66 -334h5q29 62 69.5 95t100.5 33q63 0 95.5 -36t32.5 -102q0 -17 -2.5 -34.5t-6.5 -37.5l-45 -225h58l-19 -99h-85q-36 0 -57 18.5t-21 52.5q0 8 1 14.5t2 11.5l43 217q6 28 6 55q0 29 -14 45.5t-47 16.5q-26 0 -48 -12.5t-40 -33.5q-20 -23 -34.5 -51
t-20.5 -59l-55 -275h-121zM321 949l95 -154l-66 -50l-96 116l-136 -115l-61 49l151 154h113z" />
    <glyph glyph-name="dotlessi" unicode="&#x131;" horiz-adv-x="277" 
d="M122 0q-38 0 -60.5 20.5t-22.5 54.5q0 6 0.5 11.5t1.5 12.5l85 423h122l-85 -423h63l-20 -99h-84z" />
    <glyph glyph-name="iacute" unicode="&#xed;" horiz-adv-x="277" 
d="M122 0q-38 0 -60.5 20.5t-22.5 54.5q0 6 0.5 11.5t1.5 12.5l85 423h122l-85 -423h63l-20 -99h-84zM216 581l-73 39l115 185l99 -53z" />
    <glyph glyph-name="ibreve" unicode="&#x12d;" horiz-adv-x="277" 
d="M122 0q-38 0 -60.5 20.5t-22.5 54.5q0 6 0.5 11.5t1.5 12.5l85 423h122l-85 -423h63l-20 -99h-84zM202 584q-41 0 -68.5 14.5t-45.5 37.5t-28.5 51.5t-15.5 56.5l70 35l15 -34q16 -34 32 -52.5t47 -18.5q27 0 48.5 17.5t50.5 55.5l25 32l73 -38q-16 -29 -35 -57t-43 -50
t-55 -36t-70 -14z" />
    <glyph glyph-name="icircumflex" unicode="&#xee;" horiz-adv-x="277" 
d="M122 0q-38 0 -60.5 20.5t-22.5 54.5q0 6 0.5 11.5t1.5 12.5l85 423h122l-85 -423h63l-20 -99h-84zM287 786l95 -154l-66 -50l-96 116l-136 -115l-61 49l151 154h113z" />
    <glyph glyph-name="idieresis" unicode="&#xef;" horiz-adv-x="277" 
d="M122 0q-38 0 -60.5 20.5t-22.5 54.5q0 6 0.5 11.5t1.5 12.5l85 423h122l-85 -423h63l-20 -99h-84zM107 605q-31 0 -44.5 12.5t-13.5 31.5q0 5 1 13t4 22q5 25 22.5 41.5t54.5 16.5q30 0 43.5 -12t13.5 -32q0 -5 -1 -12.5t-4 -21.5q-5 -25 -22.5 -42t-53.5 -17zM301 605
q-31 0 -44.5 12.5t-13.5 31.5q0 5 1.5 13t3.5 22q4 25 22 41.5t55 16.5q30 0 44 -12t14 -32q0 -5 -1.5 -12.5t-3.5 -21.5q-4 -25 -22 -42t-55 -17z" />
    <glyph glyph-name="uni1ECB" unicode="&#x1ecb;" horiz-adv-x="277" 
d="M204 598q-33 0 -48 13t-15 34q0 15 5 38q6 25 23.5 43.5t60.5 18.5q33 0 48 -13t15 -33q0 -15 -5 -38q-6 -25 -23.5 -44t-60.5 -19zM122 0q-38 0 -60.5 20.5t-22.5 54.5q0 10 3 25l84 422h122l-85 -423h63l-20 -99h-84zM89 -193q-32 0 -47 13t-15 35q0 5 1 11.5t5 21.5
q6 25 22.5 40t52.5 15q32 0 46.5 -13t14.5 -34q0 -5 -1 -11.5t-4 -22.5q-5 -25 -22.5 -40t-52.5 -15z" />
    <glyph glyph-name="igrave" unicode="&#xec;" horiz-adv-x="277" 
d="M122 0q-38 0 -60.5 20.5t-22.5 54.5q0 6 0.5 11.5t1.5 12.5l85 423h122l-85 -423h63l-20 -99h-84zM80 753l109 51l66 -189l-76 -34z" />
    <glyph glyph-name="uni1EC9" unicode="&#x1ec9;" horiz-adv-x="277" 
d="M122 0q-38 0 -60.5 20.5t-22.5 54.5q0 6 0.5 11.5t1.5 12.5l85 423h122l-85 -423h63l-20 -99h-84zM129 791h134q38 0 55.5 -16t17.5 -38q0 -30 -15.5 -55t-38.5 -54l-48 -55l-60 30l55 98h-117z" />
    <glyph glyph-name="imacron" unicode="&#x12b;" horiz-adv-x="277" 
d="M122 0q-38 0 -60.5 20.5t-22.5 54.5q0 6 0.5 11.5t1.5 12.5l85 423h122l-85 -423h63l-20 -99h-84zM87 720h277l-19 -91h-276z" />
    <glyph glyph-name="iogonek" unicode="&#x12f;" horiz-adv-x="277" 
d="M206 0q-41 -25 -64.5 -43t-35.5 -31.5t-15 -23t-3 -16.5q0 -14 8 -22t26 -8q15 0 29 6t25 21l48 -48q-17 -20 -45 -32.5t-72 -12.5q-46 0 -79 19.5t-33 60.5q0 39 33.5 71.5t102.5 53.5l-1 5h-8q-38 0 -60.5 20.5t-22.5 54.5q0 10 3 25l84 422h122l-85 -423h63zM204 598
q-33 0 -48 13t-15 34q0 15 5 38q6 25 23.5 43.5t60.5 18.5q33 0 48 -13t15 -33q0 -15 -5 -38q-6 -25 -23.5 -44t-60.5 -19z" />
    <glyph glyph-name="itilde" unicode="&#x129;" horiz-adv-x="277" 
d="M122 0q-38 0 -60.5 20.5t-22.5 54.5q0 6 0.5 11.5t1.5 12.5l85 423h122l-85 -423h63l-20 -99h-84zM282 605q-23 0 -40 6.5t-35 15.5q-20 11 -36.5 16.5t-33.5 5.5t-29 -6t-29 -19l-39 59q21 26 48 43t62 17q23 0 40 -6.5t35 -15.5q20 -11 36.5 -16.5t33.5 -5.5t29 6
t29 19l39 -59q-21 -26 -48 -43t-62 -17z" />
    <glyph glyph-name="ij" unicode="&#x133;" horiz-adv-x="545" 
d="M204 598q-33 0 -48 13t-15 34q0 15 5 38q6 25 23.5 43.5t60.5 18.5q33 0 48 -13t15 -33q0 -15 -5 -38q-6 -25 -23.5 -44t-60.5 -19zM122 0q-38 0 -60.5 20.5t-22.5 54.5q0 10 3 25l84 422h122l-85 -423h63l-20 -99h-84zM403 522h122l-120 -594q-13 -64 -47 -96t-102 -32
h-75l20 99h77zM481 598q-33 0 -48 13t-15 34q0 15 5 38q5 25 23 43.5t61 18.5q33 0 48 -13t15 -33q0 -15 -5 -38q-5 -25 -23 -44t-61 -19z" />
    <glyph glyph-name="ijacute" horiz-adv-x="545" 
d="M201 -101h77l125 623h122l-121 -594q-12 -64 -46.5 -96t-101.5 -32h-75zM205 581l-73 39l115 185l99 -53zM478 581l-73 39l115 185l99 -53zM122 0q-38 0 -60.5 20.5t-22.5 54.5q0 6 0.5 11.5t1.5 12.5l85 423h122l-85 -423h63l-20 -99h-84z" />
    <glyph glyph-name="uni0237" unicode="&#x237;" horiz-adv-x="269" 
d="M-74 -101h77l125 623h122l-121 -594q-12 -64 -46.5 -96t-101.5 -32h-75z" />
    <glyph glyph-name="jacute" horiz-adv-x="269" 
d="M-74 -101h77l125 623h122l-121 -594q-12 -64 -46.5 -96t-101.5 -32h-75zM220 581l-73 39l115 185l99 -53z" />
    <glyph glyph-name="jcircumflex" unicode="&#x135;" horiz-adv-x="269" 
d="M-74 -101h77l125 623h122l-121 -594q-12 -64 -46.5 -96t-101.5 -32h-75zM291 786l95 -154l-66 -50l-96 116l-136 -115l-61 49l151 154h113z" />
    <glyph glyph-name="kcommaaccent" unicode="&#x137;" horiz-adv-x="541" 
d="M169 740h121l-88 -443h6l78 89l140 136h142l-218 -211l82 -212h62l-21 -99h-65q-70 0 -95 72l-58 158l-83 -78l-30 -152h-121zM236 -49q57 0 57 -47q0 -5 -0.5 -10t-2.5 -16q-9 -41 -34 -81t-54 -63h-76q28 22 44.5 43t28.5 49q-20 2 -27.5 13t-7.5 28q0 4 0.5 9.5
t2.5 16.5q13 58 69 58z" />
    <glyph glyph-name="kgreenlandic" unicode="&#x138;" horiz-adv-x="550" 
d="M126 522h122l-47 -234h6l86 92l148 142h143l-226 -217l75 -206h62l-20 -99h-66q-36 0 -58.5 17.5t-35.5 54.5l-56 153l-87 -79l-29 -146h-121z" />
    <glyph glyph-name="lacute" unicode="&#x13a;" horiz-adv-x="276" 
d="M122 0q-39 0 -61.5 20.5t-22.5 54.5q0 10 3 25l128 640h122l-129 -641h67l-19 -99h-88zM258 781l-73 39l115 185l99 -53z" />
    <glyph glyph-name="lcaron" unicode="&#x13e;" horiz-adv-x="276" 
d="M122 0q-39 0 -61.5 20.5t-22.5 54.5q0 10 3 25l128 640h122l-129 -641h67l-19 -99h-88zM396 534h-84l45 206h138z" />
    <glyph glyph-name="lcommaaccent" unicode="&#x13c;" horiz-adv-x="276" 
d="M122 0q-39 0 -61.5 20.5t-22.5 54.5q0 10 3 25l128 640h122l-129 -641h67l-19 -99h-88zM114 -49q57 0 57 -47q0 -5 -0.5 -10t-2.5 -16q-9 -41 -34 -81t-54 -63h-76q28 22 44.5 43t28.5 49q-20 2 -27.5 13t-7.5 28q0 4 0.5 9.5t2.5 16.5q13 58 69 58z" />
    <glyph glyph-name="ldot" unicode="&#x140;" horiz-adv-x="396" 
d="M122 0q-39 0 -61.5 20.5t-22.5 54.5q0 10 3 25l128 640h122l-129 -641h67l-19 -99h-88zM336 268q-36 0 -51 14.5t-15 37.5q0 5 1 12t5 24q6 28 23.5 45t58.5 17q36 0 51 -14.5t15 -37.5q0 -5 -1 -12t-5 -24q-6 -28 -23.5 -45t-58.5 -17z" />
    <glyph glyph-name="lslash" unicode="&#x142;" horiz-adv-x="288" 
d="M212 0h-90q-39 0 -61 20.5t-22 54.5q0 10 3 25l41 204l-75 -25l19 95l75 25l68 341h122l-59 -297l102 34l-19 -95l-102 -34l-49 -249h67z" />
    <glyph glyph-name="nacute" unicode="&#x144;" horiz-adv-x="581" 
d="M22 0l104 522h122l-23 -116h5q29 62 69.5 95t100.5 33q63 0 95.5 -36t32.5 -102q0 -17 -2.5 -34.5t-6.5 -37.5l-45 -225h58l-19 -99h-85q-36 0 -57 18.5t-21 52.5q0 8 0.5 13.5t2.5 12.5l43 217q6 28 6 55q0 29 -14 45.5t-47 16.5q-26 0 -48 -12.5t-40 -33.5
q-20 -23 -34.5 -51t-20.5 -59l-55 -275h-121zM372 581l-73 39l115 185l99 -53z" />
    <glyph glyph-name="ncaron" unicode="&#x148;" horiz-adv-x="581" 
d="M22 0l104 522h122l-23 -116h5q29 62 69.5 95t100.5 33q63 0 95.5 -36t32.5 -102q0 -17 -2.5 -34.5t-6.5 -37.5l-45 -225h58l-19 -99h-85q-36 0 -57 18.5t-21 52.5q0 8 0.5 13.5t2.5 12.5l43 217q6 28 6 55q0 29 -14 45.5t-47 16.5q-26 0 -48 -12.5t-40 -33.5
q-20 -23 -34.5 -51t-20.5 -59l-55 -275h-121zM299 591l-95 154l65 49l94 -115l138 115l63 -49l-150 -154h-115z" />
    <glyph glyph-name="ncommaaccent" unicode="&#x146;" horiz-adv-x="581" 
d="M22 0l104 522h122l-23 -116h5q29 62 69.5 95t100.5 33q63 0 95.5 -36t32.5 -102q0 -17 -2.5 -34.5t-6.5 -37.5l-45 -225h58l-19 -99h-85q-36 0 -57 18.5t-21 52.5q0 8 0.5 13.5t2.5 12.5l43 217q6 28 6 55q0 29 -14 45.5t-47 16.5q-26 0 -48 -12.5t-40 -33.5
q-20 -23 -34.5 -51t-20.5 -59l-55 -275h-121zM248 -49q57 0 57 -47q0 -5 -0.5 -10t-2.5 -16q-9 -41 -34 -81t-54 -63h-76q28 22 44.5 43t28.5 49q-20 2 -27.5 13t-7.5 28q0 4 0.5 9.5t2.5 16.5q13 58 69 58z" />
    <glyph glyph-name="ntilde" unicode="&#xf1;" horiz-adv-x="581" 
d="M22 0l104 522h122l-23 -116h5q29 62 69.5 95t100.5 33q63 0 95.5 -36t32.5 -102q0 -17 -2.5 -34.5t-6.5 -37.5l-45 -225h58l-19 -99h-85q-36 0 -57 18.5t-21 52.5q0 8 0.5 13.5t2.5 12.5l43 217q6 28 6 55q0 29 -14 45.5t-47 16.5q-26 0 -48 -12.5t-40 -33.5
q-20 -23 -34.5 -51t-20.5 -59l-55 -275h-121zM438 605q-23 0 -40 6.5t-35 15.5q-20 11 -36.5 16.5t-33.5 5.5t-29 -6t-29 -19l-39 59q21 26 48 43t62 17q23 0 40 -6.5t35 -15.5q20 -11 36.5 -16.5t33.5 -5.5t29 6t29 19l39 -59q-21 -26 -48 -43t-62 -17z" />
    <glyph glyph-name="napostrophe" unicode="&#x149;" horiz-adv-x="853" 
d="M236 750q37 0 52.5 -17t15.5 -39q0 -16 -5 -39t-16.5 -49t-28.5 -51.5t-39 -49.5t-49 -43h-91q40 32 67 62.5t47 67.5q-24 5 -35 19.5t-11 31.5q0 7 2 18l4 22q6 29 27 48t60 19zM294 0l104 522h122l-23 -116h5q29 62 69.5 95t100.5 33q63 0 95.5 -36t32.5 -102
q0 -17 -2.5 -34.5t-6.5 -37.5l-45 -225h58l-19 -99h-85q-36 0 -57 18.5t-21 52.5q0 8 0.5 13.5t2.5 12.5l43 217q6 28 6 55q0 29 -14 45.5t-47 16.5q-26 0 -48 -12.5t-40 -33.5q-20 -23 -34.5 -51t-20.5 -59l-55 -275h-121z" />
    <glyph glyph-name="eng" unicode="&#x14b;" horiz-adv-x="582" 
d="M314 -102l83 420q5 28 5 46q0 34 -14 50.5t-46 16.5q-26 0 -49.5 -13t-40.5 -34q-17 -20 -31.5 -45.5t-20.5 -53.5l-57 -285h-121l104 522h122l-23 -116h5q29 60 70 94t99 34q66 0 97.5 -36.5t31.5 -102.5q0 -16 -2 -33.5t-6 -37.5l-80 -396q-12 -64 -46.5 -96
t-101.5 -32h-76l20 98h78z" />
    <glyph glyph-name="oacute" unicode="&#xf3;" horiz-adv-x="545" 
d="M239 -12q-92 0 -147 56t-55 161q0 69 20 129.5t56 104.5t85 69.5t108 25.5q92 0 147 -56t55 -161q0 -69 -20 -129t-56 -104.5t-85.5 -70t-107.5 -25.5zM246 88q45 0 76.5 33t43.5 96l18 88q2 6 3 15t1 20q0 43 -22.5 68.5t-65.5 25.5q-45 0 -77 -32.5t-44 -95.5l-18 -88
q-2 -8 -3 -16.5t-1 -19.5q0 -42 22.5 -68t66.5 -26zM345 581l-73 39l115 185l99 -53z" />
    <glyph glyph-name="obreve" unicode="&#x14f;" horiz-adv-x="545" 
d="M239 -12q-92 0 -147 56t-55 161q0 69 20 129.5t56 104.5t85 69.5t108 25.5q92 0 147 -56t55 -161q0 -69 -20 -129t-56 -104.5t-85.5 -70t-107.5 -25.5zM246 88q45 0 76.5 33t43.5 96l18 88q2 6 3 15t1 20q0 43 -22.5 68.5t-65.5 25.5q-45 0 -77 -32.5t-44 -95.5l-18 -88
q-2 -8 -3 -16.5t-1 -19.5q0 -42 22.5 -68t66.5 -26zM331 584q-41 0 -68.5 14.5t-45.5 37.5t-28.5 51.5t-15.5 56.5l70 35l15 -34q16 -34 32 -52.5t47 -18.5q27 0 48.5 17.5t50.5 55.5l25 32l73 -38q-16 -29 -35 -57t-43 -50t-55 -36t-70 -14z" />
    <glyph glyph-name="ocircumflex" unicode="&#xf4;" horiz-adv-x="545" 
d="M239 -12q-92 0 -147 56t-55 161q0 69 20 129.5t56 104.5t85 69.5t108 25.5q92 0 147 -56t55 -161q0 -69 -20 -129t-56 -104.5t-85.5 -70t-107.5 -25.5zM246 88q45 0 76.5 33t43.5 96l18 88q2 6 3 15t1 20q0 43 -22.5 68.5t-65.5 25.5q-45 0 -77 -32.5t-44 -95.5l-18 -88
q-2 -8 -3 -16.5t-1 -19.5q0 -42 22.5 -68t66.5 -26zM416 786l95 -154l-66 -50l-96 116l-136 -115l-61 49l151 154h113z" />
    <glyph glyph-name="odieresis" unicode="&#xf6;" horiz-adv-x="545" 
d="M239 -12q-92 0 -147 56t-55 161q0 69 20 129.5t56 104.5t85 69.5t108 25.5q92 0 147 -56t55 -161q0 -69 -20 -129t-56 -104.5t-85.5 -70t-107.5 -25.5zM246 88q45 0 76.5 33t43.5 96l18 88q2 6 3 15t1 20q0 43 -22.5 68.5t-65.5 25.5q-45 0 -77 -32.5t-44 -95.5l-18 -88
q-2 -8 -3 -16.5t-1 -19.5q0 -42 22.5 -68t66.5 -26zM236 605q-31 0 -44.5 12.5t-13.5 31.5q0 5 1 13t4 22q5 25 22.5 41.5t54.5 16.5q30 0 43.5 -12t13.5 -32q0 -5 -1 -12.5t-4 -21.5q-5 -25 -22.5 -42t-53.5 -17zM430 605q-31 0 -44.5 12.5t-13.5 31.5q0 5 1.5 13t3.5 22
q4 25 22 41.5t55 16.5q30 0 44 -12t14 -32q0 -5 -1.5 -12.5t-3.5 -21.5q-4 -25 -22 -42t-55 -17z" />
    <glyph glyph-name="uni1ECD" unicode="&#x1ecd;" horiz-adv-x="545" 
d="M239 -12q-92 0 -147 56t-55 161q0 69 20 129.5t56 104.5t85 69.5t108 25.5q92 0 147 -56t55 -161q0 -69 -20 -129t-56 -104.5t-85.5 -70t-107.5 -25.5zM246 88q45 0 76.5 33t43.5 96l18 88q2 6 3 15t1 20q0 43 -22.5 68.5t-65.5 25.5q-45 0 -77 -32.5t-44 -95.5l-18 -88
q-2 -8 -3 -16.5t-1 -19.5q0 -42 22.5 -68t66.5 -26zM196 -193q-32 0 -47 13t-15 35q0 5 1 11.5t5 21.5q6 25 22.5 40t52.5 15q32 0 46.5 -13t14.5 -34q0 -5 -1 -11.5t-4 -22.5q-5 -25 -22.5 -40t-52.5 -15z" />
    <glyph glyph-name="ograve" unicode="&#xf2;" horiz-adv-x="545" 
d="M239 -12q-92 0 -147 56t-55 161q0 69 20 129.5t56 104.5t85 69.5t108 25.5q92 0 147 -56t55 -161q0 -69 -20 -129t-56 -104.5t-85.5 -70t-107.5 -25.5zM246 88q45 0 76.5 33t43.5 96l18 88q2 6 3 15t1 20q0 43 -22.5 68.5t-65.5 25.5q-45 0 -77 -32.5t-44 -95.5l-18 -88
q-2 -8 -3 -16.5t-1 -19.5q0 -42 22.5 -68t66.5 -26zM209 753l109 51l66 -189l-76 -34z" />
    <glyph glyph-name="uni1ECF" unicode="&#x1ecf;" horiz-adv-x="545" 
d="M239 -12q-92 0 -147 56t-55 161q0 69 20 129.5t56 104.5t85 69.5t108 25.5q92 0 147 -56t55 -161q0 -69 -20 -129t-56 -104.5t-85.5 -70t-107.5 -25.5zM246 88q45 0 76.5 33t43.5 96l18 88q2 6 3 15t1 20q0 43 -22.5 68.5t-65.5 25.5q-45 0 -77 -32.5t-44 -95.5l-18 -88
q-2 -8 -3 -16.5t-1 -19.5q0 -42 22.5 -68t66.5 -26zM259 791h134q38 0 55.5 -16t17.5 -38q0 -30 -15.5 -55t-38.5 -54l-48 -55l-60 30l55 98h-117z" />
    <glyph glyph-name="ohungarumlaut" unicode="&#x151;" horiz-adv-x="545" 
d="M239 -12q-92 0 -147 56t-55 161q0 69 20 129.5t56 104.5t85 69.5t108 25.5q92 0 147 -56t55 -161q0 -69 -20 -129t-56 -104.5t-85.5 -70t-107.5 -25.5zM246 88q45 0 76.5 33t43.5 96l18 88q2 6 3 15t1 20q0 43 -22.5 68.5t-65.5 25.5q-45 0 -77 -32.5t-44 -95.5l-18 -88
q-2 -8 -3 -16.5t-1 -19.5q0 -42 22.5 -68t66.5 -26zM251 582l-68 33l111 187l93 -50zM435 582l-67 33l111 187l92 -50z" />
    <glyph glyph-name="omacron" unicode="&#x14d;" horiz-adv-x="545" 
d="M239 -12q-92 0 -147 56t-55 161q0 69 20 129.5t56 104.5t85 69.5t108 25.5q92 0 147 -56t55 -161q0 -69 -20 -129t-56 -104.5t-85.5 -70t-107.5 -25.5zM246 88q45 0 76.5 33t43.5 96l18 88q2 6 3 15t1 20q0 43 -22.5 68.5t-65.5 25.5q-45 0 -77 -32.5t-44 -95.5l-18 -88
q-2 -8 -3 -16.5t-1 -19.5q0 -42 22.5 -68t66.5 -26zM216 720h277l-19 -91h-276z" />
    <glyph glyph-name="oslash" unicode="&#xf8;" horiz-adv-x="546" 
d="M-29 14l85 87q-19 44 -19 104q0 69 20 129.5t56 104.5t85.5 69.5t108.5 25.5q81 0 133 -44l72 75l62 -56l-85 -88q20 -45 20 -104q0 -69 -20.5 -129t-56.5 -104.5t-85.5 -70t-108.5 -25.5q-80 0 -133 44l-72 -74zM245 84q45 0 78.5 34.5t45.5 97.5q2 10 4.5 23t5 25
t4 20.5t1.5 10.5q1 5 2 15t1 13l-209 -211q11 -13 28 -20.5t39 -7.5zM300 438q-45 0 -77.5 -34t-45.5 -98q-2 -10 -5 -23t-5 -25l-3.5 -21t-1.5 -11q-1 -3 -2.5 -13t-0.5 -15l208 213q-11 12 -28 19.5t-39 7.5z" />
    <glyph glyph-name="oslashacute" unicode="&#x1ff;" horiz-adv-x="546" 
d="M-29 14l85 87q-19 44 -19 104q0 69 20 129.5t56 104.5t85.5 69.5t108.5 25.5q81 0 133 -44l72 75l62 -56l-85 -88q20 -45 20 -104q0 -69 -20.5 -129t-56.5 -104.5t-85.5 -70t-108.5 -25.5q-80 0 -133 44l-72 -74zM245 84q45 0 78.5 34.5t45.5 97.5q2 10 4.5 23t5 25
t4 20.5t1.5 10.5q1 5 2 15t1 13l-209 -211q11 -13 28 -20.5t39 -7.5zM300 438q-45 0 -77.5 -34t-45.5 -98q-2 -10 -5 -23t-5 -25l-3.5 -21t-1.5 -11q-1 -3 -2.5 -13t-0.5 -15l208 213q-11 12 -28 19.5t-39 7.5zM344 581l-73 39l115 185l99 -53z" />
    <glyph glyph-name="otilde" unicode="&#xf5;" horiz-adv-x="545" 
d="M239 -12q-92 0 -147 56t-55 161q0 69 20 129.5t56 104.5t85 69.5t108 25.5q92 0 147 -56t55 -161q0 -69 -20 -129t-56 -104.5t-85.5 -70t-107.5 -25.5zM246 88q45 0 76.5 33t43.5 96l18 88q2 6 3 15t1 20q0 43 -22.5 68.5t-65.5 25.5q-45 0 -77 -32.5t-44 -95.5l-18 -88
q-2 -8 -3 -16.5t-1 -19.5q0 -42 22.5 -68t66.5 -26zM411 605q-23 0 -40 6.5t-35 15.5q-20 11 -36.5 16.5t-33.5 5.5t-29 -6t-29 -19l-39 59q21 26 48 43t62 17q23 0 40 -6.5t35 -15.5q20 -11 36.5 -16.5t33.5 -5.5t29 6t29 19l39 -59q-21 -26 -48 -43t-62 -17z" />
    <glyph glyph-name="ohorn" unicode="&#x1a1;" horiz-adv-x="545" 
d="M239 -12q-92 0 -147 56t-55 161q0 69 20 129.5t56 104.5t85 69.5t108 25.5q42 0 77 -12h82l22 108h107l-19 -96q-9 -42 -27 -64.5t-62 -22.5h-10q32 -53 32 -130q0 -69 -20 -129t-56 -104.5t-85.5 -70t-107.5 -25.5zM246 88q45 0 76.5 33t43.5 96l18 88q2 7 3 15.5
t1 19.5q0 43 -22.5 68.5t-65.5 25.5q-45 0 -77 -32.5t-44 -95.5l-18 -88q-2 -8 -3 -16.5t-1 -19.5q0 -42 22.5 -68t66.5 -26z" />
    <glyph glyph-name="uni1EDB" unicode="&#x1edb;" horiz-adv-x="545" 
d="M239 -12q-92 0 -147 56t-55 161q0 69 20 129.5t56 104.5t85 69.5t108 25.5q42 0 77 -12h82l22 108h107l-19 -96q-9 -42 -27 -64.5t-62 -22.5h-10q32 -53 32 -130q0 -69 -20 -129t-56 -104.5t-85.5 -70t-107.5 -25.5zM246 88q45 0 76.5 33t43.5 96l18 88q2 7 3 15.5
t1 19.5q0 43 -22.5 68.5t-65.5 25.5q-45 0 -77 -32.5t-44 -95.5l-18 -88q-2 -8 -3 -16.5t-1 -19.5q0 -42 22.5 -68t66.5 -26zM345 581l-73 39l115 185l99 -53z" />
    <glyph glyph-name="uni1EE3" unicode="&#x1ee3;" horiz-adv-x="545" 
d="M239 -12q-92 0 -147 56t-55 161q0 69 20 129.5t56 104.5t85 69.5t108 25.5q42 0 77 -12h82l22 108h107l-19 -96q-9 -42 -27 -64.5t-62 -22.5h-10q32 -53 32 -130q0 -69 -20 -129t-56 -104.5t-85.5 -70t-107.5 -25.5zM246 88q45 0 76.5 33t43.5 96l18 88q2 7 3 15.5
t1 19.5q0 43 -22.5 68.5t-65.5 25.5q-45 0 -77 -32.5t-44 -95.5l-18 -88q-2 -8 -3 -16.5t-1 -19.5q0 -42 22.5 -68t66.5 -26zM196 -193q-32 0 -47 13t-15 35q0 5 1 11.5t5 21.5q6 25 22.5 40t52.5 15q32 0 46.5 -13t14.5 -34q0 -5 -1 -11.5t-4 -22.5q-5 -25 -22.5 -40
t-52.5 -15z" />
    <glyph glyph-name="uni1EDD" unicode="&#x1edd;" horiz-adv-x="545" 
d="M239 -12q-92 0 -147 56t-55 161q0 69 20 129.5t56 104.5t85 69.5t108 25.5q42 0 77 -12h82l22 108h107l-19 -96q-9 -42 -27 -64.5t-62 -22.5h-10q32 -53 32 -130q0 -69 -20 -129t-56 -104.5t-85.5 -70t-107.5 -25.5zM246 88q45 0 76.5 33t43.5 96l18 88q2 7 3 15.5
t1 19.5q0 43 -22.5 68.5t-65.5 25.5q-45 0 -77 -32.5t-44 -95.5l-18 -88q-2 -8 -3 -16.5t-1 -19.5q0 -42 22.5 -68t66.5 -26zM209 753l109 51l66 -189l-76 -34z" />
    <glyph glyph-name="uni1EDF" unicode="&#x1edf;" horiz-adv-x="545" 
d="M239 -12q-92 0 -147 56t-55 161q0 69 20 129.5t56 104.5t85 69.5t108 25.5q42 0 77 -12h82l22 108h107l-19 -96q-9 -42 -27 -64.5t-62 -22.5h-10q32 -53 32 -130q0 -69 -20 -129t-56 -104.5t-85.5 -70t-107.5 -25.5zM246 88q45 0 76.5 33t43.5 96l18 88q2 7 3 15.5
t1 19.5q0 43 -22.5 68.5t-65.5 25.5q-45 0 -77 -32.5t-44 -95.5l-18 -88q-2 -8 -3 -16.5t-1 -19.5q0 -42 22.5 -68t66.5 -26zM259 791h134q38 0 55.5 -16t17.5 -38q0 -30 -15.5 -55t-38.5 -54l-48 -55l-60 30l55 98h-117z" />
    <glyph glyph-name="uni1EE1" unicode="&#x1ee1;" horiz-adv-x="545" 
d="M239 -12q-92 0 -147 56t-55 161q0 69 20 129.5t56 104.5t85 69.5t108 25.5q42 0 77 -12h82l22 108h107l-19 -96q-9 -42 -27 -64.5t-62 -22.5h-10q32 -53 32 -130q0 -69 -20 -129t-56 -104.5t-85.5 -70t-107.5 -25.5zM246 88q45 0 76.5 33t43.5 96l18 88q2 7 3 15.5
t1 19.5q0 43 -22.5 68.5t-65.5 25.5q-45 0 -77 -32.5t-44 -95.5l-18 -88q-2 -8 -3 -16.5t-1 -19.5q0 -42 22.5 -68t66.5 -26zM381 606q-20 0 -34.5 7t-29.5 15q-17 10 -30.5 16t-27.5 6t-26 -6t-26 -18l-38 57q17 26 43 42.5t57 16.5q20 0 34 -6t30 -16t30 -16t28 -6t26 6
t26 18l38 -57q-17 -26 -43 -42.5t-57 -16.5z" />
    <glyph glyph-name="uni1ED1" unicode="&#x1ed1;" horiz-adv-x="545" 
d="M239 -12q-92 0 -147 56t-55 161q0 69 20 129.5t56 104.5t85 69.5t108 25.5q92 0 147 -56t55 -161q0 -69 -20 -129t-56 -104.5t-85.5 -70t-107.5 -25.5zM246 88q45 0 76.5 33t43.5 96l18 88q2 6 3 15t1 20q0 43 -22.5 68.5t-65.5 25.5q-45 0 -77 -32.5t-44 -95.5l-18 -88
q-2 -8 -3 -16.5t-1 -19.5q0 -42 22.5 -68t66.5 -26zM520 724l-68 36l104 184l96 -49zM409 770l104 -144l-62 -53l-97 107l-138 -107l-57 53l159 144h91z" />
    <glyph glyph-name="uni1ED9" unicode="&#x1ed9;" horiz-adv-x="545" 
d="M239 -12q-92 0 -147 56t-55 161q0 69 20 129.5t56 104.5t85 69.5t108 25.5q92 0 147 -56t55 -161q0 -69 -20 -129t-56 -104.5t-85.5 -70t-107.5 -25.5zM246 88q45 0 76.5 33t43.5 96l18 88q2 6 3 15t1 20q0 43 -22.5 68.5t-65.5 25.5q-45 0 -77 -32.5t-44 -95.5l-18 -88
q-2 -8 -3 -16.5t-1 -19.5q0 -42 22.5 -68t66.5 -26zM416 786l95 -154l-66 -50l-96 116l-136 -115l-61 49l151 154h113zM196 -193q-32 0 -47 13t-15 35q0 5 1 11.5t5 21.5q6 25 22.5 40t52.5 15q32 0 46.5 -13t14.5 -34q0 -5 -1 -11.5t-4 -22.5q-5 -25 -22.5 -40t-52.5 -15z
" />
    <glyph glyph-name="uni1ED3" unicode="&#x1ed3;" horiz-adv-x="545" 
d="M239 -12q-92 0 -147 56t-55 161q0 69 20 129.5t56 104.5t85 69.5t108 25.5q92 0 147 -56t55 -161q0 -69 -20 -129t-56 -104.5t-85.5 -70t-107.5 -25.5zM246 88q45 0 76.5 33t43.5 96l18 88q2 6 3 15t1 20q0 43 -22.5 68.5t-65.5 25.5q-45 0 -77 -32.5t-44 -95.5l-18 -88
q-2 -8 -3 -16.5t-1 -19.5q0 -42 22.5 -68t66.5 -26zM92 896l100 48l69 -186l-65 -33zM408 770l105 -144l-62 -53l-97 107l-138 -107l-57 53l158 144h91z" />
    <glyph glyph-name="uni1ED5" unicode="&#x1ed5;" horiz-adv-x="545" 
d="M239 -12q-92 0 -147 56t-55 161q0 69 20 129.5t56 104.5t85 69.5t108 25.5q92 0 147 -56t55 -161q0 -69 -20 -129t-56 -104.5t-85.5 -70t-107.5 -25.5zM246 88q45 0 76.5 33t43.5 96l18 88q2 6 3 15t1 20q0 43 -22.5 68.5t-65.5 25.5q-45 0 -77 -32.5t-44 -95.5l-18 -88
q-2 -8 -3 -16.5t-1 -19.5q0 -42 22.5 -68t66.5 -26zM423 931h127q38 0 55 -16t17 -38q0 -30 -15.5 -55t-38.5 -53l-48 -57l-60 31l58 100h-112zM408 770l105 -144l-62 -53l-97 107l-138 -107l-57 53l158 144h91z" />
    <glyph glyph-name="uni1ED7" unicode="&#x1ed7;" horiz-adv-x="545" 
d="M239 -12q-92 0 -147 56t-55 161q0 69 20 129.5t56 104.5t85 69.5t108 25.5q92 0 147 -56t55 -161q0 -69 -20 -129t-56 -104.5t-85.5 -70t-107.5 -25.5zM246 88q45 0 76.5 33t43.5 96l18 88q2 6 3 15t1 20q0 43 -22.5 68.5t-65.5 25.5q-45 0 -77 -32.5t-44 -95.5l-18 -88
q-2 -8 -3 -16.5t-1 -19.5q0 -42 22.5 -68t66.5 -26zM318 924q21 0 35.5 -6.5t31.5 -15.5q20 -11 35 -16.5t31 -5.5q15 0 28.5 6t30.5 19l32 -56q-21 -24 -50 -41.5t-64 -17.5q-20 0 -35 6.5t-31 15.5q-20 11 -35 16.5t-32 5.5q-14 0 -27.5 -6.5t-30.5 -19.5l-32 56
q21 25 49.5 42.5t63.5 17.5zM404 761l106 -133l-63 -54l-101 106l-133 -106l-58 54l157 133h92z" />
    <glyph glyph-name="oe" unicode="&#x153;" horiz-adv-x="850" 
d="M246 88q45 0 76.5 33t43.5 96l18 88q2 6 3 15t1 20q0 43 -22.5 68.5t-65.5 25.5q-45 0 -77 -32.5t-44 -95.5l-18 -88q-2 -7 -3 -16t-1 -20q0 -42 22.5 -68t66.5 -26zM644 440q-49 0 -84.5 -33t-46.5 -90l-5 -25q64 3 104.5 10.5t63 18.5t31 26t8.5 34q0 18 -6.5 29.5
t-17 18t-23 9t-24.5 2.5zM588 -12q-61 0 -103.5 22t-66.5 70h-6q-66 -92 -178 -92q-43 0 -79 14.5t-62.5 42t-41 68t-14.5 92.5q0 69 20 129.5t56 104.5t85.5 69.5t109.5 25.5q53 0 92.5 -21t62.5 -72h6q69 93 184 93q31 0 63 -7.5t58 -24.5t43 -43.5t17 -65.5
q0 -42 -19 -74.5t-60.5 -55.5t-105.5 -36t-154 -15q-2 -10 -2 -16.5v-13.5q0 -42 23.5 -68t79.5 -26q38 0 70 17t65 59l76 -62q-49 -63 -102.5 -88.5t-116.5 -25.5z" />
    <glyph glyph-name="racute" unicode="&#x155;" horiz-adv-x="385" 
d="M21 0l104 522h122l-24 -120h6q9 21 23 42t33.5 38.5t44 28.5t55.5 11h27l-25 -119h-35q-68 0 -104.5 -28.5t-48.5 -89.5l-57 -285h-121zM285 581l-73 39l115 185l99 -53z" />
    <glyph glyph-name="rcaron" unicode="&#x159;" horiz-adv-x="385" 
d="M21 0l104 522h122l-24 -120h6q9 21 23 42t33.5 38.5t44 28.5t55.5 11h27l-25 -119h-35q-68 0 -104.5 -28.5t-48.5 -89.5l-57 -285h-121zM212 591l-95 154l65 49l94 -115l138 115l63 -49l-150 -154h-115z" />
    <glyph glyph-name="rcommaaccent" unicode="&#x157;" horiz-adv-x="385" 
d="M21 0l104 522h122l-24 -120h6q9 21 23 42t33.5 38.5t44 28.5t55.5 11h27l-25 -119h-35q-68 0 -104.5 -28.5t-48.5 -89.5l-57 -285h-121zM68 -49q57 0 57 -47q0 -5 -0.5 -10t-2.5 -16q-9 -41 -34 -81t-54 -63h-76q28 22 44.5 43t28.5 49q-20 2 -27.5 13t-7.5 28
q0 4 0.5 9.5t2.5 16.5q13 58 69 58z" />
    <glyph glyph-name="sacute" unicode="&#x15b;" horiz-adv-x="489" 
d="M211 -12q-63 0 -117.5 23.5t-87.5 69.5l77 71q23 -31 54.5 -48t76.5 -17q49 0 73.5 20t24.5 49q0 19 -12 33t-45 19l-49 7q-65 10 -102 43t-37 96q0 36 12.5 68.5t38.5 57t65.5 39.5t92.5 15q122 0 188 -81l-78 -71q-19 24 -48.5 39t-67.5 15q-42 0 -63.5 -18t-21.5 -47
q0 -19 12 -33t44 -19l49 -7q66 -10 103 -43t37 -96q0 -38 -14.5 -72t-42.5 -59t-69 -39.5t-93 -14.5zM307 581l-73 39l115 185l99 -53z" />
    <glyph glyph-name="scaron" unicode="&#x161;" horiz-adv-x="489" 
d="M211 -12q-63 0 -117.5 23.5t-87.5 69.5l77 71q23 -31 54.5 -48t76.5 -17q49 0 73.5 20t24.5 49q0 19 -12 33t-45 19l-49 7q-65 10 -102 43t-37 96q0 36 12.5 68.5t38.5 57t65.5 39.5t92.5 15q122 0 188 -81l-78 -71q-19 24 -48.5 39t-67.5 15q-42 0 -63.5 -18t-21.5 -47
q0 -19 12 -33t44 -19l49 -7q66 -10 103 -43t37 -96q0 -38 -14.5 -72t-42.5 -59t-69 -39.5t-93 -14.5zM234 591l-95 154l65 49l94 -115l138 115l63 -49l-150 -154h-115z" />
    <glyph glyph-name="scedilla" unicode="&#x15f;" horiz-adv-x="489" 
d="M173 -210q-40 0 -68 13t-40 30l49 48q6 -9 21 -18t37 -9q21 0 35 8.5t14 24.5q0 13 -13.5 23t-49.5 14l-23 2l26 65q-48 8 -88.5 31t-66.5 59l77 71q23 -31 54.5 -48t76.5 -17q49 0 73.5 20t24.5 49q0 19 -12 33t-45 19l-49 7q-65 10 -102 43t-37 96q0 36 12.5 68.5
t38.5 57t65.5 39.5t92.5 15q122 0 188 -81l-78 -71q-19 24 -48.5 39t-67.5 15q-42 0 -63.5 -18t-21.5 -47q0 -19 12 -33t44 -19l49 -7q66 -10 103 -43t37 -96q0 -38 -14 -71t-41 -58t-66 -40t-89 -16l-16 -45l2 -4q19 6 39 6q26 0 43.5 -14t17.5 -42q0 -24 -10 -42.5
t-28 -31t-42.5 -19t-52.5 -6.5z" />
    <glyph glyph-name="scircumflex" unicode="&#x15d;" horiz-adv-x="489" 
d="M211 -12q-63 0 -117.5 23.5t-87.5 69.5l77 71q23 -31 54.5 -48t76.5 -17q49 0 73.5 20t24.5 49q0 19 -12 33t-45 19l-49 7q-65 10 -102 43t-37 96q0 36 12.5 68.5t38.5 57t65.5 39.5t92.5 15q122 0 188 -81l-78 -71q-19 24 -48.5 39t-67.5 15q-42 0 -63.5 -18t-21.5 -47
q0 -19 12 -33t44 -19l49 -7q66 -10 103 -43t37 -96q0 -38 -14.5 -72t-42.5 -59t-69 -39.5t-93 -14.5zM378 786l95 -154l-66 -50l-96 116l-136 -115l-61 49l151 154h113z" />
    <glyph glyph-name="scommaaccent" unicode="&#x219;" horiz-adv-x="489" 
d="M211 -12q-63 0 -117.5 23.5t-87.5 69.5l77 71q23 -31 54.5 -48t76.5 -17q49 0 73.5 20t24.5 49q0 19 -12 33t-45 19l-49 7q-65 10 -102 43t-37 96q0 36 12.5 68.5t38.5 57t65.5 39.5t92.5 15q122 0 188 -81l-78 -71q-19 24 -48.5 39t-67.5 15q-42 0 -63.5 -18t-21.5 -47
q0 -19 12 -33t44 -19l49 -7q66 -10 103 -43t37 -96q0 -38 -14.5 -72t-42.5 -59t-69 -39.5t-93 -14.5zM181 -49q57 0 57 -47q0 -5 -0.5 -10t-2.5 -16q-9 -41 -34 -81t-54 -63h-76q28 22 44.5 43t28.5 49q-20 2 -27.5 13t-7.5 28q0 4 0.5 9.5t2.5 16.5q13 58 69 58z" />
    <glyph glyph-name="germandbls" unicode="&#xdf;" horiz-adv-x="661" 
d="M616 179q0 -38 -14 -73t-40.5 -61t-64 -41.5t-84.5 -15.5q-62 0 -109 21t-73 61l78 70q20 -29 46.5 -42.5t59.5 -13.5q39 0 62.5 21t23.5 56q0 23 -12 35t-42 26l-40 18q-38 17 -63.5 44t-25.5 78q0 67 48 112.5t138 53.5l1 5q2 11 3 20t1 19q0 42 -25 62.5t-73 20.5
q-60 0 -95 -28.5t-49 -96.5l-105 -530h-122l84 423h-77l20 99h77l2 9q24 107 95 164t178 57q48 0 86.5 -12.5t65.5 -35t41.5 -54t14.5 -69.5q0 -29 -8 -69l-14 -70h-67q-106 0 -106 -58q0 -21 13.5 -35t39.5 -26l39 -18q42 -19 67 -46.5t25 -79.5z" />
    <glyph glyph-name="germandbls.alt01" horiz-adv-x="579" 
d="M21 0l120 601q12 62 52 100.5t114 38.5h121l-19 -98h-138l-24 -120h330l-20 -94l-182 -209q70 -14 104.5 -52t34.5 -109q0 -59 -20.5 -106.5t-58.5 -81.5t-91.5 -52t-119.5 -18h-72l19 99h51q67 0 104 23.5t51 79.5q9 33 9 57q0 40 -31 58t-89 18h-22l21 99l165 191h-202
l-85 -425h-122z" />
    <glyph glyph-name="tbar" unicode="&#x167;" horiz-adv-x="351" 
d="M263 0h-90q-108 0 -108 89q0 8 1 19t3 21l21 104h-61l16 83h61l22 107h-75l19 99h37q31 0 41.5 12.5t15.5 39.5l18 90h113l-28 -142h105l-20 -99h-105l-22 -107h91l-16 -83h-91l-27 -134h99z" />
    <glyph glyph-name="tcaron" unicode="&#x165;" horiz-adv-x="343" 
d="M170 0q-108 0 -108 89q0 8 1 19t3 21l59 294h-75l19 99h37q31 0 41.5 12.5t15.5 39.5l18 90h113l-28 -142h105l-20 -99h-105l-64 -324h98l-20 -99h-90zM415 574h-84l45 206h138z" />
    <glyph glyph-name="tcommaaccent" unicode="&#x163;" horiz-adv-x="343" 
d="M170 0q-108 0 -108 89q0 8 1 19t3 21l59 294h-75l19 99h37q31 0 41.5 12.5t15.5 39.5l18 90h113l-28 -142h105l-20 -99h-105l-64 -324h98l-20 -99h-90zM137 -49q57 0 57 -47q0 -5 -0.5 -10t-2.5 -16q-9 -41 -34 -81t-54 -63h-76q28 22 44.5 43t28.5 49q-20 2 -27.5 13
t-7.5 28q0 4 0.5 9.5t2.5 16.5q13 58 69 58z" />
    <glyph glyph-name="uni021B" unicode="&#x21b;" horiz-adv-x="343" 
d="M170 0q-108 0 -108 89q0 8 1 19t3 21l59 294h-75l19 99h37q31 0 41.5 12.5t15.5 39.5l18 90h113l-28 -142h105l-20 -99h-105l-64 -324h98l-20 -99h-90zM137 -49q57 0 57 -47q0 -5 -0.5 -10t-2.5 -16q-9 -41 -34 -81t-54 -63h-76q28 22 44.5 43t28.5 49q-20 2 -27.5 13
t-7.5 28q0 4 0.5 9.5t2.5 16.5q13 58 69 58z" />
    <glyph glyph-name="thorn" unicode="&#xfe;" horiz-adv-x="580" 
d="M169 740h121l-67 -336h5q32 64 71 97t99 33q36 0 63.5 -13.5t45.5 -38t27 -59t9 -75.5q0 -76 -18 -141.5t-51 -114t-78 -76.5t-99 -28q-53 0 -89 28t-43 73h-5l-58 -289h-121zM270 90q103 0 129 128l14 72q2 11 4 27t2 28q0 40 -19.5 64t-55.5 24q-30 0 -53.5 -14.5
t-40.5 -34.5q-19 -22 -32.5 -50t-20.5 -60l-17 -88q-9 -42 15 -69t75 -27z" />
    <glyph glyph-name="uacute" unicode="&#xfa;" horiz-adv-x="576" 
d="M241 522l-62 -314q-3 -14 -5 -28t-2 -25q0 -30 13.5 -47t43.5 -17q26 0 47.5 12.5t39.5 33.5q20 23 34 52t20 59l55 274h122l-85 -423h63l-20 -99h-86q-36 0 -58.5 19t-22.5 54q0 8 1 16t2 14l3 13h-6q-29 -61 -68 -94.5t-97 -33.5q-62 0 -94 36t-32 102q0 18 2 35.5
t6 37.5l65 323h121zM360 581l-73 39l115 185l99 -53z" />
    <glyph glyph-name="ubreve" unicode="&#x16d;" horiz-adv-x="576" 
d="M241 522l-62 -314q-3 -14 -5 -28t-2 -25q0 -30 13.5 -47t43.5 -17q26 0 47.5 12.5t39.5 33.5q20 23 34 52t20 59l55 274h122l-85 -423h63l-20 -99h-86q-36 0 -58.5 19t-22.5 54q0 8 1 16t2 14l3 13h-6q-29 -61 -68 -94.5t-97 -33.5q-62 0 -94 36t-32 102q0 18 2 35.5
t6 37.5l65 323h121zM346 584q-41 0 -68.5 14.5t-45.5 37.5t-28.5 51.5t-15.5 56.5l70 35l15 -34q16 -34 32 -52.5t47 -18.5q27 0 48.5 17.5t50.5 55.5l25 32l73 -38q-16 -29 -35 -57t-43 -50t-55 -36t-70 -14z" />
    <glyph glyph-name="ucircumflex" unicode="&#xfb;" horiz-adv-x="576" 
d="M241 522l-62 -314q-3 -14 -5 -28t-2 -25q0 -30 13.5 -47t43.5 -17q26 0 47.5 12.5t39.5 33.5q20 23 34 52t20 59l55 274h122l-85 -423h63l-20 -99h-86q-36 0 -58.5 19t-22.5 54q0 8 1 16t2 14l3 13h-6q-29 -61 -68 -94.5t-97 -33.5q-62 0 -94 36t-32 102q0 18 2 35.5
t6 37.5l65 323h121zM431 786l95 -154l-66 -50l-96 116l-136 -115l-61 49l151 154h113z" />
    <glyph glyph-name="udieresis" unicode="&#xfc;" horiz-adv-x="576" 
d="M241 522l-62 -314q-3 -14 -5 -28t-2 -25q0 -30 13.5 -47t43.5 -17q26 0 47.5 12.5t39.5 33.5q20 23 34 52t20 59l55 274h122l-85 -423h63l-20 -99h-86q-36 0 -58.5 19t-22.5 54q0 8 1 16t2 14l3 13h-6q-29 -61 -68 -94.5t-97 -33.5q-62 0 -94 36t-32 102q0 18 2 35.5
t6 37.5l65 323h121zM251 605q-31 0 -44.5 12.5t-13.5 31.5q0 5 1 13t4 22q5 25 22.5 41.5t54.5 16.5q30 0 43.5 -12t13.5 -32q0 -5 -1 -12.5t-4 -21.5q-5 -25 -22.5 -42t-53.5 -17zM445 605q-31 0 -44.5 12.5t-13.5 31.5q0 5 1.5 13t3.5 22q4 25 22 41.5t55 16.5
q30 0 44 -12t14 -32q0 -5 -1.5 -12.5t-3.5 -21.5q-4 -25 -22 -42t-55 -17z" />
    <glyph glyph-name="uni1EE5" unicode="&#x1ee5;" horiz-adv-x="576" 
d="M241 522l-62 -314q-3 -14 -5 -28t-2 -25q0 -30 13.5 -47t43.5 -17q26 0 47.5 12.5t39.5 33.5q20 23 34 52t20 59l55 274h122l-85 -423h63l-20 -99h-86q-36 0 -58.5 19t-22.5 54q0 8 1 16t2 14l3 13h-6q-29 -61 -68 -94.5t-97 -33.5q-62 0 -94 36t-32 102q0 18 2 35.5
t6 37.5l65 323h121zM218 -193q-32 0 -47 13t-15 35q0 5 1 11.5t5 21.5q6 25 22.5 40t52.5 15q32 0 46.5 -13t14.5 -34q0 -5 -1 -11.5t-4 -22.5q-5 -25 -22.5 -40t-52.5 -15z" />
    <glyph glyph-name="ugrave" unicode="&#xf9;" horiz-adv-x="576" 
d="M241 522l-62 -314q-3 -14 -5 -28t-2 -25q0 -30 13.5 -47t43.5 -17q26 0 47.5 12.5t39.5 33.5q20 23 34 52t20 59l55 274h122l-85 -423h63l-20 -99h-86q-36 0 -58.5 19t-22.5 54q0 8 1 16t2 14l3 13h-6q-29 -61 -68 -94.5t-97 -33.5q-62 0 -94 36t-32 102q0 18 2 35.5
t6 37.5l65 323h121zM224 753l109 51l66 -189l-76 -34z" />
    <glyph glyph-name="uni1EE7" unicode="&#x1ee7;" horiz-adv-x="576" 
d="M241 522l-62 -314q-3 -14 -5 -28t-2 -25q0 -30 13.5 -47t43.5 -17q26 0 47.5 12.5t39.5 33.5q20 23 34 52t20 59l55 274h122l-85 -423h63l-20 -99h-86q-36 0 -58.5 19t-22.5 54q0 8 1 16t2 14l3 13h-6q-29 -61 -68 -94.5t-97 -33.5q-62 0 -94 36t-32 102q0 18 2 35.5
t6 37.5l65 323h121zM274 791h134q38 0 55.5 -16t17.5 -38q0 -30 -15.5 -55t-38.5 -54l-48 -55l-60 30l55 98h-117z" />
    <glyph glyph-name="uhungarumlaut" unicode="&#x171;" horiz-adv-x="576" 
d="M241 522l-62 -314q-3 -14 -5 -28t-2 -25q0 -30 13.5 -47t43.5 -17q26 0 47.5 12.5t39.5 33.5q20 23 34 52t20 59l55 274h122l-85 -423h63l-20 -99h-86q-36 0 -58.5 19t-22.5 54q0 8 1 16t2 14l3 13h-6q-29 -61 -68 -94.5t-97 -33.5q-62 0 -94 36t-32 102q0 18 2 35.5
t6 37.5l65 323h121zM266 582l-68 33l111 187l93 -50zM450 582l-67 33l111 187l92 -50z" />
    <glyph glyph-name="umacron" unicode="&#x16b;" horiz-adv-x="576" 
d="M241 522l-62 -314q-3 -14 -5 -28t-2 -25q0 -30 13.5 -47t43.5 -17q26 0 47.5 12.5t39.5 33.5q20 23 34 52t20 59l55 274h122l-85 -423h63l-20 -99h-86q-36 0 -58.5 19t-22.5 54q0 8 1 16t2 14l3 13h-6q-29 -61 -68 -94.5t-97 -33.5q-62 0 -94 36t-32 102q0 18 2 35.5
t6 37.5l65 323h121zM231 720h277l-19 -91h-276z" />
    <glyph glyph-name="uogonek" unicode="&#x173;" horiz-adv-x="576" 
d="M241 522l-62 -314q-3 -14 -5 -28t-2 -25q0 -30 13.5 -47t43.5 -17q26 0 47.5 12.5t39.5 33.5q20 23 34 52t20 59l55 274h122l-85 -423h63l-20 -99q-41 -25 -64.5 -43t-35.5 -31.5t-15 -23t-3 -16.5q0 -14 8 -22t26 -8q15 0 29 6t25 21l48 -48q-17 -20 -45 -32.5
t-72 -12.5q-46 0 -79 19.5t-33 60.5q0 39 31.5 71.5t100.5 53.5l-1 5q-40 0 -63.5 19t-23.5 52q0 8 0.5 16.5t2.5 14.5l3 14h-6q-29 -61 -68 -94.5t-97 -33.5q-62 0 -94 36t-32 102q0 18 2 35.5t6 37.5l65 323h121z" />
    <glyph glyph-name="uring" unicode="&#x16f;" horiz-adv-x="576" 
d="M241 522l-62 -314q-3 -14 -5 -28t-2 -25q0 -30 13.5 -47t43.5 -17q26 0 47.5 12.5t39.5 33.5q20 23 34 52t20 59l55 274h122l-85 -423h63l-20 -99h-86q-36 0 -58.5 19t-22.5 54q0 8 1 16t2 14l3 13h-6q-29 -61 -68 -94.5t-97 -33.5q-62 0 -94 36t-32 102q0 18 2 35.5
t6 37.5l65 323h121zM342 563q-53 0 -86.5 33t-33.5 82q0 35 12 63.5t33 49t49.5 31.5t60.5 11q52 0 85.5 -32.5t33.5 -83.5q0 -35 -12 -63.5t-33 -48.5t-49 -31t-60 -11zM348 629q24 0 39 14.5t20 38.5q4 17 5.5 26.5t1.5 17.5q0 40 -43 40q-25 0 -40 -14.5t-20 -37.5
q-7 -31 -7 -44q0 -41 44 -41z" />
    <glyph glyph-name="utilde" unicode="&#x169;" horiz-adv-x="576" 
d="M241 522l-62 -314q-3 -14 -5 -28t-2 -25q0 -30 13.5 -47t43.5 -17q26 0 47.5 12.5t39.5 33.5q20 23 34 52t20 59l55 274h122l-85 -423h63l-20 -99h-86q-36 0 -58.5 19t-22.5 54q0 8 1 16t2 14l3 13h-6q-29 -61 -68 -94.5t-97 -33.5q-62 0 -94 36t-32 102q0 18 2 35.5
t6 37.5l65 323h121zM426 605q-23 0 -40 6.5t-35 15.5q-20 11 -36.5 16.5t-33.5 5.5t-29 -6t-29 -19l-39 59q21 26 48 43t62 17q23 0 40 -6.5t35 -15.5q20 -11 36.5 -16.5t33.5 -5.5t29 6t29 19l39 -59q-21 -26 -48 -43t-62 -17z" />
    <glyph glyph-name="uhorn" unicode="&#x1b0;" horiz-adv-x="579" 
d="M419 0q-36 0 -58.5 19t-22.5 54q0 8 0.5 16t2.5 13l3 14h-6q-29 -61 -67.5 -94.5t-98.5 -33.5q-61 0 -93 36t-32 102q0 18 2 35.5t6 37.5l65 323h121l-62 -314q-3 -14 -5 -28t-2 -25q0 -30 14 -47t44 -17q26 0 47 12.5t39 33.5q20 23 34 52t20 59l55 274h95l21 108h108
l-20 -100q-8 -41 -27 -63t-63 -22h-8l-69 -346h63l-20 -99h-86z" />
    <glyph glyph-name="uni1EE9" unicode="&#x1ee9;" horiz-adv-x="579" 
d="M419 0q-36 0 -58.5 19t-22.5 54q0 8 0.5 16t2.5 13l3 14h-6q-29 -61 -67.5 -94.5t-98.5 -33.5q-61 0 -93 36t-32 102q0 18 2 35.5t6 37.5l65 323h121l-62 -314q-3 -14 -5 -28t-2 -25q0 -30 14 -47t44 -17q26 0 47 12.5t39 33.5q20 23 34 52t20 59l55 274h95l21 108h108
l-20 -100q-8 -41 -27 -63t-63 -22h-8l-69 -346h63l-20 -99h-86zM359 581l-73 39l115 185l99 -53z" />
    <glyph glyph-name="uni1EF1" unicode="&#x1ef1;" horiz-adv-x="579" 
d="M419 0q-36 0 -58.5 19t-22.5 54q0 8 0.5 16t2.5 13l3 14h-6q-29 -61 -67.5 -94.5t-98.5 -33.5q-61 0 -93 36t-32 102q0 18 2 35.5t6 37.5l65 323h121l-62 -314q-3 -14 -5 -28t-2 -25q0 -30 14 -47t44 -17q26 0 47 12.5t39 33.5q20 23 34 52t20 59l55 274h95l21 108h108
l-20 -100q-8 -41 -27 -63t-63 -22h-8l-69 -346h63l-20 -99h-86zM211 -193q-32 0 -47 13t-15 35q0 5 1 11.5t5 21.5q6 25 22.5 40t52.5 15q32 0 46.5 -13t14.5 -34q0 -5 -1 -11.5t-4 -22.5q-5 -25 -22.5 -40t-52.5 -15z" />
    <glyph glyph-name="uni1EEB" unicode="&#x1eeb;" horiz-adv-x="579" 
d="M419 0q-36 0 -58.5 19t-22.5 54q0 8 0.5 16t2.5 13l3 14h-6q-29 -61 -67.5 -94.5t-98.5 -33.5q-61 0 -93 36t-32 102q0 18 2 35.5t6 37.5l65 323h121l-62 -314q-3 -14 -5 -28t-2 -25q0 -30 14 -47t44 -17q26 0 47 12.5t39 33.5q20 23 34 52t20 59l55 274h95l21 108h108
l-20 -100q-8 -41 -27 -63t-63 -22h-8l-69 -346h63l-20 -99h-86zM223 753l109 51l66 -189l-76 -34z" />
    <glyph glyph-name="uni1EED" unicode="&#x1eed;" horiz-adv-x="579" 
d="M419 0q-36 0 -58.5 19t-22.5 54q0 8 0.5 16t2.5 13l3 14h-6q-29 -61 -67.5 -94.5t-98.5 -33.5q-61 0 -93 36t-32 102q0 18 2 35.5t6 37.5l65 323h121l-62 -314q-3 -14 -5 -28t-2 -25q0 -30 14 -47t44 -17q26 0 47 12.5t39 33.5q20 23 34 52t20 59l55 274h95l21 108h108
l-20 -100q-8 -41 -27 -63t-63 -22h-8l-69 -346h63l-20 -99h-86zM273 791h134q38 0 55.5 -16t17.5 -38q0 -30 -15.5 -55t-38.5 -54l-48 -55l-60 30l55 98h-117z" />
    <glyph glyph-name="uni1EEF" unicode="&#x1eef;" horiz-adv-x="579" 
d="M419 0q-36 0 -58.5 19t-22.5 54q0 8 0.5 16t2.5 13l3 14h-6q-29 -61 -67.5 -94.5t-98.5 -33.5q-61 0 -93 36t-32 102q0 18 2 35.5t6 37.5l65 323h121l-62 -314q-3 -14 -5 -28t-2 -25q0 -30 14 -47t44 -17q26 0 47 12.5t39 33.5q20 23 34 52t20 59l55 274h95l21 108h108
l-20 -100q-8 -41 -27 -63t-63 -22h-8l-69 -346h63l-20 -99h-86zM399 606q-20 0 -34.5 7t-29.5 15q-17 10 -30.5 16t-27.5 6t-26 -6t-26 -18l-38 57q17 26 43 42.5t57 16.5q20 0 34 -6t30 -16t30 -16t28 -6t26 6t26 18l38 -57q-17 -26 -43 -42.5t-57 -16.5z" />
    <glyph glyph-name="wacute" unicode="&#x1e83;" horiz-adv-x="776" 
d="M61 522h120l7 -208l4 -182h6l69 158l107 232h114l16 -210l11 -183h6l66 163l98 230h120l-239 -522h-131l-18 206l-12 161h-5l-65 -145l-104 -222h-134zM460 581l-73 39l115 185l99 -53z" />
    <glyph glyph-name="wcircumflex" unicode="&#x175;" horiz-adv-x="776" 
d="M61 522h120l7 -208l4 -182h6l69 158l107 232h114l16 -210l11 -183h6l66 163l98 230h120l-239 -522h-131l-18 206l-12 161h-5l-65 -145l-104 -222h-134zM531 786l95 -154l-66 -50l-96 116l-136 -115l-61 49l151 154h113z" />
    <glyph glyph-name="wdieresis" unicode="&#x1e85;" horiz-adv-x="776" 
d="M61 522h120l7 -208l4 -182h6l69 158l107 232h114l16 -210l11 -183h6l66 163l98 230h120l-239 -522h-131l-18 206l-12 161h-5l-65 -145l-104 -222h-134zM351 605q-31 0 -44.5 12.5t-13.5 31.5q0 5 1 13t4 22q5 25 22.5 41.5t54.5 16.5q30 0 43.5 -12t13.5 -32
q0 -5 -1 -12.5t-4 -21.5q-5 -25 -22.5 -42t-53.5 -17zM545 605q-31 0 -44.5 12.5t-13.5 31.5q0 5 1.5 13t3.5 22q4 25 22 41.5t55 16.5q30 0 44 -12t14 -32q0 -5 -1.5 -12.5t-3.5 -21.5q-4 -25 -22 -42t-55 -17z" />
    <glyph glyph-name="wgrave" unicode="&#x1e81;" horiz-adv-x="776" 
d="M61 522h120l7 -208l4 -182h6l69 158l107 232h114l16 -210l11 -183h6l66 163l98 230h120l-239 -522h-131l-18 206l-12 161h-5l-65 -145l-104 -222h-134zM324 753l109 51l66 -189l-76 -34z" />
    <glyph glyph-name="yacute" unicode="&#xfd;" horiz-adv-x="502" 
d="M417 522h129l-330 -616q-14 -27 -29.5 -47t-34.5 -33t-43.5 -19.5t-56.5 -6.5h-78l19 99h96l39 75l-76 548h120l25 -214l18 -194h5l90 194zM317 581l-73 39l115 185l99 -53z" />
    <glyph glyph-name="ycircumflex" unicode="&#x177;" horiz-adv-x="502" 
d="M417 522h129l-330 -616q-14 -27 -29.5 -47t-34.5 -33t-43.5 -19.5t-56.5 -6.5h-78l19 99h96l39 75l-76 548h120l25 -214l18 -194h5l90 194zM388 786l95 -154l-66 -50l-96 116l-136 -115l-61 49l151 154h113z" />
    <glyph glyph-name="ydieresis" unicode="&#xff;" horiz-adv-x="502" 
d="M417 522h129l-330 -616q-14 -27 -29.5 -47t-34.5 -33t-43.5 -19.5t-56.5 -6.5h-78l19 99h96l39 75l-76 548h120l25 -214l18 -194h5l90 194zM208 605q-31 0 -44.5 12.5t-13.5 31.5q0 5 1 13t4 22q5 25 22.5 41.5t54.5 16.5q30 0 43.5 -12t13.5 -32q0 -5 -1 -12.5t-4 -21.5
q-5 -25 -22.5 -42t-53.5 -17zM402 605q-31 0 -44.5 12.5t-13.5 31.5q0 5 1.5 13t3.5 22q4 25 22 41.5t55 16.5q30 0 44 -12t14 -32q0 -5 -1.5 -12.5t-3.5 -21.5q-4 -25 -22 -42t-55 -17z" />
    <glyph glyph-name="uni1EF5" unicode="&#x1ef5;" horiz-adv-x="502" 
d="M417 522h129l-330 -616q-14 -27 -29.5 -47t-34.5 -33t-43.5 -19.5t-56.5 -6.5h-78l19 99h96l39 75l-76 548h120l25 -214l18 -194h5l90 194zM300 -193q-32 0 -47 13t-15 35q0 5 1 11.5t5 21.5q6 25 22.5 40t52.5 15q32 0 46.5 -13t14.5 -34q0 -5 -1 -11.5t-4 -22.5
q-5 -25 -22.5 -40t-52.5 -15z" />
    <glyph glyph-name="ygrave" unicode="&#x1ef3;" horiz-adv-x="502" 
d="M417 522h129l-330 -616q-14 -27 -29.5 -47t-34.5 -33t-43.5 -19.5t-56.5 -6.5h-78l19 99h96l39 75l-76 548h120l25 -214l18 -194h5l90 194zM181 753l109 51l66 -189l-76 -34z" />
    <glyph glyph-name="uni1EF7" unicode="&#x1ef7;" horiz-adv-x="502" 
d="M417 522h129l-330 -616q-14 -27 -29.5 -47t-34.5 -33t-43.5 -19.5t-56.5 -6.5h-78l19 99h96l39 75l-76 548h120l25 -214l18 -194h5l90 194zM230 791h134q38 0 55.5 -16t17.5 -38q0 -30 -15.5 -55t-38.5 -54l-48 -55l-60 30l55 98h-117z" />
    <glyph glyph-name="uni1EF9" unicode="&#x1ef9;" horiz-adv-x="502" 
d="M417 522h129l-330 -616q-14 -27 -29.5 -47t-34.5 -33t-43.5 -19.5t-56.5 -6.5h-78l19 99h96l39 75l-76 548h120l25 -214l18 -194h5l90 194zM383 605q-23 0 -40 6.5t-35 15.5q-20 11 -36.5 16.5t-33.5 5.5t-29 -6t-29 -19l-39 59q21 26 48 43t62 17q23 0 40 -6.5t35 -15.5
q20 -11 36.5 -16.5t33.5 -5.5t29 6t29 19l39 -59q-21 -26 -48 -43t-62 -17z" />
    <glyph glyph-name="zacute" unicode="&#x17a;" horiz-adv-x="479" 
d="M-9 0l19 99l315 324h-247l19 99h395l-20 -98l-317 -325h265l-20 -99h-409zM320 581l-73 39l115 185l99 -53z" />
    <glyph glyph-name="zcaron" unicode="&#x17e;" horiz-adv-x="479" 
d="M-9 0l19 99l315 324h-247l19 99h395l-20 -98l-317 -325h265l-20 -99h-409zM247 591l-95 154l65 49l94 -115l138 115l63 -49l-150 -154h-115z" />
    <glyph glyph-name="zdotaccent" unicode="&#x17c;" horiz-adv-x="479" 
d="M-9 0l19 99l315 324h-247l19 99h395l-20 -98l-317 -325h265l-20 -99h-409zM309 598q-36 0 -51 14.5t-15 37.5q0 5 1 12t5 24q6 28 23.5 45t58.5 17q36 0 51 -14.5t15 -37.5q0 -5 -1 -12t-5 -24q-6 -28 -23.5 -45t-58.5 -17z" />
    <glyph glyph-name="Aacute" unicode="&#xc1;" horiz-adv-x="648" 
d="M448 0l-19 180h-237l-89 -180h-135l363 698h162l83 -698h-128zM392 583h-7l-142 -296h177zM433 744l-73 40l114 184l99 -52z" />
    <glyph glyph-name="Abreve" unicode="&#x102;" horiz-adv-x="648" 
d="M448 0l-19 180h-237l-89 -180h-135l363 698h162l83 -698h-128zM392 583h-7l-142 -296h177zM421 747q-41 0 -69 14.5t-46 37.5t-28.5 51.5t-15.5 56.5l70 35l16 -35q15 -33 31.5 -52t46.5 -19q27 0 49.5 17.5t49.5 55.5l25 33l73 -38q-16 -29 -34.5 -57t-42.5 -50t-55 -36
t-70 -14z" />
    <glyph glyph-name="Acircumflex" unicode="&#xc2;" horiz-adv-x="648" 
d="M448 0l-19 180h-237l-89 -180h-135l363 698h162l83 -698h-128zM392 583h-7l-142 -296h177zM505 949l95 -154l-66 -49l-96 115l-136 -116l-61 50l151 154h113z" />
    <glyph glyph-name="Adieresis" unicode="&#xc4;" horiz-adv-x="648" 
d="M448 0l-19 180h-237l-89 -180h-135l363 698h162l83 -698h-128zM392 583h-7l-142 -296h177zM324 768q-31 0 -44.5 12.5t-13.5 32.5q0 5 1 12.5t4 23.5q5 24 22.5 40.5t54.5 16.5q29 0 43 -12t14 -32q0 -5 -1 -13t-4 -22q-5 -25 -22.5 -42t-53.5 -17zM518 768
q-30 0 -44 12.5t-14 32.5q0 5 1 12.5t4 23.5q5 24 22.5 40.5t54.5 16.5q30 0 44 -12t14 -32q0 -5 -1 -13t-4 -22q-5 -25 -22.5 -42t-54.5 -17z" />
    <glyph glyph-name="uni1EA0" unicode="&#x1ea0;" horiz-adv-x="648" 
d="M448 0l-19 180h-237l-89 -180h-135l363 698h162l83 -698h-128zM392 583h-7l-142 -296h177zM243 -193q-32 0 -47 13t-15 35q0 5 1 11.5t5 21.5q6 25 22.5 40t52.5 15q32 0 46.5 -13t14.5 -34q0 -5 -1 -11.5t-4 -22.5q-5 -25 -22.5 -40t-52.5 -15z" />
    <glyph glyph-name="Agrave" unicode="&#xc0;" horiz-adv-x="648" 
d="M448 0l-19 180h-237l-89 -180h-135l363 698h162l83 -698h-128zM392 583h-7l-142 -296h177zM300 917l108 51l67 -190l-76 -33z" />
    <glyph glyph-name="uni1EA2" unicode="&#x1ea2;" horiz-adv-x="648" 
d="M448 0l-19 180h-237l-89 -180h-135l363 698h162l83 -698h-128zM392 583h-7l-142 -296h177zM350 954h135q38 0 55.5 -16t17.5 -38q0 -30 -15.5 -55t-38.5 -54l-48 -55l-60 31l54 97h-116z" />
    <glyph glyph-name="Amacron" unicode="&#x100;" horiz-adv-x="648" 
d="M448 0l-19 180h-237l-89 -180h-135l363 698h162l83 -698h-128zM392 583h-7l-142 -296h177zM304 884h276l-18 -91h-276z" />
    <glyph glyph-name="Aogonek" unicode="&#x104;" horiz-adv-x="648" 
d="M331 698h162l83 -698q-41 -25 -64.5 -43t-35.5 -31.5t-15 -23t-3 -16.5q0 -14 8 -22t26 -8q15 0 29 6t25 21l48 -48q-17 -20 -45 -32.5t-72 -12.5q-46 0 -79 19.5t-33 60.5q0 39 32.5 71.5t101.5 53.5l-1 5h-50l-19 180h-237l-89 -180h-135zM392 583h-7l-142 -296h177z
" />
    <glyph glyph-name="Aring" unicode="&#xc5;" horiz-adv-x="648" 
d="M448 0l-19 180h-237l-89 -180h-135l363 698h162l83 -698h-128zM392 583h-7l-142 -296h177zM415 727q-53 0 -86.5 32.5t-33.5 82.5q0 35 12 63.5t33 48.5t49.5 31t60.5 11q53 0 86.5 -32.5t33.5 -82.5q0 -35 -12 -63.5t-33 -48.5t-49.5 -31t-60.5 -11zM421 793q25 0 40 14
t20 39q3 14 5 24.5t2 18.5q0 41 -44 41q-25 0 -40 -14t-20 -39q-6 -29 -6 -43q0 -41 43 -41z" />
    <glyph glyph-name="Aringacute" unicode="&#x1fa;" horiz-adv-x="648" 
d="M448 0l-19 180h-237l-89 -180h-135l363 698h162l83 -698h-128zM392 583h-7l-142 -296h177zM461 978l-43 48l129 116l59 -66zM417 728q-53 0 -86.5 27t-33.5 74q0 32 12.5 57t33.5 42.5t49.5 27t61.5 9.5q53 0 86.5 -27.5t33.5 -73.5q0 -32 -12.5 -57t-33.5 -42.5
t-49.5 -27t-61.5 -9.5zM426 791q26 0 40 12t20 36q4 16 4 26q0 37 -45 37q-26 0 -40 -12t-20 -36q-4 -16 -4 -26q0 -37 45 -37z" />
    <glyph glyph-name="Atilde" unicode="&#xc3;" horiz-adv-x="648" 
d="M448 0l-19 180h-237l-89 -180h-135l363 698h162l83 -698h-128zM392 583h-7l-142 -296h177zM500 767q-23 0 -41 7t-35 16q-20 11 -36.5 17t-33.5 6t-29 -6.5t-29 -19.5l-39 60q21 26 48.5 43t62.5 17q23 0 40.5 -7t35.5 -16q20 -11 36.5 -17t33.5 -6t29 6.5t29 19.5
l39 -60q-21 -26 -48.5 -43t-62.5 -17z" />
    <glyph glyph-name="uni1EAE" unicode="&#x1eae;" horiz-adv-x="648" 
d="M448 0l-19 180h-237l-89 -180h-135l363 698h162l83 -698h-128zM392 583h-7l-142 -296h177zM422 739q-43 0 -72.5 13t-49 33.5t-30.5 46.5t-16 52l68 38l13 -27q19 -38 38 -53.5t53 -15.5q29 0 53.5 14.5t58.5 54.5l23 27l65 -38q-17 -29 -36 -55t-43 -46t-54.5 -32
t-70.5 -12zM453 886l-66 35l105 187l95 -51z" />
    <glyph glyph-name="uni1EB6" unicode="&#x1eb6;" horiz-adv-x="648" 
d="M448 0l-19 180h-237l-89 -180h-135l363 698h162l83 -698h-128zM392 583h-7l-142 -296h177zM421 747q-41 0 -69 14.5t-46 37.5t-28.5 51.5t-15.5 56.5l70 35l16 -35q15 -33 31.5 -52t46.5 -19q27 0 49.5 17.5t49.5 55.5l25 33l73 -38q-16 -29 -34.5 -57t-42.5 -50t-55 -36
t-70 -14zM243 -193q-32 0 -47 13t-15 35q0 5 1 11.5t5 21.5q6 25 22.5 40t52.5 15q32 0 46.5 -13t14.5 -34q0 -5 -1 -11.5t-4 -22.5q-5 -25 -22.5 -40t-52.5 -15z" />
    <glyph glyph-name="uni1EB0" unicode="&#x1eb0;" horiz-adv-x="648" 
d="M448 0l-19 180h-237l-89 -180h-135l363 698h162l83 -698h-128zM392 583h-7l-142 -296h177zM422 739q-43 0 -72.5 13t-49 33.5t-30.5 46.5t-16 52l68 38l13 -27q19 -38 38 -53.5t53 -15.5q29 0 53.5 14.5t58.5 54.5l23 27l65 -38q-17 -29 -36 -55t-43 -46t-54.5 -32
t-70.5 -12zM326 1059l105 48l60 -187l-72 -33z" />
    <glyph glyph-name="uni1EB2" unicode="&#x1eb2;" horiz-adv-x="648" 
d="M448 0l-19 180h-237l-89 -180h-135l363 698h162l83 -698h-128zM392 583h-7l-142 -296h177zM354 1094h126q38 0 55.5 -15.5t17.5 -38.5q0 -30 -15.5 -55t-38.5 -53l-48 -56l-60 31l57 100h-110zM422 739q-43 0 -72.5 13t-49 33.5t-30.5 46.5t-16 52l68 38l13 -27
q19 -38 38 -53.5t53 -15.5q29 0 53.5 14.5t58.5 54.5l23 27l65 -38q-17 -29 -36 -55t-43 -46t-54.5 -32t-70.5 -12z" />
    <glyph glyph-name="uni1EB4" unicode="&#x1eb4;" horiz-adv-x="648" 
d="M448 0l-19 180h-237l-89 -180h-135l363 698h162l83 -698h-128zM392 583h-7l-142 -296h177zM508 946q-22 0 -37.5 6t-32.5 15q-20 11 -34.5 17t-31.5 6q-16 0 -30 -6.5t-32 -19.5l-32 57q20 25 48.5 42t65.5 17q22 0 37.5 -6t32.5 -15q20 -11 34.5 -17t31.5 -6
q16 0 30 6.5t32 19.5l32 -57q-20 -25 -48.5 -42t-65.5 -17zM422 739q-43 0 -72.5 13t-49 33.5t-30.5 46.5t-16 52l68 38l13 -27q19 -38 38 -53.5t53 -15.5q29 0 53.5 14.5t58.5 54.5l23 27l65 -38q-17 -29 -36 -55t-43 -46t-54.5 -32t-70.5 -12z" />
    <glyph glyph-name="uni1EA4" unicode="&#x1ea4;" horiz-adv-x="648" 
d="M448 0l-19 180h-237l-89 -180h-135l363 698h162l83 -698h-128zM392 583h-7l-142 -296h177zM606 887l-68 36l104 184l96 -49zM493 933l105 -142l-62 -54l-101 107l-134 -107l-58 54l159 142h91z" />
    <glyph glyph-name="uni1EAC" unicode="&#x1eac;" horiz-adv-x="648" 
d="M448 0l-19 180h-237l-89 -180h-135l363 698h162l83 -698h-128zM392 583h-7l-142 -296h177zM505 949l95 -154l-66 -49l-96 115l-136 -116l-61 50l151 154h113zM243 -193q-32 0 -47 13t-15 35q0 5 1 11.5t5 21.5q6 25 22.5 40t52.5 15q32 0 46.5 -13t14.5 -34
q0 -5 -1 -11.5t-4 -22.5q-5 -25 -22.5 -40t-52.5 -15z" />
    <glyph glyph-name="uni1EA6" unicode="&#x1ea6;" horiz-adv-x="648" 
d="M448 0l-19 180h-237l-89 -180h-135l363 698h162l83 -698h-128zM392 583h-7l-142 -296h177zM173 1059l100 48l69 -187l-65 -33zM492 933l105 -142l-62 -54l-101 107l-134 -107l-58 54l159 142h91z" />
    <glyph glyph-name="uni1EA8" unicode="&#x1ea8;" horiz-adv-x="648" 
d="M448 0l-19 180h-237l-89 -180h-135l363 698h162l83 -698h-128zM392 583h-7l-142 -296h177zM507 1094h127q38 0 54.5 -15.5t16.5 -38.5q0 -30 -15 -55t-38 -53l-48 -56l-61 31l58 100h-111zM492 933l105 -142l-62 -54l-101 107l-134 -107l-58 54l159 142h91z" />
    <glyph glyph-name="uni1EAA" unicode="&#x1eaa;" horiz-adv-x="648" 
d="M448 0l-19 180h-237l-89 -180h-135l363 698h162l83 -698h-128zM392 583h-7l-142 -296h177zM407 1087q21 0 35.5 -6.5t31.5 -15.5q20 -11 35 -16.5t32 -5.5q14 0 27.5 6.5t30.5 19.5l32 -56q-21 -25 -49.5 -42.5t-63.5 -17.5q-21 0 -35.5 6.5t-31.5 15.5q-20 11 -35 16.5
t-32 5.5q-14 0 -27.5 -6.5t-30.5 -19.5l-32 56q21 25 49.5 42.5t63.5 17.5zM491 924l106 -133l-63 -54l-101 107l-133 -107l-58 54l157 133h92z" />
    <glyph glyph-name="AE" unicode="&#xc6;" horiz-adv-x="910" 
d="M399 179h-202l-112 -179h-137l455 698h538l-23 -112h-311l-36 -179h276l-22 -112h-276l-37 -183h323l-22 -112h-450zM457 588l-190 -301h153l61 301h-24z" />
    <glyph glyph-name="AEacute" unicode="&#x1fc;" horiz-adv-x="910" 
d="M399 179h-202l-112 -179h-137l455 698h538l-23 -112h-311l-36 -179h276l-22 -112h-276l-37 -183h323l-22 -112h-450zM457 588l-190 -301h153l61 301h-24zM594 744l-73 40l114 184l99 -52z" />
    <glyph glyph-name="Cacute" unicode="&#x106;" horiz-adv-x="625" 
d="M301 -12q-54 0 -99 18t-77.5 53.5t-50.5 88.5t-18 122q0 92 26.5 172t73.5 139.5t111.5 94t140.5 34.5q91 0 149 -43t83 -124l-112 -48q-14 46 -43 74t-87 28q-73 0 -121 -50t-65 -135l-23 -111q-4 -17 -5 -30.5t-1 -24.5q0 -69 33 -107t96 -38q62 0 100 30.5t65 80.5
l105 -49q-47 -90 -118 -132.5t-163 -42.5zM438 744l-73 40l114 184l99 -52z" />
    <glyph glyph-name="Ccaron" unicode="&#x10c;" horiz-adv-x="625" 
d="M301 -12q-54 0 -99 18t-77.5 53.5t-50.5 88.5t-18 122q0 92 26.5 172t73.5 139.5t111.5 94t140.5 34.5q91 0 149 -43t83 -124l-112 -48q-14 46 -43 74t-87 28q-73 0 -121 -50t-65 -135l-23 -111q-4 -17 -5 -30.5t-1 -24.5q0 -69 33 -107t96 -38q62 0 100 30.5t65 80.5
l105 -49q-47 -90 -118 -132.5t-163 -42.5zM366 754l-96 154l66 50l94 -116l138 116l63 -50l-151 -154h-114z" />
    <glyph glyph-name="Ccedilla" unicode="&#xc7;" horiz-adv-x="625" 
d="M398 597q-73 0 -121 -50.5t-65 -134.5l-23 -111q-4 -17 -5 -30.5t-1 -24.5q0 -69 33 -107t97 -38q62 0 99.5 30.5t64.5 80.5l105 -49q-45 -87 -112 -129.5t-155 -45.5l-16 -45l2 -4q19 6 39 6q26 0 43.5 -14t17.5 -42q0 -24 -10 -42.5t-28 -31t-42.5 -19t-52.5 -6.5
q-41 0 -68.5 13t-39.5 30l48 48q7 -9 22 -18t37 -9q21 0 34.5 8.5t13.5 24.5q0 13 -13.5 23t-48.5 14l-23 2l25 65q-45 7 -81.5 28.5t-62.5 56.5t-40.5 83.5t-14.5 110.5q0 92 26.5 172t74 139.5t112 94t140.5 34.5q91 0 148.5 -43t82.5 -124l-112 -48q-14 45 -43 73.5
t-87 28.5z" />
    <glyph glyph-name="Ccircumflex" unicode="&#x108;" horiz-adv-x="625" 
d="M301 -12q-54 0 -99 18t-77.5 53.5t-50.5 88.5t-18 122q0 92 26.5 172t73.5 139.5t111.5 94t140.5 34.5q91 0 149 -43t83 -124l-112 -48q-14 46 -43 74t-87 28q-73 0 -121 -50t-65 -135l-23 -111q-4 -17 -5 -30.5t-1 -24.5q0 -69 33 -107t96 -38q62 0 100 30.5t65 80.5
l105 -49q-47 -90 -118 -132.5t-163 -42.5zM510 949l95 -154l-66 -49l-96 115l-136 -116l-61 50l151 154h113z" />
    <glyph glyph-name="Cdotaccent" unicode="&#x10a;" horiz-adv-x="625" 
d="M301 -12q-54 0 -99 18t-77.5 53.5t-50.5 88.5t-18 122q0 92 26.5 172t73.5 139.5t111.5 94t140.5 34.5q91 0 149 -43t83 -124l-112 -48q-14 46 -43 74t-87 28q-73 0 -121 -50t-65 -135l-23 -111q-4 -17 -5 -30.5t-1 -24.5q0 -69 33 -107t96 -38q62 0 100 30.5t65 80.5
l105 -49q-47 -90 -118 -132.5t-163 -42.5zM428 762q-36 0 -51 14.5t-15 37.5q0 5 1 12t5 24q6 27 23.5 44t58.5 17q36 0 51 -14.5t15 -37.5q0 -5 -1.5 -13t-4.5 -23q-5 -27 -23 -44t-59 -17z" />
    <glyph glyph-name="Dcaron" unicode="&#x10e;" horiz-adv-x="673" 
d="M167 698h218q121 0 190.5 -66.5t69.5 -197.5q0 -89 -24 -168t-69.5 -138t-113 -93.5t-154.5 -34.5h-257zM293 112q75 0 127 45.5t70 136.5l20 97q3 17 4.5 34t1.5 28q0 69 -34 101t-91 32h-120l-95 -474h117zM343 754l-96 154l66 50l94 -116l138 116l63 -50l-151 -154
h-114z" />
    <glyph glyph-name="Dcroat" unicode="&#x110;" horiz-adv-x="678" 
d="M94 309h-76l20 97h75l59 292h218q121 0 190 -66.5t69 -197.5q0 -89 -24 -168t-69.5 -138t-113 -93.5t-154.5 -34.5h-256zM298 112q75 0 126.5 45.5t70.5 136.5l19 97q4 17 5.5 34t1.5 28q0 69 -34 101t-92 32h-120l-35 -180h118l-20 -97h-118l-39 -197h117z" />
    <glyph glyph-name="Eth" unicode="&#xd0;" horiz-adv-x="678" 
d="M94 309h-76l20 97h75l59 292h218q121 0 190 -66.5t69 -197.5q0 -89 -24 -168t-69.5 -138t-113 -93.5t-154.5 -34.5h-256zM298 112q75 0 126.5 45.5t70.5 136.5l19 97q4 17 5.5 34t1.5 28q0 69 -34 101t-92 32h-120l-35 -180h118l-20 -97h-118l-39 -197h117z" />
    <glyph glyph-name="Eacute" unicode="&#xc9;" horiz-adv-x="574" 
d="M27 0l140 698h438l-23 -112h-311l-36 -179h276l-22 -112h-276l-37 -183h323l-22 -112h-450zM410 744l-73 40l114 184l99 -52z" />
    <glyph glyph-name="Ebreve" unicode="&#x114;" horiz-adv-x="574" 
d="M27 0l140 698h438l-23 -112h-311l-36 -179h276l-22 -112h-276l-37 -183h323l-22 -112h-450zM398 747q-41 0 -69 14.5t-46 37.5t-28.5 51.5t-15.5 56.5l70 35l16 -35q15 -33 31.5 -52t46.5 -19q27 0 49.5 17.5t49.5 55.5l25 33l73 -38q-16 -29 -34.5 -57t-42.5 -50
t-55 -36t-70 -14z" />
    <glyph glyph-name="Ecaron" unicode="&#x11a;" horiz-adv-x="574" 
d="M27 0l140 698h438l-23 -112h-311l-36 -179h276l-22 -112h-276l-37 -183h323l-22 -112h-450zM338 754l-96 154l66 50l94 -116l138 116l63 -50l-151 -154h-114z" />
    <glyph glyph-name="Ecircumflex" unicode="&#xca;" horiz-adv-x="574" 
d="M27 0l140 698h438l-23 -112h-311l-36 -179h276l-22 -112h-276l-37 -183h323l-22 -112h-450zM482 949l95 -154l-66 -49l-96 115l-136 -116l-61 50l151 154h113z" />
    <glyph glyph-name="Edieresis" unicode="&#xcb;" horiz-adv-x="574" 
d="M27 0l140 698h438l-23 -112h-311l-36 -179h276l-22 -112h-276l-37 -183h323l-22 -112h-450zM301 768q-31 0 -44.5 12.5t-13.5 32.5q0 5 1 12.5t4 23.5q5 24 22.5 40.5t54.5 16.5q29 0 43 -12t14 -32q0 -5 -1 -13t-4 -22q-5 -25 -22.5 -42t-53.5 -17zM495 768
q-30 0 -44 12.5t-14 32.5q0 5 1 12.5t4 23.5q5 24 22.5 40.5t54.5 16.5q30 0 44 -12t14 -32q0 -5 -1 -13t-4 -22q-5 -25 -22.5 -42t-54.5 -17z" />
    <glyph glyph-name="Edotaccent" unicode="&#x116;" horiz-adv-x="574" 
d="M27 0l140 698h438l-23 -112h-311l-36 -179h276l-22 -112h-276l-37 -183h323l-22 -112h-450zM400 762q-36 0 -51 14.5t-15 37.5q0 5 1 12t5 24q6 27 23.5 44t58.5 17q36 0 51 -14.5t15 -37.5q0 -5 -1.5 -13t-4.5 -23q-5 -27 -23 -44t-59 -17z" />
    <glyph glyph-name="uni1EB8" unicode="&#x1eb8;" horiz-adv-x="574" 
d="M27 0l140 698h438l-23 -112h-311l-36 -179h276l-22 -112h-276l-37 -183h323l-22 -112h-450zM224 -193q-32 0 -47 13t-15 35q0 5 1 11.5t5 21.5q6 25 22.5 40t52.5 15q32 0 46.5 -13t14.5 -34q0 -5 -1 -11.5t-4 -22.5q-5 -25 -22.5 -40t-52.5 -15z" />
    <glyph glyph-name="Egrave" unicode="&#xc8;" horiz-adv-x="574" 
d="M27 0l140 698h438l-23 -112h-311l-36 -179h276l-22 -112h-276l-37 -183h323l-22 -112h-450zM277 917l108 51l67 -190l-76 -33z" />
    <glyph glyph-name="uni1EBA" unicode="&#x1eba;" horiz-adv-x="574" 
d="M27 0l140 698h438l-23 -112h-311l-36 -179h276l-22 -112h-276l-37 -183h323l-22 -112h-450zM327 954h135q38 0 55.5 -16t17.5 -38q0 -30 -15.5 -55t-38.5 -54l-48 -55l-60 31l54 97h-116z" />
    <glyph glyph-name="Emacron" unicode="&#x112;" horiz-adv-x="574" 
d="M27 0l140 698h438l-23 -112h-311l-36 -179h276l-22 -112h-276l-37 -183h323l-22 -112h-450zM281 884h276l-18 -91h-276z" />
    <glyph glyph-name="Eogonek" unicode="&#x118;" horiz-adv-x="574" 
d="M167 698h438l-23 -112h-311l-36 -179h276l-22 -112h-276l-37 -183h323l-22 -112q-41 -25 -64.5 -43t-35.5 -31.5t-15.5 -23t-3.5 -16.5q0 -14 8.5 -22t26.5 -8q14 0 28.5 6t25.5 21l47 -48q-17 -20 -44.5 -32.5t-71.5 -12.5q-46 0 -79 19.5t-33 60.5q0 39 32.5 71.5
t101.5 53.5l-1 5h-372z" />
    <glyph glyph-name="uni1EBC" unicode="&#x1ebc;" horiz-adv-x="574" 
d="M27 0l140 698h438l-23 -112h-311l-36 -179h276l-22 -112h-276l-37 -183h323l-22 -112h-450zM477 767q-23 0 -41 7t-35 16q-20 11 -36.5 17t-33.5 6t-29 -6.5t-29 -19.5l-39 60q21 26 48.5 43t62.5 17q23 0 40.5 -7t35.5 -16q20 -11 36.5 -17t33.5 -6t29 6.5t29 19.5
l39 -60q-21 -26 -48.5 -43t-62.5 -17z" />
    <glyph glyph-name="uni1EBE" unicode="&#x1ebe;" horiz-adv-x="574" 
d="M27 0l140 698h438l-23 -112h-311l-36 -179h276l-22 -112h-276l-37 -183h323l-22 -112h-450zM583 887l-68 36l104 184l96 -49zM470 933l105 -142l-62 -54l-101 107l-134 -107l-58 54l159 142h91z" />
    <glyph glyph-name="uni1EC6" unicode="&#x1ec6;" horiz-adv-x="574" 
d="M27 0l140 698h438l-23 -112h-311l-36 -179h276l-22 -112h-276l-37 -183h323l-22 -112h-450zM482 949l95 -154l-66 -49l-96 115l-136 -116l-61 50l151 154h113zM224 -193q-32 0 -47 13t-15 35q0 5 1 11.5t5 21.5q6 25 22.5 40t52.5 15q32 0 46.5 -13t14.5 -34
q0 -5 -1 -11.5t-4 -22.5q-5 -25 -22.5 -40t-52.5 -15z" />
    <glyph glyph-name="uni1EC0" unicode="&#x1ec0;" horiz-adv-x="574" 
d="M27 0l140 698h438l-23 -112h-311l-36 -179h276l-22 -112h-276l-37 -183h323l-22 -112h-450zM150 1059l100 48l69 -187l-65 -33zM469 933l105 -142l-62 -54l-101 107l-134 -107l-58 54l159 142h91z" />
    <glyph glyph-name="uni1EC2" unicode="&#x1ec2;" horiz-adv-x="574" 
d="M27 0l140 698h438l-23 -112h-311l-36 -179h276l-22 -112h-276l-37 -183h323l-22 -112h-450zM484 1094h127q38 0 54.5 -15.5t16.5 -38.5q0 -30 -15 -55t-38 -53l-48 -56l-61 31l58 100h-111zM469 933l105 -142l-62 -54l-101 107l-134 -107l-58 54l159 142h91z" />
    <glyph glyph-name="uni1EC4" unicode="&#x1ec4;" horiz-adv-x="574" 
d="M27 0l140 698h438l-23 -112h-311l-36 -179h276l-22 -112h-276l-37 -183h323l-22 -112h-450zM384 1087q21 0 35.5 -6.5t31.5 -15.5q20 -11 35 -16.5t32 -5.5q14 0 27.5 6.5t30.5 19.5l32 -56q-21 -25 -49.5 -42.5t-63.5 -17.5q-21 0 -35.5 6.5t-31.5 15.5q-20 11 -35 16.5
t-32 5.5q-14 0 -27.5 -6.5t-30.5 -19.5l-32 56q21 25 49.5 42.5t63.5 17.5zM468 924l106 -133l-63 -54l-101 107l-133 -107l-58 54l157 133h92z" />
    <glyph glyph-name="uni018F" unicode="&#x18f;" horiz-adv-x="691" 
d="M305 -12q-53 0 -98.5 17t-79 51.5t-52.5 86t-19 120.5q0 22 3 43.5t7 42.5l8 38h453q5 22 6 39t1 30q0 65 -36 103t-107 38q-57 0 -98 -29.5t-71 -92.5l-110 49q21 41 50.5 75t67 59t82.5 38.5t96 13.5q57 0 104 -18t80.5 -53t52.5 -85.5t19 -115.5q0 -92 -25.5 -173.5
t-72 -143t-113 -97.5t-148.5 -36zM316 101q149 0 190 185h-319q-2 -11 -3 -23t-1 -23q0 -66 33.5 -102.5t99.5 -36.5z" />
    <glyph glyph-name="Gbreve" unicode="&#x11e;" horiz-adv-x="689" 
d="M483 108h-7q-13 -25 -31 -46.5t-42 -38t-54.5 -26t-66.5 -9.5q-50 0 -91.5 17.5t-71.5 53t-46.5 87.5t-16.5 121q0 93 25.5 173.5t73 140.5t114.5 94.5t150 34.5q92 0 158 -42.5t89 -120.5l-107 -55q-14 51 -52.5 78t-96.5 27q-83 0 -132.5 -50t-66.5 -137l-21 -108
q-6 -30 -6 -57q0 -73 36.5 -108.5t93.5 -35.5q33 0 63 9.5t53.5 26.5t40 41t22.5 53l8 40h-133l21 107h254l-76 -378h-106zM439 747q-41 0 -69 14.5t-46 37.5t-28.5 51.5t-15.5 56.5l70 35l16 -35q15 -33 31.5 -52t46.5 -19q27 0 49.5 17.5t49.5 55.5l25 33l73 -38
q-16 -29 -34.5 -57t-42.5 -50t-55 -36t-70 -14z" />
    <glyph glyph-name="Gcircumflex" unicode="&#x11c;" horiz-adv-x="689" 
d="M483 108h-7q-13 -25 -31 -46.5t-42 -38t-54.5 -26t-66.5 -9.5q-50 0 -91.5 17.5t-71.5 53t-46.5 87.5t-16.5 121q0 93 25.5 173.5t73 140.5t114.5 94.5t150 34.5q92 0 158 -42.5t89 -120.5l-107 -55q-14 51 -52.5 78t-96.5 27q-83 0 -132.5 -50t-66.5 -137l-21 -108
q-6 -30 -6 -57q0 -73 36.5 -108.5t93.5 -35.5q33 0 63 9.5t53.5 26.5t40 41t22.5 53l8 40h-133l21 107h254l-76 -378h-106zM523 949l95 -154l-66 -49l-96 115l-136 -116l-61 50l151 154h113z" />
    <glyph glyph-name="Gcommaaccent" unicode="&#x122;" horiz-adv-x="689" 
d="M483 108h-7q-13 -25 -31 -46.5t-42 -38t-54.5 -26t-66.5 -9.5q-50 0 -91.5 17.5t-71.5 53t-46.5 87.5t-16.5 121q0 93 25.5 173.5t73 140.5t114.5 94.5t150 34.5q92 0 158 -42.5t89 -120.5l-107 -55q-14 51 -52.5 78t-96.5 27q-83 0 -132.5 -50t-66.5 -137l-21 -108
q-6 -30 -6 -57q0 -73 36.5 -108.5t93.5 -35.5q33 0 63 9.5t53.5 26.5t40 41t22.5 53l8 40h-133l21 107h254l-76 -378h-106zM274 -49q57 0 57 -47q0 -5 -0.5 -10t-2.5 -16q-9 -41 -34 -81t-54 -63h-76q28 22 44.5 43t28.5 49q-20 2 -27.5 13t-7.5 28q0 4 0.5 9.5t2.5 16.5
q13 58 69 58z" />
    <glyph glyph-name="Gdotaccent" unicode="&#x120;" horiz-adv-x="689" 
d="M483 108h-7q-13 -25 -31 -46.5t-42 -38t-54.5 -26t-66.5 -9.5q-50 0 -91.5 17.5t-71.5 53t-46.5 87.5t-16.5 121q0 93 25.5 173.5t73 140.5t114.5 94.5t150 34.5q92 0 158 -42.5t89 -120.5l-107 -55q-14 51 -52.5 78t-96.5 27q-83 0 -132.5 -50t-66.5 -137l-21 -108
q-6 -30 -6 -57q0 -73 36.5 -108.5t93.5 -35.5q33 0 63 9.5t53.5 26.5t40 41t22.5 53l8 40h-133l21 107h254l-76 -378h-106zM441 762q-36 0 -51 14.5t-15 37.5q0 5 1 12t5 24q6 27 23.5 44t58.5 17q36 0 51 -14.5t15 -37.5q0 -5 -1.5 -13t-4.5 -23q-5 -27 -23 -44t-59 -17z
" />
    <glyph glyph-name="Hbar" unicode="&#x126;" horiz-adv-x="702" 
d="M501 295h-284l-59 -295h-126l103 515h-71l19 94h71l18 89h126l-18 -89h283l18 89h126l-18 -89h70l-18 -94h-71l-103 -515h-126zM523 407l21 108h-283l-21 -108h283z" />
    <glyph glyph-name="Hcircumflex" unicode="&#x124;" horiz-adv-x="695" 
d="M496 295h-283l-60 -295h-126l140 698h126l-58 -291h284l58 291h126l-140 -698h-126zM526 949l95 -154l-66 -49l-96 115l-136 -116l-61 50l151 154h113z" />
    <glyph glyph-name="Iacute" unicode="&#xcd;" horiz-adv-x="406" 
d="M0 0l21 104h88l98 490h-88l21 104h302l-21 -104h-88l-98 -490h88l-21 -104h-302zM317 744l-73 40l114 184l99 -52z" />
    <glyph glyph-name="Ibreve" unicode="&#x12c;" horiz-adv-x="406" 
d="M0 0l21 104h88l98 490h-88l21 104h302l-21 -104h-88l-98 -490h88l-21 -104h-302zM305 747q-41 0 -69 14.5t-46 37.5t-28.5 51.5t-15.5 56.5l70 35l16 -35q15 -33 31.5 -52t46.5 -19q27 0 49.5 17.5t49.5 55.5l25 33l73 -38q-16 -29 -34.5 -57t-42.5 -50t-55 -36t-70 -14z
" />
    <glyph glyph-name="Icircumflex" unicode="&#xce;" horiz-adv-x="406" 
d="M0 0l21 104h88l98 490h-88l21 104h302l-21 -104h-88l-98 -490h88l-21 -104h-302zM389 949l95 -154l-66 -49l-96 115l-136 -116l-61 50l151 154h113z" />
    <glyph glyph-name="Idieresis" unicode="&#xcf;" horiz-adv-x="406" 
d="M0 0l21 104h88l98 490h-88l21 104h302l-21 -104h-88l-98 -490h88l-21 -104h-302zM208 768q-31 0 -44.5 12.5t-13.5 32.5q0 5 1 12.5t4 23.5q5 24 22.5 40.5t54.5 16.5q29 0 43 -12t14 -32q0 -5 -1 -13t-4 -22q-5 -25 -22.5 -42t-53.5 -17zM402 768q-30 0 -44 12.5
t-14 32.5q0 5 1 12.5t4 23.5q5 24 22.5 40.5t54.5 16.5q30 0 44 -12t14 -32q0 -5 -1 -13t-4 -22q-5 -25 -22.5 -42t-54.5 -17z" />
    <glyph glyph-name="Idotaccent" unicode="&#x130;" horiz-adv-x="406" 
d="M0 0l21 104h88l98 490h-88l21 104h302l-21 -104h-88l-98 -490h88l-21 -104h-302zM307 762q-36 0 -51 14.5t-15 37.5q0 5 1 12t5 24q6 27 23.5 44t58.5 17q36 0 51 -14.5t15 -37.5q0 -5 -1.5 -13t-4.5 -23q-5 -27 -23 -44t-59 -17z" />
    <glyph glyph-name="uni1ECA" unicode="&#x1eca;" horiz-adv-x="406" 
d="M0 0l21 104h88l98 490h-88l21 104h302l-21 -104h-88l-98 -490h88l-21 -104h-302zM116 -193q-32 0 -47 13t-15 35q0 5 1 11.5t5 21.5q6 25 22.5 40t52.5 15q32 0 46.5 -13t14.5 -34q0 -5 -1 -11.5t-4 -22.5q-5 -25 -22.5 -40t-52.5 -15z" />
    <glyph glyph-name="Igrave" unicode="&#xcc;" horiz-adv-x="406" 
d="M0 0l21 104h88l98 490h-88l21 104h302l-21 -104h-88l-98 -490h88l-21 -104h-302zM184 917l108 51l67 -190l-76 -33z" />
    <glyph glyph-name="uni1EC8" unicode="&#x1ec8;" horiz-adv-x="406" 
d="M0 0l21 104h88l98 490h-88l21 104h302l-21 -104h-88l-98 -490h88l-21 -104h-302zM233 954h135q38 0 55.5 -16t17.5 -38q0 -30 -15.5 -55t-38.5 -54l-48 -55l-60 31l54 97h-116z" />
    <glyph glyph-name="Imacron" unicode="&#x12a;" horiz-adv-x="406" 
d="M0 0l21 104h88l98 490h-88l21 104h302l-21 -104h-88l-98 -490h88l-21 -104h-302zM188 884h276l-18 -91h-276z" />
    <glyph glyph-name="Iogonek" unicode="&#x12e;" horiz-adv-x="406" 
d="M21 104h88l98 490h-88l21 104h302l-21 -104h-88l-98 -490h88l-21 -104q-41 -25 -64.5 -43t-35.5 -31.5t-15 -23t-3 -16.5q0 -14 8 -22t26 -8q15 0 29 6t25 21l48 -48q-17 -20 -45 -32.5t-72 -12.5q-46 0 -79 19.5t-33 60.5q0 39 33 71.5t101 53.5l-1 5h-224z" />
    <glyph glyph-name="Itilde" unicode="&#x128;" horiz-adv-x="406" 
d="M0 0l21 104h88l98 490h-88l21 104h302l-21 -104h-88l-98 -490h88l-21 -104h-302zM384 767q-23 0 -41 7t-35 16q-20 11 -36.5 17t-33.5 6t-29 -6.5t-29 -19.5l-39 60q21 26 48.5 43t62.5 17q23 0 40.5 -7t35.5 -16q20 -11 36.5 -17t33.5 -6t29 6.5t29 19.5l39 -60
q-21 -26 -48.5 -43t-62.5 -17z" />
    <glyph glyph-name="IJ" unicode="&#x132;" horiz-adv-x="640" 
d="M650 698l-97 -483q-22 -107 -91.5 -167t-180.5 -60q-48 0 -87 13.5t-67 38t-43.5 58.5t-16.5 76l120 26q0 -48 26.5 -72.5t75.5 -24.5q55 0 91 29t48 91l74 371h-108l21 104h235zM166 698h126l-79 -395h-127z" />
    <glyph glyph-name="IJacute" horiz-adv-x="642" 
d="M650 698l-97 -483q-22 -107 -91.5 -167t-180.5 -60q-48 0 -87 13.5t-67 38t-43.5 58.5t-16.5 76l120 26q0 -48 26.5 -72.5t75.5 -24.5q55 0 91 29t48 91l74 371h-108l21 104h235zM166 698h126l-79 -395h-127zM258 744l-73 40l114 184l99 -52zM561 744l-73 40l114 184
l99 -52z" />
    <glyph glyph-name="Jacute" horiz-adv-x="525" 
d="M533 698l-102 -510q-19 -93 -76 -146.5t-153 -53.5q-47 0 -82.5 14t-60 38.5t-38.5 58t-17 73.5l120 24q3 -43 20.5 -69.5t58.5 -26.5q38 0 65.5 24t38.5 78l78 391h-212l21 105h339zM392 744l-73 40l114 184l99 -52z" />
    <glyph glyph-name="Jcircumflex" unicode="&#x134;" horiz-adv-x="525" 
d="M533 698l-102 -510q-19 -93 -76 -146.5t-153 -53.5q-47 0 -82.5 14t-60 38.5t-38.5 58t-17 73.5l120 24q3 -43 20.5 -69.5t58.5 -26.5q38 0 65.5 24t38.5 78l78 391h-212l21 105h339zM464 949l95 -154l-66 -49l-96 115l-136 -116l-61 50l151 154h113z" />
    <glyph glyph-name="Kcommaaccent" unicode="&#x136;" horiz-adv-x="645" 
d="M311 312l-119 -118l-39 -194h-126l140 698h127l-69 -341h7l112 127l206 214h155l-296 -301l173 -397h-139zM274 -49q57 0 57 -47q0 -5 -0.5 -10t-2.5 -16q-9 -41 -34 -81t-54 -63h-76q28 22 44.5 43t28.5 49q-20 2 -27.5 13t-7.5 28q0 4 0.5 9.5t2.5 16.5q13 58 69 58z
" />
    <glyph glyph-name="Lacute" unicode="&#x139;" horiz-adv-x="504" 
d="M27 0l140 698h127l-118 -586h265l-22 -112h-392zM258 744l-73 40l114 184l99 -52z" />
    <glyph glyph-name="Lcaron" unicode="&#x13d;" horiz-adv-x="504" 
d="M27 0l140 698h127l-118 -586h265l-22 -112h-392zM415 534h-84l45 206h138z" />
    <glyph glyph-name="Lcommaaccent" unicode="&#x13b;" horiz-adv-x="504" 
d="M27 0l140 698h127l-118 -586h265l-22 -112h-392zM211 -49q57 0 57 -47q0 -5 -0.5 -10t-2.5 -16q-9 -41 -34 -81t-54 -63h-76q28 22 44.5 43t28.5 49q-20 2 -27.5 13t-7.5 28q0 4 0.5 9.5t2.5 16.5q13 58 69 58z" />
    <glyph glyph-name="Ldot" unicode="&#x13f;" horiz-adv-x="504" 
d="M27 0l140 698h127l-118 -586h265l-22 -112h-392zM405 304q-36 0 -51 14.5t-15 37.5q0 5 1 12t5 24q6 28 23.5 45t58.5 17q36 0 51 -14.5t15 -37.5q0 -5 -1 -12t-5 -24q-6 -28 -23.5 -45t-58.5 -17z" />
    <glyph glyph-name="Lslash" unicode="&#x141;" horiz-adv-x="514" 
d="M424 0h-391l51 254l-88 -26l20 98l87 27l70 345h126l-61 -305l175 54l-20 -101l-175 -53l-36 -181h264z" />
    <glyph glyph-name="Nacute" unicode="&#x143;" horiz-adv-x="695" 
d="M300 361l-46 147h-6l-101 -508h-120l140 698h138l125 -361l46 -147h6l101 508h120l-140 -698h-138zM461 744l-73 40l114 184l99 -52z" />
    <glyph glyph-name="Ncaron" unicode="&#x147;" horiz-adv-x="695" 
d="M300 361l-46 147h-6l-101 -508h-120l140 698h138l125 -361l46 -147h6l101 508h120l-140 -698h-138zM389 754l-96 154l66 50l94 -116l138 116l63 -50l-151 -154h-114z" />
    <glyph glyph-name="Ncommaaccent" unicode="&#x145;" horiz-adv-x="695" 
d="M300 361l-46 147h-6l-101 -508h-120l140 698h138l125 -361l46 -147h6l101 508h120l-140 -698h-138zM283 -49q57 0 57 -47q0 -5 -0.5 -10t-2.5 -16q-9 -41 -34 -81t-54 -63h-76q28 22 44.5 43t28.5 49q-20 2 -27.5 13t-7.5 28q0 4 0.5 9.5t2.5 16.5q13 58 69 58z" />
    <glyph glyph-name="Ntilde" unicode="&#xd1;" horiz-adv-x="695" 
d="M300 361l-46 147h-6l-101 -508h-120l140 698h138l125 -361l46 -147h6l101 508h120l-140 -698h-138zM528 767q-23 0 -41 7t-35 16q-20 11 -36.5 17t-33.5 6t-29 -6.5t-29 -19.5l-39 60q21 26 48.5 43t62.5 17q23 0 40.5 -7t35.5 -16q20 -11 36.5 -17t33.5 -6t29 6.5
t29 19.5l39 -60q-21 -26 -48.5 -43t-62.5 -17z" />
    <glyph glyph-name="Eng" unicode="&#x14a;" horiz-adv-x="695" 
d="M27 0l140 698h138l125 -361l46 -147h6l101 508h120l-154 -766q-14 -68 -50.5 -100t-100.5 -32h-77l20 99h84l20 101h-20l-125 361l-46 147h-6l-101 -508h-120z" />
    <glyph glyph-name="Oacute" unicode="&#xd3;" horiz-adv-x="691" 
d="M305 -12q-51 0 -96 16.5t-79 51t-54 87.5t-20 125q0 89 26 169.5t73 141t113 96t146 35.5q51 0 96.5 -17t79.5 -51.5t54 -87t20 -124.5q0 -89 -26 -169.5t-73.5 -141t-113.5 -96t-146 -35.5zM315 101q78 0 126.5 50t67.5 142l22 105q3 17 4 31.5t1 26.5q0 68 -33 104.5
t-98 36.5q-76 0 -126 -50.5t-68 -142.5l-21 -104q-4 -17 -5 -31.5t-1 -26.5q0 -68 33.5 -104.5t97.5 -36.5zM456 744l-73 40l114 184l99 -52z" />
    <glyph glyph-name="Obreve" unicode="&#x14e;" horiz-adv-x="691" 
d="M305 -12q-51 0 -96 16.5t-79 51t-54 87.5t-20 125q0 89 26 169.5t73 141t113 96t146 35.5q51 0 96.5 -17t79.5 -51.5t54 -87t20 -124.5q0 -89 -26 -169.5t-73.5 -141t-113.5 -96t-146 -35.5zM315 101q78 0 126.5 50t67.5 142l22 105q3 17 4 31.5t1 26.5q0 68 -33 104.5
t-98 36.5q-76 0 -126 -50.5t-68 -142.5l-21 -104q-4 -17 -5 -31.5t-1 -26.5q0 -68 33.5 -104.5t97.5 -36.5zM444 747q-41 0 -69 14.5t-46 37.5t-28.5 51.5t-15.5 56.5l70 35l16 -35q15 -33 31.5 -52t46.5 -19q27 0 49.5 17.5t49.5 55.5l25 33l73 -38q-16 -29 -34.5 -57
t-42.5 -50t-55 -36t-70 -14z" />
    <glyph glyph-name="Ocircumflex" unicode="&#xd4;" horiz-adv-x="691" 
d="M305 -12q-51 0 -96 16.5t-79 51t-54 87.5t-20 125q0 89 26 169.5t73 141t113 96t146 35.5q51 0 96.5 -17t79.5 -51.5t54 -87t20 -124.5q0 -89 -26 -169.5t-73.5 -141t-113.5 -96t-146 -35.5zM315 101q78 0 126.5 50t67.5 142l22 105q3 17 4 31.5t1 26.5q0 68 -33 104.5
t-98 36.5q-76 0 -126 -50.5t-68 -142.5l-21 -104q-4 -17 -5 -31.5t-1 -26.5q0 -68 33.5 -104.5t97.5 -36.5zM528 949l95 -154l-66 -49l-96 115l-136 -116l-61 50l151 154h113z" />
    <glyph glyph-name="Odieresis" unicode="&#xd6;" horiz-adv-x="691" 
d="M305 -12q-51 0 -96 16.5t-79 51t-54 87.5t-20 125q0 89 26 169.5t73 141t113 96t146 35.5q51 0 96.5 -17t79.5 -51.5t54 -87t20 -124.5q0 -89 -26 -169.5t-73.5 -141t-113.5 -96t-146 -35.5zM315 101q78 0 126.5 50t67.5 142l22 105q3 17 4 31.5t1 26.5q0 68 -33 104.5
t-98 36.5q-76 0 -126 -50.5t-68 -142.5l-21 -104q-4 -17 -5 -31.5t-1 -26.5q0 -68 33.5 -104.5t97.5 -36.5zM347 768q-31 0 -44.5 12.5t-13.5 32.5q0 5 1 12.5t4 23.5q5 24 22.5 40.5t54.5 16.5q29 0 43 -12t14 -32q0 -5 -1 -13t-4 -22q-5 -25 -22.5 -42t-53.5 -17zM541 768
q-30 0 -44 12.5t-14 32.5q0 5 1 12.5t4 23.5q5 24 22.5 40.5t54.5 16.5q30 0 44 -12t14 -32q0 -5 -1 -13t-4 -22q-5 -25 -22.5 -42t-54.5 -17z" />
    <glyph glyph-name="uni1ECC" unicode="&#x1ecc;" horiz-adv-x="691" 
d="M305 -12q-51 0 -96 16.5t-79 51t-54 87.5t-20 125q0 89 26 169.5t73 141t113 96t146 35.5q51 0 96.5 -17t79.5 -51.5t54 -87t20 -124.5q0 -89 -26 -169.5t-73.5 -141t-113.5 -96t-146 -35.5zM315 101q78 0 126.5 50t67.5 142l22 105q3 17 4 31.5t1 26.5q0 68 -33 104.5
t-98 36.5q-76 0 -126 -50.5t-68 -142.5l-21 -104q-4 -17 -5 -31.5t-1 -26.5q0 -68 33.5 -104.5t97.5 -36.5zM262 -193q-32 0 -47 13t-15 35q0 5 1 11.5t5 21.5q6 25 22.5 40t52.5 15q32 0 46.5 -13t14.5 -34q0 -5 -1 -11.5t-4 -22.5q-5 -25 -22.5 -40t-52.5 -15z" />
    <glyph glyph-name="Ograve" unicode="&#xd2;" horiz-adv-x="691" 
d="M305 -12q-51 0 -96 16.5t-79 51t-54 87.5t-20 125q0 89 26 169.5t73 141t113 96t146 35.5q51 0 96.5 -17t79.5 -51.5t54 -87t20 -124.5q0 -89 -26 -169.5t-73.5 -141t-113.5 -96t-146 -35.5zM315 101q78 0 126.5 50t67.5 142l22 105q3 17 4 31.5t1 26.5q0 68 -33 104.5
t-98 36.5q-76 0 -126 -50.5t-68 -142.5l-21 -104q-4 -17 -5 -31.5t-1 -26.5q0 -68 33.5 -104.5t97.5 -36.5zM323 917l108 51l67 -190l-76 -33z" />
    <glyph glyph-name="uni1ECE" unicode="&#x1ece;" horiz-adv-x="691" 
d="M305 -12q-51 0 -96 16.5t-79 51t-54 87.5t-20 125q0 89 26 169.5t73 141t113 96t146 35.5q51 0 96.5 -17t79.5 -51.5t54 -87t20 -124.5q0 -89 -26 -169.5t-73.5 -141t-113.5 -96t-146 -35.5zM315 101q78 0 126.5 50t67.5 142l22 105q3 17 4 31.5t1 26.5q0 68 -33 104.5
t-98 36.5q-76 0 -126 -50.5t-68 -142.5l-21 -104q-4 -17 -5 -31.5t-1 -26.5q0 -68 33.5 -104.5t97.5 -36.5zM373 954h135q38 0 55.5 -16t17.5 -38q0 -30 -15.5 -55t-38.5 -54l-48 -55l-60 31l54 97h-116z" />
    <glyph glyph-name="Ohungarumlaut" unicode="&#x150;" horiz-adv-x="691" 
d="M305 -12q-51 0 -96 16.5t-79 51t-54 87.5t-20 125q0 89 26 169.5t73 141t113 96t146 35.5q51 0 96.5 -17t79.5 -51.5t54 -87t20 -124.5q0 -89 -26 -169.5t-73.5 -141t-113.5 -96t-146 -35.5zM315 101q78 0 126.5 50t67.5 142l22 105q3 17 4 31.5t1 26.5q0 68 -33 104.5
t-98 36.5q-76 0 -126 -50.5t-68 -142.5l-21 -104q-4 -17 -5 -31.5t-1 -26.5q0 -68 33.5 -104.5t97.5 -36.5zM355 745l-68 33l111 186l93 -49zM539 745l-67 33l110 186l93 -49z" />
    <glyph glyph-name="Omacron" unicode="&#x14c;" horiz-adv-x="691" 
d="M305 -12q-51 0 -96 16.5t-79 51t-54 87.5t-20 125q0 89 26 169.5t73 141t113 96t146 35.5q51 0 96.5 -17t79.5 -51.5t54 -87t20 -124.5q0 -89 -26 -169.5t-73.5 -141t-113.5 -96t-146 -35.5zM315 101q78 0 126.5 50t67.5 142l22 105q3 17 4 31.5t1 26.5q0 68 -33 104.5
t-98 36.5q-76 0 -126 -50.5t-68 -142.5l-21 -104q-4 -17 -5 -31.5t-1 -26.5q0 -68 33.5 -104.5t97.5 -36.5zM327 884h276l-18 -91h-276z" />
    <glyph glyph-name="Oslash" unicode="&#xd8;" horiz-adv-x="691" 
d="M305 -12q-44 0 -83 12t-71 37l-79 -93l-69 60l89 104q-17 32 -26.5 71.5t-9.5 88.5q0 89 26 169.5t73.5 141t113.5 96t146 35.5q44 0 83 -12t71 -37l79 93l69 -60l-89 -104q17 -32 26 -71.5t9 -88.5q0 -89 -26 -169.5t-73 -141t-113 -96t-146 -35.5zM187 299
q-4 -17 -5.5 -32t-1.5 -28q0 -20 4 -35l314 364q-36 33 -92 33q-78 0 -128.5 -51t-69.5 -145zM314 97q78 0 128.5 51t69.5 145l21 106q4 17 5.5 32t1.5 28q0 20 -4 35l-314 -364q36 -33 92 -33z" />
    <glyph glyph-name="Oslashacute" unicode="&#x1fe;" horiz-adv-x="691" 
d="M305 -12q-44 0 -83 12t-71 37l-79 -93l-69 60l89 104q-17 32 -26.5 71.5t-9.5 88.5q0 89 26 169.5t73.5 141t113.5 96t146 35.5q44 0 83 -12t71 -37l79 93l69 -60l-89 -104q17 -32 26 -71.5t9 -88.5q0 -89 -26 -169.5t-73 -141t-113 -96t-146 -35.5zM187 299
q-4 -17 -5.5 -32t-1.5 -28q0 -20 4 -35l314 364q-36 33 -92 33q-78 0 -128.5 -51t-69.5 -145zM314 97q78 0 128.5 51t69.5 145l21 106q4 17 5.5 32t1.5 28q0 20 -4 35l-314 -364q36 -33 92 -33zM446 744l-73 40l114 184l99 -52z" />
    <glyph glyph-name="Otilde" unicode="&#xd5;" horiz-adv-x="691" 
d="M305 -12q-51 0 -96 16.5t-79 51t-54 87.5t-20 125q0 89 26 169.5t73 141t113 96t146 35.5q51 0 96.5 -17t79.5 -51.5t54 -87t20 -124.5q0 -89 -26 -169.5t-73.5 -141t-113.5 -96t-146 -35.5zM315 101q78 0 126.5 50t67.5 142l22 105q3 17 4 31.5t1 26.5q0 68 -33 104.5
t-98 36.5q-76 0 -126 -50.5t-68 -142.5l-21 -104q-4 -17 -5 -31.5t-1 -26.5q0 -68 33.5 -104.5t97.5 -36.5zM523 767q-23 0 -41 7t-35 16q-20 11 -36.5 17t-33.5 6t-29 -6.5t-29 -19.5l-39 60q21 26 48.5 43t62.5 17q23 0 40.5 -7t35.5 -16q20 -11 36.5 -17t33.5 -6t29 6.5
t29 19.5l39 -60q-21 -26 -48.5 -43t-62.5 -17z" />
    <glyph glyph-name="Ohorn" unicode="&#x1a0;" horiz-adv-x="691" 
d="M760 806l-20 -99q-9 -46 -31.5 -66t-74.5 -20h-28q27 -35 42 -82.5t15 -108.5q0 -89 -26 -169.5t-73 -141t-113 -96t-146 -35.5q-51 0 -96.5 16.5t-79 51t-53.5 87.5t-20 125q0 89 26 169.5t73.5 141t113 96t145.5 35.5q44 0 83 -12h133l22 108h108zM315 101
q78 0 126.5 50t67.5 142l22 105q3 17 4 31.5t1 26.5q0 68 -33 104.5t-98 36.5q-76 0 -126 -50.5t-68 -142.5l-21 -104q-4 -17 -5 -31.5t-1 -26.5q0 -68 33.5 -104.5t97.5 -36.5z" />
    <glyph glyph-name="uni1EDA" unicode="&#x1eda;" horiz-adv-x="691" 
d="M760 806l-20 -99q-9 -46 -31.5 -66t-74.5 -20h-28q27 -35 42 -82.5t15 -108.5q0 -89 -26 -169.5t-73 -141t-113 -96t-146 -35.5q-51 0 -96.5 16.5t-79 51t-53.5 87.5t-20 125q0 89 26 169.5t73.5 141t113 96t145.5 35.5q44 0 83 -12h133l22 108h108zM315 101
q78 0 126.5 50t67.5 142l22 105q3 17 4 31.5t1 26.5q0 68 -33 104.5t-98 36.5q-76 0 -126 -50.5t-68 -142.5l-21 -104q-4 -17 -5 -31.5t-1 -26.5q0 -68 33.5 -104.5t97.5 -36.5zM433 744l-73 40l114 184l99 -52z" />
    <glyph glyph-name="uni1EE2" unicode="&#x1ee2;" horiz-adv-x="691" 
d="M760 806l-20 -99q-9 -46 -31.5 -66t-74.5 -20h-28q27 -35 42 -82.5t15 -108.5q0 -89 -26 -169.5t-73 -141t-113 -96t-146 -35.5q-51 0 -96.5 16.5t-79 51t-53.5 87.5t-20 125q0 89 26 169.5t73.5 141t113 96t145.5 35.5q44 0 83 -12h133l22 108h108zM315 101
q78 0 126.5 50t67.5 142l22 105q3 17 4 31.5t1 26.5q0 68 -33 104.5t-98 36.5q-76 0 -126 -50.5t-68 -142.5l-21 -104q-4 -17 -5 -31.5t-1 -26.5q0 -68 33.5 -104.5t97.5 -36.5zM268 -193q-32 0 -47 13t-15 35q0 5 1 11.5t5 21.5q6 25 22.5 40t52.5 15q32 0 46.5 -13
t14.5 -34q0 -5 -1 -11.5t-4 -22.5q-5 -25 -22.5 -40t-52.5 -15z" />
    <glyph glyph-name="uni1EDC" unicode="&#x1edc;" horiz-adv-x="691" 
d="M760 806l-20 -99q-9 -46 -31.5 -66t-74.5 -20h-28q27 -35 42 -82.5t15 -108.5q0 -89 -26 -169.5t-73 -141t-113 -96t-146 -35.5q-51 0 -96.5 16.5t-79 51t-53.5 87.5t-20 125q0 89 26 169.5t73.5 141t113 96t145.5 35.5q44 0 83 -12h133l22 108h108zM315 101
q78 0 126.5 50t67.5 142l22 105q3 17 4 31.5t1 26.5q0 68 -33 104.5t-98 36.5q-76 0 -126 -50.5t-68 -142.5l-21 -104q-4 -17 -5 -31.5t-1 -26.5q0 -68 33.5 -104.5t97.5 -36.5zM300 917l108 51l67 -190l-76 -33z" />
    <glyph glyph-name="uni1EDE" unicode="&#x1ede;" horiz-adv-x="691" 
d="M760 806l-20 -99q-9 -46 -31.5 -66t-74.5 -20h-28q27 -35 42 -82.5t15 -108.5q0 -89 -26 -169.5t-73 -141t-113 -96t-146 -35.5q-51 0 -96.5 16.5t-79 51t-53.5 87.5t-20 125q0 89 26 169.5t73.5 141t113 96t145.5 35.5q44 0 83 -12h133l22 108h108zM315 101
q78 0 126.5 50t67.5 142l22 105q3 17 4 31.5t1 26.5q0 68 -33 104.5t-98 36.5q-76 0 -126 -50.5t-68 -142.5l-21 -104q-4 -17 -5 -31.5t-1 -26.5q0 -68 33.5 -104.5t97.5 -36.5zM350 954h135q38 0 55.5 -16t17.5 -38q0 -30 -15.5 -55t-38.5 -54l-48 -55l-60 31l54 97h-116z
" />
    <glyph glyph-name="uni1EE0" unicode="&#x1ee0;" horiz-adv-x="691" 
d="M760 806l-20 -99q-9 -46 -31.5 -66t-74.5 -20h-28q27 -35 42 -82.5t15 -108.5q0 -89 -26 -169.5t-73 -141t-113 -96t-146 -35.5q-51 0 -96.5 16.5t-79 51t-53.5 87.5t-20 125q0 89 26 169.5t73.5 141t113 96t145.5 35.5q44 0 83 -12h133l22 108h108zM315 101
q78 0 126.5 50t67.5 142l22 105q3 17 4 31.5t1 26.5q0 68 -33 104.5t-98 36.5q-76 0 -126 -50.5t-68 -142.5l-21 -104q-4 -17 -5 -31.5t-1 -26.5q0 -68 33.5 -104.5t97.5 -36.5zM486 769q-20 0 -34.5 6.5t-29.5 15.5t-29.5 15.5t-28.5 6.5q-23 0 -52 -25l-38 58
q17 26 43 42.5t57 16.5q20 0 34.5 -6.5t29.5 -15.5t29.5 -15.5t28.5 -6.5q23 0 52 25l38 -58q-17 -26 -43 -42.5t-57 -16.5z" />
    <glyph glyph-name="uni1ED0" unicode="&#x1ed0;" horiz-adv-x="691" 
d="M305 -12q-51 0 -96 16.5t-79 51t-54 87.5t-20 125q0 89 26 169.5t73 141t113 96t146 35.5q51 0 96.5 -17t79.5 -51.5t54 -87t20 -124.5q0 -89 -26 -169.5t-73.5 -141t-113.5 -96t-146 -35.5zM315 101q78 0 126.5 50t67.5 142l22 105q3 17 4 31.5t1 26.5q0 68 -33 104.5
t-98 36.5q-76 0 -126 -50.5t-68 -142.5l-21 -104q-4 -17 -5 -31.5t-1 -26.5q0 -68 33.5 -104.5t97.5 -36.5zM629 887l-68 36l104 184l96 -49zM516 933l105 -142l-62 -54l-101 107l-134 -107l-58 54l159 142h91z" />
    <glyph glyph-name="uni1ED8" unicode="&#x1ed8;" horiz-adv-x="691" 
d="M305 -12q-51 0 -96 16.5t-79 51t-54 87.5t-20 125q0 89 26 169.5t73 141t113 96t146 35.5q51 0 96.5 -17t79.5 -51.5t54 -87t20 -124.5q0 -89 -26 -169.5t-73.5 -141t-113.5 -96t-146 -35.5zM315 101q78 0 126.5 50t67.5 142l22 105q3 17 4 31.5t1 26.5q0 68 -33 104.5
t-98 36.5q-76 0 -126 -50.5t-68 -142.5l-21 -104q-4 -17 -5 -31.5t-1 -26.5q0 -68 33.5 -104.5t97.5 -36.5zM528 949l95 -154l-66 -49l-96 115l-136 -116l-61 50l151 154h113zM262 -193q-32 0 -47 13t-15 35q0 5 1 11.5t5 21.5q6 25 22.5 40t52.5 15q32 0 46.5 -13t14.5 -34
q0 -5 -1 -11.5t-4 -22.5q-5 -25 -22.5 -40t-52.5 -15z" />
    <glyph glyph-name="uni1ED2" unicode="&#x1ed2;" horiz-adv-x="691" 
d="M305 -12q-51 0 -96 16.5t-79 51t-54 87.5t-20 125q0 89 26 169.5t73 141t113 96t146 35.5q51 0 96.5 -17t79.5 -51.5t54 -87t20 -124.5q0 -89 -26 -169.5t-73.5 -141t-113.5 -96t-146 -35.5zM315 101q78 0 126.5 50t67.5 142l22 105q3 17 4 31.5t1 26.5q0 68 -33 104.5
t-98 36.5q-76 0 -126 -50.5t-68 -142.5l-21 -104q-4 -17 -5 -31.5t-1 -26.5q0 -68 33.5 -104.5t97.5 -36.5zM196 1059l100 48l69 -187l-65 -33zM515 933l105 -142l-62 -54l-101 107l-134 -107l-58 54l159 142h91z" />
    <glyph glyph-name="uni1ED4" unicode="&#x1ed4;" horiz-adv-x="691" 
d="M305 -12q-51 0 -96 16.5t-79 51t-54 87.5t-20 125q0 89 26 169.5t73 141t113 96t146 35.5q51 0 96.5 -17t79.5 -51.5t54 -87t20 -124.5q0 -89 -26 -169.5t-73.5 -141t-113.5 -96t-146 -35.5zM315 101q78 0 126.5 50t67.5 142l22 105q3 17 4 31.5t1 26.5q0 68 -33 104.5
t-98 36.5q-76 0 -126 -50.5t-68 -142.5l-21 -104q-4 -17 -5 -31.5t-1 -26.5q0 -68 33.5 -104.5t97.5 -36.5zM530 1094h127q38 0 54.5 -15.5t16.5 -38.5q0 -30 -15 -55t-38 -53l-48 -56l-61 31l58 100h-111zM515 933l105 -142l-62 -54l-101 107l-134 -107l-58 54l159 142h91z
" />
    <glyph glyph-name="uni1ED6" unicode="&#x1ed6;" horiz-adv-x="691" 
d="M305 -12q-51 0 -96 16.5t-79 51t-54 87.5t-20 125q0 89 26 169.5t73 141t113 96t146 35.5q51 0 96.5 -17t79.5 -51.5t54 -87t20 -124.5q0 -89 -26 -169.5t-73.5 -141t-113.5 -96t-146 -35.5zM315 101q78 0 126.5 50t67.5 142l22 105q3 17 4 31.5t1 26.5q0 68 -33 104.5
t-98 36.5q-76 0 -126 -50.5t-68 -142.5l-21 -104q-4 -17 -5 -31.5t-1 -26.5q0 -68 33.5 -104.5t97.5 -36.5zM430 1087q21 0 35.5 -6.5t31.5 -15.5q20 -11 35 -16.5t32 -5.5q14 0 27.5 6.5t30.5 19.5l32 -56q-21 -25 -49.5 -42.5t-63.5 -17.5q-21 0 -35.5 6.5t-31.5 15.5
q-20 11 -35 16.5t-32 5.5q-14 0 -27.5 -6.5t-30.5 -19.5l-32 56q21 25 49.5 42.5t63.5 17.5zM514 924l106 -133l-63 -54l-101 107l-133 -107l-58 54l157 133h92z" />
    <glyph glyph-name="OE" unicode="&#x152;" horiz-adv-x="952" 
d="M407 0q-26 -5 -54 -8.5t-52 -3.5q-53 0 -97.5 17.5t-77.5 53.5t-51.5 90.5t-18.5 128.5q0 90 26.5 168.5t74.5 137t115 92.5t148 34q26 0 62.5 -3t66.5 -9h434l-23 -112h-311l-36 -179h276l-22 -112h-276l-37 -183h323l-22 -112h-448zM329 101q20 0 47 3t52 10l94 470
q-22 6 -53 9.5t-54 3.5q-88 0 -137 -51t-68 -143l-20 -103q-6 -30 -6 -56q0 -66 35 -104.5t110 -38.5z" />
    <glyph glyph-name="Racute" unicode="&#x154;" horiz-adv-x="646" 
d="M153 0h-126l140 698h265q98 0 149 -47.5t51 -128.5q0 -40 -11.5 -77t-34 -68.5t-54.5 -55t-74 -35.5l89 -286h-135l-77 271h-127zM389 379q38 0 65 20t36 62q5 25 8.5 40t3.5 24q0 26 -17.5 43.5t-56.5 17.5h-157l-41 -207h159zM415 744l-73 40l114 184l99 -52z" />
    <glyph glyph-name="Rcaron" unicode="&#x158;" horiz-adv-x="646" 
d="M153 0h-126l140 698h265q98 0 149 -47.5t51 -128.5q0 -40 -11.5 -77t-34 -68.5t-54.5 -55t-74 -35.5l89 -286h-135l-77 271h-127zM389 379q38 0 65 20t36 62q5 25 8.5 40t3.5 24q0 26 -17.5 43.5t-56.5 17.5h-157l-41 -207h159zM343 754l-96 154l66 50l94 -116l138 116
l63 -50l-151 -154h-114z" />
    <glyph glyph-name="Rcommaaccent" unicode="&#x156;" horiz-adv-x="646" 
d="M153 0h-126l140 698h265q98 0 149 -47.5t51 -128.5q0 -40 -11.5 -77t-34 -68.5t-54.5 -55t-74 -35.5l89 -286h-135l-77 271h-127zM389 379q38 0 65 20t36 62q5 25 8.5 40t3.5 24q0 26 -17.5 43.5t-56.5 17.5h-157l-41 -207h159zM268 -49q57 0 57 -47q0 -5 -0.5 -10
t-2.5 -16q-9 -41 -34 -81t-54 -63h-76q28 22 44.5 43t28.5 49q-20 2 -27.5 13t-7.5 28q0 4 0.5 9.5t2.5 16.5q13 58 69 58z" />
    <glyph glyph-name="Sacute" unicode="&#x15a;" horiz-adv-x="583" 
d="M253 -12q-85 0 -150.5 28.5t-102.5 96.5l96 74q27 -45 65 -65.5t92 -20.5q72 0 109.5 32.5t37.5 81.5q0 35 -23.5 55t-63.5 28l-53 11q-75 16 -118.5 59t-43.5 123q0 46 18.5 86t52 69.5t81.5 46.5t108 17q79 0 139.5 -26t95.5 -74l-91 -81q-26 35 -60 51.5t-89 16.5
q-60 0 -94 -25.5t-34 -69.5q0 -35 21 -53.5t63 -27.5l50 -10q79 -17 125 -61t46 -123q0 -45 -18.5 -88t-54 -76.5t-87 -54t-117.5 -20.5zM380 744l-73 40l114 184l99 -52z" />
    <glyph glyph-name="Scaron" unicode="&#x160;" horiz-adv-x="583" 
d="M253 -12q-85 0 -150.5 28.5t-102.5 96.5l96 74q27 -45 65 -65.5t92 -20.5q72 0 109.5 32.5t37.5 81.5q0 35 -23.5 55t-63.5 28l-53 11q-75 16 -118.5 59t-43.5 123q0 46 18.5 86t52 69.5t81.5 46.5t108 17q79 0 139.5 -26t95.5 -74l-91 -81q-26 35 -60 51.5t-89 16.5
q-60 0 -94 -25.5t-34 -69.5q0 -35 21 -53.5t63 -27.5l50 -10q79 -17 125 -61t46 -123q0 -45 -18.5 -88t-54 -76.5t-87 -54t-117.5 -20.5zM308 754l-96 154l66 50l94 -116l138 116l63 -50l-151 -154h-114z" />
    <glyph glyph-name="Scedilla" unicode="&#x15e;" horiz-adv-x="583" 
d="M353 597q-60 0 -94 -25.5t-34 -69.5q0 -35 21 -53.5t63 -27.5l50 -10q79 -17 125 -61t46 -123q0 -44 -17.5 -85.5t-50.5 -74.5t-80.5 -54.5t-108.5 -24.5l-18 -45l2 -4q21 6 40 6q26 0 43.5 -14t17.5 -42q0 -24 -10 -42.5t-28 -31t-42.5 -19t-52.5 -6.5q-41 0 -68.5 13
t-39.5 30l48 48q6 -9 21 -18t37 -9t35.5 8.5t13.5 24.5q0 13 -13.5 23t-49.5 14l-23 2l25 64q-70 6 -124.5 34.5t-86.5 88.5l96 74q27 -45 65 -65.5t92 -20.5q72 0 109.5 32.5t37.5 81.5q0 35 -23.5 55t-63.5 28l-53 11q-75 16 -118.5 59t-43.5 123q0 46 18.5 86t52 69.5
t81.5 46.5t108 17q79 0 139.5 -26t95.5 -74l-91 -81q-26 35 -60 51.5t-89 16.5z" />
    <glyph glyph-name="Scircumflex" unicode="&#x15c;" horiz-adv-x="583" 
d="M253 -12q-85 0 -150.5 28.5t-102.5 96.5l96 74q27 -45 65 -65.5t92 -20.5q72 0 109.5 32.5t37.5 81.5q0 35 -23.5 55t-63.5 28l-53 11q-75 16 -118.5 59t-43.5 123q0 46 18.5 86t52 69.5t81.5 46.5t108 17q79 0 139.5 -26t95.5 -74l-91 -81q-26 35 -60 51.5t-89 16.5
q-60 0 -94 -25.5t-34 -69.5q0 -35 21 -53.5t63 -27.5l50 -10q79 -17 125 -61t46 -123q0 -45 -18.5 -88t-54 -76.5t-87 -54t-117.5 -20.5zM452 949l95 -154l-66 -49l-96 115l-136 -116l-61 50l151 154h113z" />
    <glyph glyph-name="Scommaaccent" unicode="&#x218;" horiz-adv-x="583" 
d="M253 -12q-85 0 -150.5 28.5t-102.5 96.5l96 74q27 -45 65 -65.5t92 -20.5q72 0 109.5 32.5t37.5 81.5q0 35 -23.5 55t-63.5 28l-53 11q-75 16 -118.5 59t-43.5 123q0 46 18.5 86t52 69.5t81.5 46.5t108 17q79 0 139.5 -26t95.5 -74l-91 -81q-26 35 -60 51.5t-89 16.5
q-60 0 -94 -25.5t-34 -69.5q0 -35 21 -53.5t63 -27.5l50 -10q79 -17 125 -61t46 -123q0 -45 -18.5 -88t-54 -76.5t-87 -54t-117.5 -20.5zM233 -49q57 0 57 -47q0 -5 -0.5 -10t-2.5 -16q-9 -41 -34 -81t-54 -63h-76q28 22 44.5 43t28.5 49q-20 2 -27.5 13t-7.5 28
q0 4 0.5 9.5t2.5 16.5q13 58 69 58z" />
    <glyph glyph-name="uni1E9E" unicode="&#x1e9e;" horiz-adv-x="717" 
d="M418 95q46 0 73.5 25.5t36.5 65.5q6 24 8 36.5t2 19.5q0 32 -20 51t-66 19h-101l21 104l181 171h-282l-118 -587h-126l140 698h539l-24 -122l-174 -164l-1 -5q33 -2 62 -13t50.5 -31t34 -49.5t12.5 -68.5q0 -47 -17 -93t-49 -82.5t-79.5 -59t-107.5 -22.5
q-75 0 -121.5 25.5t-71.5 70.5l94 72q19 -29 43.5 -45t60.5 -16z" />
    <glyph glyph-name="Tbar" unicode="&#x166;" horiz-adv-x="565" 
d="M352 294l-58 -294h-126l58 294h-146l19 94h146l40 198h-192l22 112h510l-22 -112h-192l-39 -198h145l-19 -94h-146z" />
    <glyph glyph-name="Tcaron" unicode="&#x164;" horiz-adv-x="565" 
d="M410 586l-117 -586h-126l117 586h-192l22 112h510l-22 -112h-192zM324 754l-96 154l66 50l94 -116l138 116l63 -50l-151 -154h-114z" />
    <glyph glyph-name="Tcommaaccent" unicode="&#x162;" horiz-adv-x="565" 
d="M410 586l-117 -586h-126l117 586h-192l22 112h510l-22 -112h-192zM217 -49q57 0 57 -47q0 -5 -0.5 -10t-2.5 -16q-9 -41 -34 -81t-54 -63h-76q28 22 44.5 43t28.5 49q-20 2 -27.5 13t-7.5 28q0 4 0.5 9.5t2.5 16.5q13 58 69 58z" />
    <glyph glyph-name="uni021A" unicode="&#x21a;" horiz-adv-x="565" 
d="M410 586l-117 -586h-126l117 586h-192l22 112h510l-22 -112h-192zM217 -49q57 0 57 -47q0 -5 -0.5 -10t-2.5 -16q-9 -41 -34 -81t-54 -63h-76q28 22 44.5 43t28.5 49q-20 2 -27.5 13t-7.5 28q0 4 0.5 9.5t2.5 16.5q13 58 69 58z" />
    <glyph glyph-name="Thorn" unicode="&#xde;" horiz-adv-x="620" 
d="M27 0l140 698h126l-25 -128h133q102 0 154.5 -48t52.5 -133q0 -55 -19 -100.5t-53.5 -78.5t-82 -51.5t-105.5 -18.5h-168l-27 -140h-126zM204 252h160q38 0 65 19.5t36 59.5q7 29 9.5 43t2.5 23q0 26 -17 43.5t-57 17.5h-159z" />
    <glyph glyph-name="Uacute" unicode="&#xda;" horiz-adv-x="671" 
d="M289 698l-83 -419q-8 -35 -8 -66q0 -54 28 -81.5t81 -27.5q67 0 106 40t57 130l85 424h125l-84 -422q-15 -76 -39.5 -130.5t-60 -89.5t-84 -51.5t-112.5 -16.5q-109 0 -167 55.5t-58 163.5q0 20 2 43t8 50l79 398h125zM444 744l-73 40l114 184l99 -52z" />
    <glyph glyph-name="Ubreve" unicode="&#x16c;" horiz-adv-x="671" 
d="M289 698l-83 -419q-8 -35 -8 -66q0 -54 28 -81.5t81 -27.5q67 0 106 40t57 130l85 424h125l-84 -422q-15 -76 -39.5 -130.5t-60 -89.5t-84 -51.5t-112.5 -16.5q-109 0 -167 55.5t-58 163.5q0 20 2 43t8 50l79 398h125zM432 747q-41 0 -69 14.5t-46 37.5t-28.5 51.5
t-15.5 56.5l70 35l16 -35q15 -33 31.5 -52t46.5 -19q27 0 49.5 17.5t49.5 55.5l25 33l73 -38q-16 -29 -34.5 -57t-42.5 -50t-55 -36t-70 -14z" />
    <glyph glyph-name="Ucircumflex" unicode="&#xdb;" horiz-adv-x="671" 
d="M289 698l-83 -419q-8 -35 -8 -66q0 -54 28 -81.5t81 -27.5q67 0 106 40t57 130l85 424h125l-84 -422q-15 -76 -39.5 -130.5t-60 -89.5t-84 -51.5t-112.5 -16.5q-109 0 -167 55.5t-58 163.5q0 20 2 43t8 50l79 398h125zM516 949l95 -154l-66 -49l-96 115l-136 -116l-61 50
l151 154h113z" />
    <glyph glyph-name="Udieresis" unicode="&#xdc;" horiz-adv-x="671" 
d="M289 698l-83 -419q-8 -35 -8 -66q0 -54 28 -81.5t81 -27.5q67 0 106 40t57 130l85 424h125l-84 -422q-15 -76 -39.5 -130.5t-60 -89.5t-84 -51.5t-112.5 -16.5q-109 0 -167 55.5t-58 163.5q0 20 2 43t8 50l79 398h125zM335 768q-31 0 -44.5 12.5t-13.5 32.5q0 5 1 12.5
t4 23.5q5 24 22.5 40.5t54.5 16.5q29 0 43 -12t14 -32q0 -5 -1 -13t-4 -22q-5 -25 -22.5 -42t-53.5 -17zM529 768q-30 0 -44 12.5t-14 32.5q0 5 1 12.5t4 23.5q5 24 22.5 40.5t54.5 16.5q30 0 44 -12t14 -32q0 -5 -1 -13t-4 -22q-5 -25 -22.5 -42t-54.5 -17z" />
    <glyph glyph-name="uni1EE4" unicode="&#x1ee4;" horiz-adv-x="671" 
d="M289 698l-83 -419q-8 -35 -8 -66q0 -54 28 -81.5t81 -27.5q67 0 106 40t57 130l85 424h125l-84 -422q-15 -76 -39.5 -130.5t-60 -89.5t-84 -51.5t-112.5 -16.5q-109 0 -167 55.5t-58 163.5q0 20 2 43t8 50l79 398h125zM248 -193q-32 0 -47 13t-15 35q0 5 1 11.5t5 21.5
q6 25 22.5 40t52.5 15q32 0 46.5 -13t14.5 -34q0 -5 -1 -11.5t-4 -22.5q-5 -25 -22.5 -40t-52.5 -15z" />
    <glyph glyph-name="Ugrave" unicode="&#xd9;" horiz-adv-x="671" 
d="M289 698l-83 -419q-8 -35 -8 -66q0 -54 28 -81.5t81 -27.5q67 0 106 40t57 130l85 424h125l-84 -422q-15 -76 -39.5 -130.5t-60 -89.5t-84 -51.5t-112.5 -16.5q-109 0 -167 55.5t-58 163.5q0 20 2 43t8 50l79 398h125zM311 917l108 51l67 -190l-76 -33z" />
    <glyph glyph-name="uni1EE6" unicode="&#x1ee6;" horiz-adv-x="671" 
d="M289 698l-83 -419q-8 -35 -8 -66q0 -54 28 -81.5t81 -27.5q67 0 106 40t57 130l85 424h125l-84 -422q-15 -76 -39.5 -130.5t-60 -89.5t-84 -51.5t-112.5 -16.5q-109 0 -167 55.5t-58 163.5q0 20 2 43t8 50l79 398h125zM361 954h135q38 0 55.5 -16t17.5 -38
q0 -30 -15.5 -55t-38.5 -54l-48 -55l-60 31l54 97h-116z" />
    <glyph glyph-name="Uhungarumlaut" unicode="&#x170;" horiz-adv-x="671" 
d="M289 698l-83 -419q-8 -35 -8 -66q0 -54 28 -81.5t81 -27.5q67 0 106 40t57 130l85 424h125l-84 -422q-15 -76 -39.5 -130.5t-60 -89.5t-84 -51.5t-112.5 -16.5q-109 0 -167 55.5t-58 163.5q0 20 2 43t8 50l79 398h125zM343 745l-68 33l111 186l93 -49zM527 745l-67 33
l110 186l93 -49z" />
    <glyph glyph-name="Umacron" unicode="&#x16a;" horiz-adv-x="671" 
d="M289 698l-83 -419q-8 -35 -8 -66q0 -54 28 -81.5t81 -27.5q67 0 106 40t57 130l85 424h125l-84 -422q-15 -76 -39.5 -130.5t-60 -89.5t-84 -51.5t-112.5 -16.5q-109 0 -167 55.5t-58 163.5q0 20 2 43t8 50l79 398h125zM315 884h276l-18 -91h-276z" />
    <glyph glyph-name="Uogonek" unicode="&#x172;" horiz-adv-x="671" 
d="M289 698l-83 -419q-8 -35 -8 -66q0 -54 28 -81.5t81 -27.5q67 0 106 40t57 130l85 424h125l-84 -422q-15 -77 -36 -124t-47 -76.5t-58 -48t-71 -38.5q-34 -17 -55.5 -32.5t-33.5 -28.5t-16.5 -24t-4.5 -18q0 -14 8 -22t26 -8q15 0 29 6t25 21l48 -48q-17 -20 -45 -32.5
t-72 -12.5q-46 0 -79 19.5t-33 60.5q0 35 27.5 65.5t84.5 48.5l-1 4q-106 2 -161.5 57.5t-55.5 161.5q0 20 2 43t8 50l79 398h125z" />
    <glyph glyph-name="Uring" unicode="&#x16e;" horiz-adv-x="671" 
d="M289 698l-83 -419q-8 -35 -8 -66q0 -54 28 -81.5t81 -27.5q67 0 106 40t57 130l85 424h125l-84 -422q-15 -76 -39.5 -130.5t-60 -89.5t-84 -51.5t-112.5 -16.5q-109 0 -167 55.5t-58 163.5q0 20 2 43t8 50l79 398h125zM426 727q-53 0 -86.5 32.5t-33.5 82.5q0 35 12 63.5
t33 48.5t49.5 31t60.5 11q53 0 86.5 -32.5t33.5 -82.5q0 -35 -12 -63.5t-33 -48.5t-49.5 -31t-60.5 -11zM432 793q25 0 40 14t20 39q3 14 5 24.5t2 18.5q0 41 -44 41q-25 0 -40 -14t-20 -39q-6 -29 -6 -43q0 -41 43 -41z" />
    <glyph glyph-name="Utilde" unicode="&#x168;" horiz-adv-x="671" 
d="M289 698l-83 -419q-8 -35 -8 -66q0 -54 28 -81.5t81 -27.5q67 0 106 40t57 130l85 424h125l-84 -422q-15 -76 -39.5 -130.5t-60 -89.5t-84 -51.5t-112.5 -16.5q-109 0 -167 55.5t-58 163.5q0 20 2 43t8 50l79 398h125zM511 767q-23 0 -41 7t-35 16q-20 11 -36.5 17
t-33.5 6t-29 -6.5t-29 -19.5l-39 60q21 26 48.5 43t62.5 17q23 0 40.5 -7t35.5 -16q20 -11 36.5 -17t33.5 -6t29 6.5t29 19.5l39 -60q-21 -26 -48.5 -43t-62.5 -17z" />
    <glyph glyph-name="Uhorn" unicode="&#x1af;" horiz-adv-x="671" 
d="M289 698l-83 -419q-8 -35 -8 -66q0 -54 28 -81.5t81 -27.5q67 0 106 40t57 130l85 424h97l22 108h108l-20 -100q-8 -42 -28 -63.5t-69 -21.5l-69 -345q-15 -76 -39.5 -130.5t-60 -89.5t-84 -51.5t-112.5 -16.5q-109 0 -167 55.5t-58 163.5q0 20 2 43t8 50l79 398h125z
" />
    <glyph glyph-name="uni1EE8" unicode="&#x1ee8;" horiz-adv-x="671" 
d="M289 698l-83 -419q-8 -35 -8 -66q0 -54 28 -81.5t81 -27.5q67 0 106 40t57 130l85 424h97l22 108h108l-20 -100q-8 -42 -28 -63.5t-69 -21.5l-69 -345q-15 -76 -39.5 -130.5t-60 -89.5t-84 -51.5t-112.5 -16.5q-109 0 -167 55.5t-58 163.5q0 20 2 43t8 50l79 398h125z
M438 744l-73 40l114 184l99 -52z" />
    <glyph glyph-name="uni1EF0" unicode="&#x1ef0;" horiz-adv-x="671" 
d="M289 698l-83 -419q-8 -35 -8 -66q0 -54 28 -81.5t81 -27.5q67 0 106 40t57 130l85 424h97l22 108h108l-20 -100q-8 -42 -28 -63.5t-69 -21.5l-69 -345q-15 -76 -39.5 -130.5t-60 -89.5t-84 -51.5t-112.5 -16.5q-109 0 -167 55.5t-58 163.5q0 20 2 43t8 50l79 398h125z
M247 -193q-32 0 -47 13t-15 35q0 5 1 11.5t5 21.5q6 25 22.5 40t52.5 15q32 0 46.5 -13t14.5 -34q0 -5 -1 -11.5t-4 -22.5q-5 -25 -22.5 -40t-52.5 -15z" />
    <glyph glyph-name="uni1EEA" unicode="&#x1eea;" horiz-adv-x="671" 
d="M289 698l-83 -419q-8 -35 -8 -66q0 -54 28 -81.5t81 -27.5q67 0 106 40t57 130l85 424h97l22 108h108l-20 -100q-8 -42 -28 -63.5t-69 -21.5l-69 -345q-15 -76 -39.5 -130.5t-60 -89.5t-84 -51.5t-112.5 -16.5q-109 0 -167 55.5t-58 163.5q0 20 2 43t8 50l79 398h125z
M305 917l108 51l67 -190l-76 -33z" />
    <glyph glyph-name="uni1EEC" unicode="&#x1eec;" horiz-adv-x="671" 
d="M289 698l-83 -419q-8 -35 -8 -66q0 -54 28 -81.5t81 -27.5q67 0 106 40t57 130l85 424h97l22 108h108l-20 -100q-8 -42 -28 -63.5t-69 -21.5l-69 -345q-15 -76 -39.5 -130.5t-60 -89.5t-84 -51.5t-112.5 -16.5q-109 0 -167 55.5t-58 163.5q0 20 2 43t8 50l79 398h125z
M355 954h135q38 0 55.5 -16t17.5 -38q0 -30 -15.5 -55t-38.5 -54l-48 -55l-60 31l54 97h-116z" />
    <glyph glyph-name="uni1EEE" unicode="&#x1eee;" horiz-adv-x="671" 
d="M289 698l-83 -419q-8 -35 -8 -66q0 -54 28 -81.5t81 -27.5q67 0 106 40t57 130l85 424h97l22 108h108l-20 -100q-8 -42 -28 -63.5t-69 -21.5l-69 -345q-15 -76 -39.5 -130.5t-60 -89.5t-84 -51.5t-112.5 -16.5q-109 0 -167 55.5t-58 163.5q0 20 2 43t8 50l79 398h125z
M485 769q-20 0 -34.5 6.5t-29.5 15.5t-29.5 15.5t-28.5 6.5q-23 0 -52 -25l-38 58q17 26 43 42.5t57 16.5q20 0 34.5 -6.5t29.5 -15.5t29.5 -15.5t28.5 -6.5q23 0 52 25l38 -58q-17 -26 -43 -42.5t-57 -16.5z" />
    <glyph glyph-name="Wacute" unicode="&#x1e82;" horiz-adv-x="918" 
d="M131 0l-19 698h125v-301l-6 -266h8l109 275l126 292h140l10 -286l-1 -287h8l93 249l127 324h128l-298 -698h-146l-11 314l-3 243h-7l-95 -230l-140 -327h-148zM570 744l-73 40l114 184l99 -52z" />
    <glyph glyph-name="Wcircumflex" unicode="&#x174;" horiz-adv-x="918" 
d="M131 0l-19 698h125v-301l-6 -266h8l109 275l126 292h140l10 -286l-1 -287h8l93 249l127 324h128l-298 -698h-146l-11 314l-3 243h-7l-95 -230l-140 -327h-148zM642 949l95 -154l-66 -49l-96 115l-136 -116l-61 50l151 154h113z" />
    <glyph glyph-name="Wdieresis" unicode="&#x1e84;" horiz-adv-x="918" 
d="M131 0l-19 698h125v-301l-6 -266h8l109 275l126 292h140l10 -286l-1 -287h8l93 249l127 324h128l-298 -698h-146l-11 314l-3 243h-7l-95 -230l-140 -327h-148zM461 768q-31 0 -44.5 12.5t-13.5 32.5q0 5 1 12.5t4 23.5q5 24 22.5 40.5t54.5 16.5q29 0 43 -12t14 -32
q0 -5 -1 -13t-4 -22q-5 -25 -22.5 -42t-53.5 -17zM655 768q-30 0 -44 12.5t-14 32.5q0 5 1 12.5t4 23.5q5 24 22.5 40.5t54.5 16.5q30 0 44 -12t14 -32q0 -5 -1 -13t-4 -22q-5 -25 -22.5 -42t-54.5 -17z" />
    <glyph glyph-name="Wgrave" unicode="&#x1e80;" horiz-adv-x="918" 
d="M131 0l-19 698h125v-301l-6 -266h8l109 275l126 292h140l10 -286l-1 -287h8l93 249l127 324h128l-298 -698h-146l-11 314l-3 243h-7l-95 -230l-140 -327h-148zM437 917l108 51l67 -190l-76 -33z" />
    <glyph glyph-name="Yacute" unicode="&#xdd;" horiz-adv-x="610" 
d="M188 0l55 272l-148 426h129l100 -308h6l216 308h140l-319 -435l-53 -263h-126zM403 744l-73 40l114 184l99 -52z" />
    <glyph glyph-name="Ycircumflex" unicode="&#x176;" horiz-adv-x="610" 
d="M188 0l55 272l-148 426h129l100 -308h6l216 308h140l-319 -435l-53 -263h-126zM475 949l95 -154l-66 -49l-96 115l-136 -116l-61 50l151 154h113z" />
    <glyph glyph-name="uni1EF4" unicode="&#x1ef4;" horiz-adv-x="610" 
d="M188 0l55 272l-148 426h129l100 -308h6l216 308h140l-319 -435l-53 -263h-126zM217 -193q-32 0 -47 13t-15 35q0 5 1 11.5t5 21.5q6 25 22.5 40t52.5 15q32 0 46.5 -13t14.5 -34q0 -5 -1 -11.5t-4 -22.5q-5 -25 -22.5 -40t-52.5 -15z" />
    <glyph glyph-name="Ydieresis" unicode="&#x178;" horiz-adv-x="610" 
d="M188 0l55 272l-148 426h129l100 -308h6l216 308h140l-319 -435l-53 -263h-126zM294 768q-31 0 -44.5 12.5t-13.5 32.5q0 5 1 12.5t4 23.5q5 24 22.5 40.5t54.5 16.5q29 0 43 -12t14 -32q0 -5 -1 -13t-4 -22q-5 -25 -22.5 -42t-53.5 -17zM488 768q-30 0 -44 12.5t-14 32.5
q0 5 1 12.5t4 23.5q5 24 22.5 40.5t54.5 16.5q30 0 44 -12t14 -32q0 -5 -1 -13t-4 -22q-5 -25 -22.5 -42t-54.5 -17z" />
    <glyph glyph-name="Ygrave" unicode="&#x1ef2;" horiz-adv-x="610" 
d="M188 0l55 272l-148 426h129l100 -308h6l216 308h140l-319 -435l-53 -263h-126zM270 917l108 51l67 -190l-76 -33z" />
    <glyph glyph-name="uni1EF6" unicode="&#x1ef6;" horiz-adv-x="610" 
d="M188 0l55 272l-148 426h129l100 -308h6l216 308h140l-319 -435l-53 -263h-126zM320 954h135q38 0 55.5 -16t17.5 -38q0 -30 -15.5 -55t-38.5 -54l-48 -55l-60 31l54 97h-116z" />
    </font>
</defs>
</svg>
