<?xml version="1.0" standalone="no"?>
<!DOCTYPE svg PUBLIC "-//W3C//DTD SVG 1.1//EN" "http://www.w3.org/Graphics/SVG/1.1/DTD/svg11.dtd" >
<svg xmlns="http://www.w3.org/2000/svg" xmlns:xlink="http://www.w3.org/1999/xlink" version="1.1">
<metadata>
Created by FontForge 20170812 at Fri Dec 22 17:13:06 2017
 By ,,,
Copyright 2017 IBM Corp. All rights reserved.
</metadata>
<defs>
<font id="IBMPlexMono" horiz-adv-x="600" >
  <font-face 
    font-family="IBM Plex Mono"
    font-weight="400"
    font-stretch="normal"
    units-per-em="1000"
    panose-1="2 11 5 9 5 2 3 0 2 3"
    ascent="780"
    descent="-220"
    x-height="516"
    cap-height="698"
    bbox="-260 -251 648 1119"
    underline-thickness="60"
    underline-position="-170"
    unicode-range="U+000D-FB02"
  />
<missing-glyph 
d="M32 0v780h536v-780h-536zM92 60h416v660h-416v-660z" />
    <glyph glyph-name=".notdef" 
d="M32 0v780h536v-780h-536zM92 60h416v660h-416v-660z" />
    <glyph glyph-name=".null" horiz-adv-x="0" 
 />
    <glyph glyph-name=".null" horiz-adv-x="0" 
 />
    <glyph glyph-name="uni000D" unicode="&#xd;" 
 />
    <glyph glyph-name="space" unicode=" " 
 />
    <glyph glyph-name="a" unicode="a" 
d="M495 0q-47 0 -67 24t-25 60h-5q-17 -45 -54.5 -70.5t-100.5 -25.5q-81 0 -129 42t-48 115q0 72 52.5 111t169.5 39h110v51q0 57 -32 85.5t-91 28.5q-52 0 -85 -20.5t-53 -55.5l-54 40q10 20 27 39t42 33.5t57 23t71 8.5q91 0 144.5 -46t53.5 -128v-284h72v-70h-55z
M257 55q31 0 56.5 7.5t44.5 20t29.5 30t10.5 37.5v85h-110q-72 0 -105 -20t-33 -58v-21q0 -40 28.5 -60.5t78.5 -20.5z" />
    <glyph glyph-name="a.alt01" 
d="M425 84h-4q-50 -96 -159 -96q-95 0 -148.5 71t-53.5 199t53.5 199t148.5 71q109 0 159 -96h4v84h80v-516h-80v84zM293 59q27 0 51 7t42 20.5t28.5 33t10.5 45.5v186q0 26 -10.5 45.5t-28.5 33t-42 20.5t-51 7q-70 0 -108.5 -42.5t-38.5 -112.5v-88q0 -70 38.5 -112.5
t108.5 -42.5z" />
    <glyph glyph-name="b" unicode="b" 
d="M95 740h80v-308h4q50 96 159 96q95 0 148.5 -71t53.5 -199t-53.5 -199t-148.5 -71q-109 0 -159 96h-4v-84h-80v740zM307 59q70 0 108.5 42.5t38.5 112.5v88q0 70 -38.5 112.5t-108.5 42.5q-27 0 -51 -7t-42 -20.5t-28.5 -33t-10.5 -45.5v-186q0 -26 10.5 -45.5t28.5 -33
t42 -20.5t51 -7z" />
    <glyph glyph-name="c" unicode="c" 
d="M318 -12q-56 0 -99.5 19.5t-73.5 54.5t-45.5 85t-15.5 111t16 111t46 85.5t73 54.5t98 19q75 0 122 -33t69 -86l-64 -34q-14 40 -46.5 62t-80.5 22q-35 0 -62.5 -11.5t-46.5 -32.5t-28.5 -50t-9.5 -63v-88q0 -34 9.5 -63t28.5 -50t47 -32.5t64 -11.5q52 0 86 24t54 66
l57 -39q-23 -52 -71.5 -86t-126.5 -34z" />
    <glyph glyph-name="d" unicode="d" 
d="M425 84h-4q-50 -96 -159 -96q-95 0 -148.5 71t-53.5 199t53.5 199t148.5 71q109 0 159 -96h4v308h80v-740h-80v84zM293 59q27 0 51 7t42 20.5t28.5 33t10.5 45.5v186q0 26 -10.5 45.5t-28.5 33t-42 20.5t-51 7q-70 0 -108.5 -42.5t-38.5 -112.5v-88q0 -70 38.5 -112.5
t108.5 -42.5z" />
    <glyph glyph-name="e" unicode="e" 
d="M309 -12q-56 0 -100.5 19t-76 54.5t-48.5 85t-17 110.5q0 62 17.5 112t48.5 85.5t74.5 54.5t96.5 19q52 0 94.5 -19t72.5 -52.5t46 -79.5t16 -101v-38h-382v-24q0 -34 11 -63t31.5 -50t50 -32.5t65.5 -11.5q52 0 90 24t58 66l59 -40q-23 -52 -76.5 -85.5t-130.5 -33.5z
M304 462q-33 0 -61 -12t-48.5 -33t-32 -49.5t-11.5 -62.5v-7h296v11q0 34 -10.5 62t-29 48.5t-45 31.5t-58.5 11z" />
    <glyph glyph-name="f" unicode="f" 
d="M83 68h174v380h-184v68h184v106q0 52 27.5 85t86.5 33h173v-68h-207v-156h207v-68h-207v-380h184v-68h-438v68z" />
    <glyph glyph-name="g" unicode="g" 
d="M561 -59q0 -78 -65 -115.5t-195 -37.5q-125 0 -179.5 33t-54.5 95q0 42 22 65t62 34v12q-22 11 -34 28t-12 43q0 40 26.5 60t66.5 30v4q-48 21 -74.5 62t-26.5 96q0 39 14 72t40.5 56.5t63.5 36.5t82 13q58 0 102 -21v9q0 30 14 50t48 20h95v-70h-116v-35q28 -24 43 -57
t15 -74q0 -39 -14.5 -72t-40.5 -56.5t-63.5 -36.5t-82.5 -13q-13 0 -25 1t-24 3q-12 -2 -25 -6.5t-24 -12t-18 -17.5t-7 -23q0 -23 23 -30.5t60 -7.5h114q100 0 145 -37.5t45 -100.5zM486 -63q0 31 -25 49.5t-87 18.5h-179q-52 -21 -52 -70q0 -34 27 -58.5t90 -24.5h78
q70 0 109 21.5t39 63.5zM297 234q60 0 88.5 28t28.5 74v29q0 46 -28.5 73.5t-88.5 27.5t-88 -27.5t-28 -73.5v-29q0 -46 28 -74t88 -28z" />
    <glyph glyph-name="g.alt01" 
d="M505 17q0 -107 -59 -168t-168 -61q-63 0 -108.5 19.5t-76.5 51.5l47 55q26 -27 60 -41.5t79 -14.5q146 0 146 154v86h-4q-50 -96 -159 -96q-47 0 -84.5 18.5t-63.5 52.5t-40 82.5t-14 109.5t14 109.5t40 82.5t63.5 52.5t84.5 18.5q109 0 159 -96h4v84h80v-499zM293 73
q27 0 51 7t42 20.5t28.5 33t10.5 45.5v172q0 26 -10.5 45.5t-28.5 33t-42 20.5t-51 7q-70 0 -108.5 -42.5t-38.5 -112.5v-74q0 -70 38.5 -112.5t108.5 -42.5z" />
    <glyph glyph-name="g.alt02" 
d="M301 -212q-125 0 -179.5 33t-54.5 95q0 42 22 65t62 34v12q-22 11 -34 28t-12 43q0 40 26.5 60t66.5 30v4q-48 21 -74.5 62t-26.5 96q0 39 14 72t40.5 56.5t63.5 36.5t82 13q43 0 78 -12h181v-64h-94q19 -20 27.5 -46.5t8.5 -55.5q0 -39 -14.5 -72t-40.5 -56.5
t-63.5 -36.5t-82.5 -13q-13 0 -25 1t-24 3q-12 -2 -25 -6.5t-24 -12t-18 -17.5t-7 -23q0 -23 23 -30.5t60 -7.5h114q100 0 145 -37.5t45 -100.5q0 -78 -65 -115.5t-195 -37.5zM297 234q60 0 88.5 28t28.5 74v29q0 46 -28.5 73.5t-88.5 27.5t-88 -27.5t-28 -73.5v-29
q0 -46 28 -74t88 -28zM486 -63q0 31 -25 49.5t-87 18.5h-179q-52 -21 -52 -70q0 -34 27 -58.5t90 -24.5h78q70 0 109 21.5t39 63.5z" />
    <glyph glyph-name="h" unicode="h" 
d="M98 740h80v-308h4q8 19 20 36.5t29.5 30.5t41.5 21t56 8q81 0 130 -51.5t49 -145.5v-331h-80v317q0 71 -31 105.5t-91 34.5q-24 0 -47 -6t-41 -18t-29 -31t-11 -44v-358h-80v740z" />
    <glyph glyph-name="i" unicode="i" 
d="M332 630q-35 0 -49 14.5t-14 36.5v16q0 22 14 36.5t49 14.5t49 -14.5t14 -36.5v-16q0 -22 -14 -36.5t-49 -14.5zM106 68h186v380h-186v68h266v-448h174v-68h-440v68z" />
    <glyph glyph-name="j" unicode="j" 
d="M102 -132h250v580h-259v68h339v-598q0 -52 -27.5 -85t-86.5 -33h-216v68zM392 630q-35 0 -49 14.5t-14 36.5v16q0 22 14 36.5t49 14.5t49 -14.5t14 -36.5v-16q0 -22 -14 -36.5t-49 -14.5z" />
    <glyph glyph-name="k" unicode="k" 
d="M105 740h80v-467h4l90 85l172 158h98l-214 -202l239 -314h-99l-201 268l-89 -81v-187h-80v740z" />
    <glyph glyph-name="l" unicode="l" 
d="M80 68h180v604h-180v68h260v-672h180v-68h-440v68z" />
    <glyph glyph-name="m" unicode="m" 
d="M54 0v516h74v-60h4q12 30 34 51t65 21q45 0 67 -22.5t27 -58.5h3q14 35 40 58t72 23q63 0 84.5 -44t21.5 -126v-358h-74v345q0 66 -13.5 91.5t-49.5 25.5q-32 0 -52 -20.5t-20 -62.5v-379h-74v345q0 66 -13.5 91.5t-48.5 25.5q-32 0 -52.5 -20.5t-20.5 -62.5v-379h-74z
" />
    <glyph glyph-name="n" unicode="n" 
d="M98 0v516h80v-84h4q8 19 20 36.5t29.5 30.5t41.5 21t56 8q81 0 130 -51.5t49 -145.5v-331h-80v317q0 71 -31 105.5t-91 34.5q-24 0 -47 -6t-41 -18t-29 -31t-11 -44v-358h-80z" />
    <glyph glyph-name="o" unicode="o" 
d="M300 -12q-54 0 -97.5 19t-74 54.5t-46.5 85t-16 111.5q0 61 16 111t46.5 85.5t74 54.5t97.5 19t97.5 -19t74 -54.5t46.5 -85.5t16 -111q0 -62 -16 -111.5t-46.5 -85t-74 -54.5t-97.5 -19zM300 57q67 0 108 40t41 124v74q0 84 -41 124t-108 40t-108 -40t-41 -124v-74
q0 -84 41 -124t108 -40z" />
    <glyph glyph-name="p" unicode="p" 
d="M95 516h80v-84h4q50 96 159 96q95 0 148.5 -71t53.5 -199t-53.5 -199t-148.5 -71q-109 0 -159 96h-4v-284h-80v716zM307 59q70 0 108.5 42.5t38.5 112.5v88q0 70 -38.5 112.5t-108.5 42.5q-27 0 -51 -7t-42 -20.5t-28.5 -33t-10.5 -45.5v-186q0 -26 10.5 -45.5t28.5 -33
t42 -20.5t51 -7z" />
    <glyph glyph-name="q" unicode="q" 
d="M425 84h-4q-50 -96 -159 -96q-95 0 -148.5 71t-53.5 199t53.5 199t148.5 71q109 0 159 -96h4v84h80v-716h-80v284zM293 59q27 0 51 7t42 20.5t28.5 33t10.5 45.5v186q0 26 -10.5 45.5t-28.5 33t-42 20.5t-51 7q-70 0 -108.5 -42.5t-38.5 -112.5v-88q0 -70 38.5 -112.5
t108.5 -42.5z" />
    <glyph glyph-name="r" unicode="r" 
d="M77 68h151v380h-151v68h231v-130h5q16 61 60.5 95.5t113.5 34.5h72v-80h-97q-69 0 -111.5 -40t-42.5 -105v-223h200v-68h-431v68z" />
    <glyph glyph-name="s" unicode="s" 
d="M306 -12q-81 0 -139.5 27.5t-99.5 73.5l54 47q37 -39 81 -60t106 -21q60 0 98.5 21.5t38.5 67.5q0 20 -7.5 33.5t-20.5 21.5t-29 12.5t-34 7.5l-81 12q-27 4 -58.5 11t-57.5 22.5t-43.5 41.5t-17.5 68q0 39 15.5 67.5t43.5 48t66 29t83 9.5q70 0 121.5 -22t88.5 -61
l-52 -49q-9 11 -22.5 22.5t-33 21t-45.5 15.5t-60 6q-61 0 -93.5 -21t-32.5 -61q0 -20 7.5 -33.5t20.5 -21.5t29.5 -12.5t33.5 -7.5l81 -12q28 -4 59 -11t57 -22.5t43.5 -41.5t17.5 -68q0 -77 -59.5 -119t-158.5 -42z" />
    <glyph glyph-name="t" unicode="t" 
d="M325 0q-59 0 -86.5 33t-27.5 85v330h-172v68h128q26 0 36.5 10.5t10.5 36.5v135h77v-182h235v-68h-235v-380h235v-68h-201z" />
    <glyph glyph-name="u" unicode="u" 
d="M422 84h-4q-8 -19 -20 -36.5t-29.5 -30.5t-41.5 -21t-56 -8q-81 0 -130 51.5t-49 145.5v331h80v-317q0 -71 31 -105.5t91 -34.5q24 0 47 6t41 18t29 30.5t11 44.5v358h80v-516h-80v84z" />
    <glyph glyph-name="v" unicode="v" 
d="M249 0l-185 516h81l74 -216l80 -233h4l80 233l74 216h79l-185 -516h-102z" />
    <glyph glyph-name="w" unicode="w" 
d="M30 516h71l59 -446h9l88 446h88l88 -446h9l59 446h69l-79 -516h-104l-82 432h-8l-84 -432h-104z" />
    <glyph glyph-name="x" unicode="x" 
d="M61 0l192 262l-187 254h96l78 -109l62 -86h4l60 86l77 109h92l-189 -253l194 -263h-96l-87 121l-59 82h-4l-57 -82l-84 -121h-92z" />
    <glyph glyph-name="y" unicode="y" 
d="M467 516h80l-256 -629q-9 -22 -20 -38.5t-26 -27t-36 -16t-50 -5.5h-76v68h120l58 142l-208 506h82l87 -216l77 -196h4l77 196z" />
    <glyph glyph-name="z" unicode="z" 
d="M85 0v77l333 371h-322v68h409v-77l-333 -371h343v-68h-430z" />
    <glyph glyph-name="A" unicode="A" 
d="M481 0l-59 199h-245l-59 -199h-87l214 698h111l214 -698h-89zM304 609h-9l-98 -337h205z" />
    <glyph glyph-name="B" unicode="B" 
d="M88 698h237q90 0 141 -49t51 -131q0 -63 -30.5 -99t-78.5 -51v-3q59 -14 97 -52.5t38 -111.5q0 -42 -14 -79t-39.5 -64t-60 -42.5t-74.5 -15.5h-267v698zM330 73q58 0 91 26t33 80v41q0 53 -33 79.5t-91 26.5h-158v-253h158zM316 395q53 0 83 23.5t30 71.5v39
q0 48 -30 72t-83 24h-144v-230h144z" />
    <glyph glyph-name="C" unicode="C" 
d="M323 -12q-128 0 -190.5 93t-62.5 268t62.5 268t190.5 93q48 0 83 -13t60 -35t42 -49.5t30 -55.5l-72 -33q-9 23 -21 43.5t-28.5 36t-39 24.5t-54.5 9q-83 0 -123.5 -63t-40.5 -168v-114q0 -105 40.5 -168t123.5 -63q32 0 54.5 9t39 24.5t28.5 36t21 43.5l72 -33
q-13 -29 -30 -56t-42 -49t-60 -35t-83 -13z" />
    <glyph glyph-name="D" unicode="D" 
d="M95 698h195q128 0 191 -88t63 -261t-63 -261t-191 -88h-195v698zM286 73q84 0 126.5 58t42.5 164v108q0 106 -42.5 164t-126.5 58h-107v-552h107z" />
    <glyph glyph-name="E" unicode="E" 
d="M90 0v698h430v-73h-346v-235h334v-73h-334v-244h346v-73h-430z" />
    <glyph glyph-name="F" unicode="F" 
d="M90 0v698h440v-73h-356v-235h326v-73h-326v-317h-84z" />
    <glyph glyph-name="G" unicode="G" 
d="M444 93h-5q-9 -20 -21 -39t-30.5 -33.5t-44.5 -23.5t-62 -9q-114 0 -169.5 92t-55.5 264q0 180 61 273t188 93q49 0 85 -13t61.5 -35t42.5 -49.5t28 -55.5l-72 -33q-9 23 -20.5 43.5t-28 36t-39.5 24.5t-54 9q-84 0 -123.5 -63t-39.5 -168v-108q0 -53 8 -96.5t26.5 -75.5
t48 -49.5t72.5 -17.5q68 0 106 41t38 106v72h-147v67h225v-345h-78v93z" />
    <glyph glyph-name="H" unicode="H" 
d="M436 317h-272v-317h-84v698h84v-308h272v308h84v-698h-84v317z" />
    <glyph glyph-name="I" unicode="I" 
d="M84 0v67h174v564h-174v67h432v-67h-174v-564h174v-67h-432z" />
    <glyph glyph-name="J" unicode="J" 
d="M480 698v-517q0 -44 -15 -80t-42.5 -61t-65.5 -38.5t-83 -13.5q-80 0 -132 41.5t-68 116.5l80 17q5 -21 13.5 -39.5t23 -32t35.5 -21.5t50 -8q57 0 88.5 32.5t31.5 101.5v429h-252v73h336z" />
    <glyph glyph-name="K" unicode="K" 
d="M269 342l-100 -118v-224h-84v698h84v-364h3l92 116l206 248h101l-245 -294l252 -404h-98z" />
    <glyph glyph-name="L" unicode="L" 
d="M120 0v698h84v-625h331v-73h-415z" />
    <glyph glyph-name="M" unicode="M" 
d="M455 350v221h-8l-147 -359l-147 359h-8v-221v-350h-77v698h108l123 -308h6l123 308h104v-698h-77v350z" />
    <glyph glyph-name="N" unicode="N" 
d="M163 591h-7v-591h-76v698h119l238 -585h7v585h76v-698h-119z" />
    <glyph glyph-name="O" unicode="O" 
d="M300 -12q-64 0 -110 24.5t-76 70.5t-44 113t-14 153q0 85 14 152.5t44 113.5t76 70.5t110 24.5t110 -24.5t76 -70.5t44 -113.5t14 -152.5q0 -86 -14 -153t-44 -113t-76 -70.5t-110 -24.5zM300 61q42 0 71 16.5t48 46.5t27.5 72.5t8.5 95.5v114q0 52 -8.5 95t-27.5 73
t-48 46.5t-71 16.5t-71 -16.5t-48 -46.5t-27.5 -73t-8.5 -95v-114q0 -53 8.5 -95.5t27.5 -72.5t48 -46.5t71 -16.5z" />
    <glyph glyph-name="P" unicode="P" 
d="M90 0v698h254q97 0 148 -53t51 -148t-51 -148t-148 -53h-170v-296h-84zM174 369h168q53 0 82.5 26.5t29.5 75.5v52q0 49 -29.5 75.5t-82.5 26.5h-168v-256z" />
    <glyph glyph-name="Q" unicode="Q" 
d="M491 -164h-117q-59 0 -86.5 33t-27.5 85v37q-53 7 -91.5 34.5t-63.5 73t-37 109t-12 141.5q0 85 14 152.5t44 113.5t76 70.5t110 24.5t110 -24.5t76 -70.5t44 -113.5t14 -152.5q0 -157 -49 -250.5t-155 -107.5v-87h151v-68zM300 61q42 0 71 16.5t48 46.5t27.5 72.5
t8.5 95.5v114q0 52 -8.5 95t-27.5 73t-48 46.5t-71 16.5t-71 -16.5t-48 -46.5t-27.5 -73t-8.5 -95v-114q0 -53 8.5 -95.5t27.5 -72.5t48 -46.5t71 -16.5z" />
    <glyph glyph-name="R" unicode="R" 
d="M174 0h-84v698h254q97 0 148 -53t51 -148q0 -85 -44 -136t-128 -59l178 -302h-94l-170 298h-111v-298zM342 369q53 0 82.5 26.5t29.5 75.5v52q0 49 -29.5 75.5t-82.5 26.5h-168v-256h168z" />
    <glyph glyph-name="S" unicode="S" 
d="M298 -12q-94 0 -154 34.5t-99 88.5l61 50q41 -51 86.5 -76t108.5 -25q76 0 116 35t40 98q0 51 -29 79.5t-101 40.5l-78 13q-51 9 -85.5 27t-55.5 43.5t-30 56t-9 63.5q0 96 63 145t170 49q84 0 141.5 -28t92.5 -79l-59 -51q-29 38 -70 62t-106 24q-71 0 -109 -30t-38 -90
q0 -47 28.5 -76.5t102.5 -42.5l75 -13q51 -9 86 -27t56.5 -43t30.5 -56t9 -65q0 -97 -63.5 -152t-180.5 -55z" />
    <glyph glyph-name="T" unicode="T" 
d="M342 625v-625h-84v625h-233v73h550v-73h-233z" />
    <glyph glyph-name="U" unicode="U" 
d="M164 698v-419q0 -51 3 -91t16 -68.5t40.5 -43.5t76.5 -15t76.5 15t40.5 43.5t16 68.5t3 91v419h84v-399q0 -78 -7.5 -136t-31 -97t-67 -58.5t-114.5 -19.5t-114.5 19.5t-67 58.5t-31 97t-7.5 136v399h84z" />
    <glyph glyph-name="V" unicode="V" 
d="M243 0l-207 698h89l99 -349l75 -264h5l75 264l99 349h86l-207 -698h-114z" />
    <glyph glyph-name="W" unicode="W" 
d="M90 0l-55 698h75l29 -400l15 -211h8l92 429h94l92 -429h8l15 211l29 400h73l-55 -698h-121l-85 417h-8l-85 -417h-121z" />
    <glyph glyph-name="X" unicode="X" 
d="M575 0h-95l-83 139l-92 152h-4l-95 -152l-88 -139h-92l228 356l-215 342h95l81 -135l87 -141h4l86 141l84 135h92l-216 -341z" />
    <glyph glyph-name="Y" unicode="Y" 
d="M258 0v274l-241 424h96l100 -182l85 -159h4l87 159l100 182h94l-241 -424v-274h-84z" />
    <glyph glyph-name="Z" unicode="Z" 
d="M552 0h-504v75l395 550h-378v73h470v-75l-396 -550h413v-73z" />
    <glyph glyph-name="zero" unicode="0" 
d="M300 -12q-64 0 -110 24.5t-76 70.5t-44 113t-14 153q0 85 14 152.5t44 113.5t76 70.5t110 24.5t110 -24.5t76 -70.5t44 -113.5t14 -152.5q0 -86 -14 -153t-44 -113t-76 -70.5t-110 -24.5zM300 61q42 0 72 16.5t48.5 46.5t27.5 72.5t9 95.5v114q0 52 -9 95t-27.5 73
t-48.5 46.5t-72 16.5t-72 -16.5t-48.5 -46.5t-27.5 -73t-9 -95v-114q0 -53 9 -95.5t27.5 -72.5t48.5 -46.5t72 -16.5zM300 290q-35 0 -48.5 14t-13.5 34v22q0 20 13.5 34t48.5 14t48.5 -14t13.5 -34v-22q0 -20 -13.5 -34t-48.5 -14z" />
    <glyph glyph-name="zero.alt01" 
d="M300 -12q-64 0 -110 24.5t-76 70.5t-44 113t-14 153q0 85 14 152.5t44 113.5t76 70.5t110 24.5t110 -24.5t76 -70.5t44 -113.5t14 -152.5q0 -86 -14 -153t-44 -113t-76 -70.5t-110 -24.5zM300 637q-42 0 -72 -16.5t-48.5 -46.5t-27.5 -73t-9 -95v-114q0 -17 1 -33.5
t3 -31.5l289 316q-17 45 -50.5 69.5t-85.5 24.5zM300 61q42 0 72 16.5t48.5 46.5t27.5 72.5t9 95.5v114q0 17 -1 33.5t-3 31.5l-289 -316q17 -45 50.5 -69.5t85.5 -24.5z" />
    <glyph glyph-name="zero.alt02" 
d="M300 -12q-64 0 -110 24.5t-76 70.5t-44 113t-14 153q0 85 14 152.5t44 113.5t76 70.5t110 24.5t110 -24.5t76 -70.5t44 -113.5t14 -152.5q0 -86 -14 -153t-44 -113t-76 -70.5t-110 -24.5zM300 61q42 0 71 16.5t48 46.5t27.5 72.5t8.5 95.5v114q0 52 -8.5 95t-27.5 73
t-48 46.5t-71 16.5t-71 -16.5t-48 -46.5t-27.5 -73t-8.5 -95v-114q0 -53 8.5 -95.5t27.5 -72.5t48 -46.5t71 -16.5z" />
    <glyph glyph-name="one" unicode="1" 
d="M85 0v73h200v563h-7l-176 -164l-49 53l185 173h131v-625h184v-73h-468z" />
    <glyph glyph-name="two" unicode="2" 
d="M537 0h-466v86l233 210q51 46 84 94.5t33 102.5v12q0 63 -33 97.5t-98 34.5q-64 0 -98.5 -32.5t-51.5 -86.5l-75 28q10 31 27.5 60.5t44.5 52.5t65.5 37t89.5 14q52 0 92.5 -15t68 -42t42 -64t14.5 -81q0 -40 -11.5 -75t-32 -67t-49 -62.5t-63.5 -60.5l-195 -170h379v-73
z" />
    <glyph glyph-name="three" unicode="3" 
d="M270 402q73 0 109.5 32.5t36.5 83.5v7q0 56 -35.5 84t-92.5 28q-56 0 -90.5 -24.5t-56.5 -64.5l-63 48q13 21 32 41.5t44.5 36.5t59 26t76.5 10q45 0 84 -11.5t68 -34t45.5 -55.5t16.5 -75q0 -34 -10.5 -61t-29 -47t-43.5 -34t-53 -21v-4q29 -6 56 -19.5t48 -35t33.5 -52
t12.5 -69.5q0 -45 -17.5 -82.5t-49 -64t-76 -41.5t-98.5 -15q-46 0 -81.5 10t-63 27t-48 38t-36.5 44l63 48q14 -21 29 -38t34.5 -29.5t44.5 -19.5t58 -7q74 0 113.5 34t39.5 97v8q0 62 -38.5 96t-115.5 34h-83v72h77z" />
    <glyph glyph-name="four" unicode="4" 
d="M378 0v137h-344v74l302 487h122v-492h104v-69h-104v-137h-80zM109 206h269v427h-4z" />
    <glyph glyph-name="five" unicode="5" 
d="M501 625h-312l-20 -267h7q26 35 58 55.5t88 20.5q46 0 84.5 -14.5t66.5 -42.5t44 -67.5t16 -90.5t-16 -93.5t-47 -73t-75 -47.5t-100 -17q-44 0 -78.5 10t-61 27t-46.5 38t-36 44l63 48q14 -21 28.5 -38t33.5 -29.5t43 -19.5t56 -7q72 0 110.5 39t38.5 108v8
q0 69 -39 108t-112 39q-50 0 -77.5 -17t-50.5 -42l-71 10l25 384h380v-73z" />
    <glyph glyph-name="six" unicode="6" 
d="M301 -12q-55 0 -99 18.5t-74.5 53t-47 84.5t-16.5 112q0 78 23.5 146.5t60 125t81.5 100t88 70.5h108q-57 -41 -101.5 -80t-78.5 -81.5t-57 -91t-38 -109.5l5 -2q25 43 66 71.5t106 28.5q46 0 84 -15t66 -43t43.5 -68t15.5 -89q0 -51 -17 -93.5t-47.5 -73t-74 -47.5
t-96.5 -17zM300 59q72 0 111.5 39t39.5 110v8q0 71 -39.5 110t-111.5 39t-111.5 -39t-39.5 -110v-8q0 -71 39.5 -110t111.5 -39z" />
    <glyph glyph-name="seven" unicode="7" 
d="M173 0l273 626h-306v-130h-75v202h466v-74l-268 -624h-90z" />
    <glyph glyph-name="eight" unicode="8" 
d="M300 -12q-61 0 -107 15.5t-76.5 42.5t-46 64t-15.5 80q0 72 39 114t103 59v8q-56 19 -88.5 61.5t-32.5 102.5q0 80 59 127.5t165 47.5t165 -47.5t59 -127.5q0 -60 -32.5 -102.5t-88.5 -61.5v-8q64 -17 103 -59t39 -114q0 -43 -15.5 -80t-46.5 -64t-76.5 -42.5
t-106.5 -15.5zM300 59q74 0 116 33t42 93v22q0 60 -41.5 93t-116.5 33t-116.5 -33t-41.5 -93v-22q0 -60 42 -93t116 -33zM300 401q68 0 103.5 29t35.5 83v14q0 54 -36.5 83t-102.5 29t-102.5 -29t-36.5 -83v-14q0 -54 35.5 -83t103.5 -29z" />
    <glyph glyph-name="nine" unicode="9" 
d="M536 442q0 -78 -23.5 -146.5t-60.5 -125t-81.5 -100t-87.5 -70.5h-108q57 41 101.5 80t78.5 81.5t57 91t38 109.5l-5 2q-26 -43 -66.5 -71.5t-105.5 -28.5q-46 0 -84.5 15t-66 43t-43 67.5t-15.5 89.5q0 51 16.5 93.5t47.5 73t74.5 47.5t96.5 17q55 0 99 -18.5t74.5 -53
t47 -84.5t16.5 -112zM300 333q72 0 111.5 39t39.5 110v8q0 71 -39.5 110t-111.5 39t-111.5 -39t-39.5 -110v-8q0 -71 39.5 -110t111.5 -39z" />
    <glyph glyph-name="ampersand" unicode="&#x26;" 
d="M217 -12q-46 0 -81.5 15t-60 41.5t-37.5 61.5t-13 75q0 26 6 54t21 54.5t39.5 51t62.5 43.5q-28 36 -46.5 74t-18.5 83q0 38 14.5 69t39 53.5t57.5 34.5t70 12q33 0 60.5 -9.5t48.5 -24.5t35.5 -34t21.5 -38l-66 -34q-13 31 -39 51.5t-65 20.5q-45 0 -71.5 -27.5
t-26.5 -70.5v-8q0 -16 4 -31t12.5 -31.5t22 -35.5t32.5 -43l90 -111l73 -90h5q7 39 9 89t4 98h141v-67h-75q-3 -24 -6 -45t-7 -41t-9 -40.5t-14 -43.5l122 -144h-95l-87 103h-5q-14 -52 -57 -83.5t-111 -31.5zM238 59q43 0 76 18t52 50l-174 210q-46 -29 -65 -65.5
t-19 -79.5v-15q0 -54 36 -86t94 -32z" />
    <glyph glyph-name="at" unicode="@" 
d="M454 -112h-123q-76 0 -127.5 25.5t-83 77t-45 128.5t-13.5 181q0 116 15.5 194.5t45.5 126.5t74.5 68.5t103.5 20.5q60 0 102.5 -19t69.5 -52t39.5 -78.5t12.5 -97.5v-372h-71v57h-5q-10 -26 -33 -47.5t-67 -21.5q-61 0 -97 51.5t-36 162.5t36 163t97 52q22 0 38.5 -6
t28.5 -16t20 -22t13 -25h5v24q0 85 -35.5 134t-115.5 49q-89 0 -127.5 -68.5t-38.5 -219.5v-129q0 -58 8 -108.5t29.5 -88t59 -59t97.5 -21.5h123v-64zM375 139q36 0 57.5 20t21.5 58v153q0 38 -21.5 58t-57.5 20q-42 0 -63.5 -28.5t-21.5 -95.5v-61q0 -67 21.5 -95.5
t63.5 -28.5z" />
    <glyph glyph-name="hyphen" unicode="-" 
d="M155 262v84h290v-84h-290z" />
    <glyph glyph-name="uni00AD" unicode="&#xad;" 
d="M155 262v84h290v-84h-290z" />
    <glyph glyph-name="endash" unicode="&#x2013;" 
d="M60 267v74h480v-74h-480z" />
    <glyph glyph-name="emdash" unicode="&#x2014;" 
d="M0 267v74h600v-74h-600z" />
    <glyph glyph-name="underscore" unicode="_" 
d="M60 -169v74h480v-74h-480z" />
    <glyph glyph-name="period" unicode="." 
d="M300 -9q-41 0 -57.5 17t-16.5 43v18q0 26 16.5 43t57.5 17t57.5 -17t16.5 -43v-18q0 -26 -16.5 -43t-57.5 -17z" />
    <glyph glyph-name="ellipsis" unicode="&#x2026;" 
d="M107 -4q-35 0 -49 14.5t-14 36.5v29q0 22 14 36.5t49 14.5t49 -14.5t14 -36.5v-29q0 -22 -14 -36.5t-49 -14.5zM300 -4q-35 0 -49 14.5t-14 36.5v29q0 22 14 36.5t49 14.5t49 -14.5t14 -36.5v-29q0 -22 -14 -36.5t-49 -14.5zM493 -4q-35 0 -49 14.5t-14 36.5v29
q0 22 14 36.5t49 14.5t49 -14.5t14 -36.5v-29q0 -22 -14 -36.5t-49 -14.5z" />
    <glyph glyph-name="colon" unicode=":" 
d="M300 -9q-41 0 -57.5 17t-16.5 43v18q0 26 16.5 43t57.5 17t57.5 -17t16.5 -43v-18q0 -26 -16.5 -43t-57.5 -17zM300 387q-41 0 -57.5 17t-16.5 43v18q0 26 16.5 43t57.5 17t57.5 -17t16.5 -43v-18q0 -26 -16.5 -43t-57.5 -17z" />
    <glyph glyph-name="comma" unicode="," 
d="M257 136h129l-115 -277h-67z" />
    <glyph glyph-name="semicolon" unicode=";" 
d="M257 136h129l-115 -277h-67zM300 387q-41 0 -57.5 17t-16.5 43v18q0 26 16.5 43t57.5 17t57.5 -17t16.5 -43v-18q0 -26 -16.5 -43t-57.5 -17z" />
    <glyph glyph-name="quotesingle" unicode="'" 
d="M262 463v277h76v-277h-76z" />
    <glyph glyph-name="quotedbl" unicode="&#x22;" 
d="M174 463v277h76v-277h-76zM351 463v277h76v-277h-76z" />
    <glyph glyph-name="quoteleft" unicode="&#x2018;" 
d="M310 740h67l-53 -277h-129z" />
    <glyph glyph-name="quoteright" unicode="&#x2019;" 
d="M276 740h129l-115 -277h-67z" />
    <glyph glyph-name="quotedblleft" unicode="&#x201c;" 
d="M197 740h67l-53 -277h-129zM436 740h67l-53 -277h-129z" />
    <glyph glyph-name="quotedblright" unicode="&#x201d;" 
d="M163 740h129l-115 -277h-67zM402 740h129l-115 -277h-67z" />
    <glyph glyph-name="quotesinglbase" unicode="&#x201a;" 
d="M257 136h129l-115 -277h-67z" />
    <glyph glyph-name="quotedblbase" unicode="&#x201e;" 
d="M163 136h129l-115 -277h-67zM402 136h129l-115 -277h-67z" />
    <glyph glyph-name="guilsinglleft" unicode="&#x2039;" 
d="M376 56l-206 174v80l206 174l25 -57l-148 -157l148 -157z" />
    <glyph glyph-name="guilsinglright" unicode="&#x203a;" 
d="M199 113l148 157l-148 157l25 57l206 -174v-80l-206 -174z" />
    <glyph glyph-name="guillemotleft" unicode="&#xab;" 
d="M280 56l-206 174v80l206 174l25 -57l-148 -157l148 -157zM509 56l-206 174v80l206 174l25 -57l-148 -157l148 -157z" />
    <glyph glyph-name="guillemotright" unicode="&#xbb;" 
d="M67 113l148 157l-148 157l25 57l206 -174v-80l-206 -174zM296 113l148 157l-148 157l25 57l206 -174v-80l-206 -174z" />
    <glyph glyph-name="exclamdown" unicode="&#xa1;" 
d="M256 -182v203l28 262h32l28 -262v-203h-88zM300 387q-41 0 -57.5 17t-16.5 43v18q0 26 16.5 43t57.5 17t57.5 -17t16.5 -43v-18q0 -26 -16.5 -43t-57.5 -17z" />
    <glyph glyph-name="exclam" unicode="!" 
d="M284 233l-28 262v203h88v-203l-28 -262h-32zM300 -9q-41 0 -57.5 17t-16.5 43v18q0 26 16.5 43t57.5 17t57.5 -17t16.5 -43v-18q0 -26 -16.5 -43t-57.5 -17z" />
    <glyph glyph-name="questiondown" unicode="&#xbf;" 
d="M299 -194q-48 0 -86.5 13.5t-65.5 38t-42 59.5t-15 78q0 47 17 82.5t44 60.5t61.5 40.5t69.5 21.5v101h79v-157q-86 -4 -135 -37.5t-49 -101.5v-14q0 -56 33.5 -84t91.5 -28q60 0 96 33t50 84l75 -28q-10 -33 -28 -62.5t-45.5 -51.5t-65 -35t-85.5 -13zM318 387
q-41 0 -57.5 17t-16.5 43v18q0 26 16.5 43t57.5 17t57.5 -17t16.5 -43v-18q0 -26 -16.5 -43t-57.5 -17z" />
    <glyph glyph-name="question" unicode="?" 
d="M239 215v157q86 4 135 37.5t49 101.5v14q0 56 -33.5 84t-91.5 28q-60 0 -96 -33t-50 -84l-75 28q10 33 28 62.5t45.5 51.5t65 35t85.5 13t86.5 -13.5t65.5 -38t42 -59.5t15 -78q0 -47 -17 -82.5t-44 -60.5t-61.5 -40.5t-69.5 -21.5v-101h-79zM282 -9q-41 0 -57.5 17
t-16.5 43v18q0 26 16.5 43t57.5 17t57.5 -17t16.5 -43v-18q0 -26 -16.5 -43t-57.5 -17z" />
    <glyph glyph-name="parenleft" unicode="(" 
d="M205 311q0 73 16.5 140.5t45 125.5t66.5 104.5t80 78.5h81q-44 -33 -82.5 -76.5t-68 -95t-46.5 -111t-17 -123.5v-86q0 -64 17 -123.5t46.5 -111t68 -95t82.5 -76.5h-81q-42 31 -80 78t-66.5 105t-45 125.5t-16.5 140.5z" />
    <glyph glyph-name="parenright" unicode=")" 
d="M395 311q0 -73 -16.5 -140.5t-45 -125.5t-66.5 -105t-80 -78h-81q43 33 82 76.5t68.5 95t46.5 111t17 123.5v86q0 64 -17 123.5t-46.5 111t-68.5 95t-82 76.5h81q42 -32 80 -78.5t66.5 -104.5t45 -125.5t16.5 -140.5z" />
    <glyph glyph-name="bracketleft" unicode="[" 
d="M225 -138v898h280v-62h-211v-774h211v-62h-280z" />
    <glyph glyph-name="bracketright" unicode="]" 
d="M375 760v-898h-280v62h211v774h-211v62h280z" />
    <glyph glyph-name="braceleft" unicode="{" 
d="M319 -138q-42 0 -63 23.5t-21 58.5v63q0 27 5.5 47t13.5 36t18 28.5t19 23.5q17 20 23.5 34.5t6.5 30.5q0 38 -35 55.5t-103 17.5h-78v62h78q68 0 103 17.5t35 55.5q0 16 -6.5 30.5t-23.5 34.5q-9 11 -19 23.5t-18 28t-13.5 36t-5.5 47.5v63q0 35 21 58.5t63 23.5h176
v-62h-191v-77q0 -41 12 -63t28 -43q17 -22 32 -45.5t15 -55.5q0 -42 -29.5 -68t-80.5 -33v-4q51 -7 80.5 -33t29.5 -68q0 -32 -15 -55.5t-32 -45.5q-16 -21 -28 -43t-12 -63v-77h191v-62h-176z" />
    <glyph glyph-name="braceright" unicode="}" 
d="M281 760q42 0 63 -23.5t21 -58.5v-63q0 -27 -5.5 -47.5t-13.5 -36t-18 -28t-19 -23.5q-17 -20 -23.5 -34.5t-6.5 -30.5q0 -38 35 -55.5t103 -17.5h78v-62h-78q-68 0 -103 -17.5t-35 -55.5q0 -16 6.5 -30.5t23.5 -34.5q9 -11 19 -23.5t18 -28.5t13.5 -36t5.5 -47v-63
q0 -35 -21 -58.5t-63 -23.5h-176v62h191v77q0 41 -12 63t-28 43q-17 22 -32 45.5t-15 55.5q0 42 29.5 68t80.5 33v4q-51 7 -80.5 33t-29.5 68q0 32 15 55.5t32 45.5q16 21 28 43t12 63v77h-191v62h176z" />
    <glyph glyph-name="slash" unicode="/" 
d="M90 -138l348 898h72l-348 -898h-72z" />
    <glyph glyph-name="backslash" unicode="\" 
d="M438 -138l-348 898h72l348 -898h-72z" />
    <glyph glyph-name="fraction" unicode="&#x2044;" 
d="M510 698h72l-160 -300h-72zM178 300h72l-160 -300h-72z" />
    <glyph glyph-name="percent" unicode="%" 
d="M169 356q-66 0 -107.5 44.5t-41.5 132.5t41.5 132.5t107.5 44.5t107.5 -44.5t41.5 -132.5t-41.5 -132.5t-107.5 -44.5zM169 410q36 0 58.5 25t22.5 73v50q0 48 -22.5 73t-58.5 25t-58.5 -25t-22.5 -73v-50q0 -48 22.5 -73t58.5 -25zM510 698h72l-160 -300h-72zM178 300
h72l-160 -300h-72zM431 -12q-66 0 -107.5 44.5t-41.5 132.5t41.5 132.5t107.5 44.5t107.5 -44.5t41.5 -132.5t-41.5 -132.5t-107.5 -44.5zM431 42q36 0 58.5 25t22.5 73v50q0 48 -22.5 73t-58.5 25t-58.5 -25t-22.5 -73v-50q0 -48 22.5 -73t58.5 -25z" />
    <glyph glyph-name="perthousand" unicode="&#x2030;" 
d="M139 400q-65 0 -102 38.5t-37 116.5q0 77 36.5 116t102.5 39q65 0 102 -38.5t37 -116.5q0 -77 -36.5 -116t-102.5 -39zM139 450q34 0 52.5 22.5t18.5 58.5v48q0 36 -18.5 58.5t-52.5 22.5t-52.5 -22.5t-18.5 -58.5v-48q0 -36 18.5 -58.5t52.5 -22.5zM61 328l450 176
l20 -50l-450 -176zM248 -12q-63 0 -99.5 39t-36.5 116t36.5 116t99.5 39q67 0 106 -50h5q37 50 105 50q63 0 99.5 -39t36.5 -116t-36.5 -116t-99.5 -39q-68 0 -105 50h-6q-18 -24 -44.5 -37t-60.5 -13zM251 38q34 0 52.5 22.5t18.5 58.5v48q0 36 -18.5 58.5t-52.5 22.5
t-52.5 -22.5t-18.5 -58.5v-48q0 -36 18.5 -58.5t52.5 -22.5zM461 38q34 0 52.5 22.5t18.5 58.5v48q0 36 -18.5 58.5t-52.5 22.5t-52.5 -22.5t-18.5 -58.5v-48q0 -36 18.5 -58.5t52.5 -22.5z" />
    <glyph glyph-name="bar" unicode="|" 
d="M265 -138v898h70v-898h-70z" />
    <glyph glyph-name="brokenbar" unicode="&#xa6;" 
d="M265 401v359h70v-359h-70zM265 -138v359h70v-359h-70z" />
    <glyph glyph-name="section" unicode="&#xa7;" 
d="M487 3q0 -36 -14.5 -65t-41 -50t-63.5 -32t-82 -11q-46 0 -90.5 13t-79.5 43l47 56q24 -20 55 -31.5t69 -11.5q57 0 89 23.5t32 64.5q0 38 -27.5 60.5t-78.5 36.5l-64 18q-83 23 -120 63.5t-37 91.5q0 48 29 85t83 58v5q-39 24 -57.5 58t-18.5 74q0 36 14.5 65t41 50
t63.5 32t82 11q46 0 90.5 -13t79.5 -43l-47 -56q-24 20 -55 31.5t-69 11.5q-57 0 -89 -23.5t-32 -64.5q0 -38 27.5 -60.5t78.5 -36.5l64 -18q83 -23 120 -63.5t37 -91.5q0 -48 -29 -85t-83 -58v-5q39 -24 57.5 -58t18.5 -74zM444 263q0 43 -29 69t-91 43l-63 17
q-17 4 -34 11q-31 -21 -49 -48.5t-18 -62.5q0 -43 29 -69t91 -43l63 -17q17 -4 34 -11q31 21 49 48.5t18 62.5z" />
    <glyph glyph-name="paragraph" unicode="&#xb6;" 
d="M270 246q-47 0 -87.5 17t-71.5 47t-48.5 71.5t-17.5 90.5t17.5 90.5t48.5 71.5t71.5 47t87.5 17h234v-847h-72v783h-90v-783h-72v395z" />
    <glyph glyph-name="copyright" unicode="&#xa9;" 
d="M300 18q-63 0 -117.5 23t-95 66t-64 104t-23.5 138q0 76 23.5 137.5t64 104.5t95 66t117.5 23t117.5 -23t95 -66t64 -104.5t23.5 -137.5q0 -77 -23.5 -138t-64 -104t-95 -66t-117.5 -23zM300 73q51 0 94.5 19t75 52.5t49.5 78.5t18 96v60q0 51 -18 96t-49.5 78.5
t-75 52.5t-94.5 19t-94.5 -19t-75 -52.5t-49.5 -78.5t-18 -96v-60q0 -51 18 -96t49.5 -78.5t75 -52.5t94.5 -19zM305 171q-73 0 -113.5 48.5t-40.5 129.5q0 82 41 130t113 48q48 0 78.5 -22t47.5 -58l-53 -29q-11 24 -28 38t-45 14q-39 0 -60.5 -25.5t-21.5 -66.5v-57
q0 -42 21 -67.5t62 -25.5q30 0 48 15t32 40l50 -31q-17 -35 -49.5 -58t-81.5 -23z" />
    <glyph glyph-name="registered" unicode="&#xae;" 
d="M300 346q-38 0 -71.5 14t-58.5 38t-39 57.5t-14 72.5t14 72.5t39 57.5t58.5 38t71.5 14t71.5 -14t58 -38t39 -57.5t14.5 -72.5t-14.5 -72.5t-39 -57.5t-58 -38t-71.5 -14zM300 387q29 0 53.5 9.5t42.5 26.5t28.5 41t10.5 54v20q0 30 -10.5 54t-28.5 41t-42.5 26.5
t-53.5 9.5t-53.5 -9.5t-42.5 -26.5t-28.5 -41t-10.5 -54v-20q0 -30 10.5 -54t28.5 -41t42.5 -26.5t53.5 -9.5zM270 436h-40v185h85q28 0 43.5 -15.5t15.5 -41.5q0 -39 -37 -52l46 -76h-45l-39 70h-29v-70zM306 535q26 0 26 24v7q0 24 -26 24h-36v-55h36z" />
    <glyph glyph-name="trademark" unicode="&#x2122;" 
d="M102 419v233h-86v46h224v-46h-86v-233h-52zM282 419v279h65l65 -134h3l65 134h62v-279h-48v127l1 83h-4l-79 -156l-79 156h-4l1 -83v-127h-48z" />
    <glyph glyph-name="ordfeminine" unicode="&#xaa;" 
d="M429 357q-33 0 -47 14t-16 39h-4q-11 -23 -38.5 -42t-74.5 -19q-54 0 -82.5 27t-28.5 72q0 54 39.5 79t111.5 25h73v28q0 78 -77 78q-35 0 -58.5 -14.5t-34.5 -37.5l-42 34q7 13 19.5 25.5t29.5 22.5t39 16t50 6q64 0 100.5 -33t36.5 -94v-170h38v-56h-34zM287 506
q-42 0 -64 -12t-22 -35v-10q0 -49 61 -49q40 0 70 17.5t30 47.5v41h-75z" />
    <glyph glyph-name="ordmasculine" unicode="&#xba;" 
d="M300 349q-76 0 -118 48t-42 133q0 84 42.5 132t117.5 48t117.5 -48t42.5 -132q0 -85 -42.5 -133t-117.5 -48zM300 402q45 0 68 27.5t23 70.5v59q0 43 -23 70.5t-68 27.5t-68 -27.5t-23 -70.5v-59q0 -43 23 -70.5t68 -27.5z" />
    <glyph glyph-name="degree" unicode="&#xb0;" 
d="M300 368q-36 0 -67 13t-54.5 36t-36.5 54.5t-13 67.5t13 67.5t36.5 54.5t54.5 36t67 13t67 -13t54.5 -36t36.5 -54.5t13 -67.5t-13 -67.5t-36.5 -54.5t-54.5 -36t-67 -13zM300 432q46 0 73.5 31t27.5 76t-27.5 76t-73.5 31t-73.5 -31t-27.5 -76t27.5 -76t73.5 -31z" />
    <glyph glyph-name="asterisk" unicode="*" 
d="M175 72l-57 42l124 170l-199 66l21 66l199 -64v216h74v-216l199 64l21 -66l-199 -66l124 -170l-57 -42l-125 172z" />
    <glyph glyph-name="dagger" unicode="&#x2020;" 
d="M265 -200v652h-195v64h195v224h70v-224h195v-64h-195v-652h-70z" />
    <glyph glyph-name="daggerdbl" unicode="&#x2021;" 
d="M265 -200v224h-195v64h195v364h-195v64h195v224h70v-224h195v-64h-195v-364h195v-64h-195v-224h-70z" />
    <glyph glyph-name="numbersign" unicode="#" 
d="M148 216h-132v66h144l23 134h-131v66h143l38 216h73l-123 -698h-73zM417 698h73l-38 -216h132v-66h-144l-23 -134h131v-66h-143l-38 -216h-73z" />
    <glyph glyph-name="asciicircum" unicode="^" 
d="M489 287l-189 342h-4l-189 -342l-62 31l210 380h90l210 -380z" />
    <glyph glyph-name="asciitilde" unicode="~" 
d="M408 237q-31 0 -59 9.5t-54 22.5t-52.5 25t-51.5 12q-29 0 -47 -19.5t-31 -49.5l-61 25q14 48 49 79.5t91 31.5q31 0 59 -9.5t54 -22.5t52.5 -25t51.5 -12q29 0 47 19.5t31 49.5l61 -25q-14 -48 -49 -79.5t-91 -31.5z" />
    <glyph glyph-name="plus" unicode="+" 
d="M262 62v209h-200v68h200v209h76v-209h200v-68h-200v-209h-76z" />
    <glyph glyph-name="minus" unicode="&#x2212;" 
d="M62 271v68h476v-68h-476z" />
    <glyph glyph-name="plusminus" unicode="&#xb1;" 
d="M262 152v199h-200v68h200v199h76v-199h200v-68h-200v-199h-76zM62 0v68h476v-68h-476z" />
    <glyph glyph-name="multiply" unicode="&#xd7;" 
d="M300 256l-163 -163l-49 49l163 163l-163 163l49 49l163 -163l163 163l49 -49l-163 -163l163 -163l-49 -49z" />
    <glyph glyph-name="divide" unicode="&#xf7;" 
d="M62 271v68h476v-68h-476zM300 52q-35 0 -48.5 14t-13.5 34v22q0 20 13.5 34t48.5 14t48.5 -14t13.5 -34v-22q0 -20 -13.5 -34t-48.5 -14zM300 440q-35 0 -48.5 14t-13.5 34v22q0 20 13.5 34t48.5 14t48.5 -14t13.5 -34v-22q0 -20 -13.5 -34t-48.5 -14z" />
    <glyph glyph-name="equal" unicode="=" 
d="M62 372v68h476v-68h-476zM62 172v68h476v-68h-476z" />
    <glyph glyph-name="approxequal" unicode="&#x2248;" 
d="M408 337q-31 0 -59 9.5t-54 22.5t-52.5 25t-51.5 12q-29 0 -47 -19.5t-31 -49.5l-61 25q14 48 49 79.5t91 31.5q31 0 59 -9.5t54 -22.5t52.5 -25t51.5 -12q29 0 47 19.5t31 49.5l61 -25q-14 -48 -49 -79.5t-91 -31.5zM408 139q-31 0 -59 9.5t-54 22.5t-52.5 25t-51.5 12
q-29 0 -47 -19.5t-31 -49.5l-61 25q14 48 49 79.5t91 31.5q31 0 59 -9.5t54 -22.5t52.5 -25t51.5 -12q29 0 47 19.5t31 49.5l61 -25q-14 -48 -49 -79.5t-91 -31.5z" />
    <glyph glyph-name="notequal" unicode="&#x2260;" 
d="M137 72l55 100h-130v68h167l71 132h-238v68h275l54 100h72l-55 -100h130v-68h-167l-71 -132h238v-68h-275l-54 -100h-72z" />
    <glyph glyph-name="less" unicode="&#x3c;" 
d="M85 265v80l430 249v-83l-355 -201v-8l355 -201v-85z" />
    <glyph glyph-name="greater" unicode="&#x3e;" 
d="M85 99l355 201v8l-355 201v85l430 -249v-80l-430 -249v83z" />
    <glyph glyph-name="lessequal" unicode="&#x2264;" 
d="M85 0v68h430v-68h-430zM515 513l-355 -152v-7l355 -151v-82l-430 191v89l430 192v-80z" />
    <glyph glyph-name="greaterequal" unicode="&#x2265;" 
d="M85 201l355 152v7l-355 151v82l430 -191v-89l-430 -192v80zM85 68h430v-68h-430v68z" />
    <glyph glyph-name="periodcentered" unicode="&#xb7;" 
d="M300 235q-41 0 -57.5 17t-16.5 43v18q0 26 16.5 43t57.5 17t57.5 -17t16.5 -43v-18q0 -26 -16.5 -43t-57.5 -17z" />
    <glyph glyph-name="bullet" unicode="&#x2022;" 
d="M300 186q-67 0 -94.5 30t-27.5 74v28q0 44 27.5 74t94.5 30t94.5 -30t27.5 -74v-28q0 -44 -27.5 -74t-94.5 -30z" />
    <glyph glyph-name="lozenge" unicode="&#x25ca;" 
d="M260 0l-218 349l218 349h81l218 -349l-218 -349h-81zM304 75l171 274l-171 274h-7l-171 -274l171 -274h7z" />
    <glyph glyph-name="logicalnot" unicode="&#xac;" 
d="M453 78v193h-391v68h460v-261h-69z" />
    <glyph glyph-name="radical" unicode="&#x221a;" 
d="M253 0l-127 452h-102v64h163l45 -165l77 -284h5l81 284l99 347h78l-205 -698h-114z" />
    <glyph glyph-name="integral" unicode="&#x222b;" 
d="M35 -132h212v754q0 52 27.5 85t86.5 33h178v-69h-212v-753q0 -52 -27.5 -85t-86.5 -33h-178v68z" />
    <glyph glyph-name="infinity" unicode="&#x221e;" 
d="M157 126q-70 0 -108 47t-38 132t41 132t113 47q54 0 91.5 -31.5t59.5 -101.5h4q13 66 46 99.5t76 33.5q70 0 108.5 -47t38.5 -132t-41 -132t-113 -47q-54 0 -91.5 31.5t-59.5 101.5h-4q-13 -66 -46.5 -99.5t-76.5 -33.5zM166 188q34 0 60.5 32t42.5 87q-16 54 -42.5 84.5
t-60.5 30.5q-36 0 -57.5 -23t-21.5 -67v-54q0 -44 21.5 -67t57.5 -23zM434 188q36 0 57.5 23t21.5 67v54q0 44 -21.5 67t-57.5 23q-34 0 -60.5 -32t-42.5 -87q16 -54 42.5 -84.5t60.5 -30.5z" />
    <glyph glyph-name="uni212E" unicode="&#x212e;" 
d="M145 109q24 -30 63.5 -52.5t91.5 -22.5q38 0 69 10t55.5 28t44.5 43t36 55l41 -23q-18 -33 -41 -61.5t-53 -50.5t-68 -34.5t-84 -12.5q-62 0 -112.5 27.5t-86.5 75.5t-55.5 114t-19.5 144t19.5 144t55.5 114t86.5 75.5t112.5 27.5t112.5 -27.5t86.5 -75.5t55.5 -114
t19.5 -144h-429v-240zM455 389v205q-26 31 -65 51.5t-90 20.5t-90 -20.5t-65 -51.5v-205h310z" />
    <glyph glyph-name="uni2113" unicode="&#x2113;" 
d="M321 -12q-80 0 -121 47.5t-41 123.5v24q-14 -11 -27.5 -19.5t-28.5 -17.5l-33 54q22 14 45 28t44 31v296q0 54 10.5 91.5t30 61t47 34t60.5 10.5q69 0 105 -43t36 -124q0 -99 -54 -185.5t-156 -176.5v-45q0 -68 22.5 -95.5t64.5 -27.5q44 0 71.5 28t55.5 79l58 -35
q-12 -29 -28.5 -54.5t-40 -44t-53.5 -29.5t-67 -11zM308 685q-31 0 -50.5 -26.5t-19.5 -96.5v-253q66 67 100.5 133t34.5 133v17q0 51 -18 72t-47 21z" />
    <glyph glyph-name="uni2116" unicode="&#x2116;" 
d="M481 345q-108 0 -108 181q0 180 108 180t108 -180q0 -181 -108 -181zM43 0v698h127l51 -349l38 -259h6v608h68v-698h-127l-51 349l-38 259h-6v-608h-68zM481 399q28 0 37 23t9 66v75q0 43 -9 66t-37 23q-29 0 -37.5 -23t-8.5 -66v-75q0 -43 8.5 -66t37.5 -23zM377 256v57
h208v-57h-208z" />
    <glyph glyph-name="partialdiff" unicode="&#x2202;" 
d="M534 272q0 -73 -16 -126.5t-46 -88.5t-72.5 -52t-95.5 -17q-56 0 -100.5 18t-75 52t-46.5 81.5t-16 106.5t16 107t44.5 81.5t67.5 51.5t85 18q62 0 101.5 -28.5t64.5 -67.5l4 2q-17 48 -47.5 89.5t-71 77.5t-88.5 66t-100 55h131q39 -23 84.5 -56.5t84.5 -83t65.5 -119.5
t26.5 -167zM300 57q67 0 108 38t41 116v70q0 78 -41 116t-108 38t-108 -38t-41 -116v-70q0 -78 41 -116t108 -38z" />
    <glyph glyph-name="cent" unicode="&#xa2;" 
d="M279 -114v105q-94 13 -144.5 84t-50.5 183t51 183t144 84v105h62v-103q65 -5 106 -37.5t61 -80.5l-64 -34q-13 35 -39 56.5t-65 26.5v-400q43 5 72.5 28t46.5 61l57 -39q-21 -48 -64 -81t-111 -38v-103h-62zM170 214q0 -59 28 -100.5t82 -52.5v394q-54 -11 -82 -52.5
t-28 -100.5v-88z" />
    <glyph glyph-name="Euro" unicode="&#x20ac;" 
d="M323 -12q-128 0 -190.5 93t-62.5 268t62.5 268t190.5 93q48 0 83 -13t60 -35t42 -49.5t30 -55.5l-70 -32q-9 24 -21 44.5t-28.5 36t-40 24.5t-55.5 9q-72 0 -112 -47t-51 -128h228v-69h-231v-92h231v-69h-228q11 -81 51 -128t112 -47q32 0 55.5 9t40 24.5t28.5 36
t21 44.5l70 -32q-13 -29 -30 -56t-42 -49t-60 -35t-83 -13z" />
    <glyph glyph-name="florin" unicode="&#x192;" 
d="M-31 -132h211l83 502h-185l11 68h186l24 147q9 52 39 82.5t89 30.5h183l-12 -69h-212l-32 -191h185l-11 -68h-185l-76 -457q-9 -52 -39 -82.5t-89 -30.5h-182z" />
    <glyph glyph-name="sterling" unicode="&#xa3;" 
d="M75 0v105q42 17 60.5 51t18.5 81q0 13 -1.5 25t-3.5 24h-97v69h78q-11 34 -21.5 68t-10.5 76q0 46 16 85t46.5 67t74 43.5t97.5 15.5q80 0 132.5 -31.5t85.5 -82.5l-63 -45q-28 41 -65.5 63.5t-94.5 22.5q-66 0 -104.5 -33t-38.5 -110q0 -41 9.5 -74t20.5 -65h201v-69
h-182q3 -20 3 -39q0 -31 -7.5 -56.5t-19.5 -46t-26.5 -35.5t-28.5 -24v-5h384v-80h-463z" />
    <glyph glyph-name="dollar" unicode="$" 
d="M279 -11q-83 5 -138 38.5t-91 83.5l61 50q36 -45 76 -70t93 -30v261l-23 4q-52 9 -87 27.5t-56 44t-30 57t-9 65.5q0 85 54.5 133.5t149.5 55.5v102h62v-102q69 -5 119.5 -33.5t88.5 -79.5l-63 -45q-27 36 -61.5 58t-84.5 27v-245l30 -5q51 -9 86 -27t56.5 -43.5
t30.5 -57.5t9 -67q0 -88 -54.5 -141t-156.5 -61v-102h-62v102zM156 520q0 -49 28.5 -77t95.5 -42v236q-60 -6 -92 -35.5t-32 -81.5zM471 190q0 54 -30.5 82t-100.5 40v-250q63 7 97 40t34 88z" />
    <glyph glyph-name="yen" unicode="&#xa5;" 
d="M75 69h185v186h-185v69h141l-194 374h93l184 -374h4l184 374h91l-194 -374h141v-69h-185v-186h185v-69h-450v69z" />
    <glyph glyph-name="uni0E3F" unicode="&#xe3f;" 
d="M326 -113h-62v113h-176v698h176v113h62v-113h8q90 0 141 -49t51 -131q0 -67 -32 -102.5t-81 -51.5v-3q26 -8 49 -21t40 -32.5t26.5 -45.5t9.5 -61q0 -42 -14 -79t-39.5 -64t-60 -42.5t-74.5 -15.5h-24v-113zM265 394v233h-95v-233h95zM325 394q57 0 87 23.5t30 71.5v41
q0 48 -30 72.5t-87 24.5v-233zM265 71v256h-95v-256h95zM325 71q63 0 95.5 26t32.5 80v44q0 53 -32.5 79.5t-95.5 26.5v-256z" />
    <glyph glyph-name="uni20A1" unicode="&#x20a1;" 
d="M296 -11q-32 3 -57 12l-12 -114h-62l15 145q-56 42 -83 122t-27 195q0 148 44.5 237.5t135.5 114.5l12 110h62l-11 -101h10q13 0 25 -1t23 -3l11 105h62l-13 -125q41 -22 65.5 -56.5t41.5 -72.5l-68 -30q-9 23 -20.5 43.5t-28.5 35.5l-58 -545q45 11 68 41.5t39 69.5
l68 -31q-12 -26 -27 -51t-36 -45.5t-49.5 -35t-67.5 -19.5l-11 -103h-62zM323 641h-9.5t-9.5 -1l-59 -564q25 -15 60 -18l61 578q-10 2 -20.5 3.5t-22.5 1.5zM153 292q0 -105 39 -166l52 496q-46 -26 -68.5 -81.5t-22.5 -134.5v-114z" />
    <glyph glyph-name="uni20A4" unicode="&#x20a4;" 
d="M538 0h-463v105q35 14 53.5 41t23.5 63h-100v65h99q-3 22 -8.5 42t-12.5 40h-78v65h57q-5 18 -8 37.5t-3 40.5q0 46 16 85t46.5 67t74 43.5t97.5 15.5q80 0 132.5 -31.5t85.5 -82.5l-63 -45q-28 41 -65.5 63.5t-94.5 22.5q-66 0 -104.5 -33t-38.5 -110q0 -20 2.5 -38
t6.5 -35h222v-65h-202q7 -20 13 -40t8 -42h181v-65h-182q-8 -46 -31.5 -77t-47.5 -47v-5h384v-80z" />
    <glyph glyph-name="uni20A6" unicode="&#x20a6;" 
d="M298 248h-136v-248h-70v244h-65v65h65v80h-65v65h65v244h125l85 -248h136v248h70v-244h65v-65h-65v-80h65v-65h-65v-244h-125zM278 304l-109 318h-7v-318h116zM431 76h7v318h-116z" />
    <glyph glyph-name="uni20A8" unicode="&#x20a8;" 
d="M49 0v698h129q92 0 132 -48.5t40 -138.5q0 -68 -23 -112t-77 -61l88 -208q17 -39 39.5 -57t60.5 -18q36 0 56 16.5t20 49.5q0 14 -3.5 24.5t-10.5 20t-17 19t-23 22.5l-19 19q-32 32 -53 62.5t-21 72.5q0 49 31.5 82t90.5 33q25 0 49 -7.5t47 -24.5l-32 -54
q-13 10 -28 16t-32 6q-25 0 -38 -13.5t-13 -37.5q0 -11 3 -20.5t9.5 -19t16.5 -20.5t25 -26l15 -15l30.5 -30.5t25 -30.5t16.5 -34.5t6 -43.5q0 -60 -38.5 -96.5t-119.5 -36.5q-58 0 -99.5 23t-65.5 82l-93 229h-44v-322h-80zM171 392q51 0 74 24t23 70v46q0 46 -23 70
t-74 24h-42v-234h42z" />
    <glyph glyph-name="uni20A9" unicode="&#x20a9;" 
d="M89 248h-63v65h61l-3 86h-58v65h56l-7 234h75l3 -239h296l3 239h73l-7 -234h56v-65h-58l-3 -86h61v-65h-63l-8 -248h-130l-65 404h-16l-65 -404h-130zM177 74l54 330h-77l6 -330h17zM442 74l6 330h-77l54 -330h17z" />
    <glyph glyph-name="uni20AA" unicode="&#x20aa;" 
d="M196 551h76v-487h84q21 0 41 6t36 20t25.5 36.5t9.5 55.5v516h77v-500q0 -50 -14 -87t-39 -62t-60 -37t-76 -12h-160v551zM59 0v698h162q41 0 75.5 -12t59 -37t38.5 -62t14 -87v-353h-76v369q0 33 -9.5 55.5t-25 36.5t-35.5 20t-41 6h-85v-634h-77z" />
    <glyph glyph-name="uni20AB" unicode="&#x20ab;" 
d="M411 208h-4q-22 -38 -57.5 -58t-85.5 -20q-85 0 -133 55.5t-48 159.5q0 105 48 160.5t133 55.5q50 0 85.5 -20t57.5 -58h4v136h-153v61h153v60h76v-60h69v-61h-69v-480h-76v69zM294 194q24 0 45 6.5t37 18.5t25.5 29t9.5 38v119q0 21 -9.5 38t-25.5 29t-37 18.5t-45 6.5
q-62 0 -96 -31.5t-34 -85.5v-69q0 -54 34 -85.5t96 -31.5zM82 0v68h436v-68h-436z" />
    <glyph glyph-name="uni20AD" unicode="&#x20ad;" 
d="M184 0h-84v327h-72v69h72v302h84v-302h54l213 302h95l-216 -302h216v-69h-209l225 -327h-102l-220 327h-56v-327z" />
    <glyph glyph-name="uni20AE" unicode="&#x20ae;" 
d="M343 217v-217h-85v177l-140 -65v69l140 65v91l-140 -65v69l140 65v219h-232v73h549v-73h-232v-179l140 65v-69l-140 -65v-91l140 65v-69z" />
    <glyph glyph-name="uni20B1" unicode="&#x20b1;" 
d="M165 0h-82v341h-55v65h55v80h-55v65h55v147h241q78 0 122 -39t61 -108h67v-65h-57q1 -10 1 -19.5v-20.5v-20.5t-1 -19.5h57v-65h-67q-17 -69 -61 -108t-122 -39h-159v-194zM165 549h267q-9 38 -36 59t-74 21h-157v-80zM436 404v84h-271v-84h271zM322 263q47 0 74 21
t36 59h-267v-80h157z" />
    <glyph glyph-name="uni20B2" unicode="&#x20b2;" 
d="M210 5q-77 32 -115.5 119t-38.5 225q0 176 62.5 268.5t189.5 92.5h13.5t12.5 -1l18 102h63l-20 -115q26 -10 46 -25t35 -33.5t27 -39t21 -41.5l-68 -30q-13 31 -29.5 57t-45.5 41l-49 -280h190v-101q0 -56 -13 -103t-40 -81t-68 -53t-97 -19q-9 0 -17.5 0.5t-16.5 1.5
l-18 -103h-63zM323 640q-4 1 -14 1q-43 0 -75 -16.5t-53 -47.5t-31.5 -74t-10.5 -97v-114q0 -77 21 -132t63 -82zM305 55q68 0 104.5 46t36.5 127v52h-126l-39 -223q5 -1 11.5 -1.5t12.5 -0.5z" />
    <glyph glyph-name="uni20B4" unicode="&#x20b4;" 
d="M304 -12q-47 0 -84.5 14t-63.5 38.5t-40 58t-14 73.5q0 27 5.5 46.5t13.5 35.5h-94v65h145l144 87v3h-289v65h367q8 12 11.5 25.5t3.5 31.5q0 54 -31 81.5t-87 27.5q-38 0 -73.5 -15t-66.5 -50l-53 49q43 46 94.5 66t105.5 20q43 0 78.5 -12t60.5 -34.5t39 -53.5t14 -70
q0 -22 -4 -37.5t-10 -28.5h97v-65h-148l-144 -87v-3h292v-65h-367q-11 -15 -17 -33t-6 -41q0 -58 33 -90t93 -32q41 0 79.5 17.5t80.5 60.5l51 -51q-41 -48 -97 -72.5t-119 -24.5z" />
    <glyph glyph-name="uni20B5" unicode="&#x20b5;" 
d="M216 10q-74 34 -110 119.5t-36 219.5q0 175 62.5 268t190.5 93h16l18 101h63l-20 -112q28 -9 49 -24t37.5 -34t29 -40.5t22.5 -43.5l-68 -30q-14 33 -32.5 60.5t-50.5 41.5l-101 -568q16 -4 37 -4q33 0 56.5 9t40.5 25t29 37t21 44l68 -31q-13 -29 -30 -56t-42 -49
t-60 -35t-83 -13q-27 0 -47 4l-19 -105h-63zM328 641q-45 0 -78 -16.5t-54.5 -47.5t-32 -74t-10.5 -97v-114q0 -72 19 -125t58 -82z" />
    <glyph glyph-name="uni20B8" unicode="&#x20b8;" 
d="M45 629v69h510v-69h-510zM342 470v-470h-84v470h-213v69h510v-69h-213z" />
    <glyph glyph-name="uni20B9" unicode="&#x20b9;" 
d="M403 0l-222 291h-125v69h172q55 0 89.5 27t34.5 83h-296v69h293q-5 43 -38.5 66.5t-82.5 23.5h-172v69h498v-69h-191v-5q20 -9 38 -29t27 -56h126v-69h-120q-5 -66 -45 -113t-110 -61l227 -296h-103z" />
    <glyph glyph-name="uni20BA" unicode="&#x20ba;" 
d="M155 247l-99 -46v69l99 46v91l-99 -46v69l99 46v222h84v-183l182 85v-69l-182 -85v-91l182 85v-69l-182 -85v-213h52q42 0 76 16.5t57 46.5t35.5 73t12.5 96h82q0 -64 -16.5 -119.5t-48.5 -97t-80.5 -65t-112.5 -23.5h-141v247z" />
    <glyph glyph-name="uni20BD" unicode="&#x20bd;" 
d="M212 134v-134h-84v134h-83v69h83v91h-83v69h83v335h228q97 0 148 -54t51 -150t-51.5 -148t-148.5 -52h-143v-91h227v-69h-227zM212 363h144q53 0 82.5 26t29.5 74v62q0 48 -29.5 74t-82.5 26h-144v-262z" />
    <glyph glyph-name="uni20BF" unicode="&#x20bf;" 
d="M319 0h-69v-113h-62v113h-100v698h100v113h62v-113h69v113h62v-119q64 -14 100 -59.5t36 -114.5q0 -62 -29.5 -97.5t-79.5 -52.5v-3q61 -14 98 -53t37 -111q0 -39 -12 -73t-33.5 -60.5t-51 -43.5t-65.5 -22v-115h-62v113zM172 395h145q53 0 82.5 23.5t29.5 71.5v39
q0 48 -29.5 72.5t-82.5 24.5h-145v-231zM172 72h159q58 0 90.5 26.5t32.5 80.5v41q0 53 -32.5 79.5t-90.5 26.5h-159v-254z" />
    <glyph glyph-name="fi" unicode="&#xfb01;" 
d="M108 448h-70v68h70v106q0 52 27.5 85t86.5 33h113v-68h-147v-156h314v-516h-80v448h-234v-448h-80v448zM462 630q-35 0 -49 14.5t-14 36.5v16q0 22 14 36.5t49 14.5t49 -14.5t14 -36.5v-16q0 -22 -14 -36.5t-49 -14.5z" />
    <glyph glyph-name="fl" unicode="&#xfb02;" 
d="M108 448h-70v68h70v106q0 52 27.5 85t86.5 33h123v-68h-157v-156h157v-68h-157v-448h-80v448zM422 740h80v-740h-80v740z" />
    <glyph glyph-name="aacute" unicode="&#xe1;" 
d="M495 0q-47 0 -67 24t-25 60h-5q-17 -45 -54.5 -70.5t-100.5 -25.5q-81 0 -129 42t-48 115q0 72 52.5 111t169.5 39h110v51q0 57 -32 85.5t-91 28.5q-52 0 -85 -20.5t-53 -55.5l-54 40q10 20 27 39t42 33.5t57 23t71 8.5q91 0 144.5 -46t53.5 -128v-284h72v-70h-55z
M257 55q31 0 56.5 7.5t44.5 20t29.5 30t10.5 37.5v85h-110q-72 0 -105 -20t-33 -58v-21q0 -40 28.5 -60.5t78.5 -20.5zM291 585l-52 24l85 170l73 -35z" />
    <glyph glyph-name="abreve" unicode="&#x103;" 
d="M495 0q-47 0 -67 24t-25 60h-5q-17 -45 -54.5 -70.5t-100.5 -25.5q-81 0 -129 42t-48 115q0 72 52.5 111t169.5 39h110v51q0 57 -32 85.5t-91 28.5q-52 0 -85 -20.5t-53 -55.5l-54 40q10 20 27 39t42 33.5t57 23t71 8.5q91 0 144.5 -46t53.5 -128v-284h72v-70h-55z
M257 55q31 0 56.5 7.5t44.5 20t29.5 30t10.5 37.5v85h-110q-72 0 -105 -20t-33 -58v-21q0 -40 28.5 -60.5t78.5 -20.5zM284 595q-40 0 -67.5 15t-46 37.5t-29.5 49t-18 49.5l51 22l21 -34q12 -19 21 -33t18.5 -23t21 -13.5t28.5 -4.5q16 0 28 4.5t21.5 13.5t18.5 23t21 33
l21 34l51 -22q-7 -23 -18 -49.5t-29.5 -49t-46 -37.5t-67.5 -15z" />
    <glyph glyph-name="acircumflex" unicode="&#xe2;" 
d="M495 0q-47 0 -67 24t-25 60h-5q-17 -45 -54.5 -70.5t-100.5 -25.5q-81 0 -129 42t-48 115q0 72 52.5 111t169.5 39h110v51q0 57 -32 85.5t-91 28.5q-52 0 -85 -20.5t-53 -55.5l-54 40q10 20 27 39t42 33.5t57 23t71 8.5q91 0 144.5 -46t53.5 -128v-284h72v-70h-55z
M257 55q31 0 56.5 7.5t44.5 20t29.5 30t10.5 37.5v85h-110q-72 0 -105 -20t-33 -58v-21q0 -40 28.5 -60.5t78.5 -20.5zM334 765l111 -143l-45 -31l-117 117l-117 -117l-43 31l111 143h100z" />
    <glyph glyph-name="adieresis" unicode="&#xe4;" 
d="M495 0q-47 0 -67 24t-25 60h-5q-17 -45 -54.5 -70.5t-100.5 -25.5q-81 0 -129 42t-48 115q0 72 52.5 111t169.5 39h110v51q0 57 -32 85.5t-91 28.5q-52 0 -85 -20.5t-53 -55.5l-54 40q10 20 27 39t42 33.5t57 23t71 8.5q91 0 144.5 -46t53.5 -128v-284h72v-70h-55z
M257 55q31 0 56.5 7.5t44.5 20t29.5 30t10.5 37.5v85h-110q-72 0 -105 -20t-33 -58v-21q0 -40 28.5 -60.5t78.5 -20.5zM191 618q-31 0 -44 13t-13 33v14q0 20 13 33t44 13t44 -13t13 -33v-14q0 -20 -13 -33t-44 -13zM377 618q-31 0 -44 13t-13 33v14q0 20 13 33t44 13
t44 -13t13 -33v-14q0 -20 -13 -33t-44 -13z" />
    <glyph glyph-name="uni1EA1" unicode="&#x1ea1;" 
d="M495 0q-47 0 -67 24t-25 60h-5q-17 -45 -54.5 -70.5t-100.5 -25.5q-81 0 -129 42t-48 115q0 72 52.5 111t169.5 39h110v51q0 57 -32 85.5t-91 28.5q-52 0 -85 -20.5t-53 -55.5l-54 40q10 20 27 39t42 33.5t57 23t71 8.5q91 0 144.5 -46t53.5 -128v-284h72v-70h-55z
M257 55q31 0 56.5 7.5t44.5 20t29.5 30t10.5 37.5v85h-110q-72 0 -105 -20t-33 -58v-21q0 -40 28.5 -60.5t78.5 -20.5zM283 -172q-31 0 -44 13t-13 33v14q0 20 13 33t44 13t44 -13t13 -33v-14q0 -20 -13 -33t-44 -13z" />
    <glyph glyph-name="agrave" unicode="&#xe0;" 
d="M495 0q-47 0 -67 24t-25 60h-5q-17 -45 -54.5 -70.5t-100.5 -25.5q-81 0 -129 42t-48 115q0 72 52.5 111t169.5 39h110v51q0 57 -32 85.5t-91 28.5q-52 0 -85 -20.5t-53 -55.5l-54 40q10 20 27 39t42 33.5t57 23t71 8.5q91 0 144.5 -46t53.5 -128v-284h72v-70h-55z
M257 55q31 0 56.5 7.5t44.5 20t29.5 30t10.5 37.5v85h-110q-72 0 -105 -20t-33 -58v-21q0 -40 28.5 -60.5t78.5 -20.5zM171 744l73 35l85 -170l-52 -24z" />
    <glyph glyph-name="uni1EA3" unicode="&#x1ea3;" 
d="M495 0q-47 0 -67 24t-25 60h-5q-17 -45 -54.5 -70.5t-100.5 -25.5q-81 0 -129 42t-48 115q0 72 52.5 111t169.5 39h110v51q0 57 -32 85.5t-91 28.5q-52 0 -85 -20.5t-53 -55.5l-54 40q10 20 27 39t42 33.5t57 23t71 8.5q91 0 144.5 -46t53.5 -128v-284h72v-70h-55z
M257 55q31 0 56.5 7.5t44.5 20t29.5 30t10.5 37.5v85h-110q-72 0 -105 -20t-33 -58v-21q0 -40 28.5 -60.5t78.5 -20.5zM199 765h109q38 0 54 -16t16 -39q0 -22 -13 -48t-36 -55l-24 -30l-46 23l58 104h-118v61z" />
    <glyph glyph-name="amacron" unicode="&#x101;" 
d="M495 0q-47 0 -67 24t-25 60h-5q-17 -45 -54.5 -70.5t-100.5 -25.5q-81 0 -129 42t-48 115q0 72 52.5 111t169.5 39h110v51q0 57 -32 85.5t-91 28.5q-52 0 -85 -20.5t-53 -55.5l-54 40q10 20 27 39t42 33.5t57 23t71 8.5q91 0 144.5 -46t53.5 -128v-284h72v-70h-55z
M257 55q31 0 56.5 7.5t44.5 20t29.5 30t10.5 37.5v85h-110q-72 0 -105 -20t-33 -58v-21q0 -40 28.5 -60.5t78.5 -20.5zM144 705h280v-68h-280v68z" />
    <glyph glyph-name="aogonek" unicode="&#x105;" 
d="M550 0q-39 -24 -61.5 -42t-34 -31.5t-14.5 -23.5t-3 -17q0 -21 13 -29t29 -8q31 0 52 26l40 -41q-10 -17 -32.5 -29t-60.5 -12q-46 0 -77.5 20t-31.5 60q0 36 29 66.5t86 57.5l-1 3q-37 3 -57 26t-23 58h-5q-17 -45 -54.5 -70.5t-100.5 -25.5q-81 0 -129 42t-48 115
q0 72 52.5 111t169.5 39h110v51q0 57 -32 85.5t-92 28.5q-51 0 -84 -20.5t-53 -55.5l-54 40q10 20 27 39t42 33.5t57 23t71 8.5q91 0 144.5 -46t53.5 -128v-284h72v-70zM288 235q-72 0 -105 -20t-33 -58v-21q0 -40 28.5 -60.5t78.5 -20.5q31 0 56.5 7.5t44.5 20t29.5 30
t10.5 37.5v85h-110z" />
    <glyph glyph-name="aring" unicode="&#xe5;" 
d="M495 0q-47 0 -67 24t-25 60h-5q-17 -45 -54.5 -70.5t-100.5 -25.5q-81 0 -129 42t-48 115q0 72 52.5 111t169.5 39h110v51q0 57 -32 85.5t-91 28.5q-52 0 -85 -20.5t-53 -55.5l-54 40q10 20 27 39t42 33.5t57 23t71 8.5q91 0 144.5 -46t53.5 -128v-284h72v-70h-55z
M257 55q31 0 56.5 7.5t44.5 20t29.5 30t10.5 37.5v85h-110q-72 0 -105 -20t-33 -58v-21q0 -40 28.5 -60.5t78.5 -20.5zM284 576q-24 0 -45.5 8.5t-37 24t-24.5 36.5t-9 46t9 46t24.5 36.5t37 24t45.5 8.5t45.5 -8.5t37 -24t24.5 -36.5t9 -46t-9 -46t-24.5 -36.5t-37 -24
t-45.5 -8.5zM284 625q27 0 42.5 14.5t15.5 40.5v22q0 26 -15.5 40.5t-42.5 14.5t-42.5 -14.5t-15.5 -40.5v-22q0 -26 15.5 -40.5t42.5 -14.5z" />
    <glyph glyph-name="aringacute" unicode="&#x1fb;" 
d="M495 0q-47 0 -67 24t-25 60h-5q-17 -45 -54.5 -70.5t-100.5 -25.5q-81 0 -129 42t-48 115q0 72 52.5 111t169.5 39h110v51q0 57 -32 85.5t-91 28.5q-52 0 -85 -20.5t-53 -55.5l-54 40q10 20 27 39t42 33.5t57 23t71 8.5q91 0 144.5 -46t53.5 -128v-284h72v-70h-55z
M257 55q31 0 56.5 7.5t44.5 20t29.5 30t10.5 37.5v85h-110q-72 0 -105 -20t-33 -58v-21q0 -40 28.5 -60.5t78.5 -20.5zM295 814l-41 26l75 116l60 -37zM284 566q-24 0 -45.5 8.5t-37 24t-24.5 36.5t-9 46t9 46t24.5 36.5t37 24t45.5 8.5t45.5 -8.5t37 -24t24.5 -36.5t9 -46
t-9 -46t-24.5 -36.5t-37 -24t-45.5 -8.5zM284 615q27 0 42.5 14.5t15.5 40.5v22q0 26 -15.5 40.5t-42.5 14.5t-42.5 -14.5t-15.5 -40.5v-22q0 -26 15.5 -40.5t42.5 -14.5z" />
    <glyph glyph-name="atilde" unicode="&#xe3;" 
d="M495 0q-47 0 -67 24t-25 60h-5q-17 -45 -54.5 -70.5t-100.5 -25.5q-81 0 -129 42t-48 115q0 72 52.5 111t169.5 39h110v51q0 57 -32 85.5t-91 28.5q-52 0 -85 -20.5t-53 -55.5l-54 40q10 20 27 39t42 33.5t57 23t71 8.5q91 0 144.5 -46t53.5 -128v-284h72v-70h-55z
M257 55q31 0 56.5 7.5t44.5 20t29.5 30t10.5 37.5v85h-110q-72 0 -105 -20t-33 -58v-21q0 -40 28.5 -60.5t78.5 -20.5zM357 612q-26 0 -45 9t-35 17q-24 13 -40.5 18.5t-29.5 5.5q-17 0 -30 -7t-28 -20l-33 40q14 20 37 36.5t58 16.5q26 0 45 -9t35 -17q24 -13 40.5 -18.5
t29.5 -5.5q17 0 30 7t28 20l33 -40q-14 -20 -37 -36.5t-58 -16.5z" />
    <glyph glyph-name="uni1EAF" unicode="&#x1eaf;" 
d="M495 0q-47 0 -67 24t-25 60h-5q-17 -45 -54.5 -70.5t-100.5 -25.5q-81 0 -129 42t-48 115q0 72 52.5 111t169.5 39h110v51q0 57 -32 85.5t-91 28.5q-52 0 -85 -20.5t-53 -55.5l-54 40q10 20 27 39t42 33.5t57 23t71 8.5q91 0 144.5 -46t53.5 -128v-284h72v-70h-55z
M257 55q31 0 56.5 7.5t44.5 20t29.5 30t10.5 37.5v85h-110q-72 0 -105 -20t-33 -58v-21q0 -40 28.5 -60.5t78.5 -20.5zM282 585q-40 0 -68 13.5t-47.5 34t-31 45t-18.5 46.5l47 23l21 -32q24 -36 44.5 -51t53.5 -15t53.5 15t44.5 51l21 32l47 -23q-8 -24 -20.5 -49t-32 -45
t-47.5 -32.5t-67 -12.5zM290 708l-49 23l85 170l70 -34z" />
    <glyph glyph-name="uni1EB7" unicode="&#x1eb7;" 
d="M495 0q-47 0 -67 24t-25 60h-5q-17 -45 -54.5 -70.5t-100.5 -25.5q-81 0 -129 42t-48 115q0 72 52.5 111t169.5 39h110v51q0 57 -32 85.5t-91 28.5q-52 0 -85 -20.5t-53 -55.5l-54 40q10 20 27 39t42 33.5t57 23t71 8.5q91 0 144.5 -46t53.5 -128v-284h72v-70h-55z
M257 55q31 0 56.5 7.5t44.5 20t29.5 30t10.5 37.5v85h-110q-72 0 -105 -20t-33 -58v-21q0 -40 28.5 -60.5t78.5 -20.5zM284 595q-40 0 -67.5 15t-46 37.5t-29.5 49t-18 49.5l51 22l21 -34q12 -19 21 -33t18.5 -23t21 -13.5t28.5 -4.5q16 0 28 4.5t21.5 13.5t18.5 23t21 33
l21 34l51 -22q-7 -23 -18 -49.5t-29.5 -49t-46 -37.5t-67.5 -15zM283 -172q-31 0 -44 13t-13 33v14q0 20 13 33t44 13t44 -13t13 -33v-14q0 -20 -13 -33t-44 -13z" />
    <glyph glyph-name="uni1EB1" unicode="&#x1eb1;" 
d="M495 0q-47 0 -67 24t-25 60h-5q-17 -45 -54.5 -70.5t-100.5 -25.5q-81 0 -129 42t-48 115q0 72 52.5 111t169.5 39h110v51q0 57 -32 85.5t-91 28.5q-52 0 -85 -20.5t-53 -55.5l-54 40q10 20 27 39t42 33.5t57 23t71 8.5q91 0 144.5 -46t53.5 -128v-284h72v-70h-55z
M257 55q31 0 56.5 7.5t44.5 20t29.5 30t10.5 37.5v85h-110q-72 0 -105 -20t-33 -58v-21q0 -40 28.5 -60.5t78.5 -20.5zM284 585q-39 0 -67 12.5t-47.5 32.5t-32 45t-20.5 49l47 23l21 -32q24 -36 44.5 -51t53.5 -15t53.5 15t44.5 51l21 32l47 -23q-7 -22 -18.5 -46.5
t-31 -45t-47.5 -34t-68 -13.5zM170 867l70 34l85 -170l-49 -23z" />
    <glyph glyph-name="uni1EB3" unicode="&#x1eb3;" 
d="M495 0q-47 0 -67 24t-25 60h-5q-17 -45 -54.5 -70.5t-100.5 -25.5q-81 0 -129 42t-48 115q0 72 52.5 111t169.5 39h110v51q0 57 -32 85.5t-91 28.5q-52 0 -85 -20.5t-53 -55.5l-54 40q10 20 27 39t42 33.5t57 23t71 8.5q91 0 144.5 -46t53.5 -128v-284h72v-70h-55z
M257 55q31 0 56.5 7.5t44.5 20t29.5 30t10.5 37.5v85h-110q-72 0 -105 -20t-33 -58v-21q0 -40 28.5 -60.5t78.5 -20.5zM284 585q-39 0 -67 12.5t-47.5 32.5t-32 45t-20.5 49l47 23l21 -32q24 -36 44.5 -51t53.5 -15t53.5 15t44.5 51l21 32l47 -23q-7 -22 -18.5 -46.5
t-31 -45t-47.5 -34t-68 -13.5zM198 890h94q38 0 54 -16t16 -39q0 -22 -13 -48t-36 -55l-24 -30l-46 23l58 104h-103v61z" />
    <glyph glyph-name="uni1EB5" unicode="&#x1eb5;" 
d="M495 0q-47 0 -67 24t-25 60h-5q-17 -45 -54.5 -70.5t-100.5 -25.5q-81 0 -129 42t-48 115q0 72 52.5 111t169.5 39h110v51q0 57 -32 85.5t-91 28.5q-52 0 -85 -20.5t-53 -55.5l-54 40q10 20 27 39t42 33.5t57 23t71 8.5q91 0 144.5 -46t53.5 -128v-284h72v-70h-55z
M257 55q31 0 56.5 7.5t44.5 20t29.5 30t10.5 37.5v85h-110q-72 0 -105 -20t-33 -58v-21q0 -40 28.5 -60.5t78.5 -20.5zM284 585q-39 0 -67 12.5t-47.5 32.5t-32 45t-20.5 49l47 23l21 -32q24 -36 44.5 -51t53.5 -15t53.5 15t44.5 51l21 32l47 -23q-7 -22 -18.5 -46.5
t-31 -45t-47.5 -34t-68 -13.5zM355 769q-26 0 -45 9t-35 17q-24 13 -40.5 18.5t-29.5 5.5q-17 0 -30 -7t-28 -20l-31 36q14 20 37 36.5t58 16.5q26 0 45 -9t35 -17q24 -13 40.5 -18.5t29.5 -5.5q17 0 30 7t28 20l31 -36q-14 -20 -37 -36.5t-58 -16.5z" />
    <glyph glyph-name="uni1EA5" unicode="&#x1ea5;" 
d="M495 0q-47 0 -67 24t-25 60h-5q-17 -45 -54.5 -70.5t-100.5 -25.5q-81 0 -129 42t-48 115q0 72 52.5 111t169.5 39h110v51q0 57 -32 85.5t-91 28.5q-52 0 -85 -20.5t-53 -55.5l-54 40q10 20 27 39t42 33.5t57 23t71 8.5q91 0 144.5 -46t53.5 -128v-284h72v-70h-55z
M257 55q31 0 56.5 7.5t44.5 20t29.5 30t10.5 37.5v85h-110q-72 0 -105 -20t-33 -58v-21q0 -40 28.5 -60.5t78.5 -20.5zM437 712l-49 23l85 170l70 -34zM333 755l110 -144l-44 -30l-117 119l-117 -119l-42 30l110 144h100z" />
    <glyph glyph-name="uni1EAD" unicode="&#x1ead;" 
d="M495 0q-47 0 -67 24t-25 60h-5q-17 -45 -54.5 -70.5t-100.5 -25.5q-81 0 -129 42t-48 115q0 72 52.5 111t169.5 39h110v51q0 57 -32 85.5t-91 28.5q-52 0 -85 -20.5t-53 -55.5l-54 40q10 20 27 39t42 33.5t57 23t71 8.5q91 0 144.5 -46t53.5 -128v-284h72v-70h-55z
M257 55q31 0 56.5 7.5t44.5 20t29.5 30t10.5 37.5v85h-110q-72 0 -105 -20t-33 -58v-21q0 -40 28.5 -60.5t78.5 -20.5zM334 765l111 -143l-45 -31l-117 117l-117 -117l-43 31l111 143h100zM283 -172q-31 0 -44 13t-13 33v14q0 20 13 33t44 13t44 -13t13 -33v-14
q0 -20 -13 -33t-44 -13z" />
    <glyph glyph-name="uni1EA7" unicode="&#x1ea7;" 
d="M495 0q-47 0 -67 24t-25 60h-5q-17 -45 -54.5 -70.5t-100.5 -25.5q-81 0 -129 42t-48 115q0 72 52.5 111t169.5 39h110v51q0 57 -32 85.5t-91 28.5q-52 0 -85 -20.5t-53 -55.5l-54 40q10 20 27 39t42 33.5t57 23t71 8.5q91 0 144.5 -46t53.5 -128v-284h72v-70h-55z
M257 55q31 0 56.5 7.5t44.5 20t29.5 30t10.5 37.5v85h-110q-72 0 -105 -20t-33 -58v-21q0 -40 28.5 -60.5t78.5 -20.5zM23 871l70 34l85 -170l-49 -23zM333 755l110 -144l-44 -30l-117 119l-117 -119l-42 30l110 144h100z" />
    <glyph glyph-name="uni1EA9" unicode="&#x1ea9;" 
d="M495 0q-47 0 -67 24t-25 60h-5q-17 -45 -54.5 -70.5t-100.5 -25.5q-81 0 -129 42t-48 115q0 72 52.5 111t169.5 39h110v51q0 57 -32 85.5t-91 28.5q-52 0 -85 -20.5t-53 -55.5l-54 40q10 20 27 39t42 33.5t57 23t71 8.5q91 0 144.5 -46t53.5 -128v-284h72v-70h-55z
M257 55q31 0 56.5 7.5t44.5 20t29.5 30t10.5 37.5v85h-110q-72 0 -105 -20t-33 -58v-21q0 -40 28.5 -60.5t78.5 -20.5zM336 894h109q38 0 54 -16t16 -39q0 -22 -13 -48t-36 -55l-24 -30l-46 23l58 104h-118v61zM333 755l110 -144l-44 -30l-117 119l-117 -119l-42 30l110 144
h100z" />
    <glyph glyph-name="uni1EAB" unicode="&#x1eab;" 
d="M495 0q-47 0 -67 24t-25 60h-5q-17 -45 -54.5 -70.5t-100.5 -25.5q-81 0 -129 42t-48 115q0 72 52.5 111t169.5 39h110v51q0 57 -32 85.5t-91 28.5q-52 0 -85 -20.5t-53 -55.5l-54 40q10 20 27 39t42 33.5t57 23t71 8.5q91 0 144.5 -46t53.5 -128v-284h72v-70h-55z
M257 55q31 0 56.5 7.5t44.5 20t29.5 30t10.5 37.5v85h-110q-72 0 -105 -20t-33 -58v-21q0 -40 28.5 -60.5t78.5 -20.5zM211 892q26 0 45 -9t35 -17q24 -13 40.5 -18.5t29.5 -5.5q17 0 30 7t28 20l31 -36q-14 -20 -37 -36.5t-58 -16.5q-26 0 -45 9t-35 17q-24 13 -40.5 18.5
t-29.5 5.5q-17 0 -30 -7t-28 -20l-31 36q14 20 37 36.5t58 16.5zM333 745l110 -134l-44 -30l-117 111l-117 -111l-42 30l110 134h100z" />
    <glyph glyph-name="aacute.alt01" 
d="M425 84h-4q-50 -96 -159 -96q-95 0 -148.5 71t-53.5 199t53.5 199t148.5 71q109 0 159 -96h4v84h80v-516h-80v84zM293 59q27 0 51 7t42 20.5t28.5 33t10.5 45.5v186q0 26 -10.5 45.5t-28.5 33t-42 20.5t-51 7q-70 0 -108.5 -42.5t-38.5 -112.5v-88q0 -70 38.5 -112.5
t108.5 -42.5zM295 585l-52 24l85 170l73 -35z" />
    <glyph glyph-name="abreve.alt01" 
d="M425 84h-4q-50 -96 -159 -96q-95 0 -148.5 71t-53.5 199t53.5 199t148.5 71q109 0 159 -96h4v84h80v-516h-80v84zM293 59q27 0 51 7t42 20.5t28.5 33t10.5 45.5v186q0 26 -10.5 45.5t-28.5 33t-42 20.5t-51 7q-70 0 -108.5 -42.5t-38.5 -112.5v-88q0 -70 38.5 -112.5
t108.5 -42.5zM288 595q-40 0 -67.5 15t-46 37.5t-29.5 49t-18 49.5l51 22l21 -34q12 -19 21 -33t18.5 -23t21 -13.5t28.5 -4.5q16 0 28 4.5t21.5 13.5t18.5 23t21 33l21 34l51 -22q-7 -23 -18 -49.5t-29.5 -49t-46 -37.5t-67.5 -15z" />
    <glyph glyph-name="acircumflex.alt01" 
d="M425 84h-4q-50 -96 -159 -96q-95 0 -148.5 71t-53.5 199t53.5 199t148.5 71q109 0 159 -96h4v84h80v-516h-80v84zM293 59q27 0 51 7t42 20.5t28.5 33t10.5 45.5v186q0 26 -10.5 45.5t-28.5 33t-42 20.5t-51 7q-70 0 -108.5 -42.5t-38.5 -112.5v-88q0 -70 38.5 -112.5
t108.5 -42.5zM338 765l111 -143l-45 -31l-117 117l-117 -117l-43 31l111 143h100z" />
    <glyph glyph-name="adieresis.alt01" 
d="M425 84h-4q-50 -96 -159 -96q-95 0 -148.5 71t-53.5 199t53.5 199t148.5 71q109 0 159 -96h4v84h80v-516h-80v84zM293 59q27 0 51 7t42 20.5t28.5 33t10.5 45.5v186q0 26 -10.5 45.5t-28.5 33t-42 20.5t-51 7q-70 0 -108.5 -42.5t-38.5 -112.5v-88q0 -70 38.5 -112.5
t108.5 -42.5zM195 618q-31 0 -44 13t-13 33v14q0 20 13 33t44 13t44 -13t13 -33v-14q0 -20 -13 -33t-44 -13zM381 618q-31 0 -44 13t-13 33v14q0 20 13 33t44 13t44 -13t13 -33v-14q0 -20 -13 -33t-44 -13z" />
    <glyph glyph-name="uni1EA1.alt01" 
d="M425 84h-4q-50 -96 -159 -96q-95 0 -148.5 71t-53.5 199t53.5 199t148.5 71q109 0 159 -96h4v84h80v-516h-80v84zM293 59q27 0 51 7t42 20.5t28.5 33t10.5 45.5v186q0 26 -10.5 45.5t-28.5 33t-42 20.5t-51 7q-70 0 -108.5 -42.5t-38.5 -112.5v-88q0 -70 38.5 -112.5
t108.5 -42.5zM287 -172q-31 0 -44 13t-13 33v14q0 20 13 33t44 13t44 -13t13 -33v-14q0 -20 -13 -33t-44 -13z" />
    <glyph glyph-name="agrave.alt01" 
d="M425 84h-4q-50 -96 -159 -96q-95 0 -148.5 71t-53.5 199t53.5 199t148.5 71q109 0 159 -96h4v84h80v-516h-80v84zM293 59q27 0 51 7t42 20.5t28.5 33t10.5 45.5v186q0 26 -10.5 45.5t-28.5 33t-42 20.5t-51 7q-70 0 -108.5 -42.5t-38.5 -112.5v-88q0 -70 38.5 -112.5
t108.5 -42.5zM175 744l73 35l85 -170l-52 -24z" />
    <glyph glyph-name="uni1EA3.alt01" 
d="M425 84h-4q-50 -96 -159 -96q-95 0 -148.5 71t-53.5 199t53.5 199t148.5 71q109 0 159 -96h4v84h80v-516h-80v84zM293 59q27 0 51 7t42 20.5t28.5 33t10.5 45.5v186q0 26 -10.5 45.5t-28.5 33t-42 20.5t-51 7q-70 0 -108.5 -42.5t-38.5 -112.5v-88q0 -70 38.5 -112.5
t108.5 -42.5zM203 765h109q38 0 54 -16t16 -39q0 -22 -13 -48t-36 -55l-24 -30l-46 23l58 104h-118v61z" />
    <glyph glyph-name="amacron.alt01" 
d="M425 84h-4q-50 -96 -159 -96q-95 0 -148.5 71t-53.5 199t53.5 199t148.5 71q109 0 159 -96h4v84h80v-516h-80v84zM293 59q27 0 51 7t42 20.5t28.5 33t10.5 45.5v186q0 26 -10.5 45.5t-28.5 33t-42 20.5t-51 7q-70 0 -108.5 -42.5t-38.5 -112.5v-88q0 -70 38.5 -112.5
t108.5 -42.5zM148 705h280v-68h-280v68z" />
    <glyph glyph-name="aogonek.alt01" 
d="M433 -207q-46 0 -77.5 20t-31.5 60q0 36 29 66.5t86 57.5l-1 3h-13v84h-4q-50 -96 -159 -96q-95 0 -148.5 71t-53.5 199t53.5 199t148.5 71q109 0 159 -96h4v84h80v-516q-39 -24 -61.5 -42t-34 -31.5t-14.5 -23.5t-3 -17q0 -21 13 -29t29 -8q31 0 52 26l40 -41
q-10 -17 -32.5 -29t-60.5 -12zM293 59q27 0 51 7t42 20.5t28.5 33t10.5 45.5v186q0 26 -10.5 45.5t-28.5 33t-42 20.5t-51 7q-70 0 -108.5 -42.5t-38.5 -112.5v-88q0 -70 38.5 -112.5t108.5 -42.5z" />
    <glyph glyph-name="aring.alt01" 
d="M425 84h-4q-50 -96 -159 -96q-95 0 -148.5 71t-53.5 199t53.5 199t148.5 71q109 0 159 -96h4v84h80v-516h-80v84zM293 59q27 0 51 7t42 20.5t28.5 33t10.5 45.5v186q0 26 -10.5 45.5t-28.5 33t-42 20.5t-51 7q-70 0 -108.5 -42.5t-38.5 -112.5v-88q0 -70 38.5 -112.5
t108.5 -42.5zM288 576q-24 0 -45.5 8.5t-37 24t-24.5 36.5t-9 46t9 46t24.5 36.5t37 24t45.5 8.5t45.5 -8.5t37 -24t24.5 -36.5t9 -46t-9 -46t-24.5 -36.5t-37 -24t-45.5 -8.5zM288 625q27 0 42.5 14.5t15.5 40.5v22q0 26 -15.5 40.5t-42.5 14.5t-42.5 -14.5t-15.5 -40.5
v-22q0 -26 15.5 -40.5t42.5 -14.5z" />
    <glyph glyph-name="aringacute.alt01" 
d="M425 84h-4q-50 -96 -159 -96q-95 0 -148.5 71t-53.5 199t53.5 199t148.5 71q109 0 159 -96h4v84h80v-516h-80v84zM293 59q27 0 51 7t42 20.5t28.5 33t10.5 45.5v186q0 26 -10.5 45.5t-28.5 33t-42 20.5t-51 7q-70 0 -108.5 -42.5t-38.5 -112.5v-88q0 -70 38.5 -112.5
t108.5 -42.5zM299 814l-41 26l75 116l60 -37zM288 566q-24 0 -45.5 8.5t-37 24t-24.5 36.5t-9 46t9 46t24.5 36.5t37 24t45.5 8.5t45.5 -8.5t37 -24t24.5 -36.5t9 -46t-9 -46t-24.5 -36.5t-37 -24t-45.5 -8.5zM288 615q27 0 42.5 14.5t15.5 40.5v22q0 26 -15.5 40.5
t-42.5 14.5t-42.5 -14.5t-15.5 -40.5v-22q0 -26 15.5 -40.5t42.5 -14.5z" />
    <glyph glyph-name="atilde.alt01" 
d="M425 84h-4q-50 -96 -159 -96q-95 0 -148.5 71t-53.5 199t53.5 199t148.5 71q109 0 159 -96h4v84h80v-516h-80v84zM293 59q27 0 51 7t42 20.5t28.5 33t10.5 45.5v186q0 26 -10.5 45.5t-28.5 33t-42 20.5t-51 7q-70 0 -108.5 -42.5t-38.5 -112.5v-88q0 -70 38.5 -112.5
t108.5 -42.5zM361 612q-26 0 -45 9t-35 17q-24 13 -40.5 18.5t-29.5 5.5q-17 0 -30 -7t-28 -20l-33 40q14 20 37 36.5t58 16.5q26 0 45 -9t35 -17q24 -13 40.5 -18.5t29.5 -5.5q17 0 30 7t28 20l33 -40q-14 -20 -37 -36.5t-58 -16.5z" />
    <glyph glyph-name="uni1EAF.alt01" 
d="M425 84h-4q-50 -96 -159 -96q-95 0 -148.5 71t-53.5 199t53.5 199t148.5 71q109 0 159 -96h4v84h80v-516h-80v84zM293 59q27 0 51 7t42 20.5t28.5 33t10.5 45.5v186q0 26 -10.5 45.5t-28.5 33t-42 20.5t-51 7q-70 0 -108.5 -42.5t-38.5 -112.5v-88q0 -70 38.5 -112.5
t108.5 -42.5zM286 585q-40 0 -68 13.5t-47.5 34t-31 45t-18.5 46.5l47 23l21 -32q24 -36 44.5 -51t53.5 -15t53.5 15t44.5 51l21 32l47 -23q-8 -24 -20.5 -49t-32 -45t-47.5 -32.5t-67 -12.5zM294 708l-49 23l85 170l70 -34z" />
    <glyph glyph-name="uni1EB7.alt01" 
d="M425 84h-4q-50 -96 -159 -96q-95 0 -148.5 71t-53.5 199t53.5 199t148.5 71q109 0 159 -96h4v84h80v-516h-80v84zM293 59q27 0 51 7t42 20.5t28.5 33t10.5 45.5v186q0 26 -10.5 45.5t-28.5 33t-42 20.5t-51 7q-70 0 -108.5 -42.5t-38.5 -112.5v-88q0 -70 38.5 -112.5
t108.5 -42.5zM288 595q-40 0 -67.5 15t-46 37.5t-29.5 49t-18 49.5l51 22l21 -34q12 -19 21 -33t18.5 -23t21 -13.5t28.5 -4.5q16 0 28 4.5t21.5 13.5t18.5 23t21 33l21 34l51 -22q-7 -23 -18 -49.5t-29.5 -49t-46 -37.5t-67.5 -15zM287 -172q-31 0 -44 13t-13 33v14
q0 20 13 33t44 13t44 -13t13 -33v-14q0 -20 -13 -33t-44 -13z" />
    <glyph glyph-name="uni1EB1.alt01" 
d="M425 84h-4q-50 -96 -159 -96q-95 0 -148.5 71t-53.5 199t53.5 199t148.5 71q109 0 159 -96h4v84h80v-516h-80v84zM293 59q27 0 51 7t42 20.5t28.5 33t10.5 45.5v186q0 26 -10.5 45.5t-28.5 33t-42 20.5t-51 7q-70 0 -108.5 -42.5t-38.5 -112.5v-88q0 -70 38.5 -112.5
t108.5 -42.5zM288 585q-39 0 -67 12.5t-47.5 32.5t-32 45t-20.5 49l47 23l21 -32q24 -36 44.5 -51t53.5 -15t53.5 15t44.5 51l21 32l47 -23q-7 -22 -18.5 -46.5t-31 -45t-47.5 -34t-68 -13.5zM174 867l70 34l85 -170l-49 -23z" />
    <glyph glyph-name="uni1EB3.alt01" 
d="M425 84h-4q-50 -96 -159 -96q-95 0 -148.5 71t-53.5 199t53.5 199t148.5 71q109 0 159 -96h4v84h80v-516h-80v84zM293 59q27 0 51 7t42 20.5t28.5 33t10.5 45.5v186q0 26 -10.5 45.5t-28.5 33t-42 20.5t-51 7q-70 0 -108.5 -42.5t-38.5 -112.5v-88q0 -70 38.5 -112.5
t108.5 -42.5zM288 585q-39 0 -67 12.5t-47.5 32.5t-32 45t-20.5 49l47 23l21 -32q24 -36 44.5 -51t53.5 -15t53.5 15t44.5 51l21 32l47 -23q-7 -22 -18.5 -46.5t-31 -45t-47.5 -34t-68 -13.5zM202 890h94q38 0 54 -16t16 -39q0 -22 -13 -48t-36 -55l-24 -30l-46 23l58 104
h-103v61z" />
    <glyph glyph-name="uni1EB5.alt01" 
d="M425 84h-4q-50 -96 -159 -96q-95 0 -148.5 71t-53.5 199t53.5 199t148.5 71q109 0 159 -96h4v84h80v-516h-80v84zM293 59q27 0 51 7t42 20.5t28.5 33t10.5 45.5v186q0 26 -10.5 45.5t-28.5 33t-42 20.5t-51 7q-70 0 -108.5 -42.5t-38.5 -112.5v-88q0 -70 38.5 -112.5
t108.5 -42.5zM288 585q-39 0 -67 12.5t-47.5 32.5t-32 45t-20.5 49l47 23l21 -32q24 -36 44.5 -51t53.5 -15t53.5 15t44.5 51l21 32l47 -23q-7 -22 -18.5 -46.5t-31 -45t-47.5 -34t-68 -13.5zM359 769q-26 0 -45 9t-35 17q-24 13 -40.5 18.5t-29.5 5.5q-17 0 -30 -7t-28 -20
l-31 36q14 20 37 36.5t58 16.5q26 0 45 -9t35 -17q24 -13 40.5 -18.5t29.5 -5.5q17 0 30 7t28 20l31 -36q-14 -20 -37 -36.5t-58 -16.5z" />
    <glyph glyph-name="uni1EA5.alt01" 
d="M425 84h-4q-50 -96 -159 -96q-95 0 -148.5 71t-53.5 199t53.5 199t148.5 71q109 0 159 -96h4v84h80v-516h-80v84zM293 59q27 0 51 7t42 20.5t28.5 33t10.5 45.5v186q0 26 -10.5 45.5t-28.5 33t-42 20.5t-51 7q-70 0 -108.5 -42.5t-38.5 -112.5v-88q0 -70 38.5 -112.5
t108.5 -42.5zM441 712l-49 23l85 170l70 -34zM337 755l110 -144l-44 -30l-117 119l-117 -119l-42 30l110 144h100z" />
    <glyph glyph-name="uni1EAD.alt01" 
d="M425 84h-4q-50 -96 -159 -96q-95 0 -148.5 71t-53.5 199t53.5 199t148.5 71q109 0 159 -96h4v84h80v-516h-80v84zM293 59q27 0 51 7t42 20.5t28.5 33t10.5 45.5v186q0 26 -10.5 45.5t-28.5 33t-42 20.5t-51 7q-70 0 -108.5 -42.5t-38.5 -112.5v-88q0 -70 38.5 -112.5
t108.5 -42.5zM338 765l111 -143l-45 -31l-117 117l-117 -117l-43 31l111 143h100zM287 -172q-31 0 -44 13t-13 33v14q0 20 13 33t44 13t44 -13t13 -33v-14q0 -20 -13 -33t-44 -13z" />
    <glyph glyph-name="uni1EA7.alt01" 
d="M425 84h-4q-50 -96 -159 -96q-95 0 -148.5 71t-53.5 199t53.5 199t148.5 71q109 0 159 -96h4v84h80v-516h-80v84zM293 59q27 0 51 7t42 20.5t28.5 33t10.5 45.5v186q0 26 -10.5 45.5t-28.5 33t-42 20.5t-51 7q-70 0 -108.5 -42.5t-38.5 -112.5v-88q0 -70 38.5 -112.5
t108.5 -42.5zM27 871l70 34l85 -170l-49 -23zM337 755l110 -144l-44 -30l-117 119l-117 -119l-42 30l110 144h100z" />
    <glyph glyph-name="uni1EA9.alt01" 
d="M425 84h-4q-50 -96 -159 -96q-95 0 -148.5 71t-53.5 199t53.5 199t148.5 71q109 0 159 -96h4v84h80v-516h-80v84zM293 59q27 0 51 7t42 20.5t28.5 33t10.5 45.5v186q0 26 -10.5 45.5t-28.5 33t-42 20.5t-51 7q-70 0 -108.5 -42.5t-38.5 -112.5v-88q0 -70 38.5 -112.5
t108.5 -42.5zM340 894h109q38 0 54 -16t16 -39q0 -22 -13 -48t-36 -55l-24 -30l-46 23l58 104h-118v61zM337 755l110 -144l-44 -30l-117 119l-117 -119l-42 30l110 144h100z" />
    <glyph glyph-name="uni1EAB.alt01" 
d="M425 84h-4q-50 -96 -159 -96q-95 0 -148.5 71t-53.5 199t53.5 199t148.5 71q109 0 159 -96h4v84h80v-516h-80v84zM293 59q27 0 51 7t42 20.5t28.5 33t10.5 45.5v186q0 26 -10.5 45.5t-28.5 33t-42 20.5t-51 7q-70 0 -108.5 -42.5t-38.5 -112.5v-88q0 -70 38.5 -112.5
t108.5 -42.5zM215 892q26 0 45 -9t35 -17q24 -13 40.5 -18.5t29.5 -5.5q17 0 30 7t28 20l31 -36q-14 -20 -37 -36.5t-58 -16.5q-26 0 -45 9t-35 17q-24 13 -40.5 18.5t-29.5 5.5q-17 0 -30 -7t-28 -20l-31 36q14 20 37 36.5t58 16.5zM337 745l110 -134l-44 -30l-117 111
l-117 -111l-42 30l110 134h100z" />
    <glyph glyph-name="ae" unicode="&#xe6;" 
d="M141 -12q-57 0 -94 38t-37 112q0 78 45.5 117.5t132.5 39.5h63v53q0 67 -21.5 93.5t-59.5 26.5t-59.5 -22t-35.5 -57l-53 33q8 20 21.5 39t32 34t43 24t54.5 9q45 0 76 -20t48 -58h3q20 43 52.5 60.5t71.5 17.5q78 0 118 -59.5t40 -176.5v-54h-258v-25q0 -71 24.5 -116
t71.5 -45q19 0 34.5 7.5t27 20t20 28.5t14.5 33l58 -27q-8 -23 -21.5 -45.5t-33 -40.5t-45 -29t-56.5 -11q-51 0 -88 30t-58 84h-3q-14 -59 -47.5 -86.5t-80.5 -27.5zM155 50q24 0 42 8.5t30 23t18 33t6 39.5v84h-52q-55 0 -85.5 -20t-30.5 -66v-15q0 -41 16 -64t56 -23z
M420 470q-46 0 -71 -34.5t-25 -106.5v-34h192v34q0 72 -25 106.5t-71 34.5z" />
    <glyph glyph-name="aeacute" unicode="&#x1fd;" 
d="M141 -12q-57 0 -94 38t-37 112q0 78 45.5 117.5t132.5 39.5h63v53q0 67 -21.5 93.5t-59.5 26.5t-59.5 -22t-35.5 -57l-53 33q8 20 21.5 39t32 34t43 24t54.5 9q45 0 76 -20t48 -58h3q20 43 52.5 60.5t71.5 17.5q78 0 118 -59.5t40 -176.5v-54h-258v-25q0 -71 24.5 -116
t71.5 -45q19 0 34.5 7.5t27 20t20 28.5t14.5 33l58 -27q-8 -23 -21.5 -45.5t-33 -40.5t-45 -29t-56.5 -11q-51 0 -88 30t-58 84h-3q-14 -59 -47.5 -86.5t-80.5 -27.5zM155 50q24 0 42 8.5t30 23t18 33t6 39.5v84h-52q-55 0 -85.5 -20t-30.5 -66v-15q0 -41 16 -64t56 -23z
M420 470q-46 0 -71 -34.5t-25 -106.5v-34h192v34q0 72 -25 106.5t-71 34.5zM307 585l-52 24l85 170l73 -35z" />
    <glyph glyph-name="cacute" unicode="&#x107;" 
d="M318 -12q-56 0 -99.5 19.5t-73.5 54.5t-45.5 85t-15.5 111t16 111t46 85.5t73 54.5t98 19q75 0 122 -33t69 -86l-64 -34q-14 40 -46.5 62t-80.5 22q-35 0 -62.5 -11.5t-46.5 -32.5t-28.5 -50t-9.5 -63v-88q0 -34 9.5 -63t28.5 -50t47 -32.5t64 -11.5q52 0 86 24t54 66
l57 -39q-23 -52 -71.5 -86t-126.5 -34zM320 585l-52 24l85 170l73 -35z" />
    <glyph glyph-name="ccaron" unicode="&#x10d;" 
d="M318 -12q-56 0 -99.5 19.5t-73.5 54.5t-45.5 85t-15.5 111t16 111t46 85.5t73 54.5t98 19q75 0 122 -33t69 -86l-64 -34q-14 40 -46.5 62t-80.5 22q-35 0 -62.5 -11.5t-46.5 -32.5t-28.5 -50t-9.5 -63v-88q0 -34 9.5 -63t28.5 -50t47 -32.5t64 -11.5q52 0 86 24t54 66
l57 -39q-23 -52 -71.5 -86t-126.5 -34zM263 599l-111 143l46 31l117 -117l117 117l42 -31l-111 -143h-100z" />
    <glyph glyph-name="ccedilla" unicode="&#xe7;" 
d="M317 528q75 0 122 -33t69 -86l-64 -34q-14 40 -46.5 62t-80.5 22q-35 0 -62.5 -11.5t-46.5 -32.5t-28.5 -50t-9.5 -63v-88q0 -34 9.5 -63t28.5 -50t47 -32.5t64 -11.5q52 0 86 24t54 66l57 -39q-23 -51 -69 -84.5t-121 -35.5l-10 -49l3 -3q19 6 39 6q29 0 48.5 -17
t19.5 -49q0 -21 -9 -37t-24.5 -26t-35.5 -15t-42 -5q-41 0 -64.5 13.5t-34.5 27.5l38 41q9 -11 24 -19.5t37 -8.5q19 0 31.5 7.5t12.5 23.5q0 14 -13 24.5t-55 16.5l-28 4l14 68q-92 14 -142.5 85t-50.5 182q0 61 16 111t46 85.5t73 54.5t98 19z" />
    <glyph glyph-name="ccircumflex" unicode="&#x109;" 
d="M318 -12q-56 0 -99.5 19.5t-73.5 54.5t-45.5 85t-15.5 111t16 111t46 85.5t73 54.5t98 19q75 0 122 -33t69 -86l-64 -34q-14 40 -46.5 62t-80.5 22q-35 0 -62.5 -11.5t-46.5 -32.5t-28.5 -50t-9.5 -63v-88q0 -34 9.5 -63t28.5 -50t47 -32.5t64 -11.5q52 0 86 24t54 66
l57 -39q-23 -52 -71.5 -86t-126.5 -34zM363 765l111 -143l-45 -31l-117 117l-117 -117l-43 31l111 143h100z" />
    <glyph glyph-name="cdotaccent" unicode="&#x10b;" 
d="M318 -12q-56 0 -99.5 19.5t-73.5 54.5t-45.5 85t-15.5 111t16 111t46 85.5t73 54.5t98 19q75 0 122 -33t69 -86l-64 -34q-14 40 -46.5 62t-80.5 22q-35 0 -62.5 -11.5t-46.5 -32.5t-28.5 -50t-9.5 -63v-88q0 -34 9.5 -63t28.5 -50t47 -32.5t64 -11.5q52 0 86 24t54 66
l57 -39q-23 -52 -71.5 -86t-126.5 -34zM313 612q-35 0 -49 14.5t-14 36.5v16q0 22 14 36.5t49 14.5t49 -14.5t14 -36.5v-16q0 -22 -14 -36.5t-49 -14.5z" />
    <glyph glyph-name="dcaron" unicode="&#x10f;" 
d="M237 -12q-91 0 -141.5 71t-50.5 199t50.5 199t141.5 71q102 0 149 -96h4v308h80v-740h-80v84h-4q-47 -96 -149 -96zM263 59q25 0 48 7t40.5 20.5t28 33t10.5 45.5v186q0 26 -10.5 45.5t-28 33t-40.5 20.5t-48 7q-66 0 -99 -41.5t-33 -113.5v-88q0 -72 33 -113.5t99 -41.5
zM545 740h103l-49 -189h-61z" />
    <glyph glyph-name="dcroat" unicode="&#x111;" 
d="M425 84h-4q-50 -96 -159 -96q-95 0 -148.5 71t-53.5 199t53.5 199t148.5 71q109 0 159 -96h4v176h-153v62h153v70h80v-70h65v-62h-65v-608h-80v84zM293 59q27 0 51 7t42 20.5t28.5 33t10.5 45.5v186q0 26 -10.5 45.5t-28.5 33t-42 20.5t-51 7q-70 0 -108.5 -42.5
t-38.5 -112.5v-88q0 -70 38.5 -112.5t108.5 -42.5z" />
    <glyph glyph-name="eth" unicode="&#xf0;" 
d="M459 708l-87 -61q31 -31 60.5 -70t52 -86t36 -103.5t13.5 -121.5q0 -140 -62 -209t-169 -69q-56 0 -100 18t-74.5 52t-46.5 81.5t-16 106.5t16 106.5t44.5 81.5t67.5 52t86 18q61 0 101 -28t64 -68l4 2q-25 62 -58.5 110t-75.5 88l-99 -70l-38 45l92 64q-33 26 -69 49
t-74 44h126q17 -11 35.5 -23.5t38.5 -28.5l94 65zM300 57q67 0 108 38t41 116v70q0 78 -41 116t-108 38t-108 -38t-41 -116v-70q0 -78 41 -116t108 -38z" />
    <glyph glyph-name="eacute" unicode="&#xe9;" 
d="M309 -12q-56 0 -100.5 19t-76 54.5t-48.5 85t-17 110.5q0 62 17.5 112t48.5 85.5t74.5 54.5t96.5 19q52 0 94.5 -19t72.5 -52.5t46 -79.5t16 -101v-38h-382v-24q0 -34 11 -63t31.5 -50t50 -32.5t65.5 -11.5q52 0 90 24t58 66l59 -40q-23 -52 -76.5 -85.5t-130.5 -33.5z
M304 462q-33 0 -61 -12t-48.5 -33t-32 -49.5t-11.5 -62.5v-7h296v11q0 34 -10.5 62t-29 48.5t-45 31.5t-58.5 11zM309 585l-52 24l85 170l73 -35z" />
    <glyph glyph-name="ebreve" unicode="&#x115;" 
d="M309 -12q-56 0 -100.5 19t-76 54.5t-48.5 85t-17 110.5q0 62 17.5 112t48.5 85.5t74.5 54.5t96.5 19q52 0 94.5 -19t72.5 -52.5t46 -79.5t16 -101v-38h-382v-24q0 -34 11 -63t31.5 -50t50 -32.5t65.5 -11.5q52 0 90 24t58 66l59 -40q-23 -52 -76.5 -85.5t-130.5 -33.5z
M304 462q-33 0 -61 -12t-48.5 -33t-32 -49.5t-11.5 -62.5v-7h296v11q0 34 -10.5 62t-29 48.5t-45 31.5t-58.5 11zM302 595q-40 0 -67.5 15t-46 37.5t-29.5 49t-18 49.5l51 22l21 -34q12 -19 21 -33t18.5 -23t21 -13.5t28.5 -4.5q16 0 28 4.5t21.5 13.5t18.5 23t21 33l21 34
l51 -22q-7 -23 -18 -49.5t-29.5 -49t-46 -37.5t-67.5 -15z" />
    <glyph glyph-name="ecaron" unicode="&#x11b;" 
d="M309 -12q-56 0 -100.5 19t-76 54.5t-48.5 85t-17 110.5q0 62 17.5 112t48.5 85.5t74.5 54.5t96.5 19q52 0 94.5 -19t72.5 -52.5t46 -79.5t16 -101v-38h-382v-24q0 -34 11 -63t31.5 -50t50 -32.5t65.5 -11.5q52 0 90 24t58 66l59 -40q-23 -52 -76.5 -85.5t-130.5 -33.5z
M304 462q-33 0 -61 -12t-48.5 -33t-32 -49.5t-11.5 -62.5v-7h296v11q0 34 -10.5 62t-29 48.5t-45 31.5t-58.5 11zM252 599l-111 143l46 31l117 -117l117 117l42 -31l-111 -143h-100z" />
    <glyph glyph-name="ecircumflex" unicode="&#xea;" 
d="M309 -12q-56 0 -100.5 19t-76 54.5t-48.5 85t-17 110.5q0 62 17.5 112t48.5 85.5t74.5 54.5t96.5 19q52 0 94.5 -19t72.5 -52.5t46 -79.5t16 -101v-38h-382v-24q0 -34 11 -63t31.5 -50t50 -32.5t65.5 -11.5q52 0 90 24t58 66l59 -40q-23 -52 -76.5 -85.5t-130.5 -33.5z
M304 462q-33 0 -61 -12t-48.5 -33t-32 -49.5t-11.5 -62.5v-7h296v11q0 34 -10.5 62t-29 48.5t-45 31.5t-58.5 11zM352 765l111 -143l-45 -31l-117 117l-117 -117l-43 31l111 143h100z" />
    <glyph glyph-name="edieresis" unicode="&#xeb;" 
d="M309 -12q-56 0 -100.5 19t-76 54.5t-48.5 85t-17 110.5q0 62 17.5 112t48.5 85.5t74.5 54.5t96.5 19q52 0 94.5 -19t72.5 -52.5t46 -79.5t16 -101v-38h-382v-24q0 -34 11 -63t31.5 -50t50 -32.5t65.5 -11.5q52 0 90 24t58 66l59 -40q-23 -52 -76.5 -85.5t-130.5 -33.5z
M304 462q-33 0 -61 -12t-48.5 -33t-32 -49.5t-11.5 -62.5v-7h296v11q0 34 -10.5 62t-29 48.5t-45 31.5t-58.5 11zM209 618q-31 0 -44 13t-13 33v14q0 20 13 33t44 13t44 -13t13 -33v-14q0 -20 -13 -33t-44 -13zM395 618q-31 0 -44 13t-13 33v14q0 20 13 33t44 13t44 -13
t13 -33v-14q0 -20 -13 -33t-44 -13z" />
    <glyph glyph-name="edotaccent" unicode="&#x117;" 
d="M309 -12q-56 0 -100.5 19t-76 54.5t-48.5 85t-17 110.5q0 62 17.5 112t48.5 85.5t74.5 54.5t96.5 19q52 0 94.5 -19t72.5 -52.5t46 -79.5t16 -101v-38h-382v-24q0 -34 11 -63t31.5 -50t50 -32.5t65.5 -11.5q52 0 90 24t58 66l59 -40q-23 -52 -76.5 -85.5t-130.5 -33.5z
M304 462q-33 0 -61 -12t-48.5 -33t-32 -49.5t-11.5 -62.5v-7h296v11q0 34 -10.5 62t-29 48.5t-45 31.5t-58.5 11zM302 612q-35 0 -49 14.5t-14 36.5v16q0 22 14 36.5t49 14.5t49 -14.5t14 -36.5v-16q0 -22 -14 -36.5t-49 -14.5z" />
    <glyph glyph-name="uni1EB9" unicode="&#x1eb9;" 
d="M309 -12q-56 0 -100.5 19t-76 54.5t-48.5 85t-17 110.5q0 62 17.5 112t48.5 85.5t74.5 54.5t96.5 19q52 0 94.5 -19t72.5 -52.5t46 -79.5t16 -101v-38h-382v-24q0 -34 11 -63t31.5 -50t50 -32.5t65.5 -11.5q52 0 90 24t58 66l59 -40q-23 -52 -76.5 -85.5t-130.5 -33.5z
M304 462q-33 0 -61 -12t-48.5 -33t-32 -49.5t-11.5 -62.5v-7h296v11q0 34 -10.5 62t-29 48.5t-45 31.5t-58.5 11zM309 -172q-31 0 -44 13t-13 33v14q0 20 13 33t44 13t44 -13t13 -33v-14q0 -20 -13 -33t-44 -13z" />
    <glyph glyph-name="egrave" unicode="&#xe8;" 
d="M309 -12q-56 0 -100.5 19t-76 54.5t-48.5 85t-17 110.5q0 62 17.5 112t48.5 85.5t74.5 54.5t96.5 19q52 0 94.5 -19t72.5 -52.5t46 -79.5t16 -101v-38h-382v-24q0 -34 11 -63t31.5 -50t50 -32.5t65.5 -11.5q52 0 90 24t58 66l59 -40q-23 -52 -76.5 -85.5t-130.5 -33.5z
M304 462q-33 0 -61 -12t-48.5 -33t-32 -49.5t-11.5 -62.5v-7h296v11q0 34 -10.5 62t-29 48.5t-45 31.5t-58.5 11zM189 744l73 35l85 -170l-52 -24z" />
    <glyph glyph-name="uni1EBB" unicode="&#x1ebb;" 
d="M309 -12q-56 0 -100.5 19t-76 54.5t-48.5 85t-17 110.5q0 62 17.5 112t48.5 85.5t74.5 54.5t96.5 19q52 0 94.5 -19t72.5 -52.5t46 -79.5t16 -101v-38h-382v-24q0 -34 11 -63t31.5 -50t50 -32.5t65.5 -11.5q52 0 90 24t58 66l59 -40q-23 -52 -76.5 -85.5t-130.5 -33.5z
M304 462q-33 0 -61 -12t-48.5 -33t-32 -49.5t-11.5 -62.5v-7h296v11q0 34 -10.5 62t-29 48.5t-45 31.5t-58.5 11zM218 765h109q38 0 54 -16t16 -39q0 -22 -13 -48t-36 -55l-24 -30l-46 23l58 104h-118v61z" />
    <glyph glyph-name="emacron" unicode="&#x113;" 
d="M309 -12q-56 0 -100.5 19t-76 54.5t-48.5 85t-17 110.5q0 62 17.5 112t48.5 85.5t74.5 54.5t96.5 19q52 0 94.5 -19t72.5 -52.5t46 -79.5t16 -101v-38h-382v-24q0 -34 11 -63t31.5 -50t50 -32.5t65.5 -11.5q52 0 90 24t58 66l59 -40q-23 -52 -76.5 -85.5t-130.5 -33.5z
M304 462q-33 0 -61 -12t-48.5 -33t-32 -49.5t-11.5 -62.5v-7h296v11q0 34 -10.5 62t-29 48.5t-45 31.5t-58.5 11zM162 705h280v-68h-280v68z" />
    <glyph glyph-name="eogonek" unicode="&#x119;" 
d="M361 -207q-46 0 -77.5 20t-31.5 60q0 68 113 121l-2 3q-10 -4 -25.5 -6.5t-35.5 -2.5q-52 0 -95 19t-74 54.5t-48.5 85t-17.5 111.5q0 61 17.5 111t48.5 85t74.5 54.5t96.5 19.5q52 0 94.5 -19t72.5 -52.5t46 -79.5t16 -101v-38h-382v-24q0 -34 11 -63t31.5 -50t50 -32.5
t65.5 -11.5q52 0 90 24t58 66l59 -40q-7 -16 -19.5 -31.5t-27.5 -31t-31.5 -29.5t-32.5 -27q-23 -19 -39.5 -33.5t-26.5 -26t-14.5 -21.5t-4.5 -21q0 -21 13 -29t29 -8q31 0 52 26l40 -41q-10 -17 -32.5 -29t-60.5 -12zM447 298v11q0 34 -10.5 62t-29 48.5t-45 31.5
t-58.5 11q-33 0 -61 -12t-48.5 -33t-32 -49.5t-11.5 -62.5v-7h296z" />
    <glyph glyph-name="uni1EBD" unicode="&#x1ebd;" 
d="M309 -12q-56 0 -100.5 19t-76 54.5t-48.5 85t-17 110.5q0 62 17.5 112t48.5 85.5t74.5 54.5t96.5 19q52 0 94.5 -19t72.5 -52.5t46 -79.5t16 -101v-38h-382v-24q0 -34 11 -63t31.5 -50t50 -32.5t65.5 -11.5q52 0 90 24t58 66l59 -40q-23 -52 -76.5 -85.5t-130.5 -33.5z
M304 462q-33 0 -61 -12t-48.5 -33t-32 -49.5t-11.5 -62.5v-7h296v11q0 34 -10.5 62t-29 48.5t-45 31.5t-58.5 11zM375 612q-26 0 -45 9t-35 17q-24 13 -40.5 18.5t-29.5 5.5q-17 0 -30 -7t-28 -20l-33 40q14 20 37 36.5t58 16.5q26 0 45 -9t35 -17q24 -13 40.5 -18.5
t29.5 -5.5q17 0 30 7t28 20l33 -40q-14 -20 -37 -36.5t-58 -16.5z" />
    <glyph glyph-name="uni1EBF" unicode="&#x1ebf;" 
d="M309 -12q-56 0 -100.5 19t-76 54.5t-48.5 85t-17 110.5q0 62 17.5 112t48.5 85.5t74.5 54.5t96.5 19q52 0 94.5 -19t72.5 -52.5t46 -79.5t16 -101v-38h-382v-24q0 -34 11 -63t31.5 -50t50 -32.5t65.5 -11.5q52 0 90 24t58 66l59 -40q-23 -52 -76.5 -85.5t-130.5 -33.5z
M304 462q-33 0 -61 -12t-48.5 -33t-32 -49.5t-11.5 -62.5v-7h296v11q0 34 -10.5 62t-29 48.5t-45 31.5t-58.5 11zM456 712l-49 23l85 170l70 -34zM352 755l110 -144l-44 -30l-117 119l-117 -119l-42 30l110 144h100z" />
    <glyph glyph-name="uni1EC7" unicode="&#x1ec7;" 
d="M309 -12q-56 0 -100.5 19t-76 54.5t-48.5 85t-17 110.5q0 62 17.5 112t48.5 85.5t74.5 54.5t96.5 19q52 0 94.5 -19t72.5 -52.5t46 -79.5t16 -101v-38h-382v-24q0 -34 11 -63t31.5 -50t50 -32.5t65.5 -11.5q52 0 90 24t58 66l59 -40q-23 -52 -76.5 -85.5t-130.5 -33.5z
M304 462q-33 0 -61 -12t-48.5 -33t-32 -49.5t-11.5 -62.5v-7h296v11q0 34 -10.5 62t-29 48.5t-45 31.5t-58.5 11zM352 765l111 -143l-45 -31l-117 117l-117 -117l-43 31l111 143h100zM309 -172q-31 0 -44 13t-13 33v14q0 20 13 33t44 13t44 -13t13 -33v-14q0 -20 -13 -33
t-44 -13z" />
    <glyph glyph-name="uni1EC1" unicode="&#x1ec1;" 
d="M309 -12q-56 0 -100.5 19t-76 54.5t-48.5 85t-17 110.5q0 62 17.5 112t48.5 85.5t74.5 54.5t96.5 19q52 0 94.5 -19t72.5 -52.5t46 -79.5t16 -101v-38h-382v-24q0 -34 11 -63t31.5 -50t50 -32.5t65.5 -11.5q52 0 90 24t58 66l59 -40q-23 -52 -76.5 -85.5t-130.5 -33.5z
M304 462q-33 0 -61 -12t-48.5 -33t-32 -49.5t-11.5 -62.5v-7h296v11q0 34 -10.5 62t-29 48.5t-45 31.5t-58.5 11zM42 871l70 34l85 -170l-49 -23zM352 755l110 -144l-44 -30l-117 119l-117 -119l-42 30l110 144h100z" />
    <glyph glyph-name="uni1EC3" unicode="&#x1ec3;" 
d="M309 -12q-56 0 -100.5 19t-76 54.5t-48.5 85t-17 110.5q0 62 17.5 112t48.5 85.5t74.5 54.5t96.5 19q52 0 94.5 -19t72.5 -52.5t46 -79.5t16 -101v-38h-382v-24q0 -34 11 -63t31.5 -50t50 -32.5t65.5 -11.5q52 0 90 24t58 66l59 -40q-23 -52 -76.5 -85.5t-130.5 -33.5z
M304 462q-33 0 -61 -12t-48.5 -33t-32 -49.5t-11.5 -62.5v-7h296v11q0 34 -10.5 62t-29 48.5t-45 31.5t-58.5 11zM355 894h109q38 0 54 -16t16 -39q0 -22 -13 -48t-36 -55l-24 -30l-46 23l58 104h-118v61zM352 755l110 -144l-44 -30l-117 119l-117 -119l-42 30l110 144h100z
" />
    <glyph glyph-name="uni1EC5" unicode="&#x1ec5;" 
d="M309 -12q-56 0 -100.5 19t-76 54.5t-48.5 85t-17 110.5q0 62 17.5 112t48.5 85.5t74.5 54.5t96.5 19q52 0 94.5 -19t72.5 -52.5t46 -79.5t16 -101v-38h-382v-24q0 -34 11 -63t31.5 -50t50 -32.5t65.5 -11.5q52 0 90 24t58 66l59 -40q-23 -52 -76.5 -85.5t-130.5 -33.5z
M304 462q-33 0 -61 -12t-48.5 -33t-32 -49.5t-11.5 -62.5v-7h296v11q0 34 -10.5 62t-29 48.5t-45 31.5t-58.5 11zM230 892q26 0 45 -9t35 -17q24 -13 40.5 -18.5t29.5 -5.5q17 0 30 7t28 20l31 -36q-14 -20 -37 -36.5t-58 -16.5q-26 0 -45 9t-35 17q-24 13 -40.5 18.5
t-29.5 5.5q-17 0 -30 -7t-28 -20l-31 36q14 20 37 36.5t58 16.5zM352 745l110 -134l-44 -30l-117 111l-117 -111l-42 30l110 134h100z" />
    <glyph glyph-name="uni0259" unicode="&#x259;" 
d="M449 278v24q0 34 -11 63t-31.5 50t-50 32.5t-65.5 11.5q-52 0 -90 -24t-58 -66l-59 40q23 52 76.5 85.5t130.5 33.5q55 0 100 -19t76.5 -54.5t48.5 -85t17 -110.5q0 -62 -17.5 -112t-48.5 -85.5t-75 -54.5t-96 -19t-94.5 19t-72.5 52.5t-46 79.5t-16 101v38h382zM153 207
q0 -34 10.5 -62t29 -48.5t45 -31.5t58.5 -11q33 0 61 12t48.5 33t32 49.5t11.5 62.5v7h-296v-11z" />
    <glyph glyph-name="gbreve" unicode="&#x11f;" 
d="M301 -212q-125 0 -179.5 33t-54.5 95q0 42 22 65t62 34v12q-22 11 -34 28t-12 43q0 40 26.5 60t66.5 30v4q-48 21 -74.5 62t-26.5 96q0 39 14 72t40.5 56.5t63.5 36.5t82 13q43 0 78 -12h181v-64h-94q19 -20 27.5 -46.5t8.5 -55.5q0 -39 -14.5 -72t-40.5 -56.5
t-63.5 -36.5t-82.5 -13q-13 0 -25 1t-24 3q-12 -2 -25 -6.5t-24 -12t-18 -17.5t-7 -23q0 -23 23 -30.5t60 -7.5h114q100 0 145 -37.5t45 -100.5q0 -78 -65 -115.5t-195 -37.5zM297 234q60 0 88.5 28t28.5 74v29q0 46 -28.5 73.5t-88.5 27.5t-88 -27.5t-28 -73.5v-29
q0 -46 28 -74t88 -28zM486 -63q0 31 -25 49.5t-87 18.5h-179q-52 -21 -52 -70q0 -34 27 -58.5t90 -24.5h78q70 0 109 21.5t39 63.5zM298 595q-40 0 -67.5 15t-46 37.5t-29.5 49t-18 49.5l51 22l21 -34q12 -19 21 -33t18.5 -23t21 -13.5t28.5 -4.5q16 0 28 4.5t21.5 13.5
t18.5 23t21 33l21 34l51 -22q-7 -23 -18 -49.5t-29.5 -49t-46 -37.5t-67.5 -15z" />
    <glyph glyph-name="gcircumflex" unicode="&#x11d;" 
d="M301 -212q-125 0 -179.5 33t-54.5 95q0 42 22 65t62 34v12q-22 11 -34 28t-12 43q0 40 26.5 60t66.5 30v4q-48 21 -74.5 62t-26.5 96q0 39 14 72t40.5 56.5t63.5 36.5t82 13q43 0 78 -12h181v-64h-94q19 -20 27.5 -46.5t8.5 -55.5q0 -39 -14.5 -72t-40.5 -56.5
t-63.5 -36.5t-82.5 -13q-13 0 -25 1t-24 3q-12 -2 -25 -6.5t-24 -12t-18 -17.5t-7 -23q0 -23 23 -30.5t60 -7.5h114q100 0 145 -37.5t45 -100.5q0 -78 -65 -115.5t-195 -37.5zM297 234q60 0 88.5 28t28.5 74v29q0 46 -28.5 73.5t-88.5 27.5t-88 -27.5t-28 -73.5v-29
q0 -46 28 -74t88 -28zM486 -63q0 31 -25 49.5t-87 18.5h-179q-52 -21 -52 -70q0 -34 27 -58.5t90 -24.5h78q70 0 109 21.5t39 63.5zM348 765l111 -143l-45 -31l-117 117l-117 -117l-43 31l111 143h100z" />
    <glyph glyph-name="gcommaaccent" unicode="&#x123;" 
d="M561 -59q0 -78 -65 -115.5t-195 -37.5q-125 0 -179.5 33t-54.5 95q0 42 22 65t62 34v12q-22 11 -34 28t-12 43q0 40 26.5 60t66.5 30v4q-48 21 -74.5 62t-26.5 96q0 39 14 72t40.5 56.5t63.5 36.5t82 13q58 0 102 -21v9q0 30 14 50t48 20h95v-70h-116v-35q28 -24 43 -57
t15 -74q0 -39 -14.5 -72t-40.5 -56.5t-63.5 -36.5t-82.5 -13q-13 0 -25 1t-24 3q-12 -2 -25 -6.5t-24 -12t-18 -17.5t-7 -23q0 -23 23 -30.5t60 -7.5h114q100 0 145 -37.5t45 -100.5zM486 -63q0 31 -25 49.5t-87 18.5h-179q-52 -21 -52 -70q0 -34 27 -58.5t90 -24.5h78
q70 0 109 21.5t39 63.5zM297 234q60 0 88.5 28t28.5 74v29q0 46 -28.5 73.5t-88.5 27.5t-88 -27.5t-28 -73.5v-29q0 -46 28 -74t88 -28zM317 776h61l-28 -189h-109z" />
    <glyph glyph-name="gdotaccent" unicode="&#x121;" 
d="M561 -59q0 -78 -65 -115.5t-195 -37.5q-125 0 -179.5 33t-54.5 95q0 42 22 65t62 34v12q-22 11 -34 28t-12 43q0 40 26.5 60t66.5 30v4q-48 21 -74.5 62t-26.5 96q0 39 14 72t40.5 56.5t63.5 36.5t82 13q58 0 102 -21v9q0 30 14 50t48 20h95v-70h-116v-35q28 -24 43 -57
t15 -74q0 -39 -14.5 -72t-40.5 -56.5t-63.5 -36.5t-82.5 -13q-13 0 -25 1t-24 3q-12 -2 -25 -6.5t-24 -12t-18 -17.5t-7 -23q0 -23 23 -30.5t60 -7.5h114q100 0 145 -37.5t45 -100.5zM486 -63q0 31 -25 49.5t-87 18.5h-179q-52 -21 -52 -70q0 -34 27 -58.5t90 -24.5h78
q70 0 109 21.5t39 63.5zM297 234q60 0 88.5 28t28.5 74v29q0 46 -28.5 73.5t-88.5 27.5t-88 -27.5t-28 -73.5v-29q0 -46 28 -74t88 -28zM298 612q-35 0 -49 14.5t-14 36.5v16q0 22 14 36.5t49 14.5t49 -14.5t14 -36.5v-16q0 -22 -14 -36.5t-49 -14.5z" />
    <glyph glyph-name="gbreve.alt01" 
d="M505 17q0 -107 -59 -168t-168 -61q-63 0 -108.5 19.5t-76.5 51.5l47 55q26 -27 60 -41.5t79 -14.5q146 0 146 154v86h-4q-50 -96 -159 -96q-47 0 -84.5 18.5t-63.5 52.5t-40 82.5t-14 109.5t14 109.5t40 82.5t63.5 52.5t84.5 18.5q109 0 159 -96h4v84h80v-499zM293 73
q27 0 51 7t42 20.5t28.5 33t10.5 45.5v172q0 26 -10.5 45.5t-28.5 33t-42 20.5t-51 7q-70 0 -108.5 -42.5t-38.5 -112.5v-74q0 -70 38.5 -112.5t108.5 -42.5zM288 595q-40 0 -67.5 15t-46 37.5t-29.5 49t-18 49.5l51 22l21 -34q12 -19 21 -33t18.5 -23t21 -13.5t28.5 -4.5
q16 0 28 4.5t21.5 13.5t18.5 23t21 33l21 34l51 -22q-7 -23 -18 -49.5t-29.5 -49t-46 -37.5t-67.5 -15z" />
    <glyph glyph-name="gcircumflex.alt01" 
d="M505 17q0 -107 -59 -168t-168 -61q-63 0 -108.5 19.5t-76.5 51.5l47 55q26 -27 60 -41.5t79 -14.5q146 0 146 154v86h-4q-50 -96 -159 -96q-47 0 -84.5 18.5t-63.5 52.5t-40 82.5t-14 109.5t14 109.5t40 82.5t63.5 52.5t84.5 18.5q109 0 159 -96h4v84h80v-499zM293 73
q27 0 51 7t42 20.5t28.5 33t10.5 45.5v172q0 26 -10.5 45.5t-28.5 33t-42 20.5t-51 7q-70 0 -108.5 -42.5t-38.5 -112.5v-74q0 -70 38.5 -112.5t108.5 -42.5zM338 765l111 -143l-45 -31l-117 117l-117 -117l-43 31l111 143h100z" />
    <glyph glyph-name="gcommaaccent.alt01" 
d="M505 17q0 -107 -59 -168t-168 -61q-63 0 -108.5 19.5t-76.5 51.5l47 55q26 -27 60 -41.5t79 -14.5q146 0 146 154v86h-4q-50 -96 -159 -96q-47 0 -84.5 18.5t-63.5 52.5t-40 82.5t-14 109.5t14 109.5t40 82.5t63.5 52.5t84.5 18.5q109 0 159 -96h4v84h80v-499zM293 73
q27 0 51 7t42 20.5t28.5 33t10.5 45.5v172q0 26 -10.5 45.5t-28.5 33t-42 20.5t-51 7q-70 0 -108.5 -42.5t-38.5 -112.5v-74q0 -70 38.5 -112.5t108.5 -42.5zM307 776h61l-28 -189h-109z" />
    <glyph glyph-name="gdotaccent.alt01" 
d="M505 17q0 -107 -59 -168t-168 -61q-63 0 -108.5 19.5t-76.5 51.5l47 55q26 -27 60 -41.5t79 -14.5q146 0 146 154v86h-4q-50 -96 -159 -96q-47 0 -84.5 18.5t-63.5 52.5t-40 82.5t-14 109.5t14 109.5t40 82.5t63.5 52.5t84.5 18.5q109 0 159 -96h4v84h80v-499zM293 73
q27 0 51 7t42 20.5t28.5 33t10.5 45.5v172q0 26 -10.5 45.5t-28.5 33t-42 20.5t-51 7q-70 0 -108.5 -42.5t-38.5 -112.5v-74q0 -70 38.5 -112.5t108.5 -42.5zM288 612q-35 0 -49 14.5t-14 36.5v16q0 22 14 36.5t49 14.5t49 -14.5t14 -36.5v-16q0 -22 -14 -36.5t-49 -14.5z
" />
    <glyph glyph-name="hbar" unicode="&#x127;" 
d="M98 0v608h-65v62h65v70h80v-70h153v-62h-153v-176h4q8 19 20 36.5t29.5 30.5t41.5 21t56 8q81 0 130 -51.5t49 -145.5v-331h-80v317q0 71 -31 105.5t-91 34.5q-24 0 -47 -6t-41 -18t-29 -31t-11 -44v-358h-80z" />
    <glyph glyph-name="hcircumflex" unicode="&#x125;" 
d="M98 740h80v-308h4q8 19 20 36.5t29.5 30.5t41.5 21t56 8q81 0 130 -51.5t49 -145.5v-331h-80v317q0 71 -31 105.5t-91 34.5q-24 0 -47 -6t-41 -18t-29 -31t-11 -44v-358h-80v740zM189 947l111 -143l-45 -31l-117 117l-117 -117l-43 31l111 143h100z" />
    <glyph glyph-name="dotlessi" unicode="&#x131;" 
d="M106 68h186v380h-186v68h266v-448h174v-68h-440v68z" />
    <glyph glyph-name="iacute" unicode="&#xed;" 
d="M106 68h186v380h-186v68h266v-448h174v-68h-440v68zM339 585l-52 24l85 170l73 -35z" />
    <glyph glyph-name="ibreve" unicode="&#x12d;" 
d="M106 68h186v380h-186v68h266v-448h174v-68h-440v68zM332 595q-40 0 -67.5 15t-46 37.5t-29.5 49t-18 49.5l51 22l21 -34q12 -19 21 -33t18.5 -23t21 -13.5t28.5 -4.5q16 0 28 4.5t21.5 13.5t18.5 23t21 33l21 34l51 -22q-7 -23 -18 -49.5t-29.5 -49t-46 -37.5t-67.5 -15z
" />
    <glyph glyph-name="icircumflex" unicode="&#xee;" 
d="M106 68h186v380h-186v68h266v-448h174v-68h-440v68zM382 765l111 -143l-45 -31l-117 117l-117 -117l-43 31l111 143h100z" />
    <glyph glyph-name="idieresis" unicode="&#xef;" 
d="M106 68h186v380h-186v68h266v-448h174v-68h-440v68zM239 618q-31 0 -44 13t-13 33v14q0 20 13 33t44 13t44 -13t13 -33v-14q0 -20 -13 -33t-44 -13zM425 618q-31 0 -44 13t-13 33v14q0 20 13 33t44 13t44 -13t13 -33v-14q0 -20 -13 -33t-44 -13z" />
    <glyph glyph-name="uni1ECB" unicode="&#x1ecb;" 
d="M332 630q-35 0 -49 14.5t-14 36.5v16q0 22 14 36.5t49 14.5t49 -14.5t14 -36.5v-16q0 -22 -14 -36.5t-49 -14.5zM106 68h186v380h-186v68h266v-448h174v-68h-440v68zM332 -172q-31 0 -44 13t-13 33v14q0 20 13 33t44 13t44 -13t13 -33v-14q0 -20 -13 -33t-44 -13z" />
    <glyph glyph-name="igrave" unicode="&#xec;" 
d="M106 68h186v380h-186v68h266v-448h174v-68h-440v68zM219 744l73 35l85 -170l-52 -24z" />
    <glyph glyph-name="uni1EC9" unicode="&#x1ec9;" 
d="M106 68h186v380h-186v68h266v-448h174v-68h-440v68zM248 765h109q38 0 54 -16t16 -39q0 -22 -13 -48t-36 -55l-24 -30l-46 23l58 104h-118v61z" />
    <glyph glyph-name="imacron" unicode="&#x12b;" 
d="M106 68h186v380h-186v68h266v-448h174v-68h-440v68zM192 705h280v-68h-280v68z" />
    <glyph glyph-name="iogonek" unicode="&#x12f;" 
d="M474 -207q-46 0 -77.5 20t-31.5 60q0 36 29 66.5t86 57.5l-1 3h-373v68h186v380h-186v68h266v-448h174v-68q-39 -24 -61.5 -42t-34 -31.5t-14.5 -23.5t-3 -17q0 -21 13 -29t29 -8q31 0 52 26l40 -41q-10 -17 -32.5 -29t-60.5 -12zM332 630q-35 0 -49 14.5t-14 36.5v16
q0 22 14 36.5t49 14.5t49 -14.5t14 -36.5v-16q0 -22 -14 -36.5t-49 -14.5z" />
    <glyph glyph-name="itilde" unicode="&#x129;" 
d="M106 68h186v380h-186v68h266v-448h174v-68h-440v68zM405 612q-26 0 -45 9t-35 17q-24 13 -40.5 18.5t-29.5 5.5q-17 0 -30 -7t-28 -20l-33 40q14 20 37 36.5t58 16.5q26 0 45 -9t35 -17q24 -13 40.5 -18.5t29.5 -5.5q17 0 30 7t28 20l33 -40q-14 -20 -37 -36.5t-58 -16.5
z" />
    <glyph glyph-name="ij" unicode="&#x133;" 
d="M105 516h80v-516h-80v516zM185 -132h230v648h80v-598q0 -52 -27.5 -85t-86.5 -33h-196v68zM145 630q-35 0 -49 14.5t-14 36.5v16q0 22 14 36.5t49 14.5t49 -14.5t14 -36.5v-16q0 -22 -14 -36.5t-49 -14.5zM455 630q-35 0 -49 14.5t-14 36.5v16q0 22 14 36.5t49 14.5
t49 -14.5t14 -36.5v-16q0 -22 -14 -36.5t-49 -14.5z" />
    <glyph glyph-name="ijacute" 
d="M105 516h80v-516h-80v516zM185 -132h230v648h80v-598q0 -52 -27.5 -85t-86.5 -33h-196v68zM100 609l85 170l73 -35l-106 -159zM410 609l85 170l73 -35l-106 -159z" />
    <glyph glyph-name="uni0237" unicode="&#x237;" 
d="M102 -132h250v580h-259v68h339v-598q0 -52 -27.5 -85t-86.5 -33h-216v68z" />
    <glyph glyph-name="jacute" 
d="M102 -132h250v580h-259v68h339v-598q0 -52 -27.5 -85t-86.5 -33h-216v68zM399 585l-52 24l85 170l73 -35z" />
    <glyph glyph-name="jcircumflex" unicode="&#x135;" 
d="M102 -132h250v580h-259v68h339v-598q0 -52 -27.5 -85t-86.5 -33h-216v68zM442 765l111 -143l-45 -31l-117 117l-117 -117l-43 31l111 143h100z" />
    <glyph glyph-name="kcommaaccent" unicode="&#x137;" 
d="M105 740h80v-467h4l90 85l172 158h98l-214 -202l239 -314h-99l-201 268l-89 -81v-187h-80v740zM271 -62h109l-76 -189h-61z" />
    <glyph glyph-name="kgreenlandic" unicode="&#x138;" 
d="M283 253l-97 -88v-165h-80v516h80v-261h4l95 93l170 168h98l-214 -210l239 -306h-99z" />
    <glyph glyph-name="lacute" unicode="&#x13a;" 
d="M80 68h180v604h-180v68h260v-672h180v-68h-440v68zM307 767l-52 24l85 170l73 -35z" />
    <glyph glyph-name="lcaron" unicode="&#x13e;" 
d="M80 68h180v604h-180v68h260v-672h180v-68h-440v68zM487 551h-61l7 189h103z" />
    <glyph glyph-name="lcommaaccent" unicode="&#x13c;" 
d="M80 68h180v604h-180v68h260v-672h180v-68h-440v68zM248 -62h109l-76 -189h-61z" />
    <glyph glyph-name="ldot" unicode="&#x140;" 
d="M80 68h180v604h-180v68h260v-672h180v-68h-440v68zM514 247q-35 0 -49 14.5t-14 36.5v16q0 22 14 36.5t49 14.5t49 -14.5t14 -36.5v-16q0 -22 -14 -36.5t-49 -14.5z" />
    <glyph glyph-name="lslash" unicode="&#x142;" 
d="M80 68h180v220l-153 -50v67l153 50v317h-180v68h260v-362l153 50v-67l-153 -50v-243h180v-68h-440v68z" />
    <glyph glyph-name="nacute" unicode="&#x144;" 
d="M98 0v516h80v-84h4q8 19 20 36.5t29.5 30.5t41.5 21t56 8q81 0 130 -51.5t49 -145.5v-331h-80v317q0 71 -31 105.5t-91 34.5q-24 0 -47 -6t-41 -18t-29 -31t-11 -44v-358h-80zM310 585l-52 24l85 170l73 -35z" />
    <glyph glyph-name="ncaron" unicode="&#x148;" 
d="M98 0v516h80v-84h4q8 19 20 36.5t29.5 30.5t41.5 21t56 8q81 0 130 -51.5t49 -145.5v-331h-80v317q0 71 -31 105.5t-91 34.5q-24 0 -47 -6t-41 -18t-29 -31t-11 -44v-358h-80zM253 599l-111 143l46 31l117 -117l117 117l42 -31l-111 -143h-100z" />
    <glyph glyph-name="ncommaaccent" unicode="&#x146;" 
d="M98 0v516h80v-84h4q8 19 20 36.5t29.5 30.5t41.5 21t56 8q81 0 130 -51.5t49 -145.5v-331h-80v317q0 71 -31 105.5t-91 34.5q-24 0 -47 -6t-41 -18t-29 -31t-11 -44v-358h-80zM251 -62h109l-76 -189h-61z" />
    <glyph glyph-name="ntilde" unicode="&#xf1;" 
d="M98 0v516h80v-84h4q8 19 20 36.5t29.5 30.5t41.5 21t56 8q81 0 130 -51.5t49 -145.5v-331h-80v317q0 71 -31 105.5t-91 34.5q-24 0 -47 -6t-41 -18t-29 -31t-11 -44v-358h-80zM376 612q-26 0 -45 9t-35 17q-24 13 -40.5 18.5t-29.5 5.5q-17 0 -30 -7t-28 -20l-33 40
q14 20 37 36.5t58 16.5q26 0 45 -9t35 -17q24 -13 40.5 -18.5t29.5 -5.5q17 0 30 7t28 20l33 -40q-14 -20 -37 -36.5t-58 -16.5z" />
    <glyph glyph-name="napostrophe" unicode="&#x149;" 
d="M98 516h80v-84h4q8 19 20 36.5t29.5 30.5t41.5 21t56 8q81 0 130 -51.5t49 -145.5v-331h-80v317q0 71 -31 105.5t-91 34.5q-24 0 -47 -6t-41 -18t-29 -31t-11 -44v-358h-80v516zM12 740h93l-52 -185h-53z" />
    <glyph glyph-name="eng" unicode="&#x14b;" 
d="M178 -132h250v449q0 71 -31 105.5t-91 34.5q-24 0 -47 -6t-41 -18t-29 -31t-11 -44v-358h-80v516h80v-84h4q8 19 20 36.5t29.5 30.5t41.5 21t56 8q81 0 130 -51.5t49 -145.5v-413q0 -52 -27.5 -85t-86.5 -33h-216v68z" />
    <glyph glyph-name="oacute" unicode="&#xf3;" 
d="M300 -12q-54 0 -97.5 19t-74 54.5t-46.5 85t-16 111.5q0 61 16 111t46.5 85.5t74 54.5t97.5 19t97.5 -19t74 -54.5t46.5 -85.5t16 -111q0 -62 -16 -111.5t-46.5 -85t-74 -54.5t-97.5 -19zM300 57q67 0 108 40t41 124v74q0 84 -41 124t-108 40t-108 -40t-41 -124v-74
q0 -84 41 -124t108 -40zM307 585l-52 24l85 170l73 -35z" />
    <glyph glyph-name="obreve" unicode="&#x14f;" 
d="M300 -12q-54 0 -97.5 19t-74 54.5t-46.5 85t-16 111.5q0 61 16 111t46.5 85.5t74 54.5t97.5 19t97.5 -19t74 -54.5t46.5 -85.5t16 -111q0 -62 -16 -111.5t-46.5 -85t-74 -54.5t-97.5 -19zM300 57q67 0 108 40t41 124v74q0 84 -41 124t-108 40t-108 -40t-41 -124v-74
q0 -84 41 -124t108 -40zM300 595q-40 0 -67.5 15t-46 37.5t-29.5 49t-18 49.5l51 22l21 -34q12 -19 21 -33t18.5 -23t21 -13.5t28.5 -4.5q16 0 28 4.5t21.5 13.5t18.5 23t21 33l21 34l51 -22q-7 -23 -18 -49.5t-29.5 -49t-46 -37.5t-67.5 -15z" />
    <glyph glyph-name="ocircumflex" unicode="&#xf4;" 
d="M300 -12q-54 0 -97.5 19t-74 54.5t-46.5 85t-16 111.5q0 61 16 111t46.5 85.5t74 54.5t97.5 19t97.5 -19t74 -54.5t46.5 -85.5t16 -111q0 -62 -16 -111.5t-46.5 -85t-74 -54.5t-97.5 -19zM300 57q67 0 108 40t41 124v74q0 84 -41 124t-108 40t-108 -40t-41 -124v-74
q0 -84 41 -124t108 -40zM350 765l111 -143l-45 -31l-117 117l-117 -117l-43 31l111 143h100z" />
    <glyph glyph-name="odieresis" unicode="&#xf6;" 
d="M300 -12q-54 0 -97.5 19t-74 54.5t-46.5 85t-16 111.5q0 61 16 111t46.5 85.5t74 54.5t97.5 19t97.5 -19t74 -54.5t46.5 -85.5t16 -111q0 -62 -16 -111.5t-46.5 -85t-74 -54.5t-97.5 -19zM300 57q67 0 108 40t41 124v74q0 84 -41 124t-108 40t-108 -40t-41 -124v-74
q0 -84 41 -124t108 -40zM207 618q-31 0 -44 13t-13 33v14q0 20 13 33t44 13t44 -13t13 -33v-14q0 -20 -13 -33t-44 -13zM393 618q-31 0 -44 13t-13 33v14q0 20 13 33t44 13t44 -13t13 -33v-14q0 -20 -13 -33t-44 -13z" />
    <glyph glyph-name="uni1ECD" unicode="&#x1ecd;" 
d="M300 -12q-54 0 -97.5 19t-74 54.5t-46.5 85t-16 111.5q0 61 16 111t46.5 85.5t74 54.5t97.5 19t97.5 -19t74 -54.5t46.5 -85.5t16 -111q0 -62 -16 -111.5t-46.5 -85t-74 -54.5t-97.5 -19zM300 57q67 0 108 40t41 124v74q0 84 -41 124t-108 40t-108 -40t-41 -124v-74
q0 -84 41 -124t108 -40zM300 -172q-31 0 -44 13t-13 33v14q0 20 13 33t44 13t44 -13t13 -33v-14q0 -20 -13 -33t-44 -13z" />
    <glyph glyph-name="ograve" unicode="&#xf2;" 
d="M300 -12q-54 0 -97.5 19t-74 54.5t-46.5 85t-16 111.5q0 61 16 111t46.5 85.5t74 54.5t97.5 19t97.5 -19t74 -54.5t46.5 -85.5t16 -111q0 -62 -16 -111.5t-46.5 -85t-74 -54.5t-97.5 -19zM300 57q67 0 108 40t41 124v74q0 84 -41 124t-108 40t-108 -40t-41 -124v-74
q0 -84 41 -124t108 -40zM187 744l73 35l85 -170l-52 -24z" />
    <glyph glyph-name="uni1ECF" unicode="&#x1ecf;" 
d="M300 -12q-54 0 -97.5 19t-74 54.5t-46.5 85t-16 111.5q0 61 16 111t46.5 85.5t74 54.5t97.5 19t97.5 -19t74 -54.5t46.5 -85.5t16 -111q0 -62 -16 -111.5t-46.5 -85t-74 -54.5t-97.5 -19zM300 57q67 0 108 40t41 124v74q0 84 -41 124t-108 40t-108 -40t-41 -124v-74
q0 -84 41 -124t108 -40zM216 765h109q38 0 54 -16t16 -39q0 -22 -13 -48t-36 -55l-24 -30l-46 23l58 104h-118v61z" />
    <glyph glyph-name="ohungarumlaut" unicode="&#x151;" 
d="M300 -12q-54 0 -97.5 19t-74 54.5t-46.5 85t-16 111.5q0 61 16 111t46.5 85.5t74 54.5t97.5 19t97.5 -19t74 -54.5t46.5 -85.5t16 -111q0 -62 -16 -111.5t-46.5 -85t-74 -54.5t-97.5 -19zM300 57q67 0 108 40t41 124v74q0 84 -41 124t-108 40t-108 -40t-41 -124v-74
q0 -84 41 -124t108 -40zM227 586l-48 22l85 170l69 -33zM387 586l-48 22l85 170l69 -33z" />
    <glyph glyph-name="omacron" unicode="&#x14d;" 
d="M300 -12q-54 0 -97.5 19t-74 54.5t-46.5 85t-16 111.5q0 61 16 111t46.5 85.5t74 54.5t97.5 19t97.5 -19t74 -54.5t46.5 -85.5t16 -111q0 -62 -16 -111.5t-46.5 -85t-74 -54.5t-97.5 -19zM300 57q67 0 108 40t41 124v74q0 84 -41 124t-108 40t-108 -40t-41 -124v-74
q0 -84 41 -124t108 -40zM160 705h280v-68h-280v68z" />
    <glyph glyph-name="oslash" unicode="&#xf8;" 
d="M47 -6l69 84q-24 35 -37 80.5t-13 99.5q0 61 16 111t46.5 85.5t74 54.5t97.5 19q44 0 80 -13t65 -36l63 77l45 -34l-69 -84q24 -35 37 -80.5t13 -99.5q0 -62 -16 -111.5t-46.5 -85t-74 -54.5t-97.5 -19q-44 0 -80 13t-65 36l-63 -77zM300 459q-67 0 -108 -40t-41 -124
v-74q0 -50 15 -83l235 287q-37 34 -101 34zM300 57q67 0 108 40t41 124v74q0 50 -15 83l-235 -287q37 -34 101 -34z" />
    <glyph glyph-name="oslashacute" unicode="&#x1ff;" 
d="M47 -6l69 84q-24 35 -37 80.5t-13 99.5q0 61 16 111t46.5 85.5t74 54.5t97.5 19q44 0 80 -13t65 -36l63 77l45 -34l-69 -84q24 -35 37 -80.5t13 -99.5q0 -62 -16 -111.5t-46.5 -85t-74 -54.5t-97.5 -19q-44 0 -80 13t-65 36l-63 -77zM300 459q-67 0 -108 -40t-41 -124
v-74q0 -50 15 -83l235 287q-37 34 -101 34zM300 57q67 0 108 40t41 124v74q0 50 -15 83l-235 -287q37 -34 101 -34zM307 585l-52 24l85 170l73 -35z" />
    <glyph glyph-name="otilde" unicode="&#xf5;" 
d="M300 -12q-54 0 -97.5 19t-74 54.5t-46.5 85t-16 111.5q0 61 16 111t46.5 85.5t74 54.5t97.5 19t97.5 -19t74 -54.5t46.5 -85.5t16 -111q0 -62 -16 -111.5t-46.5 -85t-74 -54.5t-97.5 -19zM300 57q67 0 108 40t41 124v74q0 84 -41 124t-108 40t-108 -40t-41 -124v-74
q0 -84 41 -124t108 -40zM373 612q-26 0 -45 9t-35 17q-24 13 -40.5 18.5t-29.5 5.5q-17 0 -30 -7t-28 -20l-33 40q14 20 37 36.5t58 16.5q26 0 45 -9t35 -17q24 -13 40.5 -18.5t29.5 -5.5q17 0 30 7t28 20l33 -40q-14 -20 -37 -36.5t-58 -16.5z" />
    <glyph glyph-name="ohorn" unicode="&#x1a1;" 
d="M540 628v-100q0 -25 -12.5 -43t-50.5 -18h-22q38 -35 58.5 -88t20.5 -121q0 -62 -16 -111.5t-46.5 -85t-74 -54.5t-97.5 -19t-97.5 19t-74 54.5t-46.5 85t-16 111.5q0 61 16 111t46.5 85.5t74 54.5t97.5 19q43 0 79 -12h90v112h71zM300 57q67 0 108 40t41 124v74
q0 84 -41 124t-108 40t-108 -40t-41 -124v-74q0 -84 41 -124t108 -40z" />
    <glyph glyph-name="uni1EDB" unicode="&#x1edb;" 
d="M540 628v-100q0 -25 -12.5 -43t-50.5 -18h-22q38 -35 58.5 -88t20.5 -121q0 -62 -16 -111.5t-46.5 -85t-74 -54.5t-97.5 -19t-97.5 19t-74 54.5t-46.5 85t-16 111.5q0 61 16 111t46.5 85.5t74 54.5t97.5 19q43 0 79 -12h90v112h71zM300 57q67 0 108 40t41 124v74
q0 84 -41 124t-108 40t-108 -40t-41 -124v-74q0 -84 41 -124t108 -40zM307 585l-52 24l85 170l73 -35z" />
    <glyph glyph-name="uni1EE3" unicode="&#x1ee3;" 
d="M540 628v-100q0 -25 -12.5 -43t-50.5 -18h-22q38 -35 58.5 -88t20.5 -121q0 -62 -16 -111.5t-46.5 -85t-74 -54.5t-97.5 -19t-97.5 19t-74 54.5t-46.5 85t-16 111.5q0 61 16 111t46.5 85.5t74 54.5t97.5 19q43 0 79 -12h90v112h71zM300 57q67 0 108 40t41 124v74
q0 84 -41 124t-108 40t-108 -40t-41 -124v-74q0 -84 41 -124t108 -40zM300 -172q-31 0 -44 13t-13 33v14q0 20 13 33t44 13t44 -13t13 -33v-14q0 -20 -13 -33t-44 -13z" />
    <glyph glyph-name="uni1EDD" unicode="&#x1edd;" 
d="M540 628v-100q0 -25 -12.5 -43t-50.5 -18h-22q38 -35 58.5 -88t20.5 -121q0 -62 -16 -111.5t-46.5 -85t-74 -54.5t-97.5 -19t-97.5 19t-74 54.5t-46.5 85t-16 111.5q0 61 16 111t46.5 85.5t74 54.5t97.5 19q43 0 79 -12h90v112h71zM300 57q67 0 108 40t41 124v74
q0 84 -41 124t-108 40t-108 -40t-41 -124v-74q0 -84 41 -124t108 -40zM187 744l73 35l85 -170l-52 -24z" />
    <glyph glyph-name="uni1EDF" unicode="&#x1edf;" 
d="M540 628v-100q0 -25 -12.5 -43t-50.5 -18h-22q38 -35 58.5 -88t20.5 -121q0 -62 -16 -111.5t-46.5 -85t-74 -54.5t-97.5 -19t-97.5 19t-74 54.5t-46.5 85t-16 111.5q0 61 16 111t46.5 85.5t74 54.5t97.5 19q43 0 79 -12h90v112h71zM300 57q67 0 108 40t41 124v74
q0 84 -41 124t-108 40t-108 -40t-41 -124v-74q0 -84 41 -124t108 -40zM216 765h109q38 0 54 -16t16 -39q0 -22 -13 -48t-36 -55l-24 -30l-46 23l58 104h-118v61z" />
    <glyph glyph-name="uni1EE1" unicode="&#x1ee1;" 
d="M540 628v-100q0 -25 -12.5 -43t-50.5 -18h-22q38 -35 58.5 -88t20.5 -121q0 -62 -16 -111.5t-46.5 -85t-74 -54.5t-97.5 -19t-97.5 19t-74 54.5t-46.5 85t-16 111.5q0 61 16 111t46.5 85.5t74 54.5t97.5 19q43 0 79 -12h90v112h71zM300 57q67 0 108 40t41 124v74
q0 84 -41 124t-108 40t-108 -40t-41 -124v-74q0 -84 41 -124t108 -40zM363 616q-23 0 -39.5 7.5t-30.5 14.5q-19 10 -31 15t-26 5q-16 0 -29.5 -7t-27.5 -20l-33 40q14 20 36.5 36.5t54.5 16.5q23 0 39.5 -7.5t30.5 -14.5q19 -10 31 -15t26 -5q16 0 29.5 7t27.5 20l33 -40
q-14 -20 -36.5 -36.5t-54.5 -16.5z" />
    <glyph glyph-name="uni1ED1" unicode="&#x1ed1;" 
d="M300 -12q-54 0 -97.5 19t-74 54.5t-46.5 85t-16 111.5q0 61 16 111t46.5 85.5t74 54.5t97.5 19t97.5 -19t74 -54.5t46.5 -85.5t16 -111q0 -62 -16 -111.5t-46.5 -85t-74 -54.5t-97.5 -19zM300 57q67 0 108 40t41 124v74q0 84 -41 124t-108 40t-108 -40t-41 -124v-74
q0 -84 41 -124t108 -40zM454 712l-49 23l85 170l70 -34zM350 755l110 -144l-44 -30l-117 119l-117 -119l-42 30l110 144h100z" />
    <glyph glyph-name="uni1ED9" unicode="&#x1ed9;" 
d="M300 -12q-54 0 -97.5 19t-74 54.5t-46.5 85t-16 111.5q0 61 16 111t46.5 85.5t74 54.5t97.5 19t97.5 -19t74 -54.5t46.5 -85.5t16 -111q0 -62 -16 -111.5t-46.5 -85t-74 -54.5t-97.5 -19zM300 57q67 0 108 40t41 124v74q0 84 -41 124t-108 40t-108 -40t-41 -124v-74
q0 -84 41 -124t108 -40zM350 765l111 -143l-45 -31l-117 117l-117 -117l-43 31l111 143h100zM300 -172q-31 0 -44 13t-13 33v14q0 20 13 33t44 13t44 -13t13 -33v-14q0 -20 -13 -33t-44 -13z" />
    <glyph glyph-name="uni1ED3" unicode="&#x1ed3;" 
d="M300 -12q-54 0 -97.5 19t-74 54.5t-46.5 85t-16 111.5q0 61 16 111t46.5 85.5t74 54.5t97.5 19t97.5 -19t74 -54.5t46.5 -85.5t16 -111q0 -62 -16 -111.5t-46.5 -85t-74 -54.5t-97.5 -19zM300 57q67 0 108 40t41 124v74q0 84 -41 124t-108 40t-108 -40t-41 -124v-74
q0 -84 41 -124t108 -40zM40 871l70 34l85 -170l-49 -23zM350 755l110 -144l-44 -30l-117 119l-117 -119l-42 30l110 144h100z" />
    <glyph glyph-name="uni1ED5" unicode="&#x1ed5;" 
d="M300 -12q-54 0 -97.5 19t-74 54.5t-46.5 85t-16 111.5q0 61 16 111t46.5 85.5t74 54.5t97.5 19t97.5 -19t74 -54.5t46.5 -85.5t16 -111q0 -62 -16 -111.5t-46.5 -85t-74 -54.5t-97.5 -19zM300 57q67 0 108 40t41 124v74q0 84 -41 124t-108 40t-108 -40t-41 -124v-74
q0 -84 41 -124t108 -40zM353 894h109q38 0 54 -16t16 -39q0 -22 -13 -48t-36 -55l-24 -30l-46 23l58 104h-118v61zM350 755l110 -144l-44 -30l-117 119l-117 -119l-42 30l110 144h100z" />
    <glyph glyph-name="uni1ED7" unicode="&#x1ed7;" 
d="M300 -12q-54 0 -97.5 19t-74 54.5t-46.5 85t-16 111.5q0 61 16 111t46.5 85.5t74 54.5t97.5 19t97.5 -19t74 -54.5t46.5 -85.5t16 -111q0 -62 -16 -111.5t-46.5 -85t-74 -54.5t-97.5 -19zM300 57q67 0 108 40t41 124v74q0 84 -41 124t-108 40t-108 -40t-41 -124v-74
q0 -84 41 -124t108 -40zM228 892q26 0 45 -9t35 -17q24 -13 40.5 -18.5t29.5 -5.5q17 0 30 7t28 20l31 -36q-14 -20 -37 -36.5t-58 -16.5q-26 0 -45 9t-35 17q-24 13 -40.5 18.5t-29.5 5.5q-17 0 -30 -7t-28 -20l-31 36q14 20 37 36.5t58 16.5zM350 745l110 -134l-44 -30
l-117 111l-117 -111l-42 30l110 134h100z" />
    <glyph glyph-name="oe" unicode="&#x153;" 
d="M176 48q40 0 62.5 35.5t22.5 121.5v106q0 86 -22.5 121.5t-62.5 35.5t-62.5 -35.5t-22.5 -121.5v-106q0 -86 22.5 -121.5t62.5 -35.5zM516 295v34q0 72 -23.5 106.5t-67.5 34.5t-67.5 -34.5t-23.5 -106.5v-34h182zM427 -12q-42 0 -75 22t-56 63h-3q-40 -85 -123 -85
q-40 0 -69 19t-48.5 54.5t-29 85t-9.5 111.5q0 61 9.5 111t29 85.5t48.5 54.5t69 19q44 0 76.5 -23.5t50.5 -70.5h3q22 52 56 73t76 21q75 0 112.5 -59.5t37.5 -176.5v-54h-248v-25q0 -72 24.5 -116.5t70.5 -44.5q18 0 32 7.5t24.5 20t17.5 28.5t13 33l58 -27
q-7 -23 -19.5 -45.5t-30.5 -40.5t-42.5 -29t-54.5 -11z" />
    <glyph glyph-name="racute" unicode="&#x155;" 
d="M77 68h151v380h-151v68h231v-130h5q16 61 60.5 95.5t113.5 34.5h72v-80h-97q-69 0 -111.5 -40t-42.5 -105v-223h200v-68h-431v68zM360 585l-52 24l85 170l73 -35z" />
    <glyph glyph-name="rcaron" unicode="&#x159;" 
d="M77 68h151v380h-151v68h231v-130h5q16 61 60.5 95.5t113.5 34.5h72v-80h-97q-69 0 -111.5 -40t-42.5 -105v-223h200v-68h-431v68zM303 599l-111 143l46 31l117 -117l117 117l42 -31l-111 -143h-100z" />
    <glyph glyph-name="rcommaaccent" unicode="&#x157;" 
d="M77 68h151v380h-151v68h231v-130h5q16 61 60.5 95.5t113.5 34.5h72v-80h-97q-69 0 -111.5 -40t-42.5 -105v-223h200v-68h-431v68zM216 -62h109l-76 -189h-61z" />
    <glyph glyph-name="sacute" unicode="&#x15b;" 
d="M306 -12q-81 0 -139.5 27.5t-99.5 73.5l54 47q37 -39 81 -60t106 -21q60 0 98.5 21.5t38.5 67.5q0 20 -7.5 33.5t-20.5 21.5t-29 12.5t-34 7.5l-81 12q-27 4 -58.5 11t-57.5 22.5t-43.5 41.5t-17.5 68q0 39 15.5 67.5t43.5 48t66 29t83 9.5q70 0 121.5 -22t88.5 -61
l-52 -49q-9 11 -22.5 22.5t-33 21t-45.5 15.5t-60 6q-61 0 -93.5 -21t-32.5 -61q0 -20 7.5 -33.5t20.5 -21.5t29.5 -12.5t33.5 -7.5l81 -12q28 -4 59 -11t57 -22.5t43.5 -41.5t17.5 -68q0 -77 -59.5 -119t-158.5 -42zM306 585l-52 24l85 170l73 -35z" />
    <glyph glyph-name="scaron" unicode="&#x161;" 
d="M306 -12q-81 0 -139.5 27.5t-99.5 73.5l54 47q37 -39 81 -60t106 -21q60 0 98.5 21.5t38.5 67.5q0 20 -7.5 33.5t-20.5 21.5t-29 12.5t-34 7.5l-81 12q-27 4 -58.5 11t-57.5 22.5t-43.5 41.5t-17.5 68q0 39 15.5 67.5t43.5 48t66 29t83 9.5q70 0 121.5 -22t88.5 -61
l-52 -49q-9 11 -22.5 22.5t-33 21t-45.5 15.5t-60 6q-61 0 -93.5 -21t-32.5 -61q0 -20 7.5 -33.5t20.5 -21.5t29.5 -12.5t33.5 -7.5l81 -12q28 -4 59 -11t57 -22.5t43.5 -41.5t17.5 -68q0 -77 -59.5 -119t-158.5 -42zM249 599l-111 143l46 31l117 -117l117 117l42 -31
l-111 -143h-100z" />
    <glyph glyph-name="scedilla" unicode="&#x15f;" 
d="M310 -207q-41 0 -64.5 13.5t-34.5 27.5l38 41q9 -11 24 -19.5t37 -8.5q19 0 31.5 7.5t12.5 23.5q0 14 -13 24.5t-55 16.5l-28 4l13 67q-68 5 -118 31.5t-86 67.5l54 47q37 -39 81 -60t106 -21q60 0 98.5 21.5t38.5 67.5q0 20 -7.5 33.5t-20.5 21.5t-29 12.5t-34 7.5
l-81 12q-27 4 -58.5 11t-57.5 22.5t-43.5 41.5t-17.5 68q0 39 15.5 67.5t43.5 48t66 29t83 9.5q70 0 121.5 -22t88.5 -61l-52 -49q-9 11 -22.5 22.5t-33 21t-45.5 15.5t-60 6q-61 0 -93.5 -21t-32.5 -61q0 -20 7.5 -33.5t20.5 -21.5t29.5 -12.5t33.5 -7.5l81 -12
q28 -4 59 -11t57 -22.5t43.5 -41.5t17.5 -68q0 -74 -55 -116t-149 -45l-9 -49l3 -3q19 6 39 6q29 0 48.5 -17t19.5 -49q0 -21 -9 -37t-24.5 -26t-35.5 -15t-42 -5z" />
    <glyph glyph-name="scircumflex" unicode="&#x15d;" 
d="M306 -12q-81 0 -139.5 27.5t-99.5 73.5l54 47q37 -39 81 -60t106 -21q60 0 98.5 21.5t38.5 67.5q0 20 -7.5 33.5t-20.5 21.5t-29 12.5t-34 7.5l-81 12q-27 4 -58.5 11t-57.5 22.5t-43.5 41.5t-17.5 68q0 39 15.5 67.5t43.5 48t66 29t83 9.5q70 0 121.5 -22t88.5 -61
l-52 -49q-9 11 -22.5 22.5t-33 21t-45.5 15.5t-60 6q-61 0 -93.5 -21t-32.5 -61q0 -20 7.5 -33.5t20.5 -21.5t29.5 -12.5t33.5 -7.5l81 -12q28 -4 59 -11t57 -22.5t43.5 -41.5t17.5 -68q0 -77 -59.5 -119t-158.5 -42zM349 765l111 -143l-45 -31l-117 117l-117 -117l-43 31
l111 143h100z" />
    <glyph glyph-name="scommaaccent" unicode="&#x219;" 
d="M306 -12q-81 0 -139.5 27.5t-99.5 73.5l54 47q37 -39 81 -60t106 -21q60 0 98.5 21.5t38.5 67.5q0 20 -7.5 33.5t-20.5 21.5t-29 12.5t-34 7.5l-81 12q-27 4 -58.5 11t-57.5 22.5t-43.5 41.5t-17.5 68q0 39 15.5 67.5t43.5 48t66 29t83 9.5q70 0 121.5 -22t88.5 -61
l-52 -49q-9 11 -22.5 22.5t-33 21t-45.5 15.5t-60 6q-61 0 -93.5 -21t-32.5 -61q0 -20 7.5 -33.5t20.5 -21.5t29.5 -12.5t33.5 -7.5l81 -12q28 -4 59 -11t57 -22.5t43.5 -41.5t17.5 -68q0 -77 -59.5 -119t-158.5 -42zM242 -62h109l-76 -189h-61z" />
    <glyph glyph-name="germandbls" unicode="&#xdf;" 
d="M102 0v622q0 52 27.5 85t86.5 33h137v-69h-171v-155h343v-79l-173 -225q103 -7 161.5 -55t58.5 -143q0 -52 -18.5 -92t-52.5 -67t-82.5 -41t-108.5 -14h-66v68h66q90 0 133.5 32t43.5 103v25q0 67 -46.5 95.5t-148.5 28.5h-16v68l176 228h-270v-448h-80z" />
    <glyph glyph-name="germandbls.alt01" 
d="M102 448h-74v68h74v5q0 52 13.5 95t40 73t64.5 46.5t86 16.5q96 0 147 -63t51 -168v-61h-47q-60 0 -92 -19t-32 -64q0 -36 20.5 -51t56.5 -27l24 -8q71 -23 104.5 -55.5t33.5 -95.5q0 -77 -45.5 -114.5t-126.5 -37.5q-55 0 -94.5 18t-71.5 58l51 46q23 -32 53 -45t67 -13
q45 0 68.5 19t23.5 61q0 28 -13.5 52t-54.5 37l-25 8q-28 9 -54.5 19t-46.5 25.5t-32.5 39.5t-12.5 61q0 70 45 107t123 39v8q0 81 -29 119t-92 38q-124 0 -124 -157v-528h-79v448z" />
    <glyph glyph-name="tbar" unicode="&#x167;" 
d="M524 0h-199q-59 0 -86.5 33t-27.5 85v129h-109v62h109v139h-172v68h128q26 0 36.5 10.5t10.5 36.5v135h77v-182h235v-68h-235v-139h173v-62h-173v-179h233v-68z" />
    <glyph glyph-name="tcaron" unicode="&#x165;" 
d="M325 0q-59 0 -86.5 33t-27.5 85v330h-172v68h128q26 0 36.5 10.5t10.5 36.5v135h77v-182h235v-68h-235v-380h235v-68h-201zM448 571h-61l7 189h103z" />
    <glyph glyph-name="tcommaaccent" unicode="&#x163;" 
d="M325 0q-59 0 -86.5 33t-27.5 85v330h-172v68h128q26 0 36.5 10.5t10.5 36.5v135h77v-182h235v-68h-235v-380h235v-68h-201zM323 -62h109l-76 -189h-61z" />
    <glyph glyph-name="uni021B" unicode="&#x21b;" 
d="M325 0q-59 0 -86.5 33t-27.5 85v330h-172v68h128q26 0 36.5 10.5t10.5 36.5v135h77v-182h235v-68h-235v-380h235v-68h-201zM323 -62h109l-76 -189h-61z" />
    <glyph glyph-name="thorn" unicode="&#xfe;" 
d="M95 740h80v-308h4q50 96 159 96q95 0 148.5 -71t53.5 -199t-53.5 -199t-148.5 -71q-109 0 -159 96h-4v-284h-80v940zM307 59q70 0 108.5 42.5t38.5 112.5v88q0 70 -38.5 112.5t-108.5 42.5q-27 0 -51 -7t-42 -20.5t-28.5 -33t-10.5 -45.5v-186q0 -26 10.5 -45.5t28.5 -33
t42 -20.5t51 -7z" />
    <glyph glyph-name="uacute" unicode="&#xfa;" 
d="M422 84h-4q-8 -19 -20 -36.5t-29.5 -30.5t-41.5 -21t-56 -8q-81 0 -130 51.5t-49 145.5v331h80v-317q0 -71 31 -105.5t91 -34.5q24 0 47 6t41 18t29 30.5t11 44.5v358h80v-516h-80v84zM305 585l-52 24l85 170l73 -35z" />
    <glyph glyph-name="ubreve" unicode="&#x16d;" 
d="M422 84h-4q-8 -19 -20 -36.5t-29.5 -30.5t-41.5 -21t-56 -8q-81 0 -130 51.5t-49 145.5v331h80v-317q0 -71 31 -105.5t91 -34.5q24 0 47 6t41 18t29 30.5t11 44.5v358h80v-516h-80v84zM298 595q-40 0 -67.5 15t-46 37.5t-29.5 49t-18 49.5l51 22l21 -34q12 -19 21 -33
t18.5 -23t21 -13.5t28.5 -4.5q16 0 28 4.5t21.5 13.5t18.5 23t21 33l21 34l51 -22q-7 -23 -18 -49.5t-29.5 -49t-46 -37.5t-67.5 -15z" />
    <glyph glyph-name="ucircumflex" unicode="&#xfb;" 
d="M422 84h-4q-8 -19 -20 -36.5t-29.5 -30.5t-41.5 -21t-56 -8q-81 0 -130 51.5t-49 145.5v331h80v-317q0 -71 31 -105.5t91 -34.5q24 0 47 6t41 18t29 30.5t11 44.5v358h80v-516h-80v84zM348 765l111 -143l-45 -31l-117 117l-117 -117l-43 31l111 143h100z" />
    <glyph glyph-name="udieresis" unicode="&#xfc;" 
d="M422 84h-4q-8 -19 -20 -36.5t-29.5 -30.5t-41.5 -21t-56 -8q-81 0 -130 51.5t-49 145.5v331h80v-317q0 -71 31 -105.5t91 -34.5q24 0 47 6t41 18t29 30.5t11 44.5v358h80v-516h-80v84zM205 618q-31 0 -44 13t-13 33v14q0 20 13 33t44 13t44 -13t13 -33v-14q0 -20 -13 -33
t-44 -13zM391 618q-31 0 -44 13t-13 33v14q0 20 13 33t44 13t44 -13t13 -33v-14q0 -20 -13 -33t-44 -13z" />
    <glyph glyph-name="uni1EE5" unicode="&#x1ee5;" 
d="M422 84h-4q-8 -19 -20 -36.5t-29.5 -30.5t-41.5 -21t-56 -8q-81 0 -130 51.5t-49 145.5v331h80v-317q0 -71 31 -105.5t91 -34.5q24 0 47 6t41 18t29 30.5t11 44.5v358h80v-516h-80v84zM297 -172q-31 0 -44 13t-13 33v14q0 20 13 33t44 13t44 -13t13 -33v-14
q0 -20 -13 -33t-44 -13z" />
    <glyph glyph-name="ugrave" unicode="&#xf9;" 
d="M422 84h-4q-8 -19 -20 -36.5t-29.5 -30.5t-41.5 -21t-56 -8q-81 0 -130 51.5t-49 145.5v331h80v-317q0 -71 31 -105.5t91 -34.5q24 0 47 6t41 18t29 30.5t11 44.5v358h80v-516h-80v84zM185 744l73 35l85 -170l-52 -24z" />
    <glyph glyph-name="uni1EE7" unicode="&#x1ee7;" 
d="M422 84h-4q-8 -19 -20 -36.5t-29.5 -30.5t-41.5 -21t-56 -8q-81 0 -130 51.5t-49 145.5v331h80v-317q0 -71 31 -105.5t91 -34.5q24 0 47 6t41 18t29 30.5t11 44.5v358h80v-516h-80v84zM213 765h109q38 0 54 -16t16 -39q0 -22 -13 -48t-36 -55l-24 -30l-46 23l58 104h-118
v61z" />
    <glyph glyph-name="uhungarumlaut" unicode="&#x171;" 
d="M422 84h-4q-8 -19 -20 -36.5t-29.5 -30.5t-41.5 -21t-56 -8q-81 0 -130 51.5t-49 145.5v331h80v-317q0 -71 31 -105.5t91 -34.5q24 0 47 6t41 18t29 30.5t11 44.5v358h80v-516h-80v84zM225 586l-48 22l85 170l69 -33zM385 586l-48 22l85 170l69 -33z" />
    <glyph glyph-name="umacron" unicode="&#x16b;" 
d="M422 84h-4q-8 -19 -20 -36.5t-29.5 -30.5t-41.5 -21t-56 -8q-81 0 -130 51.5t-49 145.5v331h80v-317q0 -71 31 -105.5t91 -34.5q24 0 47 6t41 18t29 30.5t11 44.5v358h80v-516h-80v84zM158 705h280v-68h-280v68z" />
    <glyph glyph-name="uogonek" unicode="&#x173;" 
d="M502 0q-39 -24 -61.5 -42t-34 -31.5t-14.5 -23.5t-3 -17q0 -21 13 -29t29 -8q31 0 52 26l40 -41q-10 -17 -32.5 -29t-60.5 -12q-46 0 -77.5 20t-31.5 60q0 36 29 66.5t86 57.5l-1 3h-13v84h-4q-8 -19 -20 -36.5t-29.5 -30.5t-41.5 -21t-56 -8q-81 0 -130 51.5t-49 145.5
v331h80v-317q0 -71 31 -105.5t91 -34.5q24 0 47 6t41 18t29 30.5t11 44.5v358h80v-516z" />
    <glyph glyph-name="uring" unicode="&#x16f;" 
d="M422 84h-4q-8 -19 -20 -36.5t-29.5 -30.5t-41.5 -21t-56 -8q-81 0 -130 51.5t-49 145.5v331h80v-317q0 -71 31 -105.5t91 -34.5q24 0 47 6t41 18t29 30.5t11 44.5v358h80v-516h-80v84zM298 576q-24 0 -45.5 8.5t-37 24t-24.5 36.5t-9 46t9 46t24.5 36.5t37 24t45.5 8.5
t45.5 -8.5t37 -24t24.5 -36.5t9 -46t-9 -46t-24.5 -36.5t-37 -24t-45.5 -8.5zM298 625q27 0 42.5 14.5t15.5 40.5v22q0 26 -15.5 40.5t-42.5 14.5t-42.5 -14.5t-15.5 -40.5v-22q0 -26 15.5 -40.5t42.5 -14.5z" />
    <glyph glyph-name="utilde" unicode="&#x169;" 
d="M422 84h-4q-8 -19 -20 -36.5t-29.5 -30.5t-41.5 -21t-56 -8q-81 0 -130 51.5t-49 145.5v331h80v-317q0 -71 31 -105.5t91 -34.5q24 0 47 6t41 18t29 30.5t11 44.5v358h80v-516h-80v84zM371 612q-26 0 -45 9t-35 17q-24 13 -40.5 18.5t-29.5 5.5q-17 0 -30 -7t-28 -20
l-33 40q14 20 37 36.5t58 16.5q26 0 45 -9t35 -17q24 -13 40.5 -18.5t29.5 -5.5q17 0 30 7t28 20l33 -40q-14 -20 -37 -36.5t-58 -16.5z" />
    <glyph glyph-name="uhorn" unicode="&#x1b0;" 
d="M587 526q0 -26 -12.5 -44.5t-50.5 -18.5h-22v-463h-80v84h-4q-8 -19 -20 -36.5t-29.5 -30.5t-41.5 -21t-56 -8q-81 0 -130 51.5t-49 145.5v331h80v-317q0 -71 31 -105.5t91 -34.5q24 0 47 6t41 18t29 30.5t11 44.5v358h94v112h71v-102z" />
    <glyph glyph-name="uni1EE9" unicode="&#x1ee9;" 
d="M587 526q0 -26 -12.5 -44.5t-50.5 -18.5h-22v-463h-80v84h-4q-8 -19 -20 -36.5t-29.5 -30.5t-41.5 -21t-56 -8q-81 0 -130 51.5t-49 145.5v331h80v-317q0 -71 31 -105.5t91 -34.5q24 0 47 6t41 18t29 30.5t11 44.5v358h94v112h71v-102zM305 585l-52 24l85 170l73 -35z
" />
    <glyph glyph-name="uni1EF1" unicode="&#x1ef1;" 
d="M587 526q0 -26 -12.5 -44.5t-50.5 -18.5h-22v-463h-80v84h-4q-8 -19 -20 -36.5t-29.5 -30.5t-41.5 -21t-56 -8q-81 0 -130 51.5t-49 145.5v331h80v-317q0 -71 31 -105.5t91 -34.5q24 0 47 6t41 18t29 30.5t11 44.5v358h94v112h71v-102zM297 -172q-31 0 -44 13t-13 33v14
q0 20 13 33t44 13t44 -13t13 -33v-14q0 -20 -13 -33t-44 -13z" />
    <glyph glyph-name="uni1EEB" unicode="&#x1eeb;" 
d="M587 526q0 -26 -12.5 -44.5t-50.5 -18.5h-22v-463h-80v84h-4q-8 -19 -20 -36.5t-29.5 -30.5t-41.5 -21t-56 -8q-81 0 -130 51.5t-49 145.5v331h80v-317q0 -71 31 -105.5t91 -34.5q24 0 47 6t41 18t29 30.5t11 44.5v358h94v112h71v-102zM185 744l73 35l85 -170l-52 -24z
" />
    <glyph glyph-name="uni1EED" unicode="&#x1eed;" 
d="M587 526q0 -26 -12.5 -44.5t-50.5 -18.5h-22v-463h-80v84h-4q-8 -19 -20 -36.5t-29.5 -30.5t-41.5 -21t-56 -8q-81 0 -130 51.5t-49 145.5v331h80v-317q0 -71 31 -105.5t91 -34.5q24 0 47 6t41 18t29 30.5t11 44.5v358h94v112h71v-102zM213 765h109q38 0 54 -16t16 -39
q0 -22 -13 -48t-36 -55l-24 -30l-46 23l58 104h-118v61z" />
    <glyph glyph-name="uni1EEF" unicode="&#x1eef;" 
d="M587 526q0 -26 -12.5 -44.5t-50.5 -18.5h-22v-463h-80v84h-4q-8 -19 -20 -36.5t-29.5 -30.5t-41.5 -21t-56 -8q-81 0 -130 51.5t-49 145.5v331h80v-317q0 -71 31 -105.5t91 -34.5q24 0 47 6t41 18t29 30.5t11 44.5v358h94v112h71v-102zM361 616q-23 0 -39.5 7.5
t-30.5 14.5q-19 10 -31 15t-26 5q-16 0 -29.5 -7t-27.5 -20l-33 40q14 20 36.5 36.5t54.5 16.5q23 0 39.5 -7.5t30.5 -14.5q19 -10 31 -15t26 -5q16 0 29.5 7t27.5 20l33 -40q-14 -20 -36.5 -36.5t-54.5 -16.5z" />
    <glyph glyph-name="wacute" unicode="&#x1e83;" 
d="M30 516h71l59 -446h9l88 446h88l88 -446h9l59 446h69l-79 -516h-104l-82 432h-8l-84 -432h-104zM307 585l-52 24l85 170l73 -35z" />
    <glyph glyph-name="wcircumflex" unicode="&#x175;" 
d="M30 516h71l59 -446h9l88 446h88l88 -446h9l59 446h69l-79 -516h-104l-82 432h-8l-84 -432h-104zM350 765l111 -143l-45 -31l-117 117l-117 -117l-43 31l111 143h100z" />
    <glyph glyph-name="wdieresis" unicode="&#x1e85;" 
d="M30 516h71l59 -446h9l88 446h88l88 -446h9l59 446h69l-79 -516h-104l-82 432h-8l-84 -432h-104zM207 618q-31 0 -44 13t-13 33v14q0 20 13 33t44 13t44 -13t13 -33v-14q0 -20 -13 -33t-44 -13zM393 618q-31 0 -44 13t-13 33v14q0 20 13 33t44 13t44 -13t13 -33v-14
q0 -20 -13 -33t-44 -13z" />
    <glyph glyph-name="wgrave" unicode="&#x1e81;" 
d="M30 516h71l59 -446h9l88 446h88l88 -446h9l59 446h69l-79 -516h-104l-82 432h-8l-84 -432h-104zM187 744l73 35l85 -170l-52 -24z" />
    <glyph glyph-name="yacute" unicode="&#xfd;" 
d="M467 516h80l-256 -629q-9 -22 -20 -38.5t-26 -27t-36 -16t-50 -5.5h-76v68h120l58 142l-208 506h82l87 -216l77 -196h4l77 196zM307 585l-52 24l85 170l73 -35z" />
    <glyph glyph-name="ycircumflex" unicode="&#x177;" 
d="M467 516h80l-256 -629q-9 -22 -20 -38.5t-26 -27t-36 -16t-50 -5.5h-76v68h120l58 142l-208 506h82l87 -216l77 -196h4l77 196zM350 765l111 -143l-45 -31l-117 117l-117 -117l-43 31l111 143h100z" />
    <glyph glyph-name="ydieresis" unicode="&#xff;" 
d="M467 516h80l-256 -629q-9 -22 -20 -38.5t-26 -27t-36 -16t-50 -5.5h-76v68h120l58 142l-208 506h82l87 -216l77 -196h4l77 196zM207 618q-31 0 -44 13t-13 33v14q0 20 13 33t44 13t44 -13t13 -33v-14q0 -20 -13 -33t-44 -13zM393 618q-31 0 -44 13t-13 33v14q0 20 13 33
t44 13t44 -13t13 -33v-14q0 -20 -13 -33t-44 -13z" />
    <glyph glyph-name="uni1EF5" unicode="&#x1ef5;" 
d="M467 516h80l-256 -629q-9 -22 -20 -38.5t-26 -27t-36 -16t-50 -5.5h-76v68h120l58 142l-208 506h82l87 -216l77 -196h4l77 196zM460 -172q-31 0 -44 13t-13 33v14q0 20 13 33t44 13t44 -13t13 -33v-14q0 -20 -13 -33t-44 -13z" />
    <glyph glyph-name="ygrave" unicode="&#x1ef3;" 
d="M467 516h80l-256 -629q-9 -22 -20 -38.5t-26 -27t-36 -16t-50 -5.5h-76v68h120l58 142l-208 506h82l87 -216l77 -196h4l77 196zM187 744l73 35l85 -170l-52 -24z" />
    <glyph glyph-name="uni1EF7" unicode="&#x1ef7;" 
d="M467 516h80l-256 -629q-9 -22 -20 -38.5t-26 -27t-36 -16t-50 -5.5h-76v68h120l58 142l-208 506h82l87 -216l77 -196h4l77 196zM216 765h109q38 0 54 -16t16 -39q0 -22 -13 -48t-36 -55l-24 -30l-46 23l58 104h-118v61z" />
    <glyph glyph-name="uni1EF9" unicode="&#x1ef9;" 
d="M467 516h80l-256 -629q-9 -22 -20 -38.5t-26 -27t-36 -16t-50 -5.5h-76v68h120l58 142l-208 506h82l87 -216l77 -196h4l77 196zM373 612q-26 0 -45 9t-35 17q-24 13 -40.5 18.5t-29.5 5.5q-17 0 -30 -7t-28 -20l-33 40q14 20 37 36.5t58 16.5q26 0 45 -9t35 -17
q24 -13 40.5 -18.5t29.5 -5.5q17 0 30 7t28 20l33 -40q-14 -20 -37 -36.5t-58 -16.5z" />
    <glyph glyph-name="zacute" unicode="&#x17a;" 
d="M85 0v77l333 371h-322v68h409v-77l-333 -371h343v-68h-430zM307 585l-52 24l85 170l73 -35z" />
    <glyph glyph-name="zcaron" unicode="&#x17e;" 
d="M85 0v77l333 371h-322v68h409v-77l-333 -371h343v-68h-430zM250 599l-111 143l46 31l117 -117l117 117l42 -31l-111 -143h-100z" />
    <glyph glyph-name="zdotaccent" unicode="&#x17c;" 
d="M85 0v77l333 371h-322v68h409v-77l-333 -371h343v-68h-430zM300 612q-35 0 -49 14.5t-14 36.5v16q0 22 14 36.5t49 14.5t49 -14.5t14 -36.5v-16q0 -22 -14 -36.5t-49 -14.5z" />
    <glyph glyph-name="Aacute" unicode="&#xc1;" 
d="M481 0l-59 199h-245l-59 -199h-87l214 698h111l214 -698h-89zM304 609h-9l-98 -337h205zM307 755l-52 24l85 170l73 -35z" />
    <glyph glyph-name="Abreve" unicode="&#x102;" 
d="M481 0l-59 199h-245l-59 -199h-87l214 698h111l214 -698h-89zM304 609h-9l-98 -337h205zM300 765q-40 0 -67.5 15t-46 37.5t-29.5 49t-18 49.5l51 22l21 -34q12 -19 21 -33t18.5 -23t21 -13.5t28.5 -4.5q16 0 28 4.5t21.5 13.5t18.5 23t21 33l21 34l51 -22
q-7 -23 -18 -49.5t-29.5 -49t-46 -37.5t-67.5 -15z" />
    <glyph glyph-name="Acircumflex" unicode="&#xc2;" 
d="M481 0l-59 199h-245l-59 -199h-87l214 698h111l214 -698h-89zM304 609h-9l-98 -337h205zM350 935l111 -143l-45 -31l-117 117l-117 -117l-43 31l111 143h100z" />
    <glyph glyph-name="Adieresis" unicode="&#xc4;" 
d="M481 0l-59 199h-245l-59 -199h-87l214 698h111l214 -698h-89zM304 609h-9l-98 -337h205zM207 788q-31 0 -44 13t-13 33v14q0 20 13 33t44 13t44 -13t13 -33v-14q0 -20 -13 -33t-44 -13zM393 788q-31 0 -44 13t-13 33v14q0 20 13 33t44 13t44 -13t13 -33v-14
q0 -20 -13 -33t-44 -13z" />
    <glyph glyph-name="uni1EA0" unicode="&#x1ea0;" 
d="M481 0l-59 199h-245l-59 -199h-87l214 698h111l214 -698h-89zM304 609h-9l-98 -337h205zM300 -172q-31 0 -44 13t-13 33v14q0 20 13 33t44 13t44 -13t13 -33v-14q0 -20 -13 -33t-44 -13z" />
    <glyph glyph-name="Agrave" unicode="&#xc0;" 
d="M481 0l-59 199h-245l-59 -199h-87l214 698h111l214 -698h-89zM304 609h-9l-98 -337h205zM187 914l73 35l85 -170l-52 -24z" />
    <glyph glyph-name="uni1EA2" unicode="&#x1ea2;" 
d="M481 0l-59 199h-245l-59 -199h-87l214 698h111l214 -698h-89zM304 609h-9l-98 -337h205zM216 935h109q38 0 54 -16t16 -39q0 -22 -13 -48t-36 -55l-24 -30l-46 23l58 104h-118v61z" />
    <glyph glyph-name="Amacron" unicode="&#x100;" 
d="M481 0l-59 199h-245l-59 -199h-87l214 698h111l214 -698h-89zM304 609h-9l-98 -337h205zM160 875h280v-68h-280v68z" />
    <glyph glyph-name="Aogonek" unicode="&#x104;" 
d="M245 698h111l214 -698q-39 -24 -61.5 -42t-34 -31.5t-14.5 -23.5t-3 -17q0 -21 13 -29t29 -8q31 0 52 26l40 -41q-10 -17 -32.5 -29t-60.5 -12q-46 0 -77.5 20t-31.5 60q0 36 29 66.5t86 57.5l-1 3h-22l-59 199h-245l-59 -199h-87zM304 609h-9l-98 -337h205z" />
    <glyph glyph-name="Aring" unicode="&#xc5;" 
d="M481 0l-59 199h-245l-59 -199h-87l214 698h111l214 -698h-89zM304 609h-9l-98 -337h205zM300 746q-24 0 -45.5 8.5t-37 24t-24.5 36.5t-9 46t9 46t24.5 36.5t37 24t45.5 8.5t45.5 -8.5t37 -24t24.5 -36.5t9 -46t-9 -46t-24.5 -36.5t-37 -24t-45.5 -8.5zM300 795
q27 0 42.5 14.5t15.5 40.5v22q0 26 -15.5 40.5t-42.5 14.5t-42.5 -14.5t-15.5 -40.5v-22q0 -26 15.5 -40.5t42.5 -14.5z" />
    <glyph glyph-name="Aringacute" unicode="&#x1fa;" 
d="M481 0l-59 199h-245l-59 -199h-87l214 698h111l214 -698h-89zM304 609h-9l-98 -337h205zM314 987l-47 19l73 113l70 -25zM300 736q-24 0 -45.5 8.5t-37 24t-24.5 36.5t-9 46t9 46t24.5 36.5t37 24t45.5 8.5t45.5 -8.5t37 -24t24.5 -36.5t9 -46t-9 -46t-24.5 -36.5
t-37 -24t-45.5 -8.5zM300 785q27 0 42.5 14.5t15.5 40.5v22q0 26 -15.5 40.5t-42.5 14.5t-42.5 -14.5t-15.5 -40.5v-22q0 -26 15.5 -40.5t42.5 -14.5z" />
    <glyph glyph-name="Atilde" unicode="&#xc3;" 
d="M481 0l-59 199h-245l-59 -199h-87l214 698h111l214 -698h-89zM304 609h-9l-98 -337h205zM373 782q-26 0 -45 9t-35 17q-24 13 -40.5 18.5t-29.5 5.5q-17 0 -30 -7t-28 -20l-33 40q14 20 37 36.5t58 16.5q26 0 45 -9t35 -17q24 -13 40.5 -18.5t29.5 -5.5q17 0 30 7t28 20
l33 -40q-14 -20 -37 -36.5t-58 -16.5z" />
    <glyph glyph-name="uni1EAE" unicode="&#x1eae;" 
d="M481 0l-59 199h-245l-59 -199h-87l214 698h111l214 -698h-89zM304 609h-9l-98 -337h205zM299 755q-40 0 -68 13.5t-47.5 34t-31 45t-18.5 46.5l47 23l21 -32q24 -36 44.5 -51t53.5 -15t53.5 15t44.5 51l21 32l47 -23q-8 -24 -20.5 -49t-32 -45t-47.5 -32.5t-67 -12.5z
M307 878l-49 23l85 170l70 -34z" />
    <glyph glyph-name="uni1EB6" unicode="&#x1eb6;" 
d="M481 0l-59 199h-245l-59 -199h-87l214 698h111l214 -698h-89zM304 609h-9l-98 -337h205zM300 765q-40 0 -67.5 15t-46 37.5t-29.5 49t-18 49.5l51 22l21 -34q12 -19 21 -33t18.5 -23t21 -13.5t28.5 -4.5q16 0 28 4.5t21.5 13.5t18.5 23t21 33l21 34l51 -22
q-7 -23 -18 -49.5t-29.5 -49t-46 -37.5t-67.5 -15zM300 -172q-31 0 -44 13t-13 33v14q0 20 13 33t44 13t44 -13t13 -33v-14q0 -20 -13 -33t-44 -13z" />
    <glyph glyph-name="uni1EB0" unicode="&#x1eb0;" 
d="M481 0l-59 199h-245l-59 -199h-87l214 698h111l214 -698h-89zM304 609h-9l-98 -337h205zM301 755q-39 0 -67 12.5t-47.5 32.5t-32 45t-20.5 49l47 23l21 -32q24 -36 44.5 -51t53.5 -15t53.5 15t44.5 51l21 32l47 -23q-7 -22 -18.5 -46.5t-31 -45t-47.5 -34t-68 -13.5z
M187 1037l70 34l85 -170l-49 -23z" />
    <glyph glyph-name="uni1EB2" unicode="&#x1eb2;" 
d="M481 0l-59 199h-245l-59 -199h-87l214 698h111l214 -698h-89zM304 609h-9l-98 -337h205zM215 1060h94q38 0 54 -16t16 -39q0 -22 -13 -48t-36 -55l-24 -30l-46 23l58 104h-103v61zM301 755q-39 0 -67 12.5t-47.5 32.5t-32 45t-20.5 49l47 23l21 -32q24 -36 44.5 -51
t53.5 -15t53.5 15t44.5 51l21 32l47 -23q-7 -22 -18.5 -46.5t-31 -45t-47.5 -34t-68 -13.5z" />
    <glyph glyph-name="uni1EB4" unicode="&#x1eb4;" 
d="M481 0l-59 199h-245l-59 -199h-87l214 698h111l214 -698h-89zM304 609h-9l-98 -337h205zM372 939q-26 0 -45 9t-35 17q-24 13 -40.5 18.5t-29.5 5.5q-17 0 -30 -7t-28 -20l-31 36q14 20 37 36.5t58 16.5q26 0 45 -9t35 -17q24 -13 40.5 -18.5t29.5 -5.5q17 0 30 7t28 20
l31 -36q-14 -20 -37 -36.5t-58 -16.5zM301 755q-39 0 -67 12.5t-47.5 32.5t-32 45t-20.5 49l47 23l21 -32q24 -36 44.5 -51t53.5 -15t53.5 15t44.5 51l21 32l47 -23q-7 -22 -18.5 -46.5t-31 -45t-47.5 -34t-68 -13.5z" />
    <glyph glyph-name="uni1EA4" unicode="&#x1ea4;" 
d="M481 0l-59 199h-245l-59 -199h-87l214 698h111l214 -698h-89zM304 609h-9l-98 -337h205zM454 882l-49 23l85 170l70 -34zM350 925l110 -144l-44 -30l-117 119l-117 -119l-42 30l110 144h100z" />
    <glyph glyph-name="uni1EAC" unicode="&#x1eac;" 
d="M481 0l-59 199h-245l-59 -199h-87l214 698h111l214 -698h-89zM304 609h-9l-98 -337h205zM350 935l111 -143l-45 -31l-117 117l-117 -117l-43 31l111 143h100zM300 -172q-31 0 -44 13t-13 33v14q0 20 13 33t44 13t44 -13t13 -33v-14q0 -20 -13 -33t-44 -13z" />
    <glyph glyph-name="uni1EA6" unicode="&#x1ea6;" 
d="M481 0l-59 199h-245l-59 -199h-87l214 698h111l214 -698h-89zM304 609h-9l-98 -337h205zM40 1041l70 34l85 -170l-49 -23zM350 925l110 -144l-44 -30l-117 119l-117 -119l-42 30l110 144h100z" />
    <glyph glyph-name="uni1EA8" unicode="&#x1ea8;" 
d="M481 0l-59 199h-245l-59 -199h-87l214 698h111l214 -698h-89zM304 609h-9l-98 -337h205zM353 1064h109q38 0 54 -16t16 -39q0 -22 -13 -48t-36 -55l-24 -30l-46 23l58 104h-118v61zM350 925l110 -144l-44 -30l-117 119l-117 -119l-42 30l110 144h100z" />
    <glyph glyph-name="uni1EAA" unicode="&#x1eaa;" 
d="M481 0l-59 199h-245l-59 -199h-87l214 698h111l214 -698h-89zM304 609h-9l-98 -337h205zM228 1062q26 0 45 -9t35 -17q24 -13 40.5 -18.5t29.5 -5.5q17 0 30 7t28 20l31 -36q-14 -20 -37 -36.5t-58 -16.5q-26 0 -45 9t-35 17q-24 13 -40.5 18.5t-29.5 5.5q-17 0 -30 -7
t-28 -20l-31 36q14 20 37 36.5t58 16.5zM350 915l110 -134l-44 -30l-117 111l-117 -111l-42 30l110 134h100z" />
    <glyph glyph-name="AE" unicode="&#xc6;" 
d="M312 201h-152l-56 -201h-84l206 698h334v-69h-168v-241h156v-69h-156v-250h168v-69h-248v201zM281 638l-103 -368h134v368h-31z" />
    <glyph glyph-name="AEacute" unicode="&#x1fc;" 
d="M312 201h-152l-56 -201h-84l206 698h334v-69h-168v-241h156v-69h-156v-250h168v-69h-248v201zM281 638l-103 -368h134v368h-31zM400 755l-52 24l85 170l73 -35z" />
    <glyph glyph-name="Cacute" unicode="&#x106;" 
d="M323 -12q-128 0 -190.5 93t-62.5 268t62.5 268t190.5 93q48 0 83 -13t60 -35t42 -49.5t30 -55.5l-72 -33q-9 23 -21 43.5t-28.5 36t-39 24.5t-54.5 9q-83 0 -123.5 -63t-40.5 -168v-114q0 -105 40.5 -168t123.5 -63q32 0 54.5 9t39 24.5t28.5 36t21 43.5l72 -33
q-13 -29 -30 -56t-42 -49t-60 -35t-83 -13zM335 755l-52 24l85 170l73 -35z" />
    <glyph glyph-name="Ccaron" unicode="&#x10c;" 
d="M323 -12q-128 0 -190.5 93t-62.5 268t62.5 268t190.5 93q48 0 83 -13t60 -35t42 -49.5t30 -55.5l-72 -33q-9 23 -21 43.5t-28.5 36t-39 24.5t-54.5 9q-83 0 -123.5 -63t-40.5 -168v-114q0 -105 40.5 -168t123.5 -63q32 0 54.5 9t39 24.5t28.5 36t21 43.5l72 -33
q-13 -29 -30 -56t-42 -49t-60 -35t-83 -13zM278 769l-111 143l45 31l117 -117l117 117l43 -31l-111 -143h-100z" />
    <glyph glyph-name="Ccedilla" unicode="&#xc7;" 
d="M323 637q-83 0 -123.5 -63t-40.5 -168v-114q0 -105 40.5 -168t123.5 -63q32 0 54.5 9t39 24.5t28.5 36t21 43.5l72 -33q-13 -28 -29.5 -55t-41 -48.5t-58 -35t-79.5 -14.5l-9 -49l3 -3q19 6 39 6q29 0 48.5 -17t19.5 -49q0 -21 -9 -37t-24.5 -26t-35.5 -15t-42 -5
q-41 0 -64.5 13.5t-34.5 27.5l38 41q9 -11 24 -19.5t37 -8.5q19 0 31.5 7.5t12.5 23.5q0 14 -13 24.5t-55 16.5l-28 4l13 68q-107 15 -159 106t-52 252q0 175 62.5 268t190.5 93q48 0 83 -13t60 -35t42 -49.5t30 -55.5l-72 -33q-9 23 -21 43.5t-28.5 36t-39 24.5t-54.5 9z
" />
    <glyph glyph-name="Ccircumflex" unicode="&#x108;" 
d="M323 -12q-128 0 -190.5 93t-62.5 268t62.5 268t190.5 93q48 0 83 -13t60 -35t42 -49.5t30 -55.5l-72 -33q-9 23 -21 43.5t-28.5 36t-39 24.5t-54.5 9q-83 0 -123.5 -63t-40.5 -168v-114q0 -105 40.5 -168t123.5 -63q32 0 54.5 9t39 24.5t28.5 36t21 43.5l72 -33
q-13 -29 -30 -56t-42 -49t-60 -35t-83 -13zM378 935l111 -143l-45 -31l-117 117l-117 -117l-43 31l111 143h100z" />
    <glyph glyph-name="Cdotaccent" unicode="&#x10a;" 
d="M323 -12q-128 0 -190.5 93t-62.5 268t62.5 268t190.5 93q48 0 83 -13t60 -35t42 -49.5t30 -55.5l-72 -33q-9 23 -21 43.5t-28.5 36t-39 24.5t-54.5 9q-83 0 -123.5 -63t-40.5 -168v-114q0 -105 40.5 -168t123.5 -63q32 0 54.5 9t39 24.5t28.5 36t21 43.5l72 -33
q-13 -29 -30 -56t-42 -49t-60 -35t-83 -13zM328 782q-35 0 -49 14.5t-14 36.5v16q0 22 14 36.5t49 14.5t49 -14.5t14 -36.5v-16q0 -22 -14 -36.5t-49 -14.5z" />
    <glyph glyph-name="Dcaron" unicode="&#x10e;" 
d="M95 698h195q128 0 191 -88t63 -261t-63 -261t-191 -88h-195v698zM286 73q84 0 126.5 58t42.5 164v108q0 106 -42.5 164t-126.5 58h-107v-552h107zM228 769l-111 143l45 31l117 -117l117 117l43 -31l-111 -143h-100z" />
    <glyph glyph-name="Dcroat" unicode="&#x110;" 
d="M102 336h-80v64h80v298h188q128 0 191 -88t63 -261t-63 -261t-191 -88h-188v336zM286 73q84 0 126.5 58t42.5 164v108q0 106 -42.5 164t-126.5 58h-100v-225h141v-64h-141v-263h100z" />
    <glyph glyph-name="Eth" unicode="&#xd0;" 
d="M102 336h-80v64h80v298h188q128 0 191 -88t63 -261t-63 -261t-191 -88h-188v336zM286 73q84 0 126.5 58t42.5 164v108q0 106 -42.5 164t-126.5 58h-100v-225h141v-64h-141v-263h100z" />
    <glyph glyph-name="Eacute" unicode="&#xc9;" 
d="M90 0v698h430v-73h-346v-235h334v-73h-334v-244h346v-73h-430zM312 755l-52 24l85 170l73 -35z" />
    <glyph glyph-name="Ebreve" unicode="&#x114;" 
d="M90 0v698h430v-73h-346v-235h334v-73h-334v-244h346v-73h-430zM305 765q-40 0 -67.5 15t-46 37.5t-29.5 49t-18 49.5l51 22l21 -34q12 -19 21 -33t18.5 -23t21 -13.5t28.5 -4.5q16 0 28 4.5t21.5 13.5t18.5 23t21 33l21 34l51 -22q-7 -23 -18 -49.5t-29.5 -49t-46 -37.5
t-67.5 -15z" />
    <glyph glyph-name="Ecaron" unicode="&#x11a;" 
d="M90 0v698h430v-73h-346v-235h334v-73h-334v-244h346v-73h-430zM255 769l-111 143l45 31l117 -117l117 117l43 -31l-111 -143h-100z" />
    <glyph glyph-name="Ecircumflex" unicode="&#xca;" 
d="M90 0v698h430v-73h-346v-235h334v-73h-334v-244h346v-73h-430zM355 935l111 -143l-45 -31l-117 117l-117 -117l-43 31l111 143h100z" />
    <glyph glyph-name="Edieresis" unicode="&#xcb;" 
d="M90 0v698h430v-73h-346v-235h334v-73h-334v-244h346v-73h-430zM212 788q-31 0 -44 13t-13 33v14q0 20 13 33t44 13t44 -13t13 -33v-14q0 -20 -13 -33t-44 -13zM398 788q-31 0 -44 13t-13 33v14q0 20 13 33t44 13t44 -13t13 -33v-14q0 -20 -13 -33t-44 -13z" />
    <glyph glyph-name="Edotaccent" unicode="&#x116;" 
d="M90 0v698h430v-73h-346v-235h334v-73h-334v-244h346v-73h-430zM305 782q-35 0 -49 14.5t-14 36.5v16q0 22 14 36.5t49 14.5t49 -14.5t14 -36.5v-16q0 -22 -14 -36.5t-49 -14.5z" />
    <glyph glyph-name="uni1EB8" unicode="&#x1eb8;" 
d="M90 0v698h430v-73h-346v-235h334v-73h-334v-244h346v-73h-430zM305 -172q-31 0 -44 13t-13 33v14q0 20 13 33t44 13t44 -13t13 -33v-14q0 -20 -13 -33t-44 -13z" />
    <glyph glyph-name="Egrave" unicode="&#xc8;" 
d="M90 0v698h430v-73h-346v-235h334v-73h-334v-244h346v-73h-430zM192 914l73 35l85 -170l-52 -24z" />
    <glyph glyph-name="uni1EBA" unicode="&#x1eba;" 
d="M90 0v698h430v-73h-346v-235h334v-73h-334v-244h346v-73h-430zM221 935h109q38 0 54 -16t16 -39q0 -22 -13 -48t-36 -55l-24 -30l-46 23l58 104h-118v61z" />
    <glyph glyph-name="Emacron" unicode="&#x112;" 
d="M90 0v698h430v-73h-346v-235h334v-73h-334v-244h346v-73h-430zM165 875h280v-68h-280v68z" />
    <glyph glyph-name="Eogonek" unicode="&#x118;" 
d="M90 698h430v-73h-346v-235h334v-73h-334v-244h346v-73q-39 -24 -61.5 -42t-34 -31.5t-14.5 -23.5t-3 -17q0 -21 13 -29t29 -8q31 0 52 26l40 -41q-10 -17 -32.5 -29t-60.5 -12q-46 0 -77.5 20t-31.5 60q0 36 29 66.5t86 57.5l-1 3h-363v698z" />
    <glyph glyph-name="uni1EBC" unicode="&#x1ebc;" 
d="M90 0v698h430v-73h-346v-235h334v-73h-334v-244h346v-73h-430zM378 782q-26 0 -45 9t-35 17q-24 13 -40.5 18.5t-29.5 5.5q-17 0 -30 -7t-28 -20l-33 40q14 20 37 36.5t58 16.5q26 0 45 -9t35 -17q24 -13 40.5 -18.5t29.5 -5.5q17 0 30 7t28 20l33 -40q-14 -20 -37 -36.5
t-58 -16.5z" />
    <glyph glyph-name="uni1EBE" unicode="&#x1ebe;" 
d="M90 0v698h430v-73h-346v-235h334v-73h-334v-244h346v-73h-430zM459 882l-49 23l85 170l70 -34zM355 925l110 -144l-44 -30l-117 119l-117 -119l-42 30l110 144h100z" />
    <glyph glyph-name="uni1EC6" unicode="&#x1ec6;" 
d="M90 0v698h430v-73h-346v-235h334v-73h-334v-244h346v-73h-430zM355 935l111 -143l-45 -31l-117 117l-117 -117l-43 31l111 143h100zM305 -172q-31 0 -44 13t-13 33v14q0 20 13 33t44 13t44 -13t13 -33v-14q0 -20 -13 -33t-44 -13z" />
    <glyph glyph-name="uni1EC0" unicode="&#x1ec0;" 
d="M90 0v698h430v-73h-346v-235h334v-73h-334v-244h346v-73h-430zM45 1041l70 34l85 -170l-49 -23zM355 925l110 -144l-44 -30l-117 119l-117 -119l-42 30l110 144h100z" />
    <glyph glyph-name="uni1EC2" unicode="&#x1ec2;" 
d="M90 0v698h430v-73h-346v-235h334v-73h-334v-244h346v-73h-430zM358 1064h109q38 0 54 -16t16 -39q0 -22 -13 -48t-36 -55l-24 -30l-46 23l58 104h-118v61zM355 925l110 -144l-44 -30l-117 119l-117 -119l-42 30l110 144h100z" />
    <glyph glyph-name="uni1EC4" unicode="&#x1ec4;" 
d="M90 0v698h430v-73h-346v-235h334v-73h-334v-244h346v-73h-430zM233 1062q26 0 45 -9t35 -17q24 -13 40.5 -18.5t29.5 -5.5q17 0 30 7t28 20l31 -36q-14 -20 -37 -36.5t-58 -16.5q-26 0 -45 9t-35 17q-24 13 -40.5 18.5t-29.5 5.5q-17 0 -30 -7t-28 -20l-31 36
q14 20 37 36.5t58 16.5zM355 915l110 -134l-44 -30l-117 111l-117 -111l-42 30l110 134h100z" />
    <glyph glyph-name="uni018F" unicode="&#x18f;" 
d="M300 -12q-64 0 -110 24.5t-76 70.5t-44 113t-14 153v22h399v33q0 52 -8.5 95t-28 74t-51.5 47.5t-78 16.5q-21 0 -43 -5t-42.5 -19.5t-38.5 -41.5t-32 -72l-70 33q23 87 82 132.5t150 45.5q67 0 114.5 -25t77.5 -71.5t43.5 -113t13.5 -150.5q0 -172 -58.5 -267
t-185.5 -95zM299 61q42 0 71.5 16.5t48 46.5t27.5 72.5t9 95.5v10h-312v-10q0 -53 9 -95.5t27.5 -72.5t48 -46.5t71.5 -16.5z" />
    <glyph glyph-name="Gbreve" unicode="&#x11e;" 
d="M444 93h-5q-9 -20 -21 -39t-30.5 -33.5t-44.5 -23.5t-62 -9q-114 0 -169.5 92t-55.5 264q0 180 61 273t188 93q49 0 85 -13t61.5 -35t42.5 -49.5t28 -55.5l-72 -33q-9 23 -20.5 43.5t-28 36t-39.5 24.5t-54 9q-84 0 -123.5 -63t-39.5 -168v-108q0 -53 8 -96.5t26.5 -75.5
t48 -49.5t72.5 -17.5q68 0 106 41t38 106v72h-147v67h225v-345h-78v93zM306 765q-40 0 -67.5 15t-46 37.5t-29.5 49t-18 49.5l51 22l21 -34q12 -19 21 -33t18.5 -23t21 -13.5t28.5 -4.5q16 0 28 4.5t21.5 13.5t18.5 23t21 33l21 34l51 -22q-7 -23 -18 -49.5t-29.5 -49
t-46 -37.5t-67.5 -15z" />
    <glyph glyph-name="Gcircumflex" unicode="&#x11c;" 
d="M444 93h-5q-9 -20 -21 -39t-30.5 -33.5t-44.5 -23.5t-62 -9q-114 0 -169.5 92t-55.5 264q0 180 61 273t188 93q49 0 85 -13t61.5 -35t42.5 -49.5t28 -55.5l-72 -33q-9 23 -20.5 43.5t-28 36t-39.5 24.5t-54 9q-84 0 -123.5 -63t-39.5 -168v-108q0 -53 8 -96.5t26.5 -75.5
t48 -49.5t72.5 -17.5q68 0 106 41t38 106v72h-147v67h225v-345h-78v93zM356 935l111 -143l-45 -31l-117 117l-117 -117l-43 31l111 143h100z" />
    <glyph glyph-name="Gcommaaccent" unicode="&#x122;" 
d="M444 93h-5q-9 -20 -21 -39t-30.5 -33.5t-44.5 -23.5t-62 -9q-114 0 -169.5 92t-55.5 264q0 180 61 273t188 93q49 0 85 -13t61.5 -35t42.5 -49.5t28 -55.5l-72 -33q-9 23 -20.5 43.5t-28 36t-39.5 24.5t-54 9q-84 0 -123.5 -63t-39.5 -168v-108q0 -53 8 -96.5t26.5 -75.5
t48 -49.5t72.5 -17.5q68 0 106 41t38 106v72h-147v67h225v-345h-78v93zM248 -62h109l-76 -189h-61z" />
    <glyph glyph-name="Gdotaccent" unicode="&#x120;" 
d="M444 93h-5q-9 -20 -21 -39t-30.5 -33.5t-44.5 -23.5t-62 -9q-114 0 -169.5 92t-55.5 264q0 180 61 273t188 93q49 0 85 -13t61.5 -35t42.5 -49.5t28 -55.5l-72 -33q-9 23 -20.5 43.5t-28 36t-39.5 24.5t-54 9q-84 0 -123.5 -63t-39.5 -168v-108q0 -53 8 -96.5t26.5 -75.5
t48 -49.5t72.5 -17.5q68 0 106 41t38 106v72h-147v67h225v-345h-78v93zM306 782q-35 0 -49 14.5t-14 36.5v16q0 22 14 36.5t49 14.5t49 -14.5t14 -36.5v-16q0 -22 -14 -36.5t-49 -14.5z" />
    <glyph glyph-name="Hbar" unicode="&#x126;" 
d="M436 317h-272v-317h-84v518h-70v64h70v116h84v-116h272v116h84v-116h70v-64h-70v-518h-84v317zM436 390v128h-272v-128h272z" />
    <glyph glyph-name="Hcircumflex" unicode="&#x124;" 
d="M436 317h-272v-317h-84v698h84v-308h272v308h84v-698h-84v317zM350 935l111 -143l-45 -31l-117 117l-117 -117l-43 31l111 143h100z" />
    <glyph glyph-name="Iacute" unicode="&#xcd;" 
d="M84 0v67h174v564h-174v67h432v-67h-174v-564h174v-67h-432zM307 755l-52 24l85 170l73 -35z" />
    <glyph glyph-name="Ibreve" unicode="&#x12c;" 
d="M84 0v67h174v564h-174v67h432v-67h-174v-564h174v-67h-432zM300 765q-40 0 -67.5 15t-46 37.5t-29.5 49t-18 49.5l51 22l21 -34q12 -19 21 -33t18.5 -23t21 -13.5t28.5 -4.5q16 0 28 4.5t21.5 13.5t18.5 23t21 33l21 34l51 -22q-7 -23 -18 -49.5t-29.5 -49t-46 -37.5
t-67.5 -15z" />
    <glyph glyph-name="Icircumflex" unicode="&#xce;" 
d="M84 0v67h174v564h-174v67h432v-67h-174v-564h174v-67h-432zM350 935l111 -143l-45 -31l-117 117l-117 -117l-43 31l111 143h100z" />
    <glyph glyph-name="Idieresis" unicode="&#xcf;" 
d="M84 0v67h174v564h-174v67h432v-67h-174v-564h174v-67h-432zM207 788q-31 0 -44 13t-13 33v14q0 20 13 33t44 13t44 -13t13 -33v-14q0 -20 -13 -33t-44 -13zM393 788q-31 0 -44 13t-13 33v14q0 20 13 33t44 13t44 -13t13 -33v-14q0 -20 -13 -33t-44 -13z" />
    <glyph glyph-name="Idotaccent" unicode="&#x130;" 
d="M84 0v67h174v564h-174v67h432v-67h-174v-564h174v-67h-432zM300 782q-35 0 -49 14.5t-14 36.5v16q0 22 14 36.5t49 14.5t49 -14.5t14 -36.5v-16q0 -22 -14 -36.5t-49 -14.5z" />
    <glyph glyph-name="uni1ECA" unicode="&#x1eca;" 
d="M84 0v67h174v564h-174v67h432v-67h-174v-564h174v-67h-432zM300 -172q-31 0 -44 13t-13 33v14q0 20 13 33t44 13t44 -13t13 -33v-14q0 -20 -13 -33t-44 -13z" />
    <glyph glyph-name="Igrave" unicode="&#xcc;" 
d="M84 0v67h174v564h-174v67h432v-67h-174v-564h174v-67h-432zM187 914l73 35l85 -170l-52 -24z" />
    <glyph glyph-name="uni1EC8" unicode="&#x1ec8;" 
d="M84 0v67h174v564h-174v67h432v-67h-174v-564h174v-67h-432zM216 935h109q38 0 54 -16t16 -39q0 -22 -13 -48t-36 -55l-24 -30l-46 23l58 104h-118v61z" />
    <glyph glyph-name="Imacron" unicode="&#x12a;" 
d="M84 0v67h174v564h-174v67h432v-67h-174v-564h174v-67h-432zM160 875h280v-68h-280v68z" />
    <glyph glyph-name="Iogonek" unicode="&#x12e;" 
d="M84 67h174v564h-174v67h432v-67h-174v-564h174v-67q-39 -24 -61.5 -42t-34 -31.5t-14.5 -23.5t-3 -17q0 -21 13 -29t29 -8q31 0 52 26l40 -41q-10 -17 -32.5 -29t-60.5 -12q-46 0 -77.5 20t-31.5 60q0 36 29 66.5t86 57.5l-1 3h-365v67z" />
    <glyph glyph-name="Itilde" unicode="&#x128;" 
d="M84 0v67h174v564h-174v67h432v-67h-174v-564h174v-67h-432zM373 782q-26 0 -45 9t-35 17q-24 13 -40.5 18.5t-29.5 5.5q-17 0 -30 -7t-28 -20l-33 40q14 20 37 36.5t58 16.5q26 0 45 -9t35 -17q24 -13 40.5 -18.5t29.5 -5.5q17 0 30 7t28 20l33 -40q-14 -20 -37 -36.5
t-58 -16.5z" />
    <glyph glyph-name="IJ" unicode="&#x132;" 
d="M510 698v-507q0 -47 -16 -84.5t-44.5 -63.5t-68.5 -40.5t-88 -14.5q-82 0 -137 41t-71 116l84 21q4 -20 12.5 -38.5t23 -33t36.5 -23.5t55 -9q62 0 96 35t34 109v492h84zM90 698h84v-408h-84v408z" />
    <glyph glyph-name="IJacute" 
d="M510 698v-507q0 -47 -16 -84.5t-44.5 -63.5t-68.5 -40.5t-88 -14.5q-82 0 -137 41t-71 116l84 21q4 -20 12.5 -38.5t23 -33t36.5 -23.5t55 -9q62 0 96 35t34 109v492h84zM90 698h84v-408h-84v408zM140 755l-52 24l85 170l73 -35zM475 755l-52 24l85 170l73 -35z" />
    <glyph glyph-name="Jacute" 
d="M480 698v-517q0 -44 -15 -80t-42.5 -61t-65.5 -38.5t-83 -13.5q-80 0 -132 41.5t-68 116.5l80 17q5 -21 13.5 -39.5t23 -32t35.5 -21.5t50 -8q57 0 88.5 32.5t31.5 101.5v429h-252v73h336zM320 755l-52 24l85 170l73 -35z" />
    <glyph glyph-name="Jcircumflex" unicode="&#x134;" 
d="M480 698v-517q0 -44 -15 -80t-42.5 -61t-65.5 -38.5t-83 -13.5q-80 0 -132 41.5t-68 116.5l80 17q5 -21 13.5 -39.5t23 -32t35.5 -21.5t50 -8q57 0 88.5 32.5t31.5 101.5v429h-252v73h336zM363 935l111 -143l-45 -31l-117 117l-117 -117l-43 31l111 143h100z" />
    <glyph glyph-name="Kcommaaccent" unicode="&#x136;" 
d="M269 342l-100 -118v-224h-84v698h84v-364h3l92 116l206 248h101l-245 -294l252 -404h-98zM270 -62h109l-76 -189h-61z" />
    <glyph glyph-name="Lacute" unicode="&#x139;" 
d="M120 0v698h84v-625h331v-73h-415zM170 755l-52 24l85 170l73 -35z" />
    <glyph glyph-name="Lcaron" unicode="&#x13d;" 
d="M120 0v698h84v-625h331v-73h-415zM351 551h-61l7 189h103z" />
    <glyph glyph-name="Lcommaaccent" unicode="&#x13b;" 
d="M120 0v698h84v-625h331v-73h-415zM275 -62h109l-76 -189h-61z" />
    <glyph glyph-name="Ldot" unicode="&#x13f;" 
d="M120 0v698h84v-625h331v-73h-415zM435 267q-35 0 -49 14.5t-14 36.5v16q0 22 14 36.5t49 14.5t49 -14.5t14 -36.5v-16q0 -22 -14 -36.5t-49 -14.5z" />
    <glyph glyph-name="Lslash" unicode="&#x141;" 
d="M535 0h-415v271l-80 -26v69l80 26v358h84v-334l211 69v-69l-211 -69v-222h331v-73z" />
    <glyph glyph-name="Nacute" unicode="&#x143;" 
d="M163 591h-7v-591h-76v698h119l238 -585h7v585h76v-698h-119zM307 755l-52 24l85 170l73 -35z" />
    <glyph glyph-name="Ncaron" unicode="&#x147;" 
d="M163 591h-7v-591h-76v698h119l238 -585h7v585h76v-698h-119zM250 769l-111 143l45 31l117 -117l117 117l43 -31l-111 -143h-100z" />
    <glyph glyph-name="Ncommaaccent" unicode="&#x145;" 
d="M163 591h-7v-591h-76v698h119l238 -585h7v585h76v-698h-119zM248 -62h109l-76 -189h-61z" />
    <glyph glyph-name="Ntilde" unicode="&#xd1;" 
d="M163 591h-7v-591h-76v698h119l238 -585h7v585h76v-698h-119zM373 782q-26 0 -45 9t-35 17q-24 13 -40.5 18.5t-29.5 5.5q-17 0 -30 -7t-28 -20l-33 40q14 20 37 36.5t58 16.5q26 0 45 -9t35 -17q24 -13 40.5 -18.5t29.5 -5.5q17 0 30 7t28 20l33 -40q-14 -20 -37 -36.5
t-58 -16.5z" />
    <glyph glyph-name="Eng" unicode="&#x14a;" 
d="M80 0v698h119l238 -585h7v585h76v-780q0 -52 -27.5 -85t-86.5 -33h-249v68h287v132h-43l-238 591h-7v-591h-76z" />
    <glyph glyph-name="Oacute" unicode="&#xd3;" 
d="M300 -12q-64 0 -110 24.5t-76 70.5t-44 113t-14 153q0 85 14 152.5t44 113.5t76 70.5t110 24.5t110 -24.5t76 -70.5t44 -113.5t14 -152.5q0 -86 -14 -153t-44 -113t-76 -70.5t-110 -24.5zM300 61q42 0 71 16.5t48 46.5t27.5 72.5t8.5 95.5v114q0 52 -8.5 95t-27.5 73
t-48 46.5t-71 16.5t-71 -16.5t-48 -46.5t-27.5 -73t-8.5 -95v-114q0 -53 8.5 -95.5t27.5 -72.5t48 -46.5t71 -16.5zM307 755l-52 24l85 170l73 -35z" />
    <glyph glyph-name="Obreve" unicode="&#x14e;" 
d="M300 -12q-64 0 -110 24.5t-76 70.5t-44 113t-14 153q0 85 14 152.5t44 113.5t76 70.5t110 24.5t110 -24.5t76 -70.5t44 -113.5t14 -152.5q0 -86 -14 -153t-44 -113t-76 -70.5t-110 -24.5zM300 61q42 0 71 16.5t48 46.5t27.5 72.5t8.5 95.5v114q0 52 -8.5 95t-27.5 73
t-48 46.5t-71 16.5t-71 -16.5t-48 -46.5t-27.5 -73t-8.5 -95v-114q0 -53 8.5 -95.5t27.5 -72.5t48 -46.5t71 -16.5zM300 765q-40 0 -67.5 15t-46 37.5t-29.5 49t-18 49.5l51 22l21 -34q12 -19 21 -33t18.5 -23t21 -13.5t28.5 -4.5q16 0 28 4.5t21.5 13.5t18.5 23t21 33
l21 34l51 -22q-7 -23 -18 -49.5t-29.5 -49t-46 -37.5t-67.5 -15z" />
    <glyph glyph-name="Ocircumflex" unicode="&#xd4;" 
d="M300 -12q-64 0 -110 24.5t-76 70.5t-44 113t-14 153q0 85 14 152.5t44 113.5t76 70.5t110 24.5t110 -24.5t76 -70.5t44 -113.5t14 -152.5q0 -86 -14 -153t-44 -113t-76 -70.5t-110 -24.5zM300 61q42 0 71 16.5t48 46.5t27.5 72.5t8.5 95.5v114q0 52 -8.5 95t-27.5 73
t-48 46.5t-71 16.5t-71 -16.5t-48 -46.5t-27.5 -73t-8.5 -95v-114q0 -53 8.5 -95.5t27.5 -72.5t48 -46.5t71 -16.5zM350 935l111 -143l-45 -31l-117 117l-117 -117l-43 31l111 143h100z" />
    <glyph glyph-name="Odieresis" unicode="&#xd6;" 
d="M300 -12q-64 0 -110 24.5t-76 70.5t-44 113t-14 153q0 85 14 152.5t44 113.5t76 70.5t110 24.5t110 -24.5t76 -70.5t44 -113.5t14 -152.5q0 -86 -14 -153t-44 -113t-76 -70.5t-110 -24.5zM300 61q42 0 71 16.5t48 46.5t27.5 72.5t8.5 95.5v114q0 52 -8.5 95t-27.5 73
t-48 46.5t-71 16.5t-71 -16.5t-48 -46.5t-27.5 -73t-8.5 -95v-114q0 -53 8.5 -95.5t27.5 -72.5t48 -46.5t71 -16.5zM207 788q-31 0 -44 13t-13 33v14q0 20 13 33t44 13t44 -13t13 -33v-14q0 -20 -13 -33t-44 -13zM393 788q-31 0 -44 13t-13 33v14q0 20 13 33t44 13t44 -13
t13 -33v-14q0 -20 -13 -33t-44 -13z" />
    <glyph glyph-name="uni1ECC" unicode="&#x1ecc;" 
d="M300 -12q-64 0 -110 24.5t-76 70.5t-44 113t-14 153q0 85 14 152.5t44 113.5t76 70.5t110 24.5t110 -24.5t76 -70.5t44 -113.5t14 -152.5q0 -86 -14 -153t-44 -113t-76 -70.5t-110 -24.5zM300 61q42 0 71 16.5t48 46.5t27.5 72.5t8.5 95.5v114q0 52 -8.5 95t-27.5 73
t-48 46.5t-71 16.5t-71 -16.5t-48 -46.5t-27.5 -73t-8.5 -95v-114q0 -53 8.5 -95.5t27.5 -72.5t48 -46.5t71 -16.5zM300 -172q-31 0 -44 13t-13 33v14q0 20 13 33t44 13t44 -13t13 -33v-14q0 -20 -13 -33t-44 -13z" />
    <glyph glyph-name="Ograve" unicode="&#xd2;" 
d="M300 -12q-64 0 -110 24.5t-76 70.5t-44 113t-14 153q0 85 14 152.5t44 113.5t76 70.5t110 24.5t110 -24.5t76 -70.5t44 -113.5t14 -152.5q0 -86 -14 -153t-44 -113t-76 -70.5t-110 -24.5zM300 61q42 0 71 16.5t48 46.5t27.5 72.5t8.5 95.5v114q0 52 -8.5 95t-27.5 73
t-48 46.5t-71 16.5t-71 -16.5t-48 -46.5t-27.5 -73t-8.5 -95v-114q0 -53 8.5 -95.5t27.5 -72.5t48 -46.5t71 -16.5zM187 914l73 35l85 -170l-52 -24z" />
    <glyph glyph-name="uni1ECE" unicode="&#x1ece;" 
d="M300 -12q-64 0 -110 24.5t-76 70.5t-44 113t-14 153q0 85 14 152.5t44 113.5t76 70.5t110 24.5t110 -24.5t76 -70.5t44 -113.5t14 -152.5q0 -86 -14 -153t-44 -113t-76 -70.5t-110 -24.5zM300 61q42 0 71 16.5t48 46.5t27.5 72.5t8.5 95.5v114q0 52 -8.5 95t-27.5 73
t-48 46.5t-71 16.5t-71 -16.5t-48 -46.5t-27.5 -73t-8.5 -95v-114q0 -53 8.5 -95.5t27.5 -72.5t48 -46.5t71 -16.5zM216 935h109q38 0 54 -16t16 -39q0 -22 -13 -48t-36 -55l-24 -30l-46 23l58 104h-118v61z" />
    <glyph glyph-name="Ohungarumlaut" unicode="&#x150;" 
d="M300 -12q-64 0 -110 24.5t-76 70.5t-44 113t-14 153q0 85 14 152.5t44 113.5t76 70.5t110 24.5t110 -24.5t76 -70.5t44 -113.5t14 -152.5q0 -86 -14 -153t-44 -113t-76 -70.5t-110 -24.5zM300 61q42 0 71 16.5t48 46.5t27.5 72.5t8.5 95.5v114q0 52 -8.5 95t-27.5 73
t-48 46.5t-71 16.5t-71 -16.5t-48 -46.5t-27.5 -73t-8.5 -95v-114q0 -53 8.5 -95.5t27.5 -72.5t48 -46.5t71 -16.5zM227 756l-48 22l85 170l69 -33zM387 756l-48 22l85 170l69 -33z" />
    <glyph glyph-name="Omacron" unicode="&#x14c;" 
d="M300 -12q-64 0 -110 24.5t-76 70.5t-44 113t-14 153q0 85 14 152.5t44 113.5t76 70.5t110 24.5t110 -24.5t76 -70.5t44 -113.5t14 -152.5q0 -86 -14 -153t-44 -113t-76 -70.5t-110 -24.5zM300 61q42 0 71 16.5t48 46.5t27.5 72.5t8.5 95.5v114q0 52 -8.5 95t-27.5 73
t-48 46.5t-71 16.5t-71 -16.5t-48 -46.5t-27.5 -73t-8.5 -95v-114q0 -53 8.5 -95.5t27.5 -72.5t48 -46.5t71 -16.5zM160 875h280v-68h-280v68z" />
    <glyph glyph-name="Oslash" unicode="&#xd8;" 
d="M300 -12q-91 0 -146 48l-47 -80l-60 36l60 102q-26 46 -38.5 110t-12.5 145q0 85 14 152.5t44 113.5t76 70.5t110 24.5q90 0 146 -48l47 80l60 -36l-60 -102q26 -46 38.5 -110t12.5 -145q0 -86 -14 -153t-44 -113t-76 -70.5t-110 -24.5zM145 292q0 -34 3 -63.5t11 -54.5
l248 417q-19 22 -45.5 34t-61.5 12q-42 0 -71 -16.5t-48 -46.5t-27.5 -73t-8.5 -95v-114zM300 61q42 0 71 16.5t48 46.5t27.5 72.5t8.5 95.5v114q0 34 -3 63.5t-11 54.5l-248 -417q19 -22 45.5 -34t61.5 -12z" />
    <glyph glyph-name="Oslashacute" unicode="&#x1fe;" 
d="M300 -12q-91 0 -146 48l-47 -80l-60 36l60 102q-26 46 -38.5 110t-12.5 145q0 85 14 152.5t44 113.5t76 70.5t110 24.5q90 0 146 -48l47 80l60 -36l-60 -102q26 -46 38.5 -110t12.5 -145q0 -86 -14 -153t-44 -113t-76 -70.5t-110 -24.5zM145 292q0 -34 3 -63.5t11 -54.5
l248 417q-19 22 -45.5 34t-61.5 12q-42 0 -71 -16.5t-48 -46.5t-27.5 -73t-8.5 -95v-114zM300 61q42 0 71 16.5t48 46.5t27.5 72.5t8.5 95.5v114q0 34 -3 63.5t-11 54.5l-248 -417q19 -22 45.5 -34t61.5 -12zM307 755l-52 24l85 170l73 -35z" />
    <glyph glyph-name="Otilde" unicode="&#xd5;" 
d="M300 -12q-64 0 -110 24.5t-76 70.5t-44 113t-14 153q0 85 14 152.5t44 113.5t76 70.5t110 24.5t110 -24.5t76 -70.5t44 -113.5t14 -152.5q0 -86 -14 -153t-44 -113t-76 -70.5t-110 -24.5zM300 61q42 0 71 16.5t48 46.5t27.5 72.5t8.5 95.5v114q0 52 -8.5 95t-27.5 73
t-48 46.5t-71 16.5t-71 -16.5t-48 -46.5t-27.5 -73t-8.5 -95v-114q0 -53 8.5 -95.5t27.5 -72.5t48 -46.5t71 -16.5zM373 782q-26 0 -45 9t-35 17q-24 13 -40.5 18.5t-29.5 5.5q-17 0 -30 -7t-28 -20l-33 40q14 20 37 36.5t58 16.5q26 0 45 -9t35 -17q24 -13 40.5 -18.5
t29.5 -5.5q17 0 30 7t28 20l33 -40q-14 -20 -37 -36.5t-58 -16.5z" />
    <glyph glyph-name="Ohorn" unicode="&#x1a0;" 
d="M549 710q0 -26 -12.5 -44.5t-50.5 -18.5h-28q46 -44 66 -118.5t20 -179.5q0 -86 -14 -153t-44 -113t-76 -70.5t-110 -24.5t-110 24.5t-76 70.5t-44 113t-14 153q0 85 14 152.5t44 113.5t76 70.5t110 24.5q44 0 80 -12h98v112h71v-100zM300 61q42 0 71 16.5t48 46.5
t27.5 72.5t8.5 95.5v114q0 52 -8.5 95t-27.5 73t-48 46.5t-71 16.5t-71 -16.5t-48 -46.5t-27.5 -73t-8.5 -95v-114q0 -53 8.5 -95.5t27.5 -72.5t48 -46.5t71 -16.5z" />
    <glyph glyph-name="uni1EDA" unicode="&#x1eda;" 
d="M549 710q0 -26 -12.5 -44.5t-50.5 -18.5h-28q46 -44 66 -118.5t20 -179.5q0 -86 -14 -153t-44 -113t-76 -70.5t-110 -24.5t-110 24.5t-76 70.5t-44 113t-14 153q0 85 14 152.5t44 113.5t76 70.5t110 24.5q44 0 80 -12h98v112h71v-100zM300 61q42 0 71 16.5t48 46.5
t27.5 72.5t8.5 95.5v114q0 52 -8.5 95t-27.5 73t-48 46.5t-71 16.5t-71 -16.5t-48 -46.5t-27.5 -73t-8.5 -95v-114q0 -53 8.5 -95.5t27.5 -72.5t48 -46.5t71 -16.5zM307 755l-52 24l85 170l73 -35z" />
    <glyph glyph-name="uni1EE2" unicode="&#x1ee2;" 
d="M549 710q0 -26 -12.5 -44.5t-50.5 -18.5h-28q46 -44 66 -118.5t20 -179.5q0 -86 -14 -153t-44 -113t-76 -70.5t-110 -24.5t-110 24.5t-76 70.5t-44 113t-14 153q0 85 14 152.5t44 113.5t76 70.5t110 24.5q44 0 80 -12h98v112h71v-100zM300 61q42 0 71 16.5t48 46.5
t27.5 72.5t8.5 95.5v114q0 52 -8.5 95t-27.5 73t-48 46.5t-71 16.5t-71 -16.5t-48 -46.5t-27.5 -73t-8.5 -95v-114q0 -53 8.5 -95.5t27.5 -72.5t48 -46.5t71 -16.5zM300 -172q-31 0 -44 13t-13 33v14q0 20 13 33t44 13t44 -13t13 -33v-14q0 -20 -13 -33t-44 -13z" />
    <glyph glyph-name="uni1EDC" unicode="&#x1edc;" 
d="M549 710q0 -26 -12.5 -44.5t-50.5 -18.5h-28q46 -44 66 -118.5t20 -179.5q0 -86 -14 -153t-44 -113t-76 -70.5t-110 -24.5t-110 24.5t-76 70.5t-44 113t-14 153q0 85 14 152.5t44 113.5t76 70.5t110 24.5q44 0 80 -12h98v112h71v-100zM300 61q42 0 71 16.5t48 46.5
t27.5 72.5t8.5 95.5v114q0 52 -8.5 95t-27.5 73t-48 46.5t-71 16.5t-71 -16.5t-48 -46.5t-27.5 -73t-8.5 -95v-114q0 -53 8.5 -95.5t27.5 -72.5t48 -46.5t71 -16.5zM187 914l73 35l85 -170l-52 -24z" />
    <glyph glyph-name="uni1EDE" unicode="&#x1ede;" 
d="M549 710q0 -26 -12.5 -44.5t-50.5 -18.5h-28q46 -44 66 -118.5t20 -179.5q0 -86 -14 -153t-44 -113t-76 -70.5t-110 -24.5t-110 24.5t-76 70.5t-44 113t-14 153q0 85 14 152.5t44 113.5t76 70.5t110 24.5q44 0 80 -12h98v112h71v-100zM300 61q42 0 71 16.5t48 46.5
t27.5 72.5t8.5 95.5v114q0 52 -8.5 95t-27.5 73t-48 46.5t-71 16.5t-71 -16.5t-48 -46.5t-27.5 -73t-8.5 -95v-114q0 -53 8.5 -95.5t27.5 -72.5t48 -46.5t71 -16.5zM216 935h109q38 0 54 -16t16 -39q0 -22 -13 -48t-36 -55l-24 -30l-46 23l58 104h-118v61z" />
    <glyph glyph-name="uni1EE0" unicode="&#x1ee0;" 
d="M549 710q0 -26 -12.5 -44.5t-50.5 -18.5h-28q46 -44 66 -118.5t20 -179.5q0 -86 -14 -153t-44 -113t-76 -70.5t-110 -24.5t-110 24.5t-76 70.5t-44 113t-14 153q0 85 14 152.5t44 113.5t76 70.5t110 24.5q44 0 80 -12h98v112h71v-100zM300 61q42 0 71 16.5t48 46.5
t27.5 72.5t8.5 95.5v114q0 52 -8.5 95t-27.5 73t-48 46.5t-71 16.5t-71 -16.5t-48 -46.5t-27.5 -73t-8.5 -95v-114q0 -53 8.5 -95.5t27.5 -72.5t48 -46.5t71 -16.5zM363 786q-23 0 -39.5 7.5t-30.5 14.5q-19 10 -31 15t-26 5q-16 0 -29.5 -7t-27.5 -20l-33 40
q14 20 36.5 36.5t54.5 16.5q23 0 39.5 -7.5t30.5 -14.5q19 -10 31 -15t26 -5q16 0 29.5 7t27.5 20l33 -40q-14 -20 -36.5 -36.5t-54.5 -16.5z" />
    <glyph glyph-name="uni1ED0" unicode="&#x1ed0;" 
d="M300 -12q-64 0 -110 24.5t-76 70.5t-44 113t-14 153q0 85 14 152.5t44 113.5t76 70.5t110 24.5t110 -24.5t76 -70.5t44 -113.5t14 -152.5q0 -86 -14 -153t-44 -113t-76 -70.5t-110 -24.5zM300 61q42 0 71 16.5t48 46.5t27.5 72.5t8.5 95.5v114q0 52 -8.5 95t-27.5 73
t-48 46.5t-71 16.5t-71 -16.5t-48 -46.5t-27.5 -73t-8.5 -95v-114q0 -53 8.5 -95.5t27.5 -72.5t48 -46.5t71 -16.5zM454 882l-49 23l85 170l70 -34zM350 925l110 -144l-44 -30l-117 119l-117 -119l-42 30l110 144h100z" />
    <glyph glyph-name="uni1ED8" unicode="&#x1ed8;" 
d="M300 -12q-64 0 -110 24.5t-76 70.5t-44 113t-14 153q0 85 14 152.5t44 113.5t76 70.5t110 24.5t110 -24.5t76 -70.5t44 -113.5t14 -152.5q0 -86 -14 -153t-44 -113t-76 -70.5t-110 -24.5zM300 61q42 0 71 16.5t48 46.5t27.5 72.5t8.5 95.5v114q0 52 -8.5 95t-27.5 73
t-48 46.5t-71 16.5t-71 -16.5t-48 -46.5t-27.5 -73t-8.5 -95v-114q0 -53 8.5 -95.5t27.5 -72.5t48 -46.5t71 -16.5zM350 935l111 -143l-45 -31l-117 117l-117 -117l-43 31l111 143h100zM300 -172q-31 0 -44 13t-13 33v14q0 20 13 33t44 13t44 -13t13 -33v-14q0 -20 -13 -33
t-44 -13z" />
    <glyph glyph-name="uni1ED2" unicode="&#x1ed2;" 
d="M300 -12q-64 0 -110 24.5t-76 70.5t-44 113t-14 153q0 85 14 152.5t44 113.5t76 70.5t110 24.5t110 -24.5t76 -70.5t44 -113.5t14 -152.5q0 -86 -14 -153t-44 -113t-76 -70.5t-110 -24.5zM300 61q42 0 71 16.5t48 46.5t27.5 72.5t8.5 95.5v114q0 52 -8.5 95t-27.5 73
t-48 46.5t-71 16.5t-71 -16.5t-48 -46.5t-27.5 -73t-8.5 -95v-114q0 -53 8.5 -95.5t27.5 -72.5t48 -46.5t71 -16.5zM40 1041l70 34l85 -170l-49 -23zM350 925l110 -144l-44 -30l-117 119l-117 -119l-42 30l110 144h100z" />
    <glyph glyph-name="uni1ED4" unicode="&#x1ed4;" 
d="M300 -12q-64 0 -110 24.5t-76 70.5t-44 113t-14 153q0 85 14 152.5t44 113.5t76 70.5t110 24.5t110 -24.5t76 -70.5t44 -113.5t14 -152.5q0 -86 -14 -153t-44 -113t-76 -70.5t-110 -24.5zM300 61q42 0 71 16.5t48 46.5t27.5 72.5t8.5 95.5v114q0 52 -8.5 95t-27.5 73
t-48 46.5t-71 16.5t-71 -16.5t-48 -46.5t-27.5 -73t-8.5 -95v-114q0 -53 8.5 -95.5t27.5 -72.5t48 -46.5t71 -16.5zM353 1064h109q38 0 54 -16t16 -39q0 -22 -13 -48t-36 -55l-24 -30l-46 23l58 104h-118v61zM350 925l110 -144l-44 -30l-117 119l-117 -119l-42 30l110 144
h100z" />
    <glyph glyph-name="uni1ED6" unicode="&#x1ed6;" 
d="M300 -12q-64 0 -110 24.5t-76 70.5t-44 113t-14 153q0 85 14 152.5t44 113.5t76 70.5t110 24.5t110 -24.5t76 -70.5t44 -113.5t14 -152.5q0 -86 -14 -153t-44 -113t-76 -70.5t-110 -24.5zM300 61q42 0 71 16.5t48 46.5t27.5 72.5t8.5 95.5v114q0 52 -8.5 95t-27.5 73
t-48 46.5t-71 16.5t-71 -16.5t-48 -46.5t-27.5 -73t-8.5 -95v-114q0 -53 8.5 -95.5t27.5 -72.5t48 -46.5t71 -16.5zM228 1062q26 0 45 -9t35 -17q24 -13 40.5 -18.5t29.5 -5.5q17 0 30 7t28 20l31 -36q-14 -20 -37 -36.5t-58 -16.5q-26 0 -45 9t-35 17q-24 13 -40.5 18.5
t-29.5 5.5q-17 0 -30 -7t-28 -20l-31 36q14 20 37 36.5t58 16.5zM350 915l110 -134l-44 -30l-117 111l-117 -111l-42 30l110 134h100z" />
    <glyph glyph-name="OE" unicode="&#x152;" 
d="M289 0q-128 0 -190 88t-62 261t62 261t190 88h271v-69h-168v-241h156v-69h-156v-250h168v-69h-271zM312 69v560h-19q-85 0 -128 -59t-43 -167v-108q0 -108 43 -167t128 -59h19z" />
    <glyph glyph-name="Racute" unicode="&#x154;" 
d="M174 0h-84v698h254q97 0 148 -53t51 -148q0 -85 -44 -136t-128 -59l178 -302h-94l-170 298h-111v-298zM342 369q53 0 82.5 26.5t29.5 75.5v52q0 49 -29.5 75.5t-82.5 26.5h-168v-256h168zM315 755l-52 24l85 170l73 -35z" />
    <glyph glyph-name="Rcaron" unicode="&#x158;" 
d="M174 0h-84v698h254q97 0 148 -53t51 -148q0 -85 -44 -136t-128 -59l178 -302h-94l-170 298h-111v-298zM342 369q53 0 82.5 26.5t29.5 75.5v52q0 49 -29.5 75.5t-82.5 26.5h-168v-256h168zM258 769l-111 143l45 31l117 -117l117 117l43 -31l-111 -143h-100z" />
    <glyph glyph-name="Rcommaaccent" unicode="&#x156;" 
d="M174 0h-84v698h254q97 0 148 -53t51 -148q0 -85 -44 -136t-128 -59l178 -302h-94l-170 298h-111v-298zM342 369q53 0 82.5 26.5t29.5 75.5v52q0 49 -29.5 75.5t-82.5 26.5h-168v-256h168zM256 -62h109l-76 -189h-61z" />
    <glyph glyph-name="Sacute" unicode="&#x15a;" 
d="M298 -12q-94 0 -154 34.5t-99 88.5l61 50q41 -51 86.5 -76t108.5 -25q76 0 116 35t40 98q0 51 -29 79.5t-101 40.5l-78 13q-51 9 -85.5 27t-55.5 43.5t-30 56t-9 63.5q0 96 63 145t170 49q84 0 141.5 -28t92.5 -79l-59 -51q-29 38 -70 62t-106 24q-71 0 -109 -30t-38 -90
q0 -47 28.5 -76.5t102.5 -42.5l75 -13q51 -9 86 -27t56.5 -43t30.5 -56t9 -65q0 -97 -63.5 -152t-180.5 -55zM306 755l-52 24l85 170l73 -35z" />
    <glyph glyph-name="Scaron" unicode="&#x160;" 
d="M298 -12q-94 0 -154 34.5t-99 88.5l61 50q41 -51 86.5 -76t108.5 -25q76 0 116 35t40 98q0 51 -29 79.5t-101 40.5l-78 13q-51 9 -85.5 27t-55.5 43.5t-30 56t-9 63.5q0 96 63 145t170 49q84 0 141.5 -28t92.5 -79l-59 -51q-29 38 -70 62t-106 24q-71 0 -109 -30t-38 -90
q0 -47 28.5 -76.5t102.5 -42.5l75 -13q51 -9 86 -27t56.5 -43t30.5 -56t9 -65q0 -97 -63.5 -152t-180.5 -55zM249 769l-111 143l45 31l117 -117l117 117l43 -31l-111 -143h-100z" />
    <glyph glyph-name="Scedilla" unicode="&#x15e;" 
d="M309 -207q-41 0 -64.5 13.5t-34.5 27.5l38 41q9 -11 24 -19.5t37 -8.5q19 0 31.5 7.5t12.5 23.5q0 14 -13 24.5t-55 16.5l-28 4l13 66q-82 5 -135.5 38t-89.5 84l61 50q41 -51 86.5 -76t108.5 -25q76 0 116 35t40 98q0 51 -29 79.5t-101 40.5l-78 13q-51 9 -85.5 27
t-55.5 43.5t-30 56t-9 63.5q0 96 63 145t170 49q84 0 141.5 -28t92.5 -79l-59 -51q-29 38 -70 62t-106 24q-71 0 -109 -30t-38 -90q0 -47 28.5 -76.5t102.5 -42.5l75 -13q51 -9 86 -27t56.5 -43t30.5 -56t9 -65q0 -93 -58 -147t-164 -59l-10 -50l3 -3q19 6 39 6
q29 0 48.5 -17t19.5 -49q0 -21 -9 -37t-24.5 -26t-35.5 -15t-42 -5z" />
    <glyph glyph-name="Scircumflex" unicode="&#x15c;" 
d="M298 -12q-94 0 -154 34.5t-99 88.5l61 50q41 -51 86.5 -76t108.5 -25q76 0 116 35t40 98q0 51 -29 79.5t-101 40.5l-78 13q-51 9 -85.5 27t-55.5 43.5t-30 56t-9 63.5q0 96 63 145t170 49q84 0 141.5 -28t92.5 -79l-59 -51q-29 38 -70 62t-106 24q-71 0 -109 -30t-38 -90
q0 -47 28.5 -76.5t102.5 -42.5l75 -13q51 -9 86 -27t56.5 -43t30.5 -56t9 -65q0 -97 -63.5 -152t-180.5 -55zM349 935l111 -143l-45 -31l-117 117l-117 -117l-43 31l111 143h100z" />
    <glyph glyph-name="Scommaaccent" unicode="&#x218;" 
d="M298 -12q-94 0 -154 34.5t-99 88.5l61 50q41 -51 86.5 -76t108.5 -25q76 0 116 35t40 98q0 51 -29 79.5t-101 40.5l-78 13q-51 9 -85.5 27t-55.5 43.5t-30 56t-9 63.5q0 96 63 145t170 49q84 0 141.5 -28t92.5 -79l-59 -51q-29 38 -70 62t-106 24q-71 0 -109 -30t-38 -90
q0 -47 28.5 -76.5t102.5 -42.5l75 -13q51 -9 86 -27t56.5 -43t30.5 -56t9 -65q0 -97 -63.5 -152t-180.5 -55zM245 -62h109l-76 -189h-61z" />
    <glyph glyph-name="uni1E9E" unicode="&#x1e9e;" 
d="M63 698h473v-82l-169 -211v-4q100 -2 156.5 -54.5t56.5 -151.5q0 -98 -56.5 -152.5t-153.5 -54.5q-57 0 -103 20.5t-78 64.5l58 49q23 -31 55.5 -47.5t70.5 -16.5q54 0 86 32t32 87v36q0 55 -32 87t-87 32h-94v77l173 216h-304v-625h-84v698z" />
    <glyph glyph-name="Tbar" unicode="&#x166;" 
d="M342 336v-336h-84v336h-173v64h173v225h-233v73h550v-73h-233v-225h173v-64h-173z" />
    <glyph glyph-name="Tcaron" unicode="&#x164;" 
d="M342 625v-625h-84v625h-233v73h550v-73h-233zM250 769l-111 143l45 31l117 -117l117 117l43 -31l-111 -143h-100z" />
    <glyph glyph-name="Tcommaaccent" unicode="&#x162;" 
d="M342 625v-625h-84v625h-233v73h550v-73h-233zM248 -62h109l-76 -189h-61z" />
    <glyph glyph-name="uni021A" unicode="&#x21a;" 
d="M342 625v-625h-84v625h-233v73h550v-73h-233zM248 -62h109l-76 -189h-61z" />
    <glyph glyph-name="Thorn" unicode="&#xde;" 
d="M90 0v698h84v-145h170q97 0 148 -53.5t51 -145.5t-51 -145.5t-148 -53.5h-170v-155h-84zM174 228h170q53 0 82.5 26t29.5 74v52q0 48 -29.5 74t-82.5 26h-170v-252z" />
    <glyph glyph-name="Uacute" unicode="&#xda;" 
d="M164 698v-419q0 -51 3 -91t16 -68.5t40.5 -43.5t76.5 -15t76.5 15t40.5 43.5t16 68.5t3 91v419h84v-399q0 -78 -7.5 -136t-31 -97t-67 -58.5t-114.5 -19.5t-114.5 19.5t-67 58.5t-31 97t-7.5 136v399h84zM307 755l-52 24l85 170l73 -35z" />
    <glyph glyph-name="Ubreve" unicode="&#x16c;" 
d="M164 698v-419q0 -51 3 -91t16 -68.5t40.5 -43.5t76.5 -15t76.5 15t40.5 43.5t16 68.5t3 91v419h84v-399q0 -78 -7.5 -136t-31 -97t-67 -58.5t-114.5 -19.5t-114.5 19.5t-67 58.5t-31 97t-7.5 136v399h84zM300 765q-40 0 -67.5 15t-46 37.5t-29.5 49t-18 49.5l51 22
l21 -34q12 -19 21 -33t18.5 -23t21 -13.5t28.5 -4.5q16 0 28 4.5t21.5 13.5t18.5 23t21 33l21 34l51 -22q-7 -23 -18 -49.5t-29.5 -49t-46 -37.5t-67.5 -15z" />
    <glyph glyph-name="Ucircumflex" unicode="&#xdb;" 
d="M164 698v-419q0 -51 3 -91t16 -68.5t40.5 -43.5t76.5 -15t76.5 15t40.5 43.5t16 68.5t3 91v419h84v-399q0 -78 -7.5 -136t-31 -97t-67 -58.5t-114.5 -19.5t-114.5 19.5t-67 58.5t-31 97t-7.5 136v399h84zM350 935l111 -143l-45 -31l-117 117l-117 -117l-43 31l111 143
h100z" />
    <glyph glyph-name="Udieresis" unicode="&#xdc;" 
d="M164 698v-419q0 -51 3 -91t16 -68.5t40.5 -43.5t76.5 -15t76.5 15t40.5 43.5t16 68.5t3 91v419h84v-399q0 -78 -7.5 -136t-31 -97t-67 -58.5t-114.5 -19.5t-114.5 19.5t-67 58.5t-31 97t-7.5 136v399h84zM207 788q-31 0 -44 13t-13 33v14q0 20 13 33t44 13t44 -13t13 -33
v-14q0 -20 -13 -33t-44 -13zM393 788q-31 0 -44 13t-13 33v14q0 20 13 33t44 13t44 -13t13 -33v-14q0 -20 -13 -33t-44 -13z" />
    <glyph glyph-name="uni1EE4" unicode="&#x1ee4;" 
d="M164 698v-419q0 -51 3 -91t16 -68.5t40.5 -43.5t76.5 -15t76.5 15t40.5 43.5t16 68.5t3 91v419h84v-399q0 -78 -7.5 -136t-31 -97t-67 -58.5t-114.5 -19.5t-114.5 19.5t-67 58.5t-31 97t-7.5 136v399h84zM300 -172q-31 0 -44 13t-13 33v14q0 20 13 33t44 13t44 -13
t13 -33v-14q0 -20 -13 -33t-44 -13z" />
    <glyph glyph-name="Ugrave" unicode="&#xd9;" 
d="M164 698v-419q0 -51 3 -91t16 -68.5t40.5 -43.5t76.5 -15t76.5 15t40.5 43.5t16 68.5t3 91v419h84v-399q0 -78 -7.5 -136t-31 -97t-67 -58.5t-114.5 -19.5t-114.5 19.5t-67 58.5t-31 97t-7.5 136v399h84zM187 914l73 35l85 -170l-52 -24z" />
    <glyph glyph-name="uni1EE6" unicode="&#x1ee6;" 
d="M164 698v-419q0 -51 3 -91t16 -68.5t40.5 -43.5t76.5 -15t76.5 15t40.5 43.5t16 68.5t3 91v419h84v-399q0 -78 -7.5 -136t-31 -97t-67 -58.5t-114.5 -19.5t-114.5 19.5t-67 58.5t-31 97t-7.5 136v399h84zM216 935h109q38 0 54 -16t16 -39q0 -22 -13 -48t-36 -55l-24 -30
l-46 23l58 104h-118v61z" />
    <glyph glyph-name="Uhungarumlaut" unicode="&#x170;" 
d="M164 698v-419q0 -51 3 -91t16 -68.5t40.5 -43.5t76.5 -15t76.5 15t40.5 43.5t16 68.5t3 91v419h84v-399q0 -78 -7.5 -136t-31 -97t-67 -58.5t-114.5 -19.5t-114.5 19.5t-67 58.5t-31 97t-7.5 136v399h84zM227 756l-48 22l85 170l69 -33zM387 756l-48 22l85 170l69 -33z
" />
    <glyph glyph-name="Umacron" unicode="&#x16a;" 
d="M164 698v-419q0 -51 3 -91t16 -68.5t40.5 -43.5t76.5 -15t76.5 15t40.5 43.5t16 68.5t3 91v419h84v-399q0 -78 -7.5 -136t-31 -97t-67 -58.5t-114.5 -19.5t-114.5 19.5t-67 58.5t-31 97t-7.5 136v399h84zM160 875h280v-68h-280v68z" />
    <glyph glyph-name="Uogonek" unicode="&#x172;" 
d="M164 698v-419q0 -51 3 -91t16 -68.5t40.5 -43.5t76.5 -15t76.5 15t40.5 43.5t16 68.5t3 91v419h84v-399q0 -57 -3 -101t-14 -79t-32.5 -63.5t-57.5 -55.5q-17 -12 -36.5 -25.5t-36.5 -28t-28.5 -30.5t-11.5 -32q0 -18 12.5 -26.5t29.5 -8.5q31 0 52 26l40 -41
q-10 -17 -32.5 -29t-60.5 -12q-46 0 -77.5 20.5t-31.5 58.5q0 35 29 63t86 54l-2 4q-12 -3 -24 -4t-26 -1q-69 0 -111.5 20t-65.5 59t-30.5 97t-7.5 135v399h84z" />
    <glyph glyph-name="Uring" unicode="&#x16e;" 
d="M164 698v-419q0 -51 3 -91t16 -68.5t40.5 -43.5t76.5 -15t76.5 15t40.5 43.5t16 68.5t3 91v419h84v-399q0 -78 -7.5 -136t-31 -97t-67 -58.5t-114.5 -19.5t-114.5 19.5t-67 58.5t-31 97t-7.5 136v399h84zM300 746q-24 0 -45.5 8.5t-37 24t-24.5 36.5t-9 46t9 46
t24.5 36.5t37 24t45.5 8.5t45.5 -8.5t37 -24t24.5 -36.5t9 -46t-9 -46t-24.5 -36.5t-37 -24t-45.5 -8.5zM300 795q27 0 42.5 14.5t15.5 40.5v22q0 26 -15.5 40.5t-42.5 14.5t-42.5 -14.5t-15.5 -40.5v-22q0 -26 15.5 -40.5t42.5 -14.5z" />
    <glyph glyph-name="Utilde" unicode="&#x168;" 
d="M164 698v-419q0 -51 3 -91t16 -68.5t40.5 -43.5t76.5 -15t76.5 15t40.5 43.5t16 68.5t3 91v419h84v-399q0 -78 -7.5 -136t-31 -97t-67 -58.5t-114.5 -19.5t-114.5 19.5t-67 58.5t-31 97t-7.5 136v399h84zM373 782q-26 0 -45 9t-35 17q-24 13 -40.5 18.5t-29.5 5.5
q-17 0 -30 -7t-28 -20l-33 40q14 20 37 36.5t58 16.5q26 0 45 -9t35 -17q24 -13 40.5 -18.5t29.5 -5.5q17 0 30 7t28 20l33 -40q-14 -20 -37 -36.5t-58 -16.5z" />
    <glyph glyph-name="Uhorn" unicode="&#x1af;" 
d="M164 698v-419q0 -51 3 -91t16 -68.5t40.5 -43.5t76.5 -15t76.5 15t40.5 43.5t16 68.5t3 91v419h93v112h71v-102q0 -26 -12.5 -44.5t-50.5 -18.5h-17v-346q0 -78 -7.5 -136t-31 -97t-67 -58.5t-114.5 -19.5t-114.5 19.5t-67 58.5t-31 97t-7.5 136v399h84z" />
    <glyph glyph-name="uni1EE8" unicode="&#x1ee8;" 
d="M164 698v-419q0 -51 3 -91t16 -68.5t40.5 -43.5t76.5 -15t76.5 15t40.5 43.5t16 68.5t3 91v419h93v112h71v-102q0 -26 -12.5 -44.5t-50.5 -18.5h-17v-346q0 -78 -7.5 -136t-31 -97t-67 -58.5t-114.5 -19.5t-114.5 19.5t-67 58.5t-31 97t-7.5 136v399h84zM307 755l-52 24
l85 170l73 -35z" />
    <glyph glyph-name="uni1EF0" unicode="&#x1ef0;" 
d="M164 698v-419q0 -51 3 -91t16 -68.5t40.5 -43.5t76.5 -15t76.5 15t40.5 43.5t16 68.5t3 91v419h93v112h71v-102q0 -26 -12.5 -44.5t-50.5 -18.5h-17v-346q0 -78 -7.5 -136t-31 -97t-67 -58.5t-114.5 -19.5t-114.5 19.5t-67 58.5t-31 97t-7.5 136v399h84zM300 -172
q-31 0 -44 13t-13 33v14q0 20 13 33t44 13t44 -13t13 -33v-14q0 -20 -13 -33t-44 -13z" />
    <glyph glyph-name="uni1EEA" unicode="&#x1eea;" 
d="M164 698v-419q0 -51 3 -91t16 -68.5t40.5 -43.5t76.5 -15t76.5 15t40.5 43.5t16 68.5t3 91v419h93v112h71v-102q0 -26 -12.5 -44.5t-50.5 -18.5h-17v-346q0 -78 -7.5 -136t-31 -97t-67 -58.5t-114.5 -19.5t-114.5 19.5t-67 58.5t-31 97t-7.5 136v399h84zM187 914l73 35
l85 -170l-52 -24z" />
    <glyph glyph-name="uni1EEC" unicode="&#x1eec;" 
d="M164 698v-419q0 -51 3 -91t16 -68.5t40.5 -43.5t76.5 -15t76.5 15t40.5 43.5t16 68.5t3 91v419h93v112h71v-102q0 -26 -12.5 -44.5t-50.5 -18.5h-17v-346q0 -78 -7.5 -136t-31 -97t-67 -58.5t-114.5 -19.5t-114.5 19.5t-67 58.5t-31 97t-7.5 136v399h84zM216 935h109
q38 0 54 -16t16 -39q0 -22 -13 -48t-36 -55l-24 -30l-46 23l58 104h-118v61z" />
    <glyph glyph-name="uni1EEE" unicode="&#x1eee;" 
d="M164 698v-419q0 -51 3 -91t16 -68.5t40.5 -43.5t76.5 -15t76.5 15t40.5 43.5t16 68.5t3 91v419h93v112h71v-102q0 -26 -12.5 -44.5t-50.5 -18.5h-17v-346q0 -78 -7.5 -136t-31 -97t-67 -58.5t-114.5 -19.5t-114.5 19.5t-67 58.5t-31 97t-7.5 136v399h84zM363 786
q-23 0 -39.5 7.5t-30.5 14.5q-19 10 -31 15t-26 5q-16 0 -29.5 -7t-27.5 -20l-33 40q14 20 36.5 36.5t54.5 16.5q23 0 39.5 -7.5t30.5 -14.5q19 -10 31 -15t26 -5q16 0 29.5 7t27.5 20l33 -40q-14 -20 -36.5 -36.5t-54.5 -16.5z" />
    <glyph glyph-name="Wacute" unicode="&#x1e82;" 
d="M90 0l-55 698h75l29 -400l15 -211h8l92 429h94l92 -429h8l15 211l29 400h73l-55 -698h-121l-85 417h-8l-85 -417h-121zM307 755l-52 24l85 170l73 -35z" />
    <glyph glyph-name="Wcircumflex" unicode="&#x174;" 
d="M90 0l-55 698h75l29 -400l15 -211h8l92 429h94l92 -429h8l15 211l29 400h73l-55 -698h-121l-85 417h-8l-85 -417h-121zM350 935l111 -143l-45 -31l-117 117l-117 -117l-43 31l111 143h100z" />
    <glyph glyph-name="Wdieresis" unicode="&#x1e84;" 
d="M90 0l-55 698h75l29 -400l15 -211h8l92 429h94l92 -429h8l15 211l29 400h73l-55 -698h-121l-85 417h-8l-85 -417h-121zM207 788q-31 0 -44 13t-13 33v14q0 20 13 33t44 13t44 -13t13 -33v-14q0 -20 -13 -33t-44 -13zM393 788q-31 0 -44 13t-13 33v14q0 20 13 33t44 13
t44 -13t13 -33v-14q0 -20 -13 -33t-44 -13z" />
    <glyph glyph-name="Wgrave" unicode="&#x1e80;" 
d="M90 0l-55 698h75l29 -400l15 -211h8l92 429h94l92 -429h8l15 211l29 400h73l-55 -698h-121l-85 417h-8l-85 -417h-121zM187 914l73 35l85 -170l-52 -24z" />
    <glyph glyph-name="Yacute" unicode="&#xdd;" 
d="M258 0v274l-241 424h96l100 -182l85 -159h4l87 159l100 182h94l-241 -424v-274h-84zM307 755l-52 24l85 170l73 -35z" />
    <glyph glyph-name="Ycircumflex" unicode="&#x176;" 
d="M258 0v274l-241 424h96l100 -182l85 -159h4l87 159l100 182h94l-241 -424v-274h-84zM350 935l111 -143l-45 -31l-117 117l-117 -117l-43 31l111 143h100z" />
    <glyph glyph-name="uni1EF4" unicode="&#x1ef4;" 
d="M258 0v274l-241 424h96l100 -182l85 -159h4l87 159l100 182h94l-241 -424v-274h-84zM300 -172q-31 0 -44 13t-13 33v14q0 20 13 33t44 13t44 -13t13 -33v-14q0 -20 -13 -33t-44 -13z" />
    <glyph glyph-name="Ydieresis" unicode="&#x178;" 
d="M258 0v274l-241 424h96l100 -182l85 -159h4l87 159l100 182h94l-241 -424v-274h-84zM207 788q-31 0 -44 13t-13 33v14q0 20 13 33t44 13t44 -13t13 -33v-14q0 -20 -13 -33t-44 -13zM393 788q-31 0 -44 13t-13 33v14q0 20 13 33t44 13t44 -13t13 -33v-14q0 -20 -13 -33
t-44 -13z" />
    <glyph glyph-name="Ygrave" unicode="&#x1ef2;" 
d="M258 0v274l-241 424h96l100 -182l85 -159h4l87 159l100 182h94l-241 -424v-274h-84zM187 914l73 35l85 -170l-52 -24z" />
    <glyph glyph-name="uni1EF6" unicode="&#x1ef6;" 
d="M258 0v274l-241 424h96l100 -182l85 -159h4l87 159l100 182h94l-241 -424v-274h-84zM216 935h109q38 0 54 -16t16 -39q0 -22 -13 -48t-36 -55l-24 -30l-46 23l58 104h-118v61z" />
    <glyph glyph-name="uni1EF8" unicode="&#x1ef8;" 
d="M258 0v274l-241 424h96l100 -182l85 -159h4l87 159l100 182h94l-241 -424v-274h-84zM373 782q-26 0 -45 9t-35 17q-24 13 -40.5 18.5t-29.5 5.5q-17 0 -30 -7t-28 -20l-33 40q14 20 37 36.5t58 16.5q26 0 45 -9t35 -17q24 -13 40.5 -18.5t29.5 -5.5q17 0 30 7t28 20
l33 -40q-14 -20 -37 -36.5t-58 -16.5z" />
    <glyph glyph-name="Zacute" unicode="&#x179;" 
d="M552 0h-504v75l395 550h-378v73h470v-75l-396 -550h413v-73zM307 755l-52 24l85 170l73 -35z" />
    <glyph glyph-name="Zcaron" unicode="&#x17d;" 
d="M552 0h-504v75l395 550h-378v73h470v-75l-396 -550h413v-73zM250 769l-111 143l45 31l117 -117l117 117l43 -31l-111 -143h-100z" />
    <glyph glyph-name="Zdotaccent" unicode="&#x17b;" 
d="M552 0h-504v75l395 550h-378v73h470v-75l-396 -550h413v-73zM300 782q-35 0 -49 14.5t-14 36.5v16q0 22 14 36.5t49 14.5t49 -14.5t14 -36.5v-16q0 -22 -14 -36.5t-49 -14.5z" />
    <glyph glyph-name="mu" unicode="&#xb5;" 
d="M98 -200v716h80v-317q0 -140 119 -140q24 0 46.5 6t40 18t28 30.5t10.5 44.5v358h80v-516h-80v84h-4q-9 -20 -20.5 -37.5t-28 -30.5t-39 -20.5t-52.5 -7.5q-75 0 -103 52h-4l7 -84v-156h-80z" />
    <glyph glyph-name="Delta" unicode="&#x2206;" 
d="M46 75l199 623h111l198 -623v-75h-508v75zM304 610h-9l-164 -537h336z" />
    <glyph glyph-name="product" unicode="&#x220f;" 
d="M78 698h444v-698h-84v625h-276v-625h-84v698z" />
    <glyph glyph-name="summation" unicode="&#x2211;" 
d="M531 -200h-468v75l267 372v4l-267 372v75h468v-73h-378l251 -349v-54l-251 -349h378v-73z" />
    <glyph glyph-name="Omega" unicode="&#x2126;" 
d="M54 68h137v10q-65 38 -96 120.5t-31 194.5q0 74 13.5 132.5t42 99.5t73.5 63t107 22t107 -22t73.5 -63t42 -99.5t13.5 -132.5q0 -112 -31 -194.5t-96 -120.5v-10h137v-68h-208v104q24 9 44.5 31t34.5 53t22 68t8 75v107q0 95 -33.5 147.5t-113.5 52.5q-79 0 -113 -52.5
t-34 -147.5v-107q0 -38 8 -75t22 -68t34.5 -53t44.5 -31v-104h-208v68z" />
    <glyph glyph-name="pi" unicode="&#x3c0;" 
d="M112 448h-92v68h545v-68h-92v-380h92v-68h-58q-59 0 -86.5 33t-27.5 85v330h-201v-448h-80v448z" />
    <glyph glyph-name="uni0430" unicode="&#x430;" 
d="M495 0q-47 0 -67 24t-25 60h-5q-17 -45 -54.5 -70.5t-100.5 -25.5q-81 0 -129 42t-48 115q0 72 52.5 111t169.5 39h110v51q0 57 -32 85.5t-91 28.5q-52 0 -85 -20.5t-53 -55.5l-54 40q10 20 27 39t42 33.5t57 23t71 8.5q91 0 144.5 -46t53.5 -128v-284h72v-70h-55z
M257 55q31 0 56.5 7.5t44.5 20t29.5 30t10.5 37.5v85h-110q-72 0 -105 -20t-33 -58v-21q0 -40 28.5 -60.5t78.5 -20.5z" />
    <glyph glyph-name="uni0430.alt01" 
d="M425 84h-4q-50 -96 -159 -96q-95 0 -148.5 71t-53.5 199t53.5 199t148.5 71q109 0 159 -96h4v84h80v-516h-80v84zM293 59q27 0 51 7t42 20.5t28.5 33t10.5 45.5v186q0 26 -10.5 45.5t-28.5 33t-42 20.5t-51 7q-70 0 -108.5 -42.5t-38.5 -112.5v-88q0 -70 38.5 -112.5
t108.5 -42.5z" />
    <glyph glyph-name="uni0431" unicode="&#x431;" 
d="M301 -12q-52 0 -94.5 19t-73 58t-47.5 98.5t-17 141.5q0 114 15.5 194t48 132t83 77t120.5 30l158 10v-79l-166 -11q-43 -3 -73.5 -16t-51 -41.5t-32.5 -74.5t-18 -115h5q21 50 59 77.5t95 27.5q49 0 90 -18t70 -51.5t45.5 -83t16.5 -112.5q0 -59 -17 -107t-48 -83
t-73.5 -54t-94.5 -19zM301 57q65 0 106.5 40.5t41.5 118.5v63q0 84 -40.5 126t-105.5 42q-76 0 -112.5 -36.5t-36.5 -93.5v-101q0 -78 40.5 -118.5t106.5 -40.5z" />
    <glyph glyph-name="uni0432" unicode="&#x432;" 
d="M107 516h263q63 0 99 -35.5t36 -95.5q0 -97 -101 -109v-4q60 -5 89.5 -37.5t29.5 -80.5q0 -31 -10 -59t-29 -49t-47 -33.5t-64 -12.5h-266v516zM353 64q41 0 63 20t22 55v23q0 35 -21.5 54.5t-57.5 19.5h-172v-172h166zM349 299q33 0 52 17t19 48v22q0 31 -19 48.5
t-52 17.5h-162v-153h162z" />
    <glyph glyph-name="uni0433" unicode="&#x433;" 
d="M135 516h370v-68h-290v-448h-80v516z" />
    <glyph glyph-name="uni0434" unicode="&#x434;" 
d="M22 68h58q32 51 50.5 120.5t18.5 163.5v164h333v-448h85v-208h-73v140h-399v-140h-73v208zM402 68v380h-175v-100q0 -93 -15 -159.5t-45 -120.5h235z" />
    <glyph glyph-name="uni0435" unicode="&#x435;" 
d="M309 -12q-56 0 -100.5 19t-76 54.5t-48.5 85t-17 110.5q0 62 17.5 112t48.5 85.5t74.5 54.5t96.5 19q52 0 94.5 -19t72.5 -52.5t46 -79.5t16 -101v-38h-382v-24q0 -34 11 -63t31.5 -50t50 -32.5t65.5 -11.5q52 0 90 24t58 66l59 -40q-23 -52 -76.5 -85.5t-130.5 -33.5z
M304 462q-33 0 -61 -12t-48.5 -33t-32 -49.5t-11.5 -62.5v-7h296v11q0 34 -10.5 62t-29 48.5t-45 31.5t-58.5 11z" />
    <glyph glyph-name="uni0436" unicode="&#x436;" 
d="M263 233h-88l-65 -233h-80l57 203q16 55 56 61v4q-38 9 -52 59l-55 189h76l63 -217h88v217h74v-217h88l64 217h75l-56 -189q-8 -26 -19.5 -40t-31.5 -19v-4q43 -6 57 -61l56 -203h-81l-64 233h-88v-233h-74v233z" />
    <glyph glyph-name="uni0437" unicode="&#x437;" 
d="M279 -12q-80 0 -132.5 26t-85.5 74l59 48q24 -38 63 -58.5t96 -20.5q72 0 104 23t32 59v14q0 39 -25.5 59.5t-73.5 20.5h-139v67h129q98 0 98 73v12q0 33 -27.5 53.5t-95.5 20.5q-60 0 -96.5 -20t-59.5 -56l-56 38q35 51 85 79t131 28q103 0 153.5 -37t50.5 -102
q0 -48 -25 -76t-70 -39v-4q52 -8 79 -39.5t27 -80.5q0 -75 -57.5 -118.5t-163.5 -43.5z" />
    <glyph glyph-name="uni0438" unicode="&#x438;" 
d="M95 516h80v-263l-8 -132h4l259 395h75v-516h-80v263l8 132h-4l-259 -395h-75v516z" />
    <glyph glyph-name="uni0439" unicode="&#x439;" 
d="M95 516h80v-263l-8 -132h4l259 395h75v-516h-80v263l8 132h-4l-259 -395h-75v516zM297 595q-51 0 -83 22.5t-56 70.5l-28 57l72 23l40 -106q11 -4 27 -5t28 -1t28 1t27 5l40 106l72 -23l-28 -57q-24 -48 -56 -70.5t-83 -22.5z" />
    <glyph glyph-name="uni043A" unicode="&#x43a;" 
d="M107 516h80v-216h110l139 216h83l-126 -196q-17 -26 -30 -36.5t-31 -15.5v-4q20 -3 34 -13.5t29 -36.5l84 -146h58v-68h-58q-26 0 -45 14t-38 46l-99 172h-110v-232h-80v516z" />
    <glyph glyph-name="uni043B" unicode="&#x43b;" 
d="M26 68h64q15 19 26.5 45t19 62t11.5 83.5t4 110.5v147h343v-516h-80v448h-185v-81q0 -140 -20.5 -219.5t-54.5 -113.5q-19 -19 -42 -26.5t-55 -7.5h-31v68z" />
    <glyph glyph-name="uni043C" unicode="&#x43c;" 
d="M72 516h110l119 -263h6l119 263h102v-516h-77v323l3 92h-6l-148 -327l-148 327h-6l3 -92v-323h-77v516z" />
    <glyph glyph-name="uni043D" unicode="&#x43d;" 
d="M95 516h80v-216h250v216h80v-516h-80v232h-250v-232h-80v516z" />
    <glyph glyph-name="uni043E" unicode="&#x43e;" 
d="M300 -12q-54 0 -97.5 19t-74 54.5t-46.5 85t-16 111.5q0 61 16 111t46.5 85.5t74 54.5t97.5 19t97.5 -19t74 -54.5t46.5 -85.5t16 -111q0 -62 -16 -111.5t-46.5 -85t-74 -54.5t-97.5 -19zM300 57q67 0 108 40t41 124v74q0 84 -41 124t-108 40t-108 -40t-41 -124v-74
q0 -84 41 -124t108 -40z" />
    <glyph glyph-name="uni043F" unicode="&#x43f;" 
d="M97 516h406v-516h-80v448h-246v-448h-80v516z" />
    <glyph glyph-name="uni0440" unicode="&#x440;" 
d="M95 516h80v-84h4q50 96 159 96q95 0 148.5 -71t53.5 -199t-53.5 -199t-148.5 -71q-109 0 -159 96h-4v-284h-80v716zM307 59q70 0 108.5 42.5t38.5 112.5v88q0 70 -38.5 112.5t-108.5 42.5q-27 0 -51 -7t-42 -20.5t-28.5 -33t-10.5 -45.5v-186q0 -26 10.5 -45.5t28.5 -33
t42 -20.5t51 -7z" />
    <glyph glyph-name="uni0441" unicode="&#x441;" 
d="M318 -12q-56 0 -99.5 19.5t-73.5 54.5t-45.5 85t-15.5 111t16 111t46 85.5t73 54.5t98 19q75 0 122 -33t69 -86l-64 -34q-14 40 -46.5 62t-80.5 22q-35 0 -62.5 -11.5t-46.5 -32.5t-28.5 -50t-9.5 -63v-88q0 -34 9.5 -63t28.5 -50t47 -32.5t64 -11.5q52 0 86 24t54 66
l57 -39q-23 -52 -71.5 -86t-126.5 -34z" />
    <glyph glyph-name="uni0442" unicode="&#x442;" 
d="M260 448h-190v68h460v-68h-190v-448h-80v448z" />
    <glyph glyph-name="uni0443" unicode="&#x443;" 
d="M467 516h80l-256 -629q-9 -22 -20 -38.5t-26 -27t-36 -16t-50 -5.5h-76v68h120l58 142l-208 506h82l87 -216l77 -196h4l77 196z" />
    <glyph glyph-name="uni0444" unicode="&#x444;" 
d="M194 55q33 0 51 19t18 57v254q0 38 -18 57t-51 19q-18 0 -32 -7t-23 -25t-14 -48.5t-5 -77.5v-90q0 -47 5 -77.5t14 -48.5t23 -25t32 -7zM263 53h-3q-17 -35 -39.5 -50t-51.5 -15q-30 0 -53.5 12.5t-39.5 43.5t-24 83t-8 131t8 131t24 83t39.5 43.5t53.5 12.5
q29 0 51.5 -15t39.5 -50h3v247h74v-247h3q17 35 39.5 50t51.5 15q30 0 53.5 -12.5t39.5 -43.5t24 -83t8 -131t-8 -131t-24 -83t-39.5 -43.5t-53.5 -12.5q-29 0 -51.5 15t-39.5 50h-3v-253h-74v253zM406 55q18 0 32 7t23 25t14 48.5t5 77.5v90q0 47 -5 77.5t-14 48.5t-23 25
t-32 7q-33 0 -51 -19t-18 -57v-254q0 -38 18 -57t51 -19z" />
    <glyph glyph-name="uni0445" unicode="&#x445;" 
d="M61 0l192 262l-187 254h96l78 -109l62 -86h4l60 86l77 109h92l-189 -253l194 -263h-96l-87 121l-59 82h-4l-57 -82l-84 -121h-92z" />
    <glyph glyph-name="uni0446" unicode="&#x446;" 
d="M497 0h-413v516h80v-448h241v448h80v-448h85v-208h-73v140z" />
    <glyph glyph-name="uni0447" unicode="&#x447;" 
d="M410 237h-5q-28 -31 -63.5 -46.5t-90.5 -15.5q-84 0 -127.5 39.5t-43.5 119.5v182h80v-175q0 -48 27 -71t88 -23q60 0 97.5 15.5t37.5 47.5v206h80v-516h-80v237z" />
    <glyph glyph-name="uni0448" unicode="&#x448;" 
d="M54 516h74v-450h135v450h74v-450h135v450h74v-516h-492v516z" />
    <glyph glyph-name="uni0449" unicode="&#x449;" 
d="M530 0h-476v516h74v-450h135v450h74v-450h135v450h74v-448h54v-208h-70v140z" />
    <glyph glyph-name="uni044A" unicode="&#x44a;" 
d="M161 448h-150v68h230v-187h146q78 0 124 -44t46 -121q0 -78 -45 -121t-124 -43h-227v448zM376 68q45 0 70.5 18t25.5 58v42q0 40 -25.5 57.5t-70.5 17.5h-135v-193h135z" />
    <glyph glyph-name="uni044B" unicode="&#x44b;" 
d="M54 516h80v-187h87q78 0 124 -44t46 -121q0 -78 -45 -121t-124 -43h-168v516zM210 68q45 0 70.5 18t25.5 58v42q0 40 -25.5 57.5t-70.5 17.5h-76v-193h76zM466 516h80v-516h-80v516z" />
    <glyph glyph-name="uni044C" unicode="&#x44c;" 
d="M111 516h80v-187h160q78 0 124 -44t46 -121q0 -78 -45 -121t-124 -43h-241v516zM340 68q45 0 70.5 18t25.5 58v42q0 40 -25.5 57.5t-70.5 17.5h-149v-193h149z" />
    <glyph glyph-name="uni044D" unicode="&#x44d;" 
d="M206 294h224v8q0 34 -9.5 63t-28.5 50t-47 32.5t-64 11.5q-53 0 -85 -21.5t-50 -62.5l-62 33q23 52 70 86t128 34q55 0 98.5 -19.5t73.5 -54.5t46 -85t16 -111q0 -62 -16 -111.5t-46 -85t-73 -54.5t-98 -19q-78 0 -127 34t-72 84l59 41q20 -42 53 -66t87 -24
q35 0 62.5 11.5t46 32.5t28.5 50t10 63v13h-224v67z" />
    <glyph glyph-name="uni044E" unicode="&#x44e;" 
d="M389 -12q-38 0 -68 10.5t-51 38t-32.5 75.5t-13.5 122h-96v-234h-74v516h74v-219h97q3 69 14.5 114t32.5 71t50 36t67 10q40 0 70.5 -11.5t51.5 -41.5t32 -82.5t11 -134.5t-11 -134.5t-32 -82.5t-51.5 -41.5t-70.5 -11.5zM389 54q22 0 38.5 7t27.5 24.5t16.5 48t5.5 77.5
v94q0 47 -5.5 77.5t-16.5 48t-27.5 24.5t-38.5 7t-38.5 -7t-27.5 -24.5t-16.5 -48t-5.5 -77.5v-94q0 -47 5.5 -77.5t16.5 -48t27.5 -24.5t38.5 -7z" />
    <glyph glyph-name="uni044F" unicode="&#x44f;" 
d="M68 68h58l45 85q12 23 26 35t34 15v4q-63 3 -102.5 40.5t-39.5 109.5q0 74 45 116.5t124 42.5h232v-516h-80v199h-125l-71 -133q-18 -33 -38.5 -49.5t-52.5 -16.5h-55v68zM410 448h-140q-45 0 -70.5 -18t-25.5 -58v-31q0 -40 25.5 -58t70.5 -18h140v183z" />
    <glyph glyph-name="uni0410" unicode="&#x410;" 
d="M481 0l-59 199h-245l-59 -199h-87l214 698h111l214 -698h-89zM304 609h-9l-98 -337h205z" />
    <glyph glyph-name="uni0411" unicode="&#x411;" 
d="M85 698h394v-73h-310v-207h172q94 0 144.5 -54t50.5 -155t-50.5 -155t-144.5 -54h-256v698zM339 73q50 0 79 26.5t29 83.5v52q0 57 -29 83.5t-79 26.5h-170v-272h170z" />
    <glyph glyph-name="uni0412" unicode="&#x412;" 
d="M88 698h237q90 0 141 -49t51 -131q0 -63 -30.5 -99t-78.5 -51v-3q59 -14 97 -52.5t38 -111.5q0 -42 -14 -79t-39.5 -64t-60 -42.5t-74.5 -15.5h-267v698zM330 73q58 0 91 26t33 80v41q0 53 -33 79.5t-91 26.5h-158v-253h158zM316 395q53 0 83 23.5t30 71.5v39
q0 48 -30 72t-83 24h-144v-230h144z" />
    <glyph glyph-name="uni0413" unicode="&#x413;" 
d="M132 698h391v-73h-307v-625h-84v698z" />
    <glyph glyph-name="uni0414" unicode="&#x414;" 
d="M14 73h60q45 64 68 164.5t23 255.5v205h326v-625h85v-223h-77v150h-408v-150h-77v223zM407 625h-160v-138q0 -159 -21.5 -259t-55.5 -155h237v552z" />
    <glyph glyph-name="uni0415" unicode="&#x415;" 
d="M90 0v698h430v-73h-346v-235h334v-73h-334v-244h346v-73h-430z" />
    <glyph glyph-name="uni0416" unicode="&#x416;" 
d="M259 318h-69l-102 -318h-86l84 265q8 24 16 40t16.5 25.5t18 14.5t20.5 7v5q-21 5 -37 22t-28 60l-74 259h82l90 -308h69v308h82v-308h69l91 308h81l-75 -258q-13 -44 -28 -61t-36 -22v-5q11 -2 21 -7t19 -15t16.5 -25.5t15.5 -39.5l83 -265h-87l-101 318h-69v-318h-82
v318z" />
    <glyph glyph-name="uni0417" unicode="&#x417;" 
d="M281 -12q-86 0 -144.5 35t-96.5 88l61 50q74 -101 180 -101q69 0 110 33t41 94v21q0 51 -35 83.5t-109 32.5h-98v73h92q135 0 135 114v21q0 48 -33.5 77t-99.5 29q-58 0 -95 -21t-61 -57l-63 41q36 53 88.5 81t130.5 28q110 0 165.5 -50t55.5 -134q0 -73 -38 -112.5
t-95 -48.5v-5q31 -4 58 -15t47 -31t32 -49.5t12 -68.5q0 -46 -16.5 -84.5t-47.5 -66t-75.5 -42.5t-100.5 -15z" />
    <glyph glyph-name="uni0418" unicode="&#x418;" 
d="M80 698h84v-352l-14 -202h5l285 554h80v-698h-84v352l14 202h-5l-285 -554h-80v698z" />
    <glyph glyph-name="uni0419" unicode="&#x419;" 
d="M80 698h84v-352l-14 -202h5l285 554h80v-698h-84v352l14 202h-5l-285 -554h-80v698zM300 765q-51 0 -83 22.5t-56 70.5l-28 57l72 23l40 -106q11 -4 27 -5t28 -1t28 1t27 5l40 106l72 -23l-28 -57q-24 -48 -56 -70.5t-83 -22.5z" />
    <glyph glyph-name="uni041A" unicode="&#x41a;" 
d="M80 698h84v-308h123l148 308h89l-133 -276q-17 -35 -32 -48.5t-33 -16.5v-5q22 -5 37 -20.5t33 -56.5l90 -202h65v-73h-63q-30 0 -53 17.5t-40 56.5l-108 244h-123v-318h-84v698z" />
    <glyph glyph-name="uni041B" unicode="&#x41b;" 
d="M437 625h-196v-126q0 -108 -6.5 -185t-18.5 -130t-30 -87t-41 -57q-21 -21 -47 -30.5t-62 -9.5h-31v73h67q23 22 39.5 53.5t27 81t15.5 121.5t5 176v193h362v-698h-84v625z" />
    <glyph glyph-name="uni041C" unicode="&#x41c;" 
d="M455 350v221h-8l-147 -359l-147 359h-8v-221v-350h-77v698h108l123 -308h6l123 308h104v-698h-77v350z" />
    <glyph glyph-name="uni041D" unicode="&#x41d;" 
d="M436 317h-272v-317h-84v698h84v-308h272v308h84v-698h-84v317z" />
    <glyph glyph-name="uni041E" unicode="&#x41e;" 
d="M300 -12q-64 0 -110 24.5t-76 70.5t-44 113t-14 153q0 85 14 152.5t44 113.5t76 70.5t110 24.5t110 -24.5t76 -70.5t44 -113.5t14 -152.5q0 -86 -14 -153t-44 -113t-76 -70.5t-110 -24.5zM300 61q42 0 71 16.5t48 46.5t27.5 72.5t8.5 95.5v114q0 52 -8.5 95t-27.5 73
t-48 46.5t-71 16.5t-71 -16.5t-48 -46.5t-27.5 -73t-8.5 -95v-114q0 -53 8.5 -95.5t27.5 -72.5t48 -46.5t71 -16.5z" />
    <glyph glyph-name="uni041F" unicode="&#x41f;" 
d="M83 698h434v-698h-84v625h-266v-625h-84v698z" />
    <glyph glyph-name="uni0420" unicode="&#x420;" 
d="M90 0v698h254q97 0 148 -53t51 -148t-51 -148t-148 -53h-170v-296h-84zM174 369h168q53 0 82.5 26.5t29.5 75.5v52q0 49 -29.5 75.5t-82.5 26.5h-168v-256z" />
    <glyph glyph-name="uni0421" unicode="&#x421;" 
d="M323 -12q-128 0 -190.5 93t-62.5 268t62.5 268t190.5 93q48 0 83 -13t60 -35t42 -49.5t30 -55.5l-72 -33q-9 23 -21 43.5t-28.5 36t-39 24.5t-54.5 9q-83 0 -123.5 -63t-40.5 -168v-114q0 -105 40.5 -168t123.5 -63q32 0 54.5 9t39 24.5t28.5 36t21 43.5l72 -33
q-13 -29 -30 -56t-42 -49t-60 -35t-83 -13z" />
    <glyph glyph-name="uni0422" unicode="&#x422;" 
d="M342 625v-625h-84v625h-233v73h550v-73h-233z" />
    <glyph glyph-name="uni0423" unicode="&#x423;" 
d="M139 73h104l35 90l-234 535h90l139 -328l41 -112h2l38 111l122 329h86l-228 -602q-11 -30 -23 -49t-27.5 -29.5t-36 -14t-48.5 -3.5h-60v73z" />
    <glyph glyph-name="uni0424" unicode="&#x424;" 
d="M258 61q-62 4 -105.5 27.5t-72 62t-41.5 89t-13 108.5t13 108.5t41.5 89t72 62t105.5 27.5v90h84v-90q61 -4 105 -27.5t72.5 -62t41.5 -89t13 -108.5t-13 -108.5t-41.5 -89t-72.5 -62t-105 -27.5v-90h-84v90zM260 564q-79 -8 -113 -55.5t-34 -119.5v-82q0 -72 34 -119.5
t113 -55.5v432zM340 132q79 8 113 55.5t34 119.5v82q0 72 -34 119.5t-113 55.5v-432z" />
    <glyph glyph-name="uni0425" unicode="&#x425;" 
d="M575 0h-95l-83 139l-92 152h-4l-95 -152l-88 -139h-92l228 356l-215 342h95l81 -135l87 -141h4l86 141l84 135h92l-216 -341z" />
    <glyph glyph-name="uni0426" unicode="&#x426;" 
d="M497 0h-417v698h84v-625h251v625h84v-625h75v-223h-77v150z" />
    <glyph glyph-name="uni0427" unicode="&#x427;" 
d="M428 275h-5q-27 -11 -62.5 -17t-77.5 -6q-62 0 -105 15t-69 46t-37.5 77.5t-11.5 109.5v198h84v-198q0 -48 7 -81.5t23.5 -54t44 -30t67.5 -9.5q45 0 77.5 6t64.5 18v349h84v-698h-84v275z" />
    <glyph glyph-name="uni0428" unicode="&#x428;" 
d="M48 698h82v-625h129v625h82v-625h129v625h82v-698h-504v698z" />
    <glyph glyph-name="uni0429" unicode="&#x429;" 
d="M520 0h-472v698h82v-625h113v625h82v-625h113v625h82v-625h75v-223h-75v150z" />
    <glyph glyph-name="uni042A" unicode="&#x42a;" 
d="M170 625h-160v73h244v-280h131q94 0 144.5 -54t50.5 -155t-50.5 -155t-144.5 -54h-215v625zM383 73q50 0 79 26.5t29 83.5v52q0 57 -29 83.5t-79 26.5h-129v-272h129z" />
    <glyph glyph-name="uni042B" unicode="&#x42b;" 
d="M48 698h82v-280h70q94 0 144.5 -54t50.5 -155t-50.5 -155t-144.5 -54h-152v698zM200 73q50 0 79 26.5t29 83.5v52q0 57 -29 83.5t-79 26.5h-70v-272h70zM470 698h82v-698h-82v698z" />
    <glyph glyph-name="uni042C" unicode="&#x42c;" 
d="M92 698h84v-280h171q94 0 144.5 -54t50.5 -155t-50.5 -155t-144.5 -54h-255v698zM345 73q50 0 79 26.5t29 83.5v52q0 57 -29 83.5t-79 26.5h-169v-272h169z" />
    <glyph glyph-name="uni042D" unicode="&#x42d;" 
d="M277 -12q-49 0 -84.5 13t-61 35t-42.5 49t-30 56l72 33q9 -23 21 -43.5t29 -36t40 -24.5t56 -9q85 0 126 63t41 168v25h-231v73h231v16q0 105 -41 168t-126 63q-33 0 -56 -9t-40 -24.5t-29 -36t-21 -43.5l-72 33q13 28 30 55.5t42.5 49.5t61 35t84.5 13q130 0 193 -93
t63 -268t-63 -268t-193 -93z" />
    <glyph glyph-name="uni042E" unicode="&#x42e;" 
d="M382 -12q-47 0 -79 14t-52.5 50.5t-30.5 100.5t-12 164h-78v-317h-82v698h82v-308h78q2 96 12 158t30.5 98t53 50t78.5 14t79 -14t54 -54t31 -110.5t10 -182.5q0 -113 -10 -183t-31 -110t-54 -54t-79 -14zM382 61q22 0 38.5 7t27 28.5t16 61t5.5 104.5v174
q0 65 -5.5 104.5t-16 61t-27 28.5t-38.5 7t-38.5 -7t-27 -28.5t-16 -61t-5.5 -104.5v-174q0 -65 5.5 -104.5t16 -61t27 -28.5t38.5 -7z" />
    <glyph glyph-name="uni042F" unicode="&#x42f;" 
d="M39 73h64l82 171q15 32 31 45.5t40 18.5v5q-92 5 -137 54.5t-45 132.5q0 91 50.5 144.5t144.5 53.5h245v-698h-84v300h-126l-110 -229q-20 -41 -41.5 -56t-50.5 -15h-63v73zM430 625h-159q-50 0 -79 -26.5t-29 -83.5v-33q0 -57 29 -83.5t79 -26.5h159v253z" />
    <glyph glyph-name="uni04D3" unicode="&#x4d3;" 
d="M495 0q-47 0 -67 24t-25 60h-5q-17 -45 -54.5 -70.5t-100.5 -25.5q-81 0 -129 42t-48 115q0 72 52.5 111t169.5 39h110v51q0 57 -32 85.5t-91 28.5q-52 0 -85 -20.5t-53 -55.5l-54 40q10 20 27 39t42 33.5t57 23t71 8.5q91 0 144.5 -46t53.5 -128v-284h72v-70h-55z
M257 55q31 0 56.5 7.5t44.5 20t29.5 30t10.5 37.5v85h-110q-72 0 -105 -20t-33 -58v-21q0 -40 28.5 -60.5t78.5 -20.5zM191 618q-31 0 -44 13t-13 33v14q0 20 13 33t44 13t44 -13t13 -33v-14q0 -20 -13 -33t-44 -13zM377 618q-31 0 -44 13t-13 33v14q0 20 13 33t44 13
t44 -13t13 -33v-14q0 -20 -13 -33t-44 -13z" />
    <glyph glyph-name="uni04D1" unicode="&#x4d1;" 
d="M495 0q-47 0 -67 24t-25 60h-5q-17 -45 -54.5 -70.5t-100.5 -25.5q-81 0 -129 42t-48 115q0 72 52.5 111t169.5 39h110v51q0 57 -32 85.5t-91 28.5q-52 0 -85 -20.5t-53 -55.5l-54 40q10 20 27 39t42 33.5t57 23t71 8.5q91 0 144.5 -46t53.5 -128v-284h72v-70h-55z
M257 55q31 0 56.5 7.5t44.5 20t29.5 30t10.5 37.5v85h-110q-72 0 -105 -20t-33 -58v-21q0 -40 28.5 -60.5t78.5 -20.5zM284 595q-51 0 -83 22.5t-56 70.5l-28 57l72 23l40 -106q11 -4 27 -5t28 -1t28 1t27 5l40 106l72 -23l-28 -57q-24 -48 -56 -70.5t-83 -22.5z" />
    <glyph glyph-name="uni04D3.alt01" 
d="M425 84h-4q-50 -96 -159 -96q-95 0 -148.5 71t-53.5 199t53.5 199t148.5 71q109 0 159 -96h4v84h80v-516h-80v84zM293 59q27 0 51 7t42 20.5t28.5 33t10.5 45.5v186q0 26 -10.5 45.5t-28.5 33t-42 20.5t-51 7q-70 0 -108.5 -42.5t-38.5 -112.5v-88q0 -70 38.5 -112.5
t108.5 -42.5zM195 618q-31 0 -44 13t-13 33v14q0 20 13 33t44 13t44 -13t13 -33v-14q0 -20 -13 -33t-44 -13zM381 618q-31 0 -44 13t-13 33v14q0 20 13 33t44 13t44 -13t13 -33v-14q0 -20 -13 -33t-44 -13z" />
    <glyph glyph-name="uni04D1.alt01" 
d="M425 84h-4q-50 -96 -159 -96q-95 0 -148.5 71t-53.5 199t53.5 199t148.5 71q109 0 159 -96h4v84h80v-516h-80v84zM293 59q27 0 51 7t42 20.5t28.5 33t10.5 45.5v186q0 26 -10.5 45.5t-28.5 33t-42 20.5t-51 7q-70 0 -108.5 -42.5t-38.5 -112.5v-88q0 -70 38.5 -112.5
t108.5 -42.5zM288 595q-51 0 -83 22.5t-56 70.5l-28 57l72 23l40 -106q11 -4 27 -5t28 -1t28 1t27 5l40 106l72 -23l-28 -57q-24 -48 -56 -70.5t-83 -22.5z" />
    <glyph glyph-name="uni04D5" unicode="&#x4d5;" 
d="M141 -12q-57 0 -94 38t-37 112q0 78 45.5 117.5t132.5 39.5h63v53q0 67 -21.5 93.5t-59.5 26.5t-59.5 -22t-35.5 -57l-53 33q8 20 21.5 39t32 34t43 24t54.5 9q45 0 76 -20t48 -58h3q20 43 52.5 60.5t71.5 17.5q78 0 118 -59.5t40 -176.5v-54h-258v-25q0 -71 24.5 -116
t71.5 -45q19 0 34.5 7.5t27 20t20 28.5t14.5 33l58 -27q-8 -23 -21.5 -45.5t-33 -40.5t-45 -29t-56.5 -11q-51 0 -88 30t-58 84h-3q-14 -59 -47.5 -86.5t-80.5 -27.5zM155 50q24 0 42 8.5t30 23t18 33t6 39.5v84h-52q-55 0 -85.5 -20t-30.5 -66v-15q0 -41 16 -64t56 -23z
M420 470q-46 0 -71 -34.5t-25 -106.5v-34h192v34q0 72 -25 106.5t-71 34.5z" />
    <glyph glyph-name="uni0453" unicode="&#x453;" 
d="M135 516h370v-68h-290v-448h-80v516zM327 585l-52 24l85 170l73 -35z" />
    <glyph glyph-name="uni0491" unicode="&#x491;" 
d="M135 516h297v140h73v-208h-290v-448h-80v516z" />
    <glyph glyph-name="uni0493" unicode="&#x493;" 
d="M153 223h-109v62h109v231h370v-68h-290v-163h193v-62h-193v-223h-80v223z" />
    <glyph glyph-name="uni0495" unicode="&#x495;" 
d="M323 -132h84q15 18 24 50t9 77v97q0 68 -27 94.5t-88 26.5q-60 0 -97.5 -15.5t-37.5 -47.5v-150h-80v516h326v-68h-246v-225h5q28 31 63.5 46.5t90.5 15.5q84 0 127.5 -42.5t43.5 -140.5v-119q0 -49 -11 -83.5t-31 -56.5t-47.5 -32.5t-61.5 -10.5h-46v68z" />
    <glyph glyph-name="uni0450" unicode="&#x450;" 
d="M309 -12q-56 0 -100.5 19t-76 54.5t-48.5 85t-17 110.5q0 62 17.5 112t48.5 85.5t74.5 54.5t96.5 19q52 0 94.5 -19t72.5 -52.5t46 -79.5t16 -101v-38h-382v-24q0 -34 11 -63t31.5 -50t50 -32.5t65.5 -11.5q52 0 90 24t58 66l59 -40q-23 -52 -76.5 -85.5t-130.5 -33.5z
M304 462q-33 0 -61 -12t-48.5 -33t-32 -49.5t-11.5 -62.5v-7h296v11q0 34 -10.5 62t-29 48.5t-45 31.5t-58.5 11zM189 744l73 35l85 -170l-52 -24z" />
    <glyph glyph-name="uni0451" unicode="&#x451;" 
d="M309 -12q-56 0 -100.5 19t-76 54.5t-48.5 85t-17 110.5q0 62 17.5 112t48.5 85.5t74.5 54.5t96.5 19q52 0 94.5 -19t72.5 -52.5t46 -79.5t16 -101v-38h-382v-24q0 -34 11 -63t31.5 -50t50 -32.5t65.5 -11.5q52 0 90 24t58 66l59 -40q-23 -52 -76.5 -85.5t-130.5 -33.5z
M304 462q-33 0 -61 -12t-48.5 -33t-32 -49.5t-11.5 -62.5v-7h296v11q0 34 -10.5 62t-29 48.5t-45 31.5t-58.5 11zM209 618q-31 0 -44 13t-13 33v14q0 20 13 33t44 13t44 -13t13 -33v-14q0 -20 -13 -33t-44 -13zM395 618q-31 0 -44 13t-13 33v14q0 20 13 33t44 13t44 -13
t13 -33v-14q0 -20 -13 -33t-44 -13z" />
    <glyph glyph-name="uni04D7" unicode="&#x4d7;" 
d="M309 -12q-56 0 -100.5 19t-76 54.5t-48.5 85t-17 110.5q0 62 17.5 112t48.5 85.5t74.5 54.5t96.5 19q52 0 94.5 -19t72.5 -52.5t46 -79.5t16 -101v-38h-382v-24q0 -34 11 -63t31.5 -50t50 -32.5t65.5 -11.5q52 0 90 24t58 66l59 -40q-23 -52 -76.5 -85.5t-130.5 -33.5z
M304 462q-33 0 -61 -12t-48.5 -33t-32 -49.5t-11.5 -62.5v-7h296v11q0 34 -10.5 62t-29 48.5t-45 31.5t-58.5 11zM302 595q-51 0 -83 22.5t-56 70.5l-28 57l72 23l40 -106q11 -4 27 -5t28 -1t28 1t27 5l40 106l72 -23l-28 -57q-24 -48 -56 -70.5t-83 -22.5z" />
    <glyph glyph-name="uni0454" unicode="&#x454;" 
d="M318 -12q-56 0 -99.5 19.5t-73.5 54.5t-45.5 85t-15.5 111t16 111t46 85.5t73 54.5t98 19q75 0 122 -33t69 -86l-64 -34q-14 40 -46.5 62t-80.5 22q-35 0 -62.5 -11.5t-46.5 -32.5t-28.5 -50t-9.5 -63v-8h224v-67h-224v-13q0 -34 9.5 -63t28.5 -50t47 -32.5t64 -11.5
q52 0 86 24t54 66l57 -39q-23 -52 -71.5 -86t-126.5 -34z" />
    <glyph glyph-name="uni04DD" unicode="&#x4dd;" 
d="M263 233h-88l-65 -233h-80l57 203q16 55 56 61v4q-38 9 -52 59l-55 189h76l63 -217h88v217h74v-217h88l64 217h75l-56 -189q-8 -26 -19.5 -40t-31.5 -19v-4q43 -6 57 -61l56 -203h-81l-64 233h-88v-233h-74v233zM207 618q-31 0 -44 13t-13 33v14q0 20 13 33t44 13t44 -13
t13 -33v-14q0 -20 -13 -33t-44 -13zM393 618q-31 0 -44 13t-13 33v14q0 20 13 33t44 13t44 -13t13 -33v-14q0 -20 -13 -33t-44 -13z" />
    <glyph glyph-name="uni04C2" unicode="&#x4c2;" 
d="M263 233h-88l-65 -233h-80l57 203q16 55 56 61v4q-38 9 -52 59l-55 189h76l63 -217h88v217h74v-217h88l64 217h75l-56 -189q-8 -26 -19.5 -40t-31.5 -19v-4q43 -6 57 -61l56 -203h-81l-64 233h-88v-233h-74v233zM300 595q-51 0 -83 22.5t-56 70.5l-28 57l72 23l40 -106
q11 -4 27 -5t28 -1t28 1t27 5l40 106l72 -23l-28 -57q-24 -48 -56 -70.5t-83 -22.5z" />
    <glyph glyph-name="uni0497" unicode="&#x497;" 
d="M527 0h-46l-64 233h-88v-233h-74v233h-88l-65 -233h-80l57 203q16 55 56 61v4q-38 9 -52 59l-55 189h76l63 -217h88v217h74v-217h88l64 217h75l-56 -189q-8 -26 -19.5 -40t-31.5 -19v-4q43 -6 57 -61l37 -135h54v-208h-70v140z" />
    <glyph glyph-name="uni04DF" unicode="&#x4df;" 
d="M279 -12q-80 0 -132.5 26t-85.5 74l59 48q24 -38 63 -58.5t96 -20.5q72 0 104 23t32 59v14q0 39 -25.5 59.5t-73.5 20.5h-139v67h129q98 0 98 73v12q0 33 -27.5 53.5t-95.5 20.5q-60 0 -96.5 -20t-59.5 -56l-56 38q35 51 85 79t131 28q103 0 153.5 -37t50.5 -102
q0 -48 -25 -76t-70 -39v-4q52 -8 79 -39.5t27 -80.5q0 -75 -57.5 -118.5t-163.5 -43.5zM193 618q-31 0 -44 13t-13 33v14q0 20 13 33t44 13t44 -13t13 -33v-14q0 -20 -13 -33t-44 -13zM379 618q-31 0 -44 13t-13 33v14q0 20 13 33t44 13t44 -13t13 -33v-14q0 -20 -13 -33
t-44 -13z" />
    <glyph glyph-name="uni0499" unicode="&#x499;" 
d="M243 -10q-65 5 -109 30t-73 68l59 48q24 -38 63 -58.5t96 -20.5q72 0 104 23t32 59v14q0 39 -25.5 59.5t-73.5 20.5h-139v67h129q98 0 98 73v12q0 33 -27.5 53.5t-95.5 20.5q-60 0 -96.5 -20t-59.5 -56l-56 38q35 51 85 79t131 28q103 0 153.5 -37t50.5 -102
q0 -48 -25 -76t-70 -39v-4q52 -8 79 -39.5t27 -80.5q0 -68 -48 -110t-136 -50v-130h-73v130z" />
    <glyph glyph-name="uni04CF" unicode="&#x4cf;" 
d="M80 68h180v604h-180v68h440v-68h-180v-604h180v-68h-440v68z" />
    <glyph glyph-name="uni04E5" unicode="&#x4e5;" 
d="M95 516h80v-263l-8 -132h4l259 395h75v-516h-80v263l8 132h-4l-259 -395h-75v516zM204 618q-31 0 -44 13t-13 33v14q0 20 13 33t44 13t44 -13t13 -33v-14q0 -20 -13 -33t-44 -13zM390 618q-31 0 -44 13t-13 33v14q0 20 13 33t44 13t44 -13t13 -33v-14q0 -20 -13 -33
t-44 -13z" />
    <glyph glyph-name="uni045D" unicode="&#x45d;" 
d="M95 516h80v-263l-8 -132h4l259 395h75v-516h-80v263l8 132h-4l-259 -395h-75v516zM184 744l73 35l85 -170l-52 -24z" />
    <glyph glyph-name="uni04E3" unicode="&#x4e3;" 
d="M95 516h80v-263l-8 -132h4l259 395h75v-516h-80v263l8 132h-4l-259 -395h-75v516zM157 705h280v-68h-280v68z" />
    <glyph glyph-name="uni045C" unicode="&#x45c;" 
d="M107 516h80v-216h110l139 216h83l-126 -196q-17 -26 -30 -36.5t-31 -15.5v-4q20 -3 34 -13.5t29 -36.5l84 -146h58v-68h-58q-26 0 -45 14t-38 46l-99 172h-110v-232h-80v516zM304 585l-52 24l85 170l73 -35z" />
    <glyph glyph-name="uni049B" unicode="&#x49b;" 
d="M462 0q-23 3 -40 17t-34 43l-99 172h-110v-232h-80v516h80v-216h110l139 216h83l-126 -196q-17 -26 -30 -36.5t-31 -15.5v-4q20 -3 34 -13.5t29 -36.5l84 -146h64v-208h-73v140z" />
    <glyph glyph-name="uni049D" unicode="&#x49d;" 
d="M221 232h-54v-232h-80v516h80v-216h54v118h62v-118h40l133 216h83l-120 -195q-17 -27 -30 -37.5t-31 -15.5v-4q20 -3 34 -13.5t28 -36.5l79 -146h58v-68h-58q-26 0 -45.5 14t-39.5 50l-91 168h-40v-117h-62v117z" />
    <glyph glyph-name="uni04A1" unicode="&#x4a1;" 
d="M161 448h-150v68h230v-216h96l129 216h83l-117 -194q-15 -26 -30 -37.5t-33 -16.5v-4q20 -3 35.5 -15t29.5 -38l75 -143h58v-68h-58q-26 0 -46 15t-42 57l-84 160h-96v-232h-80v448z" />
    <glyph glyph-name="uni0459" unicode="&#x459;" 
d="M2 66h49q14 19 25.5 45.5t19 63t11.5 86.5t4 118v137h254v-187h58q79 0 121 -43t42 -121t-42 -121.5t-121 -43.5h-132v450h-108v-73q0 -74 -5.5 -131t-15.5 -98.5t-24 -69.5t-30 -44q-19 -19 -42 -26.5t-49 -7.5h-15v66zM411 66q47 0 71.5 19t24.5 59v41q0 40 -24.5 59
t-71.5 19h-46v-197h46z" />
    <glyph glyph-name="uni04A3" unicode="&#x4a3;" 
d="M84 516h80v-216h241v216h80v-448h85v-208h-73v140h-92v232h-241v-232h-80v516z" />
    <glyph glyph-name="uni045A" unicode="&#x45a;" 
d="M54 516h74v-217h163v217h74v-187h58q79 0 121 -43t42 -121t-42 -121.5t-121 -43.5h-132v233h-163v-233h-74v516zM411 66q47 0 71.5 19t24.5 59v41q0 40 -24.5 59t-71.5 19h-46v-197h46z" />
    <glyph glyph-name="uni04A5" unicode="&#x4a5;" 
d="M54 516h80v-216h181v216h261v-68h-181v-448h-80v232h-181v-232h-80v516z" />
    <glyph glyph-name="uni04E7" unicode="&#x4e7;" 
d="M300 -12q-54 0 -97.5 19t-74 54.5t-46.5 85t-16 111.5q0 61 16 111t46.5 85.5t74 54.5t97.5 19t97.5 -19t74 -54.5t46.5 -85.5t16 -111q0 -62 -16 -111.5t-46.5 -85t-74 -54.5t-97.5 -19zM300 57q67 0 108 40t41 124v74q0 84 -41 124t-108 40t-108 -40t-41 -124v-74
q0 -84 41 -124t108 -40zM207 618q-31 0 -44 13t-13 33v14q0 20 13 33t44 13t44 -13t13 -33v-14q0 -20 -13 -33t-44 -13zM393 618q-31 0 -44 13t-13 33v14q0 20 13 33t44 13t44 -13t13 -33v-14q0 -20 -13 -33t-44 -13z" />
    <glyph glyph-name="uni0473" unicode="&#x473;" 
d="M300 -12q-54 0 -97.5 19t-74 54.5t-46.5 85t-16 111.5q0 61 16 111t46.5 85.5t74 54.5t97.5 19t97.5 -19t74 -54.5t46.5 -85.5t16 -111q0 -62 -16 -111.5t-46.5 -85t-74 -54.5t-97.5 -19zM300 57q67 0 108 40t41 124v6h-298v-6q0 -84 41 -124t108 -40zM300 459
q-67 0 -108 -40t-41 -124h298q0 84 -41 124t-108 40z" />
    <glyph glyph-name="uni04E9" unicode="&#x4e9;" 
d="M300 -12q-54 0 -97.5 19t-74 54.5t-46.5 85t-16 111.5q0 61 16 111t46.5 85.5t74 54.5t97.5 19t97.5 -19t74 -54.5t46.5 -85.5t16 -111q0 -62 -16 -111.5t-46.5 -85t-74 -54.5t-97.5 -19zM300 57q67 0 108 40t41 124v6h-298v-6q0 -84 41 -124t108 -40zM300 459
q-67 0 -108 -40t-41 -124h298q0 84 -41 124t-108 40z" />
    <glyph glyph-name="uni04AB" unicode="&#x4ab;" 
d="M282 -10q-95 12 -146.5 84t-51.5 184q0 61 16 111t46 85.5t73 54.5t98 19q75 0 122 -33t69 -86l-64 -34q-14 40 -46.5 62t-80.5 22q-35 0 -62.5 -11.5t-46.5 -32.5t-28.5 -50t-9.5 -63v-88q0 -34 9.5 -63t28.5 -50t47 -32.5t64 -11.5q52 0 86 24t54 66l57 -39
q-20 -46 -59.5 -78t-101.5 -40v-130h-73v130z" />
    <glyph glyph-name="uni04EF" unicode="&#x4ef;" 
d="M467 516h80l-256 -629q-9 -22 -20 -38.5t-26 -27t-36 -16t-50 -5.5h-76v68h120l58 142l-208 506h82l87 -216l77 -196h4l77 196zM160 705h280v-68h-280v68z" />
    <glyph glyph-name="uni04F1" unicode="&#x4f1;" 
d="M467 516h80l-256 -629q-9 -22 -20 -38.5t-26 -27t-36 -16t-50 -5.5h-76v68h120l58 142l-208 506h82l87 -216l77 -196h4l77 196zM207 618q-31 0 -44 13t-13 33v14q0 20 13 33t44 13t44 -13t13 -33v-14q0 -20 -13 -33t-44 -13zM393 618q-31 0 -44 13t-13 33v14q0 20 13 33
t44 13t44 -13t13 -33v-14q0 -20 -13 -33t-44 -13z" />
    <glyph glyph-name="uni04F3" unicode="&#x4f3;" 
d="M467 516h80l-256 -629q-9 -22 -20 -38.5t-26 -27t-36 -16t-50 -5.5h-76v68h120l58 142l-208 506h82l87 -216l77 -196h4l77 196zM227 586l-48 22l85 170l69 -33zM387 586l-48 22l85 170l69 -33z" />
    <glyph glyph-name="uni045E" unicode="&#x45e;" 
d="M467 516h80l-256 -629q-9 -22 -20 -38.5t-26 -27t-36 -16t-50 -5.5h-76v68h120l58 142l-208 506h82l87 -216l77 -196h4l77 196zM300 595q-51 0 -83 22.5t-56 70.5l-28 57l72 23l40 -106q11 -4 27 -5t28 -1t28 1t27 5l40 106l72 -23l-28 -57q-24 -48 -56 -70.5t-83 -22.5z
" />
    <glyph glyph-name="uni04AF" unicode="&#x4af;" 
d="M260 0l-196 516h81l74 -202l80 -224h4l80 224l74 202h79l-196 -516v-200h-80v200z" />
    <glyph glyph-name="uni04B1" unicode="&#x4b1;" 
d="M260 -62h-135v62h135l-196 516h81l74 -202l80 -224h4l80 224l74 202h79l-196 -516h135v-62h-135v-138h-80v138z" />
    <glyph glyph-name="uni04B3" unicode="&#x4b3;" 
d="M502 0h-58l-87 121l-59 82h-4l-57 -82l-84 -121h-92l192 262l-187 254h96l78 -109l62 -86h4l60 86l77 109h92l-189 -253l144 -195h85v-208h-73v140z" />
    <glyph glyph-name="uni04F5" unicode="&#x4f5;" 
d="M410 237h-5q-28 -31 -63.5 -46.5t-90.5 -15.5q-84 0 -127.5 39.5t-43.5 119.5v182h80v-175q0 -48 27 -71t88 -23q60 0 97.5 15.5t37.5 47.5v206h80v-516h-80v237zM193 618q-31 0 -44 13t-13 33v14q0 20 13 33t44 13t44 -13t13 -33v-14q0 -20 -13 -33t-44 -13zM379 618
q-31 0 -44 13t-13 33v14q0 20 13 33t44 13t44 -13t13 -33v-14q0 -20 -13 -33t-44 -13z" />
    <glyph glyph-name="uni04B7" unicode="&#x4b7;" 
d="M497 0h-92v237h-5q-28 -31 -63 -46.5t-91 -15.5q-84 0 -127.5 39.5t-43.5 119.5v182h80v-175q0 -48 27 -71t88 -23q60 0 97.5 15.5t37.5 47.5v206h80v-448h85v-208h-73v140z" />
    <glyph glyph-name="uni04B9" unicode="&#x4b9;" 
d="M410 236h-5q-18 -21 -41 -35t-48 -20v-92h-62v86q-174 0 -174 159v182h80v-175q0 -88 94 -93v144h62v-144q42 5 68 20t26 42v206h80v-516h-80v236z" />
    </font>
</defs>
</svg>
