<?xml version="1.0" standalone="no"?>
<!DOCTYPE svg PUBLIC "-//W3C//DTD SVG 1.1//EN" "http://www.w3.org/Graphics/SVG/1.1/DTD/svg11.dtd" >
<svg xmlns="http://www.w3.org/2000/svg" xmlns:xlink="http://www.w3.org/1999/xlink" version="1.1">
<metadata>
Created by FontForge 20170812 at Fri Dec 22 17:13:06 2017
 By ,,,
Copyright 2017 IBM Corp. All rights reserved.
</metadata>
<defs>
<font id="IBMPlexMono-ExtraLightItalic" horiz-adv-x="600" >
  <font-face 
    font-family="IBM Plex Mono ExtraLight"
    font-weight="200"
    font-style="italic"
    font-stretch="normal"
    units-per-em="1000"
    panose-1="2 11 3 9 5 2 3 0 2 3"
    ascent="780"
    descent="-220"
    x-height="516"
    cap-height="698"
    bbox="-177 -251 690 1099"
    underline-thickness="26"
    underline-position="-187"
    slope="-9"
    unicode-range="U+000D-FB02"
  />
<missing-glyph 
d="M32 0v780h536v-780h-536zM58 26h484v728h-484v-728z" />
    <glyph glyph-name=".notdef" 
d="M32 0v780h536v-780h-536zM58 26h484v728h-484v-728z" />
    <glyph glyph-name=".null" horiz-adv-x="0" 
 />
    <glyph glyph-name=".null" horiz-adv-x="0" 
 />
    <glyph glyph-name="uni000D" unicode="&#xd;" 
 />
    <glyph glyph-name="space" unicode=" " 
 />
    <glyph glyph-name="a" unicode="a" 
d="M406 0l19 117h-3q-29 -58 -72.5 -93.5t-111.5 -35.5q-42 0 -74 14.5t-53.5 40.5t-32.5 62.5t-11 80.5q0 69 16 131t47 109t76.5 74.5t103.5 27.5q66 0 107 -28.5t56 -75.5h4l15 92h34l-86 -516h-34zM244 19q33 0 61.5 10.5t54.5 34.5q27 25 50 62.5t31 84.5l24 142
q4 26 -2.5 52t-24.5 46.5t-49 33t-74 12.5q-41 0 -75 -16t-59.5 -44t-42.5 -66t-24 -82l-9 -55q-4 -23 -4 -49q0 -35 8.5 -65t25.5 -52.5t44 -35.5t65 -13z" />
    <glyph glyph-name="a.alt01" 
d="M231 -12q-76 0 -118 32.5t-42 89.5q0 34 10 65t35.5 54.5t68 37t107.5 13.5h149l10 56q2 14 3 25.5t1 22.5q0 114 -129 114q-32 0 -57 -5.5t-45 -17t-36 -29t-31 -41.5l-24 18q14 23 32 42t41 33t53 22t68 8q78 0 120 -37.5t42 -103.5q0 -12 -1.5 -25t-3.5 -27l-55 -335
h-34l13 79h-3q-23 -37 -65 -64t-109 -27zM236 18q33 0 64 9t55.5 25.5t41.5 41t23 56.5l17 102h-149q-87 0 -129 -27.5t-49 -73.5q-3 -23 -3.5 -30t-0.5 -12q0 -44 33.5 -67.5t96.5 -23.5z" />
    <glyph glyph-name="b" unicode="b" 
d="M197 740h34l-56 -341h3q29 58 72.5 93.5t111.5 35.5q42 0 74 -14.5t53.5 -40.5t32.5 -62.5t11 -80.5q0 -69 -16 -131t-47 -109t-76.5 -74.5t-103.5 -27.5q-66 0 -107 28.5t-56 75.5h-4l-15 -92h-34zM285 19q41 0 75 16t59.5 44t42 66t24.5 82l9 55q4 23 4 49
q0 35 -8.5 65t-25.5 52.5t-44.5 35.5t-64.5 13q-33 0 -61.5 -10.5t-54.5 -34.5q-27 -25 -50 -62.5t-31 -84.5l-24 -142q-5 -26 2 -52t25 -46.5t48.5 -33t74.5 -12.5z" />
    <glyph glyph-name="c" unicode="c" 
d="M266 -12q-46 0 -80.5 16t-58 44.5t-35 67.5t-11.5 86q0 77 19 137.5t53 102.5t81 64t102 22q67 0 109.5 -33t54.5 -84l-30 -10q-14 48 -49.5 72t-86.5 24q-81 0 -136 -52.5t-70 -144.5l-9 -52q-2 -16 -3 -26.5t-1 -24.5q0 -38 9.5 -70.5t28.5 -56.5t47.5 -37.5
t67.5 -13.5q58 0 102.5 33.5t89.5 102.5l27 -14q-43 -70 -95 -111.5t-126 -41.5z" />
    <glyph glyph-name="d" unicode="d" 
d="M425 117h-3q-29 -58 -72.5 -93.5t-111.5 -35.5q-42 0 -74 14.5t-53.5 40.5t-32.5 62.5t-11 80.5q0 69 16 131t47 109t76.5 74.5t103.5 27.5q66 0 107 -28.5t56 -75.5h4l52 316h34l-123 -740h-34zM244 19q33 0 61.5 10.5t54.5 34.5q27 25 50 62.5t31 84.5l24 142
q4 26 -2.5 52t-24.5 46.5t-49 33t-74 12.5q-41 0 -75 -16t-59.5 -44t-42.5 -66t-24 -82l-9 -55q-4 -23 -4 -49q0 -35 8.5 -65t25.5 -52.5t44 -35.5t65 -13z" />
    <glyph glyph-name="e" unicode="e" 
d="M274 -12q-94 0 -143.5 56.5t-49.5 166.5q0 65 19.5 123t54.5 101t83.5 68t107.5 25q76 0 120.5 -33.5t44.5 -93.5q0 -26 -12.5 -55t-53.5 -54.5t-119 -43t-210 -20.5q-1 -8 -1 -16v-10q0 -38 8 -71.5t27 -58.5t50 -39.5t76 -14.5q64 0 110 35.5t81 101.5l27 -15
q-42 -78 -95 -115t-125 -37zM343 498q-40 0 -76.5 -14.5t-66 -42.5t-49.5 -68t-28 -92l-4 -26q113 2 183 15.5t108.5 34t52 45.5t13.5 50q0 42 -30.5 70t-102.5 28z" />
    <glyph glyph-name="f" unicode="f" 
d="M206 -212q-14 0 -25.5 10t-34.5 31l-157 146l22 22l191 -178l9 3l111 664h-191l5 30h191l29 174q4 24 16 37t38 13h210l-5 -30h-221l-33 -194h222l-5 -30h-222l-108 -647q-4 -23 -13 -37t-29 -14z" />
    <glyph glyph-name="g" unicode="g" 
d="M208 -212q-58 0 -97.5 18t-65.5 50l25 23q21 -28 54.5 -44t84.5 -16q80 0 130 41t65 134l21 127h-3q-29 -58 -72.5 -93.5t-111.5 -35.5q-42 0 -74 14.5t-53.5 40.5t-32.5 62.5t-11 80.5q0 68 16.5 129.5t47.5 108t76 73.5t103 27q66 0 107.5 -28.5t56.5 -75.5h3l15 92h34
l-89 -530q-17 -103 -76 -150.5t-153 -47.5zM244 23q33 0 61.5 10.5t54.5 34.5q26 23 49.5 60.5t31.5 85.5l24 139q4 26 -2.5 52t-24.5 46.5t-49 33t-74 12.5q-41 0 -75 -16t-60 -43.5t-43 -65.5t-24 -83l-8 -50q-4 -23 -4 -49q0 -35 8.5 -65.5t25.5 -53t44 -35.5t65 -13z
" />
    <glyph glyph-name="g.alt01" 
d="M227 -212q-102 0 -153 31.5t-51 85.5q0 49 31.5 82.5t84.5 48.5l1 5q-20 8 -31.5 24t-11.5 38q0 41 29 61.5t76 32.5l1 3q-35 20 -53.5 52.5t-18.5 74.5q0 45 15.5 82t42.5 63.5t64 41t81 14.5q35 0 62.5 -9.5t47.5 -26.5l6 38q6 37 43 37h107l-5 -32h-120l-11 -64
q29 -37 29 -89q0 -45 -15.5 -82t-42.5 -63.5t-64 -41t-81 -14.5q-31 0 -58 8q-52 -13 -78 -31.5t-26 -50.5q0 -20 15.5 -33.5t54.5 -13.5h138q81 0 117 -30.5t36 -83.5q0 -79 -67 -118.5t-195 -39.5zM58 -88q0 -48 42 -71t111 -23h44q44 0 80.5 7.5t63 23t41 39.5t14.5 56
q0 40 -27 62t-95 22h-163q-49 -13 -80 -41t-31 -75zM291 210q68 0 110 35t50 92q5 27 6 38t1 16q0 48 -32.5 78t-93.5 30q-67 0 -109 -35t-51 -92q-4 -27 -5.5 -37.5t-1.5 -16.5q0 -48 32.5 -78t93.5 -30z" />
    <glyph glyph-name="g.alt02" 
d="M227 -212q-102 0 -153 31.5t-51 85.5q0 49 31.5 82.5t84.5 48.5l1 5q-20 8 -31.5 24t-11.5 38q0 41 29 61.5t76 32.5l1 3q-35 20 -53.5 52.5t-18.5 74.5q0 45 15.5 82t42.5 63.5t64 41t81 14.5q38 0 70 -12h180l-4 -29h-132q45 -39 45 -105q0 -45 -15.5 -82t-42.5 -63.5
t-64 -41t-81 -14.5q-31 0 -58 8q-52 -13 -78 -31.5t-26 -50.5q0 -20 15.5 -33.5t54.5 -13.5h138q81 0 117 -30.5t36 -83.5q0 -79 -67 -118.5t-195 -39.5zM291 210q68 0 110 35t50 92q5 27 6 38t1 16q0 48 -32.5 78t-93.5 30q-67 0 -109 -35t-51 -92q-4 -27 -5.5 -37.5
t-1.5 -16.5q0 -48 32.5 -78t93.5 -30zM454 -56q0 40 -27 62t-95 22h-163q-49 -13 -80 -41t-31 -75q0 -48 42 -71t111 -23h44q44 0 80.5 7.5t63 23t41 39.5t14.5 56z" />
    <glyph glyph-name="h" unicode="h" 
d="M204 740h35l-57 -340h4q29 60 71 94t108 34t102 -37.5t36 -105.5q0 -14 -1.5 -29t-3.5 -30l-55 -326h-34l54 323q2 14 3.5 29t1.5 28q0 117 -112 117q-35 0 -68 -14.5t-60 -48.5q-7 -9 -16 -21.5t-18 -29t-16.5 -36t-11.5 -41.5l-51 -306h-34z" />
    <glyph glyph-name="i" unicode="i" 
d="M348 677q-20 0 -27 7t-7 16q0 6 3 18q3 13 12 20.5t26 7.5q20 0 27 -7t7 -16q0 -6 -3 -18q-3 -13 -12 -20.5t-26 -7.5zM235 -12q-16 0 -24 8.5t-8 22.5q0 5 1 12t4 24l84 431h-203l5 30h238l-95 -490l9 -5l249 177l18 -22l-205 -148q-29 -20 -44 -30t-29 -10z" />
    <glyph glyph-name="j" unicode="j" 
d="M317 -212q-13 0 -25 9t-35 31l-158 147l22 22l191 -177l9 2l111 664h-287l5 30h321l-113 -677q-4 -23 -12.5 -37t-28.5 -14zM480 677q-20 0 -27 7t-7 16q0 4 1 8t2 10q5 28 38 28q20 0 27 -7.5t7 -16.5q0 -7 -3 -17q-5 -28 -38 -28z" />
    <glyph glyph-name="k" unicode="k" 
d="M197 740h35l-56 -340h3q34 67 84 97.5t110 30.5q69 0 102.5 -33.5t33.5 -85.5q0 -25 -10 -51t-36 -51t-72.5 -47.5t-119.5 -39.5l110 -199l7 -1l166 153l19 -21l-124 -117q-27 -26 -40.5 -36.5t-27.5 -10.5q-13 0 -21 8t-18 26l-113 208q71 17 118 36.5t75 42t39.5 46.5
t11.5 50q0 42 -25 67.5t-83 25.5q-75 0 -127 -49q-32 -29 -51.5 -66t-26.5 -77l-51 -306h-35z" />
    <glyph glyph-name="l" unicode="l" 
d="M222 -12q-15 0 -23 8.5t-8 22.5q0 5 1 13t3 22l128 656h-202l5 30h237l-139 -715l11 -4l251 178l18 -22l-209 -150q-29 -20 -44 -29.5t-29 -9.5z" />
    <glyph glyph-name="m" unicode="m" 
d="M35 0l86 516h33l-13 -79h3q9 17 20 33.5t25.5 29t33 20.5t42.5 8q43 0 64.5 -25.5t18.5 -70.5h3q19 40 49.5 68t77.5 28q42 0 65 -27t23 -70q0 -11 -1 -23.5t-3 -24.5l-64 -383h-33l62 373l4 28t2 25q0 33 -16.5 52.5t-48.5 19.5q-24 0 -43 -10.5t-38 -32.5
q-15 -18 -27 -43t-17 -54l-60 -358h-33l63 375q2 16 4 30t2 25q0 35 -17 51.5t-47 16.5q-26 0 -46 -11.5t-35 -30.5q-14 -19 -28 -44.5t-19 -57.5l-59 -354h-33z" />
    <glyph glyph-name="n" unicode="n" 
d="M81 0l86 516h34l-19 -116h4q29 60 71 94t108 34t102 -37.5t36 -105.5q0 -14 -1.5 -29t-3.5 -30l-55 -326h-34l54 323q2 14 3.5 29t1.5 28q0 117 -112 117q-35 0 -68 -14.5t-60 -48.5q-7 -9 -16 -21.5t-18 -29t-16.5 -36t-11.5 -41.5l-51 -306h-34z" />
    <glyph glyph-name="o" unicode="o" 
d="M266 -12q-46 0 -81 15t-59 41.5t-36 63t-12 79.5q0 79 18.5 142.5t52 107.5t81 67.5t104.5 23.5q46 0 81 -15t59 -41.5t36 -63t12 -79.5q0 -80 -18.5 -143t-52 -107t-81 -67.5t-104.5 -23.5zM268 19q86 0 138 55.5t69 153.5l9 52q2 15 3 25.5t1 27.5q0 36 -9.5 66
t-28.5 51.5t-48.5 34t-69.5 12.5q-86 0 -138 -55.5t-69 -153.5l-9 -52q-2 -15 -3 -25.5t-1 -27.5q0 -36 9.5 -66t28.5 -51.5t48.5 -34t69.5 -12.5z" />
    <glyph glyph-name="p" unicode="p" 
d="M160 516h34l-19 -117h3q29 58 72.5 93.5t111.5 35.5q42 0 74 -14.5t53.5 -40.5t32.5 -62.5t11 -80.5q0 -69 -16 -131t-47 -109t-76.5 -74.5t-103.5 -27.5q-66 0 -107 28.5t-56 75.5h-4l-48 -292h-34zM285 19q41 0 75 16t59.5 44t42 66t24.5 82l9 55q4 23 4 49
q0 35 -8.5 65t-25.5 52.5t-44.5 35.5t-64.5 13q-33 0 -61.5 -10.5t-54.5 -34.5q-27 -25 -50 -62.5t-31 -84.5l-24 -142q-5 -26 2 -52t25 -46.5t48.5 -33t74.5 -12.5z" />
    <glyph glyph-name="q" unicode="q" 
d="M425 117h-3q-29 -58 -72.5 -93.5t-111.5 -35.5q-42 0 -74 14.5t-53.5 40.5t-32.5 62.5t-11 80.5q0 69 16 131t47 109t76.5 74.5t103.5 27.5q66 0 107 -28.5t56 -75.5h4l15 92h34l-119 -716h-34zM244 19q33 0 61.5 10.5t54.5 34.5q27 25 50 62.5t31 84.5l24 142
q4 26 -2.5 52t-24.5 46.5t-49 33t-74 12.5q-41 0 -75 -16t-59.5 -44t-42.5 -66t-24 -82l-9 -55q-4 -23 -4 -49q0 -35 8.5 -65t25.5 -52.5t44 -35.5t65 -13z" />
    <glyph glyph-name="r" unicode="r" 
d="M206 0l81 486h-170l5 30h204l-16 -99h3q14 23 30 41.5t36.5 31t46.5 19.5t61 7h109l-5 -33h-111q-66 0 -115 -36q-23 -17 -43 -44.5t-26 -65.5l-56 -337h-34z" />
    <glyph glyph-name="s" unicode="s" 
d="M281 -12q-155 0 -222 101l27 20q32 -48 80 -69.5t117 -21.5q83 0 132.5 34t49.5 101q0 47 -30 67.5t-83 25.5l-78 8q-30 3 -56 10.5t-45.5 21.5t-30.5 36t-11 54q0 40 16 69t43.5 47.5t64 27t77.5 8.5q39 0 69.5 -6.5t54.5 -17.5t41.5 -26t30.5 -31l-26 -22
q-10 14 -24 27.5t-35 23.5t-49 16t-65 6q-76 0 -120 -30t-44 -90q0 -48 30 -68t84 -25l77 -8q29 -3 55 -10t45.5 -21t31 -36t11.5 -54q0 -42 -17 -73.5t-46 -52.5t-69 -31.5t-86 -10.5z" />
    <glyph glyph-name="t" unicode="t" 
d="M219 -12q-15 0 -23.5 8t-8.5 20q0 8 0.5 16t3.5 24l74 430h-188l5 30h156q33 0 39 33l24 149h34l-30 -182h252l-5 -30h-253l-78 -460l10 -5l267 167l17 -24l-222 -139q-27 -18 -43 -27.5t-31 -9.5z" />
    <glyph glyph-name="u" unicode="u" 
d="M418 116h-3q-29 -59 -71.5 -93.5t-107.5 -34.5q-66 0 -103 37.5t-37 105.5q0 14 2 29l4 30l55 326h34l-54 -323q-2 -14 -3.5 -29t-1.5 -28q0 -117 112 -117q35 0 68.5 14.5t59.5 48.5q7 9 16 21.5t18 29t16.5 36t11.5 41.5l51 306h34l-86 -516h-34z" />
    <glyph glyph-name="v" unicode="v" 
d="M241 516l-70 -487l8 -7q72 2 131 34.5t100.5 85t64.5 119t23 137.5q0 63 -20 111l33 11q11 -25 16.5 -58t5.5 -63q0 -82 -27.5 -155.5t-75.5 -128.5t-112 -87.5t-137 -32.5q-22 0 -32.5 9t-10.5 24q0 8 3 28l62 430h-123l5 30h156z" />
    <glyph glyph-name="w" unicode="w" 
d="M154 -12q-44 0 -66 26.5t-22 66.5q0 19 2.5 39.5t5.5 40.5l59 355h33l-59 -354q-5 -26 -6.5 -42t-1.5 -33q0 -34 17 -51.5t46 -17.5q28 0 49.5 15t37.5 39q14 21 22.5 47.5t13.5 52.5l57 344h32l-56 -346q-3 -19 -5 -38.5t-2 -36.5q0 -35 16.5 -56t49.5 -21q37 0 66 26.5
t49 71.5t31 103.5t11 123.5q0 48 -7.5 93t-21.5 74l30 9q14 -31 22.5 -76t8.5 -99q0 -81 -15.5 -153.5t-48.5 -123.5q-23 -37 -55.5 -58t-74.5 -21q-39 0 -64.5 26t-22.5 83h-4q-18 -51 -49.5 -80t-77.5 -29z" />
    <glyph glyph-name="x" unicode="x" 
d="M116 -12q-44 0 -70 29t-26 86q0 12 1.5 31t5.5 38l34 2q-4 -19 -5.5 -34t-1.5 -33q0 -46 18 -68t50 -22q29 0 53 17t43 44.5t32.5 62t22.5 69.5t13.5 67t4.5 55q0 27 -4 53t-11 48t-16 39t-18 27l-9 2l-174 -85l-12 23l131 68q20 11 34 16t28 5q15 0 29 -13t25 -37.5
t17.5 -59.5t7.5 -78h4q23 96 67.5 142t98.5 46q44 0 70 -29t26 -86q0 -12 -1.5 -31t-5.5 -38l-34 -2q4 19 5.5 34t1.5 33q0 46 -18 68t-50 22q-29 0 -53 -17t-43 -44.5t-32.5 -62t-22.5 -69.5t-13.5 -67t-4.5 -55q0 -27 4 -53t11 -48t16 -39t19 -27l9 -2l167 93l14 -22
l-127 -75q-23 -14 -35 -18.5t-25 -4.5q-15 0 -29.5 13t-25.5 37.5t-18 59t-8 78.5h-4q-23 -96 -67.5 -142t-98.5 -46z" />
    <glyph glyph-name="y" unicode="y" 
d="M201 -212q-58 0 -97.5 18t-65.5 50l25 23q21 -28 54.5 -44t84.5 -16q80 0 130.5 41t65.5 134l21 125h-3q-29 -59 -71.5 -93t-107.5 -34q-67 0 -104 36.5t-37 104.5q0 28 6 60l55 323h35l-54 -320q-2 -14 -4 -29t-2 -28q0 -58 29 -87.5t84 -29.5q35 0 68 15t60 48
q7 9 16 21.5t18 28.5t16 35.5t11 41.5l51 304h34l-88 -530q-17 -103 -76.5 -150.5t-153.5 -47.5z" />
    <glyph glyph-name="z" unicode="z" 
d="M448 -12q-13 0 -27.5 3t-35.5 8l-284 65l-5 -5l-10 -59h-34l12 74l410 357q-83 35 -135 50.5t-91 15.5q-57 0 -83 -33t-27 -118h-31l1 19q5 82 37 122.5t104 40.5q40 0 92.5 -15.5t115.5 -42.5l39 -17l5 5l10 59h34l-12 -74l-408 -355l331 -72l7 7l-28 173l27 6l17 -89
q7 -32 11 -52.5t4 -32.5q0 -15 -12.5 -27.5t-33.5 -12.5z" />
    <glyph glyph-name="A" unicode="A" 
d="M473 0l-35 226h-283l-111 -226h-39l344 698h49l112 -698h-37zM370 659h-5l-196 -401h264z" />
    <glyph glyph-name="B" unicode="B" 
d="M172 698h209q77 0 117 -39.5t40 -112.5q0 -68 -31.5 -119t-95.5 -68v-3q50 -11 76.5 -47t26.5 -92q0 -102 -54.5 -159.5t-151.5 -57.5h-252zM304 32q72 0 114 34t51 90l6 35q3 18 3 32q0 49 -30.5 83t-95.5 34h-204l-51 -308h207zM343 371q67 0 105.5 35t46.5 88l5 31
q2 11 2 16.5v12.5q0 51 -29.5 81.5t-94.5 30.5h-175l-49 -295h189z" />
    <glyph glyph-name="C" unicode="C" 
d="M282 -12q-91 0 -143 57.5t-52 178.5q0 84 16.5 170.5t52.5 156.5t92 114.5t135 44.5q40 0 70 -10.5t51.5 -30t35.5 -46t23 -58.5l-33 -10q-8 28 -19.5 50.5t-29 38.5t-42 25t-58.5 9q-90 0 -153 -74t-86 -211l-11 -68q-5 -28 -6.5 -54.5t-1.5 -51.5q0 -98 41 -148.5
t120 -50.5q65 0 109.5 35.5t82.5 106.5l30 -15q-22 -41 -45 -70.5t-50 -49.5t-58.5 -29.5t-70.5 -9.5z" />
    <glyph glyph-name="D" unicode="D" 
d="M179 698h164q48 0 87 -15t67 -44t43 -71.5t15 -97.5q0 -98 -17.5 -183.5t-53.5 -149.5t-92.5 -100.5t-134.5 -36.5h-194zM259 32q94 0 156.5 66.5t84.5 197.5l12 68q5 27 6.5 53.5t1.5 51.5q0 96 -47 146.5t-132 50.5h-131l-106 -634h155z" />
    <glyph glyph-name="E" unicode="E" 
d="M61 0l116 698h411l-5 -32h-375l-49 -296h361l-5 -32h-362l-51 -306h375l-5 -32h-411z" />
    <glyph glyph-name="F" unicode="F" 
d="M61 0l116 698h416l-5 -32h-380l-49 -296h351l-5 -32h-352l-56 -338h-36z" />
    <glyph glyph-name="G" unicode="G" 
d="M455 103h-3q-14 -24 -30.5 -45t-37.5 -36.5t-47.5 -24.5t-61.5 -9q-95 0 -143 57t-48 179q0 84 15.5 170t50 156.5t90.5 115t137 44.5q82 0 125 -40.5t60 -104.5l-32 -10q-16 56 -51.5 89.5t-103.5 33.5q-94 0 -154 -74.5t-83 -210.5l-11 -68q-5 -29 -6.5 -55.5
t-1.5 -49.5q0 -99 37.5 -149.5t124.5 -50.5q38 0 70 13.5t56.5 38t41 58t23.5 72.5l15 89h-172l6 31h205l-54 -322h-34z" />
    <glyph glyph-name="H" unicode="H" 
d="M483 338h-339l-57 -338h-36l116 698h36l-54 -328h339l55 328h36l-116 -698h-36z" />
    <glyph glyph-name="I" unicode="I" 
d="M47 0l5 30h192l106 638h-192l5 30h420l-5 -30h-192l-106 -638h192l-5 -30h-420z" />
    <glyph glyph-name="J" unicode="J" 
d="M539 698l-86 -515q-16 -96 -73 -145.5t-142 -49.5q-77 0 -120.5 37.5t-48.5 101.5l35 7q5 -56 39 -84.5t94 -28.5q75 0 121.5 44t60.5 128l79 473h-276l5 32h312z" />
    <glyph glyph-name="K" unicode="K" 
d="M285 377l-150 -142l-39 -235h-36l117 698h36l-69 -410h3l154 148l277 262h46l-311 -296l196 -402h-39z" />
    <glyph glyph-name="L" unicode="L" 
d="M97 0l116 698h36l-111 -666h353l-5 -32h-389z" />
    <glyph glyph-name="M" unicode="M" 
d="M550 645h-4l-249 -407l-114 407h-4l-107 -645h-34l116 698h48l104 -381h4l232 381h50l-116 -698h-34z" />
    <glyph glyph-name="N" unicode="N" 
d="M198 655h-4l-109 -655h-34l116 698h54l211 -655h4l109 655h34l-116 -698h-54z" />
    <glyph glyph-name="O" unicode="O" 
d="M262 -12q-94 0 -141.5 56.5t-47.5 175.5q0 57 7 115t21.5 112.5t37.5 102.5t55.5 83.5t75 56t96.5 20.5q94 0 141.5 -56.5t47.5 -175.5q0 -57 -7 -115t-21.5 -112.5t-37.5 -102.5t-55.5 -83.5t-75.5 -56t-96 -20.5zM264 20q92 0 152.5 74t83.5 210l12 72q5 29 6.5 55.5
t1.5 49.5q0 97 -36.5 147t-119.5 50q-92 0 -152.5 -74t-83.5 -210l-12 -72q-5 -29 -6.5 -55.5t-1.5 -49.5q0 -97 36.5 -147t119.5 -50z" />
    <glyph glyph-name="P" unicode="P" 
d="M61 0l116 698h238q77 0 118.5 -43.5t41.5 -110.5q0 -52 -13.5 -94t-40 -72t-65 -46t-89.5 -16h-217l-53 -316h-36zM155 348h214q72 0 112 37t49 95l6 37q1 8 1.5 14.5t0.5 14.5q0 25 -7.5 46.5t-23 38t-39.5 26t-56 9.5h-204z" />
    <glyph glyph-name="Q" unicode="Q" 
d="M377 -172q-19 0 -32 21l-95 139q-88 4 -132.5 60.5t-44.5 171.5q0 57 7 115t21.5 112.5t37.5 102.5t55.5 83.5t75 56t96.5 20.5q94 0 141.5 -56.5t47.5 -175.5q0 -54 -6 -110t-19.5 -108.5t-34.5 -99t-50.5 -83t-68 -59.5t-86.5 -28l88 -131l5 -1l118 100l20 -18
l-105 -92q-21 -20 -39 -20zM264 20q92 0 152.5 74t83.5 210l12 72q5 29 6.5 55.5t1.5 49.5q0 97 -36.5 147t-119.5 50q-92 0 -152.5 -74t-83.5 -210l-12 -72q-5 -29 -6.5 -55.5t-1.5 -49.5q0 -97 36.5 -147t119.5 -50z" />
    <glyph glyph-name="R" unicode="R" 
d="M97 0h-36l116 698h238q77 0 118.5 -43.5t41.5 -110.5q0 -103 -52 -164t-151 -63h-35l146 -317h-38l-144 317h-151zM369 348q72 0 111.5 36.5t49.5 95.5l6 37q1 8 1.5 14.5t0.5 14.5q0 25 -7.5 46.5t-23 38t-39.5 26t-56 9.5h-204l-53 -318h214z" />
    <glyph glyph-name="S" unicode="S" 
d="M272 -12q-95 0 -150.5 31.5t-87.5 83.5l28 22q16 -25 35 -44.5t44.5 -33t58 -20.5t74.5 -7q94 0 147.5 46.5t53.5 131.5q0 55 -29.5 87t-96.5 47l-84 20q-76 17 -111.5 57.5t-35.5 105.5q0 48 17 84t47 61t72 37.5t93 12.5q93 0 144 -27.5t78 -74.5l-28 -19
q-14 24 -32 40.5t-41.5 27.5t-53.5 16t-68 5q-88 0 -140 -41t-52 -121q0 -56 30 -87t96 -46l83 -19q78 -18 113.5 -59t35.5 -105q0 -50 -17 -89.5t-48.5 -66.5t-75.5 -41.5t-99 -14.5z" />
    <glyph glyph-name="T" unicode="T" 
d="M386 666l-111 -666h-36l111 666h-245l5 32h526l-5 -32h-245z" />
    <glyph glyph-name="U" unicode="U" 
d="M203 698l-70 -421q-7 -42 -10.5 -70t-3.5 -52q0 -73 32.5 -104t110.5 -31q52 0 87 13.5t58.5 43.5t38 78t26.5 117l71 426h36l-70 -423q-13 -80 -31 -134.5t-46 -88.5t-69.5 -49t-101.5 -15q-93 0 -135 38.5t-42 126.5q0 28 4 62.5t11 71.5l68 411h36z" />
    <glyph glyph-name="V" unicode="V" 
d="M232 0l-109 698h36l102 -659h3l319 659h39l-340 -698h-50z" />
    <glyph glyph-name="W" unicode="W" 
d="M74 0l51 698h33l-49 -662h5l202 456h44l50 -456h5l172 662h33l-181 -698h-57l-49 446h-4l-197 -446h-58z" />
    <glyph glyph-name="X" unicode="X" 
d="M515 0h-39l-159 325h-3l-268 -325h-44l296 357l-170 341h40l153 -311h3l255 311h44l-283 -343z" />
    <glyph glyph-name="Y" unicode="Y" 
d="M239 0l48 289l-189 409h39l170 -372h3l295 372h43l-324 -408l-49 -290h-36z" />
    <glyph glyph-name="Z" unicode="Z" 
d="M509 0h-504l6 34l546 632h-419l5 32h461l-5 -34l-546 -632h461z" />
    <glyph glyph-name="zero" unicode="0" 
d="M262 -12q-94 0 -141.5 56.5t-47.5 175.5q0 57 7 115t21.5 112.5t37.5 102.5t55.5 83.5t75 56t96.5 20.5q94 0 141.5 -56.5t47.5 -175.5q0 -57 -7 -115t-21.5 -112.5t-37.5 -102.5t-55.5 -83.5t-75.5 -56t-96 -20.5zM264 20q92 0 152.5 74t83.5 210l12 72q5 29 6.5 55.5
t1.5 49.5q0 97 -36.5 147t-119.5 50q-92 0 -152.5 -74t-83.5 -210l-12 -72q-5 -29 -6.5 -55.5t-1.5 -49.5q0 -97 36.5 -147t119.5 -50zM309 316q-17 0 -24 6.5t-7 14.5v7.5t2 9.5q3 14 11.5 21t27.5 7q17 0 24 -6.5t7 -14.5v-7.5t-2 -9.5q-3 -14 -11.5 -21t-27.5 -7z" />
    <glyph glyph-name="zero.alt01" 
d="M262 -12q-94 0 -141.5 56.5t-47.5 175.5q0 57 7 115t21.5 112.5t37.5 102.5t55.5 83.5t75 56t96.5 20.5q94 0 141.5 -56.5t47.5 -175.5q0 -57 -7 -115t-21.5 -112.5t-37.5 -102.5t-55.5 -83.5t-75.5 -56t-96 -20.5zM364 678q-92 0 -152.5 -74t-83.5 -210l-12 -72
q-5 -29 -6.5 -55.5t-1.5 -49.5v-16t1 -16l406 362q-11 65 -47.5 98t-103.5 33zM264 20q92 0 152.5 74t83.5 210l12 72q5 29 6.5 55.5t1.5 49.5v16t-1 16l-406 -362q11 -65 47.5 -98t103.5 -33z" />
    <glyph glyph-name="zero.alt02" 
d="M262 -12q-94 0 -141.5 56.5t-47.5 175.5q0 57 7 115t21.5 112.5t37.5 102.5t55.5 83.5t75 56t96.5 20.5q94 0 141.5 -56.5t47.5 -175.5q0 -57 -7 -115t-21.5 -112.5t-37.5 -102.5t-55.5 -83.5t-75.5 -56t-96 -20.5zM264 20q92 0 152.5 74t83.5 210l12 72q5 29 6.5 55.5
t1.5 49.5q0 97 -36.5 147t-119.5 50q-92 0 -152.5 -74t-83.5 -210l-12 -72q-5 -29 -6.5 -55.5t-1.5 -49.5q0 -97 36.5 -147t119.5 -50z" />
    <glyph glyph-name="one" unicode="1" 
d="M48 0l5 32h215l106 639h-4l-234 -177l-19 25l237 179h61l-111 -666h205l-5 -32h-456z" />
    <glyph glyph-name="two" unicode="2" 
d="M482 0h-442l7 38l308 263q62 51 96.5 95.5t42.5 95.5q5 26 5.5 37t0.5 19q0 57 -36.5 93.5t-110.5 36.5q-71 0 -117 -33.5t-72 -101.5l-32 12q29 76 84.5 115.5t140.5 39.5q44 0 77.5 -12.5t56.5 -34.5t34.5 -51.5t11.5 -63.5q0 -40 -9.5 -74t-29 -66t-49.5 -63.5
t-71 -65.5l-291 -247h400z" />
    <glyph glyph-name="three" unicode="3" 
d="M301 382q80 0 129 34t60 97l3 27t1 15q0 58 -39.5 90.5t-105.5 32.5q-67 0 -109 -24.5t-70 -73.5l-27 18q29 51 79.5 81.5t130.5 30.5q38 0 70.5 -10.5t56.5 -30t38 -48t14 -64.5q0 -79 -43 -127.5t-123 -62.5v-4q26 -3 48.5 -15t39.5 -31.5t26.5 -46t9.5 -57.5
q0 -52 -17 -93.5t-48 -71t-75 -45t-98 -15.5q-79 0 -131.5 28.5t-78.5 82.5l29 17q24 -49 68 -72.5t116 -23.5q80 0 131 38.5t62 107.5q4 23 4.5 32.5t0.5 16.5q0 61 -39 98t-116 37h-92l5 32h90z" />
    <glyph glyph-name="four" unicode="4" 
d="M361 0l26 155h-360l6 34l433 509h47l-86 -513h114l-5 -30h-114l-26 -155h-35zM69 185h323l79 469h-4z" />
    <glyph glyph-name="five" unicode="5" 
d="M553 666h-321l-75 -319h3q32 37 70.5 54t92.5 17q88 0 135 -47t47 -127q0 -59 -16.5 -106.5t-48 -80.5t-77 -51t-103.5 -18q-70 0 -124.5 28t-79.5 82l30 18q24 -51 70.5 -73.5t104.5 -22.5q90 0 139 44.5t62 119.5q5 26 5.5 37.5t0.5 21.5q0 66 -38.5 104.5t-114.5 38.5
q-29 0 -51 -4.5t-41 -13t-35.5 -21t-33.5 -28.5l-35 4l88 375h351z" />
    <glyph glyph-name="six" unicode="6" 
d="M266 -12q-95 0 -143 53t-48 137t28.5 160.5t77 143t112.5 121.5t135 95h52q-71 -42 -127 -85t-99 -90.5t-74 -100.5t-53 -116l4 -1q33 60 85.5 87.5t116.5 27.5q41 0 75 -12t58 -35t37.5 -55.5t13.5 -72.5q0 -54 -17.5 -101t-50.5 -81.5t-79.5 -54.5t-103.5 -20zM267 20
q42 0 77.5 12.5t62.5 35t44 53.5t23 68q4 25 5 36t1 19q0 65 -39.5 105t-117.5 40q-42 0 -77 -12.5t-62 -35t-44 -53.5t-23 -68q-4 -25 -5 -36t-1 -19q0 -65 39 -105t117 -40z" />
    <glyph glyph-name="seven" unicode="7" 
d="M141 0l404 666h-370l-26 -158h-34l32 190h442l-5 -32l-403 -666h-40z" />
    <glyph glyph-name="eight" unicode="8" 
d="M261 -12q-49 0 -87.5 12.5t-64.5 34.5t-40 53t-14 69q0 82 49.5 138t135.5 71v5q-49 14 -76.5 49t-27.5 89q0 44 16.5 81t47 63.5t73.5 41.5t96 15q89 0 138.5 -41.5t49.5 -110.5q0 -73 -42 -123.5t-114 -67.5v-5q58 -16 89.5 -54.5t31.5 -101.5q0 -48 -18.5 -88
t-52.5 -69t-82.5 -45t-107.5 -16zM265 20q44 0 81 11t65 30.5t45.5 47t23.5 60.5q4 23 4.5 31.5t0.5 16.5q0 60 -45.5 97t-126.5 37q-44 0 -81 -11t-65 -30.5t-45.5 -47t-23.5 -60.5q-4 -23 -4.5 -31.5t-0.5 -16.5q0 -60 45.5 -97t126.5 -37zM327 382q79 0 128 36t60 97
q3 20 3.5 29t0.5 16q0 55 -40.5 86.5t-113.5 31.5q-79 0 -128 -36t-60 -97q-3 -20 -3.5 -29t-0.5 -16q0 -55 40.5 -86.5t113.5 -31.5z" />
    <glyph glyph-name="nine" unicode="9" 
d="M543 520q0 -84 -28.5 -160.5t-77 -143t-112.5 -121.5t-135 -95h-52q71 42 127 85t99 90.5t74 100.5t53 116l-4 1q-33 -60 -85.5 -87.5t-116.5 -27.5q-41 0 -75 12t-58 35t-37.5 55t-13.5 73q0 54 17.5 101t50.5 81.5t79.5 54.5t103.5 20q95 0 143 -53t48 -137zM295 309
q42 0 77 12.5t62 35t44 53.5t23 68q4 25 5 36t1 19q0 65 -39 105t-117 40q-42 0 -77.5 -12.5t-62.5 -35t-44 -53.5t-23 -68q-4 -25 -5 -36t-1 -19q0 -65 39.5 -105t117.5 -40z" />
    <glyph glyph-name="ampersand" unicode="&#x26;" 
d="M175 -12q-40 0 -71 13t-52 36t-31.5 54t-10.5 66q0 48 11 87.5t35 69t61.5 47t90.5 22.5q-16 28 -26.5 49.5t-17 40t-9.5 35.5t-3 35q0 43 12.5 74.5t34.5 52t52 30.5t64 10q33 0 61.5 -9.5t49.5 -28.5t33 -47.5t12 -67.5q0 -53 -14.5 -92.5t-40 -67t-60.5 -44.5t-77 -25
l186 -308h7l92 142l25 -13l-67 -109q-17 -28 -27.5 -40t-24.5 -12t-24 6.5t-24 31.5l-69 116h-3q-8 -43 -25 -72.5t-40 -47.5t-51.5 -26t-58.5 -8zM178 19q26 0 51.5 7t47 24t37.5 45t24 70l-118 197q-81 -10 -119 -44t-48 -92q-6 -32 -6.5 -45t-0.5 -23q0 -30 8 -55
t24.5 -44t41 -29.5t58.5 -10.5zM314 679q-27 0 -50 -7t-40 -23t-27 -42t-10 -63q0 -17 2.5 -33t9 -35t18.5 -42.5t31 -53.5l19 -32q64 14 106 46t53 92q7 32 8.5 47t1.5 24q0 61 -32.5 91.5t-89.5 30.5z" />
    <glyph glyph-name="at" unicode="@" 
d="M411 -107h-133q-109 0 -155.5 59t-46.5 167q0 41 5.5 89t14.5 104q18 107 42 182.5t57 123.5t75.5 70t97.5 22q47 0 80 -13t53.5 -35.5t30 -53t9.5 -66.5q0 -39 -6 -79l-61 -369h-32l13 80h-3q-20 -37 -48 -63t-73 -26q-51 0 -79.5 36t-28.5 108q0 23 4 47.5t9 50.5
q18 91 56.5 132.5t98.5 41.5q43 0 69 -21t34 -53h3l6 36q4 19 5.5 38t1.5 36q0 68 -32 106t-111 38q-91 0 -148 -82t-85 -263l-11 -71q-7 -41 -11 -80.5t-4 -70.5q0 -45 8.5 -81t29 -60.5t53.5 -37.5t82 -13h135zM342 113q23 0 43.5 12t37.5 32t28.5 44.5t16.5 51.5l18 113
q8 46 -14.5 76.5t-76.5 30.5q-47 0 -81 -35t-47 -119l-6 -38q-6 -33 -6 -57q0 -61 23 -86t64 -25z" />
    <glyph glyph-name="hyphen" unicode="-" 
d="M170 287l6 35h269l-6 -35h-269z" />
    <glyph glyph-name="uni00AD" unicode="&#xad;" 
d="M170 287l6 35h269l-6 -35h-269z" />
    <glyph glyph-name="endash" unicode="&#x2013;" 
d="M65 289l5 32h479l-5 -32h-479z" />
    <glyph glyph-name="emdash" unicode="&#x2014;" 
d="M6 289l5 32h598l-5 -32h-598z" />
    <glyph glyph-name="underscore" unicode="_" 
d="M-4 -147l5 31h479l-5 -31h-479z" />
    <glyph glyph-name="period" unicode="." 
d="M256 -6q-37 0 -37 28q0 4 0.5 8.5t1.5 9.5q6 34 48 34q37 0 37 -28q0 -4 -0.5 -8.5t-1.5 -9.5q-6 -34 -48 -34z" />
    <glyph glyph-name="ellipsis" unicode="&#x2026;" 
d="M81 -5q-35 0 -35 26q0 8 3 20q3 14 13.5 23t30.5 9q35 0 35 -26q0 -8 -3 -20q-3 -14 -13.5 -23t-30.5 -9zM257 -5q-35 0 -35 26q0 8 3 20q3 14 13.5 23t30.5 9q35 0 35 -26q0 -8 -3 -20q-3 -14 -13.5 -23t-30.5 -9zM433 -5q-35 0 -35 26q0 8 3 20q3 14 13.5 23t30.5 9
q35 0 35 -26q0 -8 -3 -20q-3 -14 -13.5 -23t-30.5 -9z" />
    <glyph glyph-name="colon" unicode=":" 
d="M256 -6q-37 0 -37 28q0 4 0.5 8.5t1.5 9.5q6 34 48 34q37 0 37 -28q0 -4 -0.5 -8.5t-1.5 -9.5q-6 -34 -48 -34zM330 442q-37 0 -37 28q0 4 0.5 8.5t1.5 9.5q6 34 48 34q37 0 37 -28q0 -4 -0.5 -8.5t-1.5 -9.5q-6 -34 -48 -34z" />
    <glyph glyph-name="comma" unicode="," 
d="M249 92h62l-128 -257h-30z" />
    <glyph glyph-name="semicolon" unicode=";" 
d="M249 92h62l-128 -257h-30zM330 442q-37 0 -37 28q0 4 0.5 8.5t1.5 9.5q6 34 48 34q37 0 37 -28q0 -4 -0.5 -8.5t-1.5 -9.5q-6 -34 -48 -34z" />
    <glyph glyph-name="quotesingle" unicode="'" 
d="M320 484l43 256h36l-43 -256h-36z" />
    <glyph glyph-name="quotedbl" unicode="&#x22;" 
d="M250 484l43 256h36l-43 -256h-36zM391 484l43 256h36l-43 -256h-36z" />
    <glyph glyph-name="quoteleft" unicode="&#x2018;" 
d="M399 740h29l-96 -256h-62z" />
    <glyph glyph-name="quoteright" unicode="&#x2019;" 
d="M387 740h62l-128 -256h-30z" />
    <glyph glyph-name="quotedblleft" unicode="&#x201c;" 
d="M310 740h29l-96 -256h-62zM491 740h29l-96 -256h-62z" />
    <glyph glyph-name="quotedblright" unicode="&#x201d;" 
d="M298 740h62l-128 -256h-30zM479 740h62l-128 -256h-30z" />
    <glyph glyph-name="quotesinglbase" unicode="&#x201a;" 
d="M249 92h62l-128 -257h-30z" />
    <glyph glyph-name="quotedblbase" unicode="&#x201e;" 
d="M165 92h62l-128 -257h-30zM346 92h62l-128 -257h-30z" />
    <glyph glyph-name="guilsinglleft" unicode="&#x2039;" 
d="M349 71l-181 181l5 33l241 180l9 -26l-216 -173l158 -171z" />
    <glyph glyph-name="guilsinglright" unicode="&#x203a;" 
d="M180 98l217 173l-159 171l16 23l182 -180l-5 -33l-242 -181z" />
    <glyph glyph-name="guillemotleft" unicode="&#xab;" 
d="M263 71l-181 181l5 33l241 180l9 -26l-216 -173l158 -171zM480 71l-181 181l5 33l241 180l9 -26l-216 -173l158 -171z" />
    <glyph glyph-name="guillemotright" unicode="&#xbb;" 
d="M50 98l217 173l-159 171l16 23l182 -180l-5 -33l-242 -181zM267 98l217 173l-159 171l16 23l182 -180l-5 -33l-242 -181z" />
    <glyph glyph-name="exclamdown" unicode="&#xa1;" 
d="M208 -182l44 264l51 244h17l-31 -244l-44 -264h-37zM331 442q-37 0 -37 28q0 4 0.5 8.5t1.5 9.5q6 34 48 34q37 0 37 -28q0 -4 -0.5 -8.5t-1.5 -9.5q-6 -34 -48 -34z" />
    <glyph glyph-name="exclam" unicode="!" 
d="M280 190l31 244l44 264h37l-44 -264l-51 -244h-17zM256 -6q-37 0 -37 28q0 4 0.5 8.5t1.5 9.5q6 34 48 34q37 0 37 -28q0 -4 -0.5 -8.5t-1.5 -9.5q-6 -34 -48 -34z" />
    <glyph glyph-name="questiondown" unicode="&#xbf;" 
d="M226 -194q-82 0 -130 43.5t-48 115.5q0 97 60.5 154.5t178.5 69.5l24 142h35l-28 -169q-109 -10 -163 -47t-65 -109q-2 -10 -3.5 -23t-1.5 -19q0 -59 37 -93t106 -34q76 0 120 35.5t69 97.5l32 -12q-26 -68 -80.5 -110t-142.5 -42zM360 522q37 0 37 -28q0 -4 -0.5 -8.5
t-1.5 -9.5q-6 -34 -48 -34q-37 0 -37 28q0 4 0.5 8.5t1.5 9.5q6 34 48 34z" />
    <glyph glyph-name="question" unicode="?" 
d="M249 185l28 169q109 10 163 47t65 109q2 10 3.5 23t1.5 19q0 59 -37 93t-106 34q-76 0 -120 -35.5t-69 -97.5l-32 12q26 68 80.5 110t142.5 42q82 0 130 -43.5t48 -115.5q0 -97 -60.5 -154.5t-178.5 -69.5l-24 -142h-35zM235 -6q-37 0 -37 28q0 4 0.5 8.5t1.5 9.5
q6 34 48 34q37 0 37 -28q0 -4 -0.5 -8.5t-1.5 -9.5q-6 -34 -48 -34z" />
    <glyph glyph-name="parenleft" unicode="(" 
d="M229 228q0 90 23.5 169.5t63 147t91 122t107.5 93.5h40q-50 -34 -95.5 -78t-83 -96t-64 -111t-37.5 -122l-7 -46q-3 -22 -5 -42.5t-2 -41.5q0 -111 38.5 -199t104.5 -162h-34q-29 32 -54.5 71.5t-44.5 85.5t-30 98t-11 111z" />
    <glyph glyph-name="parenright" unicode=")" 
d="M390 394q0 -90 -23.5 -169.5t-63 -147t-91 -122t-107.5 -93.5h-40q49 34 95 78t83.5 96t64 111t37.5 122l7 46q3 22 5 42.5t2 41.5q0 111 -38.5 199t-104.5 162h34q29 -32 54.5 -71.5t44.5 -85.5t30 -98.5t11 -110.5z" />
    <glyph glyph-name="bracketleft" unicode="[" 
d="M189 -138l150 898h247l-5 -28h-216l-140 -842h216l-5 -28h-247z" />
    <glyph glyph-name="bracketright" unicode="]" 
d="M423 760l-150 -898h-247l5 28h216l140 842h-216l5 28h247z" />
    <glyph glyph-name="braceleft" unicode="{" 
d="M234 -138q-37 0 -37 31q0 1 0.5 5t2.5 15t5.5 32t9.5 56q4 30 13 51t19 36.5t20.5 26.5t18.5 19q28 28 39.5 45t11.5 41q0 39 -36.5 58t-105.5 19h-75l5 28h75q84 0 127.5 24t43.5 73q0 14 -5.5 29.5t-19.5 37.5q-5 8 -11 16.5t-11 19.5t-8.5 25t-3.5 33q0 8 5 39.5
t17 95.5q4 20 16 31t33 11h187l-5 -28h-197q-8 -40 -12.5 -66.5t-7.5 -43.5t-4 -26t-1 -14q0 -31 9 -46.5t18 -30.5q14 -24 23.5 -43t9.5 -39q0 -49 -35.5 -77.5t-99.5 -34.5v-2q45 -5 73 -26.5t28 -59.5q0 -31 -15 -52.5t-45 -52.5q-7 -8 -16 -17.5t-18 -23t-17 -32.5
t-12 -46l-19 -109h198l-5 -28h-186z" />
    <glyph glyph-name="braceright" unicode="}" 
d="M383 760q37 0 37 -31q0 -2 -0.5 -5.5t-2.5 -14.5t-5.5 -32t-9.5 -56q-5 -30 -13.5 -51t-18.5 -36.5t-20.5 -26.5t-18.5 -19q-14 -14 -24 -25t-16 -20.5t-8.5 -19t-2.5 -21.5q0 -39 36.5 -58t105.5 -19h75l-5 -28h-75q-84 0 -127.5 -24t-43.5 -73q0 -14 5.5 -29.5
t19.5 -37.5q10 -16 22 -36.5t12 -57.5q0 -8 -5 -39.5t-17 -95.5q-4 -20 -16 -31t-33 -11h-187l5 28h197q7 40 12 66.5t8 43.5t4 26t1 14q0 31 -9 46.5t-18 30.5q-14 24 -23.5 43t-9.5 39q0 49 35.5 77.5t99.5 34.5v2q-45 5 -73 26.5t-28 59.5q0 31 15 52.5t45 52.5
q7 8 16 17.5t18 23t16.5 32.5t12.5 46l19 109h-198l5 28h186z" />
    <glyph glyph-name="slash" unicode="/" 
d="M36 -138l507 898h33l-508 -898h-32z" />
    <glyph glyph-name="backslash" unicode="\" 
d="M403 -138l-208 898h28l208 -898h-28z" />
    <glyph glyph-name="fraction" unicode="&#x2044;" 
d="M610 698h33l-223 -300h-34zM211 300h33l-223 -300h-34z" />
    <glyph glyph-name="percent" unicode="%" 
d="M197 372q-52 0 -86.5 33t-34.5 95q0 54 14 93.5t37 65.5t52.5 38.5t61.5 12.5q52 0 86.5 -33t34.5 -95q0 -54 -14 -93.5t-37 -65.5t-53 -38.5t-61 -12.5zM197 398q45 0 80 28.5t46 93.5q6 33 7.5 45.5t1.5 20.5q0 51 -26.5 74.5t-64.5 23.5q-45 0 -80 -28.5t-46 -93.5
q-6 -32 -7.5 -45t-1.5 -21q0 -51 26.5 -74.5t64.5 -23.5zM614 698h34l-225 -300h-34zM207 300h34l-224 -300h-34zM389 -12q-51 0 -85.5 33t-34.5 95q0 54 14 93.5t37 65.5t52.5 38.5t61.5 12.5q52 0 86.5 -33t34.5 -95q0 -54 -14 -93.5t-37 -65.5t-53 -38.5t-62 -12.5z
M390 14q45 0 80 28.5t46 93.5q5 32 7 45t2 21q0 51 -27 74.5t-65 23.5q-45 0 -79.5 -28.5t-46.5 -93.5q-5 -33 -6.5 -45.5t-1.5 -20.5q0 -51 26.5 -74.5t64.5 -23.5z" />
    <glyph glyph-name="perthousand" unicode="&#x2030;" 
d="M161 400q-48 0 -80 30t-32 84q0 51 12.5 88t34 61t50 35.5t59.5 11.5q48 0 80 -30t32 -84q0 -51 -12.5 -88t-34 -61t-50 -35.5t-59.5 -11.5zM163 425q42 0 74 26t41 84q3 16 5 26.5t2.5 17.5t1 11.5t0.5 8.5q0 45 -25 65.5t-58 20.5q-42 0 -74 -26t-42 -84
q-6 -32 -7 -44.5t-1 -19.5q0 -45 24.5 -65.5t58.5 -20.5zM80 314l475 184l9 -23l-475 -184zM201 -12q-48 0 -80.5 30t-32.5 84q0 51 12.5 88t34 61t50 35.5t59.5 11.5q37 0 65 -19.5t38 -54.5h3q21 38 53 56t70 18q48 0 80.5 -30t32.5 -84q0 -51 -12.5 -88t-34 -61
t-50 -35.5t-59.5 -11.5q-37 0 -65 19.5t-38 55.5h-3q-21 -38 -53 -56.5t-70 -18.5zM202 13q42 0 74 26t42 84q3 16 4.5 26.5t2 17.5t1 11.5t0.5 8.5q0 45 -25 65.5t-58 20.5q-42 0 -74 -26t-42 -84q-5 -32 -6.5 -44.5t-1.5 -19.5q0 -45 25 -65.5t58 -20.5zM431 13
q42 0 74 26t42 84q3 16 4.5 26.5t2 17.5t1 11.5t0.5 8.5q0 45 -25 65.5t-58 20.5q-42 0 -74 -26t-41 -84q-6 -32 -7.5 -44.5t-1.5 -19.5q0 -45 25 -65.5t58 -20.5z" />
    <glyph glyph-name="bar" unicode="|" 
d="M218 -138l150 898h32l-150 -898h-32z" />
    <glyph glyph-name="brokenbar" unicode="&#xa6;" 
d="M308 401l60 359h32l-60 -359h-32zM218 -138l60 359h32l-60 -359h-32z" />
    <glyph glyph-name="section" unicode="&#xa7;" 
d="M432 7q0 -77 -52 -119t-139 -42q-50 0 -88.5 14.5t-64.5 40.5l23 23q23 -23 55 -35t76 -12q73 0 114.5 33t41.5 95q0 47 -26 73.5t-72 39.5l-73 21q-60 17 -88 48.5t-28 81.5q0 61 36.5 99.5t105.5 59.5v4q-63 41 -63 117q0 77 52 119t139 42q50 0 88.5 -14.5t64.5 -40.5
l-23 -23q-23 23 -55 35t-76 12q-73 0 -114.5 -33t-41.5 -95q0 -47 26 -73.5t72 -39.5l73 -21q60 -17 88 -48.5t28 -80.5q0 -62 -36.5 -100.5t-105.5 -59.5v-4q63 -41 63 -117zM477 282q0 42 -22.5 67t-77.5 41l-73 21q-8 2 -15 4.5t-13 4.5q-62 -23 -96.5 -57t-34.5 -89
q0 -42 22.5 -67t77.5 -41l73 -21q8 -2 15 -4.5t13 -4.5q62 23 96.5 57t34.5 89z" />
    <glyph glyph-name="paragraph" unicode="&#xb6;" 
d="M293 246q-46 0 -83 14t-62.5 39.5t-39 61.5t-13.5 79q0 56 20.5 103t56 81.5t84 54t104.5 19.5h192l-141 -847h-33l136 817h-118l-136 -817h-33z" />
    <glyph glyph-name="copyright" unicode="&#xa9;" 
d="M275 18q-58 0 -106 19.5t-82.5 56t-54 88t-19.5 116.5q0 86 25.5 156.5t71 120.5t108 77.5t136.5 27.5q58 0 106 -19.5t82.5 -56t54 -88.5t19.5 -116q0 -86 -25.5 -156.5t-71 -120.5t-108 -77.5t-136.5 -27.5zM276 44q60 0 110.5 20t89.5 55t65 82t35 101q7 43 9.5 62.5
t2.5 35.5q0 54 -15.5 100.5t-45.5 80.5t-74 53.5t-100 19.5q-60 0 -110.5 -20t-89.5 -55t-65 -82t-35 -101q-4 -21 -6 -36t-3.5 -26.5t-2 -19.5t-0.5 -16q0 -54 15.5 -100.5t45.5 -80.5t74 -53.5t100 -19.5zM292 184q-48 0 -80 33t-32 98q0 44 11.5 80.5t33 63t51 41
t65.5 14.5q42 0 66 -19t34 -48l-26 -10q-10 25 -26.5 38t-50.5 13q-45 0 -77.5 -28t-43.5 -88l-5 -29q-3 -18 -3 -34q0 -48 23 -73.5t61 -25.5q33 0 57.5 15t41.5 41l21 -14q-18 -29 -48.5 -48.5t-72.5 -19.5z" />
    <glyph glyph-name="registered" unicode="&#xae;" 
d="M323 346q-36 0 -66 11.5t-52.5 32t-35 50t-12.5 65.5q0 46 15.5 84t42.5 65t63.5 41.5t79.5 14.5q36 0 66 -11.5t52.5 -32t35 -50t12.5 -65.5q0 -46 -15.5 -84t-42.5 -65t-63.5 -41.5t-79.5 -14.5zM324 366q67 0 113 37t58 99q4 21 5 31t1 18q0 65 -39 102t-105 37
q-67 0 -113 -37t-58 -99q-4 -21 -5 -31t-1 -18q0 -65 39 -102t105 -37zM287 437h-20l31 185h72q49 0 49 -44q0 -31 -15.5 -46t-38.5 -17l37 -78h-22l-36 76h-44zM353 530q20 0 29.5 7.5t12.5 24.5q2 8 2 11v6q0 25 -32 25h-50l-12 -74h50z" />
    <glyph glyph-name="trademark" unicode="&#x2122;" 
d="M143 427l41 248h-98l4 23h223l-4 -23h-98l-41 -248h-27zM331 427l45 271h31l56 -161h2l109 161h34l-46 -271h-24l23 134l16 99h-2l-119 -171l-60 171h-3l-16 -99l-22 -134h-24z" />
    <glyph glyph-name="ordfeminine" unicode="&#xaa;" 
d="M395 369l8 51h-3q-14 -22 -43 -39.5t-74 -17.5q-48 0 -73 21.5t-25 58.5q0 47 33 76.5t115 29.5h92l8 49q1 6 1.5 11.5t0.5 10.5q0 34 -22 49.5t-60 15.5q-33 0 -60.5 -14t-45.5 -43l-20 15q18 30 50 48.5t78 18.5q53 0 81 -23t28 -65q0 -5 -0.5 -11.5t-2.5 -12.5
l-37 -229h-29zM330 525q-57 0 -81.5 -16t-29.5 -42q-2 -12 -2.5 -17t-0.5 -8q0 -54 70 -54q22 0 43.5 5.5t38.5 16t28.5 26t15.5 35.5l9 54h-91z" />
    <glyph glyph-name="ordmasculine" unicode="&#xba;" 
d="M320 363q-57 0 -90 35.5t-33 94.5q0 48 12.5 88t35.5 68.5t55.5 44.5t72.5 16q57 0 90 -35.5t33 -94.5q0 -48 -12.5 -88t-35.5 -68.5t-55.5 -44.5t-72.5 -16zM323 389q28 0 50.5 9.5t39.5 26t27.5 39t15.5 47.5l7 41q2 8 2 15.5v15.5q0 43 -23.5 72t-71.5 29
q-28 0 -50.5 -9.5t-39.5 -26t-28 -39t-15 -47.5l-7 -41q-2 -8 -2 -15.5v-15.5q0 -43 23.5 -72t71.5 -29z" />
    <glyph glyph-name="degree" unicode="&#xb0;" 
d="M330 395q-32 0 -57.5 10t-44.5 28.5t-29 44.5t-10 57q0 37 13.5 69.5t37.5 55.5t56 36.5t70 13.5q31 0 57 -10t45 -28.5t29 -44.5t10 -57q0 -38 -13.5 -70t-37.5 -55t-56.5 -36.5t-69.5 -13.5zM332 425q30 0 56 11t45 30.5t30 45.5t11 57q0 48 -28 79.5t-82 31.5
q-30 0 -56 -11t-45 -30.5t-30 -45.5t-11 -57q0 -48 28 -79.5t82 -31.5z" />
    <glyph glyph-name="asterisk" unicode="*" 
d="M118 52l-25 20l183 205l-214 73l14 27l216 -72l41 244h33l-41 -243l239 72l5 -30l-239 -73l115 -206l-27 -17l-117 207z" />
    <glyph glyph-name="dagger" unicode="&#x2020;" 
d="M208 -200l114 687h-208l5 29h208l37 224h32l-37 -224h208l-5 -29h-208l-114 -687h-32z" />
    <glyph glyph-name="daggerdbl" unicode="&#x2021;" 
d="M208 -200l37 224h-208l5 29h208l72 434h-208l5 29h208l37 224h32l-37 -224h208l-5 -29h-208l-72 -434h208l-5 -29h-208l-37 -224h-32z" />
    <glyph glyph-name="numbersign" unicode="#" 
d="M170 234h-153l5 29h159l58 172h-153l5 29h158l80 234h34l-239 -698h-34zM506 698h34l-80 -234h153l-5 -29h-159l-58 -172h153l-5 -29h-158l-80 -234h-34z" />
    <glyph glyph-name="asciicircum" unicode="^" 
d="M522 315l-150 350h-3l-265 -351l-26 17l277 367h38l158 -370z" />
    <glyph glyph-name="asciitilde" unicode="~" 
d="M419 250q-11 0 -22 2t-24 6.5t-30 12t-39 18.5q-38 20 -61 29.5t-47 9.5q-34 0 -58 -19t-50 -59l-25 15q55 93 135 93q22 0 46 -8.5t69 -30.5q38 -20 61 -29.5t47 -9.5q34 0 58 19t50 59l25 -15q-55 -93 -135 -93z" />
    <glyph glyph-name="plus" unicode="+" 
d="M251 62l38 228h-221l5 30h221l38 229h33l-38 -229h221l-5 -30h-221l-38 -228h-33z" />
    <glyph glyph-name="minus" unicode="&#x2212;" 
d="M68 290l5 30h475l-5 -30h-475z" />
    <glyph glyph-name="plusminus" unicode="&#xb1;" 
d="M261 124l38 225h-222l5 31h221l38 226h33l-37 -226h221l-5 -31h-221l-37 -225h-34zM19 0l5 30h476l-4 -30h-477z" />
    <glyph glyph-name="multiply" unicode="&#xd7;" 
d="M306 285l-207 -179l-19 22l207 178l-148 178l23 20l148 -178l207 178l19 -22l-207 -178l148 -177l-23 -21z" />
    <glyph glyph-name="divide" unicode="&#xf7;" 
d="M68 290l5 30h475l-5 -30h-475zM270 73q-20 0 -28 7.5t-8 19.5q0 4 0.5 8t1.5 9q7 31 44 31q20 0 28 -7.5t8 -19.5q0 -4 -0.5 -8t-1.5 -9q-7 -31 -44 -31zM335 462q-20 0 -28 7.5t-8 19.5q0 4 0.5 8t1.5 9q7 31 44 31q20 0 28 -7.5t8 -19.5q0 -4 -0.5 -8t-1.5 -9
q-7 -31 -44 -31z" />
    <glyph glyph-name="equal" unicode="=" 
d="M83 382l5 30h476l-5 -30h-476zM52 199l5 30h476l-5 -30h-476z" />
    <glyph glyph-name="approxequal" unicode="&#x2248;" 
d="M433 337q-11 0 -22 2t-24 6.5t-30 12t-39 18.5q-38 20 -61 29.5t-47 9.5q-34 0 -58 -19t-50 -59l-25 15q55 93 135 93q22 0 46 -8.5t69 -30.5q38 -20 61 -29.5t47 -9.5q34 0 58 19t50 59l25 -15q-55 -93 -135 -93zM405 164q-11 0 -22 2t-24 6.5t-30 12t-39 18.5
q-38 20 -61 29.5t-47 9.5q-34 0 -58 -19t-50 -59l-25 15q55 93 135 93q22 0 46 -8.5t69 -30.5q38 -20 61 -29.5t47 -9.5q34 0 58 19t50 59l25 -15q-55 -93 -135 -93z" />
    <glyph glyph-name="notequal" unicode="&#x2260;" 
d="M124 88l85 111h-157l5 30h175l118 153h-267l5 30h284l85 112h35l-85 -112h157l-5 -30h-175l-118 -153h267l-5 -30h-284l-85 -111h-35z" />
    <glyph glyph-name="less" unicode="&#x3c;" 
d="M90 289l6 32l471 256l-6 -39l-433 -233v-3l355 -234l-6 -34z" />
    <glyph glyph-name="greater" unicode="&#x3e;" 
d="M55 73l432 233l1 3l-355 234l6 34l386 -256l-5 -31l-472 -256z" />
    <glyph glyph-name="lessequal" unicode="&#x2264;" 
d="M42 0l5 30h430l-5 -30h-430zM564 555l-429 -207v-4l360 -208l-6 -33l-391 228l6 33l467 228z" />
    <glyph glyph-name="greaterequal" unicode="&#x2265;" 
d="M67 140l429 207l1 4l-360 208l6 33l391 -228l-6 -33l-467 -228zM48 30h429l-5 -30h-429z" />
    <glyph glyph-name="periodcentered" unicode="&#xb7;" 
d="M301 264q-37 0 -37 28q0 4 0.5 8.5t1.5 9.5q6 34 48 34q37 0 37 -28q0 -4 -0.5 -8.5t-1.5 -9.5q-6 -34 -48 -34z" />
    <glyph glyph-name="bullet" unicode="&#x2022;" 
d="M293 211q-45 0 -63.5 18t-18.5 46q0 5 0.5 12.5t4.5 27.5q6 36 30.5 59.5t76.5 23.5q45 0 63.5 -18t18.5 -46q0 -5 -0.5 -12.5t-4.5 -27.5q-6 -36 -30.5 -59.5t-76.5 -23.5z" />
    <glyph glyph-name="lozenge" unicode="&#x25ca;" 
d="M240 0l-170 349l286 349h36l170 -349l-286 -349h-36zM264 32l262 320l-153 314h-5l-262 -320l153 -314h5z" />
    <glyph glyph-name="logicalnot" unicode="&#xac;" 
d="M464 98l32 192h-428l5 30h460l-37 -222h-32z" />
    <glyph glyph-name="radical" unicode="&#x221a;" 
d="M238 0l-57 487h-117l5 29h141l55 -480h4l312 662h36l-332 -698h-47z" />
    <glyph glyph-name="integral" unicode="&#x222b;" 
d="M196 -212q-13 0 -25 9.5t-34 31.5l-158 145l23 22l191 -176l9 2l144 868q8 50 56 50h217l-5 -30h-230l-145 -871q-4 -23 -13.5 -37t-29.5 -14z" />
    <glyph glyph-name="infinity" unicode="&#x221e;" 
d="M128 126q-54 0 -85 34t-31 100q0 49 11.5 90t33.5 71t53.5 46.5t72.5 16.5q54 0 89.5 -40t42.5 -110h4q28 72 73 111t95 39q54 0 85 -34t31 -100q0 -49 -11.5 -90t-33.5 -71t-53.5 -46.5t-71.5 -16.5q-54 0 -89.5 40t-43.5 110h-4q-27 -72 -72 -111t-96 -39zM133 155
q45 0 86 37.5t73 111.5q-8 78 -35.5 114.5t-75.5 36.5t-82.5 -31.5t-45.5 -95.5q-5 -29 -6.5 -45t-1.5 -26q0 -51 23 -76.5t65 -25.5zM434 155q48 0 82.5 31.5t45.5 95.5q5 29 7 45t2 26q0 51 -23.5 76.5t-65.5 25.5q-45 0 -85.5 -37.5t-72.5 -110.5q8 -78 35.5 -115
t74.5 -37z" />
    <glyph glyph-name="uni212E" unicode="&#x212e;" 
d="M88 179q12 -36 32.5 -66t47.5 -52t60 -34.5t72 -12.5q41 0 74 10.5t59.5 29.5t47.5 45t38 58l25 -13q-18 -32 -41 -60.5t-53 -49.5t-67 -33.5t-83 -12.5q-62 0 -112.5 27.5t-86.5 75.5t-55.5 114t-19.5 144t19.5 144t55.5 114t86.5 75.5t112.5 27.5t112.5 -27.5
t86.5 -75.5t55.5 -114t19.5 -144h-486v-170zM512 374v146q-13 36 -33 66t-47 51.5t-60 34t-72 12.5t-72 -12.5t-60 -34t-47 -51.5t-33 -66v-146h424z" />
    <glyph glyph-name="uni2113" unicode="&#x2113;" 
d="M315 -12q-73 0 -104.5 47.5t-31.5 127.5v33q-17 -14 -34 -25l-34 -22l-16 25q21 12 42.5 26.5t41.5 32.5v335q0 95 31 139.5t90 44.5q56 0 85 -37.5t29 -109.5q0 -53 -15 -106t-41.5 -103t-63.5 -95.5t-81 -84.5v-49q0 -76 24.5 -112.5t78.5 -36.5q27 0 48.5 9t39 24
t32 35.5t27.5 44.5l27 -15q-12 -24 -28 -47t-37 -41t-48.5 -29t-61.5 -11zM300 722q-20 0 -36 -7.5t-27 -25.5t-17.5 -47t-6.5 -72v-315q36 36 67 78t53.5 86t35 90t12.5 91v13q0 57 -22 83t-59 26z" />
    <glyph glyph-name="uni2116" unicode="&#x2116;" 
d="M503 361q-82 0 -82 101q0 15 2 33t5 38q14 88 44.5 129.5t84.5 41.5q82 0 82 -101q0 -15 -2 -33t-5 -38q-14 -88 -44.5 -129.5t-84.5 -41.5zM16 0l116 698h56l68 -656h3l109 656h32l-116 -698h-56l-68 656h-3l-109 -656h-32zM505 387q39 0 60.5 31.5t29.5 82.5l9 52
q4 19 5 32t1 21q0 35 -12.5 53.5t-42.5 18.5q-39 0 -60.5 -31.5t-29.5 -82.5l-9 -52q-4 -19 -5 -32t-1 -21q0 -35 12.5 -53.5t42.5 -18.5zM393 287l4 27h195l-4 -27h-195z" />
    <glyph glyph-name="partialdiff" unicode="&#x2202;" 
d="M256 -12q-85 0 -134 52.5t-49 143.5q0 72 18.5 131.5t52 102t79 66t99.5 23.5q53 0 93.5 -23.5t60.5 -65.5l3 2q-9 45 -31 85.5t-54 75.5t-72 64.5t-85 52.5h57q37 -22 76.5 -53.5t72 -75.5t53.5 -102.5t21 -133.5q0 -83 -19.5 -147.5t-54 -108.5t-82.5 -66.5t-105 -22.5
zM259 19q79 0 136.5 50.5t73.5 144.5l8 47q3 16 3.5 29.5t0.5 25.5q0 76 -41.5 118t-110.5 42q-79 0 -136.5 -50.5t-73.5 -144.5l-8 -47q-3 -16 -3.5 -29.5t-0.5 -25.5q0 -76 41.5 -118t110.5 -42z" />
    <glyph glyph-name="cent" unicode="&#xa2;" 
d="M229 -10q-74 12 -111 70t-37 142q0 74 18 132.5t49.5 100.5t75 65.5t95.5 27.5l17 102h30l-17 -103q60 -3 99.5 -35t51.5 -81l-30 -10q-13 47 -46.5 70.5t-80.5 25.5l-79 -479h8q57 1 101 36t87 101l27 -14q-42 -69 -93 -110t-124 -43h-11l-17 -102h-30zM115 197
q0 -68 29 -117t91 -60l79 476q-73 -6 -122.5 -58t-63.5 -138l-9 -52q-2 -16 -3 -26.5t-1 -24.5z" />
    <glyph glyph-name="Euro" unicode="&#x20ac;" 
d="M291 -12q-90 0 -142 57.5t-52 178.5q0 91 18 178.5t54.5 156t92.5 110t132 41.5q40 0 70 -10.5t51 -30t35 -46t23 -58.5l-33 -10q-8 28 -19.5 50.5t-29 38.5t-42 25t-58.5 9q-81 0 -141.5 -62.5t-88.5 -177.5h240l-5 -30h-241q-1 -4 -1.5 -7.5t-1.5 -8.5
q-1 -4 -2.5 -12.5t-3 -18t-3 -19.5t-2.5 -17q-2 -10 -3 -20t-2 -19h239l-5 -30h-237v-34q0 -97 39.5 -149.5t120.5 -52.5q64 0 107 33.5t81 98.5l30 -15q-22 -38 -45 -66t-49 -46.5t-57 -27.5t-69 -9z" />
    <glyph glyph-name="florin" unicode="&#x192;" 
d="M152 -212q-14 0 -25.5 8.5t-30.5 27.5l-151 150l23 22l180 -177l8 3l146 567h-184l6 31h186l58 228q6 25 20 37.5t42 12.5h204l-6 -30h-219l-64 -248h218l-6 -31h-220l-142 -553q-6 -24 -15.5 -36t-27.5 -12z" />
    <glyph glyph-name="sterling" unicode="&#xa3;" 
d="M494 -12q-13 0 -30.5 3.5t-46.5 9.5l-333 58l-10 -59h-35l12 77q28 13 51 28.5t39.5 37.5t26 51.5t9.5 70.5q0 16 -1.5 31t-3.5 29h-104l5 31h93q-6 34 -12.5 65.5t-6.5 66.5q0 51 16 92.5t44.5 70t68 44t86.5 15.5q72 0 120 -33t71 -91l-32 -14q-43 106 -161 106
q-81 0 -129 -50t-48 -142q0 -35 6.5 -66t12.5 -64h206l-5 -31h-195q2 -14 3.5 -29t1.5 -30q0 -28 -6.5 -55t-20 -50t-34.5 -42t-51 -30v-4l390 -66l7 6l-28 170l28 7l17 -88q8 -34 11.5 -55t3.5 -33q0 -15 -9.5 -26.5t-26.5 -11.5z" />
    <glyph glyph-name="dollar" unicode="$" 
d="M236 -11q-78 6 -125.5 37t-76.5 78l27 21q29 -45 69.5 -72t110.5 -32l54 324l-30 7q-76 17 -112 57.5t-36 105.5q0 47 16.5 83.5t46.5 61t72 37.5t93 13h11l17 101h29l-17 -102q75 -6 117.5 -32.5t67.5 -68.5l-28 -19q-26 42 -63.5 63t-98.5 25l-51 -306l33 -7
q78 -18 114.5 -59t36.5 -105q0 -50 -17 -89.5t-48 -66.5t-74.5 -41.5t-97.5 -14.5h-11l-17 -101h-29zM154 516q0 -56 30 -86.5t94 -46.5l23 -5l50 300h-10q-86 -2 -136.5 -42.5t-50.5 -119.5zM475 198q0 55 -29.5 86.5t-97.5 47.5l-25 6l-53 -318h10q91 2 143 48t52 130z
" />
    <glyph glyph-name="yen" unicode="&#xa5;" 
d="M49 31h195l42 254h-195l5 31h176l-172 382h38l168 -379h3l295 379h42l-300 -382h176l-5 -31h-195l-42 -254h195l-5 -31h-426z" />
    <glyph glyph-name="uni0E3F" unicode="&#xe3f;" 
d="M242 -113h-30l19 113h-175l116 698h175l19 113h30l-19 -113h7q78 0 118 -39.5t40 -111.5q0 -69 -32 -120.5t-98 -68.5v-3q51 -11 77 -47t26 -91q0 -102 -55 -159.5t-155 -57.5h-44zM293 371l49 295h-139l-49 -295h139zM506 554q0 51 -30 81.5t-95 30.5h-10l-48 -295h23
q68 1 106.5 35.5t46.5 87.5l5 31q2 11 2 16.5v12.5zM236 32l51 308h-138l-52 -308h139zM478 223q0 49 -30.5 83t-94.5 34h-36l-51 -308h38q73 0 115 34t51 90l6 35q2 9 2 16.5v15.5z" />
    <glyph glyph-name="uni20A1" unicode="&#x20a1;" 
d="M103 -113l43 152q-29 29 -44 75t-15 110q0 84 15 165t46 147t78 111.5t111 57.5l31 106h29l-29 -102q5 1 8.5 1h6.5q45 0 78 -14l33 115h30l-36 -128q29 -19 47.5 -49.5t28.5 -68.5l-32 -10q-9 30 -22 53.5t-33 39.5l-180 -627q59 3 100 37.5t77 100.5l30 -15
q-22 -39 -44.5 -67.5t-48.5 -48t-56 -29.5t-67 -11l-28 -101h-30l29 102q-26 2 -48 9.5t-40 21.5l-38 -133h-30zM381 679h-11.5t-10.5 -1l-179 -624q36 -31 88 -34l185 644q-30 15 -72 15zM123 219q0 -90 35 -139l170 591q-69 -20 -118 -91t-68 -186l-11 -69
q-5 -29 -6.5 -55.5t-1.5 -50.5z" />
    <glyph glyph-name="uni20A4" unicode="&#x20a4;" 
d="M495 -12q-14 0 -31 3.5t-47 9.5l-333 58l-10 -59h-35l12 77q26 12 48 26.5t38.5 34.5t26.5 46.5t12 62.5h-124l5 30h119q-1 32 -6.5 61.5t-11.5 57.5h-88l5 30h78q-6 28 -6 61q0 52 16 93t44.5 70t67.5 44.5t86 15.5q72 0 120.5 -32.5t71.5 -91.5l-32 -14
q-43 106 -161 106q-81 0 -129 -49.5t-48 -142.5q0 -16 2 -31t4 -29h223l-5 -30h-213q6 -28 11.5 -57.5t6.5 -61.5h181l-5 -30h-177q-3 -51 -29 -94t-81 -64v-4l390 -66l7 6l-28 170l28 7l17 -88q8 -34 11.5 -55t3.5 -33q0 -15 -9 -26.5t-26 -11.5z" />
    <glyph glyph-name="uni20A6" unicode="&#x20a6;" 
d="M325 262h-194l-43 -262h-33l43 262h-69l5 28h69l20 119h-69l5 28h69l43 261h54l82 -261h194l43 261h33l-43 -261h69l-5 -28h-69l-20 -119h69l-5 -28h-69l-43 -262h-54zM281 409h-126l-20 -119h183zM351 290h126l20 119h-183zM434 37l38 225h-112l70 -225h4zM160 437h112
l-70 224h-4z" />
    <glyph glyph-name="uni20A8" unicode="&#x20a8;" 
d="M426 -12q-60 0 -93.5 25.5t-53.5 82.5l-79 234h-28h-56l-55 -330h-36l116 698h96q77 0 110 -37.5t33 -98.5q0 -40 -7 -77.5t-24 -68t-45 -51.5t-69 -29l75 -224q17 -51 43.5 -72t73.5 -21q42 0 69 23.5t27 68.5q0 28 -13 49t-33 44l-29 35q-26 32 -39.5 58.5t-13.5 61.5
q0 22 7.5 43t22.5 37t37 25.5t51 9.5q27 0 50 -9t39 -26l-21 -24q-12 14 -29.5 21.5t-39.5 7.5q-37 0 -60 -24t-23 -60q0 -29 11.5 -50.5t33.5 -48.5l29 -34q25 -32 40 -56.5t15 -58.5q0 -54 -34.5 -89t-97.5 -35zM181 361q66 0 104.5 30t48.5 94l8 47q2 8 2.5 17t0.5 17
q0 48 -27.5 74t-84.5 26h-61l-51 -305h60z" />
    <glyph glyph-name="uni20A9" unicode="&#x20a9;" 
d="M135 0h-58l30 257h-69l5 28h67l14 122h-61l5 28h60l31 263h32l-31 -263h340l56 263h32l-56 -263h60l-5 -28h-61l-27 -122h68l-5 -28h-69l-55 -257h-59l-32 257h-93zM358 407l16 -122h95l26 122h-137zM142 285h93l57 122h-136zM415 34l48 223h-85l30 -223h7zM118 34
l104 223h-84l-26 -223h6zM329 407h-6l-56 -122h77z" />
    <glyph glyph-name="uni20AA" unicode="&#x20aa;" 
d="M268 567h35l-89 -537h127q57 0 88.5 32.5t42.5 94.5l90 541h34l-89 -539q-13 -77 -54 -118t-116 -41h-163zM154 698h157q127 0 127 -120q0 -9 -1 -20.5t-3 -22.5l-67 -404h-35l68 410q2 10 3 19.5t1 18.5q0 44 -22.5 66.5t-73.5 22.5h-124l-111 -668h-34z" />
    <glyph glyph-name="uni20AB" unicode="&#x20ab;" 
d="M425 205h-3q-11 -18 -26.5 -36t-36.5 -32.5t-46.5 -23t-56.5 -8.5q-78 0 -121.5 46t-43.5 127q0 66 16.5 116.5t46 85.5t69.5 53t88 18q34 0 60 -8.5t45 -22.5t31 -31.5t17 -35.5h3l30 186h-162l6 29h162l11 72h34l-12 -72h71l-5 -29h-71l-87 -522h-34zM264 135
q31 0 60 11t52.5 30.5t39.5 46t22 58.5l18 112q4 25 -3.5 48.5t-26.5 41.5t-47.5 28.5t-65.5 10.5q-69 0 -117 -40.5t-59 -117.5q-4 -22 -6 -37t-3.5 -24.5t-2 -15.5t-0.5 -11q0 -66 36 -103.5t103 -37.5zM39 0l5 31h420l-5 -31h-420z" />
    <glyph glyph-name="uni20AD" unicode="&#x20ad;" 
d="M112 0h-36l58 351h-89l5 31h89l53 316h36l-52 -316h75l306 316h43l-304 -316h244l-5 -31h-246l209 -351h-40l-209 351h-78z" />
    <glyph glyph-name="uni20AE" unicode="&#x20ae;" 
d="M316 243l-41 -243h-36l38 227l-164 -74l5 33l164 74l21 119l-165 -73l5 33l165 73l42 254h-245l5 32h526l-5 -32h-245l-39 -238l164 74l-5 -33l-165 -74l-19 -119l163 74l-5 -33z" />
    <glyph glyph-name="uni20B1" unicode="&#x20b1;" 
d="M137 380h-59l5 30h59l20 120h-60l5 30h60l23 138h188q71 0 113.5 -37.5t53.5 -100.5h71l-5 -30h-64v-18q0 -24 -3.5 -51.5t-10.5 -50.5h59l-5 -30h-63q-25 -66 -75 -101t-122 -35h-176l-41 -244h-36zM510 559q-8 47 -41 77t-94 30h-154l-18 -107h307zM496 410
q8 35 11.5 62.5t4.5 44.5v5.5t-1 7.5h-313l-19 -120h317zM329 276q63 0 102.5 27.5t57.5 77.5h-316l-17 -105h173z" />
    <glyph glyph-name="uni20B2" unicode="&#x20b2;" 
d="M186 6q-48 23 -74.5 76.5t-26.5 141.5q0 91 17 178.5t52 156t90 110t132 41.5q15 0 29 -2t26 -5l38 108h31l-41 -116q41 -18 65.5 -51.5t36.5 -78.5l-32 -10q-11 38 -30.5 66t-51.5 42l-120 -341h197l-15 -85q-22 -129 -82.5 -189t-150.5 -60q-17 0 -32.5 2t-29.5 7
l-39 -110h-30zM120 221q0 -140 78 -183l223 634q-23 6 -49 6q-92 0 -151 -74.5t-82 -209.5l-11 -68q-5 -29 -6.5 -55.5t-1.5 -49.5zM224 27q12 -5 26 -6.5t30 -1.5q74 0 124 51t70 164l10 57h-167z" />
    <glyph glyph-name="uni20B4" unicode="&#x20b4;" 
d="M288 -12q-87 0 -136.5 43t-49.5 116q0 42 16.5 71t36.5 48h-110l5 30h130l222 124v3h-331l5 30h371q26 23 35.5 49.5t9.5 52.5q0 59 -36 91t-102 32q-42 0 -84 -15.5t-84 -53.5l-21 25q45 42 94.5 59t96.5 17q80 0 126 -40.5t46 -109.5q0 -66 -41 -107h107l-5 -30h-128
l-222 -124l-1 -3h330l-5 -30h-368q-26 -23 -42 -51.5t-16 -65.5q0 -61 40.5 -95t112.5 -34q44 0 89.5 18.5t94.5 63.5l21 -24q-49 -48 -102.5 -69t-104.5 -21z" />
    <glyph glyph-name="uni20B5" unicode="&#x20b5;" 
d="M190 7q-49 24 -76 77.5t-27 139.5q0 91 18 178.5t54.5 156t92.5 110t132 41.5q11 0 21.5 -1t19.5 -3l36 105h31l-38 -112q45 -16 70.5 -51t38.5 -83l-32 -10q-11 42 -31.5 70.5t-56.5 42.5l-216 -640q23 -8 56 -8q66 0 110 35t82 104l29 -15q-44 -79 -95 -117.5
t-128 -38.5q-35 0 -65 9l-37 -110h-30zM122 219q0 -68 20.5 -113t58.5 -67l214 637q-15 3 -34 3q-90 0 -153.5 -74.5t-86.5 -210.5l-11 -69q-5 -29 -6.5 -55.5t-1.5 -50.5z" />
    <glyph glyph-name="uni20B8" unicode="&#x20b8;" 
d="M111 667l5 31h514l-5 -31h-514zM361 515l-86 -515h-36l86 515h-239l5 31h514l-5 -31h-239z" />
    <glyph glyph-name="uni20B9" unicode="&#x20b9;" 
d="M404 0l-185 315h-142l5 31h193q78 0 119.5 41.5t47.5 112.5h-334l5 31h331q0 24 -6.5 48t-21.5 43.5t-40 32t-61 12.5h-180l6 31h483l-6 -31h-212l-1 -3q34 -17 53.5 -52t20.5 -81h117l-6 -31h-112q-3 -39 -17 -72.5t-38 -58t-58.5 -39t-79.5 -15.5h-26l188 -315h-43z
" />
    <glyph glyph-name="uni20BA" unicode="&#x20ba;" 
d="M172 289l-132 -59l4 33l134 59l20 119l-133 -59l5 33l133 59l37 224h37l-35 -208l218 98l-5 -33l-218 -98l-20 -119l217 97l-4 -33l-219 -97l-45 -273h95q51 0 91 19.5t70 55.5t49.5 86.5t28.5 111.5h36q-11 -68 -33 -124t-56 -96t-81 -62.5t-107 -22.5h-135z" />
    <glyph glyph-name="uni20BD" unicode="&#x20bd;" 
d="M167 164l-27 -164h-36l27 164h-100l5 31h100l21 121h-100l5 31h99l59 351h223q77 0 118.5 -43.5t41.5 -111.5q0 -104 -53 -165.5t-155 -61.5h-202l-21 -121h242l-5 -31h-242zM198 347h199q72 0 112 36.5t49 95.5l6 37q2 8 2 15v14q0 25 -7.5 47t-23 38.5t-39.5 26
t-56 9.5h-189z" />
    <glyph glyph-name="uni20BF" unicode="&#x20bf;" 
d="M275 0h-90l-19 -113h-30l19 113h-99l116 698h99l19 113h30l-19 -113h90l19 113h30l-19 -116q57 -10 87 -48t30 -101q0 -68 -31.5 -119t-95.5 -68v-3q50 -11 76.5 -47t26.5 -92q0 -100 -53 -157.5t-156 -59.5l-19 -113h-30zM154 371h189q67 0 105.5 35t46.5 88l5 31
q2 11 2 16.5v12.5q0 51 -29.5 81.5t-94.5 30.5h-175zM97 32h207q72 0 114 34t51 90l6 35q3 18 3 32q0 49 -30.5 83t-95.5 34h-204z" />
    <glyph glyph-name="fi" unicode="&#xfb01;" 
d="M170 486h-88l5 30h88l28 174q4 24 16.5 37t38.5 13h161l-5 -30h-173l-32 -194h313l-86 -516h-34l81 486h-279l-81 -486h-34zM534 677q-20 0 -27 7t-7 16q0 6 3 18q3 13 12 20.5t26 7.5q20 0 27 -7t7 -16q0 -6 -3 -18q-3 -13 -12 -20.5t-26 -7.5z" />
    <glyph glyph-name="fl" unicode="&#xfb02;" 
d="M170 486h-88l5 30h88l28 174q4 24 16.5 37t38.5 13h177l-5 -30h-189l-32 -194h189l-5 -30h-189l-81 -486h-34zM525 740h34l-123 -740h-34z" />
    <glyph glyph-name="aacute" unicode="&#xe1;" 
d="M406 0l19 117h-3q-29 -58 -72.5 -93.5t-111.5 -35.5q-42 0 -74 14.5t-53.5 40.5t-32.5 62.5t-11 80.5q0 69 16 131t47 109t76.5 74.5t103.5 27.5q66 0 107 -28.5t56 -75.5h4l15 92h34l-86 -516h-34zM244 19q33 0 61.5 10.5t54.5 34.5q27 25 50 62.5t31 84.5l24 142
q4 26 -2.5 52t-24.5 46.5t-49 33t-74 12.5q-41 0 -75 -16t-59.5 -44t-42.5 -66t-24 -82l-9 -55q-4 -23 -4 -49q0 -35 8.5 -65t25.5 -52.5t44 -35.5t65 -13zM323 594l-22 15l131 156l30 -19z" />
    <glyph glyph-name="abreve" unicode="&#x103;" 
d="M406 0l19 117h-3q-29 -58 -72.5 -93.5t-111.5 -35.5q-42 0 -74 14.5t-53.5 40.5t-32.5 62.5t-11 80.5q0 69 16 131t47 109t76.5 74.5t103.5 27.5q66 0 107 -28.5t56 -75.5h4l15 92h34l-86 -516h-34zM244 19q33 0 61.5 10.5t54.5 34.5q27 25 50 62.5t31 84.5l24 142
q4 26 -2.5 52t-24.5 46.5t-49 33t-74 12.5q-41 0 -75 -16t-59.5 -44t-42.5 -66t-24 -82l-9 -55q-4 -23 -4 -49q0 -35 8.5 -65t25.5 -52.5t44 -35.5t65 -13zM338 607q-30 0 -49.5 10t-33 27.5t-23 42t-17.5 54.5l23 11l18 -46q17 -38 34 -53.5t49 -15.5q31 0 53.5 15t52.5 54
l33 46l24 -11q-18 -30 -35 -54.5t-35.5 -42t-41 -27.5t-52.5 -10z" />
    <glyph glyph-name="acircumflex" unicode="&#xe2;" 
d="M406 0l19 117h-3q-29 -58 -72.5 -93.5t-111.5 -35.5q-42 0 -74 14.5t-53.5 40.5t-32.5 62.5t-11 80.5q0 69 16 131t47 109t76.5 74.5t103.5 27.5q66 0 107 -28.5t56 -75.5h4l15 92h34l-86 -516h-34zM244 19q33 0 61.5 10.5t54.5 34.5q27 25 50 62.5t31 84.5l24 142
q4 26 -2.5 52t-24.5 46.5t-49 33t-74 12.5q-41 0 -75 -16t-59.5 -44t-42.5 -66t-24 -82l-9 -55q-4 -23 -4 -49q0 -35 8.5 -65t25.5 -52.5t44 -35.5t65 -13zM382 756l101 -137l-22 -14l-102 124l-146 -124l-19 17l146 134h42z" />
    <glyph glyph-name="adieresis" unicode="&#xe4;" 
d="M406 0l19 117h-3q-29 -58 -72.5 -93.5t-111.5 -35.5q-42 0 -74 14.5t-53.5 40.5t-32.5 62.5t-11 80.5q0 69 16 131t47 109t76.5 74.5t103.5 27.5q66 0 107 -28.5t56 -75.5h4l15 92h34l-86 -516h-34zM244 19q33 0 61.5 10.5t54.5 34.5q27 25 50 62.5t31 84.5l24 142
q4 26 -2.5 52t-24.5 46.5t-49 33t-74 12.5q-41 0 -75 -16t-59.5 -44t-42.5 -66t-24 -82l-9 -55q-4 -23 -4 -49q0 -35 8.5 -65t25.5 -52.5t44 -35.5t65 -13zM253 642q-18 0 -25 7t-7 15q0 4 0.5 8t1.5 9q5 27 37 27q18 0 25 -7t7 -15q0 -4 -0.5 -8t-1.5 -9q-5 -27 -37 -27z
M435 642q-18 0 -25 7t-7 15q0 4 0.5 8t1.5 9q5 27 37 27q18 0 25 -7t7 -15q0 -4 -0.5 -8t-1.5 -9q-5 -27 -37 -27z" />
    <glyph glyph-name="uni1EA1" unicode="&#x1ea1;" 
d="M406 0l19 117h-3q-29 -58 -72.5 -93.5t-111.5 -35.5q-42 0 -74 14.5t-53.5 40.5t-32.5 62.5t-11 80.5q0 69 16 131t47 109t76.5 74.5t103.5 27.5q66 0 107 -28.5t56 -75.5h4l15 92h34l-86 -516h-34zM244 19q33 0 61.5 10.5t54.5 34.5q27 25 50 62.5t31 84.5l24 142
q4 26 -2.5 52t-24.5 46.5t-49 33t-74 12.5q-41 0 -75 -16t-59.5 -44t-42.5 -66t-24 -82l-9 -55q-4 -23 -4 -49q0 -35 8.5 -65t25.5 -52.5t44 -35.5t65 -13zM215 -145q-18 0 -25 7t-7 15q0 4 0.5 8t1.5 9q5 27 37 27q18 0 25 -7t7 -15q0 -4 -0.5 -8t-1.5 -9q-5 -27 -37 -27z
" />
    <glyph glyph-name="agrave" unicode="&#xe0;" 
d="M406 0l19 117h-3q-29 -58 -72.5 -93.5t-111.5 -35.5q-42 0 -74 14.5t-53.5 40.5t-32.5 62.5t-11 80.5q0 69 16 131t47 109t76.5 74.5t103.5 27.5q66 0 107 -28.5t56 -75.5h4l15 92h34l-86 -516h-34zM244 19q33 0 61.5 10.5t54.5 34.5q27 25 50 62.5t31 84.5l24 142
q4 26 -2.5 52t-24.5 46.5t-49 33t-74 12.5q-41 0 -75 -16t-59.5 -44t-42.5 -66t-24 -82l-9 -55q-4 -23 -4 -49q0 -35 8.5 -65t25.5 -52.5t44 -35.5t65 -13zM260 750l33 15l77 -159l-24 -12z" />
    <glyph glyph-name="uni1EA3" unicode="&#x1ea3;" 
d="M406 0l19 117h-3q-29 -58 -72.5 -93.5t-111.5 -35.5q-42 0 -74 14.5t-53.5 40.5t-32.5 62.5t-11 80.5q0 69 16 131t47 109t76.5 74.5t103.5 27.5q66 0 107 -28.5t56 -75.5h4l15 92h34l-86 -516h-34zM244 19q33 0 61.5 10.5t54.5 34.5q27 25 50 62.5t31 84.5l24 142
q4 26 -2.5 52t-24.5 46.5t-49 33t-74 12.5q-41 0 -75 -16t-59.5 -44t-42.5 -66t-24 -82l-9 -55q-4 -23 -4 -49q0 -35 8.5 -65t25.5 -52.5t44 -35.5t65 -13zM286 751h126q18 0 26 -6.5t8 -17.5q0 -10 -7.5 -22.5t-32.5 -41.5l-61 -72l-21 13l91 119h-134z" />
    <glyph glyph-name="amacron" unicode="&#x101;" 
d="M406 0l19 117h-3q-29 -58 -72.5 -93.5t-111.5 -35.5q-42 0 -74 14.5t-53.5 40.5t-32.5 62.5t-11 80.5q0 69 16 131t47 109t76.5 74.5t103.5 27.5q66 0 107 -28.5t56 -75.5h4l15 92h34l-86 -516h-34zM244 19q33 0 61.5 10.5t54.5 34.5q27 25 50 62.5t31 84.5l24 142
q4 26 -2.5 52t-24.5 46.5t-49 33t-74 12.5q-41 0 -75 -16t-59.5 -44t-42.5 -66t-24 -82l-9 -55q-4 -23 -4 -49q0 -35 8.5 -65t25.5 -52.5t44 -35.5t65 -13zM219 691h262l-5 -30h-262z" />
    <glyph glyph-name="aogonek" unicode="&#x105;" 
d="M440 0q-39 -23 -65.5 -40.5t-43 -32.5t-23.5 -29.5t-7 -30.5q0 -23 14.5 -33.5t34.5 -10.5q21 0 36 7.5t26 18.5l19 -19q-12 -14 -33 -23.5t-49 -9.5q-32 0 -56 16t-24 51q0 15 6 31t21.5 32.5t42 34.5t67.5 38l19 117h-3q-29 -58 -72.5 -93.5t-111.5 -35.5
q-42 0 -74 14.5t-53.5 40.5t-32.5 62.5t-11 80.5q0 69 16 131t47 109t76.5 74.5t103.5 27.5q66 0 107 -28.5t56 -75.5h4l15 92h34zM244 19q33 0 61.5 10.5t54.5 34.5q27 25 49.5 62.5t30.5 84.5l25 142q4 26 -2.5 52t-24.5 46.5t-49 33t-74 12.5q-41 0 -75 -16t-59.5 -44
t-42.5 -66t-24 -82l-9 -55q-4 -23 -4 -49q0 -35 8.5 -65t25.5 -52.5t44 -35.5t65 -13z" />
    <glyph glyph-name="aring" unicode="&#xe5;" 
d="M406 0l19 117h-3q-29 -58 -72.5 -93.5t-111.5 -35.5q-42 0 -74 14.5t-53.5 40.5t-32.5 62.5t-11 80.5q0 69 16 131t47 109t76.5 74.5t103.5 27.5q66 0 107 -28.5t56 -75.5h4l15 92h34l-86 -516h-34zM244 19q33 0 61.5 10.5t54.5 34.5q27 25 50 62.5t31 84.5l24 142
q4 26 -2.5 52t-24.5 46.5t-49 33t-74 12.5q-41 0 -75 -16t-59.5 -44t-42.5 -66t-24 -82l-9 -55q-4 -23 -4 -49q0 -35 8.5 -65t25.5 -52.5t44 -35.5t65 -13zM335 594q-38 0 -60.5 22.5t-22.5 58.5q0 24 9 44.5t24 35.5t35.5 23t43.5 8q38 0 60.5 -22.5t22.5 -58.5
q0 -24 -9 -44.5t-24 -35.5t-35.5 -23t-43.5 -8zM338 618q31 0 52 17t26 48q2 11 2.5 17t0.5 11q0 23 -14.5 37t-43.5 14q-31 0 -52 -17t-26 -48q-2 -11 -2.5 -17t-0.5 -11q0 -23 14.5 -37t43.5 -14z" />
    <glyph glyph-name="aringacute" unicode="&#x1fb;" 
d="M406 0l19 117h-3q-29 -58 -72.5 -93.5t-111.5 -35.5q-42 0 -74 14.5t-53.5 40.5t-32.5 62.5t-11 80.5q0 69 16 131t47 109t76.5 74.5t103.5 27.5q66 0 107 -28.5t56 -75.5h4l15 92h34l-86 -516h-34zM244 19q33 0 61.5 10.5t54.5 34.5q27 25 50 62.5t31 84.5l24 142
q4 26 -2.5 52t-24.5 46.5t-49 33t-74 12.5q-41 0 -75 -16t-59.5 -44t-42.5 -66t-24 -82l-9 -55q-4 -23 -4 -49q0 -35 8.5 -65t25.5 -52.5t44 -35.5t65 -13zM370 810l-19 14l95 105l25 -20zM335 592q-38 0 -60.5 22.5t-22.5 58.5q0 24 9 44.5t24 35.5t35.5 23t43.5 8
q38 0 60.5 -22.5t22.5 -58.5q0 -24 -9 -44.5t-24 -35.5t-35.5 -23t-43.5 -8zM338 616q31 0 52 17t26 48q2 11 2.5 17t0.5 11q0 23 -14.5 37t-43.5 14q-31 0 -52 -17t-26 -48q-2 -11 -2.5 -17t-0.5 -11q0 -23 14.5 -37t43.5 -14z" />
    <glyph glyph-name="atilde" unicode="&#xe3;" 
d="M406 0l19 117h-3q-29 -58 -72.5 -93.5t-111.5 -35.5q-42 0 -74 14.5t-53.5 40.5t-32.5 62.5t-11 80.5q0 69 16 131t47 109t76.5 74.5t103.5 27.5q66 0 107 -28.5t56 -75.5h4l15 92h34l-86 -516h-34zM244 19q33 0 61.5 10.5t54.5 34.5q27 25 50 62.5t31 84.5l24 142
q4 26 -2.5 52t-24.5 46.5t-49 33t-74 12.5q-41 0 -75 -16t-59.5 -44t-42.5 -66t-24 -82l-9 -55q-4 -23 -4 -49q0 -35 8.5 -65t25.5 -52.5t44 -35.5t65 -13zM412 632q-20 0 -36 7.5t-36 21.5q-18 12 -32.5 19t-31.5 7t-33.5 -8t-34.5 -24l-15 19q40 42 89 42q20 0 36 -7.5
t36 -21.5q18 -12 32.5 -19t31.5 -7t33.5 8t34.5 24l15 -19q-41 -42 -89 -42z" />
    <glyph glyph-name="uni1EAF" unicode="&#x1eaf;" 
d="M406 0l19 117h-3q-29 -58 -72.5 -93.5t-111.5 -35.5q-42 0 -74 14.5t-53.5 40.5t-32.5 62.5t-11 80.5q0 69 16 131t47 109t76.5 74.5t103.5 27.5q66 0 107 -28.5t56 -75.5h4l15 92h34l-86 -516h-34zM244 19q33 0 61.5 10.5t54.5 34.5q27 25 50 62.5t31 84.5l24 142
q4 26 -2.5 52t-24.5 46.5t-49 33t-74 12.5q-41 0 -75 -16t-59.5 -44t-42.5 -66t-24 -82l-9 -55q-4 -23 -4 -49q0 -35 8.5 -65t25.5 -52.5t44 -35.5t65 -13zM337 599q-30 0 -49.5 9.5t-33 26.5t-23 41.5t-17.5 53.5l22 11l19 -45q17 -38 34.5 -53t49.5 -15q31 0 54.5 14.5
t52.5 53.5l34 45l23 -11q-18 -30 -35.5 -54t-36.5 -41.5t-41.5 -26.5t-52.5 -9zM343 707l-22 15l131 156l30 -19z" />
    <glyph glyph-name="uni1EB7" unicode="&#x1eb7;" 
d="M406 0l19 117h-3q-29 -58 -72.5 -93.5t-111.5 -35.5q-42 0 -74 14.5t-53.5 40.5t-32.5 62.5t-11 80.5q0 69 16 131t47 109t76.5 74.5t103.5 27.5q66 0 107 -28.5t56 -75.5h4l15 92h34l-86 -516h-34zM244 19q33 0 61.5 10.5t54.5 34.5q27 25 50 62.5t31 84.5l24 142
q4 26 -2.5 52t-24.5 46.5t-49 33t-74 12.5q-41 0 -75 -16t-59.5 -44t-42.5 -66t-24 -82l-9 -55q-4 -23 -4 -49q0 -35 8.5 -65t25.5 -52.5t44 -35.5t65 -13zM338 607q-30 0 -49.5 10t-33 27.5t-23 42t-17.5 54.5l23 11l18 -46q17 -38 34 -53.5t49 -15.5q31 0 53.5 15t52.5 54
l33 46l24 -11q-18 -30 -35 -54.5t-35.5 -42t-41 -27.5t-52.5 -10zM215 -145q-18 0 -25 7t-7 15q0 4 0.5 8t1.5 9q5 27 37 27q18 0 25 -7t7 -15q0 -4 -0.5 -8t-1.5 -9q-5 -27 -37 -27z" />
    <glyph glyph-name="uni1EB1" unicode="&#x1eb1;" 
d="M406 0l19 117h-3q-29 -58 -72.5 -93.5t-111.5 -35.5q-42 0 -74 14.5t-53.5 40.5t-32.5 62.5t-11 80.5q0 69 16 131t47 109t76.5 74.5t103.5 27.5q66 0 107 -28.5t56 -75.5h4l15 92h34l-86 -516h-34zM244 19q33 0 61.5 10.5t54.5 34.5q27 25 50 62.5t31 84.5l24 142
q4 26 -2.5 52t-24.5 46.5t-49 33t-74 12.5q-41 0 -75 -16t-59.5 -44t-42.5 -66t-24 -82l-9 -55q-4 -23 -4 -49q0 -35 8.5 -65t25.5 -52.5t44 -35.5t65 -13zM337 599q-30 0 -49.5 9.5t-33 26.5t-23 41.5t-17.5 53.5l22 11l19 -45q17 -38 34.5 -53t49.5 -15q31 0 54.5 14.5
t52.5 53.5l34 45l23 -11q-18 -30 -35.5 -54t-36.5 -41.5t-41.5 -26.5t-52.5 -9zM266 863l33 15l77 -160l-24 -11z" />
    <glyph glyph-name="uni1EB3" unicode="&#x1eb3;" 
d="M406 0l19 117h-3q-29 -58 -72.5 -93.5t-111.5 -35.5q-42 0 -74 14.5t-53.5 40.5t-32.5 62.5t-11 80.5q0 69 16 131t47 109t76.5 74.5t103.5 27.5q66 0 107 -28.5t56 -75.5h4l15 92h34l-86 -516h-34zM244 19q33 0 61.5 10.5t54.5 34.5q27 25 50 62.5t31 84.5l24 142
q4 26 -2.5 52t-24.5 46.5t-49 33t-74 12.5q-41 0 -75 -16t-59.5 -44t-42.5 -66t-24 -82l-9 -55q-4 -23 -4 -49q0 -35 8.5 -65t25.5 -52.5t44 -35.5t65 -13zM337 599q-30 0 -49.5 9.5t-33 26.5t-23 41.5t-17.5 53.5l22 11l19 -45q17 -38 34.5 -53t49.5 -15q31 0 54.5 14.5
t52.5 53.5l34 45l23 -11q-18 -30 -35.5 -54t-36.5 -41.5t-41.5 -26.5t-52.5 -9zM295 865h123q19 0 26.5 -6.5t7.5 -17.5q0 -9 -6.5 -20.5t-29.5 -38.5l-64 -78l-22 14l92 119h-131z" />
    <glyph glyph-name="uni1EB5" unicode="&#x1eb5;" 
d="M406 0l19 117h-3q-29 -58 -72.5 -93.5t-111.5 -35.5q-42 0 -74 14.5t-53.5 40.5t-32.5 62.5t-11 80.5q0 69 16 131t47 109t76.5 74.5t103.5 27.5q66 0 107 -28.5t56 -75.5h4l15 92h34l-86 -516h-34zM244 19q33 0 61.5 10.5t54.5 34.5q27 25 50 62.5t31 84.5l24 142
q4 26 -2.5 52t-24.5 46.5t-49 33t-74 12.5q-41 0 -75 -16t-59.5 -44t-42.5 -66t-24 -82l-9 -55q-4 -23 -4 -49q0 -35 8.5 -65t25.5 -52.5t44 -35.5t65 -13zM337 599q-30 0 -49.5 9.5t-33 26.5t-23 41.5t-17.5 53.5l22 11l19 -45q17 -38 34.5 -53t49.5 -15q31 0 54.5 14.5
t52.5 53.5l34 45l23 -11q-18 -30 -35.5 -54t-36.5 -41.5t-41.5 -26.5t-52.5 -9zM431 772q-20 0 -36.5 7.5t-36.5 21.5q-18 12 -32.5 18.5t-30.5 6.5q-18 0 -34 -8t-35 -24l-15 19q40 41 88 41q20 0 36.5 -7.5t36.5 -21.5q18 -12 32.5 -18.5t30.5 -6.5q18 0 34 8t35 24
l15 -19q-40 -41 -88 -41z" />
    <glyph glyph-name="uni1EA5" unicode="&#x1ea5;" 
d="M406 0l19 117h-3q-29 -58 -72.5 -93.5t-111.5 -35.5q-42 0 -74 14.5t-53.5 40.5t-32.5 62.5t-11 80.5q0 69 16 131t47 109t76.5 74.5t103.5 27.5q66 0 107 -28.5t56 -75.5h4l15 92h34l-86 -516h-34zM244 19q33 0 61.5 10.5t54.5 34.5q27 25 50 62.5t31 84.5l24 142
q4 26 -2.5 52t-24.5 46.5t-49 33t-74 12.5q-41 0 -75 -16t-59.5 -44t-42.5 -66t-24 -82l-9 -55q-4 -23 -4 -49q0 -35 8.5 -65t25.5 -52.5t44 -35.5t65 -13zM477 707l-21 15l131 156l29 -19zM380 747l101 -137l-22 -14l-102 125l-146 -125l-19 17l146 134h42z" />
    <glyph glyph-name="uni1EAD" unicode="&#x1ead;" 
d="M406 0l19 117h-3q-29 -58 -72.5 -93.5t-111.5 -35.5q-42 0 -74 14.5t-53.5 40.5t-32.5 62.5t-11 80.5q0 69 16 131t47 109t76.5 74.5t103.5 27.5q66 0 107 -28.5t56 -75.5h4l15 92h34l-86 -516h-34zM244 19q33 0 61.5 10.5t54.5 34.5q27 25 50 62.5t31 84.5l24 142
q4 26 -2.5 52t-24.5 46.5t-49 33t-74 12.5q-41 0 -75 -16t-59.5 -44t-42.5 -66t-24 -82l-9 -55q-4 -23 -4 -49q0 -35 8.5 -65t25.5 -52.5t44 -35.5t65 -13zM382 756l101 -137l-22 -14l-102 124l-146 -124l-19 17l146 134h42zM215 -145q-18 0 -25 7t-7 15q0 4 0.5 8t1.5 9
q5 27 37 27q18 0 25 -7t7 -15q0 -4 -0.5 -8t-1.5 -9q-5 -27 -37 -27z" />
    <glyph glyph-name="uni1EA7" unicode="&#x1ea7;" 
d="M406 0l19 117h-3q-29 -58 -72.5 -93.5t-111.5 -35.5q-42 0 -74 14.5t-53.5 40.5t-32.5 62.5t-11 80.5q0 69 16 131t47 109t76.5 74.5t103.5 27.5q66 0 107 -28.5t56 -75.5h4l15 92h34l-86 -516h-34zM244 19q33 0 61.5 10.5t54.5 34.5q27 25 50 62.5t31 84.5l24 142
q4 26 -2.5 52t-24.5 46.5t-49 33t-74 12.5q-41 0 -75 -16t-59.5 -44t-42.5 -66t-24 -82l-9 -55q-4 -23 -4 -49q0 -35 8.5 -65t25.5 -52.5t44 -35.5t65 -13zM144 865l32 15l78 -160l-24 -11zM380 747l101 -137l-22 -14l-102 125l-146 -125l-19 17l146 134h42z" />
    <glyph glyph-name="uni1EA9" unicode="&#x1ea9;" 
d="M406 0l19 117h-3q-29 -58 -72.5 -93.5t-111.5 -35.5q-42 0 -74 14.5t-53.5 40.5t-32.5 62.5t-11 80.5q0 69 16 131t47 109t76.5 74.5t103.5 27.5q66 0 107 -28.5t56 -75.5h4l15 92h34l-86 -516h-34zM244 19q33 0 61.5 10.5t54.5 34.5q27 25 50 62.5t31 84.5l24 142
q4 26 -2.5 52t-24.5 46.5t-49 33t-74 12.5q-41 0 -75 -16t-59.5 -44t-42.5 -66t-24 -82l-9 -55q-4 -23 -4 -49q0 -35 8.5 -65t25.5 -52.5t44 -35.5t65 -13zM421 866h125q19 0 26.5 -6.5t7.5 -17.5q0 -9 -6.5 -20t-29.5 -39l-64 -78l-22 14l92 119h-134zM380 747l101 -137
l-22 -14l-102 125l-146 -125l-19 17l146 134h42z" />
    <glyph glyph-name="uni1EAB" unicode="&#x1eab;" 
d="M406 0l19 117h-3q-29 -58 -72.5 -93.5t-111.5 -35.5q-42 0 -74 14.5t-53.5 40.5t-32.5 62.5t-11 80.5q0 69 16 131t47 109t76.5 74.5t103.5 27.5q66 0 107 -28.5t56 -75.5h4l15 92h34l-86 -516h-34zM244 19q33 0 61.5 10.5t54.5 34.5q27 25 50 62.5t31 84.5l24 142
q4 26 -2.5 52t-24.5 46.5t-49 33t-74 12.5q-41 0 -75 -16t-59.5 -44t-42.5 -66t-24 -82l-9 -55q-4 -23 -4 -49q0 -35 8.5 -65t25.5 -52.5t44 -35.5t65 -13zM307 865q20 0 36.5 -7.5t36.5 -21.5q18 -12 32.5 -18.5t30.5 -6.5q18 0 34 8t35 24l15 -19q-40 -41 -88 -41
q-20 0 -36.5 7.5t-36.5 21.5q-18 12 -32.5 18.5t-30.5 6.5q-18 0 -34 -8t-35 -24l-15 19q40 41 88 41zM380 745l102 -135l-23 -14l-102 123l-145 -123l-19 18l145 131h42z" />
    <glyph glyph-name="aacute.alt01" 
d="M231 -12q-76 0 -118 32.5t-42 89.5q0 34 10 65t35.5 54.5t68 37t107.5 13.5h149l10 56q2 14 3 25.5t1 22.5q0 114 -129 114q-32 0 -57 -5.5t-45 -17t-36 -29t-31 -41.5l-24 18q14 23 32 42t41 33t53 22t68 8q78 0 120 -37.5t42 -103.5q0 -12 -1.5 -25t-3.5 -27l-55 -335
h-34l13 79h-3q-23 -37 -65 -64t-109 -27zM236 18q33 0 64 9t55.5 25.5t41.5 41t23 56.5l17 102h-149q-87 0 -129 -27.5t-49 -73.5q-3 -23 -3.5 -30t-0.5 -12q0 -44 33.5 -67.5t96.5 -23.5zM325 594l-22 15l131 156l30 -19z" />
    <glyph glyph-name="abreve.alt01" 
d="M231 -12q-76 0 -118 32.5t-42 89.5q0 34 10 65t35.5 54.5t68 37t107.5 13.5h149l10 56q2 14 3 25.5t1 22.5q0 114 -129 114q-32 0 -57 -5.5t-45 -17t-36 -29t-31 -41.5l-24 18q14 23 32 42t41 33t53 22t68 8q78 0 120 -37.5t42 -103.5q0 -12 -1.5 -25t-3.5 -27l-55 -335
h-34l13 79h-3q-23 -37 -65 -64t-109 -27zM236 18q33 0 64 9t55.5 25.5t41.5 41t23 56.5l17 102h-149q-87 0 -129 -27.5t-49 -73.5q-3 -23 -3.5 -30t-0.5 -12q0 -44 33.5 -67.5t96.5 -23.5zM340 607q-30 0 -49.5 10t-33 27.5t-23 42t-17.5 54.5l23 11l18 -46q17 -38 34 -53.5
t49 -15.5q31 0 53.5 15t52.5 54l33 46l24 -11q-18 -30 -35 -54.5t-35.5 -42t-41 -27.5t-52.5 -10z" />
    <glyph glyph-name="acircumflex.alt01" 
d="M231 -12q-76 0 -118 32.5t-42 89.5q0 34 10 65t35.5 54.5t68 37t107.5 13.5h149l10 56q2 14 3 25.5t1 22.5q0 114 -129 114q-32 0 -57 -5.5t-45 -17t-36 -29t-31 -41.5l-24 18q14 23 32 42t41 33t53 22t68 8q78 0 120 -37.5t42 -103.5q0 -12 -1.5 -25t-3.5 -27l-55 -335
h-34l13 79h-3q-23 -37 -65 -64t-109 -27zM236 18q33 0 64 9t55.5 25.5t41.5 41t23 56.5l17 102h-149q-87 0 -129 -27.5t-49 -73.5q-3 -23 -3.5 -30t-0.5 -12q0 -44 33.5 -67.5t96.5 -23.5zM384 756l101 -137l-22 -14l-102 124l-146 -124l-19 17l146 134h42z" />
    <glyph glyph-name="adieresis.alt01" 
d="M231 -12q-76 0 -118 32.5t-42 89.5q0 34 10 65t35.5 54.5t68 37t107.5 13.5h149l10 56q2 14 3 25.5t1 22.5q0 114 -129 114q-32 0 -57 -5.5t-45 -17t-36 -29t-31 -41.5l-24 18q14 23 32 42t41 33t53 22t68 8q78 0 120 -37.5t42 -103.5q0 -12 -1.5 -25t-3.5 -27l-55 -335
h-34l13 79h-3q-23 -37 -65 -64t-109 -27zM236 18q33 0 64 9t55.5 25.5t41.5 41t23 56.5l17 102h-149q-87 0 -129 -27.5t-49 -73.5q-3 -23 -3.5 -30t-0.5 -12q0 -44 33.5 -67.5t96.5 -23.5zM255 642q-18 0 -25 7t-7 15q0 4 0.5 8t1.5 9q5 27 37 27q18 0 25 -7t7 -15
q0 -4 -0.5 -8t-1.5 -9q-5 -27 -37 -27zM437 642q-18 0 -25 7t-7 15q0 4 0.5 8t1.5 9q5 27 37 27q18 0 25 -7t7 -15q0 -4 -0.5 -8t-1.5 -9q-5 -27 -37 -27z" />
    <glyph glyph-name="uni1EA1.alt01" 
d="M231 -12q-76 0 -118 32.5t-42 89.5q0 34 10 65t35.5 54.5t68 37t107.5 13.5h149l10 56q2 14 3 25.5t1 22.5q0 114 -129 114q-32 0 -57 -5.5t-45 -17t-36 -29t-31 -41.5l-24 18q14 23 32 42t41 33t53 22t68 8q78 0 120 -37.5t42 -103.5q0 -12 -1.5 -25t-3.5 -27l-55 -335
h-34l13 79h-3q-23 -37 -65 -64t-109 -27zM236 18q33 0 64 9t55.5 25.5t41.5 41t23 56.5l17 102h-149q-87 0 -129 -27.5t-49 -73.5q-3 -23 -3.5 -30t-0.5 -12q0 -44 33.5 -67.5t96.5 -23.5zM218 -145q-18 0 -25 7t-7 15q0 4 0.5 8t1.5 9q5 27 37 27q18 0 25 -7t7 -15
q0 -4 -0.5 -8t-1.5 -9q-5 -27 -37 -27z" />
    <glyph glyph-name="agrave.alt01" 
d="M231 -12q-76 0 -118 32.5t-42 89.5q0 34 10 65t35.5 54.5t68 37t107.5 13.5h149l10 56q2 14 3 25.5t1 22.5q0 114 -129 114q-32 0 -57 -5.5t-45 -17t-36 -29t-31 -41.5l-24 18q14 23 32 42t41 33t53 22t68 8q78 0 120 -37.5t42 -103.5q0 -12 -1.5 -25t-3.5 -27l-55 -335
h-34l13 79h-3q-23 -37 -65 -64t-109 -27zM236 18q33 0 64 9t55.5 25.5t41.5 41t23 56.5l17 102h-149q-87 0 -129 -27.5t-49 -73.5q-3 -23 -3.5 -30t-0.5 -12q0 -44 33.5 -67.5t96.5 -23.5zM262 750l33 15l77 -159l-24 -12z" />
    <glyph glyph-name="uni1EA3.alt01" 
d="M231 -12q-76 0 -118 32.5t-42 89.5q0 34 10 65t35.5 54.5t68 37t107.5 13.5h149l10 56q2 14 3 25.5t1 22.5q0 114 -129 114q-32 0 -57 -5.5t-45 -17t-36 -29t-31 -41.5l-24 18q14 23 32 42t41 33t53 22t68 8q78 0 120 -37.5t42 -103.5q0 -12 -1.5 -25t-3.5 -27l-55 -335
h-34l13 79h-3q-23 -37 -65 -64t-109 -27zM236 18q33 0 64 9t55.5 25.5t41.5 41t23 56.5l17 102h-149q-87 0 -129 -27.5t-49 -73.5q-3 -23 -3.5 -30t-0.5 -12q0 -44 33.5 -67.5t96.5 -23.5zM288 751h126q18 0 26 -6.5t8 -17.5q0 -10 -7.5 -22.5t-32.5 -41.5l-61 -72l-21 13
l91 119h-134z" />
    <glyph glyph-name="amacron.alt01" 
d="M231 -12q-76 0 -118 32.5t-42 89.5q0 34 10 65t35.5 54.5t68 37t107.5 13.5h149l10 56q2 14 3 25.5t1 22.5q0 114 -129 114q-32 0 -57 -5.5t-45 -17t-36 -29t-31 -41.5l-24 18q14 23 32 42t41 33t53 22t68 8q78 0 120 -37.5t42 -103.5q0 -12 -1.5 -25t-3.5 -27l-55 -335
h-34l13 79h-3q-23 -37 -65 -64t-109 -27zM236 18q33 0 64 9t55.5 25.5t41.5 41t23 56.5l17 102h-149q-87 0 -129 -27.5t-49 -73.5q-3 -23 -3.5 -30t-0.5 -12q0 -44 33.5 -67.5t96.5 -23.5zM221 691h262l-5 -30h-262z" />
    <glyph glyph-name="aogonek.alt01" 
d="M338 -203q-32 0 -56 16t-24 51q0 15 6 31t21.5 32.5t42 34.5t67.5 38l13 79h-3q-23 -37 -65 -64t-109 -27q-76 0 -118 32.5t-42 89.5q0 34 10 65t35.5 54.5t68 37t107.5 13.5h149l9 56q2 14 3 25.5t1 22.5q0 114 -128 114q-32 0 -57 -6t-45 -17.5t-36 -29t-31 -41.5
l-24 19q14 23 32 42t41 33t53 22t68 8q78 0 120 -37.5t42 -103.5q0 -12 -1.5 -25t-3.5 -27l-55 -335q-39 -23 -65.5 -40.5t-43 -32.5t-23.5 -29.5t-7 -30.5q0 -23 14.5 -33.5t34.5 -10.5q21 0 36 7.5t26 18.5l19 -19q-12 -14 -33 -23.5t-49 -9.5zM236 18q33 0 64 9
t55.5 25.5t41.5 41t23 56.5l17 102h-149q-87 0 -129 -27.5t-49 -73.5q-3 -23 -3.5 -30t-0.5 -12q0 -44 33.5 -67.5t96.5 -23.5z" />
    <glyph glyph-name="aring.alt01" 
d="M231 -12q-76 0 -118 32.5t-42 89.5q0 34 10 65t35.5 54.5t68 37t107.5 13.5h149l10 56q2 14 3 25.5t1 22.5q0 114 -129 114q-32 0 -57 -5.5t-45 -17t-36 -29t-31 -41.5l-24 18q14 23 32 42t41 33t53 22t68 8q78 0 120 -37.5t42 -103.5q0 -12 -1.5 -25t-3.5 -27l-55 -335
h-34l13 79h-3q-23 -37 -65 -64t-109 -27zM236 18q33 0 64 9t55.5 25.5t41.5 41t23 56.5l17 102h-149q-87 0 -129 -27.5t-49 -73.5q-3 -23 -3.5 -30t-0.5 -12q0 -44 33.5 -67.5t96.5 -23.5zM337 594q-38 0 -60.5 22.5t-22.5 58.5q0 24 9 44.5t24 35.5t35.5 23t43.5 8
q38 0 60.5 -22.5t22.5 -58.5q0 -24 -9 -44.5t-24 -35.5t-35.5 -23t-43.5 -8zM340 618q31 0 52 17t26 48q2 11 2.5 17t0.5 11q0 23 -14.5 37t-43.5 14q-31 0 -52 -17t-26 -48q-2 -11 -2.5 -17t-0.5 -11q0 -23 14.5 -37t43.5 -14z" />
    <glyph glyph-name="aringacute.alt01" 
d="M231 -12q-76 0 -118 32.5t-42 89.5q0 34 10 65t35.5 54.5t68 37t107.5 13.5h149l10 56q2 14 3 25.5t1 22.5q0 114 -129 114q-32 0 -57 -5.5t-45 -17t-36 -29t-31 -41.5l-24 18q14 23 32 42t41 33t53 22t68 8q78 0 120 -37.5t42 -103.5q0 -12 -1.5 -25t-3.5 -27l-55 -335
h-34l13 79h-3q-23 -37 -65 -64t-109 -27zM236 18q33 0 64 9t55.5 25.5t41.5 41t23 56.5l17 102h-149q-87 0 -129 -27.5t-49 -73.5q-3 -23 -3.5 -30t-0.5 -12q0 -44 33.5 -67.5t96.5 -23.5zM372 810l-19 14l95 105l25 -20zM337 592q-38 0 -60.5 22.5t-22.5 58.5q0 24 9 44.5
t24 35.5t35.5 23t43.5 8q38 0 60.5 -22.5t22.5 -58.5q0 -24 -9 -44.5t-24 -35.5t-35.5 -23t-43.5 -8zM340 616q31 0 52 17t26 48q2 11 2.5 17t0.5 11q0 23 -14.5 37t-43.5 14q-31 0 -52 -17t-26 -48q-2 -11 -2.5 -17t-0.5 -11q0 -23 14.5 -37t43.5 -14z" />
    <glyph glyph-name="atilde.alt01" 
d="M231 -12q-76 0 -118 32.5t-42 89.5q0 34 10 65t35.5 54.5t68 37t107.5 13.5h149l10 56q2 14 3 25.5t1 22.5q0 114 -129 114q-32 0 -57 -5.5t-45 -17t-36 -29t-31 -41.5l-24 18q14 23 32 42t41 33t53 22t68 8q78 0 120 -37.5t42 -103.5q0 -12 -1.5 -25t-3.5 -27l-55 -335
h-34l13 79h-3q-23 -37 -65 -64t-109 -27zM236 18q33 0 64 9t55.5 25.5t41.5 41t23 56.5l17 102h-149q-87 0 -129 -27.5t-49 -73.5q-3 -23 -3.5 -30t-0.5 -12q0 -44 33.5 -67.5t96.5 -23.5zM414 632q-20 0 -36 7.5t-36 21.5q-18 12 -32.5 19t-31.5 7t-33.5 -8t-34.5 -24
l-15 19q40 42 89 42q20 0 36 -7.5t36 -21.5q18 -12 32.5 -19t31.5 -7t33.5 8t34.5 24l15 -19q-41 -42 -89 -42z" />
    <glyph glyph-name="uni1EAF.alt01" 
d="M231 -12q-76 0 -118 32.5t-42 89.5q0 34 10 65t35.5 54.5t68 37t107.5 13.5h149l10 56q2 14 3 25.5t1 22.5q0 114 -129 114q-32 0 -57 -5.5t-45 -17t-36 -29t-31 -41.5l-24 18q14 23 32 42t41 33t53 22t68 8q78 0 120 -37.5t42 -103.5q0 -12 -1.5 -25t-3.5 -27l-55 -335
h-34l13 79h-3q-23 -37 -65 -64t-109 -27zM236 18q33 0 64 9t55.5 25.5t41.5 41t23 56.5l17 102h-149q-87 0 -129 -27.5t-49 -73.5q-3 -23 -3.5 -30t-0.5 -12q0 -44 33.5 -67.5t96.5 -23.5zM339 599q-30 0 -49.5 9.5t-33 26.5t-23 41.5t-17.5 53.5l22 11l19 -45
q17 -38 34.5 -53t49.5 -15q31 0 54.5 14.5t52.5 53.5l34 45l23 -11q-18 -30 -35.5 -54t-36.5 -41.5t-41.5 -26.5t-52.5 -9zM345 707l-22 15l131 156l30 -19z" />
    <glyph glyph-name="uni1EB7.alt01" 
d="M231 -12q-76 0 -118 32.5t-42 89.5q0 34 10 65t35.5 54.5t68 37t107.5 13.5h149l10 56q2 14 3 25.5t1 22.5q0 114 -129 114q-32 0 -57 -5.5t-45 -17t-36 -29t-31 -41.5l-24 18q14 23 32 42t41 33t53 22t68 8q78 0 120 -37.5t42 -103.5q0 -12 -1.5 -25t-3.5 -27l-55 -335
h-34l13 79h-3q-23 -37 -65 -64t-109 -27zM236 18q33 0 64 9t55.5 25.5t41.5 41t23 56.5l17 102h-149q-87 0 -129 -27.5t-49 -73.5q-3 -23 -3.5 -30t-0.5 -12q0 -44 33.5 -67.5t96.5 -23.5zM340 607q-30 0 -49.5 10t-33 27.5t-23 42t-17.5 54.5l23 11l18 -46q17 -38 34 -53.5
t49 -15.5q31 0 53.5 15t52.5 54l33 46l24 -11q-18 -30 -35 -54.5t-35.5 -42t-41 -27.5t-52.5 -10zM218 -145q-18 0 -25 7t-7 15q0 4 0.5 8t1.5 9q5 27 37 27q18 0 25 -7t7 -15q0 -4 -0.5 -8t-1.5 -9q-5 -27 -37 -27z" />
    <glyph glyph-name="uni1EB1.alt01" 
d="M231 -12q-76 0 -118 32.5t-42 89.5q0 34 10 65t35.5 54.5t68 37t107.5 13.5h149l10 56q2 14 3 25.5t1 22.5q0 114 -129 114q-32 0 -57 -5.5t-45 -17t-36 -29t-31 -41.5l-24 18q14 23 32 42t41 33t53 22t68 8q78 0 120 -37.5t42 -103.5q0 -12 -1.5 -25t-3.5 -27l-55 -335
h-34l13 79h-3q-23 -37 -65 -64t-109 -27zM236 18q33 0 64 9t55.5 25.5t41.5 41t23 56.5l17 102h-149q-87 0 -129 -27.5t-49 -73.5q-3 -23 -3.5 -30t-0.5 -12q0 -44 33.5 -67.5t96.5 -23.5zM339 599q-30 0 -49.5 9.5t-33 26.5t-23 41.5t-17.5 53.5l22 11l19 -45
q17 -38 34.5 -53t49.5 -15q31 0 54.5 14.5t52.5 53.5l34 45l23 -11q-18 -30 -35.5 -54t-36.5 -41.5t-41.5 -26.5t-52.5 -9zM268 863l33 15l77 -160l-24 -11z" />
    <glyph glyph-name="uni1EB3.alt01" 
d="M231 -12q-76 0 -118 32.5t-42 89.5q0 34 10 65t35.5 54.5t68 37t107.5 13.5h149l10 56q2 14 3 25.5t1 22.5q0 114 -129 114q-32 0 -57 -5.5t-45 -17t-36 -29t-31 -41.5l-24 18q14 23 32 42t41 33t53 22t68 8q78 0 120 -37.5t42 -103.5q0 -12 -1.5 -25t-3.5 -27l-55 -335
h-34l13 79h-3q-23 -37 -65 -64t-109 -27zM236 18q33 0 64 9t55.5 25.5t41.5 41t23 56.5l17 102h-149q-87 0 -129 -27.5t-49 -73.5q-3 -23 -3.5 -30t-0.5 -12q0 -44 33.5 -67.5t96.5 -23.5zM339 599q-30 0 -49.5 9.5t-33 26.5t-23 41.5t-17.5 53.5l22 11l19 -45
q17 -38 34.5 -53t49.5 -15q31 0 54.5 14.5t52.5 53.5l34 45l23 -11q-18 -30 -35.5 -54t-36.5 -41.5t-41.5 -26.5t-52.5 -9zM297 865h123q19 0 26.5 -6.5t7.5 -17.5q0 -9 -6.5 -20.5t-29.5 -38.5l-64 -78l-22 14l92 119h-131z" />
    <glyph glyph-name="uni1EB5.alt01" 
d="M231 -12q-76 0 -118 32.5t-42 89.5q0 34 10 65t35.5 54.5t68 37t107.5 13.5h149l10 56q2 14 3 25.5t1 22.5q0 114 -129 114q-32 0 -57 -5.5t-45 -17t-36 -29t-31 -41.5l-24 18q14 23 32 42t41 33t53 22t68 8q78 0 120 -37.5t42 -103.5q0 -12 -1.5 -25t-3.5 -27l-55 -335
h-34l13 79h-3q-23 -37 -65 -64t-109 -27zM236 18q33 0 64 9t55.5 25.5t41.5 41t23 56.5l17 102h-149q-87 0 -129 -27.5t-49 -73.5q-3 -23 -3.5 -30t-0.5 -12q0 -44 33.5 -67.5t96.5 -23.5zM339 599q-30 0 -49.5 9.5t-33 26.5t-23 41.5t-17.5 53.5l22 11l19 -45
q17 -38 34.5 -53t49.5 -15q31 0 54.5 14.5t52.5 53.5l34 45l23 -11q-18 -30 -35.5 -54t-36.5 -41.5t-41.5 -26.5t-52.5 -9zM433 772q-20 0 -36.5 7.5t-36.5 21.5q-18 12 -32.5 18.5t-30.5 6.5q-18 0 -34 -8t-35 -24l-15 19q40 41 88 41q20 0 36.5 -7.5t36.5 -21.5
q18 -12 32.5 -18.5t30.5 -6.5q18 0 34 8t35 24l15 -19q-40 -41 -88 -41z" />
    <glyph glyph-name="uni1EA5.alt01" 
d="M231 -12q-76 0 -118 32.5t-42 89.5q0 34 10 65t35.5 54.5t68 37t107.5 13.5h149l10 56q2 14 3 25.5t1 22.5q0 114 -129 114q-32 0 -57 -5.5t-45 -17t-36 -29t-31 -41.5l-24 18q14 23 32 42t41 33t53 22t68 8q78 0 120 -37.5t42 -103.5q0 -12 -1.5 -25t-3.5 -27l-55 -335
h-34l13 79h-3q-23 -37 -65 -64t-109 -27zM236 18q33 0 64 9t55.5 25.5t41.5 41t23 56.5l17 102h-149q-87 0 -129 -27.5t-49 -73.5q-3 -23 -3.5 -30t-0.5 -12q0 -44 33.5 -67.5t96.5 -23.5zM479 707l-21 15l131 156l29 -19zM382 747l101 -137l-22 -14l-102 125l-146 -125
l-19 17l146 134h42z" />
    <glyph glyph-name="uni1EAD.alt01" 
d="M231 -12q-76 0 -118 32.5t-42 89.5q0 34 10 65t35.5 54.5t68 37t107.5 13.5h149l10 56q2 14 3 25.5t1 22.5q0 114 -129 114q-32 0 -57 -5.5t-45 -17t-36 -29t-31 -41.5l-24 18q14 23 32 42t41 33t53 22t68 8q78 0 120 -37.5t42 -103.5q0 -12 -1.5 -25t-3.5 -27l-55 -335
h-34l13 79h-3q-23 -37 -65 -64t-109 -27zM236 18q33 0 64 9t55.5 25.5t41.5 41t23 56.5l17 102h-149q-87 0 -129 -27.5t-49 -73.5q-3 -23 -3.5 -30t-0.5 -12q0 -44 33.5 -67.5t96.5 -23.5zM384 756l101 -137l-22 -14l-102 124l-146 -124l-19 17l146 134h42zM218 -145
q-18 0 -25 7t-7 15q0 4 0.5 8t1.5 9q5 27 37 27q18 0 25 -7t7 -15q0 -4 -0.5 -8t-1.5 -9q-5 -27 -37 -27z" />
    <glyph glyph-name="uni1EA7.alt01" 
d="M231 -12q-76 0 -118 32.5t-42 89.5q0 34 10 65t35.5 54.5t68 37t107.5 13.5h149l10 56q2 14 3 25.5t1 22.5q0 114 -129 114q-32 0 -57 -5.5t-45 -17t-36 -29t-31 -41.5l-24 18q14 23 32 42t41 33t53 22t68 8q78 0 120 -37.5t42 -103.5q0 -12 -1.5 -25t-3.5 -27l-55 -335
h-34l13 79h-3q-23 -37 -65 -64t-109 -27zM236 18q33 0 64 9t55.5 25.5t41.5 41t23 56.5l17 102h-149q-87 0 -129 -27.5t-49 -73.5q-3 -23 -3.5 -30t-0.5 -12q0 -44 33.5 -67.5t96.5 -23.5zM146 865l32 15l78 -160l-24 -11zM382 747l101 -137l-22 -14l-102 125l-146 -125
l-19 17l146 134h42z" />
    <glyph glyph-name="uni1EA9.alt01" 
d="M231 -12q-76 0 -118 32.5t-42 89.5q0 34 10 65t35.5 54.5t68 37t107.5 13.5h149l10 56q2 14 3 25.5t1 22.5q0 114 -129 114q-32 0 -57 -5.5t-45 -17t-36 -29t-31 -41.5l-24 18q14 23 32 42t41 33t53 22t68 8q78 0 120 -37.5t42 -103.5q0 -12 -1.5 -25t-3.5 -27l-55 -335
h-34l13 79h-3q-23 -37 -65 -64t-109 -27zM236 18q33 0 64 9t55.5 25.5t41.5 41t23 56.5l17 102h-149q-87 0 -129 -27.5t-49 -73.5q-3 -23 -3.5 -30t-0.5 -12q0 -44 33.5 -67.5t96.5 -23.5zM423 866h125q19 0 26.5 -6.5t7.5 -17.5q0 -9 -6.5 -20t-29.5 -39l-64 -78l-22 14
l92 119h-134zM382 747l101 -137l-22 -14l-102 125l-146 -125l-19 17l146 134h42z" />
    <glyph glyph-name="uni1EAB.alt01" 
d="M231 -12q-76 0 -118 32.5t-42 89.5q0 34 10 65t35.5 54.5t68 37t107.5 13.5h149l10 56q2 14 3 25.5t1 22.5q0 114 -129 114q-32 0 -57 -5.5t-45 -17t-36 -29t-31 -41.5l-24 18q14 23 32 42t41 33t53 22t68 8q78 0 120 -37.5t42 -103.5q0 -12 -1.5 -25t-3.5 -27l-55 -335
h-34l13 79h-3q-23 -37 -65 -64t-109 -27zM236 18q33 0 64 9t55.5 25.5t41.5 41t23 56.5l17 102h-149q-87 0 -129 -27.5t-49 -73.5q-3 -23 -3.5 -30t-0.5 -12q0 -44 33.5 -67.5t96.5 -23.5zM309 865q20 0 36.5 -7.5t36.5 -21.5q18 -12 32.5 -18.5t30.5 -6.5q18 0 34 8t35 24
l15 -19q-40 -41 -88 -41q-20 0 -36.5 7.5t-36.5 21.5q-18 12 -32.5 18.5t-30.5 6.5q-18 0 -34 -8t-35 -24l-15 19q40 41 88 41zM382 745l102 -135l-23 -14l-102 123l-145 -123l-19 18l145 131h42z" />
    <glyph glyph-name="ae" unicode="&#xe6;" 
d="M116 -12q-54 0 -83.5 29t-29.5 80q0 160 208 170l74 4l15 87q4 23 4 42q0 56 -24.5 78t-66.5 22q-47 0 -75.5 -23.5t-53.5 -62.5l-24 15q23 41 61 70t94 29q58 0 87 -31t27 -87h4q26 60 66 89t88 29t76 -30t28 -76q0 -41 -15.5 -73t-49 -54.5t-86 -35t-127.5 -14.5
l-2 -14q-8 -46 -8 -77q0 -72 24 -104.5t66 -32.5q45 0 76.5 29.5t55.5 80.5l26 -12q-12 -26 -27.5 -49t-35 -40.5t-43.5 -27.5t-54 -10q-50 0 -80.5 32t-33.5 98h-4q-17 -57 -54.5 -93.5t-102.5 -36.5zM121 16q31 0 56 11.5t43.5 31.5t30 46t16.5 56l14 84l-69 -4
q-38 -2 -67.5 -8t-51 -18.5t-35 -32.5t-19.5 -50q-3 -15 -3.5 -23t-0.5 -13q0 -38 21 -59t65 -21zM482 500q-29 0 -55.5 -14.5t-48 -42t-37 -67t-21.5 -88.5l-2 -17q125 3 183 38.5t58 110.5q0 38 -20.5 59t-56.5 21z" />
    <glyph glyph-name="aeacute" unicode="&#x1fd;" 
d="M116 -12q-54 0 -83.5 29t-29.5 80q0 160 208 170l74 4l15 87q4 23 4 42q0 56 -24.5 78t-66.5 22q-47 0 -75.5 -23.5t-53.5 -62.5l-24 15q23 41 61 70t94 29q58 0 87 -31t27 -87h4q26 60 66 89t88 29t76 -30t28 -76q0 -41 -15.5 -73t-49 -54.5t-86 -35t-127.5 -14.5
l-2 -14q-8 -46 -8 -77q0 -72 24 -104.5t66 -32.5q45 0 76.5 29.5t55.5 80.5l26 -12q-12 -26 -27.5 -49t-35 -40.5t-43.5 -27.5t-54 -10q-50 0 -80.5 32t-33.5 98h-4q-17 -57 -54.5 -93.5t-102.5 -36.5zM121 16q31 0 56 11.5t43.5 31.5t30 46t16.5 56l14 84l-69 -4
q-38 -2 -67.5 -8t-51 -18.5t-35 -32.5t-19.5 -50q-3 -15 -3.5 -23t-0.5 -13q0 -38 21 -59t65 -21zM482 500q-29 0 -55.5 -14.5t-48 -42t-37 -67t-21.5 -88.5l-2 -17q125 3 183 38.5t58 110.5q0 38 -20.5 59t-56.5 21zM363 594l-22 15l131 156l30 -19z" />
    <glyph glyph-name="cacute" unicode="&#x107;" 
d="M266 -12q-46 0 -80.5 16t-58 44.5t-35 67.5t-11.5 86q0 77 19 137.5t53 102.5t81 64t102 22q67 0 109.5 -33t54.5 -84l-30 -10q-14 48 -49.5 72t-86.5 24q-81 0 -136 -52.5t-70 -144.5l-9 -52q-2 -16 -3 -26.5t-1 -24.5q0 -38 9.5 -70.5t28.5 -56.5t47.5 -37.5
t67.5 -13.5q58 0 102.5 33.5t89.5 102.5l27 -14q-43 -70 -95 -111.5t-126 -41.5zM331 594l-22 15l131 156l30 -19z" />
    <glyph glyph-name="ccaron" unicode="&#x10d;" 
d="M266 -12q-46 0 -80.5 16t-58 44.5t-35 67.5t-11.5 86q0 77 19 137.5t53 102.5t81 64t102 22q67 0 109.5 -33t54.5 -84l-30 -10q-14 48 -49.5 72t-86.5 24q-81 0 -136 -52.5t-70 -144.5l-9 -52q-2 -16 -3 -26.5t-1 -24.5q0 -38 9.5 -70.5t28.5 -56.5t47.5 -37.5
t67.5 -13.5q58 0 102.5 33.5t89.5 102.5l27 -14q-43 -70 -95 -111.5t-126 -41.5zM324 610l-102 137l22 14l102 -125l146 125l19 -17l-146 -134h-41z" />
    <glyph glyph-name="ccedilla" unicode="&#xe7;" 
d="M336 528q67 0 109.5 -33t54.5 -84l-30 -10q-14 48 -49.5 72t-86.5 24q-81 0 -136 -52.5t-70 -144.5l-9 -52q-2 -16 -3 -26.5t-1 -24.5q0 -38 9.5 -70.5t28.5 -56.5t47.5 -37.5t67.5 -13.5q58 0 102.5 33.5t89.5 102.5l27 -14q-42 -69 -93 -110t-123 -43h-6l-25 -58l2 -2
q8 2 16.5 2.5t14.5 0.5q28 0 43.5 -14.5t15.5 -40.5q0 -35 -26.5 -57t-70.5 -22q-31 0 -51.5 10t-29.5 24l20 19q10 -12 25 -19.5t36 -7.5q30 0 48 14.5t18 37.5q0 16 -11.5 27t-43.5 13l-36 3l29 72q-79 9 -118.5 67t-39.5 145q0 77 19 137.5t53 102.5t81 64t102 22z" />
    <glyph glyph-name="ccircumflex" unicode="&#x109;" 
d="M266 -12q-46 0 -80.5 16t-58 44.5t-35 67.5t-11.5 86q0 77 19 137.5t53 102.5t81 64t102 22q67 0 109.5 -33t54.5 -84l-30 -10q-14 48 -49.5 72t-86.5 24q-81 0 -136 -52.5t-70 -144.5l-9 -52q-2 -16 -3 -26.5t-1 -24.5q0 -38 9.5 -70.5t28.5 -56.5t47.5 -37.5
t67.5 -13.5q58 0 102.5 33.5t89.5 102.5l27 -14q-43 -70 -95 -111.5t-126 -41.5zM390 756l101 -137l-22 -14l-102 124l-146 -124l-19 17l146 134h42z" />
    <glyph glyph-name="cdotaccent" unicode="&#x10b;" 
d="M266 -12q-46 0 -80.5 16t-58 44.5t-35 67.5t-11.5 86q0 77 19 137.5t53 102.5t81 64t102 22q67 0 109.5 -33t54.5 -84l-30 -10q-14 48 -49.5 72t-86.5 24q-81 0 -136 -52.5t-70 -144.5l-9 -52q-2 -16 -3 -26.5t-1 -24.5q0 -38 9.5 -70.5t28.5 -56.5t47.5 -37.5
t67.5 -13.5q58 0 102.5 33.5t89.5 102.5l27 -14q-43 -70 -95 -111.5t-126 -41.5zM352 640q-20 0 -27 7t-7 16q0 6 3 18q3 13 12 20.5t26 7.5q20 0 27 -7t7 -16q0 -6 -3 -18q-3 -13 -12 -20.5t-26 -7.5z" />
    <glyph glyph-name="dcaron" unicode="&#x10f;" 
d="M232 -12q-41 0 -72.5 14.5t-52.5 40.5t-32 62.5t-11 80.5q0 69 16 131t46.5 109t75.5 74.5t102 27.5q66 0 106.5 -28t55.5 -75h3l51 315h35l-123 -740h-34l19 117h-3q-29 -58 -72 -93.5t-110 -35.5zM239 19q32 0 60 10t54 35t49 62.5t31 84.5l24 142q4 26 -2.5 52
t-24.5 46.5t-48 33t-73 12.5q-41 0 -74.5 -16t-58.5 -43.5t-41.5 -65.5t-23.5 -83l-9 -55q-4 -23 -4 -49q0 -35 8 -65t25.5 -52.5t44 -35.5t63.5 -13zM639 740h43l-59 -179h-27z" />
    <glyph glyph-name="dcroat" unicode="&#x111;" 
d="M425 117h-3q-29 -58 -72.5 -93.5t-111.5 -35.5q-42 0 -74 14.5t-53.5 40.5t-32.5 62.5t-11 80.5q0 69 16 131t47 109t76.5 74.5t103.5 27.5q66 0 107 -28.5t56 -75.5h4l34 206h-164l5 28h164l13 82h34l-14 -82h70l-5 -28h-69l-105 -630h-34zM244 19q33 0 61.5 10.5
t54.5 34.5q27 25 50 62.5t31 84.5l24 142q4 26 -2.5 52t-24.5 46.5t-49 33t-74 12.5q-41 0 -75 -16t-59.5 -44t-42.5 -66t-24 -82l-9 -55q-4 -23 -4 -49q0 -35 8.5 -65t25.5 -52.5t44 -35.5t65 -13z" />
    <glyph glyph-name="eth" unicode="&#xf0;" 
d="M399 654q24 -27 45.5 -60t38 -73t26 -87.5t9.5 -102.5q0 -83 -19 -146.5t-53.5 -107.5t-82.5 -66.5t-106 -22.5q-85 0 -134 52.5t-49 143.5q0 72 18.5 131.5t52 102t79.5 66t101 23.5q52 0 92 -23.5t60 -65.5l4 2q-11 61 -39.5 116t-69.5 102l-111 -71l-15 22l109 68
q-46 46 -103 83h55q17 -14 36 -30t39 -36l114 73l15 -22zM261 19q80 0 136 50.5t73 144.5l8 46q2 16 3 30t1 26q0 77 -42 118.5t-111 41.5q-80 0 -136 -50.5t-73 -144.5l-8 -46q-2 -16 -3 -30t-1 -26q0 -77 42 -118.5t111 -41.5z" />
    <glyph glyph-name="eacute" unicode="&#xe9;" 
d="M274 -12q-94 0 -143.5 56.5t-49.5 166.5q0 65 19.5 123t54.5 101t83.5 68t107.5 25q76 0 120.5 -33.5t44.5 -93.5q0 -26 -12.5 -55t-53.5 -54.5t-119 -43t-210 -20.5q-1 -8 -1 -16v-10q0 -38 8 -71.5t27 -58.5t50 -39.5t76 -14.5q64 0 110 35.5t81 101.5l27 -15
q-42 -78 -95 -115t-125 -37zM343 498q-40 0 -76.5 -14.5t-66 -42.5t-49.5 -68t-28 -92l-4 -26q113 2 183 15.5t108.5 34t52 45.5t13.5 50q0 42 -30.5 70t-102.5 28zM346 594l-22 15l131 156l30 -19z" />
    <glyph glyph-name="ebreve" unicode="&#x115;" 
d="M274 -12q-94 0 -143.5 56.5t-49.5 166.5q0 65 19.5 123t54.5 101t83.5 68t107.5 25q76 0 120.5 -33.5t44.5 -93.5q0 -26 -12.5 -55t-53.5 -54.5t-119 -43t-210 -20.5q-1 -8 -1 -16v-10q0 -38 8 -71.5t27 -58.5t50 -39.5t76 -14.5q64 0 110 35.5t81 101.5l27 -15
q-42 -78 -95 -115t-125 -37zM343 498q-40 0 -76.5 -14.5t-66 -42.5t-49.5 -68t-28 -92l-4 -26q113 2 183 15.5t108.5 34t52 45.5t13.5 50q0 42 -30.5 70t-102.5 28zM361 607q-30 0 -49.5 10t-33 27.5t-23 42t-17.5 54.5l23 11l18 -46q17 -38 34 -53.5t49 -15.5q31 0 53.5 15
t52.5 54l33 46l24 -11q-18 -30 -35 -54.5t-35.5 -42t-41 -27.5t-52.5 -10z" />
    <glyph glyph-name="ecaron" unicode="&#x11b;" 
d="M274 -12q-94 0 -143.5 56.5t-49.5 166.5q0 65 19.5 123t54.5 101t83.5 68t107.5 25q76 0 120.5 -33.5t44.5 -93.5q0 -26 -12.5 -55t-53.5 -54.5t-119 -43t-210 -20.5q-1 -8 -1 -16v-10q0 -38 8 -71.5t27 -58.5t50 -39.5t76 -14.5q64 0 110 35.5t81 101.5l27 -15
q-42 -78 -95 -115t-125 -37zM343 498q-40 0 -76.5 -14.5t-66 -42.5t-49.5 -68t-28 -92l-4 -26q113 2 183 15.5t108.5 34t52 45.5t13.5 50q0 42 -30.5 70t-102.5 28zM339 610l-102 137l22 14l102 -125l146 125l19 -17l-146 -134h-41z" />
    <glyph glyph-name="ecircumflex" unicode="&#xea;" 
d="M274 -12q-94 0 -143.5 56.5t-49.5 166.5q0 65 19.5 123t54.5 101t83.5 68t107.5 25q76 0 120.5 -33.5t44.5 -93.5q0 -26 -12.5 -55t-53.5 -54.5t-119 -43t-210 -20.5q-1 -8 -1 -16v-10q0 -38 8 -71.5t27 -58.5t50 -39.5t76 -14.5q64 0 110 35.5t81 101.5l27 -15
q-42 -78 -95 -115t-125 -37zM343 498q-40 0 -76.5 -14.5t-66 -42.5t-49.5 -68t-28 -92l-4 -26q113 2 183 15.5t108.5 34t52 45.5t13.5 50q0 42 -30.5 70t-102.5 28zM405 756l101 -137l-22 -14l-102 124l-146 -124l-19 17l146 134h42z" />
    <glyph glyph-name="edieresis" unicode="&#xeb;" 
d="M274 -12q-94 0 -143.5 56.5t-49.5 166.5q0 65 19.5 123t54.5 101t83.5 68t107.5 25q76 0 120.5 -33.5t44.5 -93.5q0 -26 -12.5 -55t-53.5 -54.5t-119 -43t-210 -20.5q-1 -8 -1 -16v-10q0 -38 8 -71.5t27 -58.5t50 -39.5t76 -14.5q64 0 110 35.5t81 101.5l27 -15
q-42 -78 -95 -115t-125 -37zM343 498q-40 0 -76.5 -14.5t-66 -42.5t-49.5 -68t-28 -92l-4 -26q113 2 183 15.5t108.5 34t52 45.5t13.5 50q0 42 -30.5 70t-102.5 28zM276 642q-18 0 -25 7t-7 15q0 4 0.5 8t1.5 9q5 27 37 27q18 0 25 -7t7 -15q0 -4 -0.5 -8t-1.5 -9
q-5 -27 -37 -27zM458 642q-18 0 -25 7t-7 15q0 4 0.5 8t1.5 9q5 27 37 27q18 0 25 -7t7 -15q0 -4 -0.5 -8t-1.5 -9q-5 -27 -37 -27z" />
    <glyph glyph-name="edotaccent" unicode="&#x117;" 
d="M274 -12q-94 0 -143.5 56.5t-49.5 166.5q0 65 19.5 123t54.5 101t83.5 68t107.5 25q76 0 120.5 -33.5t44.5 -93.5q0 -26 -12.5 -55t-53.5 -54.5t-119 -43t-210 -20.5q-1 -8 -1 -16v-10q0 -38 8 -71.5t27 -58.5t50 -39.5t76 -14.5q64 0 110 35.5t81 101.5l27 -15
q-42 -78 -95 -115t-125 -37zM343 498q-40 0 -76.5 -14.5t-66 -42.5t-49.5 -68t-28 -92l-4 -26q113 2 183 15.5t108.5 34t52 45.5t13.5 50q0 42 -30.5 70t-102.5 28zM367 640q-20 0 -27 7t-7 16q0 6 3 18q3 13 12 20.5t26 7.5q20 0 27 -7t7 -16q0 -6 -3 -18q-3 -13 -12 -20.5
t-26 -7.5z" />
    <glyph glyph-name="uni1EB9" unicode="&#x1eb9;" 
d="M274 -12q-94 0 -143.5 56.5t-49.5 166.5q0 65 19.5 123t54.5 101t83.5 68t107.5 25q76 0 120.5 -33.5t44.5 -93.5q0 -26 -12.5 -55t-53.5 -54.5t-119 -43t-210 -20.5q-1 -8 -1 -16v-10q0 -38 8 -71.5t27 -58.5t50 -39.5t76 -14.5q64 0 110 35.5t81 101.5l27 -15
q-42 -78 -95 -115t-125 -37zM343 498q-40 0 -76.5 -14.5t-66 -42.5t-49.5 -68t-28 -92l-4 -26q113 2 183 15.5t108.5 34t52 45.5t13.5 50q0 42 -30.5 70t-102.5 28zM251 -145q-18 0 -25 7t-7 15q0 4 0.5 8t1.5 9q5 27 37 27q18 0 25 -7t7 -15q0 -4 -0.5 -8t-1.5 -9
q-5 -27 -37 -27z" />
    <glyph glyph-name="egrave" unicode="&#xe8;" 
d="M274 -12q-94 0 -143.5 56.5t-49.5 166.5q0 65 19.5 123t54.5 101t83.5 68t107.5 25q76 0 120.5 -33.5t44.5 -93.5q0 -26 -12.5 -55t-53.5 -54.5t-119 -43t-210 -20.5q-1 -8 -1 -16v-10q0 -38 8 -71.5t27 -58.5t50 -39.5t76 -14.5q64 0 110 35.5t81 101.5l27 -15
q-42 -78 -95 -115t-125 -37zM343 498q-40 0 -76.5 -14.5t-66 -42.5t-49.5 -68t-28 -92l-4 -26q113 2 183 15.5t108.5 34t52 45.5t13.5 50q0 42 -30.5 70t-102.5 28zM283 750l33 15l77 -159l-24 -12z" />
    <glyph glyph-name="uni1EBB" unicode="&#x1ebb;" 
d="M274 -12q-94 0 -143.5 56.5t-49.5 166.5q0 65 19.5 123t54.5 101t83.5 68t107.5 25q76 0 120.5 -33.5t44.5 -93.5q0 -26 -12.5 -55t-53.5 -54.5t-119 -43t-210 -20.5q-1 -8 -1 -16v-10q0 -38 8 -71.5t27 -58.5t50 -39.5t76 -14.5q64 0 110 35.5t81 101.5l27 -15
q-42 -78 -95 -115t-125 -37zM343 498q-40 0 -76.5 -14.5t-66 -42.5t-49.5 -68t-28 -92l-4 -26q113 2 183 15.5t108.5 34t52 45.5t13.5 50q0 42 -30.5 70t-102.5 28zM309 751h126q18 0 26 -6.5t8 -17.5q0 -10 -7.5 -22.5t-32.5 -41.5l-61 -72l-21 13l91 119h-134z" />
    <glyph glyph-name="emacron" unicode="&#x113;" 
d="M274 -12q-94 0 -143.5 56.5t-49.5 166.5q0 65 19.5 123t54.5 101t83.5 68t107.5 25q76 0 120.5 -33.5t44.5 -93.5q0 -26 -12.5 -55t-53.5 -54.5t-119 -43t-210 -20.5q-1 -8 -1 -16v-10q0 -38 8 -71.5t27 -58.5t50 -39.5t76 -14.5q64 0 110 35.5t81 101.5l27 -15
q-42 -78 -95 -115t-125 -37zM343 498q-40 0 -76.5 -14.5t-66 -42.5t-49.5 -68t-28 -92l-4 -26q113 2 183 15.5t108.5 34t52 45.5t13.5 50q0 42 -30.5 70t-102.5 28zM242 691h262l-5 -30h-262z" />
    <glyph glyph-name="eogonek" unicode="&#x119;" 
d="M306 -203q-35 0 -59 15.5t-24 50.5q0 15 4.5 30.5t16.5 31.5t32.5 33t52.5 35l-1 3q-27 -8 -54 -8q-94 0 -143.5 56.5t-49.5 166.5q0 65 19.5 123t54.5 101t83.5 68t107.5 25q76 0 120.5 -33.5t44.5 -93.5q0 -26 -12.5 -55t-53.5 -54.5t-119 -43t-210 -20.5q-1 -8 -1 -16
v-10q0 -38 8 -71.5t27 -58.5t50 -39.5t76 -14.5q64 0 110 35.5t81 101.5l27 -15q-45 -84 -106 -122q-36 -24 -61.5 -43t-41.5 -36t-23 -34.5t-7 -36.5q0 -24 14.5 -34.5t37.5 -10.5q20 0 34 7.5t25 18.5l19 -19q-12 -14 -32 -23.5t-47 -9.5zM343 498q-40 0 -76.5 -14.5
t-66 -42.5t-49.5 -68t-28 -92l-4 -26q113 2 183 15.5t108.5 34t52 45.5t13.5 50q0 42 -30.5 70t-102.5 28z" />
    <glyph glyph-name="uni1EBD" unicode="&#x1ebd;" 
d="M274 -12q-94 0 -143.5 56.5t-49.5 166.5q0 65 19.5 123t54.5 101t83.5 68t107.5 25q76 0 120.5 -33.5t44.5 -93.5q0 -26 -12.5 -55t-53.5 -54.5t-119 -43t-210 -20.5q-1 -8 -1 -16v-10q0 -38 8 -71.5t27 -58.5t50 -39.5t76 -14.5q64 0 110 35.5t81 101.5l27 -15
q-42 -78 -95 -115t-125 -37zM343 498q-40 0 -76.5 -14.5t-66 -42.5t-49.5 -68t-28 -92l-4 -26q113 2 183 15.5t108.5 34t52 45.5t13.5 50q0 42 -30.5 70t-102.5 28zM435 632q-20 0 -36 7.5t-36 21.5q-18 12 -32.5 19t-31.5 7t-33.5 -8t-34.5 -24l-15 19q40 42 89 42
q20 0 36 -7.5t36 -21.5q18 -12 32.5 -19t31.5 -7t33.5 8t34.5 24l15 -19q-41 -42 -89 -42z" />
    <glyph glyph-name="uni1EBF" unicode="&#x1ebf;" 
d="M274 -12q-94 0 -143.5 56.5t-49.5 166.5q0 65 19.5 123t54.5 101t83.5 68t107.5 25q76 0 120.5 -33.5t44.5 -93.5q0 -26 -12.5 -55t-53.5 -54.5t-119 -43t-210 -20.5q-1 -8 -1 -16v-10q0 -38 8 -71.5t27 -58.5t50 -39.5t76 -14.5q64 0 110 35.5t81 101.5l27 -15
q-42 -78 -95 -115t-125 -37zM343 498q-40 0 -76.5 -14.5t-66 -42.5t-49.5 -68t-28 -92l-4 -26q113 2 183 15.5t108.5 34t52 45.5t13.5 50q0 42 -30.5 70t-102.5 28zM500 707l-21 15l131 156l29 -19zM403 747l101 -137l-22 -14l-102 125l-146 -125l-19 17l146 134h42z" />
    <glyph glyph-name="uni1EC7" unicode="&#x1ec7;" 
d="M274 -12q-94 0 -143.5 56.5t-49.5 166.5q0 65 19.5 123t54.5 101t83.5 68t107.5 25q76 0 120.5 -33.5t44.5 -93.5q0 -26 -12.5 -55t-53.5 -54.5t-119 -43t-210 -20.5q-1 -8 -1 -16v-10q0 -38 8 -71.5t27 -58.5t50 -39.5t76 -14.5q64 0 110 35.5t81 101.5l27 -15
q-42 -78 -95 -115t-125 -37zM343 498q-40 0 -76.5 -14.5t-66 -42.5t-49.5 -68t-28 -92l-4 -26q113 2 183 15.5t108.5 34t52 45.5t13.5 50q0 42 -30.5 70t-102.5 28zM405 756l101 -137l-22 -14l-102 124l-146 -124l-19 17l146 134h42zM251 -145q-18 0 -25 7t-7 15q0 4 0.5 8
t1.5 9q5 27 37 27q18 0 25 -7t7 -15q0 -4 -0.5 -8t-1.5 -9q-5 -27 -37 -27z" />
    <glyph glyph-name="uni1EC1" unicode="&#x1ec1;" 
d="M274 -12q-94 0 -143.5 56.5t-49.5 166.5q0 65 19.5 123t54.5 101t83.5 68t107.5 25q76 0 120.5 -33.5t44.5 -93.5q0 -26 -12.5 -55t-53.5 -54.5t-119 -43t-210 -20.5q-1 -8 -1 -16v-10q0 -38 8 -71.5t27 -58.5t50 -39.5t76 -14.5q64 0 110 35.5t81 101.5l27 -15
q-42 -78 -95 -115t-125 -37zM343 498q-40 0 -76.5 -14.5t-66 -42.5t-49.5 -68t-28 -92l-4 -26q113 2 183 15.5t108.5 34t52 45.5t13.5 50q0 42 -30.5 70t-102.5 28zM167 865l32 15l78 -160l-24 -11zM403 747l101 -137l-22 -14l-102 125l-146 -125l-19 17l146 134h42z" />
    <glyph glyph-name="uni1EC3" unicode="&#x1ec3;" 
d="M274 -12q-94 0 -143.5 56.5t-49.5 166.5q0 65 19.5 123t54.5 101t83.5 68t107.5 25q76 0 120.5 -33.5t44.5 -93.5q0 -26 -12.5 -55t-53.5 -54.5t-119 -43t-210 -20.5q-1 -8 -1 -16v-10q0 -38 8 -71.5t27 -58.5t50 -39.5t76 -14.5q64 0 110 35.5t81 101.5l27 -15
q-42 -78 -95 -115t-125 -37zM343 498q-40 0 -76.5 -14.5t-66 -42.5t-49.5 -68t-28 -92l-4 -26q113 2 183 15.5t108.5 34t52 45.5t13.5 50q0 42 -30.5 70t-102.5 28zM444 866h125q19 0 26.5 -6.5t7.5 -17.5q0 -9 -6.5 -20t-29.5 -39l-64 -78l-22 14l92 119h-134zM403 747
l101 -137l-22 -14l-102 125l-146 -125l-19 17l146 134h42z" />
    <glyph glyph-name="uni1EC5" unicode="&#x1ec5;" 
d="M274 -12q-94 0 -143.5 56.5t-49.5 166.5q0 65 19.5 123t54.5 101t83.5 68t107.5 25q76 0 120.5 -33.5t44.5 -93.5q0 -26 -12.5 -55t-53.5 -54.5t-119 -43t-210 -20.5q-1 -8 -1 -16v-10q0 -38 8 -71.5t27 -58.5t50 -39.5t76 -14.5q64 0 110 35.5t81 101.5l27 -15
q-42 -78 -95 -115t-125 -37zM343 498q-40 0 -76.5 -14.5t-66 -42.5t-49.5 -68t-28 -92l-4 -26q113 2 183 15.5t108.5 34t52 45.5t13.5 50q0 42 -30.5 70t-102.5 28zM330 865q20 0 36.5 -7.5t36.5 -21.5q18 -12 32.5 -18.5t30.5 -6.5q18 0 34 8t35 24l15 -19q-40 -41 -88 -41
q-20 0 -36.5 7.5t-36.5 21.5q-18 12 -32.5 18.5t-30.5 6.5q-18 0 -34 -8t-35 -24l-15 19q40 41 88 41zM403 745l102 -135l-23 -14l-102 123l-145 -123l-19 18l145 131h42z" />
    <glyph glyph-name="uni0259" unicode="&#x259;" 
d="M252 -12q-76 0 -120.5 33.5t-44.5 93.5q0 25 12.5 54.5t53.5 55t119.5 43t209.5 20.5q1 8 1 16v10q0 38 -8 71.5t-27 58.5t-49.5 39.5t-75.5 14.5q-65 0 -111 -35.5t-81 -101.5l-27 15q42 78 95 115t126 37q94 0 143.5 -56.5t49.5 -166.5q0 -65 -19.5 -123t-54.5 -101
t-84 -68t-108 -25zM255 18q40 0 76.5 14.5t65.5 42t49.5 68t28.5 92.5l4 26q-113 -2 -182.5 -15.5t-108 -34t-52 -45.5t-13.5 -50q0 -41 30.5 -69.5t101.5 -28.5z" />
    <glyph glyph-name="gbreve" unicode="&#x11f;" 
d="M208 -212q-58 0 -97.5 18t-65.5 50l25 23q21 -28 54.5 -44t84.5 -16q80 0 130 41t65 134l21 127h-3q-29 -58 -72.5 -93.5t-111.5 -35.5q-42 0 -74 14.5t-53.5 40.5t-32.5 62.5t-11 80.5q0 68 16.5 129.5t47.5 108t76 73.5t103 27q66 0 107.5 -28.5t56.5 -75.5h3l15 92h34
l-89 -530q-17 -103 -76 -150.5t-153 -47.5zM244 23q33 0 61.5 10.5t54.5 34.5q26 23 49.5 60.5t31.5 85.5l24 139q4 26 -2.5 52t-24.5 46.5t-49 33t-74 12.5q-41 0 -75 -16t-60 -43.5t-43 -65.5t-24 -83l-8 -50q-4 -23 -4 -49q0 -35 8.5 -65.5t25.5 -53t44 -35.5t65 -13z
M340 607q-30 0 -49.5 10t-33 27.5t-23 42t-17.5 54.5l23 11l18 -46q17 -38 34 -53.5t49 -15.5q31 0 53.5 15t52.5 54l33 46l24 -11q-18 -30 -35 -54.5t-35.5 -42t-41 -27.5t-52.5 -10z" />
    <glyph glyph-name="gcircumflex" unicode="&#x11d;" 
d="M208 -212q-58 0 -97.5 18t-65.5 50l25 23q21 -28 54.5 -44t84.5 -16q80 0 130 41t65 134l21 127h-3q-29 -58 -72.5 -93.5t-111.5 -35.5q-42 0 -74 14.5t-53.5 40.5t-32.5 62.5t-11 80.5q0 68 16.5 129.5t47.5 108t76 73.5t103 27q66 0 107.5 -28.5t56.5 -75.5h3l15 92h34
l-89 -530q-17 -103 -76 -150.5t-153 -47.5zM244 23q33 0 61.5 10.5t54.5 34.5q26 23 49.5 60.5t31.5 85.5l24 139q4 26 -2.5 52t-24.5 46.5t-49 33t-74 12.5q-41 0 -75 -16t-60 -43.5t-43 -65.5t-24 -83l-8 -50q-4 -23 -4 -49q0 -35 8.5 -65.5t25.5 -53t44 -35.5t65 -13z
M384 756l101 -137l-22 -14l-102 124l-146 -124l-19 17l146 134h42z" />
    <glyph glyph-name="gcommaaccent" unicode="&#x123;" 
d="M208 -212q-58 0 -97.5 18t-65.5 50l25 23q21 -28 54.5 -44t84.5 -16q80 0 130 41t65 134l21 127h-3q-29 -58 -72.5 -93.5t-111.5 -35.5q-42 0 -74 14.5t-53.5 40.5t-32.5 62.5t-11 80.5q0 68 16.5 129.5t47.5 108t76 73.5t103 27q66 0 107.5 -28.5t56.5 -75.5h3l15 92h34
l-89 -530q-17 -103 -76 -150.5t-153 -47.5zM244 23q33 0 61.5 10.5t54.5 34.5q26 23 49.5 60.5t31.5 85.5l24 139q4 26 -2.5 52t-24.5 46.5t-49 33t-74 12.5q-41 0 -75 -16t-60 -43.5t-43 -65.5t-24 -83l-8 -50q-4 -23 -4 -49q0 -35 8.5 -65.5t25.5 -53t44 -35.5t65 -13z
M406 770h29l-77 -178h-44z" />
    <glyph glyph-name="gdotaccent" unicode="&#x121;" 
d="M208 -212q-58 0 -97.5 18t-65.5 50l25 23q21 -28 54.5 -44t84.5 -16q80 0 130 41t65 134l21 127h-3q-29 -58 -72.5 -93.5t-111.5 -35.5q-42 0 -74 14.5t-53.5 40.5t-32.5 62.5t-11 80.5q0 68 16.5 129.5t47.5 108t76 73.5t103 27q66 0 107.5 -28.5t56.5 -75.5h3l15 92h34
l-89 -530q-17 -103 -76 -150.5t-153 -47.5zM244 23q33 0 61.5 10.5t54.5 34.5q26 23 49.5 60.5t31.5 85.5l24 139q4 26 -2.5 52t-24.5 46.5t-49 33t-74 12.5q-41 0 -75 -16t-60 -43.5t-43 -65.5t-24 -83l-8 -50q-4 -23 -4 -49q0 -35 8.5 -65.5t25.5 -53t44 -35.5t65 -13z
M346 640q-20 0 -27 7t-7 16q0 6 3 18q3 13 12 20.5t26 7.5q20 0 27 -7t7 -16q0 -6 -3 -18q-3 -13 -12 -20.5t-26 -7.5z" />
    <glyph glyph-name="gbreve.alt01" 
d="M227 -212q-102 0 -153 31.5t-51 85.5q0 49 31.5 82.5t84.5 48.5l1 5q-20 8 -31.5 24t-11.5 38q0 41 29 61.5t76 32.5l1 3q-35 20 -53.5 52.5t-18.5 74.5q0 45 15.5 82t42.5 63.5t64 41t81 14.5q38 0 70 -12h180l-4 -29h-132q45 -39 45 -105q0 -45 -15.5 -82t-42.5 -63.5
t-64 -41t-81 -14.5q-31 0 -58 8q-52 -13 -78 -31.5t-26 -50.5q0 -20 15.5 -33.5t54.5 -13.5h138q81 0 117 -30.5t36 -83.5q0 -79 -67 -118.5t-195 -39.5zM291 210q68 0 110 35t50 92q5 27 6 38t1 16q0 48 -32.5 78t-93.5 30q-67 0 -109 -35t-51 -92q-4 -27 -5.5 -37.5
t-1.5 -16.5q0 -48 32.5 -78t93.5 -30zM454 -56q0 40 -27 62t-95 22h-163q-49 -13 -80 -41t-31 -75q0 -48 42 -71t111 -23h44q44 0 80.5 7.5t63 23t41 39.5t14.5 56zM349 607q-30 0 -49.5 10t-33 27.5t-23 42t-17.5 54.5l23 11l18 -46q17 -38 34 -53.5t49 -15.5q31 0 53.5 15
t52.5 54l33 46l24 -11q-18 -30 -35 -54.5t-35.5 -42t-41 -27.5t-52.5 -10z" />
    <glyph glyph-name="gcircumflex.alt01" 
d="M227 -212q-102 0 -153 31.5t-51 85.5q0 49 31.5 82.5t84.5 48.5l1 5q-20 8 -31.5 24t-11.5 38q0 41 29 61.5t76 32.5l1 3q-35 20 -53.5 52.5t-18.5 74.5q0 45 15.5 82t42.5 63.5t64 41t81 14.5q38 0 70 -12h180l-4 -29h-132q45 -39 45 -105q0 -45 -15.5 -82t-42.5 -63.5
t-64 -41t-81 -14.5q-31 0 -58 8q-52 -13 -78 -31.5t-26 -50.5q0 -20 15.5 -33.5t54.5 -13.5h138q81 0 117 -30.5t36 -83.5q0 -79 -67 -118.5t-195 -39.5zM291 210q68 0 110 35t50 92q5 27 6 38t1 16q0 48 -32.5 78t-93.5 30q-67 0 -109 -35t-51 -92q-4 -27 -5.5 -37.5
t-1.5 -16.5q0 -48 32.5 -78t93.5 -30zM454 -56q0 40 -27 62t-95 22h-163q-49 -13 -80 -41t-31 -75q0 -48 42 -71t111 -23h44q44 0 80.5 7.5t63 23t41 39.5t14.5 56zM393 756l101 -137l-22 -14l-102 124l-146 -124l-19 17l146 134h42z" />
    <glyph glyph-name="gcommaaccent.alt01" 
d="M227 -212q-102 0 -153 31.5t-51 85.5q0 49 31.5 82.5t84.5 48.5l1 5q-20 8 -31.5 24t-11.5 38q0 41 29 61.5t76 32.5l1 3q-35 20 -53.5 52.5t-18.5 74.5q0 45 15.5 82t42.5 63.5t64 41t81 14.5q35 0 62.5 -9.5t47.5 -26.5l6 38q6 37 43 37h107l-5 -32h-120l-11 -64
q29 -37 29 -89q0 -45 -15.5 -82t-42.5 -63.5t-64 -41t-81 -14.5q-31 0 -58 8q-52 -13 -78 -31.5t-26 -50.5q0 -20 15.5 -33.5t54.5 -13.5h138q81 0 117 -30.5t36 -83.5q0 -79 -67 -118.5t-195 -39.5zM58 -88q0 -48 42 -71t111 -23h44q44 0 80.5 7.5t63 23t41 39.5t14.5 56
q0 40 -27 62t-95 22h-163q-49 -13 -80 -41t-31 -75zM291 210q68 0 110 35t50 92q5 27 6 38t1 16q0 48 -32.5 78t-93.5 30q-67 0 -109 -35t-51 -92q-4 -27 -5.5 -37.5t-1.5 -16.5q0 -48 32.5 -78t93.5 -30zM415 770h29l-77 -178h-44z" />
    <glyph glyph-name="gdotaccent.alt01" 
d="M227 -212q-102 0 -153 31.5t-51 85.5q0 49 31.5 82.5t84.5 48.5l1 5q-20 8 -31.5 24t-11.5 38q0 41 29 61.5t76 32.5l1 3q-35 20 -53.5 52.5t-18.5 74.5q0 45 15.5 82t42.5 63.5t64 41t81 14.5q35 0 62.5 -9.5t47.5 -26.5l6 38q6 37 43 37h107l-5 -32h-120l-11 -64
q29 -37 29 -89q0 -45 -15.5 -82t-42.5 -63.5t-64 -41t-81 -14.5q-31 0 -58 8q-52 -13 -78 -31.5t-26 -50.5q0 -20 15.5 -33.5t54.5 -13.5h138q81 0 117 -30.5t36 -83.5q0 -79 -67 -118.5t-195 -39.5zM58 -88q0 -48 42 -71t111 -23h44q44 0 80.5 7.5t63 23t41 39.5t14.5 56
q0 40 -27 62t-95 22h-163q-49 -13 -80 -41t-31 -75zM291 210q68 0 110 35t50 92q5 27 6 38t1 16q0 48 -32.5 78t-93.5 30q-67 0 -109 -35t-51 -92q-4 -27 -5.5 -37.5t-1.5 -16.5q0 -48 32.5 -78t93.5 -30zM355 640q-20 0 -27 7t-7 16q0 6 3 18q3 13 12 20.5t26 7.5
q20 0 27 -7t7 -16q0 -6 -3 -18q-3 -13 -12 -20.5t-26 -7.5z" />
    <glyph glyph-name="hbar" unicode="&#x127;" 
d="M186 630h-70l4 28h71l13 82h35l-14 -82h162l-5 -28h-161l-39 -230h4q29 60 71 94t108 34t102 -37.5t36 -105.5q0 -14 -1.5 -29t-3.5 -30l-55 -326h-34l54 323q2 14 3.5 29t1.5 28q0 117 -112 117q-35 0 -68 -14.5t-60 -48.5q-7 -9 -16 -21.5t-18 -29t-16.5 -36
t-11.5 -41.5l-51 -306h-34z" />
    <glyph glyph-name="hcircumflex" unicode="&#x125;" 
d="M204 740h35l-57 -340h4q29 60 71 94t108 34t102 -37.5t36 -105.5q0 -14 -1.5 -29t-3.5 -30l-55 -326h-34l54 323q2 14 3.5 29t1.5 28q0 117 -112 117q-35 0 -68 -14.5t-60 -48.5q-7 -9 -16 -21.5t-18 -29t-16.5 -36t-11.5 -41.5l-51 -306h-34zM276 938l101 -137l-22 -14
l-102 124l-146 -124l-19 17l146 134h42z" />
    <glyph glyph-name="dotlessi" unicode="&#x131;" 
d="M235 -12q-16 0 -24 8.5t-8 22.5q0 5 1 12t4 24l84 431h-203l5 30h238l-95 -490l9 -5l249 177l18 -22l-205 -148q-29 -20 -44 -30t-29 -10z" />
    <glyph glyph-name="iacute" unicode="&#xed;" 
d="M235 -12q-16 0 -24 8.5t-8 22.5q0 5 1 12t4 24l84 431h-203l5 30h238l-95 -490l9 -5l249 177l18 -22l-205 -148q-29 -20 -44 -30t-29 -10zM316 594l-22 15l131 156l30 -19z" />
    <glyph glyph-name="ibreve" unicode="&#x12d;" 
d="M235 -12q-16 0 -24 8.5t-8 22.5q0 5 1 12t4 24l84 431h-203l5 30h238l-95 -490l9 -5l249 177l18 -22l-205 -148q-29 -20 -44 -30t-29 -10zM331 607q-30 0 -49.5 10t-33 27.5t-23 42t-17.5 54.5l23 11l18 -46q17 -38 34 -53.5t49 -15.5q31 0 53.5 15t52.5 54l33 46l24 -11
q-18 -30 -35 -54.5t-35.5 -42t-41 -27.5t-52.5 -10z" />
    <glyph glyph-name="icircumflex" unicode="&#xee;" 
d="M235 -12q-16 0 -24 8.5t-8 22.5q0 5 1 12t4 24l84 431h-203l5 30h238l-95 -490l9 -5l249 177l18 -22l-205 -148q-29 -20 -44 -30t-29 -10zM375 756l101 -137l-22 -14l-102 124l-146 -124l-19 17l146 134h42z" />
    <glyph glyph-name="idieresis" unicode="&#xef;" 
d="M235 -12q-16 0 -24 8.5t-8 22.5q0 5 1 12t4 24l84 431h-203l5 30h238l-95 -490l9 -5l249 177l18 -22l-205 -148q-29 -20 -44 -30t-29 -10zM246 642q-18 0 -25 7t-7 15q0 4 0.5 8t1.5 9q5 27 37 27q18 0 25 -7t7 -15q0 -4 -0.5 -8t-1.5 -9q-5 -27 -37 -27zM428 642
q-18 0 -25 7t-7 15q0 4 0.5 8t1.5 9q5 27 37 27q18 0 25 -7t7 -15q0 -4 -0.5 -8t-1.5 -9q-5 -27 -37 -27z" />
    <glyph glyph-name="uni1ECB" unicode="&#x1ecb;" 
d="M348 677q-20 0 -27 7t-7 16q0 6 3 18q3 13 12 20.5t26 7.5q20 0 27 -7t7 -16q0 -6 -3 -18q-3 -13 -12 -20.5t-26 -7.5zM235 -12q-16 0 -24 8.5t-8 22.5q0 5 1 12t4 24l84 431h-203l5 30h238l-95 -490l9 -5l249 177l18 -22l-205 -148q-29 -20 -44 -30t-29 -10zM210 -145
q-18 0 -25 7t-7 15q0 4 0.5 8t1.5 9q5 27 37 27q18 0 25 -7t7 -15q0 -4 -0.5 -8t-1.5 -9q-5 -27 -37 -27z" />
    <glyph glyph-name="igrave" unicode="&#xec;" 
d="M235 -12q-16 0 -24 8.5t-8 22.5q0 5 1 12t4 24l84 431h-203l5 30h238l-95 -490l9 -5l249 177l18 -22l-205 -148q-29 -20 -44 -30t-29 -10zM253 750l33 15l77 -159l-24 -12z" />
    <glyph glyph-name="uni1EC9" unicode="&#x1ec9;" 
d="M235 -12q-16 0 -24 8.5t-8 22.5q0 5 1 12t4 24l84 431h-203l5 30h238l-95 -490l9 -5l249 177l18 -22l-205 -148q-29 -20 -44 -30t-29 -10zM279 751h126q18 0 26 -6.5t8 -17.5q0 -10 -7.5 -22.5t-32.5 -41.5l-61 -72l-21 13l91 119h-134z" />
    <glyph glyph-name="imacron" unicode="&#x12b;" 
d="M235 -12q-16 0 -24 8.5t-8 22.5q0 5 1 12t4 24l84 431h-203l5 30h238l-95 -490l9 -5l249 177l18 -22l-205 -148q-29 -20 -44 -30t-29 -10zM212 691h262l-5 -30h-262z" />
    <glyph glyph-name="iogonek" unicode="&#x12f;" 
d="M198 -203q-32 0 -55.5 17t-23.5 52q0 33 24.5 61.5t85.5 62.5v2h-4q-11 0 -16.5 7.5t-5.5 17.5q0 5 0.5 12t4.5 26l84 431h-203l5 30h238l-95 -490l9 -5l249 177l20 -22l-236 -167q-35 -26 -59.5 -44.5t-39.5 -34t-22 -30t-7 -31.5q0 -23 14 -34.5t34 -11.5q22 0 37 7.5
t25 18.5l19 -19q-11 -14 -32.5 -23.5t-49.5 -9.5zM348 677q-20 0 -27 7t-7 16q0 6 3 18q5 28 38 28q20 0 27 -7.5t7 -16.5q0 -3 -1 -7.5t-2 -9.5q-5 -28 -38 -28z" />
    <glyph glyph-name="itilde" unicode="&#x129;" 
d="M235 -12q-16 0 -24 8.5t-8 22.5q0 5 1 12t4 24l84 431h-203l5 30h238l-95 -490l9 -5l249 177l18 -22l-205 -148q-29 -20 -44 -30t-29 -10zM405 632q-20 0 -36 7.5t-36 21.5q-18 12 -32.5 19t-31.5 7t-33.5 -8t-34.5 -24l-15 19q40 42 89 42q20 0 36 -7.5t36 -21.5
q18 -12 32.5 -19t31.5 -7t33.5 8t34.5 24l15 -19q-41 -42 -89 -42z" />
    <glyph glyph-name="ij" unicode="&#x133;" 
d="M169 516h34l-86 -516h-34zM362 -212q-14 0 -25.5 9t-28.5 26l-118 108l22 23l146 -134l9 2l115 694h35l-113 -677q-4 -23 -13 -37t-29 -14zM215 677q-20 0 -27 7t-7 16q0 4 0.5 8t1.5 10q7 28 39 28q19 0 26.5 -7.5t7.5 -16.5q0 -3 -1 -7.5t-2 -9.5q-5 -28 -38 -28z
M528 677q-20 0 -27 7t-7 16q0 4 1 8t2 10q5 28 38 28q20 0 27 -7.5t7 -16.5q0 -7 -3 -17q-5 -28 -38 -28z" />
    <glyph glyph-name="ijacute" 
d="M169 516h34l-86 -516h-34zM362 -212q-14 0 -25.5 9t-28.5 26l-118 108l22 23l146 -134l9 2l115 694h35l-113 -677q-4 -23 -13 -37t-29 -14zM171 609l131 156l30 -19l-139 -152zM484 609l131 156l30 -19l-139 -152z" />
    <glyph glyph-name="uni0237" unicode="&#x237;" 
d="M317 -212q-13 0 -25 9t-35 31l-158 147l22 22l191 -177l9 2l111 664h-287l5 30h321l-113 -677q-4 -23 -12.5 -37t-28.5 -14z" />
    <glyph glyph-name="jacute" 
d="M317 -212q-13 0 -25 9t-35 31l-158 147l22 22l191 -177l9 2l111 664h-287l5 30h321l-113 -677q-4 -23 -12.5 -37t-28.5 -14zM456 594l-22 15l131 156l30 -19z" />
    <glyph glyph-name="jcircumflex" unicode="&#x135;" 
d="M317 -212q-13 0 -25 9t-35 31l-158 147l22 22l191 -177l9 2l111 664h-287l5 30h321l-113 -677q-4 -23 -12.5 -37t-28.5 -14zM515 756l101 -137l-22 -14l-102 124l-146 -124l-19 17l146 134h42z" />
    <glyph glyph-name="kcommaaccent" unicode="&#x137;" 
d="M197 740h35l-56 -340h3q34 67 84 97.5t110 30.5q69 0 102.5 -33.5t33.5 -85.5q0 -25 -10 -51t-36 -51t-72.5 -47.5t-119.5 -39.5l110 -199l7 -1l166 153l19 -21l-124 -117q-27 -26 -40.5 -36.5t-27.5 -10.5q-13 0 -21 8t-18 26l-113 208q71 17 118 36.5t75 42t39.5 46.5
t11.5 50q0 42 -25 67.5t-83 25.5q-75 0 -127 -49q-32 -29 -51.5 -66t-26.5 -77l-51 -306h-35zM204 -67h44l-71 -184h-28z" />
    <glyph glyph-name="kgreenlandic" unicode="&#x138;" 
d="M291 284l-137 -109l-29 -175h-35l86 516h34l-49 -296h4l129 105l238 191h48l-262 -211l205 -305h-41z" />
    <glyph glyph-name="lacute" unicode="&#x13a;" 
d="M222 -12q-15 0 -23 8.5t-8 22.5q0 5 1 13t3 22l128 656h-202l5 30h237l-139 -715l11 -4l251 178l18 -22l-209 -150q-29 -20 -44 -29.5t-29 -9.5zM339 776l-22 15l131 156l30 -19z" />
    <glyph glyph-name="lcaron" unicode="&#x13e;" 
d="M222 -12q-15 0 -23 8.5t-8 22.5q0 5 1 13t3 22l128 656h-202l5 30h237l-139 -715l11 -4l251 178l18 -22l-209 -150q-29 -20 -44 -29.5t-29 -9.5zM459 561h-27l43 179h44z" />
    <glyph glyph-name="lcommaaccent" unicode="&#x13c;" 
d="M222 -12q-15 0 -23 8.5t-8 22.5q0 5 1 13t3 22l128 656h-202l5 30h237l-139 -715l11 -4l251 178l18 -22l-209 -150q-29 -20 -44 -29.5t-29 -9.5zM191 -67h44l-71 -184h-28z" />
    <glyph glyph-name="ldot" unicode="&#x140;" 
d="M222 -12q-15 0 -23 8.5t-8 22.5q0 5 1 13t3 22l128 656h-202l5 30h237l-139 -715l11 -4l251 178l18 -22l-209 -150q-29 -20 -44 -29.5t-29 -9.5zM481 334q-20 0 -27 7t-7 16q0 6 3 18q3 13 12 20.5t26 7.5q20 0 27 -7t7 -16q0 -6 -3 -18q-3 -13 -12 -20.5t-26 -7.5z" />
    <glyph glyph-name="lslash" unicode="&#x142;" 
d="M222 -12q-16 0 -23.5 9t-7.5 22q0 5 0.5 13t3.5 22l51 259l-165 -50l5 32l166 51l71 364h-202l5 30h237l-74 -384l172 52l-5 -32l-173 -53l-59 -298l11 -4l251 178l18 -22l-209 -150q-29 -20 -44 -29.5t-29 -9.5z" />
    <glyph glyph-name="nacute" unicode="&#x144;" 
d="M81 0l86 516h34l-19 -116h4q29 60 71 94t108 34t102 -37.5t36 -105.5q0 -14 -1.5 -29t-3.5 -30l-55 -326h-34l54 323q2 14 3.5 29t1.5 28q0 117 -112 117q-35 0 -68 -14.5t-60 -48.5q-7 -9 -16 -21.5t-18 -29t-16.5 -36t-11.5 -41.5l-51 -306h-34zM348 594l-22 15
l131 156l30 -19z" />
    <glyph glyph-name="ncaron" unicode="&#x148;" 
d="M81 0l86 516h34l-19 -116h4q29 60 71 94t108 34t102 -37.5t36 -105.5q0 -14 -1.5 -29t-3.5 -30l-55 -326h-34l54 323q2 14 3.5 29t1.5 28q0 117 -112 117q-35 0 -68 -14.5t-60 -48.5q-7 -9 -16 -21.5t-18 -29t-16.5 -36t-11.5 -41.5l-51 -306h-34zM341 610l-102 137
l22 14l102 -125l146 125l19 -17l-146 -134h-41z" />
    <glyph glyph-name="ncommaaccent" unicode="&#x146;" 
d="M81 0l86 516h34l-19 -116h4q29 60 71 94t108 34t102 -37.5t36 -105.5q0 -14 -1.5 -29t-3.5 -30l-55 -326h-34l54 323q2 14 3.5 29t1.5 28q0 117 -112 117q-35 0 -68 -14.5t-60 -48.5q-7 -9 -16 -21.5t-18 -29t-16.5 -36t-11.5 -41.5l-51 -306h-34zM227 -67h44l-71 -184
h-28z" />
    <glyph glyph-name="ntilde" unicode="&#xf1;" 
d="M81 0l86 516h34l-19 -116h4q29 60 71 94t108 34t102 -37.5t36 -105.5q0 -14 -1.5 -29t-3.5 -30l-55 -326h-34l54 323q2 14 3.5 29t1.5 28q0 117 -112 117q-35 0 -68 -14.5t-60 -48.5q-7 -9 -16 -21.5t-18 -29t-16.5 -36t-11.5 -41.5l-51 -306h-34zM437 632q-20 0 -36 7.5
t-36 21.5q-18 12 -32.5 19t-31.5 7t-33.5 -8t-34.5 -24l-15 19q40 42 89 42q20 0 36 -7.5t36 -21.5q18 -12 32.5 -19t31.5 -7t33.5 8t34.5 24l15 -19q-41 -42 -89 -42z" />
    <glyph glyph-name="napostrophe" unicode="&#x149;" 
d="M167 516h34l-19 -116h3q29 59 71.5 93.5t107.5 34.5q67 0 103 -37.5t36 -105.5q0 -14 -1.5 -28.5t-3.5 -30.5l-55 -326h-34l54 324q2 14 3.5 28.5t1.5 27.5q0 117 -112 117q-35 0 -68 -14.5t-60 -48.5q-7 -9 -16 -21.5t-18 -29t-16.5 -36t-11.5 -41.5l-50 -306h-35z
M127 740h54l-111 -234h-26z" />
    <glyph glyph-name="eng" unicode="&#x14b;" 
d="M374 -212q-14 0 -25.5 9t-28.5 26l-123 112l23 22l150 -137l9 2l84 501q2 14 3.5 29t1.5 28q0 117 -112 117q-35 0 -68 -14.5t-60 -48.5q-7 -9 -16 -21.5t-18 -29t-16.5 -36t-11.5 -41.5l-51 -306h-34l86 516h34l-19 -116h4q29 60 71 94t108 34t102 -37.5t36 -105.5
q0 -14 -1.5 -29t-3.5 -30l-82 -487q-4 -23 -13 -37t-29 -14z" />
    <glyph glyph-name="oacute" unicode="&#xf3;" 
d="M266 -12q-46 0 -81 15t-59 41.5t-36 63t-12 79.5q0 79 18.5 142.5t52 107.5t81 67.5t104.5 23.5q46 0 81 -15t59 -41.5t36 -63t12 -79.5q0 -80 -18.5 -143t-52 -107t-81 -67.5t-104.5 -23.5zM268 19q86 0 138 55.5t69 153.5l9 52q2 15 3 25.5t1 27.5q0 36 -9.5 66
t-28.5 51.5t-48.5 34t-69.5 12.5q-86 0 -138 -55.5t-69 -153.5l-9 -52q-2 -15 -3 -25.5t-1 -27.5q0 -36 9.5 -66t28.5 -51.5t48.5 -34t69.5 -12.5zM337 594l-22 15l131 156l30 -19z" />
    <glyph glyph-name="obreve" unicode="&#x14f;" 
d="M266 -12q-46 0 -81 15t-59 41.5t-36 63t-12 79.5q0 79 18.5 142.5t52 107.5t81 67.5t104.5 23.5q46 0 81 -15t59 -41.5t36 -63t12 -79.5q0 -80 -18.5 -143t-52 -107t-81 -67.5t-104.5 -23.5zM268 19q86 0 138 55.5t69 153.5l9 52q2 15 3 25.5t1 27.5q0 36 -9.5 66
t-28.5 51.5t-48.5 34t-69.5 12.5q-86 0 -138 -55.5t-69 -153.5l-9 -52q-2 -15 -3 -25.5t-1 -27.5q0 -36 9.5 -66t28.5 -51.5t48.5 -34t69.5 -12.5zM352 607q-30 0 -49.5 10t-33 27.5t-23 42t-17.5 54.5l23 11l18 -46q17 -38 34 -53.5t49 -15.5q31 0 53.5 15t52.5 54l33 46
l24 -11q-18 -30 -35 -54.5t-35.5 -42t-41 -27.5t-52.5 -10z" />
    <glyph glyph-name="ocircumflex" unicode="&#xf4;" 
d="M266 -12q-46 0 -81 15t-59 41.5t-36 63t-12 79.5q0 79 18.5 142.5t52 107.5t81 67.5t104.5 23.5q46 0 81 -15t59 -41.5t36 -63t12 -79.5q0 -80 -18.5 -143t-52 -107t-81 -67.5t-104.5 -23.5zM268 19q86 0 138 55.5t69 153.5l9 52q2 15 3 25.5t1 27.5q0 36 -9.5 66
t-28.5 51.5t-48.5 34t-69.5 12.5q-86 0 -138 -55.5t-69 -153.5l-9 -52q-2 -15 -3 -25.5t-1 -27.5q0 -36 9.5 -66t28.5 -51.5t48.5 -34t69.5 -12.5zM396 756l101 -137l-22 -14l-102 124l-146 -124l-19 17l146 134h42z" />
    <glyph glyph-name="odieresis" unicode="&#xf6;" 
d="M266 -12q-46 0 -81 15t-59 41.5t-36 63t-12 79.5q0 79 18.5 142.5t52 107.5t81 67.5t104.5 23.5q46 0 81 -15t59 -41.5t36 -63t12 -79.5q0 -80 -18.5 -143t-52 -107t-81 -67.5t-104.5 -23.5zM268 19q86 0 138 55.5t69 153.5l9 52q2 15 3 25.5t1 27.5q0 36 -9.5 66
t-28.5 51.5t-48.5 34t-69.5 12.5q-86 0 -138 -55.5t-69 -153.5l-9 -52q-2 -15 -3 -25.5t-1 -27.5q0 -36 9.5 -66t28.5 -51.5t48.5 -34t69.5 -12.5zM267 642q-18 0 -25 7t-7 15q0 4 0.5 8t1.5 9q5 27 37 27q18 0 25 -7t7 -15q0 -4 -0.5 -8t-1.5 -9q-5 -27 -37 -27zM449 642
q-18 0 -25 7t-7 15q0 4 0.5 8t1.5 9q5 27 37 27q18 0 25 -7t7 -15q0 -4 -0.5 -8t-1.5 -9q-5 -27 -37 -27z" />
    <glyph glyph-name="uni1ECD" unicode="&#x1ecd;" 
d="M266 -12q-46 0 -81 15t-59 41.5t-36 63t-12 79.5q0 79 18.5 142.5t52 107.5t81 67.5t104.5 23.5q46 0 81 -15t59 -41.5t36 -63t12 -79.5q0 -80 -18.5 -143t-52 -107t-81 -67.5t-104.5 -23.5zM268 19q86 0 138 55.5t69 153.5l9 52q2 15 3 25.5t1 27.5q0 36 -9.5 66
t-28.5 51.5t-48.5 34t-69.5 12.5q-86 0 -138 -55.5t-69 -153.5l-9 -52q-2 -15 -3 -25.5t-1 -27.5q0 -36 9.5 -66t28.5 -51.5t48.5 -34t69.5 -12.5zM242 -145q-18 0 -25 7t-7 15q0 4 0.5 8t1.5 9q5 27 37 27q18 0 25 -7t7 -15q0 -4 -0.5 -8t-1.5 -9q-5 -27 -37 -27z" />
    <glyph glyph-name="ograve" unicode="&#xf2;" 
d="M266 -12q-46 0 -81 15t-59 41.5t-36 63t-12 79.5q0 79 18.5 142.5t52 107.5t81 67.5t104.5 23.5q46 0 81 -15t59 -41.5t36 -63t12 -79.5q0 -80 -18.5 -143t-52 -107t-81 -67.5t-104.5 -23.5zM268 19q86 0 138 55.5t69 153.5l9 52q2 15 3 25.5t1 27.5q0 36 -9.5 66
t-28.5 51.5t-48.5 34t-69.5 12.5q-86 0 -138 -55.5t-69 -153.5l-9 -52q-2 -15 -3 -25.5t-1 -27.5q0 -36 9.5 -66t28.5 -51.5t48.5 -34t69.5 -12.5zM274 750l33 15l77 -159l-24 -12z" />
    <glyph glyph-name="uni1ECF" unicode="&#x1ecf;" 
d="M266 -12q-46 0 -81 15t-59 41.5t-36 63t-12 79.5q0 79 18.5 142.5t52 107.5t81 67.5t104.5 23.5q46 0 81 -15t59 -41.5t36 -63t12 -79.5q0 -80 -18.5 -143t-52 -107t-81 -67.5t-104.5 -23.5zM268 19q86 0 138 55.5t69 153.5l9 52q2 15 3 25.5t1 27.5q0 36 -9.5 66
t-28.5 51.5t-48.5 34t-69.5 12.5q-86 0 -138 -55.5t-69 -153.5l-9 -52q-2 -15 -3 -25.5t-1 -27.5q0 -36 9.5 -66t28.5 -51.5t48.5 -34t69.5 -12.5zM300 751h126q18 0 26 -6.5t8 -17.5q0 -10 -7.5 -22.5t-32.5 -41.5l-61 -72l-21 13l91 119h-134z" />
    <glyph glyph-name="ohungarumlaut" unicode="&#x151;" 
d="M266 -12q-46 0 -81 15t-59 41.5t-36 63t-12 79.5q0 79 18.5 142.5t52 107.5t81 67.5t104.5 23.5q46 0 81 -15t59 -41.5t36 -63t12 -79.5q0 -80 -18.5 -143t-52 -107t-81 -67.5t-104.5 -23.5zM268 19q86 0 138 55.5t69 153.5l9 52q2 15 3 25.5t1 27.5q0 36 -9.5 66
t-28.5 51.5t-48.5 34t-69.5 12.5q-86 0 -138 -55.5t-69 -153.5l-9 -52q-2 -15 -3 -25.5t-1 -27.5q0 -36 9.5 -66t28.5 -51.5t48.5 -34t69.5 -12.5zM270 594l-21 15l131 156l29 -19zM431 594l-21 15l130 156l29 -19z" />
    <glyph glyph-name="omacron" unicode="&#x14d;" 
d="M266 -12q-46 0 -81 15t-59 41.5t-36 63t-12 79.5q0 79 18.5 142.5t52 107.5t81 67.5t104.5 23.5q46 0 81 -15t59 -41.5t36 -63t12 -79.5q0 -80 -18.5 -143t-52 -107t-81 -67.5t-104.5 -23.5zM268 19q86 0 138 55.5t69 153.5l9 52q2 15 3 25.5t1 27.5q0 36 -9.5 66
t-28.5 51.5t-48.5 34t-69.5 12.5q-86 0 -138 -55.5t-69 -153.5l-9 -52q-2 -15 -3 -25.5t-1 -27.5q0 -36 9.5 -66t28.5 -51.5t48.5 -34t69.5 -12.5zM233 691h262l-5 -30h-262z" />
    <glyph glyph-name="oslash" unicode="&#xf8;" 
d="M27 -11l79 84q-28 48 -28 114q0 79 18.5 142.5t52 107.5t81 67.5t104.5 23.5q49 0 85 -17t60 -46l74 79l20 -17l-79 -84q28 -48 28 -114q0 -80 -18.5 -143t-52 -107t-81 -67.5t-104.5 -23.5q-49 0 -85 17t-60 46l-74 -79zM332 497q-86 0 -138 -55.5t-69 -153.5l-9 -52
q-2 -15 -3 -25.5t-1 -27.5q0 -24 4 -45.5t14 -40.5l327 346q-20 26 -50.5 40t-74.5 14zM268 19q86 0 138 55.5t69 153.5l9 52q2 15 3 25.5t1 27.5q0 24 -4 45.5t-14 40.5l-327 -346q20 -26 50.5 -40t74.5 -14z" />
    <glyph glyph-name="oslashacute" unicode="&#x1ff;" 
d="M27 -11l79 84q-28 48 -28 114q0 79 18.5 142.5t52 107.5t81 67.5t104.5 23.5q49 0 85 -17t60 -46l74 79l20 -17l-79 -84q28 -48 28 -114q0 -80 -18.5 -143t-52 -107t-81 -67.5t-104.5 -23.5q-49 0 -85 17t-60 46l-74 -79zM332 497q-86 0 -138 -55.5t-69 -153.5l-9 -52
q-2 -15 -3 -25.5t-1 -27.5q0 -24 4 -45.5t14 -40.5l327 346q-20 26 -50.5 40t-74.5 14zM268 19q86 0 138 55.5t69 153.5l9 52q2 15 3 25.5t1 27.5q0 24 -4 45.5t-14 40.5l-327 -346q20 -26 50.5 -40t74.5 -14zM337 594l-22 15l131 156l30 -19z" />
    <glyph glyph-name="otilde" unicode="&#xf5;" 
d="M266 -12q-46 0 -81 15t-59 41.5t-36 63t-12 79.5q0 79 18.5 142.5t52 107.5t81 67.5t104.5 23.5q46 0 81 -15t59 -41.5t36 -63t12 -79.5q0 -80 -18.5 -143t-52 -107t-81 -67.5t-104.5 -23.5zM268 19q86 0 138 55.5t69 153.5l9 52q2 15 3 25.5t1 27.5q0 36 -9.5 66
t-28.5 51.5t-48.5 34t-69.5 12.5q-86 0 -138 -55.5t-69 -153.5l-9 -52q-2 -15 -3 -25.5t-1 -27.5q0 -36 9.5 -66t28.5 -51.5t48.5 -34t69.5 -12.5zM426 632q-20 0 -36 7.5t-36 21.5q-18 12 -32.5 19t-31.5 7t-33.5 -8t-34.5 -24l-15 19q40 42 89 42q20 0 36 -7.5t36 -21.5
q18 -12 32.5 -19t31.5 -7t33.5 8t34.5 24l15 -19q-41 -42 -89 -42z" />
    <glyph glyph-name="ohorn" unicode="&#x1a1;" 
d="M570 627l-16 -100q-6 -36 -44 -36h-57q35 -26 52 -68t17 -94q0 -80 -18.5 -143t-52 -107t-81 -67.5t-104.5 -23.5q-46 0 -81 15t-59 41.5t-36 63t-12 79.5q0 79 18.5 142.5t52 107.5t81 67.5t104.5 23.5q41 0 74 -12h111l18 111h33zM268 19q86 0 138 55.5t69 153.5l9 52
q2 15 3 25.5t1 27.5q0 36 -9.5 66t-28.5 51.5t-48.5 34t-69.5 12.5q-86 0 -138 -55.5t-69 -153.5l-9 -52q-2 -15 -3 -25.5t-1 -27.5q0 -36 9.5 -66t28.5 -51.5t48.5 -34t69.5 -12.5z" />
    <glyph glyph-name="uni1EDB" unicode="&#x1edb;" 
d="M570 627l-16 -100q-6 -36 -44 -36h-57q35 -26 52 -68t17 -94q0 -80 -18.5 -143t-52 -107t-81 -67.5t-104.5 -23.5q-46 0 -81 15t-59 41.5t-36 63t-12 79.5q0 79 18.5 142.5t52 107.5t81 67.5t104.5 23.5q41 0 74 -12h111l18 111h33zM268 19q86 0 138 55.5t69 153.5l9 52
q2 15 3 25.5t1 27.5q0 36 -9.5 66t-28.5 51.5t-48.5 34t-69.5 12.5q-86 0 -138 -55.5t-69 -153.5l-9 -52q-2 -15 -3 -25.5t-1 -27.5q0 -36 9.5 -66t28.5 -51.5t48.5 -34t69.5 -12.5zM337 594l-22 15l131 156l30 -19z" />
    <glyph glyph-name="uni1EE3" unicode="&#x1ee3;" 
d="M570 627l-16 -100q-6 -36 -44 -36h-57q35 -26 52 -68t17 -94q0 -80 -18.5 -143t-52 -107t-81 -67.5t-104.5 -23.5q-46 0 -81 15t-59 41.5t-36 63t-12 79.5q0 79 18.5 142.5t52 107.5t81 67.5t104.5 23.5q41 0 74 -12h111l18 111h33zM268 19q86 0 138 55.5t69 153.5l9 52
q2 15 3 25.5t1 27.5q0 36 -9.5 66t-28.5 51.5t-48.5 34t-69.5 12.5q-86 0 -138 -55.5t-69 -153.5l-9 -52q-2 -15 -3 -25.5t-1 -27.5q0 -36 9.5 -66t28.5 -51.5t48.5 -34t69.5 -12.5zM242 -145q-18 0 -25 7t-7 15q0 4 0.5 8t1.5 9q5 27 37 27q18 0 25 -7t7 -15q0 -4 -0.5 -8
t-1.5 -9q-5 -27 -37 -27z" />
    <glyph glyph-name="uni1EDD" unicode="&#x1edd;" 
d="M570 627l-16 -100q-6 -36 -44 -36h-57q35 -26 52 -68t17 -94q0 -80 -18.5 -143t-52 -107t-81 -67.5t-104.5 -23.5q-46 0 -81 15t-59 41.5t-36 63t-12 79.5q0 79 18.5 142.5t52 107.5t81 67.5t104.5 23.5q41 0 74 -12h111l18 111h33zM268 19q86 0 138 55.5t69 153.5l9 52
q2 15 3 25.5t1 27.5q0 36 -9.5 66t-28.5 51.5t-48.5 34t-69.5 12.5q-86 0 -138 -55.5t-69 -153.5l-9 -52q-2 -15 -3 -25.5t-1 -27.5q0 -36 9.5 -66t28.5 -51.5t48.5 -34t69.5 -12.5zM274 750l33 15l77 -159l-24 -12z" />
    <glyph glyph-name="uni1EDF" unicode="&#x1edf;" 
d="M570 627l-16 -100q-6 -36 -44 -36h-57q35 -26 52 -68t17 -94q0 -80 -18.5 -143t-52 -107t-81 -67.5t-104.5 -23.5q-46 0 -81 15t-59 41.5t-36 63t-12 79.5q0 79 18.5 142.5t52 107.5t81 67.5t104.5 23.5q41 0 74 -12h111l18 111h33zM268 19q86 0 138 55.5t69 153.5l9 52
q2 15 3 25.5t1 27.5q0 36 -9.5 66t-28.5 51.5t-48.5 34t-69.5 12.5q-86 0 -138 -55.5t-69 -153.5l-9 -52q-2 -15 -3 -25.5t-1 -27.5q0 -36 9.5 -66t28.5 -51.5t48.5 -34t69.5 -12.5zM300 751h126q18 0 26 -6.5t8 -17.5q0 -10 -7.5 -22.5t-32.5 -41.5l-61 -72l-21 13l91 119
h-134z" />
    <glyph glyph-name="uni1EE1" unicode="&#x1ee1;" 
d="M570 627l-16 -100q-6 -36 -44 -36h-57q35 -26 52 -68t17 -94q0 -80 -18.5 -143t-52 -107t-81 -67.5t-104.5 -23.5q-46 0 -81 15t-59 41.5t-36 63t-12 79.5q0 79 18.5 142.5t52 107.5t81 67.5t104.5 23.5q41 0 74 -12h111l18 111h33zM268 19q86 0 138 55.5t69 153.5l9 52
q2 15 3 25.5t1 27.5q0 36 -9.5 66t-28.5 51.5t-48.5 34t-69.5 12.5q-86 0 -138 -55.5t-69 -153.5l-9 -52q-2 -15 -3 -25.5t-1 -27.5q0 -36 9.5 -66t28.5 -51.5t48.5 -34t69.5 -12.5zM399 633q-20 0 -34.5 7t-35.5 21q-17 12 -31 18.5t-30 6.5q-32 0 -67 -31l-16 18
q39 42 88 42q20 0 34.5 -7t35.5 -21q17 -12 31 -18.5t30 -6.5q32 0 67 31l16 -18q-39 -42 -88 -42z" />
    <glyph glyph-name="uni1ED1" unicode="&#x1ed1;" 
d="M266 -12q-46 0 -81 15t-59 41.5t-36 63t-12 79.5q0 79 18.5 142.5t52 107.5t81 67.5t104.5 23.5q46 0 81 -15t59 -41.5t36 -63t12 -79.5q0 -80 -18.5 -143t-52 -107t-81 -67.5t-104.5 -23.5zM268 19q86 0 138 55.5t69 153.5l9 52q2 15 3 25.5t1 27.5q0 36 -9.5 66
t-28.5 51.5t-48.5 34t-69.5 12.5q-86 0 -138 -55.5t-69 -153.5l-9 -52q-2 -15 -3 -25.5t-1 -27.5q0 -36 9.5 -66t28.5 -51.5t48.5 -34t69.5 -12.5zM491 707l-21 15l131 156l29 -19zM394 747l101 -137l-22 -14l-102 125l-146 -125l-19 17l146 134h42z" />
    <glyph glyph-name="uni1ED9" unicode="&#x1ed9;" 
d="M266 -12q-46 0 -81 15t-59 41.5t-36 63t-12 79.5q0 79 18.5 142.5t52 107.5t81 67.5t104.5 23.5q46 0 81 -15t59 -41.5t36 -63t12 -79.5q0 -80 -18.5 -143t-52 -107t-81 -67.5t-104.5 -23.5zM268 19q86 0 138 55.5t69 153.5l9 52q2 15 3 25.5t1 27.5q0 36 -9.5 66
t-28.5 51.5t-48.5 34t-69.5 12.5q-86 0 -138 -55.5t-69 -153.5l-9 -52q-2 -15 -3 -25.5t-1 -27.5q0 -36 9.5 -66t28.5 -51.5t48.5 -34t69.5 -12.5zM396 756l101 -137l-22 -14l-102 124l-146 -124l-19 17l146 134h42zM242 -145q-18 0 -25 7t-7 15q0 4 0.5 8t1.5 9q5 27 37 27
q18 0 25 -7t7 -15q0 -4 -0.5 -8t-1.5 -9q-5 -27 -37 -27z" />
    <glyph glyph-name="uni1ED3" unicode="&#x1ed3;" 
d="M266 -12q-46 0 -81 15t-59 41.5t-36 63t-12 79.5q0 79 18.5 142.5t52 107.5t81 67.5t104.5 23.5q46 0 81 -15t59 -41.5t36 -63t12 -79.5q0 -80 -18.5 -143t-52 -107t-81 -67.5t-104.5 -23.5zM268 19q86 0 138 55.5t69 153.5l9 52q2 15 3 25.5t1 27.5q0 36 -9.5 66
t-28.5 51.5t-48.5 34t-69.5 12.5q-86 0 -138 -55.5t-69 -153.5l-9 -52q-2 -15 -3 -25.5t-1 -27.5q0 -36 9.5 -66t28.5 -51.5t48.5 -34t69.5 -12.5zM158 865l32 15l78 -160l-24 -11zM394 747l101 -137l-22 -14l-102 125l-146 -125l-19 17l146 134h42z" />
    <glyph glyph-name="uni1ED5" unicode="&#x1ed5;" 
d="M266 -12q-46 0 -81 15t-59 41.5t-36 63t-12 79.5q0 79 18.5 142.5t52 107.5t81 67.5t104.5 23.5q46 0 81 -15t59 -41.5t36 -63t12 -79.5q0 -80 -18.5 -143t-52 -107t-81 -67.5t-104.5 -23.5zM268 19q86 0 138 55.5t69 153.5l9 52q2 15 3 25.5t1 27.5q0 36 -9.5 66
t-28.5 51.5t-48.5 34t-69.5 12.5q-86 0 -138 -55.5t-69 -153.5l-9 -52q-2 -15 -3 -25.5t-1 -27.5q0 -36 9.5 -66t28.5 -51.5t48.5 -34t69.5 -12.5zM435 866h125q19 0 26.5 -6.5t7.5 -17.5q0 -9 -6.5 -20t-29.5 -39l-64 -78l-22 14l92 119h-134zM394 747l101 -137l-22 -14
l-102 125l-146 -125l-19 17l146 134h42z" />
    <glyph glyph-name="uni1ED7" unicode="&#x1ed7;" 
d="M266 -12q-46 0 -81 15t-59 41.5t-36 63t-12 79.5q0 79 18.5 142.5t52 107.5t81 67.5t104.5 23.5q46 0 81 -15t59 -41.5t36 -63t12 -79.5q0 -80 -18.5 -143t-52 -107t-81 -67.5t-104.5 -23.5zM268 19q86 0 138 55.5t69 153.5l9 52q2 15 3 25.5t1 27.5q0 36 -9.5 66
t-28.5 51.5t-48.5 34t-69.5 12.5q-86 0 -138 -55.5t-69 -153.5l-9 -52q-2 -15 -3 -25.5t-1 -27.5q0 -36 9.5 -66t28.5 -51.5t48.5 -34t69.5 -12.5zM321 865q20 0 36.5 -7.5t36.5 -21.5q18 -12 32.5 -18.5t30.5 -6.5q18 0 34 8t35 24l15 -19q-40 -41 -88 -41q-20 0 -36.5 7.5
t-36.5 21.5q-18 12 -32.5 18.5t-30.5 6.5q-18 0 -34 -8t-35 -24l-15 19q40 41 88 41zM394 745l102 -135l-23 -14l-102 123l-145 -123l-19 18l145 131h42z" />
    <glyph glyph-name="oe" unicode="&#x153;" 
d="M399 -12q-48 0 -79 33.5t-34 99.5h-3q-20 -66 -59.5 -99.5t-88.5 -33.5q-54 0 -83 43t-29 131q0 77 13.5 143.5t39 116t61 78t80.5 28.5q50 0 78 -38.5t29 -105.5h3q26 77 70 110.5t96 33.5q49 0 77 -30t28 -76q0 -41 -15.5 -73t-49 -54.5t-86 -35t-127.5 -14.5l-2 -14
q-8 -46 -8 -77q0 -72 24 -104.5t66 -32.5q45 0 76.5 29.5t54.5 80.5l27 -12q-12 -26 -27.5 -49.5t-35 -40.5t-43.5 -27t-53 -10zM138 16q49 0 88.5 47.5t56.5 156.5l10 67q3 20 4.5 37t1.5 35q0 141 -84 141q-49 0 -88.5 -47.5t-56.5 -156.5l-10 -67q-3 -20 -4.5 -37
t-1.5 -35q0 -141 84 -141zM489 500q-29 0 -55.5 -14.5t-48 -42t-37 -67t-21.5 -88.5l-2 -17q125 3 183 38.5t58 110.5q0 38 -20.5 59t-56.5 21z" />
    <glyph glyph-name="racute" unicode="&#x155;" 
d="M206 0l81 486h-170l5 30h204l-16 -99h3q14 23 30 41.5t36.5 31t46.5 19.5t61 7h109l-5 -33h-111q-66 0 -115 -36q-23 -17 -43 -44.5t-26 -65.5l-56 -337h-34zM368 594l-22 15l131 156l30 -19z" />
    <glyph glyph-name="rcaron" unicode="&#x159;" 
d="M206 0l81 486h-170l5 30h204l-16 -99h3q14 23 30 41.5t36.5 31t46.5 19.5t61 7h109l-5 -33h-111q-66 0 -115 -36q-23 -17 -43 -44.5t-26 -65.5l-56 -337h-34zM361 610l-102 137l22 14l102 -125l146 125l19 -17l-146 -134h-41z" />
    <glyph glyph-name="rcommaaccent" unicode="&#x157;" 
d="M206 0l81 486h-170l5 30h204l-16 -99h3q14 23 30 41.5t36.5 31t46.5 19.5t61 7h109l-5 -33h-111q-66 0 -115 -36q-23 -17 -43 -44.5t-26 -65.5l-56 -337h-34zM190 -67h44l-71 -184h-28z" />
    <glyph glyph-name="sacute" unicode="&#x15b;" 
d="M281 -12q-155 0 -222 101l27 20q32 -48 80 -69.5t117 -21.5q83 0 132.5 34t49.5 101q0 47 -30 67.5t-83 25.5l-78 8q-30 3 -56 10.5t-45.5 21.5t-30.5 36t-11 54q0 40 16 69t43.5 47.5t64 27t77.5 8.5q39 0 69.5 -6.5t54.5 -17.5t41.5 -26t30.5 -31l-26 -22
q-10 14 -24 27.5t-35 23.5t-49 16t-65 6q-76 0 -120 -30t-44 -90q0 -48 30 -68t84 -25l77 -8q29 -3 55 -10t45.5 -21t31 -36t11.5 -54q0 -42 -17 -73.5t-46 -52.5t-69 -31.5t-86 -10.5zM336 594l-22 15l131 156l30 -19z" />
    <glyph glyph-name="scaron" unicode="&#x161;" 
d="M281 -12q-155 0 -222 101l27 20q32 -48 80 -69.5t117 -21.5q83 0 132.5 34t49.5 101q0 47 -30 67.5t-83 25.5l-78 8q-30 3 -56 10.5t-45.5 21.5t-30.5 36t-11 54q0 40 16 69t43.5 47.5t64 27t77.5 8.5q39 0 69.5 -6.5t54.5 -17.5t41.5 -26t30.5 -31l-26 -22
q-10 14 -24 27.5t-35 23.5t-49 16t-65 6q-76 0 -120 -30t-44 -90q0 -48 30 -68t84 -25l77 -8q29 -3 55 -10t45.5 -21t31 -36t11.5 -54q0 -42 -17 -73.5t-46 -52.5t-69 -31.5t-86 -10.5zM329 610l-102 137l22 14l102 -125l146 125l19 -17l-146 -134h-41z" />
    <glyph glyph-name="scedilla" unicode="&#x15f;" 
d="M245 -203q-31 0 -51.5 10t-29.5 24l20 19q10 -12 25 -19.5t36 -7.5q29 0 47.5 14.5t18.5 37.5q0 16 -11.5 27t-43.5 13l-36 3l29 71q-130 10 -190 100l27 20q32 -48 80 -69.5t117 -21.5q83 0 132.5 34t49.5 101q0 47 -30 67.5t-83 25.5l-78 8q-30 3 -56 10.5t-45.5 21.5
t-30.5 36t-11 54q0 40 16 69t43.5 47.5t64 27t77.5 8.5q39 0 69.5 -6.5t54.5 -17.5t41.5 -26t30.5 -31l-26 -22q-10 14 -24 27.5t-35 23.5t-49 16t-65 6q-76 0 -120 -30t-44 -90q0 -48 30 -68t84 -25l77 -8q29 -3 55 -10t45.5 -21t31 -36t11.5 -54q0 -41 -16.5 -72.5
t-45 -52.5t-67 -31.5t-83.5 -11.5h-13l-24 -58l2 -2q8 2 16.5 2.5t14.5 0.5q28 0 43.5 -14.5t15.5 -40.5q0 -35 -26.5 -57t-70.5 -22z" />
    <glyph glyph-name="scircumflex" unicode="&#x15d;" 
d="M281 -12q-155 0 -222 101l27 20q32 -48 80 -69.5t117 -21.5q83 0 132.5 34t49.5 101q0 47 -30 67.5t-83 25.5l-78 8q-30 3 -56 10.5t-45.5 21.5t-30.5 36t-11 54q0 40 16 69t43.5 47.5t64 27t77.5 8.5q39 0 69.5 -6.5t54.5 -17.5t41.5 -26t30.5 -31l-26 -22
q-10 14 -24 27.5t-35 23.5t-49 16t-65 6q-76 0 -120 -30t-44 -90q0 -48 30 -68t84 -25l77 -8q29 -3 55 -10t45.5 -21t31 -36t11.5 -54q0 -42 -17 -73.5t-46 -52.5t-69 -31.5t-86 -10.5zM395 756l101 -137l-22 -14l-102 124l-146 -124l-19 17l146 134h42z" />
    <glyph glyph-name="scommaaccent" unicode="&#x219;" 
d="M281 -12q-155 0 -222 101l27 20q32 -48 80 -69.5t117 -21.5q83 0 132.5 34t49.5 101q0 47 -30 67.5t-83 25.5l-78 8q-30 3 -56 10.5t-45.5 21.5t-30.5 36t-11 54q0 40 16 69t43.5 47.5t64 27t77.5 8.5q39 0 69.5 -6.5t54.5 -17.5t41.5 -26t30.5 -31l-26 -22
q-10 14 -24 27.5t-35 23.5t-49 16t-65 6q-76 0 -120 -30t-44 -90q0 -48 30 -68t84 -25l77 -8q29 -3 55 -10t45.5 -21t31 -36t11.5 -54q0 -42 -17 -73.5t-46 -52.5t-69 -31.5t-86 -10.5zM241 -67h44l-71 -184h-28z" />
    <glyph glyph-name="germandbls" unicode="&#xdf;" 
d="M91 0l114 690q5 29 19 39.5t37 10.5h199l-5 -30h-212l-32 -194h362l-5 -34l-258 -274q49 -1 90 -11.5t70 -31t45.5 -51t16.5 -70.5q0 -116 -67 -180t-215 -64h-80l5 30h75q112 0 169 37.5t70 114.5q5 33 6 45t1 20q0 35 -14.5 60t-41 41.5t-63.5 24t-82 7.5h-28l6 32
l256 274h-323l-81 -486h-34z" />
    <glyph glyph-name="germandbls.alt01" 
d="M163 485h-88l5 31h88l1 7q7 51 26.5 93t48.5 72t67.5 47t84.5 17q74 0 112.5 -44.5t38.5 -121.5q0 -16 -2 -32t-5 -33l-6 -40h-28q-31 0 -63 -5t-58 -18.5t-42.5 -37t-16.5 -60.5q0 -34 21.5 -50.5t62.5 -30.5l37 -14q48 -17 74 -42t26 -71q0 -39 -13.5 -69.5
t-37.5 -51.5t-57 -32t-73 -11q-56 0 -97.5 21t-67.5 70l27 18q23 -45 57.5 -62t82.5 -17q63 0 104 33t41 99q0 35 -18.5 53.5t-56.5 32.5l-36 13q-23 8 -43 17t-35 21.5t-23.5 29.5t-8.5 42q0 43 18 71.5t48 45.5t68.5 24.5t78.5 8.5l3 16q6 33 6 62q0 66 -30 100.5
t-92 34.5q-75 0 -123.5 -52.5t-64.5 -146.5l-88 -523h-34z" />
    <glyph glyph-name="tbar" unicode="&#x167;" 
d="M219 -12q-31 0 -31 31q0 5 1 13l3 24l39 223h-123l5 29h122l30 178h-188l5 30h156q33 0 39 33l24 149h34l-30 -182h252l-5 -30h-253l-30 -178h184l-5 -29h-183l-44 -253l10 -5l267 167l17 -24l-222 -139q-27 -18 -43 -27.5t-31 -9.5z" />
    <glyph glyph-name="tcaron" unicode="&#x165;" 
d="M219 -12q-15 0 -23.5 8t-8.5 20q0 8 0.5 16t3.5 24l74 430h-188l5 30h156q33 0 39 33l24 149h34l-30 -182h252l-5 -30h-253l-78 -460l10 -5l267 167l17 -24l-222 -139q-27 -18 -43 -27.5t-31 -9.5zM464 581h-27l43 179h44z" />
    <glyph glyph-name="tcommaaccent" unicode="&#x163;" 
d="M219 -12q-15 0 -23.5 8t-8.5 20q0 8 0.5 16t3.5 24l74 430h-188l5 30h156q33 0 39 33l24 149h34l-30 -182h252l-5 -30h-253l-78 -460l10 -5l267 167l17 -24l-222 -139q-27 -18 -43 -27.5t-31 -9.5zM185 -67h44l-71 -184h-28z" />
    <glyph glyph-name="uni021B" unicode="&#x21b;" 
d="M219 -12q-15 0 -23.5 8t-8.5 20q0 8 0.5 16t3.5 24l74 430h-188l5 30h156q33 0 39 33l24 149h34l-30 -182h252l-5 -30h-253l-78 -460l10 -5l267 167l17 -24l-222 -139q-27 -18 -43 -27.5t-31 -9.5zM185 -67h44l-71 -184h-28z" />
    <glyph glyph-name="thorn" unicode="&#xfe;" 
d="M197 740h34l-56 -341h3q29 58 72.5 93.5t111.5 35.5q42 0 74 -14.5t53.5 -40.5t32.5 -62.5t11 -80.5q0 -69 -16 -131t-47 -109t-76.5 -74.5t-103.5 -27.5q-66 0 -107 28.5t-56 75.5h-4l-49 -292h-34zM285 19q41 0 75 16t59.5 44t42 66t24.5 82l9 55q4 23 4 49
q0 35 -8.5 65t-25.5 52.5t-44.5 35.5t-64.5 13q-33 0 -61.5 -10.5t-54.5 -34.5q-27 -25 -50 -62.5t-31 -84.5l-24 -142q-5 -26 2 -52t25 -46.5t48.5 -33t74.5 -12.5z" />
    <glyph glyph-name="uacute" unicode="&#xfa;" 
d="M418 116h-3q-29 -59 -71.5 -93.5t-107.5 -34.5q-66 0 -103 37.5t-37 105.5q0 14 2 29l4 30l55 326h34l-54 -323q-2 -14 -3.5 -29t-1.5 -28q0 -117 112 -117q35 0 68.5 14.5t59.5 48.5q7 9 16 21.5t18 29t16.5 36t11.5 41.5l51 306h34l-86 -516h-34zM340 594l-22 15
l131 156l30 -19z" />
    <glyph glyph-name="ubreve" unicode="&#x16d;" 
d="M418 116h-3q-29 -59 -71.5 -93.5t-107.5 -34.5q-66 0 -103 37.5t-37 105.5q0 14 2 29l4 30l55 326h34l-54 -323q-2 -14 -3.5 -29t-1.5 -28q0 -117 112 -117q35 0 68.5 14.5t59.5 48.5q7 9 16 21.5t18 29t16.5 36t11.5 41.5l51 306h34l-86 -516h-34zM355 607
q-30 0 -49.5 10t-33 27.5t-23 42t-17.5 54.5l23 11l18 -46q17 -38 34 -53.5t49 -15.5q31 0 53.5 15t52.5 54l33 46l24 -11q-18 -30 -35 -54.5t-35.5 -42t-41 -27.5t-52.5 -10z" />
    <glyph glyph-name="ucircumflex" unicode="&#xfb;" 
d="M418 116h-3q-29 -59 -71.5 -93.5t-107.5 -34.5q-66 0 -103 37.5t-37 105.5q0 14 2 29l4 30l55 326h34l-54 -323q-2 -14 -3.5 -29t-1.5 -28q0 -117 112 -117q35 0 68.5 14.5t59.5 48.5q7 9 16 21.5t18 29t16.5 36t11.5 41.5l51 306h34l-86 -516h-34zM399 756l101 -137
l-22 -14l-102 124l-146 -124l-19 17l146 134h42z" />
    <glyph glyph-name="udieresis" unicode="&#xfc;" 
d="M418 116h-3q-29 -59 -71.5 -93.5t-107.5 -34.5q-66 0 -103 37.5t-37 105.5q0 14 2 29l4 30l55 326h34l-54 -323q-2 -14 -3.5 -29t-1.5 -28q0 -117 112 -117q35 0 68.5 14.5t59.5 48.5q7 9 16 21.5t18 29t16.5 36t11.5 41.5l51 306h34l-86 -516h-34zM270 642q-18 0 -25 7
t-7 15q0 4 0.5 8t1.5 9q5 27 37 27q18 0 25 -7t7 -15q0 -4 -0.5 -8t-1.5 -9q-5 -27 -37 -27zM452 642q-18 0 -25 7t-7 15q0 4 0.5 8t1.5 9q5 27 37 27q18 0 25 -7t7 -15q0 -4 -0.5 -8t-1.5 -9q-5 -27 -37 -27z" />
    <glyph glyph-name="uni1EE5" unicode="&#x1ee5;" 
d="M418 116h-3q-29 -59 -71.5 -93.5t-107.5 -34.5q-66 0 -103 37.5t-37 105.5q0 14 2 29l4 30l55 326h34l-54 -323q-2 -14 -3.5 -29t-1.5 -28q0 -117 112 -117q35 0 68.5 14.5t59.5 48.5q7 9 16 21.5t18 29t16.5 36t11.5 41.5l51 306h34l-86 -516h-34zM232 -145q-18 0 -25 7
t-7 15q0 4 0.5 8t1.5 9q5 27 37 27q18 0 25 -7t7 -15q0 -4 -0.5 -8t-1.5 -9q-5 -27 -37 -27z" />
    <glyph glyph-name="ugrave" unicode="&#xf9;" 
d="M418 116h-3q-29 -59 -71.5 -93.5t-107.5 -34.5q-66 0 -103 37.5t-37 105.5q0 14 2 29l4 30l55 326h34l-54 -323q-2 -14 -3.5 -29t-1.5 -28q0 -117 112 -117q35 0 68.5 14.5t59.5 48.5q7 9 16 21.5t18 29t16.5 36t11.5 41.5l51 306h34l-86 -516h-34zM277 750l33 15
l77 -159l-24 -12z" />
    <glyph glyph-name="uni1EE7" unicode="&#x1ee7;" 
d="M418 116h-3q-29 -59 -71.5 -93.5t-107.5 -34.5q-66 0 -103 37.5t-37 105.5q0 14 2 29l4 30l55 326h34l-54 -323q-2 -14 -3.5 -29t-1.5 -28q0 -117 112 -117q35 0 68.5 14.5t59.5 48.5q7 9 16 21.5t18 29t16.5 36t11.5 41.5l51 306h34l-86 -516h-34zM303 751h126
q18 0 26 -6.5t8 -17.5q0 -10 -7.5 -22.5t-32.5 -41.5l-61 -72l-21 13l91 119h-134z" />
    <glyph glyph-name="uhungarumlaut" unicode="&#x171;" 
d="M418 116h-3q-29 -59 -71.5 -93.5t-107.5 -34.5q-66 0 -103 37.5t-37 105.5q0 14 2 29l4 30l55 326h34l-54 -323q-2 -14 -3.5 -29t-1.5 -28q0 -117 112 -117q35 0 68.5 14.5t59.5 48.5q7 9 16 21.5t18 29t16.5 36t11.5 41.5l51 306h34l-86 -516h-34zM273 594l-21 15
l131 156l29 -19zM434 594l-21 15l130 156l29 -19z" />
    <glyph glyph-name="umacron" unicode="&#x16b;" 
d="M418 116h-3q-29 -59 -71.5 -93.5t-107.5 -34.5q-66 0 -103 37.5t-37 105.5q0 14 2 29l4 30l55 326h34l-54 -323q-2 -14 -3.5 -29t-1.5 -28q0 -117 112 -117q35 0 68.5 14.5t59.5 48.5q7 9 16 21.5t18 29t16.5 36t11.5 41.5l51 306h34l-86 -516h-34zM236 691h262l-5 -30
h-262z" />
    <glyph glyph-name="uogonek" unicode="&#x173;" 
d="M433 0q-39 -23 -65.5 -40.5t-43 -32.5t-23.5 -29.5t-7 -30.5q0 -23 14.5 -33.5t34.5 -10.5q21 0 36 7.5t26 18.5l19 -19q-12 -14 -33 -23.5t-49 -9.5q-32 0 -56 16t-24 51q0 15 6 31t21.5 32.5t42 34.5t67.5 38l19 116h-3q-29 -59 -71.5 -93.5t-107.5 -34.5
q-66 0 -103 37.5t-37 105.5q0 14 2 29l4 30l55 326h34l-54 -323q-2 -14 -3.5 -29t-1.5 -28q0 -117 112 -117q35 0 68.5 14.5t59.5 48.5q7 9 16 21.5t18 29t16.5 36t11.5 41.5l51 306h34z" />
    <glyph glyph-name="uring" unicode="&#x16f;" 
d="M418 116h-3q-29 -59 -71.5 -93.5t-107.5 -34.5q-66 0 -103 37.5t-37 105.5q0 14 2 29l4 30l55 326h34l-54 -323q-2 -14 -3.5 -29t-1.5 -28q0 -117 112 -117q35 0 68.5 14.5t59.5 48.5q7 9 16 21.5t18 29t16.5 36t11.5 41.5l51 306h34l-86 -516h-34zM352 594
q-38 0 -60.5 22.5t-22.5 58.5q0 24 9 44.5t24 35.5t35.5 23t43.5 8q38 0 60.5 -22.5t22.5 -58.5q0 -24 -9 -44.5t-24 -35.5t-35.5 -23t-43.5 -8zM355 618q31 0 52 17t26 48q2 11 2.5 17t0.5 11q0 23 -14.5 37t-43.5 14q-31 0 -52 -17t-26 -48q-2 -11 -2.5 -17t-0.5 -11
q0 -23 14.5 -37t43.5 -14z" />
    <glyph glyph-name="utilde" unicode="&#x169;" 
d="M418 116h-3q-29 -59 -71.5 -93.5t-107.5 -34.5q-66 0 -103 37.5t-37 105.5q0 14 2 29l4 30l55 326h34l-54 -323q-2 -14 -3.5 -29t-1.5 -28q0 -117 112 -117q35 0 68.5 14.5t59.5 48.5q7 9 16 21.5t18 29t16.5 36t11.5 41.5l51 306h34l-86 -516h-34zM429 632
q-20 0 -36 7.5t-36 21.5q-18 12 -32.5 19t-31.5 7t-33.5 -8t-34.5 -24l-15 19q40 42 89 42q20 0 36 -7.5t36 -21.5q18 -12 32.5 -19t31.5 -7t33.5 8t34.5 24l15 -19q-41 -42 -89 -42z" />
    <glyph glyph-name="uhorn" unicode="&#x1b0;" 
d="M616 527q-6 -37 -44 -37h-57l-82 -490h-34l19 116h-3q-29 -59 -71.5 -93.5t-107.5 -34.5q-66 0 -103 37.5t-37 105.5q0 14 2 29l4 30l55 326h34l-54 -323q-2 -14 -3.5 -29t-1.5 -28q0 -117 112 -117q35 0 68.5 14.5t59.5 48.5q7 9 16 21.5t18 29t16.5 36t11.5 41.5
l51 306h96l18 111h33z" />
    <glyph glyph-name="uni1EE9" unicode="&#x1ee9;" 
d="M616 527q-6 -37 -44 -37h-57l-82 -490h-34l19 116h-3q-29 -59 -71.5 -93.5t-107.5 -34.5q-66 0 -103 37.5t-37 105.5q0 14 2 29l4 30l55 326h34l-54 -323q-2 -14 -3.5 -29t-1.5 -28q0 -117 112 -117q35 0 68.5 14.5t59.5 48.5q7 9 16 21.5t18 29t16.5 36t11.5 41.5
l51 306h96l18 111h33zM340 594l-22 15l131 156l30 -19z" />
    <glyph glyph-name="uni1EF1" unicode="&#x1ef1;" 
d="M616 527q-6 -37 -44 -37h-57l-82 -490h-34l19 116h-3q-29 -59 -71.5 -93.5t-107.5 -34.5q-66 0 -103 37.5t-37 105.5q0 14 2 29l4 30l55 326h34l-54 -323q-2 -14 -3.5 -29t-1.5 -28q0 -117 112 -117q35 0 68.5 14.5t59.5 48.5q7 9 16 21.5t18 29t16.5 36t11.5 41.5
l51 306h96l18 111h33zM232 -145q-18 0 -25 7t-7 15q0 4 0.5 8t1.5 9q5 27 37 27q18 0 25 -7t7 -15q0 -4 -0.5 -8t-1.5 -9q-5 -27 -37 -27z" />
    <glyph glyph-name="uni1EEB" unicode="&#x1eeb;" 
d="M616 527q-6 -37 -44 -37h-57l-82 -490h-34l19 116h-3q-29 -59 -71.5 -93.5t-107.5 -34.5q-66 0 -103 37.5t-37 105.5q0 14 2 29l4 30l55 326h34l-54 -323q-2 -14 -3.5 -29t-1.5 -28q0 -117 112 -117q35 0 68.5 14.5t59.5 48.5q7 9 16 21.5t18 29t16.5 36t11.5 41.5
l51 306h96l18 111h33zM277 750l33 15l77 -159l-24 -12z" />
    <glyph glyph-name="uni1EED" unicode="&#x1eed;" 
d="M616 527q-6 -37 -44 -37h-57l-82 -490h-34l19 116h-3q-29 -59 -71.5 -93.5t-107.5 -34.5q-66 0 -103 37.5t-37 105.5q0 14 2 29l4 30l55 326h34l-54 -323q-2 -14 -3.5 -29t-1.5 -28q0 -117 112 -117q35 0 68.5 14.5t59.5 48.5q7 9 16 21.5t18 29t16.5 36t11.5 41.5
l51 306h96l18 111h33zM303 751h126q18 0 26 -6.5t8 -17.5q0 -10 -7.5 -22.5t-32.5 -41.5l-61 -72l-21 13l91 119h-134z" />
    <glyph glyph-name="uni1EEF" unicode="&#x1eef;" 
d="M616 527q-6 -37 -44 -37h-57l-82 -490h-34l19 116h-3q-29 -59 -71.5 -93.5t-107.5 -34.5q-66 0 -103 37.5t-37 105.5q0 14 2 29l4 30l55 326h34l-54 -323q-2 -14 -3.5 -29t-1.5 -28q0 -117 112 -117q35 0 68.5 14.5t59.5 48.5q7 9 16 21.5t18 29t16.5 36t11.5 41.5
l51 306h96l18 111h33zM427 633q-20 0 -34.5 7t-35.5 21q-17 12 -31 18.5t-30 6.5q-32 0 -67 -31l-16 18q39 42 88 42q20 0 34.5 -7t35.5 -21q17 -12 31 -18.5t30 -6.5q32 0 67 31l16 -18q-39 -42 -88 -42z" />
    <glyph glyph-name="wacute" unicode="&#x1e83;" 
d="M154 -12q-44 0 -66 26.5t-22 66.5q0 19 2.5 39.5t5.5 40.5l59 355h33l-59 -354q-5 -26 -6.5 -42t-1.5 -33q0 -34 17 -51.5t46 -17.5q28 0 49.5 15t37.5 39q14 21 22.5 47.5t13.5 52.5l57 344h32l-56 -346q-3 -19 -5 -38.5t-2 -36.5q0 -35 16.5 -56t49.5 -21q37 0 66 26.5
t49 71.5t31 103.5t11 123.5q0 48 -7.5 93t-21.5 74l30 9q14 -31 22.5 -76t8.5 -99q0 -81 -15.5 -153.5t-48.5 -123.5q-23 -37 -55.5 -58t-74.5 -21q-39 0 -64.5 26t-22.5 83h-4q-18 -51 -49.5 -80t-77.5 -29zM361 594l-22 15l131 156l30 -19z" />
    <glyph glyph-name="wcircumflex" unicode="&#x175;" 
d="M154 -12q-44 0 -66 26.5t-22 66.5q0 19 2.5 39.5t5.5 40.5l59 355h33l-59 -354q-5 -26 -6.5 -42t-1.5 -33q0 -34 17 -51.5t46 -17.5q28 0 49.5 15t37.5 39q14 21 22.5 47.5t13.5 52.5l57 344h32l-56 -346q-3 -19 -5 -38.5t-2 -36.5q0 -35 16.5 -56t49.5 -21q37 0 66 26.5
t49 71.5t31 103.5t11 123.5q0 48 -7.5 93t-21.5 74l30 9q14 -31 22.5 -76t8.5 -99q0 -81 -15.5 -153.5t-48.5 -123.5q-23 -37 -55.5 -58t-74.5 -21q-39 0 -64.5 26t-22.5 83h-4q-18 -51 -49.5 -80t-77.5 -29zM420 756l101 -137l-22 -14l-102 124l-146 -124l-19 17l146 134
h42z" />
    <glyph glyph-name="wdieresis" unicode="&#x1e85;" 
d="M154 -12q-44 0 -66 26.5t-22 66.5q0 19 2.5 39.5t5.5 40.5l59 355h33l-59 -354q-5 -26 -6.5 -42t-1.5 -33q0 -34 17 -51.5t46 -17.5q28 0 49.5 15t37.5 39q14 21 22.5 47.5t13.5 52.5l57 344h32l-56 -346q-3 -19 -5 -38.5t-2 -36.5q0 -35 16.5 -56t49.5 -21q37 0 66 26.5
t49 71.5t31 103.5t11 123.5q0 48 -7.5 93t-21.5 74l30 9q14 -31 22.5 -76t8.5 -99q0 -81 -15.5 -153.5t-48.5 -123.5q-23 -37 -55.5 -58t-74.5 -21q-39 0 -64.5 26t-22.5 83h-4q-18 -51 -49.5 -80t-77.5 -29zM291 642q-18 0 -25 7t-7 15q0 4 0.5 8t1.5 9q5 27 37 27
q18 0 25 -7t7 -15q0 -4 -0.5 -8t-1.5 -9q-5 -27 -37 -27zM473 642q-18 0 -25 7t-7 15q0 4 0.5 8t1.5 9q5 27 37 27q18 0 25 -7t7 -15q0 -4 -0.5 -8t-1.5 -9q-5 -27 -37 -27z" />
    <glyph glyph-name="wgrave" unicode="&#x1e81;" 
d="M154 -12q-44 0 -66 26.5t-22 66.5q0 19 2.5 39.5t5.5 40.5l59 355h33l-59 -354q-5 -26 -6.5 -42t-1.5 -33q0 -34 17 -51.5t46 -17.5q28 0 49.5 15t37.5 39q14 21 22.5 47.5t13.5 52.5l57 344h32l-56 -346q-3 -19 -5 -38.5t-2 -36.5q0 -35 16.5 -56t49.5 -21q37 0 66 26.5
t49 71.5t31 103.5t11 123.5q0 48 -7.5 93t-21.5 74l30 9q14 -31 22.5 -76t8.5 -99q0 -81 -15.5 -153.5t-48.5 -123.5q-23 -37 -55.5 -58t-74.5 -21q-39 0 -64.5 26t-22.5 83h-4q-18 -51 -49.5 -80t-77.5 -29zM298 750l33 15l77 -159l-24 -12z" />
    <glyph glyph-name="yacute" unicode="&#xfd;" 
d="M201 -212q-58 0 -97.5 18t-65.5 50l25 23q21 -28 54.5 -44t84.5 -16q80 0 130.5 41t65.5 134l21 125h-3q-29 -59 -71.5 -93t-107.5 -34q-67 0 -104 36.5t-37 104.5q0 28 6 60l55 323h35l-54 -320q-2 -14 -4 -29t-2 -28q0 -58 29 -87.5t84 -29.5q35 0 68 15t60 48
q7 9 16 21.5t18 28.5t16 35.5t11 41.5l51 304h34l-88 -530q-17 -103 -76.5 -150.5t-153.5 -47.5zM342 594l-22 15l131 156l30 -19z" />
    <glyph glyph-name="ycircumflex" unicode="&#x177;" 
d="M201 -212q-58 0 -97.5 18t-65.5 50l25 23q21 -28 54.5 -44t84.5 -16q80 0 130.5 41t65.5 134l21 125h-3q-29 -59 -71.5 -93t-107.5 -34q-67 0 -104 36.5t-37 104.5q0 28 6 60l55 323h35l-54 -320q-2 -14 -4 -29t-2 -28q0 -58 29 -87.5t84 -29.5q35 0 68 15t60 48
q7 9 16 21.5t18 28.5t16 35.5t11 41.5l51 304h34l-88 -530q-17 -103 -76.5 -150.5t-153.5 -47.5zM401 756l101 -137l-22 -14l-102 124l-146 -124l-19 17l146 134h42z" />
    <glyph glyph-name="ydieresis" unicode="&#xff;" 
d="M201 -212q-58 0 -97.5 18t-65.5 50l25 23q21 -28 54.5 -44t84.5 -16q80 0 130.5 41t65.5 134l21 125h-3q-29 -59 -71.5 -93t-107.5 -34q-67 0 -104 36.5t-37 104.5q0 28 6 60l55 323h35l-54 -320q-2 -14 -4 -29t-2 -28q0 -58 29 -87.5t84 -29.5q35 0 68 15t60 48
q7 9 16 21.5t18 28.5t16 35.5t11 41.5l51 304h34l-88 -530q-17 -103 -76.5 -150.5t-153.5 -47.5zM272 642q-18 0 -25 7t-7 15q0 4 0.5 8t1.5 9q5 27 37 27q18 0 25 -7t7 -15q0 -4 -0.5 -8t-1.5 -9q-5 -27 -37 -27zM454 642q-18 0 -25 7t-7 15q0 4 0.5 8t1.5 9q5 27 37 27
q18 0 25 -7t7 -15q0 -4 -0.5 -8t-1.5 -9q-5 -27 -37 -27z" />
    <glyph glyph-name="uni1EF5" unicode="&#x1ef5;" 
d="M201 -212q-58 0 -97.5 18t-65.5 50l25 23q21 -28 54.5 -44t84.5 -16q80 0 130.5 41t65.5 134l21 125h-3q-29 -59 -71.5 -93t-107.5 -34q-67 0 -103 37t-36 105q0 14 1.5 28.5t3.5 30.5l54 323h35l-54 -320q-2 -14 -3.5 -28.5t-1.5 -27.5q0 -118 112 -118q35 0 68 15
t60 48q7 9 16 21.5t18 28.5t16 35.5t11 41.5l51 304h34l-88 -530q-17 -103 -76.5 -150.5t-153.5 -47.5zM227 -65q18 0 24.5 -6.5t6.5 -14.5q0 -4 -0.5 -7.5t-1.5 -8.5q-3 -12 -10.5 -19t-24.5 -7q-18 0 -24.5 6.5t-6.5 14.5q0 4 0.5 7.5t1.5 8.5q3 12 10.5 19t24.5 7z" />
    <glyph glyph-name="ygrave" unicode="&#x1ef3;" 
d="M201 -212q-58 0 -97.5 18t-65.5 50l25 23q21 -28 54.5 -44t84.5 -16q80 0 130.5 41t65.5 134l21 125h-3q-29 -59 -71.5 -93t-107.5 -34q-67 0 -104 36.5t-37 104.5q0 28 6 60l55 323h35l-54 -320q-2 -14 -4 -29t-2 -28q0 -58 29 -87.5t84 -29.5q35 0 68 15t60 48
q7 9 16 21.5t18 28.5t16 35.5t11 41.5l51 304h34l-88 -530q-17 -103 -76.5 -150.5t-153.5 -47.5zM279 750l33 15l77 -159l-24 -12z" />
    <glyph glyph-name="uni1EF7" unicode="&#x1ef7;" 
d="M201 -212q-58 0 -97.5 18t-65.5 50l25 23q21 -28 54.5 -44t84.5 -16q80 0 130.5 41t65.5 134l21 125h-3q-29 -59 -71.5 -93t-107.5 -34q-67 0 -104 36.5t-37 104.5q0 28 6 60l55 323h35l-54 -320q-2 -14 -4 -29t-2 -28q0 -58 29 -87.5t84 -29.5q35 0 68 15t60 48
q7 9 16 21.5t18 28.5t16 35.5t11 41.5l51 304h34l-88 -530q-17 -103 -76.5 -150.5t-153.5 -47.5zM305 751h126q18 0 26 -6.5t8 -17.5q0 -10 -7.5 -22.5t-32.5 -41.5l-61 -72l-21 13l91 119h-134z" />
    <glyph glyph-name="uni1EF9" unicode="&#x1ef9;" 
d="M201 -212q-58 0 -97.5 18t-65.5 50l25 23q21 -28 54.5 -44t84.5 -16q80 0 130.5 41t65.5 134l21 125h-3q-29 -59 -71.5 -93t-107.5 -34q-67 0 -104 36.5t-37 104.5q0 28 6 60l55 323h35l-54 -320q-2 -14 -4 -29t-2 -28q0 -58 29 -87.5t84 -29.5q35 0 68 15t60 48
q7 9 16 21.5t18 28.5t16 35.5t11 41.5l51 304h34l-88 -530q-17 -103 -76.5 -150.5t-153.5 -47.5zM431 632q-20 0 -36 7.5t-36 21.5q-18 12 -32.5 19t-31.5 7t-33.5 -8t-34.5 -24l-15 19q40 42 89 42q20 0 36 -7.5t36 -21.5q18 -12 32.5 -19t31.5 -7t33.5 8t34.5 24l15 -19
q-41 -42 -89 -42z" />
    <glyph glyph-name="zacute" unicode="&#x17a;" 
d="M448 -12q-13 0 -27.5 3t-35.5 8l-284 65l-5 -5l-10 -59h-34l12 74l410 357q-83 35 -135 50.5t-91 15.5q-57 0 -83 -33t-27 -118h-31l1 19q5 82 37 122.5t104 40.5q40 0 92.5 -15.5t115.5 -42.5l39 -17l5 5l10 59h34l-12 -74l-408 -355l331 -72l7 7l-28 173l27 6l17 -89
q7 -32 11 -52.5t4 -32.5q0 -15 -12.5 -27.5t-33.5 -12.5zM341 594l-22 15l131 156l30 -19z" />
    <glyph glyph-name="zcaron" unicode="&#x17e;" 
d="M448 -12q-13 0 -27.5 3t-35.5 8l-284 65l-5 -5l-10 -59h-34l12 74l410 357q-83 35 -135 50.5t-91 15.5q-57 0 -83 -33t-27 -118h-31l1 19q5 82 37 122.5t104 40.5q40 0 92.5 -15.5t115.5 -42.5l39 -17l5 5l10 59h34l-12 -74l-408 -355l331 -72l7 7l-28 173l27 6l17 -89
q7 -32 11 -52.5t4 -32.5q0 -15 -12.5 -27.5t-33.5 -12.5zM334 610l-102 137l22 14l102 -125l146 125l19 -17l-146 -134h-41z" />
    <glyph glyph-name="zdotaccent" unicode="&#x17c;" 
d="M448 -12q-13 0 -27.5 3t-35.5 8l-284 65l-5 -5l-10 -59h-34l12 74l410 357q-83 35 -135 50.5t-91 15.5q-57 0 -83 -33t-27 -118h-31l1 19q5 82 37 122.5t104 40.5q40 0 92.5 -15.5t115.5 -42.5l39 -17l5 5l10 59h34l-12 -74l-408 -355l331 -72l7 7l-28 173l27 6l17 -89
q7 -32 11 -52.5t4 -32.5q0 -15 -12.5 -27.5t-33.5 -12.5zM362 640q-20 0 -27 7t-7 16q0 6 3 18q3 13 12 20.5t26 7.5q20 0 27 -7t7 -16q0 -6 -3 -18q-3 -13 -12 -20.5t-26 -7.5z" />
    <glyph glyph-name="Aacute" unicode="&#xc1;" 
d="M473 0l-35 226h-283l-111 -226h-39l344 698h49l112 -698h-37zM370 659h-5l-196 -401h264zM376 764l-22 15l131 156l30 -19z" />
    <glyph glyph-name="Abreve" unicode="&#x102;" 
d="M473 0l-35 226h-283l-111 -226h-39l344 698h49l112 -698h-37zM370 659h-5l-196 -401h264zM391 777q-30 0 -49.5 10t-33 27.5t-23 42t-17.5 54.5l23 11l18 -46q17 -38 34 -53.5t49 -15.5q31 0 53.5 15t52.5 54l33 46l24 -11q-18 -30 -35 -54.5t-35.5 -42t-41 -27.5
t-52.5 -10z" />
    <glyph glyph-name="Acircumflex" unicode="&#xc2;" 
d="M473 0l-35 226h-283l-111 -226h-39l344 698h49l112 -698h-37zM370 659h-5l-196 -401h264zM435 926l101 -137l-22 -14l-102 124l-146 -124l-19 17l146 134h42z" />
    <glyph glyph-name="Adieresis" unicode="&#xc4;" 
d="M473 0l-35 226h-283l-111 -226h-39l344 698h49l112 -698h-37zM370 659h-5l-196 -401h264zM306 812q-18 0 -25 7t-7 15q0 4 0.5 8t1.5 9q5 27 37 27q18 0 25 -7t7 -15q0 -4 -0.5 -8t-1.5 -9q-5 -27 -37 -27zM488 812q-18 0 -25 7t-7 15q0 4 0.5 8t1.5 9q5 27 37 27
q18 0 25 -7t7 -15q0 -4 -0.5 -8t-1.5 -9q-5 -27 -37 -27z" />
    <glyph glyph-name="uni1EA0" unicode="&#x1ea0;" 
d="M473 0l-35 226h-283l-111 -226h-39l344 698h49l112 -698h-37zM370 659h-5l-196 -401h264zM237 -145q-18 0 -25 7t-7 15q0 4 0.5 8t1.5 9q5 27 37 27q18 0 25 -7t7 -15q0 -4 -0.5 -8t-1.5 -9q-5 -27 -37 -27z" />
    <glyph glyph-name="Agrave" unicode="&#xc0;" 
d="M473 0l-35 226h-283l-111 -226h-39l344 698h49l112 -698h-37zM370 659h-5l-196 -401h264zM313 920l33 15l77 -159l-24 -12z" />
    <glyph glyph-name="uni1EA2" unicode="&#x1ea2;" 
d="M473 0l-35 226h-283l-111 -226h-39l344 698h49l112 -698h-37zM370 659h-5l-196 -401h264zM339 921h126q18 0 26 -6.5t8 -17.5q0 -10 -7.5 -22.5t-32.5 -41.5l-61 -72l-21 13l91 119h-134z" />
    <glyph glyph-name="Amacron" unicode="&#x100;" 
d="M473 0l-35 226h-283l-111 -226h-39l344 698h49l112 -698h-37zM370 659h-5l-196 -401h264zM272 861h262l-5 -30h-262z" />
    <glyph glyph-name="Aogonek" unicode="&#x104;" 
d="M349 698h49l112 -698q-38 -23 -64.5 -40.5t-43 -32.5t-23.5 -29.5t-7 -30.5q0 -23 14 -33.5t34 -10.5q22 0 37 7.5t26 18.5l18 -19q-11 -14 -32 -23.5t-50 -9.5q-32 0 -55.5 16t-23.5 51q0 15 5.5 30.5t20 32t40.5 34.5t67 39l-35 226h-283l-111 -226h-39zM370 659h-5
l-196 -401h264z" />
    <glyph glyph-name="Aring" unicode="&#xc5;" 
d="M473 0l-35 226h-283l-111 -226h-39l344 698h49l112 -698h-37zM370 659h-5l-196 -401h264zM388 764q-38 0 -60.5 22.5t-22.5 58.5q0 24 9 44.5t24 35.5t35.5 23t43.5 8q38 0 60.5 -22.5t22.5 -58.5q0 -24 -9 -44.5t-24 -35.5t-35.5 -23t-43.5 -8zM391 788q31 0 52 17
t26 48q2 11 2.5 17t0.5 11q0 23 -14.5 37t-43.5 14q-31 0 -52 -17t-26 -48q-2 -11 -2.5 -17t-0.5 -11q0 -23 14.5 -37t43.5 -14z" />
    <glyph glyph-name="Aringacute" unicode="&#x1fa;" 
d="M473 0l-35 226h-283l-111 -226h-39l344 698h49l112 -698h-37zM370 659h-5l-196 -401h264zM423 980l-19 14l95 105l25 -20zM388 762q-38 0 -60.5 22.5t-22.5 58.5q0 24 9 44.5t24 35.5t35.5 23t43.5 8q38 0 60.5 -22.5t22.5 -58.5q0 -24 -9 -44.5t-24 -35.5t-35.5 -23
t-43.5 -8zM391 786q31 0 52 17t26 48q2 11 2.5 17t0.5 11q0 23 -14.5 37t-43.5 14q-31 0 -52 -17t-26 -48q-2 -11 -2.5 -17t-0.5 -11q0 -23 14.5 -37t43.5 -14z" />
    <glyph glyph-name="Atilde" unicode="&#xc3;" 
d="M473 0l-35 226h-283l-111 -226h-39l344 698h49l112 -698h-37zM370 659h-5l-196 -401h264zM465 802q-20 0 -36 7.5t-36 21.5q-18 12 -32.5 19t-31.5 7t-33.5 -8t-34.5 -24l-15 19q40 42 89 42q20 0 36 -7.5t36 -21.5q18 -12 32.5 -19t31.5 -7t33.5 8t34.5 24l15 -19
q-41 -42 -89 -42z" />
    <glyph glyph-name="uni1EAE" unicode="&#x1eae;" 
d="M473 0l-35 226h-283l-111 -226h-39l344 698h49l112 -698h-37zM370 659h-5l-196 -401h264zM390 769q-30 0 -49.5 9.5t-33 26.5t-23 41.5t-17.5 53.5l22 11l19 -45q17 -38 34.5 -53t49.5 -15q31 0 54.5 14.5t52.5 53.5l34 45l23 -11q-18 -30 -35.5 -54t-36.5 -41.5
t-41.5 -26.5t-52.5 -9zM396 877l-22 15l131 156l30 -19z" />
    <glyph glyph-name="uni1EB6" unicode="&#x1eb6;" 
d="M473 0l-35 226h-283l-111 -226h-39l344 698h49l112 -698h-37zM370 659h-5l-196 -401h264zM391 777q-30 0 -49.5 10t-33 27.5t-23 42t-17.5 54.5l23 11l18 -46q17 -38 34 -53.5t49 -15.5q31 0 53.5 15t52.5 54l33 46l24 -11q-18 -30 -35 -54.5t-35.5 -42t-41 -27.5
t-52.5 -10zM237 -145q-18 0 -25 7t-7 15q0 4 0.5 8t1.5 9q5 27 37 27q18 0 25 -7t7 -15q0 -4 -0.5 -8t-1.5 -9q-5 -27 -37 -27z" />
    <glyph glyph-name="uni1EB0" unicode="&#x1eb0;" 
d="M473 0l-35 226h-283l-111 -226h-39l344 698h49l112 -698h-37zM370 659h-5l-196 -401h264zM390 769q-30 0 -49.5 9.5t-33 26.5t-23 41.5t-17.5 53.5l22 11l19 -45q17 -38 34.5 -53t49.5 -15q31 0 54.5 14.5t52.5 53.5l34 45l23 -11q-18 -30 -35.5 -54t-36.5 -41.5
t-41.5 -26.5t-52.5 -9zM319 1033l33 15l77 -160l-24 -11z" />
    <glyph glyph-name="uni1EB2" unicode="&#x1eb2;" 
d="M473 0l-35 226h-283l-111 -226h-39l344 698h49l112 -698h-37zM370 659h-5l-196 -401h264zM348 1035h123q19 0 26.5 -6.5t7.5 -17.5q0 -9 -6.5 -20.5t-29.5 -38.5l-64 -78l-22 14l92 119h-131zM390 769q-30 0 -49.5 9.5t-33 26.5t-23 41.5t-17.5 53.5l22 11l19 -45
q17 -38 34.5 -53t49.5 -15q31 0 54.5 14.5t52.5 53.5l34 45l23 -11q-18 -30 -35.5 -54t-36.5 -41.5t-41.5 -26.5t-52.5 -9z" />
    <glyph glyph-name="uni1EB4" unicode="&#x1eb4;" 
d="M473 0l-35 226h-283l-111 -226h-39l344 698h49l112 -698h-37zM370 659h-5l-196 -401h264zM483 943q-20 0 -36.5 7.5t-36.5 21.5q-18 12 -32.5 18.5t-30.5 6.5q-18 0 -34 -8t-35 -24l-15 19q40 41 88 41q20 0 36.5 -7.5t36.5 -21.5q18 -12 32.5 -18.5t30.5 -6.5q18 0 34 8
t35 24l15 -19q-40 -41 -88 -41zM390 769q-30 0 -49.5 9.5t-33 26.5t-23 41.5t-17.5 53.5l22 11l19 -45q17 -38 34.5 -53t49.5 -15q31 0 54.5 14.5t52.5 53.5l34 45l23 -11q-18 -30 -35.5 -54t-36.5 -41.5t-41.5 -26.5t-52.5 -9z" />
    <glyph glyph-name="uni1EA4" unicode="&#x1ea4;" 
d="M473 0l-35 226h-283l-111 -226h-39l344 698h49l112 -698h-37zM370 659h-5l-196 -401h264zM530 877l-21 15l131 156l29 -19zM433 917l101 -137l-22 -14l-102 125l-146 -125l-19 17l146 134h42z" />
    <glyph glyph-name="uni1EAC" unicode="&#x1eac;" 
d="M473 0l-35 226h-283l-111 -226h-39l344 698h49l112 -698h-37zM370 659h-5l-196 -401h264zM435 926l101 -137l-22 -14l-102 124l-146 -124l-19 17l146 134h42zM237 -145q-18 0 -25 7t-7 15q0 4 0.5 8t1.5 9q5 27 37 27q18 0 25 -7t7 -15q0 -4 -0.5 -8t-1.5 -9
q-5 -27 -37 -27z" />
    <glyph glyph-name="uni1EA6" unicode="&#x1ea6;" 
d="M473 0l-35 226h-283l-111 -226h-39l344 698h49l112 -698h-37zM370 659h-5l-196 -401h264zM198 1035l32 15l77 -160l-23 -11zM433 917l101 -137l-22 -14l-102 125l-146 -125l-19 17l146 134h42z" />
    <glyph glyph-name="uni1EA8" unicode="&#x1ea8;" 
d="M473 0l-35 226h-283l-111 -226h-39l344 698h49l112 -698h-37zM370 659h-5l-196 -401h264zM474 1036h125q19 0 27 -6.5t8 -17.5q0 -9 -7 -20t-30 -39l-64 -78l-22 14l92 119h-134zM433 917l102 -137l-23 -14l-102 125l-145 -125l-20 17l146 134h42z" />
    <glyph glyph-name="uni1EAA" unicode="&#x1eaa;" 
d="M473 0l-35 226h-283l-111 -226h-39l344 698h49l112 -698h-37zM370 659h-5l-196 -401h264zM360 1035q20 0 36.5 -7.5t36.5 -21.5q18 -12 32.5 -18.5t30.5 -6.5q18 0 34 8t35 24l15 -19q-40 -41 -88 -41q-20 0 -36.5 7.5t-36.5 21.5q-18 12 -32.5 18.5t-30.5 6.5
q-18 0 -34 -8t-35 -24l-15 19q40 41 88 41zM433 915l102 -135l-23 -14l-102 123l-145 -123l-19 18l145 131h42z" />
    <glyph glyph-name="AE" unicode="&#xc6;" 
d="M313 226h-180l-108 -226h-38l334 698h298l-5 -32h-193l-49 -296h180l-6 -32h-180l-50 -306h193l-5 -32h-229zM342 669l-195 -412h171l68 412h-44z" />
    <glyph glyph-name="AEacute" unicode="&#x1fc;" 
d="M313 226h-180l-108 -226h-38l334 698h298l-5 -32h-193l-49 -296h180l-6 -32h-180l-50 -306h193l-5 -32h-229zM342 669l-195 -412h171l68 412h-44zM410 764l-22 15l131 156l30 -19z" />
    <glyph glyph-name="Cacute" unicode="&#x106;" 
d="M282 -12q-91 0 -143 57.5t-52 178.5q0 84 16.5 170.5t52.5 156.5t92 114.5t135 44.5q40 0 70 -10.5t51.5 -30t35.5 -46t23 -58.5l-33 -10q-8 28 -19.5 50.5t-29 38.5t-42 25t-58.5 9q-90 0 -153 -74t-86 -211l-11 -68q-5 -28 -6.5 -54.5t-1.5 -51.5q0 -98 41 -148.5
t120 -50.5q65 0 109.5 35.5t82.5 106.5l30 -15q-22 -41 -45 -70.5t-50 -49.5t-58.5 -29.5t-70.5 -9.5zM389 764l-22 15l131 156l30 -19z" />
    <glyph glyph-name="Ccaron" unicode="&#x10c;" 
d="M282 -12q-91 0 -143 57.5t-52 178.5q0 84 16.5 170.5t52.5 156.5t92 114.5t135 44.5q40 0 70 -10.5t51.5 -30t35.5 -46t23 -58.5l-33 -10q-8 28 -19.5 50.5t-29 38.5t-42 25t-58.5 9q-90 0 -153 -74t-86 -211l-11 -68q-5 -28 -6.5 -54.5t-1.5 -51.5q0 -98 41 -148.5
t120 -50.5q65 0 109.5 35.5t82.5 106.5l30 -15q-22 -41 -45 -70.5t-50 -49.5t-58.5 -29.5t-70.5 -9.5zM382 780l-102 137l22 14l102 -125l146 125l19 -17l-146 -134h-41z" />
    <glyph glyph-name="Ccedilla" unicode="&#xc7;" 
d="M381 678q-90 0 -153 -74t-86 -211l-11 -68q-5 -28 -6.5 -54.5t-1.5 -51.5q0 -98 41 -148.5t120 -50.5q65 0 109.5 35.5t82.5 106.5l30 -15q-43 -80 -93.5 -118.5t-123.5 -40.5l-24 -58l2 -2q8 2 16 2.5t14 0.5q28 0 43.5 -14.5t15.5 -40.5q0 -35 -26.5 -57t-70.5 -22
q-31 0 -51.5 10t-29.5 24l20 19q10 -12 25 -19.5t36 -7.5q30 0 48 14.5t18 37.5q0 16 -11.5 27t-43.5 13l-36 3l29 70q-81 6 -128.5 63.5t-47.5 172.5q0 84 16.5 170t52.5 156.5t92 115t135 44.5q40 0 70 -10.5t51.5 -30t35.5 -46t23 -58.5l-33 -10q-8 28 -19.5 50.5
t-29 38.5t-42 25t-58.5 9z" />
    <glyph glyph-name="Ccircumflex" unicode="&#x108;" 
d="M282 -12q-91 0 -143 57.5t-52 178.5q0 84 16.5 170.5t52.5 156.5t92 114.5t135 44.5q40 0 70 -10.5t51.5 -30t35.5 -46t23 -58.5l-33 -10q-8 28 -19.5 50.5t-29 38.5t-42 25t-58.5 9q-90 0 -153 -74t-86 -211l-11 -68q-5 -28 -6.5 -54.5t-1.5 -51.5q0 -98 41 -148.5
t120 -50.5q65 0 109.5 35.5t82.5 106.5l30 -15q-22 -41 -45 -70.5t-50 -49.5t-58.5 -29.5t-70.5 -9.5zM448 926l101 -137l-22 -14l-102 124l-146 -124l-19 17l146 134h42z" />
    <glyph glyph-name="Cdotaccent" unicode="&#x10a;" 
d="M282 -12q-91 0 -143 57.5t-52 178.5q0 84 16.5 170.5t52.5 156.5t92 114.5t135 44.5q40 0 70 -10.5t51.5 -30t35.5 -46t23 -58.5l-33 -10q-8 28 -19.5 50.5t-29 38.5t-42 25t-58.5 9q-90 0 -153 -74t-86 -211l-11 -68q-5 -28 -6.5 -54.5t-1.5 -51.5q0 -98 41 -148.5
t120 -50.5q65 0 109.5 35.5t82.5 106.5l30 -15q-22 -41 -45 -70.5t-50 -49.5t-58.5 -29.5t-70.5 -9.5zM410 810q-20 0 -27 7t-7 16q0 6 3 18q3 13 12 20.5t26 7.5q20 0 27 -7t7 -16q0 -6 -3 -18q-3 -13 -12 -20.5t-26 -7.5z" />
    <glyph glyph-name="Dcaron" unicode="&#x10e;" 
d="M179 698h164q48 0 87 -15t67 -44t43 -71.5t15 -97.5q0 -98 -17.5 -183.5t-53.5 -149.5t-92.5 -100.5t-134.5 -36.5h-194zM259 32q94 0 156.5 66.5t84.5 197.5l12 68q5 27 6.5 53.5t1.5 51.5q0 96 -47 146.5t-132 50.5h-131l-106 -634h155zM330 780l-102 137l22 14
l102 -125l146 125l19 -17l-146 -134h-41z" />
    <glyph glyph-name="Dcroat" unicode="&#x110;" 
d="M122 354h-77l4 29h78l52 315h164q48 0 87 -15t67 -44t43 -71.5t15 -97.5q0 -98 -17.5 -183.5t-53.5 -149.5t-92.5 -100.5t-134.5 -36.5h-194zM259 32q94 0 156.5 66.5t84.5 197.5l12 68q5 27 6.5 53.5t1.5 51.5q0 96 -47 146.5t-132 50.5h-131l-47 -283h182l-4 -29h-183
l-54 -322h155z" />
    <glyph glyph-name="Eth" unicode="&#xd0;" 
d="M122 354h-77l4 29h78l52 315h164q48 0 87 -15t67 -44t43 -71.5t15 -97.5q0 -98 -17.5 -183.5t-53.5 -149.5t-92.5 -100.5t-134.5 -36.5h-194zM259 32q94 0 156.5 66.5t84.5 197.5l12 68q5 27 6.5 53.5t1.5 51.5q0 96 -47 146.5t-132 50.5h-131l-47 -283h182l-4 -29h-183
l-54 -322h155z" />
    <glyph glyph-name="Eacute" unicode="&#xc9;" 
d="M61 0l116 698h411l-5 -32h-375l-49 -296h361l-5 -32h-362l-51 -306h375l-5 -32h-411zM386 764l-22 15l131 156l30 -19z" />
    <glyph glyph-name="Ebreve" unicode="&#x114;" 
d="M61 0l116 698h411l-5 -32h-375l-49 -296h361l-5 -32h-362l-51 -306h375l-5 -32h-411zM401 777q-30 0 -49.5 10t-33 27.5t-23 42t-17.5 54.5l23 11l18 -46q17 -38 34 -53.5t49 -15.5q31 0 53.5 15t52.5 54l33 46l24 -11q-18 -30 -35 -54.5t-35.5 -42t-41 -27.5t-52.5 -10z
" />
    <glyph glyph-name="Ecaron" unicode="&#x11a;" 
d="M61 0l116 698h411l-5 -32h-375l-49 -296h361l-5 -32h-362l-51 -306h375l-5 -32h-411zM379 780l-102 137l22 14l102 -125l146 125l19 -17l-146 -134h-41z" />
    <glyph glyph-name="Ecircumflex" unicode="&#xca;" 
d="M61 0l116 698h411l-5 -32h-375l-49 -296h361l-5 -32h-362l-51 -306h375l-5 -32h-411zM445 926l101 -137l-22 -14l-102 124l-146 -124l-19 17l146 134h42z" />
    <glyph glyph-name="Edieresis" unicode="&#xcb;" 
d="M61 0l116 698h411l-5 -32h-375l-49 -296h361l-5 -32h-362l-51 -306h375l-5 -32h-411zM316 812q-18 0 -25 7t-7 15q0 4 0.5 8t1.5 9q5 27 37 27q18 0 25 -7t7 -15q0 -4 -0.5 -8t-1.5 -9q-5 -27 -37 -27zM498 812q-18 0 -25 7t-7 15q0 4 0.5 8t1.5 9q5 27 37 27q18 0 25 -7
t7 -15q0 -4 -0.5 -8t-1.5 -9q-5 -27 -37 -27z" />
    <glyph glyph-name="Edotaccent" unicode="&#x116;" 
d="M61 0l116 698h411l-5 -32h-375l-49 -296h361l-5 -32h-362l-51 -306h375l-5 -32h-411zM407 810q-20 0 -27 7t-7 16q0 6 3 18q3 13 12 20.5t26 7.5q20 0 27 -7t7 -16q0 -6 -3 -18q-3 -13 -12 -20.5t-26 -7.5z" />
    <glyph glyph-name="uni1EB8" unicode="&#x1eb8;" 
d="M61 0l116 698h411l-5 -32h-375l-49 -296h361l-5 -32h-362l-51 -306h375l-5 -32h-411zM249 -145q-18 0 -25 7t-7 15q0 4 0.5 8t1.5 9q5 27 37 27q18 0 25 -7t7 -15q0 -4 -0.5 -8t-1.5 -9q-5 -27 -37 -27z" />
    <glyph glyph-name="Egrave" unicode="&#xc8;" 
d="M61 0l116 698h411l-5 -32h-375l-49 -296h361l-5 -32h-362l-51 -306h375l-5 -32h-411zM323 920l33 15l77 -159l-24 -12z" />
    <glyph glyph-name="uni1EBA" unicode="&#x1eba;" 
d="M61 0l116 698h411l-5 -32h-375l-49 -296h361l-5 -32h-362l-51 -306h375l-5 -32h-411zM349 921h126q18 0 26 -6.5t8 -17.5q0 -10 -7.5 -22.5t-32.5 -41.5l-61 -72l-21 13l91 119h-134z" />
    <glyph glyph-name="Emacron" unicode="&#x112;" 
d="M61 0l116 698h411l-5 -32h-375l-49 -296h361l-5 -32h-362l-51 -306h375l-5 -32h-411zM282 861h262l-5 -30h-262z" />
    <glyph glyph-name="Eogonek" unicode="&#x118;" 
d="M177 698h411l-5 -32h-375l-49 -296h361l-5 -32h-362l-51 -306h375l-5 -32q-38 -23 -64.5 -40.5t-43 -32.5t-23.5 -29.5t-7 -30.5q0 -23 14 -33.5t34 -10.5q22 0 37 7.5t25 18.5l19 -19q-11 -14 -32 -23.5t-50 -9.5q-32 0 -55.5 16t-23.5 51q0 15 6 31t21.5 32.5
t41.5 33.5t65 36l-1 3h-374z" />
    <glyph glyph-name="uni1EBC" unicode="&#x1ebc;" 
d="M61 0l116 698h411l-5 -32h-375l-49 -296h361l-5 -32h-362l-51 -306h375l-5 -32h-411zM475 802q-20 0 -36 7.5t-36 21.5q-18 12 -32.5 19t-31.5 7t-33.5 -8t-34.5 -24l-15 19q40 42 89 42q20 0 36 -7.5t36 -21.5q18 -12 32.5 -19t31.5 -7t33.5 8t34.5 24l15 -19
q-41 -42 -89 -42z" />
    <glyph glyph-name="uni1EBE" unicode="&#x1ebe;" 
d="M61 0l116 698h411l-5 -32h-375l-49 -296h361l-5 -32h-362l-51 -306h375l-5 -32h-411zM540 877l-21 15l131 156l29 -19zM443 917l101 -137l-22 -14l-102 125l-146 -125l-19 17l146 134h42z" />
    <glyph glyph-name="uni1EC6" unicode="&#x1ec6;" 
d="M61 0l116 698h411l-5 -32h-375l-49 -296h361l-5 -32h-362l-51 -306h375l-5 -32h-411zM445 926l101 -137l-22 -14l-102 124l-146 -124l-19 17l146 134h42zM249 -145q-18 0 -25 7t-7 15q0 4 0.5 8t1.5 9q5 27 37 27q18 0 25 -7t7 -15q0 -4 -0.5 -8t-1.5 -9q-5 -27 -37 -27z
" />
    <glyph glyph-name="uni1EC0" unicode="&#x1ec0;" 
d="M61 0l116 698h411l-5 -32h-375l-49 -296h361l-5 -32h-362l-51 -306h375l-5 -32h-411zM208 1035l32 15l77 -160l-23 -11zM443 917l101 -137l-22 -14l-102 125l-146 -125l-19 17l146 134h42z" />
    <glyph glyph-name="uni1EC2" unicode="&#x1ec2;" 
d="M61 0l116 698h411l-5 -32h-375l-49 -296h361l-5 -32h-362l-51 -306h375l-5 -32h-411zM484 1036h125q19 0 27 -6.5t8 -17.5q0 -9 -7 -20t-30 -39l-64 -78l-22 14l92 119h-134zM443 917l102 -137l-23 -14l-102 125l-145 -125l-20 17l146 134h42z" />
    <glyph glyph-name="uni1EC4" unicode="&#x1ec4;" 
d="M61 0l116 698h411l-5 -32h-375l-49 -296h361l-5 -32h-362l-51 -306h375l-5 -32h-411zM370 1035q20 0 36.5 -7.5t36.5 -21.5q18 -12 32.5 -18.5t30.5 -6.5q18 0 34 8t35 24l15 -19q-40 -41 -88 -41q-20 0 -36.5 7.5t-36.5 21.5q-18 12 -32.5 18.5t-30.5 6.5q-18 0 -34 -8
t-35 -24l-15 19q40 41 88 41zM443 915l102 -135l-23 -14l-102 123l-145 -123l-19 18l145 131h42z" />
    <glyph glyph-name="uni018F" unicode="&#x18f;" 
d="M261 -12q-94 0 -141 56.5t-47 174.5q0 29 1.5 60.5t5.5 58.5l1 9h426l5 28q5 29 6.5 56t1.5 51q0 97 -37 146.5t-120 49.5q-70 0 -121.5 -40t-85.5 -114l-30 15q35 76 94 123.5t144 47.5q95 0 143 -57t48 -178q0 -84 -15.5 -170.5t-50.5 -157t-91 -115t-137 -44.5z
M263 20q93 0 153.5 74t83.5 210l2 12h-388q-4 -27 -5 -52t-1 -47q0 -97 35.5 -147t119.5 -50z" />
    <glyph glyph-name="Gbreve" unicode="&#x11e;" 
d="M455 103h-3q-14 -24 -30.5 -45t-37.5 -36.5t-47.5 -24.5t-61.5 -9q-95 0 -143 57t-48 179q0 84 15.5 170t50 156.5t90.5 115t137 44.5q82 0 125 -40.5t60 -104.5l-32 -10q-16 56 -51.5 89.5t-103.5 33.5q-94 0 -154 -74.5t-83 -210.5l-11 -68q-5 -29 -6.5 -55.5
t-1.5 -49.5q0 -99 37.5 -149.5t124.5 -50.5q38 0 70 13.5t56.5 38t41 58t23.5 72.5l15 89h-172l6 31h205l-54 -322h-34zM392 777q-30 0 -49.5 10t-33 27.5t-23 42t-17.5 54.5l23 11l18 -46q17 -38 34 -53.5t49 -15.5q31 0 53.5 15t52.5 54l33 46l24 -11q-18 -30 -35 -54.5
t-35.5 -42t-41 -27.5t-52.5 -10z" />
    <glyph glyph-name="Gcircumflex" unicode="&#x11c;" 
d="M455 103h-3q-14 -24 -30.5 -45t-37.5 -36.5t-47.5 -24.5t-61.5 -9q-95 0 -143 57t-48 179q0 84 15.5 170t50 156.5t90.5 115t137 44.5q82 0 125 -40.5t60 -104.5l-32 -10q-16 56 -51.5 89.5t-103.5 33.5q-94 0 -154 -74.5t-83 -210.5l-11 -68q-5 -29 -6.5 -55.5
t-1.5 -49.5q0 -99 37.5 -149.5t124.5 -50.5q38 0 70 13.5t56.5 38t41 58t23.5 72.5l15 89h-172l6 31h205l-54 -322h-34zM436 926l101 -137l-22 -14l-102 124l-146 -124l-19 17l146 134h42z" />
    <glyph glyph-name="Gcommaaccent" unicode="&#x122;" 
d="M455 103h-3q-14 -24 -30.5 -45t-37.5 -36.5t-47.5 -24.5t-61.5 -9q-95 0 -143 57t-48 179q0 84 15.5 170t50 156.5t90.5 115t137 44.5q82 0 125 -40.5t60 -104.5l-32 -10q-16 56 -51.5 89.5t-103.5 33.5q-94 0 -154 -74.5t-83 -210.5l-11 -68q-5 -29 -6.5 -55.5
t-1.5 -49.5q0 -99 37.5 -149.5t124.5 -50.5q38 0 70 13.5t56.5 38t41 58t23.5 72.5l15 89h-172l6 31h205l-54 -322h-34zM242 -67h44l-71 -184h-28z" />
    <glyph glyph-name="Gdotaccent" unicode="&#x120;" 
d="M455 103h-3q-14 -24 -30.5 -45t-37.5 -36.5t-47.5 -24.5t-61.5 -9q-95 0 -143 57t-48 179q0 84 15.5 170t50 156.5t90.5 115t137 44.5q82 0 125 -40.5t60 -104.5l-32 -10q-16 56 -51.5 89.5t-103.5 33.5q-94 0 -154 -74.5t-83 -210.5l-11 -68q-5 -29 -6.5 -55.5
t-1.5 -49.5q0 -99 37.5 -149.5t124.5 -50.5q38 0 70 13.5t56.5 38t41 58t23.5 72.5l15 89h-172l6 31h205l-54 -322h-34zM398 810q-20 0 -27 7t-7 16q0 6 3 18q3 13 12 20.5t26 7.5q20 0 27 -7t7 -16q0 -6 -3 -18q-3 -13 -12 -20.5t-26 -7.5z" />
    <glyph glyph-name="Hbar" unicode="&#x126;" 
d="M483 338h-340l-56 -338h-36l89 532h-80l5 30h80l22 136h37l-23 -136h340l22 136h36l-23 -136h81l-5 -30h-81l-88 -532h-36zM489 370l27 162h-340l-27 -162h340z" />
    <glyph glyph-name="Hcircumflex" unicode="&#x124;" 
d="M483 338h-339l-57 -338h-36l116 698h36l-54 -328h339l55 328h36l-116 -698h-36zM435 926l101 -137l-22 -14l-102 124l-146 -124l-19 17l146 134h42z" />
    <glyph glyph-name="Iacute" unicode="&#xcd;" 
d="M47 0l5 30h192l106 638h-192l5 30h420l-5 -30h-192l-106 -638h192l-5 -30h-420zM376 764l-22 15l131 156l30 -19z" />
    <glyph glyph-name="Ibreve" unicode="&#x12c;" 
d="M47 0l5 30h192l106 638h-192l5 30h420l-5 -30h-192l-106 -638h192l-5 -30h-420zM391 777q-30 0 -49.5 10t-33 27.5t-23 42t-17.5 54.5l23 11l18 -46q17 -38 34 -53.5t49 -15.5q31 0 53.5 15t52.5 54l33 46l24 -11q-18 -30 -35 -54.5t-35.5 -42t-41 -27.5t-52.5 -10z" />
    <glyph glyph-name="Icircumflex" unicode="&#xce;" 
d="M47 0l5 30h192l106 638h-192l5 30h420l-5 -30h-192l-106 -638h192l-5 -30h-420zM435 926l101 -137l-22 -14l-102 124l-146 -124l-19 17l146 134h42z" />
    <glyph glyph-name="Idieresis" unicode="&#xcf;" 
d="M47 0l5 30h192l106 638h-192l5 30h420l-5 -30h-192l-106 -638h192l-5 -30h-420zM306 812q-18 0 -25 7t-7 15q0 4 0.5 8t1.5 9q5 27 37 27q18 0 25 -7t7 -15q0 -4 -0.5 -8t-1.5 -9q-5 -27 -37 -27zM488 812q-18 0 -25 7t-7 15q0 4 0.5 8t1.5 9q5 27 37 27q18 0 25 -7
t7 -15q0 -4 -0.5 -8t-1.5 -9q-5 -27 -37 -27z" />
    <glyph glyph-name="Idotaccent" unicode="&#x130;" 
d="M47 0l5 30h192l106 638h-192l5 30h420l-5 -30h-192l-106 -638h192l-5 -30h-420zM397 810q-20 0 -27 7t-7 16q0 6 3 18q3 13 12 20.5t26 7.5q20 0 27 -7t7 -16q0 -6 -3 -18q-3 -13 -12 -20.5t-26 -7.5z" />
    <glyph glyph-name="uni1ECA" unicode="&#x1eca;" 
d="M47 0l5 30h192l106 638h-192l5 30h420l-5 -30h-192l-106 -638h192l-5 -30h-420zM236 -145q-18 0 -25 7t-7 15q0 4 0.5 8t1.5 9q5 27 37 27q18 0 25 -7t7 -15q0 -4 -0.5 -8t-1.5 -9q-5 -27 -37 -27z" />
    <glyph glyph-name="Igrave" unicode="&#xcc;" 
d="M47 0l5 30h192l106 638h-192l5 30h420l-5 -30h-192l-106 -638h192l-5 -30h-420zM313 920l33 15l77 -159l-24 -12z" />
    <glyph glyph-name="uni1EC8" unicode="&#x1ec8;" 
d="M47 0l5 30h192l106 638h-192l5 30h420l-5 -30h-192l-106 -638h192l-5 -30h-420zM339 921h126q18 0 26 -6.5t8 -17.5q0 -10 -7.5 -22.5t-32.5 -41.5l-61 -72l-21 13l91 119h-134z" />
    <glyph glyph-name="Imacron" unicode="&#x12a;" 
d="M47 0l5 30h192l106 638h-192l5 30h420l-5 -30h-192l-106 -638h192l-5 -30h-420zM272 861h262l-5 -30h-262z" />
    <glyph glyph-name="Iogonek" unicode="&#x12e;" 
d="M52 30h192l106 638h-192l5 30h420l-5 -30h-192l-106 -638h192l-5 -30q-39 -23 -65.5 -40.5t-43 -32.5t-23.5 -29.5t-7 -30.5q0 -23 14.5 -33.5t34.5 -10.5q21 0 36 7.5t26 18.5l19 -19q-12 -14 -33 -23.5t-49 -9.5q-32 0 -56 16t-24 51q0 15 6.5 31t22 32.5t41.5 33.5
t65 36l-1 3h-383z" />
    <glyph glyph-name="Itilde" unicode="&#x128;" 
d="M47 0l5 30h192l106 638h-192l5 30h420l-5 -30h-192l-106 -638h192l-5 -30h-420zM465 802q-20 0 -36 7.5t-36 21.5q-18 12 -32.5 19t-31.5 7t-33.5 -8t-34.5 -24l-15 19q40 42 89 42q20 0 36 -7.5t36 -21.5q18 -12 32.5 -19t31.5 -7t33.5 8t34.5 24l15 -19
q-41 -42 -89 -42z" />
    <glyph glyph-name="IJ" unicode="&#x132;" 
d="M563 698l-86 -514q-17 -99 -72.5 -147.5t-143.5 -48.5q-79 0 -122.5 38t-51.5 107l35 8q3 -27 12 -49t25.5 -38t41.5 -24.5t61 -8.5q151 0 180 169l84 508h37zM183 698h37l-71 -422h-36z" />
    <glyph glyph-name="IJacute" 
d="M563 698l-86 -514q-17 -99 -72.5 -147.5t-143.5 -48.5q-79 0 -122.5 38t-51.5 107l35 8q3 -27 12 -49t25.5 -38t41.5 -24.5t61 -8.5q151 0 180 169l84 508h37zM183 698h37l-71 -422h-36zM205 764l-22 15l131 156l30 -19zM547 764l-22 15l131 156l30 -19z" />
    <glyph glyph-name="Jacute" 
d="M539 698l-86 -515q-16 -96 -73 -145.5t-142 -49.5q-77 0 -120.5 37.5t-48.5 101.5l35 7q5 -56 39 -84.5t94 -28.5q75 0 121.5 44t60.5 128l79 473h-276l5 32h312zM388 764l-22 15l131 156l30 -19z" />
    <glyph glyph-name="Jcircumflex" unicode="&#x134;" 
d="M539 698l-86 -515q-16 -96 -73 -145.5t-142 -49.5q-77 0 -120.5 37.5t-48.5 101.5l35 7q5 -56 39 -84.5t94 -28.5q75 0 121.5 44t60.5 128l79 473h-276l5 32h312zM447 926l101 -137l-22 -14l-102 124l-146 -124l-19 17l146 134h42z" />
    <glyph glyph-name="Kcommaaccent" unicode="&#x136;" 
d="M285 377l-150 -142l-39 -235h-36l117 698h36l-69 -410h3l154 148l277 262h46l-311 -296l196 -402h-39zM235 -67h44l-71 -184h-28z" />
    <glyph glyph-name="Lacute" unicode="&#x139;" 
d="M97 0l116 698h36l-111 -666h353l-5 -32h-389zM234 764l-22 15l131 156l30 -19z" />
    <glyph glyph-name="Lcaron" unicode="&#x13d;" 
d="M97 0l116 698h36l-111 -666h353l-5 -32h-389zM355 561h-27l43 179h44z" />
    <glyph glyph-name="Lcommaaccent" unicode="&#x13b;" 
d="M97 0l116 698h36l-111 -666h353l-5 -32h-389zM261 -67h44l-71 -184h-28z" />
    <glyph glyph-name="Ldot" unicode="&#x13f;" 
d="M97 0l116 698h36l-111 -666h353l-5 -32h-389zM435 292q-20 0 -27 7t-7 16q0 6 3 18q3 13 12 20.5t26 7.5q20 0 27 -7t7 -16q0 -6 -3 -18q-3 -13 -12 -20.5t-26 -7.5z" />
    <glyph glyph-name="Lslash" unicode="&#x141;" 
d="M486 0h-389l49 295l-94 -29l5 32l94 28l62 372h36l-60 -362l240 73l-5 -32l-240 -73l-46 -272h353z" />
    <glyph glyph-name="Nacute" unicode="&#x143;" 
d="M198 655h-4l-109 -655h-34l116 698h54l211 -655h4l109 655h34l-116 -698h-54zM375 764l-22 15l131 156l30 -19z" />
    <glyph glyph-name="Ncaron" unicode="&#x147;" 
d="M198 655h-4l-109 -655h-34l116 698h54l211 -655h4l109 655h34l-116 -698h-54zM368 780l-102 137l22 14l102 -125l146 125l19 -17l-146 -134h-41z" />
    <glyph glyph-name="Ncommaaccent" unicode="&#x145;" 
d="M198 655h-4l-109 -655h-34l116 698h54l211 -655h4l109 655h34l-116 -698h-54zM224 -67h44l-71 -184h-28z" />
    <glyph glyph-name="Ntilde" unicode="&#xd1;" 
d="M198 655h-4l-109 -655h-34l116 698h54l211 -655h4l109 655h34l-116 -698h-54zM464 802q-20 0 -36 7.5t-36 21.5q-18 12 -32.5 19t-31.5 7t-33.5 -8t-34.5 -24l-15 19q40 42 89 42q20 0 36 -7.5t36 -21.5q18 -12 32.5 -19t31.5 -7t33.5 8t34.5 24l15 -19q-41 -42 -89 -42z
" />
    <glyph glyph-name="Eng" unicode="&#x14a;" 
d="M51 0l116 698h54l211 -655h4l109 655h34l-143 -859q-4 -23 -13 -37t-29 -14q-14 0 -26.5 9.5t-29.5 25.5l-124 111l23 23l153 -137l8 2l31 178h-20l-210 655h-4l-110 -655h-34z" />
    <glyph glyph-name="Oacute" unicode="&#xd3;" 
d="M262 -12q-94 0 -141.5 56.5t-47.5 175.5q0 57 7 115t21.5 112.5t37.5 102.5t55.5 83.5t75 56t96.5 20.5q94 0 141.5 -56.5t47.5 -175.5q0 -57 -7 -115t-21.5 -112.5t-37.5 -102.5t-55.5 -83.5t-75.5 -56t-96 -20.5zM264 20q92 0 152.5 74t83.5 210l12 72q5 29 6.5 55.5
t1.5 49.5q0 97 -36.5 147t-119.5 50q-92 0 -152.5 -74t-83.5 -210l-12 -72q-5 -29 -6.5 -55.5t-1.5 -49.5q0 -97 36.5 -147t119.5 -50zM370 764l-22 15l131 156l30 -19z" />
    <glyph glyph-name="Obreve" unicode="&#x14e;" 
d="M262 -12q-94 0 -141.5 56.5t-47.5 175.5q0 57 7 115t21.5 112.5t37.5 102.5t55.5 83.5t75 56t96.5 20.5q94 0 141.5 -56.5t47.5 -175.5q0 -57 -7 -115t-21.5 -112.5t-37.5 -102.5t-55.5 -83.5t-75.5 -56t-96 -20.5zM264 20q92 0 152.5 74t83.5 210l12 72q5 29 6.5 55.5
t1.5 49.5q0 97 -36.5 147t-119.5 50q-92 0 -152.5 -74t-83.5 -210l-12 -72q-5 -29 -6.5 -55.5t-1.5 -49.5q0 -97 36.5 -147t119.5 -50zM385 777q-30 0 -49.5 10t-33 27.5t-23 42t-17.5 54.5l23 11l18 -46q17 -38 34 -53.5t49 -15.5q31 0 53.5 15t52.5 54l33 46l24 -11
q-18 -30 -35 -54.5t-35.5 -42t-41 -27.5t-52.5 -10z" />
    <glyph glyph-name="Ocircumflex" unicode="&#xd4;" 
d="M262 -12q-94 0 -141.5 56.5t-47.5 175.5q0 57 7 115t21.5 112.5t37.5 102.5t55.5 83.5t75 56t96.5 20.5q94 0 141.5 -56.5t47.5 -175.5q0 -57 -7 -115t-21.5 -112.5t-37.5 -102.5t-55.5 -83.5t-75.5 -56t-96 -20.5zM264 20q92 0 152.5 74t83.5 210l12 72q5 29 6.5 55.5
t1.5 49.5q0 97 -36.5 147t-119.5 50q-92 0 -152.5 -74t-83.5 -210l-12 -72q-5 -29 -6.5 -55.5t-1.5 -49.5q0 -97 36.5 -147t119.5 -50zM429 926l101 -137l-22 -14l-102 124l-146 -124l-19 17l146 134h42z" />
    <glyph glyph-name="Odieresis" unicode="&#xd6;" 
d="M262 -12q-94 0 -141.5 56.5t-47.5 175.5q0 57 7 115t21.5 112.5t37.5 102.5t55.5 83.5t75 56t96.5 20.5q94 0 141.5 -56.5t47.5 -175.5q0 -57 -7 -115t-21.5 -112.5t-37.5 -102.5t-55.5 -83.5t-75.5 -56t-96 -20.5zM264 20q92 0 152.5 74t83.5 210l12 72q5 29 6.5 55.5
t1.5 49.5q0 97 -36.5 147t-119.5 50q-92 0 -152.5 -74t-83.5 -210l-12 -72q-5 -29 -6.5 -55.5t-1.5 -49.5q0 -97 36.5 -147t119.5 -50zM300 812q-18 0 -25 7t-7 15q0 4 0.5 8t1.5 9q5 27 37 27q18 0 25 -7t7 -15q0 -4 -0.5 -8t-1.5 -9q-5 -27 -37 -27zM482 812q-18 0 -25 7
t-7 15q0 4 0.5 8t1.5 9q5 27 37 27q18 0 25 -7t7 -15q0 -4 -0.5 -8t-1.5 -9q-5 -27 -37 -27z" />
    <glyph glyph-name="uni1ECC" unicode="&#x1ecc;" 
d="M262 -12q-94 0 -141.5 56.5t-47.5 175.5q0 57 7 115t21.5 112.5t37.5 102.5t55.5 83.5t75 56t96.5 20.5q94 0 141.5 -56.5t47.5 -175.5q0 -57 -7 -115t-21.5 -112.5t-37.5 -102.5t-55.5 -83.5t-75.5 -56t-96 -20.5zM264 20q92 0 152.5 74t83.5 210l12 72q5 29 6.5 55.5
t1.5 49.5q0 97 -36.5 147t-119.5 50q-92 0 -152.5 -74t-83.5 -210l-12 -72q-5 -29 -6.5 -55.5t-1.5 -49.5q0 -97 36.5 -147t119.5 -50zM240 -145q-18 0 -25 7t-7 15q0 4 0.5 8t1.5 9q5 27 37 27q18 0 25 -7t7 -15q0 -4 -0.5 -8t-1.5 -9q-5 -27 -37 -27z" />
    <glyph glyph-name="Ograve" unicode="&#xd2;" 
d="M262 -12q-94 0 -141.5 56.5t-47.5 175.5q0 57 7 115t21.5 112.5t37.5 102.5t55.5 83.5t75 56t96.5 20.5q94 0 141.5 -56.5t47.5 -175.5q0 -57 -7 -115t-21.5 -112.5t-37.5 -102.5t-55.5 -83.5t-75.5 -56t-96 -20.5zM264 20q92 0 152.5 74t83.5 210l12 72q5 29 6.5 55.5
t1.5 49.5q0 97 -36.5 147t-119.5 50q-92 0 -152.5 -74t-83.5 -210l-12 -72q-5 -29 -6.5 -55.5t-1.5 -49.5q0 -97 36.5 -147t119.5 -50zM307 920l33 15l77 -159l-24 -12z" />
    <glyph glyph-name="uni1ECE" unicode="&#x1ece;" 
d="M262 -12q-94 0 -141.5 56.5t-47.5 175.5q0 57 7 115t21.5 112.5t37.5 102.5t55.5 83.5t75 56t96.5 20.5q94 0 141.5 -56.5t47.5 -175.5q0 -57 -7 -115t-21.5 -112.5t-37.5 -102.5t-55.5 -83.5t-75.5 -56t-96 -20.5zM264 20q92 0 152.5 74t83.5 210l12 72q5 29 6.5 55.5
t1.5 49.5q0 97 -36.5 147t-119.5 50q-92 0 -152.5 -74t-83.5 -210l-12 -72q-5 -29 -6.5 -55.5t-1.5 -49.5q0 -97 36.5 -147t119.5 -50zM333 921h126q18 0 26 -6.5t8 -17.5q0 -10 -7.5 -22.5t-32.5 -41.5l-61 -72l-21 13l91 119h-134z" />
    <glyph glyph-name="Ohungarumlaut" unicode="&#x150;" 
d="M262 -12q-94 0 -141.5 56.5t-47.5 175.5q0 57 7 115t21.5 112.5t37.5 102.5t55.5 83.5t75 56t96.5 20.5q94 0 141.5 -56.5t47.5 -175.5q0 -57 -7 -115t-21.5 -112.5t-37.5 -102.5t-55.5 -83.5t-75.5 -56t-96 -20.5zM264 20q92 0 152.5 74t83.5 210l12 72q5 29 6.5 55.5
t1.5 49.5q0 97 -36.5 147t-119.5 50q-92 0 -152.5 -74t-83.5 -210l-12 -72q-5 -29 -6.5 -55.5t-1.5 -49.5q0 -97 36.5 -147t119.5 -50zM303 764l-21 15l131 156l29 -19zM464 764l-21 15l130 156l29 -19z" />
    <glyph glyph-name="Omacron" unicode="&#x14c;" 
d="M262 -12q-94 0 -141.5 56.5t-47.5 175.5q0 57 7 115t21.5 112.5t37.5 102.5t55.5 83.5t75 56t96.5 20.5q94 0 141.5 -56.5t47.5 -175.5q0 -57 -7 -115t-21.5 -112.5t-37.5 -102.5t-55.5 -83.5t-75.5 -56t-96 -20.5zM264 20q92 0 152.5 74t83.5 210l12 72q5 29 6.5 55.5
t1.5 49.5q0 97 -36.5 147t-119.5 50q-92 0 -152.5 -74t-83.5 -210l-12 -72q-5 -29 -6.5 -55.5t-1.5 -49.5q0 -97 36.5 -147t119.5 -50zM266 861h262l-5 -30h-262z" />
    <glyph glyph-name="Oslash" unicode="&#xd8;" 
d="M262 -12q-101 0 -147 65l-56 -75l-25 17l63 87q-24 52 -24 138q0 57 7 115t21.5 112.5t37.5 102.5t55.5 83.5t75 56t96.5 20.5q100 0 147 -65l55 75l26 -17l-64 -87q25 -55 25 -138q0 -57 -7 -115t-21.5 -112.5t-37.5 -102.5t-55.5 -83.5t-75.5 -56t-96 -20.5zM116 322
q-5 -29 -6.5 -55.5t-1.5 -49.5q0 -31 3.5 -56.5t11.5 -45.5l368 501q-36 62 -127 62q-92 0 -152.5 -74t-83.5 -210zM263 20q92 0 153 74t84 210l12 72q5 29 6.5 55.5t1.5 49.5q0 61 -15 102l-369 -501q38 -62 127 -62z" />
    <glyph glyph-name="Oslashacute" unicode="&#x1fe;" 
d="M262 -12q-101 0 -147 65l-56 -75l-25 17l63 87q-24 52 -24 138q0 57 7 115t21.5 112.5t37.5 102.5t55.5 83.5t75 56t96.5 20.5q100 0 147 -65l55 75l26 -17l-64 -87q25 -55 25 -138q0 -57 -7 -115t-21.5 -112.5t-37.5 -102.5t-55.5 -83.5t-75.5 -56t-96 -20.5zM116 322
q-5 -29 -6.5 -55.5t-1.5 -49.5q0 -31 3.5 -56.5t11.5 -45.5l368 501q-36 62 -127 62q-92 0 -152.5 -74t-83.5 -210zM263 20q92 0 153 74t84 210l12 72q5 29 6.5 55.5t1.5 49.5q0 61 -15 102l-369 -501q38 -62 127 -62zM370 764l-22 15l131 156l30 -19z" />
    <glyph glyph-name="Otilde" unicode="&#xd5;" 
d="M262 -12q-94 0 -141.5 56.5t-47.5 175.5q0 57 7 115t21.5 112.5t37.5 102.5t55.5 83.5t75 56t96.5 20.5q94 0 141.5 -56.5t47.5 -175.5q0 -57 -7 -115t-21.5 -112.5t-37.5 -102.5t-55.5 -83.5t-75.5 -56t-96 -20.5zM264 20q92 0 152.5 74t83.5 210l12 72q5 29 6.5 55.5
t1.5 49.5q0 97 -36.5 147t-119.5 50q-92 0 -152.5 -74t-83.5 -210l-12 -72q-5 -29 -6.5 -55.5t-1.5 -49.5q0 -97 36.5 -147t119.5 -50zM459 802q-20 0 -36 7.5t-36 21.5q-18 12 -32.5 19t-31.5 7t-33.5 -8t-34.5 -24l-15 19q40 42 89 42q20 0 36 -7.5t36 -21.5
q18 -12 32.5 -19t31.5 -7t33.5 8t34.5 24l15 -19q-41 -42 -89 -42z" />
    <glyph glyph-name="Ohorn" unicode="&#x1a0;" 
d="M584 709q-3 -18 -13 -27.5t-31 -9.5h-56q71 -53 71 -194q0 -57 -7 -115t-21.5 -112.5t-37.5 -102.5t-55.5 -83.5t-75.5 -56t-96 -20.5q-94 0 -141.5 56.5t-47.5 175.5q0 57 7 115t21.5 112.5t37.5 102.5t55.5 83.5t75 56t96.5 20.5q42 0 77 -12h107l18 111h32zM263 20
q92 0 153 74t84 210l12 72q5 29 6.5 55.5t1.5 49.5q0 97 -36.5 147t-119.5 50q-92 0 -152.5 -74t-83.5 -210l-12 -72q-5 -29 -6.5 -55.5t-1.5 -49.5q0 -97 36.5 -147t118.5 -50z" />
    <glyph glyph-name="uni1EDA" unicode="&#x1eda;" 
d="M584 709q-3 -18 -13 -27.5t-31 -9.5h-56q71 -53 71 -194q0 -57 -7 -115t-21.5 -112.5t-37.5 -102.5t-55.5 -83.5t-75.5 -56t-96 -20.5q-94 0 -141.5 56.5t-47.5 175.5q0 57 7 115t21.5 112.5t37.5 102.5t55.5 83.5t75 56t96.5 20.5q42 0 77 -12h107l18 111h32zM263 20
q92 0 153 74t84 210l12 72q5 29 6.5 55.5t1.5 49.5q0 97 -36.5 147t-119.5 50q-92 0 -152.5 -74t-83.5 -210l-12 -72q-5 -29 -6.5 -55.5t-1.5 -49.5q0 -97 36.5 -147t118.5 -50zM370 764l-22 15l131 156l30 -19z" />
    <glyph glyph-name="uni1EE2" unicode="&#x1ee2;" 
d="M584 709q-3 -18 -13 -27.5t-31 -9.5h-56q71 -53 71 -194q0 -57 -7 -115t-21.5 -112.5t-37.5 -102.5t-55.5 -83.5t-75.5 -56t-96 -20.5q-94 0 -141.5 56.5t-47.5 175.5q0 57 7 115t21.5 112.5t37.5 102.5t55.5 83.5t75 56t96.5 20.5q42 0 77 -12h107l18 111h32zM263 20
q92 0 153 74t84 210l12 72q5 29 6.5 55.5t1.5 49.5q0 97 -36.5 147t-119.5 50q-92 0 -152.5 -74t-83.5 -210l-12 -72q-5 -29 -6.5 -55.5t-1.5 -49.5q0 -97 36.5 -147t118.5 -50zM240 -145q-18 0 -25 7t-7 15q0 4 0.5 8t1.5 9q5 27 37 27q18 0 25 -7t7 -15q0 -4 -0.5 -8
t-1.5 -9q-5 -27 -37 -27z" />
    <glyph glyph-name="uni1EDC" unicode="&#x1edc;" 
d="M584 709q-3 -18 -13 -27.5t-31 -9.5h-56q71 -53 71 -194q0 -57 -7 -115t-21.5 -112.5t-37.5 -102.5t-55.5 -83.5t-75.5 -56t-96 -20.5q-94 0 -141.5 56.5t-47.5 175.5q0 57 7 115t21.5 112.5t37.5 102.5t55.5 83.5t75 56t96.5 20.5q42 0 77 -12h107l18 111h32zM263 20
q92 0 153 74t84 210l12 72q5 29 6.5 55.5t1.5 49.5q0 97 -36.5 147t-119.5 50q-92 0 -152.5 -74t-83.5 -210l-12 -72q-5 -29 -6.5 -55.5t-1.5 -49.5q0 -97 36.5 -147t118.5 -50zM307 920l33 15l77 -159l-24 -12z" />
    <glyph glyph-name="uni1EDE" unicode="&#x1ede;" 
d="M584 709q-3 -18 -13 -27.5t-31 -9.5h-56q71 -53 71 -194q0 -57 -7 -115t-21.5 -112.5t-37.5 -102.5t-55.5 -83.5t-75.5 -56t-96 -20.5q-94 0 -141.5 56.5t-47.5 175.5q0 57 7 115t21.5 112.5t37.5 102.5t55.5 83.5t75 56t96.5 20.5q42 0 77 -12h107l18 111h32zM263 20
q92 0 153 74t84 210l12 72q5 29 6.5 55.5t1.5 49.5q0 97 -36.5 147t-119.5 50q-92 0 -152.5 -74t-83.5 -210l-12 -72q-5 -29 -6.5 -55.5t-1.5 -49.5q0 -97 36.5 -147t118.5 -50zM333 921h126q18 0 26 -6.5t8 -17.5q0 -10 -7.5 -22.5t-32.5 -41.5l-61 -72l-21 13l91 119h-134
z" />
    <glyph glyph-name="uni1EE0" unicode="&#x1ee0;" 
d="M584 709q-3 -18 -13 -27.5t-31 -9.5h-56q71 -53 71 -194q0 -57 -7 -115t-21.5 -112.5t-37.5 -102.5t-55.5 -83.5t-75.5 -56t-96 -20.5q-94 0 -141.5 56.5t-47.5 175.5q0 57 7 115t21.5 112.5t37.5 102.5t55.5 83.5t75 56t96.5 20.5q42 0 77 -12h107l18 111h32zM263 20
q92 0 153 74t84 210l12 72q5 29 6.5 55.5t1.5 49.5q0 97 -36.5 147t-119.5 50q-92 0 -152.5 -74t-83.5 -210l-12 -72q-5 -29 -6.5 -55.5t-1.5 -49.5q0 -97 36.5 -147t118.5 -50zM457 803q-20 0 -34.5 7t-35.5 21q-17 12 -31 18.5t-30 6.5q-32 0 -67 -31l-16 18q39 42 88 42
q20 0 34.5 -7t35.5 -21q17 -12 31 -18.5t30 -6.5q32 0 67 31l16 -18q-39 -42 -88 -42z" />
    <glyph glyph-name="uni1ED0" unicode="&#x1ed0;" 
d="M262 -12q-94 0 -141.5 56.5t-47.5 175.5q0 57 7 115t21.5 112.5t37.5 102.5t55.5 83.5t75 56t96.5 20.5q94 0 141.5 -56.5t47.5 -175.5q0 -57 -7 -115t-21.5 -112.5t-37.5 -102.5t-55.5 -83.5t-75.5 -56t-96 -20.5zM264 20q92 0 152.5 74t83.5 210l12 72q5 29 6.5 55.5
t1.5 49.5q0 97 -36.5 147t-119.5 50q-92 0 -152.5 -74t-83.5 -210l-12 -72q-5 -29 -6.5 -55.5t-1.5 -49.5q0 -97 36.5 -147t119.5 -50zM524 877l-21 15l131 156l29 -19zM427 917l101 -137l-22 -14l-102 125l-146 -125l-19 17l146 134h42z" />
    <glyph glyph-name="uni1ED8" unicode="&#x1ed8;" 
d="M262 -12q-94 0 -141.5 56.5t-47.5 175.5q0 57 7 115t21.5 112.5t37.5 102.5t55.5 83.5t75 56t96.5 20.5q94 0 141.5 -56.5t47.5 -175.5q0 -57 -7 -115t-21.5 -112.5t-37.5 -102.5t-55.5 -83.5t-75.5 -56t-96 -20.5zM264 20q92 0 152.5 74t83.5 210l12 72q5 29 6.5 55.5
t1.5 49.5q0 97 -36.5 147t-119.5 50q-92 0 -152.5 -74t-83.5 -210l-12 -72q-5 -29 -6.5 -55.5t-1.5 -49.5q0 -97 36.5 -147t119.5 -50zM429 926l101 -137l-22 -14l-102 124l-146 -124l-19 17l146 134h42zM240 -145q-18 0 -25 7t-7 15q0 4 0.5 8t1.5 9q5 27 37 27q18 0 25 -7
t7 -15q0 -4 -0.5 -8t-1.5 -9q-5 -27 -37 -27z" />
    <glyph glyph-name="uni1ED2" unicode="&#x1ed2;" 
d="M262 -12q-94 0 -141.5 56.5t-47.5 175.5q0 57 7 115t21.5 112.5t37.5 102.5t55.5 83.5t75 56t96.5 20.5q94 0 141.5 -56.5t47.5 -175.5q0 -57 -7 -115t-21.5 -112.5t-37.5 -102.5t-55.5 -83.5t-75.5 -56t-96 -20.5zM264 20q92 0 152.5 74t83.5 210l12 72q5 29 6.5 55.5
t1.5 49.5q0 97 -36.5 147t-119.5 50q-92 0 -152.5 -74t-83.5 -210l-12 -72q-5 -29 -6.5 -55.5t-1.5 -49.5q0 -97 36.5 -147t119.5 -50zM192 1035l32 15l77 -160l-23 -11zM427 917l101 -137l-22 -14l-102 125l-146 -125l-19 17l146 134h42z" />
    <glyph glyph-name="uni1ED4" unicode="&#x1ed4;" 
d="M262 -12q-94 0 -141.5 56.5t-47.5 175.5q0 57 7 115t21.5 112.5t37.5 102.5t55.5 83.5t75 56t96.5 20.5q94 0 141.5 -56.5t47.5 -175.5q0 -57 -7 -115t-21.5 -112.5t-37.5 -102.5t-55.5 -83.5t-75.5 -56t-96 -20.5zM264 20q92 0 152.5 74t83.5 210l12 72q5 29 6.5 55.5
t1.5 49.5q0 97 -36.5 147t-119.5 50q-92 0 -152.5 -74t-83.5 -210l-12 -72q-5 -29 -6.5 -55.5t-1.5 -49.5q0 -97 36.5 -147t119.5 -50zM468 1036h125q19 0 27 -6.5t8 -17.5q0 -9 -7 -20t-30 -39l-64 -78l-22 14l92 119h-134zM427 917l102 -137l-23 -14l-102 125l-145 -125
l-20 17l146 134h42z" />
    <glyph glyph-name="uni1ED6" unicode="&#x1ed6;" 
d="M262 -12q-94 0 -141.5 56.5t-47.5 175.5q0 57 7 115t21.5 112.5t37.5 102.5t55.5 83.5t75 56t96.5 20.5q94 0 141.5 -56.5t47.5 -175.5q0 -57 -7 -115t-21.5 -112.5t-37.5 -102.5t-55.5 -83.5t-75.5 -56t-96 -20.5zM264 20q92 0 152.5 74t83.5 210l12 72q5 29 6.5 55.5
t1.5 49.5q0 97 -36.5 147t-119.5 50q-92 0 -152.5 -74t-83.5 -210l-12 -72q-5 -29 -6.5 -55.5t-1.5 -49.5q0 -97 36.5 -147t119.5 -50zM354 1035q20 0 36.5 -7.5t36.5 -21.5q18 -12 32.5 -18.5t30.5 -6.5q18 0 34 8t35 24l15 -19q-40 -41 -88 -41q-20 0 -36.5 7.5
t-36.5 21.5q-18 12 -32.5 18.5t-30.5 6.5q-18 0 -34 -8t-35 -24l-15 19q40 41 88 41zM427 915l102 -135l-23 -14l-102 123l-145 -123l-19 18l145 131h42z" />
    <glyph glyph-name="OE" unicode="&#x152;" 
d="M268 0q-109 0 -160.5 65t-51.5 193q0 91 21.5 171.5t62 140t100 94t136.5 34.5h249l-5 -32h-193l-50 -296h179l-5 -32h-179l-51 -306h193l-5 -32h-241zM392 666h-23q-50 0 -94 -20.5t-78 -56.5t-57 -86.5t-32 -110.5l-11 -70q-6 -36 -6 -70q0 -114 44 -167t135 -53h15z
" />
    <glyph glyph-name="Racute" unicode="&#x154;" 
d="M97 0h-36l116 698h238q77 0 118.5 -43.5t41.5 -110.5q0 -103 -52 -164t-151 -63h-35l146 -317h-38l-144 317h-151zM369 348q72 0 111.5 36.5t49.5 95.5l6 37q1 8 1.5 14.5t0.5 14.5q0 25 -7.5 46.5t-23 38t-39.5 26t-56 9.5h-204l-53 -318h214zM364 764l-22 15l131 156
l30 -19z" />
    <glyph glyph-name="Rcaron" unicode="&#x158;" 
d="M97 0h-36l116 698h238q77 0 118.5 -43.5t41.5 -110.5q0 -103 -52 -164t-151 -63h-35l146 -317h-38l-144 317h-151zM369 348q72 0 111.5 36.5t49.5 95.5l6 37q1 8 1.5 14.5t0.5 14.5q0 25 -7.5 46.5t-23 38t-39.5 26t-56 9.5h-204l-53 -318h214zM357 780l-102 137l22 14
l102 -125l146 125l19 -17l-146 -134h-41z" />
    <glyph glyph-name="Rcommaaccent" unicode="&#x156;" 
d="M97 0h-36l116 698h238q77 0 118.5 -43.5t41.5 -110.5q0 -103 -52 -164t-151 -63h-35l146 -317h-38l-144 317h-151zM369 348q72 0 111.5 36.5t49.5 95.5l6 37q1 8 1.5 14.5t0.5 14.5q0 25 -7.5 46.5t-23 38t-39.5 26t-56 9.5h-204l-53 -318h214zM227 -67h44l-71 -184h-28z
" />
    <glyph glyph-name="Sacute" unicode="&#x15a;" 
d="M272 -12q-95 0 -150.5 31.5t-87.5 83.5l28 22q16 -25 35 -44.5t44.5 -33t58 -20.5t74.5 -7q94 0 147.5 46.5t53.5 131.5q0 55 -29.5 87t-96.5 47l-84 20q-76 17 -111.5 57.5t-35.5 105.5q0 48 17 84t47 61t72 37.5t93 12.5q93 0 144 -27.5t78 -74.5l-28 -19
q-14 24 -32 40.5t-41.5 27.5t-53.5 16t-68 5q-88 0 -140 -41t-52 -121q0 -56 30 -87t96 -46l83 -19q78 -18 113.5 -59t35.5 -105q0 -50 -17 -89.5t-48.5 -66.5t-75.5 -41.5t-99 -14.5zM354 764l-22 15l131 156l30 -19z" />
    <glyph glyph-name="Scaron" unicode="&#x160;" 
d="M272 -12q-95 0 -150.5 31.5t-87.5 83.5l28 22q16 -25 35 -44.5t44.5 -33t58 -20.5t74.5 -7q94 0 147.5 46.5t53.5 131.5q0 55 -29.5 87t-96.5 47l-84 20q-76 17 -111.5 57.5t-35.5 105.5q0 48 17 84t47 61t72 37.5t93 12.5q93 0 144 -27.5t78 -74.5l-28 -19
q-14 24 -32 40.5t-41.5 27.5t-53.5 16t-68 5q-88 0 -140 -41t-52 -121q0 -56 30 -87t96 -46l83 -19q78 -18 113.5 -59t35.5 -105q0 -50 -17 -89.5t-48.5 -66.5t-75.5 -41.5t-99 -14.5zM347 780l-102 137l22 14l102 -125l146 125l19 -17l-146 -134h-41z" />
    <glyph glyph-name="Scedilla" unicode="&#x15e;" 
d="M249 -203q-31 0 -51.5 10t-29.5 24l20 19q9 -12 24 -19.5t37 -7.5q29 0 47.5 14.5t18.5 37.5q0 16 -11.5 27t-43.5 13l-36 3l28 70q-86 4 -137 35t-81 80l28 22q16 -25 35 -44.5t44.5 -33t58 -20.5t74.5 -7q94 0 147.5 46.5t53.5 131.5q0 55 -29.5 87t-96.5 47l-84 20
q-76 17 -111.5 57.5t-35.5 105.5q0 48 17 84t47 61t72 37.5t93 12.5q93 0 144 -27.5t78 -74.5l-28 -19q-14 24 -32 40.5t-41.5 27.5t-53.5 16t-68 5q-88 0 -140 -41t-52 -121q0 -56 30 -87t96 -46l83 -19q78 -18 113.5 -59t35.5 -105q0 -50 -16.5 -89t-47 -66t-74 -41.5
t-96.5 -15.5l-24 -58l2 -2q8 2 16.5 2.5t14.5 0.5q28 0 43.5 -14.5t15.5 -40.5q0 -35 -26.5 -57t-70.5 -22z" />
    <glyph glyph-name="Scircumflex" unicode="&#x15c;" 
d="M272 -12q-95 0 -150.5 31.5t-87.5 83.5l28 22q16 -25 35 -44.5t44.5 -33t58 -20.5t74.5 -7q94 0 147.5 46.5t53.5 131.5q0 55 -29.5 87t-96.5 47l-84 20q-76 17 -111.5 57.5t-35.5 105.5q0 48 17 84t47 61t72 37.5t93 12.5q93 0 144 -27.5t78 -74.5l-28 -19
q-14 24 -32 40.5t-41.5 27.5t-53.5 16t-68 5q-88 0 -140 -41t-52 -121q0 -56 30 -87t96 -46l83 -19q78 -18 113.5 -59t35.5 -105q0 -50 -17 -89.5t-48.5 -66.5t-75.5 -41.5t-99 -14.5zM413 926l101 -137l-22 -14l-102 124l-146 -124l-19 17l146 134h42z" />
    <glyph glyph-name="Scommaaccent" unicode="&#x218;" 
d="M272 -12q-95 0 -150.5 31.5t-87.5 83.5l28 22q16 -25 35 -44.5t44.5 -33t58 -20.5t74.5 -7q94 0 147.5 46.5t53.5 131.5q0 55 -29.5 87t-96.5 47l-84 20q-76 17 -111.5 57.5t-35.5 105.5q0 48 17 84t47 61t72 37.5t93 12.5q93 0 144 -27.5t78 -74.5l-28 -19
q-14 24 -32 40.5t-41.5 27.5t-53.5 16t-68 5q-88 0 -140 -41t-52 -121q0 -56 30 -87t96 -46l83 -19q78 -18 113.5 -59t35.5 -105q0 -50 -17 -89.5t-48.5 -66.5t-75.5 -41.5t-99 -14.5zM226 -67h44l-71 -184h-28z" />
    <glyph glyph-name="uni1E9E" unicode="&#x1e9e;" 
d="M162 698h435l-6 -36l-224 -260v-4q201 -2 201 -161q0 -53 -15 -98.5t-44 -79t-72 -52.5t-99 -19q-68 0 -108 25t-63 66l29 19q20 -36 52.5 -57t91.5 -21q69 0 118 38t63 113q7 38 9 52.5t2 23.5q0 57 -41 89t-129 32h-42l5 33l228 265h-360l-112 -666h-35z" />
    <glyph glyph-name="Tbar" unicode="&#x166;" 
d="M335 359l-60 -359h-36l60 359h-187l5 29h187l46 278h-245l5 32h526l-5 -32h-245l-46 -278h186l-5 -29h-186z" />
    <glyph glyph-name="Tcaron" unicode="&#x164;" 
d="M386 666l-111 -666h-36l111 666h-245l5 32h526l-5 -32h-245zM367 780l-102 137l22 14l102 -125l146 125l19 -17l-146 -134h-41z" />
    <glyph glyph-name="Tcommaaccent" unicode="&#x162;" 
d="M386 666l-111 -666h-36l111 666h-245l5 32h526l-5 -32h-245zM224 -67h44l-71 -184h-28z" />
    <glyph glyph-name="uni021A" unicode="&#x21a;" 
d="M386 666l-111 -666h-36l111 666h-245l5 32h526l-5 -32h-245zM224 -67h44l-71 -184h-28z" />
    <glyph glyph-name="Thorn" unicode="&#xde;" 
d="M61 0l116 698h36l-25 -152h201q39 0 68.5 -11.5t50 -32.5t31 -49t10.5 -61q0 -105 -53 -166.5t-154 -61.5h-217l-28 -164h-36zM130 196h214q72 0 111.5 37t48.5 95l6 37q3 15 3 29q0 25 -7.5 46.5t-23.5 38t-39.5 26t-55.5 9.5h-204z" />
    <glyph glyph-name="Uacute" unicode="&#xda;" 
d="M203 698l-70 -421q-7 -42 -10.5 -70t-3.5 -52q0 -73 32.5 -104t110.5 -31q52 0 87 13.5t58.5 43.5t38 78t26.5 117l71 426h36l-70 -423q-13 -80 -31 -134.5t-46 -88.5t-69.5 -49t-101.5 -15q-93 0 -135 38.5t-42 126.5q0 28 4 62.5t11 71.5l68 411h36zM374 764l-22 15
l131 156l30 -19z" />
    <glyph glyph-name="Ubreve" unicode="&#x16c;" 
d="M203 698l-70 -421q-7 -42 -10.5 -70t-3.5 -52q0 -73 32.5 -104t110.5 -31q52 0 87 13.5t58.5 43.5t38 78t26.5 117l71 426h36l-70 -423q-13 -80 -31 -134.5t-46 -88.5t-69.5 -49t-101.5 -15q-93 0 -135 38.5t-42 126.5q0 28 4 62.5t11 71.5l68 411h36zM389 777
q-30 0 -49.5 10t-33 27.5t-23 42t-17.5 54.5l23 11l18 -46q17 -38 34 -53.5t49 -15.5q31 0 53.5 15t52.5 54l33 46l24 -11q-18 -30 -35 -54.5t-35.5 -42t-41 -27.5t-52.5 -10z" />
    <glyph glyph-name="Ucircumflex" unicode="&#xdb;" 
d="M203 698l-70 -421q-7 -42 -10.5 -70t-3.5 -52q0 -73 32.5 -104t110.5 -31q52 0 87 13.5t58.5 43.5t38 78t26.5 117l71 426h36l-70 -423q-13 -80 -31 -134.5t-46 -88.5t-69.5 -49t-101.5 -15q-93 0 -135 38.5t-42 126.5q0 28 4 62.5t11 71.5l68 411h36zM433 926l101 -137
l-22 -14l-102 124l-146 -124l-19 17l146 134h42z" />
    <glyph glyph-name="Udieresis" unicode="&#xdc;" 
d="M203 698l-70 -421q-7 -42 -10.5 -70t-3.5 -52q0 -73 32.5 -104t110.5 -31q52 0 87 13.5t58.5 43.5t38 78t26.5 117l71 426h36l-70 -423q-13 -80 -31 -134.5t-46 -88.5t-69.5 -49t-101.5 -15q-93 0 -135 38.5t-42 126.5q0 28 4 62.5t11 71.5l68 411h36zM304 812
q-18 0 -25 7t-7 15q0 4 0.5 8t1.5 9q5 27 37 27q18 0 25 -7t7 -15q0 -4 -0.5 -8t-1.5 -9q-5 -27 -37 -27zM486 812q-18 0 -25 7t-7 15q0 4 0.5 8t1.5 9q5 27 37 27q18 0 25 -7t7 -15q0 -4 -0.5 -8t-1.5 -9q-5 -27 -37 -27z" />
    <glyph glyph-name="uni1EE4" unicode="&#x1ee4;" 
d="M203 698l-70 -421q-7 -42 -10.5 -70t-3.5 -52q0 -73 32.5 -104t110.5 -31q52 0 87 13.5t58.5 43.5t38 78t26.5 117l71 426h36l-70 -423q-13 -80 -31 -134.5t-46 -88.5t-69.5 -49t-101.5 -15q-93 0 -135 38.5t-42 126.5q0 28 4 62.5t11 71.5l68 411h36zM234 -145
q-18 0 -25 7t-7 15q0 4 0.5 8t1.5 9q5 27 37 27q18 0 25 -7t7 -15q0 -4 -0.5 -8t-1.5 -9q-5 -27 -37 -27z" />
    <glyph glyph-name="Ugrave" unicode="&#xd9;" 
d="M203 698l-70 -421q-7 -42 -10.5 -70t-3.5 -52q0 -73 32.5 -104t110.5 -31q52 0 87 13.5t58.5 43.5t38 78t26.5 117l71 426h36l-70 -423q-13 -80 -31 -134.5t-46 -88.5t-69.5 -49t-101.5 -15q-93 0 -135 38.5t-42 126.5q0 28 4 62.5t11 71.5l68 411h36zM311 920l33 15
l77 -159l-24 -12z" />
    <glyph glyph-name="uni1EE6" unicode="&#x1ee6;" 
d="M203 698l-70 -421q-7 -42 -10.5 -70t-3.5 -52q0 -73 32.5 -104t110.5 -31q52 0 87 13.5t58.5 43.5t38 78t26.5 117l71 426h36l-70 -423q-13 -80 -31 -134.5t-46 -88.5t-69.5 -49t-101.5 -15q-93 0 -135 38.5t-42 126.5q0 28 4 62.5t11 71.5l68 411h36zM337 921h126
q18 0 26 -6.5t8 -17.5q0 -10 -7.5 -22.5t-32.5 -41.5l-61 -72l-21 13l91 119h-134z" />
    <glyph glyph-name="Uhungarumlaut" unicode="&#x170;" 
d="M203 698l-70 -421q-7 -42 -10.5 -70t-3.5 -52q0 -73 32.5 -104t110.5 -31q52 0 87 13.5t58.5 43.5t38 78t26.5 117l71 426h36l-70 -423q-13 -80 -31 -134.5t-46 -88.5t-69.5 -49t-101.5 -15q-93 0 -135 38.5t-42 126.5q0 28 4 62.5t11 71.5l68 411h36zM307 764l-21 15
l131 156l29 -19zM468 764l-21 15l130 156l29 -19z" />
    <glyph glyph-name="Umacron" unicode="&#x16a;" 
d="M203 698l-70 -421q-7 -42 -10.5 -70t-3.5 -52q0 -73 32.5 -104t110.5 -31q52 0 87 13.5t58.5 43.5t38 78t26.5 117l71 426h36l-70 -423q-13 -80 -31 -134.5t-46 -88.5t-69.5 -49t-101.5 -15q-93 0 -135 38.5t-42 126.5q0 28 4 62.5t11 71.5l68 411h36zM270 861h262
l-5 -30h-262z" />
    <glyph glyph-name="Uogonek" unicode="&#x172;" 
d="M203 698l-70 -421q-7 -42 -10.5 -70t-3.5 -52q0 -73 32.5 -104t110.5 -31q52 0 87 13.5t58.5 43.5t38 78t26.5 117l71 426h36l-70 -423q-10 -60 -21.5 -103.5t-28 -75t-39 -53.5t-53.5 -38q-72 -38 -103 -70.5t-31 -66.5q0 -25 14.5 -35t34.5 -10q21 0 36 7.5t25 18.5
l19 -19q-12 -14 -33 -23.5t-49 -9.5q-32 0 -56 15.5t-24 52.5q0 13 4.5 27.5t16.5 30t32 32t51 33.5l-1 3q-20 -3 -42 -3q-93 0 -135 38.5t-42 126.5q0 28 4 62.5t11 71.5l68 411h36z" />
    <glyph glyph-name="Uring" unicode="&#x16e;" 
d="M203 698l-70 -421q-7 -42 -10.5 -70t-3.5 -52q0 -73 32.5 -104t110.5 -31q52 0 87 13.5t58.5 43.5t38 78t26.5 117l71 426h36l-70 -423q-13 -80 -31 -134.5t-46 -88.5t-69.5 -49t-101.5 -15q-93 0 -135 38.5t-42 126.5q0 28 4 62.5t11 71.5l68 411h36zM386 764
q-38 0 -60.5 22.5t-22.5 58.5q0 24 9 44.5t24 35.5t35.5 23t43.5 8q38 0 60.5 -22.5t22.5 -58.5q0 -24 -9 -44.5t-24 -35.5t-35.5 -23t-43.5 -8zM389 788q31 0 52 17t26 48q2 11 2.5 17t0.5 11q0 23 -14.5 37t-43.5 14q-31 0 -52 -17t-26 -48q-2 -11 -2.5 -17t-0.5 -11
q0 -23 14.5 -37t43.5 -14z" />
    <glyph glyph-name="Utilde" unicode="&#x168;" 
d="M203 698l-70 -421q-7 -42 -10.5 -70t-3.5 -52q0 -73 32.5 -104t110.5 -31q52 0 87 13.5t58.5 43.5t38 78t26.5 117l71 426h36l-70 -423q-13 -80 -31 -134.5t-46 -88.5t-69.5 -49t-101.5 -15q-93 0 -135 38.5t-42 126.5q0 28 4 62.5t11 71.5l68 411h36zM463 802
q-20 0 -36 7.5t-36 21.5q-18 12 -32.5 19t-31.5 7t-33.5 -8t-34.5 -24l-15 19q40 42 89 42q20 0 36 -7.5t36 -21.5q18 -12 32.5 -19t31.5 -7t33.5 8t34.5 24l15 -19q-41 -42 -89 -42z" />
    <glyph glyph-name="Uhorn" unicode="&#x1af;" 
d="M203 698l-70 -421q-7 -42 -10.5 -70t-3.5 -52q0 -73 32.5 -104t110.5 -31q52 0 87 13.5t58.5 43.5t38 78t26.5 117l71 426h97l18 111h32l-16 -100q-3 -18 -13 -27.5t-31 -9.5h-55l-66 -397q-13 -80 -31 -134.5t-46 -88.5t-69.5 -49t-101.5 -15q-93 0 -135 38.5t-42 126.5
q0 28 4 62.5t11 71.5l68 411h36z" />
    <glyph glyph-name="uni1EE8" unicode="&#x1ee8;" 
d="M203 698l-70 -421q-7 -42 -10.5 -70t-3.5 -52q0 -73 32.5 -104t110.5 -31q52 0 87 13.5t58.5 43.5t38 78t26.5 117l71 426h97l18 111h32l-16 -100q-3 -18 -13 -27.5t-31 -9.5h-55l-66 -397q-13 -80 -31 -134.5t-46 -88.5t-69.5 -49t-101.5 -15q-93 0 -135 38.5t-42 126.5
q0 28 4 62.5t11 71.5l68 411h36zM374 764l-22 15l131 156l30 -19z" />
    <glyph glyph-name="uni1EF0" unicode="&#x1ef0;" 
d="M203 698l-70 -421q-7 -42 -10.5 -70t-3.5 -52q0 -73 32.5 -104t110.5 -31q52 0 87 13.5t58.5 43.5t38 78t26.5 117l71 426h97l18 111h32l-16 -100q-3 -18 -13 -27.5t-31 -9.5h-55l-66 -397q-13 -80 -31 -134.5t-46 -88.5t-69.5 -49t-101.5 -15q-93 0 -135 38.5t-42 126.5
q0 28 4 62.5t11 71.5l68 411h36zM234 -145q-18 0 -25 7t-7 15q0 4 0.5 8t1.5 9q5 27 37 27q18 0 25 -7t7 -15q0 -4 -0.5 -8t-1.5 -9q-5 -27 -37 -27z" />
    <glyph glyph-name="uni1EEA" unicode="&#x1eea;" 
d="M203 698l-70 -421q-7 -42 -10.5 -70t-3.5 -52q0 -73 32.5 -104t110.5 -31q52 0 87 13.5t58.5 43.5t38 78t26.5 117l71 426h97l18 111h32l-16 -100q-3 -18 -13 -27.5t-31 -9.5h-55l-66 -397q-13 -80 -31 -134.5t-46 -88.5t-69.5 -49t-101.5 -15q-93 0 -135 38.5t-42 126.5
q0 28 4 62.5t11 71.5l68 411h36zM311 920l33 15l77 -159l-24 -12z" />
    <glyph glyph-name="uni1EEC" unicode="&#x1eec;" 
d="M203 698l-70 -421q-7 -42 -10.5 -70t-3.5 -52q0 -73 32.5 -104t110.5 -31q52 0 87 13.5t58.5 43.5t38 78t26.5 117l71 426h97l18 111h32l-16 -100q-3 -18 -13 -27.5t-31 -9.5h-55l-66 -397q-13 -80 -31 -134.5t-46 -88.5t-69.5 -49t-101.5 -15q-93 0 -135 38.5t-42 126.5
q0 28 4 62.5t11 71.5l68 411h36zM337 921h126q18 0 26 -6.5t8 -17.5q0 -10 -7.5 -22.5t-32.5 -41.5l-61 -72l-21 13l91 119h-134z" />
    <glyph glyph-name="uni1EEE" unicode="&#x1eee;" 
d="M203 698l-70 -421q-7 -42 -10.5 -70t-3.5 -52q0 -73 32.5 -104t110.5 -31q52 0 87 13.5t58.5 43.5t38 78t26.5 117l71 426h97l18 111h32l-16 -100q-3 -18 -13 -27.5t-31 -9.5h-55l-66 -397q-13 -80 -31 -134.5t-46 -88.5t-69.5 -49t-101.5 -15q-93 0 -135 38.5t-42 126.5
q0 28 4 62.5t11 71.5l68 411h36zM461 803q-20 0 -34.5 7t-35.5 21q-17 12 -31 18.5t-30 6.5q-32 0 -67 -31l-16 18q39 42 88 42q20 0 34.5 -7t35.5 -21q17 -12 31 -18.5t30 -6.5q32 0 67 31l16 -18q-39 -42 -88 -42z" />
    <glyph glyph-name="Wacute" unicode="&#x1e82;" 
d="M74 0l51 698h33l-49 -662h5l202 456h44l50 -456h5l172 662h33l-181 -698h-57l-49 446h-4l-197 -446h-58zM373 764l-22 15l131 156l30 -19z" />
    <glyph glyph-name="Wcircumflex" unicode="&#x174;" 
d="M74 0l51 698h33l-49 -662h5l202 456h44l50 -456h5l172 662h33l-181 -698h-57l-49 446h-4l-197 -446h-58zM432 926l101 -137l-22 -14l-102 124l-146 -124l-19 17l146 134h42z" />
    <glyph glyph-name="Wdieresis" unicode="&#x1e84;" 
d="M74 0l51 698h33l-49 -662h5l202 456h44l50 -456h5l172 662h33l-181 -698h-57l-49 446h-4l-197 -446h-58zM303 812q-18 0 -25 7t-7 15q0 4 0.5 8t1.5 9q5 27 37 27q18 0 25 -7t7 -15q0 -4 -0.5 -8t-1.5 -9q-5 -27 -37 -27zM485 812q-18 0 -25 7t-7 15q0 4 0.5 8t1.5 9
q5 27 37 27q18 0 25 -7t7 -15q0 -4 -0.5 -8t-1.5 -9q-5 -27 -37 -27z" />
    <glyph glyph-name="Wgrave" unicode="&#x1e80;" 
d="M74 0l51 698h33l-49 -662h5l202 456h44l50 -456h5l172 662h33l-181 -698h-57l-49 446h-4l-197 -446h-58zM310 920l33 15l77 -159l-24 -12z" />
    <glyph glyph-name="Yacute" unicode="&#xdd;" 
d="M239 0l48 289l-189 409h39l170 -372h3l295 372h43l-324 -408l-49 -290h-36zM374 764l-22 15l131 156l30 -19z" />
    <glyph glyph-name="Ycircumflex" unicode="&#x176;" 
d="M239 0l48 289l-189 409h39l170 -372h3l295 372h43l-324 -408l-49 -290h-36zM433 926l101 -137l-22 -14l-102 124l-146 -124l-19 17l146 134h42z" />
    <glyph glyph-name="uni1EF4" unicode="&#x1ef4;" 
d="M239 0l48 289l-189 409h39l170 -372h3l295 372h43l-324 -408l-49 -290h-36zM235 -145q-18 0 -25 7t-7 15q0 4 0.5 8t1.5 9q5 27 37 27q18 0 25 -7t7 -15q0 -4 -0.5 -8t-1.5 -9q-5 -27 -37 -27z" />
    <glyph glyph-name="Ydieresis" unicode="&#x178;" 
d="M239 0l48 289l-189 409h39l170 -372h3l295 372h43l-324 -408l-49 -290h-36zM304 812q-18 0 -25 7t-7 15q0 4 0.5 8t1.5 9q5 27 37 27q18 0 25 -7t7 -15q0 -4 -0.5 -8t-1.5 -9q-5 -27 -37 -27zM486 812q-18 0 -25 7t-7 15q0 4 0.5 8t1.5 9q5 27 37 27q18 0 25 -7t7 -15
q0 -4 -0.5 -8t-1.5 -9q-5 -27 -37 -27z" />
    <glyph glyph-name="Ygrave" unicode="&#x1ef2;" 
d="M239 0l48 289l-189 409h39l170 -372h3l295 372h43l-324 -408l-49 -290h-36zM311 920l33 15l77 -159l-24 -12z" />
    <glyph glyph-name="uni1EF6" unicode="&#x1ef6;" 
d="M239 0l48 289l-189 409h39l170 -372h3l295 372h43l-324 -408l-49 -290h-36zM337 921h126q18 0 26 -6.5t8 -17.5q0 -10 -7.5 -22.5t-32.5 -41.5l-61 -72l-21 13l91 119h-134z" />
    <glyph glyph-name="uni1EF8" unicode="&#x1ef8;" 
d="M239 0l48 289l-189 409h39l170 -372h3l295 372h43l-324 -408l-49 -290h-36zM463 802q-20 0 -36 7.5t-36 21.5q-18 12 -32.5 19t-31.5 7t-33.5 -8t-34.5 -24l-15 19q40 42 89 42q20 0 36 -7.5t36 -21.5q18 -12 32.5 -19t31.5 -7t33.5 8t34.5 24l15 -19q-41 -42 -89 -42z
" />
    <glyph glyph-name="Zacute" unicode="&#x179;" 
d="M509 0h-504l6 34l546 632h-419l5 32h461l-5 -34l-546 -632h461zM374 764l-22 15l131 156l30 -19z" />
    <glyph glyph-name="Zcaron" unicode="&#x17d;" 
d="M509 0h-504l6 34l546 632h-419l5 32h461l-5 -34l-546 -632h461zM367 780l-102 137l22 14l102 -125l146 125l19 -17l-146 -134h-41z" />
    <glyph glyph-name="Zdotaccent" unicode="&#x17b;" 
d="M509 0h-504l6 34l546 632h-419l5 32h461l-5 -34l-546 -632h461zM395 810q-20 0 -27 7t-7 16q0 6 3 18q3 13 12 20.5t26 7.5q20 0 27 -7t7 -16q0 -6 -3 -18q-3 -13 -12 -20.5t-26 -7.5z" />
    <glyph glyph-name="mu" unicode="&#xb5;" 
d="M42 -200l119 716h34l-54 -324q-2 -14 -3.5 -28.5t-1.5 -27.5q0 -58 31 -87.5t86 -29.5q35 0 66 14.5t58 48.5q14 17 33.5 50.5t27.5 77.5l51 306h34l-86 -516h-34l19 116h-3q-14 -28 -30.5 -51.5t-37 -40.5t-46.5 -26.5t-59 -9.5q-103 0 -125 88h-3l-14 -111l-28 -165
h-34z" />
    <glyph glyph-name="Delta" unicode="&#x2206;" 
d="M16 33l333 665h48l111 -665l-5 -33h-492zM369 658h-4l-311 -626h417z" />
    <glyph glyph-name="product" unicode="&#x220f;" 
d="M167 698h412l-116 -698h-36l110 665h-340l-110 -665h-36z" />
    <glyph glyph-name="summation" unicode="&#x2211;" 
d="M449 -200h-459l6 35l358 416l1 4l-221 408l6 35h459l-5 -32h-422l219 -406l-4 -23l-350 -405h417z" />
    <glyph glyph-name="Omega" unicode="&#x2126;" 
d="M35 31h153l3 19q-20 15 -38 34.5t-32 46.5t-22.5 64t-8.5 86q0 84 15.5 162t48.5 137t83.5 94.5t120.5 35.5q91 0 139.5 -58t48.5 -170q0 -92 -16 -163t-43.5 -124t-65.5 -88.5t-82 -57.5l-3 -18h153l-5 -31h-184l10 62q31 14 59.5 35t52.5 51.5t42 72t27 97.5l12 69
q5 29 6.5 54.5t1.5 48.5q0 93 -39 140.5t-116 47.5q-84 0 -139 -62.5t-76 -188.5l-11 -72q-5 -24 -5 -46v-37q0 -83 26 -132t73 -78l-11 -62h-183z" />
    <glyph glyph-name="pi" unicode="&#x3c0;" 
d="M166 486h-110l5 30h539l-5 -30h-112l-77 -460l10 -5l117 80l17 -21l-82 -58q-23 -17 -38 -25.5t-29 -8.5q-17 0 -22.5 9t-5.5 22q0 5 1.5 17t6.5 44l68 406h-249l-81 -486h-34z" />
    <glyph glyph-name="uni0430" unicode="&#x430;" 
d="M406 0l19 117h-3q-29 -58 -72.5 -93.5t-111.5 -35.5q-42 0 -74 14.5t-53.5 40.5t-32.5 62.5t-11 80.5q0 69 16 131t47 109t76.5 74.5t103.5 27.5q66 0 107 -28.5t56 -75.5h4l15 92h34l-86 -516h-34zM244 19q33 0 61.5 10.5t54.5 34.5q27 25 50 62.5t31 84.5l24 142
q4 26 -2.5 52t-24.5 46.5t-49 33t-74 12.5q-41 0 -75 -16t-59.5 -44t-42.5 -66t-24 -82l-9 -55q-4 -23 -4 -49q0 -35 8.5 -65t25.5 -52.5t44 -35.5t65 -13z" />
    <glyph glyph-name="uni0430.alt01" 
d="M231 -12q-76 0 -118 32.5t-42 89.5q0 34 10 65t35.5 54.5t68 37t107.5 13.5h149l10 56q2 14 3 25.5t1 22.5q0 114 -129 114q-32 0 -57 -5.5t-45 -17t-36 -29t-31 -41.5l-24 18q14 23 32 42t41 33t53 22t68 8q78 0 120 -37.5t42 -103.5q0 -12 -1.5 -25t-3.5 -27l-55 -335
h-34l13 79h-3q-23 -37 -65 -64t-109 -27zM236 18q33 0 64 9t55.5 25.5t41.5 41t23 56.5l17 102h-149q-87 0 -129 -27.5t-49 -73.5q-3 -23 -3.5 -30t-0.5 -12q0 -44 33.5 -67.5t96.5 -23.5z" />
    </font>
</defs>
</svg>
