<?xml version="1.0" standalone="no"?>
<!DOCTYPE svg PUBLIC "-//W3C//DTD SVG 1.1//EN" "http://www.w3.org/Graphics/SVG/1.1/DTD/svg11.dtd" >
<svg xmlns="http://www.w3.org/2000/svg" xmlns:xlink="http://www.w3.org/1999/xlink" version="1.1">
<metadata>
Created by FontForge 20170812 at Fri Dec 22 17:13:06 2017
 By ,,,
Copyright 2017 IBM Corp. All rights reserved.
</metadata>
<defs>
<font id="IBMPlexMono-TextItalic" horiz-adv-x="600" >
  <font-face 
    font-family="IBM Plex Mono Text"
    font-weight="450"
    font-style="italic"
    font-stretch="normal"
    units-per-em="1000"
    panose-1="2 11 5 9 5 2 3 0 2 3"
    ascent="780"
    descent="-220"
    x-height="516"
    cap-height="698"
    bbox="-206 -253 725 1130"
    underline-thickness="68"
    underline-position="-166"
    slope="-9"
    unicode-range="U+000D-FB02"
  />
<missing-glyph 
d="M32 0v780h536v-780h-536zM100 68h400v644h-400v-644z" />
    <glyph glyph-name=".notdef" 
d="M32 0v780h536v-780h-536zM100 68h400v644h-400v-644z" />
    <glyph glyph-name=".null" horiz-adv-x="0" 
 />
    <glyph glyph-name=".null" horiz-adv-x="0" 
 />
    <glyph glyph-name="uni000D" unicode="&#xd;" 
 />
    <glyph glyph-name="space" unicode=" " 
 />
    <glyph glyph-name="a" unicode="a" 
d="M376 0l20 122h-3q-30 -60 -72 -97t-109 -37q-79 0 -119 51t-40 149q0 57 13.5 117t42.5 109.5t75 81.5t111 32q116 0 148 -103h4l15 91h91l-86 -516h-91zM246 65q63 0 114 56q19 20 34 49.5t21 64.5l18 108q8 51 -23 79.5t-87 28.5q-71 0 -111 -42.5t-52 -112.5l-11 -69
q-4 -23 -4 -45q0 -54 25 -85.5t76 -31.5z" />
    <glyph glyph-name="a.alt01" 
d="M215 -12q-74 0 -116.5 35t-42.5 96q0 83 60 130t189 47h111l6 33q3 16 3 32q0 92 -107 92q-51 0 -84.5 -19.5t-60.5 -54.5l-54 50q13 19 33 36.5t46 31.5t58 22.5t70 8.5q88 0 138.5 -42.5t50.5 -110.5q0 -14 -1.5 -28.5t-3.5 -29.5l-53 -317h-88l15 91h-4
q-23 -45 -64 -74t-101 -29zM241 61q30 0 56 7.5t46 21t33.5 31t16.5 37.5l13 74h-111q-135 0 -144 -78q-2 -13 -2 -19v-14q0 -29 24.5 -44.5t67.5 -15.5z" />
    <glyph glyph-name="b" unicode="b" 
d="M171 740h91l-58 -346h3q15 30 32.5 54.5t39 42.5t48.5 27.5t61 9.5q79 0 119 -51t40 -149q0 -57 -13.5 -117t-42.5 -109.5t-75 -81.5t-111 -32q-116 0 -148 103h-4l-15 -91h-91zM276 65q71 0 111.5 42.5t52.5 112.5l11 69q4 23 4 45q0 54 -25 85.5t-76 31.5
q-64 0 -114 -56q-18 -20 -34 -49.5t-21 -64.5l-19 -108q-8 -51 23 -79.5t87 -28.5z" />
    <glyph glyph-name="c" unicode="c" 
d="M271 -12q-49 0 -86.5 15.5t-62.5 44t-37.5 69t-12.5 89.5q0 72 20.5 131.5t56.5 102t85 65.5t107 23q42 0 73 -9.5t53.5 -26.5t36.5 -40t21 -49l-77 -32q-14 45 -41 62.5t-75 17.5q-62 0 -101 -40t-52 -116l-10 -60q-3 -17 -4 -27.5t-1 -20.5q0 -62 32 -92t87 -30
q17 0 34 4t36.5 16.5t43 37t53.5 65.5l63 -38q-25 -39 -50 -69.5t-54 -51t-62.5 -31t-75.5 -10.5z" />
    <glyph glyph-name="d" unicode="d" 
d="M396 122h-3q-30 -60 -72 -97t-109 -37q-79 0 -119 51t-40 149q0 57 13.5 117t42.5 109.5t75 81.5t111 32q116 0 148 -103h4l53 315h91l-124 -740h-91zM246 65q63 0 114 56q19 20 34 49.5t21 64.5l18 108q8 51 -23 79.5t-87 28.5q-71 0 -111 -42.5t-52 -112.5l-11 -69
q-4 -23 -4 -45q0 -54 25 -85.5t76 -31.5z" />
    <glyph glyph-name="e" unicode="e" 
d="M278 -12q-101 0 -154.5 55.5t-53.5 165.5q0 70 21 129t59 101t91 65.5t117 23.5q38 0 70.5 -9t56 -27t37 -44t13.5 -60q0 -28 -12.5 -57t-51.5 -54t-112 -42t-194 -21q-1 -7 -1 -13.5v-8.5q0 -26 5 -49t18.5 -40.5t37.5 -28t62 -10.5q27 0 48.5 6t41 18.5t39 33.5
t40.5 51l62 -39q-22 -35 -46 -62t-53 -45.5t-64 -28.5t-77 -10zM349 456q-72 0 -118 -43.5t-58 -127.5l-1 -11q90 3 143.5 14t82 26.5t37.5 33.5t9 36q0 30 -21.5 51t-73.5 21z" />
    <glyph glyph-name="f" unicode="f" 
d="M192 -212q-18 0 -34 7t-33 21.5t-38 37t-49 54.5l-57 65l62 52l144 -158l17 4l95 569h-180l13 76h179l18 101q8 54 43 88.5t97 34.5h175l-13 -76h-204l-24 -148h205l-13 -76h-205l-90 -537q-8 -50 -34 -82.5t-74 -32.5z" />
    <glyph glyph-name="g" unicode="g" 
d="M214 -212q-129 0 -186 72l60 59q21 -26 53 -40t77 -14q67 0 107.5 35t55.5 122l20 118h-5q-29 -62 -71.5 -98t-109.5 -36q-81 0 -121 51t-40 145q0 54 13.5 111.5t43 105.5t75 78.5t109.5 30.5q117 0 148 -103h4l15 91h92l-85 -509q-10 -58 -32.5 -99.5t-55 -68t-75 -39
t-92.5 -12.5zM249 83q31 0 60 13t55 42q15 17 31.5 44.5t23.5 68.5l15 93q8 51 -23 79t-88 28q-69 0 -110 -42t-52 -111l-9 -52q-2 -13 -3.5 -23t-1.5 -22q0 -57 25.5 -87.5t76.5 -30.5z" />
    <glyph glyph-name="g.alt01" 
d="M232 -212q-121 0 -174 30.5t-53 85.5q0 44 27 71.5t78 39.5l2 10q-40 19 -40 65q0 43 29 65t78 32l1 6q-35 20 -55 53.5t-20 79.5q0 44 17.5 81t48.5 64t73.5 42t93.5 15q58 0 100 -22l3 15q5 30 23.5 50t53.5 20h93l-13 -76h-116l-6 -35q21 -20 32.5 -46.5t11.5 -61.5
q0 -44 -17.5 -81t-48.5 -64t-73.5 -42t-93.5 -15q-33 0 -60 6q-12 -2 -25.5 -7t-25 -12.5t-19 -18.5t-7.5 -24q0 -23 20.5 -29t53.5 -6h115q92 0 134 -33.5t42 -91.5q0 -80 -69 -123t-214 -43zM90 -73q0 -30 25 -49.5t82 -19.5h84q69 0 107.5 22t38.5 64q0 26 -20.5 41
t-74.5 15h-182q-29 -11 -44.5 -29t-15.5 -44zM295 236q57 0 89 25.5t40 72.5q3 19 4 31.5t1 17.5q0 36 -23.5 57.5t-74.5 21.5q-58 0 -89.5 -25.5t-39.5 -73.5q-6 -36 -6 -49q0 -35 24 -56.5t75 -21.5z" />
    <glyph glyph-name="g.alt02" 
d="M232 -212q-121 0 -174 30.5t-53 85.5q0 44 27 71.5t78 39.5l2 10q-40 19 -40 65q0 43 29 65t78 32l1 6q-35 20 -55 53.5t-20 79.5q0 44 17.5 81t48.5 64t73.5 42t93.5 15q44 0 77 -12h172l-11 -68h-78q22 -33 22 -76q0 -44 -17.5 -81t-48.5 -64t-73.5 -42t-93.5 -15
q-33 0 -60 6q-12 -2 -25.5 -7t-25 -12.5t-19 -18.5t-7.5 -24q0 -23 20.5 -29t53.5 -6h115q92 0 134 -33.5t42 -91.5q0 -80 -69 -123t-214 -43zM295 236q57 0 89 25.5t40 72.5q3 19 4 31.5t1 17.5q0 36 -23.5 57.5t-74.5 21.5q-58 0 -89.5 -25.5t-39.5 -73.5q-6 -36 -6 -49
q0 -35 24 -56.5t75 -21.5zM427 -56q0 26 -20.5 41t-74.5 15h-182q-29 -11 -44.5 -29t-15.5 -44q0 -30 25 -49.5t82 -19.5h84q69 0 107.5 22t38.5 64z" />
    <glyph glyph-name="h" unicode="h" 
d="M176 740h91l-58 -346h5q29 62 68.5 98t102.5 36q67 0 103.5 -40t36.5 -109q0 -17 -1.5 -35t-5.5 -39l-51 -305h-91l51 303q3 17 4 31t1 25q0 42 -19.5 67t-61.5 25q-32 0 -56.5 -15t-46.5 -40q-5 -6 -13.5 -16.5t-17.5 -25.5t-16.5 -33t-10.5 -39l-47 -282h-91z" />
    <glyph glyph-name="i" unicode="i" 
d="M340 622q-35 0 -49 13t-14 31q0 13 4 32q5 25 21.5 38t49.5 13q35 0 49 -13t14 -31q0 -13 -4 -32q-5 -25 -21.5 -38t-49.5 -13zM277 -12q-42 0 -64 22t-22 57q0 11 2 22.5t4 24.5l63 326h-181l13 76h273l-85 -442l22 -9l186 165l53 -49l-85 -81q-33 -32 -58.5 -53.5
t-46 -34.5t-38 -18.5t-36.5 -5.5z" />
    <glyph glyph-name="j" unicode="j" 
d="M264 -212q-18 0 -33.5 6t-33 20.5t-39 38.5t-52.5 59l-58 67l62 52l149 -165l17 4l95 570h-208l13 76h299l-102 -610q-8 -51 -33.5 -84.5t-75.5 -33.5zM452 622q-35 0 -49 13t-14 31q0 13 4 32q5 25 21.5 38t49.5 13q35 0 49 -13t14 -31q0 -13 -4 -32q-5 -25 -21.5 -38
t-49.5 -13z" />
    <glyph glyph-name="k" unicode="k" 
d="M176 740h91l-58 -346h5q27 59 69.5 96.5t107.5 37.5q62 0 98.5 -34.5t36.5 -91.5q0 -26 -9 -52.5t-31.5 -51.5t-62 -47t-100.5 -37l65 -146l14 -3l123 114l48 -49l-67 -68q-38 -38 -65.5 -56t-58.5 -18q-30 0 -49.5 16.5t-35.5 53.5l-75 169q59 15 99.5 32.5t65 37
t35.5 40.5t11 44q0 34 -21 53t-60 19q-35 0 -59.5 -15.5t-46.5 -41.5q-21 -25 -36 -53t-20 -61l-47 -282h-91z" />
    <glyph glyph-name="l" unicode="l" 
d="M253 -12q-45 0 -64.5 22.5t-19.5 57.5q0 9 1 19.5t3 22.5l106 554h-176l13 76h270l-128 -667l23 -8l193 168l51 -49l-95 -89q-35 -32 -60.5 -53t-45.5 -33t-37 -16.5t-34 -4.5z" />
    <glyph glyph-name="m" unicode="m" 
d="M7 0l86 516h81l-13 -83h4q18 41 44 68t69 27t62.5 -27t15.5 -72h4q20 45 49.5 72t75.5 27q43 0 65.5 -25t22.5 -73q0 -15 -2 -34.5t-5 -37.5l-60 -358h-81l58 345q2 17 4 32t2 26q0 53 -41 53q-20 0 -34.5 -11t-26.5 -28q-26 -38 -34 -87l-56 -330h-81l58 345q6 33 6 56
q0 29 -9.5 42t-29.5 13t-35.5 -10.5t-27.5 -28.5q-28 -42 -34 -85l-56 -332h-81z" />
    <glyph glyph-name="n" unicode="n" 
d="M52 0l86 516h91l-20 -122h5q29 62 68.5 98t102.5 36q67 0 103.5 -40t36.5 -109q0 -17 -1.5 -35t-5.5 -39l-51 -305h-91l51 303q3 17 4 31t1 25q0 42 -19.5 67t-61.5 25q-32 0 -56.5 -15t-46.5 -40q-5 -6 -13.5 -16.5t-17 -25t-16.5 -33t-11 -39.5l-47 -282h-91z" />
    <glyph glyph-name="o" unicode="o" 
d="M265 -12q-50 0 -88.5 16t-64.5 44.5t-39 69t-13 89.5q0 74 21 133.5t58 101t87 64t108 22.5q51 0 89.5 -16t64.5 -44.5t39 -69t13 -89.5q0 -74 -21 -133.5t-58 -101t-87.5 -64t-108.5 -22.5zM270 64q69 0 110 41.5t53 114.5l10 63q3 17 4 28.5t1 20.5q0 62 -32 91t-86 29
q-69 0 -110 -41.5t-53 -114.5l-10 -63q-3 -17 -4 -28.5t-1 -20.5q0 -62 32 -91t86 -29z" />
    <glyph glyph-name="p" unicode="p" 
d="M133 516h91l-20 -122h3q15 30 32.5 54.5t39 42.5t48.5 27.5t61 9.5q79 0 119 -51t40 -149q0 -57 -13.5 -117t-42.5 -109.5t-75 -81.5t-111 -32q-116 0 -148 103h-4l-48 -291h-91zM277 65q71 0 111 42.5t52 112.5l11 69q4 23 4 45q0 54 -25 85.5t-76 31.5q-65 0 -114 -56
q-18 -21 -34 -50t-22 -64l-18 -108q-8 -51 23.5 -79.5t87.5 -28.5z" />
    <glyph glyph-name="q" unicode="q" 
d="M396 122h-3q-30 -60 -72 -97t-109 -37q-79 0 -119 51t-40 149q0 57 13.5 117t42.5 109.5t75 81.5t111 32q116 0 148 -103h4l15 91h91l-119 -716h-91zM246 65q63 0 114 56q19 20 34.5 49.5t21.5 64.5l18 108q8 51 -23.5 79.5t-87.5 28.5q-71 0 -111 -42.5t-52 -112.5
l-11 -69q-4 -23 -4 -45q0 -54 25 -85.5t76 -31.5z" />
    <glyph glyph-name="r" unicode="r" 
d="M172 0l73 440h-139l13 76h230l-24 -141h5q28 64 72.5 102.5t118.5 38.5h70l-15 -91h-90q-44 0 -72 -12.5t-52 -38.5q-6 -6 -14 -16.5t-16 -24.5t-15 -31.5t-10 -38.5l-44 -263h-91z" />
    <glyph glyph-name="s" unicode="s" 
d="M266 -12q-75 0 -131 24.5t-88 70.5l62 52q29 -36 68.5 -55t96.5 -19q64 0 100.5 24t36.5 67q0 33 -20.5 46t-50.5 18l-74 12q-29 4 -56 12t-48 23t-34 38.5t-13 59.5q0 42 17.5 73t48 52t71 31.5t87.5 10.5q68 0 117 -21t78 -57l-60 -54q-14 20 -48 39.5t-95 19.5
q-62 0 -94.5 -23t-32.5 -62q0 -17 6 -28t16.5 -18t24 -10.5t28.5 -6.5l74 -13q26 -5 52.5 -12t47.5 -21.5t34.5 -37.5t13.5 -60q0 -41 -17 -73.5t-47.5 -55t-74 -34.5t-96.5 -12z" />
    <glyph glyph-name="t" unicode="t" 
d="M246 -12q-41 0 -62.5 22t-21.5 62q0 8 1 20.5t3 23.5l56 324h-146l12 76h101q27 0 40.5 11t18.5 38l22 133h86l-31 -182h211l-12 -76h-211l-61 -364l20 -11l212 145l45 -56l-103 -75q-34 -25 -60 -42.5t-46.5 -28t-38 -15.5t-35.5 -5z" />
    <glyph glyph-name="u" unicode="u" 
d="M392 122h-4q-29 -62 -69 -98t-103 -36q-66 0 -103 40t-37 109q0 17 1.5 35t5.5 39l51 305h91l-50 -303q-6 -33 -6 -56q0 -42 19.5 -67t61.5 -25q32 0 57 15t47 40q5 6 13 16.5t17 25t16.5 33t10.5 39.5l47 282h91l-86 -516h-91z" />
    <glyph glyph-name="v" unicode="v" 
d="M267 516l-67 -447l13 -9q59 10 103.5 39.5t74 71.5t44.5 93.5t15 104.5q0 34 -7 66.5t-22 60.5l86 27q17 -30 26.5 -69t9.5 -82q0 -78 -28 -147.5t-75 -121.5t-109 -82t-131 -30q-45 0 -66 22t-21 60q0 9 1 20t3 22l49 325h-106l13 76h194z" />
    <glyph glyph-name="w" unicode="w" 
d="M128 -10q-46 0 -68.5 27.5t-22.5 75.5q0 15 2 33.5t5 38.5l58 351h79l-57 -340q-6 -32 -6 -59q0 -53 43 -53q19 0 33.5 11t27.5 29t20 42t11 44l55 326h77l-56 -341q-3 -17 -4 -31.5t-1 -26.5q0 -54 41 -54q26 0 49 27t40 70.5t26.5 98t9.5 108.5q0 37 -5.5 72.5
t-16.5 60.5l73 22q13 -27 20.5 -66t7.5 -86q0 -91 -21 -170.5t-59 -132.5q-56 -77 -141 -77q-44 0 -67.5 24.5t-19.5 81.5h-6q-21 -51 -50.5 -78.5t-76.5 -27.5z" />
    <glyph glyph-name="x" unicode="x" 
d="M106 -12q-101 0 -101 123q0 11 1 26t3 37l82 7q-2 -14 -3 -27t-1 -21q0 -38 10 -56.5t33 -18.5q22 0 40 15t32.5 39t24.5 55t17 63.5t10.5 63.5t3.5 55q0 26 -3 55t-10 47l-14 7l-153 -96l-37 53l67 50q38 28 72 45.5t66 17.5q30 0 46.5 -15t25 -39t10.5 -55t2 -63l7 -1
q21 93 60.5 133t97.5 40q100 0 100 -123q0 -10 -0.5 -25.5t-3.5 -37.5l-81 -7q2 14 2.5 27t0.5 22q0 38 -10 56t-33 18q-33 0 -57 -32t-39.5 -78t-23 -95.5t-7.5 -85.5q0 -26 3 -54.5t11 -47.5l15 -7l145 102l38 -52l-50 -43q-53 -46 -88 -61.5t-60 -15.5q-29 0 -46 14
t-26 38t-11.5 55t-2.5 65l-7 1q-20 -93 -60 -133t-98 -40z" />
    <glyph glyph-name="y" unicode="y" 
d="M209 -212q-128 0 -187 72l61 59q43 -54 129 -54q69 0 109 35.5t54 121.5l19 116h-3q-29 -63 -69 -99t-103 -36q-67 0 -104 40t-37 109q0 15 1.5 32t5.5 40l48 292h91l-48 -290q-3 -17 -4 -30t-1 -24q0 -41 19.5 -66t61.5 -25q32 0 57 14.5t47 39.5q5 6 13 16.5t16.5 25.5
t16 33t11.5 39l44 267h91l-85 -509q-10 -58 -32 -99.5t-54.5 -68t-75 -39t-92.5 -12.5z" />
    <glyph glyph-name="z" unicode="z" 
d="M423 -10q-24 0 -50.5 5t-60.5 18l-164 58l-5 -4l-11 -67h-87l12 86l351 315q-55 29 -90.5 40.5t-64.5 11.5q-26 0 -42.5 -9t-25.5 -24t-12.5 -35.5t-3.5 -43.5h-72v11q0 85 41 130.5t116 45.5q43 0 87.5 -16.5t101.5 -54.5l17 -10l5 4l10 65h88l-13 -84l-351 -315
l244 -55l11 12l-31 126l62 24l16 -38q12 -26 19.5 -53t7.5 -50q0 -36 -27.5 -64.5t-77.5 -28.5z" />
    <glyph glyph-name="A" unicode="A" 
d="M434 0l-24 193h-236l-88 -193h-100l325 698h129l93 -698h-99zM364 602h-9l-146 -327h194z" />
    <glyph glyph-name="B" unicode="B" 
d="M161 698h227q84 0 128 -43.5t44 -117.5q0 -70 -37 -113.5t-98 -59.5l-1 -4q48 -14 78.5 -46t30.5 -93q0 -45 -16 -85t-45 -70t-70 -48t-91 -18h-267zM292 78q58 0 93 24.5t43 75.5l5 29q2 9 3 18.5t1 18.5q0 38 -26.5 58t-77.5 20h-141l-41 -244h141zM330 396
q110 0 125 91l5 29q3 16 3 32q0 38 -25 55t-70 17h-127l-37 -224h126z" />
    <glyph glyph-name="C" unicode="C" 
d="M288 -12q-112 0 -163.5 66t-51.5 189q0 45 6.5 97.5t21 104.5t38.5 100t59 84.5t82 58.5t108 22q50 0 85.5 -14t59 -37.5t36 -53.5t17.5 -62l-87 -25q-5 23 -12.5 43t-20.5 35t-33.5 24t-50.5 9q-40 0 -71.5 -16t-55 -45t-39 -70.5t-24.5 -93.5l-17 -99
q-3 -21 -5.5 -42.5t-2.5 -43.5q0 -69 30.5 -109.5t99.5 -40.5q29 0 51.5 8.5t41 25.5t35.5 42.5t35 58.5l77 -34q-20 -43 -43.5 -76.5t-53.5 -57t-67.5 -36t-84.5 -12.5z" />
    <glyph glyph-name="D" unicode="D" 
d="M166 698h178q55 0 97.5 -17t70.5 -47.5t42.5 -73t14.5 -93.5q0 -119 -22 -206.5t-63.5 -145.5t-100.5 -86.5t-134 -28.5h-200zM255 81q161 0 196 205l17 102q3 18 5 40.5t2 42.5q0 146 -142 146h-86l-90 -536h98z" />
    <glyph glyph-name="E" unicode="E" 
d="M45 0l117 698h432l-14 -82h-337l-37 -222h325l-14 -82h-325l-38 -230h338l-14 -82h-433z" />
    <glyph glyph-name="F" unicode="F" 
d="M45 0l117 698h443l-14 -82h-348l-37 -222h318l-14 -82h-318l-52 -312h-95z" />
    <glyph glyph-name="G" unicode="G" 
d="M415 102h-6q-14 -23 -29 -44t-34.5 -36.5t-44.5 -24.5t-58 -9q-88 0 -134.5 64t-46.5 189q0 45 6.5 97.5t21 104.5t38 100.5t58.5 85.5t82.5 59t108.5 22q49 0 84 -14t58.5 -37.5t36.5 -53.5t18 -62l-88 -25q-5 22 -12 42.5t-20.5 35.5t-33.5 24t-50 9q-80 0 -126 -61.5
t-63 -163.5l-16 -97q-4 -22 -5 -45t-1 -37q0 -72 26.5 -114.5t89.5 -42.5q34 0 61 12.5t47.5 33.5t33.5 49t18 60l9 53h-142l12 73h229l-58 -349h-87z" />
    <glyph glyph-name="H" unicode="H" 
d="M437 313h-255l-52 -313h-95l117 698h95l-51 -303h254l51 303h95l-117 -698h-95z" />
    <glyph glyph-name="I" unicode="I" 
d="M40 0l12 74h170l92 550h-170l12 74h435l-12 -74h-170l-92 -550h170l-12 -74h-435z" />
    <glyph glyph-name="J" unicode="J" 
d="M559 698l-87 -522q-17 -97 -75.5 -142.5t-148.5 -45.5q-85 0 -136.5 43.5t-59.5 126.5l91 18q2 -22 8 -41.5t18.5 -33.5t32.5 -22.5t50 -8.5q53 0 85.5 31.5t43.5 95.5l69 419h-250l14 82h345z" />
    <glyph glyph-name="K" unicode="K" 
d="M287 333l-116 -118l-36 -215h-95l117 698h95l-59 -351h5l129 141l205 210h117l-291 -299l178 -399h-104z" />
    <glyph glyph-name="L" unicode="L" 
d="M73 0l117 698h93l-102 -616h325l-13 -82h-420z" />
    <glyph glyph-name="M" unicode="M" 
d="M466 343l38 218h-8l-206 -359l-85 359h-8l-34 -218l-57 -343h-85l117 698h113l67 -295h7l166 295h119l-116 -698h-85z" />
    <glyph glyph-name="N" unicode="N" 
d="M226 576h-8l-97 -576h-86l117 698h130l124 -576h7l97 576h86l-117 -698h-130z" />
    <glyph glyph-name="O" unicode="O" 
d="M264 -12q-108 0 -157.5 63t-49.5 179q0 47 6 101t20 107t37.5 102.5t58 87t81.5 60t108 22.5q107 0 156.5 -63t49.5 -179q0 -47 -6 -101t-20 -107t-37.5 -102.5t-58 -87t-81 -60t-107.5 -22.5zM268 69q78 0 123.5 59.5t62.5 162.5l19 115q4 22 5.5 42.5t1.5 37.5
q0 68 -27 105.5t-90 37.5q-78 0 -123.5 -59.5t-62.5 -162.5l-19 -115q-4 -22 -5.5 -42.5t-1.5 -37.5q0 -68 27 -105.5t90 -37.5z" />
    <glyph glyph-name="P" unicode="P" 
d="M45 0l117 698h250q44 0 77 -12.5t54.5 -34.5t32 -53t10.5 -68q0 -113 -61 -177t-172 -64h-165l-48 -289h-95zM202 370h154q56 0 86 25.5t38 70.5l6 35q3 16 3 37q0 40 -24.5 59.5t-69.5 19.5h-152z" />
    <glyph glyph-name="Q" unicode="Q" 
d="M388 -186q-26 0 -43 13.5t-31 33.5l-88 130q-88 10 -128.5 71.5t-40.5 167.5q0 47 6 101t20 107t37.5 102.5t58 87t81.5 60t108 22.5q107 0 156.5 -63t49.5 -179q0 -44 -5 -93t-16.5 -98t-30.5 -95t-47 -84t-65.5 -65.5t-85.5 -37.5l68 -103l14 -3l97 88l50 -43l-58 -57
q-17 -17 -30.5 -29t-25.5 -19.5t-24 -11t-27 -3.5zM268 69q78 0 123.5 59.5t62.5 162.5l19 115q4 22 5.5 42.5t1.5 37.5q0 68 -27 105.5t-90 37.5q-78 0 -123.5 -59.5t-62.5 -162.5l-19 -115q-4 -22 -5.5 -42.5t-1.5 -37.5q0 -68 27 -105.5t90 -37.5z" />
    <glyph glyph-name="R" unicode="R" 
d="M139 0h-94l117 698h249q45 0 77.5 -12.5t54.5 -34.5t32.5 -53t10.5 -68q0 -103 -53 -163t-149 -70l121 -297h-102l-111 292h-104zM356 370q51 0 83.5 23.5t40.5 72.5l6 33q3 18 3 38q0 41 -24.5 60.5t-69.5 19.5h-152l-41 -247h154z" />
    <glyph glyph-name="S" unicode="S" 
d="M266 -12q-90 0 -151 33t-92 87l67 58q64 -97 181 -97q78 0 122 37t44 101q0 41 -23.5 65.5t-80.5 37.5l-74 16q-81 19 -118.5 62t-37.5 110q0 49 18.5 88.5t51.5 67t80 42t104 14.5q88 0 144 -32t84 -80l-67 -52q-28 42 -68 63t-97 21q-72 0 -112.5 -33.5t-40.5 -90.5
q0 -45 27 -67t81 -35l71 -17q85 -20 120.5 -63t35.5 -109q0 -50 -18.5 -92t-53.5 -72t-85 -46.5t-112 -16.5z" />
    <glyph glyph-name="T" unicode="T" 
d="M408 616l-103 -616h-95l103 616h-227l14 82h549l-14 -82h-227z" />
    <glyph glyph-name="U" unicode="U" 
d="M244 698l-68 -407q-8 -49 -10.5 -74t-2.5 -42q0 -24 4.5 -44t16.5 -33.5t32 -21t52 -7.5q46 0 74.5 13.5t45 39t25.5 63t17 85.5l72 428h95l-69 -411q-13 -76 -29 -132.5t-43.5 -93.5t-72 -55t-114.5 -18q-110 0 -155.5 47t-45.5 133q0 31 5 70.5t12 78.5l64 381h95z" />
    <glyph glyph-name="V" unicode="V" 
d="M192 0l-88 698h94l40 -349l30 -256h6l112 256l153 349h101l-317 -698h-131z" />
    <glyph glyph-name="W" unicode="W" 
d="M39 0l64 698h83l-39 -398l-20 -208h8l156 430h102l16 -430h8l46 201l95 405h84l-169 -698h-134l-10 414h-8l-148 -414h-134z" />
    <glyph glyph-name="X" unicode="X" 
d="M536 0h-102l-62 141l-61 141h-5l-108 -141l-108 -141h-109l284 360l-155 338h103l58 -130l58 -133h5l101 133l101 130h108l-268 -344z" />
    <glyph glyph-name="Y" unicode="Y" 
d="M210 0l45 267l-167 431h101l67 -179l54 -157h4l108 157l125 179h111l-307 -425l-46 -273h-95z" />
    <glyph glyph-name="Z" unicode="Z" 
d="M509 0h-503l13 85l468 531h-361l14 82h470l-14 -85l-467 -531h394z" />
    <glyph glyph-name="zero" unicode="0" 
d="M263 -12q-106 0 -156 63t-50 180q0 46 6 100t20.5 107t38 102t58 87t81 60.5t107.5 22.5q107 0 156.5 -63t49.5 -180q0 -46 -6 -100t-20.5 -107t-37.5 -102t-57.5 -87t-81.5 -60.5t-108 -22.5zM268 68q78 0 124.5 59.5t63.5 162.5l20 117q4 23 5.5 43t1.5 37
q0 68 -28.5 105.5t-91.5 37.5q-78 0 -124.5 -59.5t-63.5 -162.5l-19 -117q-4 -23 -5.5 -43t-1.5 -37q0 -68 28 -105.5t91 -37.5zM307 291q-30 0 -43 10.5t-13 27.5q0 10 3 28q4 23 19.5 36.5t50.5 13.5q30 0 43 -10.5t13 -27.5q0 -10 -3 -28q-4 -23 -19.5 -36.5t-50.5 -13.5
z" />
    <glyph glyph-name="zero.alt01" 
d="M263 -12q-106 0 -156 63t-50 180q0 46 6 100t20.5 107t38 102t58 87t81 60.5t107.5 22.5q107 0 156.5 -63t49.5 -180q0 -46 -6 -100t-20.5 -107t-37.5 -102t-57.5 -87t-81.5 -60.5t-108 -22.5zM363 630q-79 0 -125 -60t-63 -162l-18 -108l-4 -30t-3 -26l328 293
q-8 45 -36 69t-79 24zM268 68q79 0 125 60t63 162l18 108l4 30t3 26l-328 -293q9 -45 36.5 -69t78.5 -24z" />
    <glyph glyph-name="zero.alt02" 
d="M264 -12q-108 0 -157.5 63t-49.5 179q0 47 6 101t20 107t37.5 102.5t58 87t81.5 60t108 22.5q107 0 156.5 -63t49.5 -179q0 -47 -6 -101t-20 -107t-37.5 -102.5t-58 -87t-81 -60t-107.5 -22.5zM268 69q78 0 123.5 59.5t62.5 162.5l19 115q4 22 5.5 42.5t1.5 37.5
q0 68 -27 105.5t-90 37.5q-78 0 -123.5 -59.5t-62.5 -162.5l-19 -115q-4 -22 -5.5 -42.5t-1.5 -37.5q0 -68 27 -105.5t90 -37.5z" />
    <glyph glyph-name="one" unicode="1" 
d="M43 0l13 81h198l91 546h-8l-195 -169l-51 58l208 182h153l-104 -617h178l-13 -81h-470z" />
    <glyph glyph-name="two" unicode="2" 
d="M497 0h-471l15 95l265 206q40 31 66.5 55.5t43 46t25 44t13.5 49.5q3 18 3 31q0 45 -30 73t-86 28q-30 0 -54 -9.5t-43 -25t-33.5 -36.5t-25.5 -45l-82 32q15 34 37.5 64.5t52.5 53t69 35.5t89 13q48 0 86.5 -13t65 -37t40.5 -57.5t14 -73.5q0 -42 -13.5 -79t-39 -71.5
t-62 -67.5t-83.5 -68l-212 -162h363z" />
    <glyph glyph-name="three" unicode="3" 
d="M293 405q70 0 109.5 29.5t48.5 78.5q2 8 3 15.5t1 15.5q0 41 -30 63t-80 22q-54 0 -92.5 -25t-66.5 -63l-60 56q19 23 41 43.5t50 36t62 24.5t77 9q90 0 145 -41t55 -116q0 -66 -43 -116.5t-123 -67.5l-1 -5q54 -8 89 -46t35 -104q0 -46 -18.5 -87t-53 -72t-85 -49
t-114.5 -18q-49 0 -85 10.5t-62 28t-43.5 40t-29.5 46.5l75 49q10 -20 22.5 -37t30 -29.5t42 -19.5t58.5 -7q140 0 160 119q2 9 3 18t1 17q0 48 -32 75t-96 27h-82l13 80h76z" />
    <glyph glyph-name="four" unicode="4" 
d="M330 0l22 136h-339l15 88l385 474h124l-81 -485h101l-12 -77h-102l-23 -136h-90zM112 213h253l65 385h-5z" />
    <glyph glyph-name="five" unicode="5" 
d="M561 616h-311l-63 -260h6q31 37 65.5 59t90.5 22q42 0 76 -12.5t59 -36t38.5 -57.5t13.5 -77q0 -51 -17.5 -99t-52.5 -85t-87 -59.5t-121 -22.5q-44 0 -78.5 10.5t-61 27.5t-45.5 39t-31 45l79 52q11 -20 23.5 -37t29.5 -29.5t39.5 -19.5t53.5 -7q69 0 110.5 36t52.5 100
q2 14 3 22.5t1 20.5q0 52 -31 81.5t-92 29.5q-48 0 -78.5 -17t-56.5 -40l-78 10l89 386h388z" />
    <glyph glyph-name="six" unicode="6" 
d="M262 -12q-100 0 -153 58t-53 159q0 79 29.5 153.5t77 138.5t106 115.5t116.5 85.5h130q-66 -42 -118.5 -81.5t-94 -82t-73.5 -90.5t-56 -106l5 -2q32 42 74.5 71.5t107.5 29.5q83 0 132 -49.5t49 -134.5q0 -52 -19 -100t-54.5 -84.5t-87.5 -58.5t-118 -22zM274 67
q67 0 110.5 36.5t54.5 104.5q2 9 3 18.5t1 19.5q0 56 -31 85t-92 29q-67 0 -111 -36t-55 -105q-2 -9 -3 -18.5t-1 -19.5q0 -56 31.5 -85t92.5 -29z" />
    <glyph glyph-name="seven" unicode="7" 
d="M127 0l365 617h-289l-21 -129h-84l35 210h472l-14 -83l-360 -615h-104z" />
    <glyph glyph-name="eight" unicode="8" 
d="M258 -12q-111 0 -165.5 48.5t-54.5 124.5q0 74 45.5 127.5t127.5 74.5l1 8q-46 17 -71 52t-25 85q0 37 16 73.5t48.5 65t80.5 46t112 17.5q98 0 149 -42.5t51 -113.5q0 -60 -38.5 -110.5t-110.5 -73.5l-1 -8q56 -15 86 -52t30 -102q0 -44 -18 -83.5t-53.5 -70t-88 -48.5
t-121.5 -18zM269 66q73 0 116 32.5t52 87.5q2 14 3 22.5t1 19.5q0 48 -34 74t-98 26q-73 0 -116 -32.5t-52 -87.5q-2 -14 -3 -22.5t-1 -19.5q0 -48 34 -74t98 -26zM325 403q66 0 103.5 29.5t45.5 77.5q3 18 3 32q0 43 -30 66.5t-87 23.5q-66 0 -103.5 -29.5t-45.5 -77.5
q-3 -20 -3 -33q0 -43 30 -66t87 -23z" />
    <glyph glyph-name="nine" unicode="9" 
d="M567 493q0 -80 -30 -154t-77 -138t-105.5 -115.5t-116.5 -85.5h-130q65 42 117.5 81.5t94.5 82t74 90t57 106.5l-6 2q-32 -42 -74.5 -71.5t-107.5 -29.5q-83 0 -132 49.5t-49 134.5q0 52 19 99.5t54.5 84.5t87.5 59t118 22q100 0 153 -58t53 -159zM303 338q67 0 111 36
t55 105q2 9 3 18.5t1 19.5q0 56 -31.5 85t-92.5 29q-66 0 -110 -36.5t-55 -104.5q-2 -9 -3 -18.5t-1 -19.5q0 -56 31 -85t92 -29z" />
    <glyph glyph-name="ampersand" unicode="&#x26;" 
d="M162 -12q-76 0 -117.5 50.5t-41.5 132.5q0 36 8.5 73t30.5 68t58 52.5t92 25.5q-20 44 -30 76t-10 65q0 40 14 73t39 56.5t60 36.5t77 13q37 0 67.5 -11t52.5 -32t34.5 -52.5t12.5 -73.5q0 -92 -53.5 -145.5t-143.5 -69.5l125 -255l17 -1l76 123l60 -34l-50 -91
q-24 -44 -46.5 -62t-54.5 -18q-42 0 -70.5 36t-51.5 111h-5q-6 -42 -20.5 -70t-34.5 -45t-44.5 -24.5t-50.5 -7.5zM182 67q49 0 75 27.5t37 72.5l-83 180q-32 -5 -52 -17t-31.5 -27t-17 -33t-8.5 -35t-4 -32t-1 -26q0 -59 21.5 -84.5t63.5 -25.5zM335 638q-43 0 -69 -26
t-26 -80q0 -32 10.5 -65.5t33.5 -79.5l9 -19q95 25 118 101q6 20 8 38.5t2 32.5q0 53 -24 75.5t-62 22.5z" />
    <glyph glyph-name="at" unicode="@" 
d="M408 -112h-117q-65 0 -110 17.5t-73.5 52t-41.5 85t-13 117.5q0 41 4.5 85t13.5 98q16 97 40 166.5t58.5 114t80.5 65.5t107 21q53 0 92.5 -14.5t65.5 -40.5t39 -61t13 -76q0 -14 -1.5 -27.5t-3.5 -29.5l-61 -370h-78l14 84h-4q-17 -44 -44.5 -70t-70.5 -26
q-48 0 -76 37.5t-28 121.5q0 50 11 98.5t32 86.5t52.5 61.5t72.5 23.5t64 -22t29 -57h4l5 32q2 14 3.5 27.5t1.5 27.5q0 59 -30 93t-99 34q-33 0 -63.5 -10.5t-56.5 -38.5t-46 -77.5t-33 -127.5l-24 -147q-2 -11 -3.5 -25.5t-2 -29.5t-1 -29t-0.5 -23q0 -42 8 -75t27.5 -56
t51 -35t78.5 -12h123zM350 144q22 0 37.5 11t28.5 28q14 18 23 39.5t14 48.5l16 98q2 13 0 26t-10 24t-21.5 18t-34.5 7q-41 0 -63.5 -29.5t-31.5 -89.5l-9 -58q-2 -13 -3 -26.5t-1 -21.5q0 -75 55 -75z" />
    <glyph glyph-name="hyphen" unicode="-" 
d="M154 258l15 93h292l-16 -93h-291z" />
    <glyph glyph-name="uni00AD" unicode="&#xad;" 
d="M154 258l15 93h292l-16 -93h-291z" />
    <glyph glyph-name="endash" unicode="&#x2013;" 
d="M63 264l13 81h475l-13 -81h-475z" />
    <glyph glyph-name="emdash" unicode="&#x2014;" 
d="M4 264l13 81h594l-13 -81h-594z" />
    <glyph glyph-name="underscore" unicode="_" 
d="M-1 -172l14 81h475l-14 -81h-475z" />
    <glyph glyph-name="period" unicode="." 
d="M257 -10q-38 0 -54.5 14.5t-16.5 35.5q0 10 5 35q5 28 25 45.5t62 17.5q38 0 54.5 -14.5t16.5 -34.5q0 -6 -1.5 -15l-3.5 -21q-5 -28 -25 -45.5t-62 -17.5z" />
    <glyph glyph-name="ellipsis" unicode="&#x2026;" 
d="M65 -5q-32 0 -44.5 12.5t-12.5 31.5q0 8 1.5 16t3.5 22q4 23 20.5 38t49.5 15q32 0 45 -12.5t13 -31.5q0 -8 -1.5 -16t-3.5 -22q-4 -23 -20.5 -38t-50.5 -15zM259 -5q-32 0 -45 12.5t-13 31.5q0 8 1.5 16t3.5 22q4 23 20.5 38t49.5 15t45.5 -12.5t12.5 -31.5
q0 -8 -1 -15.5t-4 -22.5q-5 -23 -21 -38t-49 -15zM452 -5q-32 0 -45 12.5t-13 31.5q0 8 1.5 15.5t3.5 22.5q4 23 21 38t49 15q33 0 46 -12.5t13 -31.5q0 -8 -1.5 -16t-3.5 -22q-4 -23 -20.5 -38t-50.5 -15z" />
    <glyph glyph-name="colon" unicode=":" 
d="M257 -10q-38 0 -54.5 14.5t-16.5 35.5q0 10 5 35q5 28 25 45.5t62 17.5q38 0 54.5 -14.5t16.5 -34.5q0 -6 -1.5 -15l-3.5 -21q-5 -28 -25 -45.5t-62 -17.5zM321 377q-38 0 -54.5 14.5t-16.5 35.5q0 10 5 35q5 28 25 45.5t62 17.5q38 0 54.5 -14.5t16.5 -34.5
q0 -6 -1.5 -15l-3.5 -21q-5 -28 -25 -45.5t-62 -17.5z" />
    <glyph glyph-name="comma" unicode="," 
d="M232 142h139l-164 -285h-75z" />
    <glyph glyph-name="semicolon" unicode=";" 
d="M232 142h139l-164 -285h-75zM321 377q-38 0 -54.5 14.5t-16.5 35.5q0 10 5 35q5 28 25 45.5t62 17.5q38 0 54.5 -14.5t16.5 -34.5q0 -6 -1.5 -15l-3.5 -21q-5 -28 -25 -45.5t-62 -17.5z" />
    <glyph glyph-name="quotesingle" unicode="'" 
d="M290 455l48 285h85l-48 -285h-85z" />
    <glyph glyph-name="quotedbl" unicode="&#x22;" 
d="M199 455l48 285h85l-48 -285h-85zM383 455l48 285h85l-48 -285h-85z" />
    <glyph glyph-name="quoteleft" unicode="&#x2018;" 
d="M387 740h73l-100 -285h-139z" />
    <glyph glyph-name="quoteright" unicode="&#x2019;" 
d="M352 740h139l-165 -285h-74z" />
    <glyph glyph-name="quotedblleft" unicode="&#x201c;" 
d="M274 740h73l-100 -285h-139zM516 740h73l-100 -285h-139z" />
    <glyph glyph-name="quotedblright" unicode="&#x201d;" 
d="M236 740h139l-165 -285h-74zM478 740h139l-165 -285h-74z" />
    <glyph glyph-name="quotesinglbase" unicode="&#x201a;" 
d="M236 142h138l-164 -285h-75z" />
    <glyph glyph-name="quotedblbase" unicode="&#x201e;" 
d="M135 142h138l-164 -285h-75zM377 142h138l-164 -285h-75z" />
    <glyph glyph-name="guilsinglleft" unicode="&#x2039;" 
d="M339 54l-174 173l15 88l230 171l19 -66l-169 -154l118 -155z" />
    <glyph glyph-name="guilsinglright" unicode="&#x203a;" 
d="M175 120l169 155l-118 154l38 57l174 -172l-14 -88l-230 -172z" />
    <glyph glyph-name="guillemotleft" unicode="&#xab;" 
d="M240 54l-174 173l15 88l230 171l19 -66l-169 -154l118 -155zM472 54l-174 173l15 88l230 171l19 -66l-169 -154l118 -155z" />
    <glyph glyph-name="guillemotright" unicode="&#xbb;" 
d="M43 120l169 155l-118 154l38 57l174 -172l-14 -88l-230 -172zM275 120l169 155l-118 154l38 57l174 -172l-14 -88l-230 -172z" />
    <glyph glyph-name="exclamdown" unicode="&#xa1;" 
d="M175 -182l34 203l77 260h35l-11 -260l-34 -203h-101zM321 380q-37 0 -53 14t-16 34q0 5 0.5 12.5t3.5 23.5q5 28 24.5 45t61.5 17q38 0 53.5 -14t15.5 -34q0 -5 -1 -13t-3 -23q-5 -28 -24.5 -45t-61.5 -17z" />
    <glyph glyph-name="exclam" unicode="!" 
d="M278 235l11 260l34 203h101l-34 -203l-77 -260h-35zM257 -10q-38 0 -54 14t-16 34q0 5 1 13.5t4 22.5q6 28 24.5 45t60.5 17q38 0 54 -14t16 -34q0 -5 -1 -13t-4 -23q-5 -28 -24 -45t-61 -17z" />
    <glyph glyph-name="questiondown" unicode="&#xbf;" 
d="M239 -194q-93 0 -144.5 46.5t-51.5 124.5q0 49 17.5 88t47.5 67.5t71 46t88 24.5l16 94h90l-25 -156q-51 -6 -87.5 -15.5t-61 -25.5t-38 -39t-18.5 -55q-2 -10 -2 -18.5v-10.5q0 -42 30 -66t78 -24q59 0 94 31.5t54 80.5l79 -34q-12 -32 -32.5 -60.5t-49.5 -50.5
t-67.5 -35t-87.5 -13zM340 380q-37 0 -53 14t-16 34q0 6 1 15t3 21q5 28 25 45t61 17q38 0 53.5 -14.5t15.5 -34.5q0 -6 -1 -14.5t-3 -20.5q-5 -28 -25 -45t-61 -17z" />
    <glyph glyph-name="question" unicode="?" 
d="M226 219l26 156q51 6 87.5 15.5t60.5 25.5t37.5 39t18.5 55q2 9 2 18v11q0 42 -29.5 66t-77.5 24q-60 0 -94.5 -31.5t-53.5 -80.5l-79 34q12 31 32 60t49.5 51t68 35t87.5 13q92 0 144 -46.5t52 -124.5q0 -50 -17.5 -88.5t-48 -67t-71.5 -46t-87 -24.5l-16 -94h-91z
M239 -10q-38 0 -54 14.5t-16 34.5q0 6 1.5 14.5t3.5 20.5q5 28 24.5 45t60.5 17q38 0 54 -14t16 -34q0 -6 -1.5 -15l-3.5 -21q-5 -28 -25 -45t-60 -17z" />
    <glyph glyph-name="parenleft" unicode="(" 
d="M199 220q0 86 24 167.5t64 152t91.5 127t106.5 93.5h96q-51 -35 -97.5 -79t-84 -95.5t-64.5 -109t-37 -119.5l-14 -87q-6 -36 -6 -72q0 -52 12 -100.5t33 -91.5t49 -79.5t60 -64.5h-87q-31 27 -57.5 64.5t-46 83.5t-31 99t-11.5 111z" />
    <glyph glyph-name="parenright" unicode=")" 
d="M420 402q0 -86 -24 -167.5t-64 -152t-91.5 -127t-106.5 -93.5h-96q51 35 98 79t84.5 95.5t64 109t36.5 119.5l15 87q6 36 6 72q0 52 -12 100.5t-33 91.5t-49.5 79.5t-60.5 64.5h87q31 -27 57.5 -64.5t46 -83.5t31 -99t11.5 -111z" />
    <glyph glyph-name="bracketleft" unicode="[" 
d="M152 -138l150 898h284l-11 -68h-208l-126 -762h207l-12 -68h-284z" />
    <glyph glyph-name="bracketright" unicode="]" 
d="M448 760l-150 -898h-284l11 68h208l127 762h-208l12 68h284z" />
    <glyph glyph-name="braceleft" unicode="{" 
d="M256 -138q-42 0 -59.5 20.5t-17.5 51.5q0 3 0.5 7.5t1.5 13t3 21.5t5 33q4 27 12.5 46.5t19.5 35t23 28t23 23.5q26 26 34 41.5t8 31.5q0 62 -105 62h-95l11 68h95q63 0 96 20t33 58q0 26 -20 57q-12 20 -24 42t-12 59q0 8 2 26.5t10 66.5q6 37 33 61.5t72 24.5h175
l-11 -68h-189q-5 -28 -7.5 -46t-4.5 -29.5t-2.5 -17.5t-0.5 -9q0 -26 7.5 -42t17.5 -33q11 -19 21 -40.5t10 -48.5q0 -45 -31.5 -75t-94.5 -39l-1 -5q46 -5 69.5 -27.5t23.5 -57.5t-20 -61t-45 -54q-19 -21 -34.5 -42.5t-21.5 -61.5l-12 -73h187l-11 -68h-174z" />
    <glyph glyph-name="braceright" unicode="}" 
d="M364 760q42 0 59.5 -20.5t17.5 -51.5q0 -6 -2 -20.5t-9 -54.5q-5 -26 -13.5 -45.5t-19 -35.5t-22 -28.5t-22.5 -23.5q-26 -26 -34 -41.5t-8 -31.5q0 -62 104 -62h96l-11 -68h-96q-63 0 -95.5 -20t-32.5 -58q0 -26 20 -57q12 -20 24 -42t12 -59q0 -8 -2 -26.5t-10 -66.5
q-6 -37 -33 -61.5t-72 -24.5h-176l12 68h188q5 30 8 48.5t4.5 29.5t2 16t0.5 8q0 26 -7 41.5t-18 33.5t-21 40t-10 49q0 45 31.5 75t95.5 39v5q-46 5 -69.5 27.5t-23.5 57.5t19.5 61t45.5 54q10 11 19 21t16.5 21.5t13 26.5t8.5 35l12 73h-188l11 68h175z" />
    <glyph glyph-name="slash" unicode="/" 
d="M20 -138l490 898h85l-491 -898h-84z" />
    <glyph glyph-name="backslash" unicode="\" 
d="M370 -138l-192 898h74l192 -898h-74z" />
    <glyph glyph-name="fraction" unicode="&#x2044;" 
d="M581 698h78l-211 -300h-79zM184 300h79l-212 -300h-78z" />
    <glyph glyph-name="percent" unicode="%" 
d="M191 354q-60 0 -95 36t-35 107q0 48 13.5 87t37 67t55.5 43.5t70 15.5q60 0 95.5 -36.5t35.5 -107.5q0 -47 -13.5 -86t-37.5 -67t-56.5 -43.5t-69.5 -15.5zM194 413q41 0 62 25t29 68q6 35 8.5 51t2.5 25q0 69 -62 69q-40 0 -61 -25.5t-29 -67.5q-6 -35 -9 -51t-3 -25
q0 -69 62 -69zM580 698h79l-207 -300h-80zM181 300h79l-207 -300h-80zM395 -12q-60 0 -95.5 36.5t-35.5 107.5q0 47 13.5 86t37.5 67t56 43.5t70 15.5q60 0 95.5 -36t35.5 -107q0 -48 -13.5 -87t-37.5 -67t-56.5 -43.5t-69.5 -15.5zM398 47q40 0 61.5 25.5t29.5 67.5
q6 34 8.5 50.5t2.5 25.5q0 69 -62 69q-40 0 -61.5 -25t-29.5 -68q-6 -35 -8.5 -51t-2.5 -25q0 -69 62 -69z" />
    <glyph glyph-name="perthousand" unicode="&#x2030;" 
d="M166 400q-59 0 -90 34t-31 88q0 88 44.5 138t119.5 50q59 0 90 -34t31 -88q0 -88 -44.5 -138t-119.5 -50zM172 455q37 0 55 22.5t24 56.5q6 35 7.5 47t1.5 18q0 25 -15.5 40.5t-41.5 15.5q-37 0 -55.5 -22t-23.5 -57t-6.5 -47t-1.5 -17q0 -25 15 -41t41 -16zM69 328
l477 171l13 -53l-477 -171zM208 -12q-59 0 -90 34t-31 89q0 88 44 137.5t119 49.5q35 0 59.5 -13t37.5 -36h6q20 23 45 36t60 13q59 0 90 -34t31 -89q0 -88 -44.5 -137.5t-118.5 -49.5q-35 0 -60 13.5t-37 36.5h-5q-20 -23 -45.5 -36.5t-60.5 -13.5zM214 43q37 0 55 22
t24 57q6 34 7.5 46.5t1.5 17.5q0 25 -15.5 41t-41.5 16q-37 0 -55 -22.5t-24 -56.5q-6 -35 -7 -47t-1 -18q0 -25 15.5 -40.5t40.5 -15.5zM421 43q37 0 55 22t23 57t7 47t2 17q0 25 -15.5 41t-40.5 16q-37 0 -55 -22.5t-24 -56.5q-6 -35 -7.5 -47t-1.5 -18q0 -25 15.5 -40.5
t41.5 -15.5z" />
    <glyph glyph-name="bar" unicode="|" 
d="M195 -138l150 898h79l-150 -898h-79z" />
    <glyph glyph-name="brokenbar" unicode="&#xa6;" 
d="M285 400l60 360h79l-60 -360h-79zM195 -138l60 360h79l-60 -360h-79z" />
    <glyph glyph-name="section" unicode="&#xa7;" 
d="M452 18q0 -39 -15.5 -71.5t-43 -56t-67 -36.5t-87.5 -13q-25 0 -50.5 4t-49 11.5t-44 19t-35.5 27.5l56 59q21 -22 53.5 -34t70.5 -12q57 0 90.5 25.5t33.5 66.5q0 32 -21.5 51.5t-67.5 33.5l-62 20q-39 12 -64.5 27t-40 32.5t-20.5 37.5t-6 41q0 57 33.5 97t106.5 59v8
q-31 22 -45.5 52.5t-14.5 65.5q0 39 15 71.5t43 56t67 36.5t87 13q25 0 50.5 -4t49 -11.5t44 -19t35.5 -27.5l-56 -59q-21 22 -53.5 34t-70.5 12q-56 0 -89.5 -25.5t-33.5 -66.5q0 -32 21 -51.5t67 -33.5l63 -20q39 -12 64 -27t40 -32.5t21 -37.5t6 -41q0 -57 -33.5 -97
t-107.5 -59v-8q31 -22 46 -52.5t15 -65.5zM444 275q0 31 -21.5 54t-77.5 40l-62 18q-7 2 -13 4t-11 4q-44 -20 -67 -51t-23 -69q0 -32 21.5 -55t77.5 -39l62 -18q7 -2 13 -4l12 -4q43 20 66 51t23 69z" />
    <glyph glyph-name="paragraph" unicode="&#xb6;" 
d="M268 246q-41 0 -76 13.5t-60 39t-39 62t-14 82.5q0 58 22 105.5t59 80.5t84.5 51t98.5 18h244l-142 -847h-78l129 775h-86l-130 -775h-78z" />
    <glyph glyph-name="copyright" unicode="&#xa9;" 
d="M271 18q-57 0 -105 19.5t-82.5 56t-53.5 88.5t-19 118q0 84 26 154t71.5 120t109 78t138.5 28q57 0 104.5 -19.5t82 -56t54 -88.5t19.5 -118q0 -84 -26 -154t-71.5 -120t-109 -78t-138.5 -28zM276 72q52 0 97 17t80 48.5t59 75t33 96.5q7 41 9 59.5t2 29.5
q0 44 -11.5 85.5t-36 73t-63.5 50.5t-94 19q-52 0 -97 -17t-80 -48.5t-59 -75t-33 -96.5q-8 -41 -9.5 -59.5t-1.5 -29.5q0 -44 11.5 -85.5t36 -73t63.5 -50.5t94 -19zM291 168q-65 0 -100 40t-35 109q0 43 13.5 82t38 68t59 46.5t75.5 17.5q51 0 81.5 -24t42.5 -63l-64 -27
q-6 24 -20.5 37.5t-45.5 13.5q-41 0 -62.5 -24.5t-28.5 -63.5l-9 -58q-1 -8 -1.5 -13.5t-0.5 -12.5q0 -30 15 -47.5t47 -17.5q30 0 52 15.5t39 39.5l52 -33q-23 -37 -59.5 -61t-88.5 -24z" />
    <glyph glyph-name="registered" unicode="&#xae;" 
d="M311 346q-35 0 -65.5 11.5t-52.5 32.5t-34.5 50.5t-12.5 66.5q0 41 15.5 78t43 64.5t64.5 44t80 16.5q35 0 65.5 -11.5t52.5 -32.5t34.5 -50.5t12.5 -66.5q0 -41 -15.5 -78t-43 -65t-64.5 -44t-80 -16zM309 386q63 0 101.5 32t50.5 88q4 17 5 26t1 18q0 52 -27.5 86
t-88.5 34q-63 0 -101.5 -32t-50.5 -88q-4 -17 -5 -26t-1 -18q0 -52 27.5 -86t88.5 -34zM287 439h-43l31 185h86q26 0 39 -13t13 -35q0 -24 -13 -40t-34 -23l33 -74h-48l-25 67h-28zM336 537q25 0 30 23q1 5 1 7.5v4.5q0 19 -21 19h-34l-9 -54h33z" />
    <glyph glyph-name="trademark" unicode="&#x2122;" 
d="M125 417l39 232h-83l9 49h223l-8 -49h-83l-39 -232h-58zM305 417l47 281h67l40 -130h4l85 130h67l-46 -281h-52l20 122l16 84h-4l-104 -154l-52 154h-4l-12 -84l-20 -122h-52z" />
    <glyph glyph-name="ordfeminine" unicode="&#xaa;" 
d="M377 352l9 58h-8q-14 -25 -39.5 -44.5t-63.5 -19.5q-53 0 -79.5 24t-26.5 64q0 119 169 119h71l4 25q2 6 2 12.5v11.5q0 26 -18 39t-51 13q-32 0 -56.5 -15t-39.5 -36l-39 39q18 25 54 46.5t90 21.5q60 0 95.5 -26t35.5 -73q0 -7 -0.5 -16.5t-2.5 -19.5l-36 -223h-70z
M331 504q-78 0 -88 -43q-4 -17 -4 -25q0 -36 55 -36q36 0 65.5 17t34.5 46l7 41h-70z" />
    <glyph glyph-name="ordmasculine" unicode="&#xba;" 
d="M320 346q-64 0 -102.5 40t-38.5 104q0 48 13.5 88.5t38.5 70t61 45.5t80 16q64 0 102.5 -40t38.5 -104q0 -48 -13.5 -88.5t-39 -70t-61 -45.5t-79.5 -16zM328 404q43 0 68 25.5t32 66.5l10 60q2 8 2 13v11q0 32 -19.5 52t-57.5 20q-43 0 -67.5 -25.5t-31.5 -66.5l-10 -60
q-2 -8 -2 -13v-11q0 -32 19 -52t57 -20z" />
    <glyph glyph-name="degree" unicode="&#xb0;" 
d="M330 363q-70 0 -114.5 42t-44.5 115q0 40 14.5 74.5t40 60t60.5 40.5t76 15q35 0 64 -11t50 -31.5t33 -49.5t12 -65q0 -41 -14.5 -75.5t-40 -60t-60.5 -40t-76 -14.5zM333 431q25 0 46 9t36 25.5t23 38t8 47.5q0 40 -22.5 65.5t-64.5 25.5q-25 0 -46 -9.5t-36 -25.5
t-23 -38t-8 -47q0 -41 22.5 -66t64.5 -25z" />
    <glyph glyph-name="asterisk" unicode="*" 
d="M147 52l-61 49l148 164l-181 68l35 70l184 -64l35 209h82l-35 -209l200 64l11 -74l-202 -67l94 -164l-68 -46l-94 168z" />
    <glyph glyph-name="dagger" unicode="&#x2020;" 
d="M184 -200l107 645h-191l12 71h191l37 224h79l-38 -224h191l-12 -71h-191l-106 -645h-79z" />
    <glyph glyph-name="daggerdbl" unicode="&#x2021;" 
d="M184 -200l37 224h-191l12 71h191l58 350h-191l12 71h191l37 224h79l-38 -224h191l-12 -71h-191l-57 -350h191l-12 -71h-191l-37 -224h-79z" />
    <glyph glyph-name="numbersign" unicode="#" 
d="M136 213h-125l12 72h138l43 128h-125l12 72h138l72 213h81l-238 -698h-81zM487 698h81l-73 -213h125l-12 -72h-138l-43 -128h125l-12 -72h-138l-72 -213h-81z" />
    <glyph glyph-name="asciicircum" unicode="^" 
d="M498 286l-130 331h-5l-236 -332l-68 38l267 375h101l147 -381z" />
    <glyph glyph-name="asciitilde" unicode="~" 
d="M409 232q-32 0 -57.5 10t-49.5 23q-26 13 -49.5 24t-46.5 11q-29 0 -49 -18.5t-37 -49.5l-65 36q23 50 60.5 80t91.5 30q32 0 57.5 -10t49.5 -23q26 -13 49.5 -24t46.5 -11q29 0 49 18.5t37 49.5l65 -36q-23 -50 -60.5 -80t-91.5 -30z" />
    <glyph glyph-name="plus" unicode="+" 
d="M226 62l34 205h-194l13 76h194l34 205h84l-34 -205h194l-13 -76h-194l-34 -205h-84z" />
    <glyph glyph-name="minus" unicode="&#x2212;" 
d="M66 267l13 76h472l-13 -76h-472z" />
    <glyph glyph-name="plusminus" unicode="&#xb1;" 
d="M242 156l32 194h-194l13 76h194l32 194h84l-32 -194h194l-13 -76h-194l-32 -194h-84zM21 0l13 76h473l-13 -76h-473z" />
    <glyph glyph-name="multiply" unicode="&#xd7;" 
d="M303 253l-188 -162l-48 58l189 162l-132 159l59 50l133 -161l188 162l48 -58l-189 -162l132 -159l-59 -50z" />
    <glyph glyph-name="divide" unicode="&#xf7;" 
d="M66 267l13 76h472l-13 -76h-472zM268 48q-34 0 -47.5 12.5t-13.5 29.5q0 8 1 15.5t3 14.5q5 23 21 38t51 15q34 0 47.5 -12.5t13.5 -29.5q0 -8 -1 -15.5t-3 -14.5q-5 -23 -21 -38t-51 -15zM333 437q-34 0 -47.5 12.5t-13.5 30.5q0 7 1 14.5t3 14.5q5 23 21 38t51 15
q34 0 47.5 -12.5t13.5 -30.5q0 -7 -1 -14.5t-3 -14.5q-5 -23 -21 -38t-51 -15z" />
    <glyph glyph-name="equal" unicode="=" 
d="M83 370l13 76h472l-13 -76h-472zM49 165l13 76h472l-13 -76h-472z" />
    <glyph glyph-name="approxequal" unicode="&#x2248;" 
d="M426 334q-32 0 -57.5 10t-49.5 23q-26 13 -49.5 24t-46.5 11q-29 0 -49 -18.5t-37 -49.5l-65 36q23 50 60.5 80t91.5 30q32 0 57.5 -10t49.5 -23q26 -13 49.5 -24t46.5 -11q29 0 49 18.5t37 49.5l65 -36q-23 -50 -60.5 -80t-91.5 -30zM393 132q-32 0 -57.5 10t-49.5 23
q-26 13 -49.5 24t-46.5 11q-29 0 -49 -18.5t-37 -49.5l-65 36q23 50 60.5 80t91.5 30q32 0 57.5 -10t49.5 -23q26 -13 49.5 -24t46.5 -11q29 0 49 18.5t37 49.5l65 -36q-23 -50 -60.5 -80t-91.5 -30z" />
    <glyph glyph-name="notequal" unicode="&#x2260;" 
d="M96 66l70 99h-117l13 76h160l90 129h-229l13 76h268l70 99h87l-70 -99h117l-13 -76h-160l-90 -129h229l-13 -76h-268l-70 -99h-87z" />
    <glyph glyph-name="less" unicode="&#x3c;" 
d="M87 262l15 88l468 245l-16 -96l-375 -194l-1 -8l310 -194l-15 -85z" />
    <glyph glyph-name="greater" unicode="&#x3e;" 
d="M64 115l375 193l1 8l-310 194l15 85l386 -244l-15 -88l-468 -246z" />
    <glyph glyph-name="lessequal" unicode="&#x2264;" 
d="M44 0l13 76h428l-13 -76h-428zM555 502l-364 -144l-1 -7l317 -142l-14 -84l-396 186l16 95l457 185z" />
    <glyph glyph-name="greaterequal" unicode="&#x2265;" 
d="M83 214l364 144l1 7l-318 142l15 84l396 -185l-16 -95l-457 -186zM58 76h428l-12 -76h-429z" />
    <glyph glyph-name="periodcentered" unicode="&#xb7;" 
d="M297 230q-38 0 -54.5 14.5t-16.5 34.5q0 11 5 36q5 28 25 45.5t62 17.5q38 0 54.5 -14.5t16.5 -34.5q0 -11 -5 -36q-5 -28 -25 -45.5t-62 -17.5z" />
    <glyph glyph-name="bullet" unicode="&#x2022;" 
d="M289 181q-61 0 -86 25t-25 63q0 5 1 15t5 33q8 48 41 79.5t102 31.5q61 0 86 -25t25 -63q0 -5 -1 -15t-5 -33q-8 -48 -41 -79.5t-102 -31.5z" />
    <glyph glyph-name="lozenge" unicode="&#x25ca;" 
d="M214 0l-159 349l274 349h85l159 -349l-273 -349h-86zM270 81l215 273l-120 263h-7l-214 -273l120 -263h6z" />
    <glyph glyph-name="logicalnot" unicode="&#xac;" 
d="M416 74l32 193h-382l13 76h460l-45 -269h-78z" />
    <glyph glyph-name="radical" unicode="&#x221a;" 
d="M206 0l-51 443h-97l12 73h161l19 -169l26 -275h5l122 275l158 351h89l-321 -698h-123z" />
    <glyph glyph-name="integral" unicode="&#x222b;" 
d="M179 -212q-18 0 -34 7t-33 21.5t-37.5 37t-48.5 54.5l-58 65l62 52l146 -158l16 4l124 746q9 54 43.5 88.5t97.5 34.5h174l-13 -76h-204l-126 -761q-8 -50 -34 -82.5t-75 -32.5z" />
    <glyph glyph-name="infinity" unicode="&#x221e;" 
d="M137 126q-23 0 -44.5 8.5t-38.5 26t-27.5 45t-10.5 66.5q0 43 12 81.5t34.5 67.5t54.5 46.5t72 17.5q56 0 91 -34.5t48 -97.5h5q21 66 59.5 99t84.5 33q23 0 44.5 -8.5t38.5 -26t27.5 -45t10.5 -66.5q0 -43 -12 -81.5t-34.5 -68t-54.5 -46.5t-72 -17q-56 0 -91.5 34
t-47.5 97h-5q-21 -66 -59.5 -98.5t-84.5 -32.5zM158 195q35 0 63.5 26.5t51.5 76.5q-3 26 -8.5 47.5t-14.5 37t-23 24t-35 8.5q-35 0 -58.5 -24t-30.5 -71q-2 -11 -4 -28t-2 -29q0 -31 16 -49.5t45 -18.5zM422 196q35 0 58 24t30 71q2 11 4.5 28t2.5 29q0 31 -16 49t-45 18
q-35 0 -63.5 -26.5t-51.5 -76.5q7 -52 23.5 -84t57.5 -32z" />
    <glyph glyph-name="uni212E" unicode="&#x212e;" 
d="M153 104q23 -27 60.5 -47.5t86.5 -20.5q38 0 68.5 10t55 28t44 43t35.5 55l44 -24q-18 -33 -41.5 -62t-53.5 -51t-68 -34.5t-84 -12.5q-62 0 -112.5 27.5t-86.5 75.5t-55.5 114t-19.5 144t19.5 144t55.5 114t86.5 75.5t112.5 27.5t112.5 -27.5t86.5 -75.5t55.5 -114
t19.5 -144h-421v-245zM447 391v208q-24 28 -61.5 46.5t-85.5 18.5t-85.5 -18.5t-61.5 -46.5v-208h294z" />
    <glyph glyph-name="uni2113" unicode="&#x2113;" 
d="M322 -12q-78 0 -121.5 47t-43.5 124v22q-14 -10 -28 -19.5t-28 -17.5l-38 61q23 14 47.5 29.5t44.5 30.5v288q0 54 11.5 92t32 61.5t48.5 34.5t62 11q72 0 110 -44t38 -127q0 -99 -54.5 -183t-158.5 -174v-44q0 -63 21.5 -89.5t60.5 -26.5q21 0 37.5 6.5t31 20t28 33.5
t27.5 47l67 -39q-12 -30 -29.5 -56.5t-41 -46t-54.5 -30.5t-70 -11zM310 676q-29 0 -47.5 -24.5t-18.5 -89.5v-242q61 61 94.5 122.5t33.5 127.5v18q0 48 -17 68t-45 20z" />
    <glyph glyph-name="uni2116" unicode="&#x2116;" 
d="M497 341q-88 0 -88 115q0 16 2 36t5 39q14 88 46.5 131.5t87.5 43.5q88 0 88 -115q0 -17 -2 -37t-5 -38q-14 -89 -46.5 -132t-87.5 -43zM-2 0l117 698h131l-10 -346l-9 -262h7l101 608h71l-117 -698h-131l10 346l9 262h-7l-101 -608h-71zM503 399q27 0 39 22.5t18 63.5
l13 79q2 8 3.5 19t1.5 21q0 19 -8 32t-26 13q-27 0 -39 -23.5t-18 -63.5l-13 -79q-2 -9 -3.5 -20t-1.5 -20q0 -20 8 -32t26 -12zM375 251l9 59h209l-10 -59h-208z" />
    <glyph glyph-name="partialdiff" unicode="&#x2202;" 
d="M255 -12q-47 0 -84 15t-63.5 43t-40.5 66.5t-14 86.5q0 64 18.5 119.5t51.5 97t79 65t101 23.5q52 0 92 -25t58 -67l4 2q-19 90 -83 162t-167 122h140q42 -24 77.5 -60t61.5 -81t40.5 -99t14.5 -115q0 -82 -20.5 -148t-58 -112t-90.5 -70.5t-117 -24.5zM264 65
q63 0 108 36.5t58 111.5l9 56q2 16 3 26t1 20q0 56 -32.5 84t-87.5 28q-63 0 -108 -36.5t-58 -111.5l-9 -56q-2 -16 -3 -26t-1 -20q0 -56 32.5 -84t87.5 -28z" />
    <glyph glyph-name="cent" unicode="&#xa2;" 
d="M224 -8q-75 14 -113.5 71t-38.5 143q0 68 18 124.5t50 98t76.5 67t97.5 30.5l17 104h71l-17 -106q63 -9 96.5 -42.5t46.5 -78.5l-76 -30q-12 35 -31.5 53t-51.5 24l-64 -385q14 2 29 8t32.5 19.5t38 35.5t45.5 57l62 -37q-46 -73 -95.5 -113t-121.5 -46l-17 -103h-71z
M162 187q0 -51 21 -79.5t58 -38.5l63 381q-51 -8 -83.5 -48t-43.5 -107l-10 -61q-3 -17 -4 -27t-1 -20z" />
    <glyph glyph-name="Euro" unicode="&#x20ac;" 
d="M288 -12q-111 0 -163 67.5t-52 189.5q0 95 20.5 179.5t61 148t100.5 100.5t139 37q48 0 81.5 -13t57 -34.5t37 -49t20.5 -55.5l-82 -33q-6 22 -15 41t-23 33t-34.5 22t-50.5 8q-67 0 -111.5 -42.5t-67.5 -117.5h225l-12 -73h-229q-5 -27 -8.5 -53.5t-5.5 -41.5h227
l-12 -73h-223q0 -32 6 -61t21 -50.5t39.5 -34.5t61.5 -13q29 0 51 7.5t40 22t34.5 35.5t35.5 49l71 -41q-21 -33 -43.5 -61.5t-50.5 -49t-63.5 -32t-82.5 -11.5z" />
    <glyph glyph-name="florin" unicode="&#x192;" 
d="M136 -212q-20 0 -36 6t-32.5 18.5t-34.5 32t-42 47.5l-74 83l61 50l145 -160l18 8l129 489h-158l13 76h165l37 139q15 54 53 87.5t101 33.5h157l-13 -76h-194l-49 -184h187l-13 -76h-194l-124 -469q-14 -51 -37 -78t-65 -27z" />
    <glyph glyph-name="sterling" unicode="&#xa3;" 
d="M465 -12q-27 0 -61 8t-70 18l-213 54l-10 -68h-91l15 91q27 12 49.5 27.5t38 36t24.5 48t9 64.5v20t-2 17h-102l12 74h77q-5 20 -7.5 40t-2.5 43q0 54 18 100t50.5 79t78 51.5t99.5 18.5q45 0 80 -12t60.5 -31.5t41 -45t22.5 -51.5l-79 -36q-7 20 -17.5 37.5t-26 30.5
t-37 20.5t-49.5 7.5q-69 0 -107.5 -46t-38.5 -131q0 -20 2 -38.5t6 -36.5h179l-12 -74h-154q2 -7 2.5 -15.5t0.5 -16.5q0 -24 -5.5 -46t-17.5 -39.5t-30 -29.5t-42 -15l-2 -5l309 -65l11 11l-29 122l69 21l15 -37q11 -29 18 -56t7 -51q0 -41 -22.5 -67.5t-65.5 -26.5z" />
    <glyph glyph-name="dollar" unicode="$" 
d="M221 -9q-71 9 -121.5 40.5t-77.5 78.5l67 57q28 -42 63.5 -65.5t83.5 -30.5l41 251l-16 4q-161 39 -161 173q0 47 17 85t48.5 65.5t76 43t98.5 17.5l17 101h70l-18 -105q66 -9 110 -39t67 -70l-66 -53q-46 70 -126 82l-40 -234l24 -6q84 -20 122.5 -62.5t38.5 -108.5
q0 -48 -17.5 -88.5t-49.5 -70.5t-78 -47.5t-104 -20.5l-17 -101h-70zM195 507q0 -43 24.5 -64.5t72.5 -34.5l37 220q-64 -5 -99 -37t-35 -84zM444 206q0 39 -24 63.5t-80 37.5l-39 -237q67 7 105 43t38 93z" />
    <glyph glyph-name="yen" unicode="&#xa5;" 
d="M43 76h182l29 172h-183l13 76h139l-130 374h99l115 -361h4l237 361h107l-255 -374h139l-13 -76h-182l-29 -172h184l-13 -76h-456z" />
    <glyph glyph-name="uni0E3F" unicode="&#xe3f;" 
d="M269 -113h-70l19 113h-175l116 698h174l19 113h70l-19 -113q84 -2 126.5 -45.5t42.5 -113.5q0 -71 -39.5 -116t-105.5 -61v-3q48 -13 78 -45.5t30 -94.5q0 -45 -16 -84.5t-46.5 -69.5t-74 -47.5t-97.5 -17.5h-13zM286 396l36 225h-86l-36 -225h86zM478 548q0 37 -23.5 54
t-66.5 18l-36 -224q105 6 118 90l5 30q3 18 3 32zM232 77l41 246h-86l-41 -246h86zM441 244q0 37 -26 57.5t-76 21.5l-40 -245q115 0 133 99l5 30q2 9 3 18.5t1 18.5z" />
    <glyph glyph-name="uni20A1" unicode="&#x20a1;" 
d="M257 -11q-15 2 -28 4.5t-25 6.5l-30 -113h-63l37 143q-76 63 -76 210q0 82 16 159.5t48 140t79.5 105.5t110.5 57l29 109h63l-27 -101q17 0 30.5 -1.5t24.5 -3.5l28 106h63l-33 -127q38 -22 59.5 -56.5t30.5 -75.5l-83 -29q-5 20 -12.5 38.5t-19.5 32.5l-139 -522
q37 11 62 40.5t54 74.5l74 -37q-20 -33 -41 -60.5t-46 -48t-55 -34t-68 -17.5l-27 -103h-63zM383 634q-9 0 -13 -1l-147 -551q24 -14 56 -17l149 563q-20 6 -45 6zM164 220q0 -47 14 -83l127 478q-47 -25 -76 -79t-40 -129l-17 -105q-4 -23 -6 -44t-2 -38z" />
    <glyph glyph-name="uni20A4" unicode="&#x20a4;" 
d="M468 -12q-32 0 -64 8t-70 18l-213 53l-10 -67h-91l14 91q47 21 79 52.5t40 88.5h-114l11 67h104q-2 20 -5.5 39.5t-8.5 39.5h-77l12 67h56v13q0 56 18 102.5t50.5 79.5t77.5 51.5t99 18.5q45 0 80 -12t60.5 -31.5t41.5 -44.5t23 -52l-79 -36q-7 20 -17.5 37.5t-26 30.5
t-37 20.5t-49.5 7.5q-70 0 -108.5 -45.5t-38.5 -130.5v-9h199l-12 -67h-178q4 -20 7.5 -40t5.5 -39h152l-11 -67h-144q-8 -34 -29.5 -59.5t-59.5 -30.5l-2 -5l309 -65l11 11l-29 122l69 21l15 -37q11 -29 18 -56t7 -52q0 -40 -23 -66.5t-62 -26.5z" />
    <glyph glyph-name="uni20A6" unicode="&#x20a6;" 
d="M297 246h-128l-41 -246h-77l40 242h-61l12 70h61l12 74h-61l12 70h61l40 242h133l41 -246h128l41 246h77l-40 -242h61l-12 -70h-61l-12 -74h61l-12 -70h-61l-40 -242h-133zM288 307l-51 306h-7l-51 -306h109zM401 85h7l51 306h-109z" />
    <glyph glyph-name="uni20A8" unicode="&#x20a8;" 
d="M8 0l115 698h130q78 0 113.5 -38.5t35.5 -111.5q0 -35 -8 -68t-24.5 -61t-41.5 -49.5t-60 -31.5l38 -164q14 -59 38 -86.5t69 -27.5q38 0 55.5 17.5t17.5 46.5q0 23 -10.5 43.5t-27.5 40.5l-15 17q-23 26 -37.5 53t-14.5 61q0 28 10 53t28.5 44t45.5 29.5t60 10.5
q26 0 49.5 -7t42.5 -24l-41 -59q-11 9 -24.5 15t-30.5 6q-27 0 -42.5 -16.5t-15.5 -42.5q0 -18 9.5 -34t29.5 -42l12 -15q11 -14 21.5 -28t18 -29t12 -32t4.5 -38q0 -62 -40 -102t-124 -40q-78 0 -121.5 40.5t-62.5 124.5l-37 169h-37l-54 -322h-86zM200 396q47 0 71.5 18
t31.5 62l10 60q1 5 1.5 12t0.5 13q0 60 -77 60h-40l-38 -225h40z" />
    <glyph glyph-name="uni20A9" unicode="&#x20a9;" 
d="M86 252h-60l12 70h58l11 84h-55l11 70h53l31 222h84l-36 -227h286l40 227h82l-44 -222h53l-12 -70h-55l-16 -84h58l-12 -70h-60l-51 -252h-138l10 412h-18l-128 -412h-138zM152 78l105 334h-73l-50 -334h18zM411 78l61 334h-73l-6 -334h18z" />
    <glyph glyph-name="uni20AA" unicode="&#x20aa;" 
d="M244 547h80l-80 -479h83q51 0 85 28t44 86l85 516h81l-84 -506q-16 -97 -70 -144.5t-144 -47.5h-171zM131 698h165q78 0 118.5 -37.5t40.5 -110.5q0 -11 -1 -25t-4 -31l-56 -343h-80l60 363q2 8 3 17.5t1 19.5q0 79 -91 79h-86l-104 -630h-81z" />
    <glyph glyph-name="uni20AB" unicode="&#x20ab;" 
d="M403 237h-5q-23 -44 -62.5 -73.5t-96.5 -29.5q-67 0 -106 42t-39 123q0 60 16.5 108.5t45 82t66.5 51.5t82 18q30 0 52.5 -9t38 -23.5t25.5 -33t16 -37.5h4l26 157h-147l11 69h147l10 58h86l-9 -58h64l-11 -69h-65l-79 -470h-86zM274 205q27 0 51 8.5t43 23t31 34.5
t16 43l13 77q4 19 -2 37t-20 31t-35 21t-47 8q-60 0 -90.5 -30.5t-38.5 -81.5q-6 -38 -8.5 -55.5t-2.5 -27.5q0 -40 24 -64t66 -24zM42 0l12 74h437l-12 -74h-437z" />
    <glyph glyph-name="uni20AD" unicode="&#x20ad;" 
d="M134 0h-95l54 322h-71l13 77h71l50 299h95l-50 -299h47l255 299h108l-255 -299h205l-13 -77h-207l163 -322h-105l-158 322h-53z" />
    <glyph glyph-name="uni20AE" unicode="&#x20ae;" 
d="M339 209l-35 -209h-93l28 166l-147 -64l12 75l147 63l15 90l-147 -63l12 75l147 63l36 213h-229l14 80h550l-13 -80h-229l-28 -170l147 63l-14 -76l-147 -63l-14 -88l147 64l-12 -75z" />
    <glyph glyph-name="uni20B1" unicode="&#x20b1;" 
d="M98 334h-54l12 70h53l14 81h-54l12 70h53l24 143h232q148 0 166 -143h68l-12 -70h-55q-2 -44 -9 -81h51l-12 -70h-62q-31 -70 -87 -106.5t-131 -36.5h-140l-31 -191h-93zM472 552q-6 72 -95 72h-138l-12 -72h245zM452 401q5 26 8 50t5 37h-249l-14 -87h250zM312 265
q48 0 80.5 18.5t46.5 53.5h-248l-12 -72h133z" />
    <glyph glyph-name="uni20B2" unicode="&#x20b2;" 
d="M168 6q-53 26 -80 85t-27 150q0 94 19.5 179.5t58.5 149.5t98.5 102t139.5 38h11t15 -1l34 102h73l-41 -119q47 -22 72 -60.5t33 -83.5l-78 -26q-6 29 -18.5 52.5t-37.5 37.5l-88 -263h189l-18 -104q-9 -56 -29 -103.5t-52.5 -81.5t-80 -53t-111.5 -19h-7t-9 1l-34 -102
h-71zM152 224q0 -47 11.5 -81.5t34.5 -54.5l182 541q-8 1 -12 1h-8q-39 0 -70 -16t-53.5 -45.5t-37.5 -71t-23 -91.5l-17 -102q-4 -23 -5.5 -44t-1.5 -36zM256 64q4 0 7.5 -0.5t7.5 -0.5q67 0 109 43.5t56 124.5l8 47h-116z" />
    <glyph glyph-name="uni20B4" unicode="&#x20b4;" 
d="M287 -12q-45 0 -81 13.5t-61.5 37.5t-39 56t-13.5 70q0 27 7 48t16 38h-86l11 67h125l173 86l1 4h-284l11 67h366q7 11 11 24.5t4 30.5q0 49 -28.5 75.5t-80.5 26.5q-36 0 -70.5 -14t-63.5 -42l-47 64q39 35 88 52.5t101 17.5q45 0 80.5 -12t60 -34t38 -51.5t13.5 -65.5
q0 -23 -4.5 -40.5t-11.5 -31.5h87l-11 -67h-127l-174 -86l-1 -4h287l-11 -67h-365q-12 -17 -19 -36t-7 -42q0 -50 31 -78.5t82 -28.5q38 0 75 18.5t82 60.5l50 -62q-44 -48 -100 -71.5t-114 -23.5z" />
    <glyph glyph-name="uni20B5" unicode="&#x20b5;" 
d="M176 11q-54 29 -79 88t-25 144q0 93 20 178t60 149t99.5 102t138.5 38h9.5t9.5 -1l34 102h72l-39 -116q52 -20 77 -60.5t33 -85.5l-80 -27q-7 31 -19.5 56.5t-38.5 39.5l-185 -550q9 -2 15 -2.5t12 -0.5q32 0 55 8.5t42 25t35 39.5t34 52l74 -34q-22 -38 -45 -68.5
t-51.5 -53t-65 -34.5t-85.5 -12q-22 0 -43 3l-35 -104h-71zM163 219q0 -85 43 -124l180 538h-5q-41 0 -73 -16.5t-56 -46.5t-40 -71.5t-24 -91.5l-17 -105q-4 -23 -6 -44t-2 -39z" />
    <glyph glyph-name="uni20B8" unicode="&#x20b8;" 
d="M109 623l13 75h504l-13 -75h-504zM382 462l-77 -462h-95l77 462h-204l13 75h503l-13 -75h-204z" />
    <glyph glyph-name="uni20B9" unicode="&#x20b9;" 
d="M357 0l-166 283h-131l13 76h156q69 0 104.5 27t46.5 78h-289l12 72h283q-3 45 -26 65.5t-79 20.5h-164l13 76h497l-13 -76h-198l-1 -5q23 -9 38.5 -27.5t19.5 -53.5h127l-12 -72h-116q-21 -149 -179 -176l173 -288h-109z" />
    <glyph glyph-name="uni20BA" unicode="&#x20ba;" 
d="M146 237l-100 -43l13 76l100 44l15 86l-101 -44l13 76l100 44l37 222h93l-30 -179l191 83l-13 -76l-191 -83l-14 -86l191 84l-13 -76l-191 -84l-33 -200h65q77 0 128 57t68 167h90q-10 -69 -34 -125.5t-61 -96t-86.5 -61.5t-110.5 -22h-165z" />
    <glyph glyph-name="uni20BD" unicode="&#x20bd;" 
d="M199 131l-22 -131h-94l21 131h-78l12 76h78l14 84h-78l13 76h78l55 331h225q90 0 133 -46t43 -123q0 -110 -61 -174t-173 -64h-140l-14 -84h222l-13 -76h-221zM238 367h130q52 0 84.5 25t40.5 73l6 37q3 21 3 33q0 42 -24.5 63t-70.5 21h-128z" />
    <glyph glyph-name="uni20BF" unicode="&#x20bf;" 
d="M273 0h-68l-19 -113h-66l19 113h-95l117 698h95l19 113h66l-19 -113h68l19 113h66l-21 -122q52 -15 79 -55t27 -97q0 -70 -37 -113.5t-98 -59.5l-1 -4q48 -14 78.5 -46t30.5 -93q0 -42 -14 -79.5t-39.5 -67t-61 -49t-79.5 -24.5l-19 -114h-66zM204 396h126q110 0 125 91
l5 30q3 18 3 32q0 38 -25 55t-70 17h-127zM151 77h140q59 0 94 24.5t43 76.5l5 29q2 9 3 18.5t1 19.5q0 37 -26.5 57t-77.5 20h-141z" />
    <glyph glyph-name="fi" unicode="&#xfb01;" 
d="M137 440h-66l13 76h66l17 102q9 53 42.5 87.5t96.5 34.5h109l-13 -76h-136l-25 -148h310l-86 -516h-91l74 440h-220l-73 -440h-91zM528 622q-35 0 -49 13t-14 31q0 13 4 32q5 25 21.5 38t49.5 13q35 0 49 -13t14 -31q0 -13 -4 -32q-5 -25 -21.5 -38t-49.5 -13z" />
    <glyph glyph-name="fl" unicode="&#xfb02;" 
d="M137 440h-66l13 76h66l17 102q9 53 42.5 87.5t96.5 34.5h118l-13 -76h-145l-25 -148h149l-13 -76h-149l-73 -440h-91zM497 740h91l-123 -740h-91z" />
    <glyph glyph-name="aacute" unicode="&#xe1;" 
d="M376 0l20 122h-3q-30 -60 -72 -97t-109 -37q-79 0 -119 51t-40 149q0 57 13.5 117t42.5 109.5t75 81.5t111 32q116 0 148 -103h4l15 91h91l-86 -516h-91zM246 65q63 0 114 56q19 20 34 49.5t21 64.5l18 108q8 51 -23 79.5t-87 28.5q-71 0 -111 -42.5t-52 -112.5l-11 -69
q-4 -23 -4 -45q0 -54 25 -85.5t76 -31.5zM343 582l-55 32l109 170l77 -43z" />
    <glyph glyph-name="abreve" unicode="&#x103;" 
d="M376 0l20 122h-3q-30 -60 -72 -97t-109 -37q-79 0 -119 51t-40 149q0 57 13.5 117t42.5 109.5t75 81.5t111 32q116 0 148 -103h4l15 91h91l-86 -516h-91zM246 65q63 0 114 56q19 20 34 49.5t21 64.5l18 108q8 51 -23 79.5t-87 28.5q-71 0 -111 -42.5t-52 -112.5l-11 -69
q-4 -23 -4 -45q0 -54 25 -85.5t76 -31.5zM339 590q-41 0 -67.5 15t-43 38t-25.5 50.5t-13 51.5l55 25l16 -35q16 -37 31.5 -55.5t48.5 -18.5q15 0 27 4.5t23 13.5t23 23t28 34l27 34l56 -25q-12 -25 -28 -52.5t-38 -50t-51.5 -37.5t-68.5 -15z" />
    <glyph glyph-name="acircumflex" unicode="&#xe2;" 
d="M376 0l20 122h-3q-30 -60 -72 -97t-109 -37q-79 0 -119 51t-40 149q0 57 13.5 117t42.5 109.5t75 81.5t111 32q116 0 148 -103h4l15 91h91l-86 -516h-91zM246 65q63 0 114 56q19 20 34 49.5t21 64.5l18 108q8 51 -23 79.5t-87 28.5q-71 0 -111 -42.5t-52 -112.5l-11 -69
q-4 -23 -4 -45q0 -54 25 -85.5t76 -31.5zM414 769l91 -149l-52 -33l-98 117l-136 -117l-45 38l137 144h103z" />
    <glyph glyph-name="adieresis" unicode="&#xe4;" 
d="M376 0l20 122h-3q-30 -60 -72 -97t-109 -37q-79 0 -119 51t-40 149q0 57 13.5 117t42.5 109.5t75 81.5t111 32q116 0 148 -103h4l15 91h91l-86 -516h-91zM246 65q63 0 114 56q19 20 34 49.5t21 64.5l18 108q8 51 -23 79.5t-87 28.5q-71 0 -111 -42.5t-52 -112.5l-11 -69
q-4 -23 -4 -45q0 -54 25 -85.5t76 -31.5zM245 614q-32 0 -44.5 11.5t-12.5 27.5q0 10 5 27q6 20 18.5 33t45.5 13q32 0 44.5 -11.5t12.5 -27.5q0 -10 -5 -27q-6 -20 -18.5 -33t-45.5 -13zM437 614q-32 0 -44.5 11.5t-12.5 27.5q0 10 5 27q6 20 18.5 33t45.5 13
q32 0 44.5 -11.5t12.5 -27.5q0 -10 -5 -27q-6 -20 -18.5 -33t-45.5 -13z" />
    <glyph glyph-name="uni1EA1" unicode="&#x1ea1;" 
d="M376 0l20 122h-3q-30 -60 -72 -97t-109 -37q-79 0 -119 51t-40 149q0 57 13.5 117t42.5 109.5t75 81.5t111 32q116 0 148 -103h4l15 91h91l-86 -516h-91zM246 65q63 0 114 56q19 20 34 49.5t21 64.5l18 108q8 51 -23 79.5t-87 28.5q-71 0 -111 -42.5t-52 -112.5l-11 -69
q-4 -23 -4 -45q0 -54 25 -85.5t76 -31.5zM220 -177q-31 0 -43 11.5t-12 27.5q0 5 1 12.5t3 15.5q4 20 18 33t46 13q31 0 43 -11.5t12 -27.5q0 -5 -1 -12.5t-3 -15.5q-4 -20 -18 -33t-46 -13z" />
    <glyph glyph-name="agrave" unicode="&#xe0;" 
d="M376 0l20 122h-3q-30 -60 -72 -97t-109 -37q-79 0 -119 51t-40 149q0 57 13.5 117t42.5 109.5t75 81.5t111 32q116 0 148 -103h4l15 91h91l-86 -516h-91zM246 65q63 0 114 56q19 20 34 49.5t21 64.5l18 108q8 51 -23 79.5t-87 28.5q-71 0 -111 -42.5t-52 -112.5l-11 -69
q-4 -23 -4 -45q0 -54 25 -85.5t76 -31.5zM241 751l84 33l57 -178l-58 -24z" />
    <glyph glyph-name="uni1EA3" unicode="&#x1ea3;" 
d="M376 0l20 122h-3q-30 -60 -72 -97t-109 -37q-79 0 -119 51t-40 149q0 57 13.5 117t42.5 109.5t75 81.5t111 32q116 0 148 -103h4l15 91h91l-86 -516h-91zM246 65q63 0 114 56q19 20 34 49.5t21 64.5l18 108q8 51 -23 79.5t-87 28.5q-71 0 -111 -42.5t-52 -112.5l-11 -69
q-4 -23 -4 -45q0 -54 25 -85.5t76 -31.5zM274 770h111q36 0 52.5 -15t16.5 -38q0 -24 -13.5 -47t-37.5 -49l-43 -47l-48 28l67 99h-116z" />
    <glyph glyph-name="amacron" unicode="&#x101;" 
d="M376 0l20 122h-3q-30 -60 -72 -97t-109 -37q-79 0 -119 51t-40 149q0 57 13.5 117t42.5 109.5t75 81.5t111 32q116 0 148 -103h4l15 91h91l-86 -516h-91zM246 65q63 0 114 56q19 20 34 49.5t21 64.5l18 108q8 51 -23 79.5t-87 28.5q-71 0 -111 -42.5t-52 -112.5l-11 -69
q-4 -23 -4 -45q0 -54 25 -85.5t76 -31.5zM211 707h282l-12 -73h-282z" />
    <glyph glyph-name="aogonek" unicode="&#x105;" 
d="M467 0q-40 -26 -63.5 -45t-36 -33t-16.5 -24t-4 -18q0 -16 10 -23.5t25 -7.5q28 0 55 27l41 -44q-14 -16 -39.5 -28t-62.5 -12q-21 0 -39.5 4.5t-32.5 14t-22.5 24t-8.5 34.5q0 41 34.5 71t94.5 55v5h-26l20 122h-3q-30 -60 -72 -97t-109 -37q-79 0 -119 51t-40 149
q0 57 13.5 117t42.5 109.5t75 81.5t111 32q116 0 148 -103h4l15 91h91zM246 65q64 0 114 56q18 20 33.5 49.5t21.5 64.5l18 108q8 51 -23 79.5t-87 28.5q-71 0 -111 -42.5t-52 -112.5l-11 -69q-4 -23 -4 -45q0 -54 25 -85.5t76 -31.5z" />
    <glyph glyph-name="aring" unicode="&#xe5;" 
d="M376 0l20 122h-3q-30 -60 -72 -97t-109 -37q-79 0 -119 51t-40 149q0 57 13.5 117t42.5 109.5t75 81.5t111 32q116 0 148 -103h4l15 91h91l-86 -516h-91zM246 65q63 0 114 56q19 20 34 49.5t21 64.5l18 108q8 51 -23 79.5t-87 28.5q-71 0 -111 -42.5t-52 -112.5l-11 -69
q-4 -23 -4 -45q0 -54 25 -85.5t76 -31.5zM334 573q-46 0 -76 29t-30 74q0 28 11.5 52.5t30 42.5t43.5 28.5t52 10.5q46 0 76 -29t30 -74q0 -29 -11.5 -53.5t-30 -42.5t-43.5 -28t-52 -10zM339 625q26 0 43.5 14.5t22.5 40.5q4 23 4 35q0 43 -49 43q-26 0 -43.5 -14.5
t-22.5 -40.5q-4 -23 -4 -35q0 -43 49 -43z" />
    <glyph glyph-name="aringacute" unicode="&#x1fb;" 
d="M376 0l20 122h-3q-30 -60 -72 -97t-109 -37q-79 0 -119 51t-40 149q0 57 13.5 117t42.5 109.5t75 81.5t111 32q116 0 148 -103h4l15 91h91l-86 -516h-91zM246 65q63 0 114 56q19 20 34 49.5t21 64.5l18 108q8 51 -23 79.5t-87 28.5q-71 0 -111 -42.5t-52 -112.5l-11 -69
q-4 -23 -4 -45q0 -54 25 -85.5t76 -31.5zM373 812l-39 34l100 114l55 -46zM334 566q-47 0 -77 27.5t-30 72.5q0 27 11 50.5t30 41t43.5 27t51.5 9.5q47 0 77 -27.5t30 -72.5q0 -27 -11 -50.5t-30 -41t-43.5 -27t-51.5 -9.5zM339 617q24 0 41.5 12.5t23.5 41.5q2 11 2.5 18
t0.5 12q0 20 -12 31t-37 11q-24 0 -41.5 -12.5t-23.5 -41.5q-2 -11 -2.5 -18t-0.5 -12q0 -20 12 -31t37 -11z" />
    <glyph glyph-name="atilde" unicode="&#xe3;" 
d="M376 0l20 122h-3q-30 -60 -72 -97t-109 -37q-79 0 -119 51t-40 149q0 57 13.5 117t42.5 109.5t75 81.5t111 32q116 0 148 -103h4l15 91h91l-86 -516h-91zM246 65q63 0 114 56q19 20 34 49.5t21 64.5l18 108q8 51 -23 79.5t-87 28.5q-71 0 -111 -42.5t-52 -112.5l-11 -69
q-4 -23 -4 -45q0 -54 25 -85.5t76 -31.5zM412 608q-24 0 -40.5 9t-34.5 18t-34.5 16t-31.5 7q-16 0 -31 -7.5t-32 -21.5l-30 46q17 21 43.5 38t60.5 17q24 0 40.5 -9t34.5 -18t34.5 -16t31.5 -7q16 0 31 7.5t32 21.5l30 -46q-17 -21 -43.5 -38t-60.5 -17z" />
    <glyph glyph-name="uni1EAF" unicode="&#x1eaf;" 
d="M376 0l20 122h-3q-30 -60 -72 -97t-109 -37q-79 0 -119 51t-40 149q0 57 13.5 117t42.5 109.5t75 81.5t111 32q116 0 148 -103h4l15 91h91l-86 -516h-91zM246 65q63 0 114 56q19 20 34 49.5t21 64.5l18 108q8 51 -23 79.5t-87 28.5q-71 0 -111 -42.5t-52 -112.5l-11 -69
q-4 -23 -4 -45q0 -54 25 -85.5t76 -31.5zM335 581q-42 0 -69 13.5t-44.5 34t-26 45.5t-12.5 48l51 27l16 -31q19 -37 38 -52.5t51 -15.5q29 0 53.5 14.5t56.5 53.5l26 31l53 -27q-13 -25 -30 -50t-40 -45.5t-53.5 -33t-69.5 -12.5zM355 711l-50 29l107 171l73 -41z" />
    <glyph glyph-name="uni1EB7" unicode="&#x1eb7;" 
d="M376 0l20 122h-3q-30 -60 -72 -97t-109 -37q-79 0 -119 51t-40 149q0 57 13.5 117t42.5 109.5t75 81.5t111 32q116 0 148 -103h4l15 91h91l-86 -516h-91zM246 65q63 0 114 56q19 20 34 49.5t21 64.5l18 108q8 51 -23 79.5t-87 28.5q-71 0 -111 -42.5t-52 -112.5l-11 -69
q-4 -23 -4 -45q0 -54 25 -85.5t76 -31.5zM339 590q-41 0 -67.5 15t-43 38t-25.5 50.5t-13 51.5l55 25l16 -35q16 -37 31.5 -55.5t48.5 -18.5q15 0 27 4.5t23 13.5t23 23t28 34l27 34l56 -25q-12 -25 -28 -52.5t-38 -50t-51.5 -37.5t-68.5 -15zM220 -177q-31 0 -43 11.5
t-12 27.5q0 5 1 12.5t3 15.5q4 20 18 33t46 13q31 0 43 -11.5t12 -27.5q0 -5 -1 -12.5t-3 -15.5q-4 -20 -18 -33t-46 -13z" />
    <glyph glyph-name="uni1EB1" unicode="&#x1eb1;" 
d="M376 0l20 122h-3q-30 -60 -72 -97t-109 -37q-79 0 -119 51t-40 149q0 57 13.5 117t42.5 109.5t75 81.5t111 32q116 0 148 -103h4l15 91h91l-86 -516h-91zM246 65q63 0 114 56q19 20 34 49.5t21 64.5l18 108q8 51 -23 79.5t-87 28.5q-71 0 -111 -42.5t-52 -112.5l-11 -69
q-4 -23 -4 -45q0 -54 25 -85.5t76 -31.5zM335 581q-42 0 -69 13.5t-44.5 34t-26 45.5t-12.5 48l51 27l16 -31q19 -37 38 -52.5t51 -15.5q29 0 53.5 14.5t56.5 53.5l26 31l53 -27q-13 -25 -30 -50t-40 -45.5t-53.5 -33t-69.5 -12.5zM249 879l80 32l55 -178l-54 -22z" />
    <glyph glyph-name="uni1EB3" unicode="&#x1eb3;" 
d="M376 0l20 122h-3q-30 -60 -72 -97t-109 -37q-79 0 -119 51t-40 149q0 57 13.5 117t42.5 109.5t75 81.5t111 32q116 0 148 -103h4l15 91h91l-86 -516h-91zM246 65q63 0 114 56q19 20 34 49.5t21 64.5l18 108q8 51 -23 79.5t-87 28.5q-71 0 -111 -42.5t-52 -112.5l-11 -69
q-4 -23 -4 -45q0 -54 25 -85.5t76 -31.5zM335 581q-42 0 -69 13.5t-44.5 34t-26 45.5t-12.5 48l51 27l16 -31q19 -37 38 -52.5t51 -15.5q29 0 53.5 14.5t56.5 53.5l26 31l53 -27q-13 -25 -30 -50t-40 -45.5t-53.5 -33t-69.5 -12.5zM274 900h99q37 0 53.5 -15t16.5 -38
q0 -20 -12 -40.5t-34 -44.5l-52 -58l-46 28l69 99h-106z" />
    <glyph glyph-name="uni1EB5" unicode="&#x1eb5;" 
d="M376 0l20 122h-3q-30 -60 -72 -97t-109 -37q-79 0 -119 51t-40 149q0 57 13.5 117t42.5 109.5t75 81.5t111 32q116 0 148 -103h4l15 91h91l-86 -516h-91zM246 65q63 0 114 56q19 20 34 49.5t21 64.5l18 108q8 51 -23 79.5t-87 28.5q-71 0 -111 -42.5t-52 -112.5l-11 -69
q-4 -23 -4 -45q0 -54 25 -85.5t76 -31.5zM335 581q-41 0 -68.5 13.5t-44.5 34t-25.5 45.5t-12.5 48l50 27l16 -31q19 -37 37.5 -52.5t51.5 -15.5q29 0 53.5 14.5t56.5 53.5l25 31l55 -27q-13 -25 -30.5 -50t-40.5 -45.5t-53.5 -33t-69.5 -12.5zM426 778q-24 0 -42 7t-33 14
q-40 20 -65 20q-17 0 -31 -6.5t-31 -19.5l-30 40q18 22 43.5 38t61.5 16q25 0 43 -7t32 -14q22 -11 37 -15.5t29 -4.5q17 0 31 6.5t31 19.5l29 -40q-18 -22 -43.5 -38t-61.5 -16z" />
    <glyph glyph-name="uni1EA5" unicode="&#x1ea5;" 
d="M376 0l20 122h-3q-30 -60 -72 -97t-109 -37q-79 0 -119 51t-40 149q0 57 13.5 117t42.5 109.5t75 81.5t111 32q116 0 148 -103h4l15 91h91l-86 -516h-91zM246 65q63 0 114 56q19 20 34 49.5t21 64.5l18 108q8 51 -23 79.5t-87 28.5q-71 0 -111 -42.5t-52 -112.5l-11 -69
q-4 -23 -4 -45q0 -54 25 -85.5t76 -31.5zM507 711l-51 29l107 171l74 -41zM409 758l94 -147l-52 -34l-98 115l-137 -115l-44 39l140 142h97z" />
    <glyph glyph-name="uni1EAD" unicode="&#x1ead;" 
d="M376 0l20 122h-3q-30 -60 -72 -97t-109 -37q-79 0 -119 51t-40 149q0 57 13.5 117t42.5 109.5t75 81.5t111 32q116 0 148 -103h4l15 91h91l-86 -516h-91zM246 65q63 0 114 56q19 20 34 49.5t21 64.5l18 108q8 51 -23 79.5t-87 28.5q-71 0 -111 -42.5t-52 -112.5l-11 -69
q-4 -23 -4 -45q0 -54 25 -85.5t76 -31.5zM414 769l91 -149l-52 -33l-98 117l-136 -117l-45 38l137 144h103zM220 -177q-31 0 -43 11.5t-12 27.5q0 5 1 12.5t3 15.5q4 20 18 33t46 13q31 0 43 -11.5t12 -27.5q0 -5 -1 -12.5t-3 -15.5q-4 -20 -18 -33t-46 -13z" />
    <glyph glyph-name="uni1EA7" unicode="&#x1ea7;" 
d="M376 0l20 122h-3q-30 -60 -72 -97t-109 -37q-79 0 -119 51t-40 149q0 57 13.5 117t42.5 109.5t75 81.5t111 32q116 0 148 -103h4l15 91h91l-86 -516h-91zM246 65q63 0 114 56q19 20 34 49.5t21 64.5l18 108q8 51 -23 79.5t-87 28.5q-71 0 -111 -42.5t-52 -112.5l-11 -69
q-4 -23 -4 -45q0 -54 25 -85.5t76 -31.5zM116 883l79 32l56 -178l-53 -22zM409 758l94 -147l-52 -34l-98 115l-137 -115l-44 39l140 142h97z" />
    <glyph glyph-name="uni1EA9" unicode="&#x1ea9;" 
d="M376 0l20 122h-3q-30 -60 -72 -97t-109 -37q-79 0 -119 51t-40 149q0 57 13.5 117t42.5 109.5t75 81.5t111 32q116 0 148 -103h4l15 91h91l-86 -516h-91zM246 65q63 0 114 56q19 20 34 49.5t21 64.5l18 108q8 51 -23 79.5t-87 28.5q-71 0 -111 -42.5t-52 -112.5l-11 -69
q-4 -23 -4 -45q0 -54 25 -85.5t76 -31.5zM428 904h108q37 0 53.5 -15t16.5 -37q0 -21 -11 -40.5t-29 -39.5l-55 -64l-48 28l68 100h-115zM410 758l93 -147l-51 -34l-99 115l-136 -115l-44 39l140 142h97z" />
    <glyph glyph-name="uni1EAB" unicode="&#x1eab;" 
d="M376 0l20 122h-3q-30 -60 -72 -97t-109 -37q-79 0 -119 51t-40 149q0 57 13.5 117t42.5 109.5t75 81.5t111 32q116 0 148 -103h4l15 91h91l-86 -516h-91zM246 65q63 0 114 56q19 20 34 49.5t21 64.5l18 108q8 51 -23 79.5t-87 28.5q-71 0 -111 -42.5t-52 -112.5l-11 -69
q-4 -23 -4 -45q0 -54 25 -85.5t76 -31.5zM310 901q24 0 42 -8.5t33 -17.5q18 -11 34.5 -17t31.5 -6q17 0 31.5 7t31.5 21l30 -46q-17 -20 -43.5 -36.5t-59.5 -16.5q-25 0 -42.5 8.5t-33.5 17.5q-18 11 -34.5 17t-31.5 6q-16 0 -31 -7.5t-32 -20.5l-30 45q17 21 44 37.5
t60 16.5zM410 748l94 -138l-52 -33l-100 108l-135 -108l-44 41l138 130h99z" />
    <glyph glyph-name="aacute.alt01" 
d="M215 -12q-74 0 -116.5 35t-42.5 96q0 83 60 130t189 47h111l6 33q3 16 3 32q0 92 -107 92q-51 0 -84.5 -19.5t-60.5 -54.5l-54 50q13 19 33 36.5t46 31.5t58 22.5t70 8.5q88 0 138.5 -42.5t50.5 -110.5q0 -14 -1.5 -28.5t-3.5 -29.5l-53 -317h-88l15 91h-4
q-23 -45 -64 -74t-101 -29zM241 61q30 0 56 7.5t46 21t33.5 31t16.5 37.5l13 74h-111q-135 0 -144 -78q-2 -13 -2 -19v-14q0 -29 24.5 -44.5t67.5 -15.5zM353 582l-55 32l109 170l77 -43z" />
    <glyph glyph-name="abreve.alt01" 
d="M215 -12q-74 0 -116.5 35t-42.5 96q0 83 60 130t189 47h111l6 33q3 16 3 32q0 92 -107 92q-51 0 -84.5 -19.5t-60.5 -54.5l-54 50q13 19 33 36.5t46 31.5t58 22.5t70 8.5q88 0 138.5 -42.5t50.5 -110.5q0 -14 -1.5 -28.5t-3.5 -29.5l-53 -317h-88l15 91h-4
q-23 -45 -64 -74t-101 -29zM241 61q30 0 56 7.5t46 21t33.5 31t16.5 37.5l13 74h-111q-135 0 -144 -78q-2 -13 -2 -19v-14q0 -29 24.5 -44.5t67.5 -15.5zM349 590q-41 0 -67.5 15t-43 38t-25.5 50.5t-13 51.5l55 25l16 -35q16 -37 31.5 -55.5t48.5 -18.5q15 0 27 4.5
t23 13.5t23 23t28 34l27 34l56 -25q-12 -25 -28 -52.5t-38 -50t-51.5 -37.5t-68.5 -15z" />
    <glyph glyph-name="acircumflex.alt01" 
d="M215 -12q-74 0 -116.5 35t-42.5 96q0 83 60 130t189 47h111l6 33q3 16 3 32q0 92 -107 92q-51 0 -84.5 -19.5t-60.5 -54.5l-54 50q13 19 33 36.5t46 31.5t58 22.5t70 8.5q88 0 138.5 -42.5t50.5 -110.5q0 -14 -1.5 -28.5t-3.5 -29.5l-53 -317h-88l15 91h-4
q-23 -45 -64 -74t-101 -29zM241 61q30 0 56 7.5t46 21t33.5 31t16.5 37.5l13 74h-111q-135 0 -144 -78q-2 -13 -2 -19v-14q0 -29 24.5 -44.5t67.5 -15.5zM424 769l91 -149l-52 -33l-98 117l-136 -117l-45 38l137 144h103z" />
    <glyph glyph-name="adieresis.alt01" 
d="M215 -12q-74 0 -116.5 35t-42.5 96q0 83 60 130t189 47h111l6 33q3 16 3 32q0 92 -107 92q-51 0 -84.5 -19.5t-60.5 -54.5l-54 50q13 19 33 36.5t46 31.5t58 22.5t70 8.5q88 0 138.5 -42.5t50.5 -110.5q0 -14 -1.5 -28.5t-3.5 -29.5l-53 -317h-88l15 91h-4
q-23 -45 -64 -74t-101 -29zM241 61q30 0 56 7.5t46 21t33.5 31t16.5 37.5l13 74h-111q-135 0 -144 -78q-2 -13 -2 -19v-14q0 -29 24.5 -44.5t67.5 -15.5zM255 614q-32 0 -44.5 11.5t-12.5 27.5q0 10 5 27q6 20 18.5 33t45.5 13q32 0 44.5 -11.5t12.5 -27.5q0 -10 -5 -27
q-6 -20 -18.5 -33t-45.5 -13zM447 614q-32 0 -44.5 11.5t-12.5 27.5q0 10 5 27q6 20 18.5 33t45.5 13q32 0 44.5 -11.5t12.5 -27.5q0 -10 -5 -27q-6 -20 -18.5 -33t-45.5 -13z" />
    <glyph glyph-name="uni1EA1.alt01" 
d="M215 -12q-74 0 -116.5 35t-42.5 96q0 83 60 130t189 47h111l6 33q3 16 3 32q0 92 -107 92q-51 0 -84.5 -19.5t-60.5 -54.5l-54 50q13 19 33 36.5t46 31.5t58 22.5t70 8.5q88 0 138.5 -42.5t50.5 -110.5q0 -14 -1.5 -28.5t-3.5 -29.5l-53 -317h-88l15 91h-4
q-23 -45 -64 -74t-101 -29zM241 61q30 0 56 7.5t46 21t33.5 31t16.5 37.5l13 74h-111q-135 0 -144 -78q-2 -13 -2 -19v-14q0 -29 24.5 -44.5t67.5 -15.5zM229 -177q-31 0 -43 11.5t-12 27.5q0 5 1 12.5t3 15.5q4 20 18 33t46 13q31 0 43 -11.5t12 -27.5q0 -5 -1 -12.5
t-3 -15.5q-4 -20 -18 -33t-46 -13z" />
    <glyph glyph-name="agrave.alt01" 
d="M215 -12q-74 0 -116.5 35t-42.5 96q0 83 60 130t189 47h111l6 33q3 16 3 32q0 92 -107 92q-51 0 -84.5 -19.5t-60.5 -54.5l-54 50q13 19 33 36.5t46 31.5t58 22.5t70 8.5q88 0 138.5 -42.5t50.5 -110.5q0 -14 -1.5 -28.5t-3.5 -29.5l-53 -317h-88l15 91h-4
q-23 -45 -64 -74t-101 -29zM241 61q30 0 56 7.5t46 21t33.5 31t16.5 37.5l13 74h-111q-135 0 -144 -78q-2 -13 -2 -19v-14q0 -29 24.5 -44.5t67.5 -15.5zM251 751l84 33l57 -178l-58 -24z" />
    <glyph glyph-name="uni1EA3.alt01" 
d="M215 -12q-74 0 -116.5 35t-42.5 96q0 83 60 130t189 47h111l6 33q3 16 3 32q0 92 -107 92q-51 0 -84.5 -19.5t-60.5 -54.5l-54 50q13 19 33 36.5t46 31.5t58 22.5t70 8.5q88 0 138.5 -42.5t50.5 -110.5q0 -14 -1.5 -28.5t-3.5 -29.5l-53 -317h-88l15 91h-4
q-23 -45 -64 -74t-101 -29zM241 61q30 0 56 7.5t46 21t33.5 31t16.5 37.5l13 74h-111q-135 0 -144 -78q-2 -13 -2 -19v-14q0 -29 24.5 -44.5t67.5 -15.5zM284 770h111q36 0 52.5 -15t16.5 -38q0 -24 -13.5 -47t-37.5 -49l-43 -47l-48 28l67 99h-116z" />
    <glyph glyph-name="amacron.alt01" 
d="M215 -12q-74 0 -116.5 35t-42.5 96q0 83 60 130t189 47h111l6 33q3 16 3 32q0 92 -107 92q-51 0 -84.5 -19.5t-60.5 -54.5l-54 50q13 19 33 36.5t46 31.5t58 22.5t70 8.5q88 0 138.5 -42.5t50.5 -110.5q0 -14 -1.5 -28.5t-3.5 -29.5l-53 -317h-88l15 91h-4
q-23 -45 -64 -74t-101 -29zM241 61q30 0 56 7.5t46 21t33.5 31t16.5 37.5l13 74h-111q-135 0 -144 -78q-2 -13 -2 -19v-14q0 -29 24.5 -44.5t67.5 -15.5zM221 707h282l-12 -73h-282z" />
    <glyph glyph-name="aogonek.alt01" 
d="M366 -208q-21 0 -39.5 4.5t-32.5 14t-22.5 24t-8.5 34.5q0 41 34.5 71t95.5 55l-1 5h-23l15 91h-4q-23 -45 -64 -74t-101 -29q-74 0 -116.5 35t-42.5 96q0 83 60 130t189 47h111l6 33q3 16 3 32q0 92 -107 92q-51 0 -84.5 -19.5t-60.5 -54.5l-54 50q13 19 33 36.5
t46 31.5t58 22.5t70 8.5q88 0 138.5 -42.5t50.5 -110.5q0 -14 -1.5 -28.5t-3.5 -29.5l-53 -317q-40 -26 -63.5 -45t-36 -33t-16.5 -24t-4 -18q0 -16 10 -23.5t25 -7.5q28 0 55 27l41 -44q-14 -16 -39.5 -28t-62.5 -12zM241 61q30 0 56 7.5t46 21t33.5 31t16.5 37.5l13 74
h-111q-135 0 -144 -79q-2 -13 -2 -18.5v-13.5q0 -29 24.5 -44.5t67.5 -15.5z" />
    <glyph glyph-name="aring.alt01" 
d="M215 -12q-74 0 -116.5 35t-42.5 96q0 83 60 130t189 47h111l6 33q3 16 3 32q0 92 -107 92q-51 0 -84.5 -19.5t-60.5 -54.5l-54 50q13 19 33 36.5t46 31.5t58 22.5t70 8.5q88 0 138.5 -42.5t50.5 -110.5q0 -14 -1.5 -28.5t-3.5 -29.5l-53 -317h-88l15 91h-4
q-23 -45 -64 -74t-101 -29zM241 61q30 0 56 7.5t46 21t33.5 31t16.5 37.5l13 74h-111q-135 0 -144 -78q-2 -13 -2 -19v-14q0 -29 24.5 -44.5t67.5 -15.5zM344 573q-46 0 -76 29t-30 74q0 28 11.5 52.5t30 42.5t43.5 28.5t52 10.5q46 0 76 -29t30 -74q0 -29 -11.5 -53.5
t-30 -42.5t-43.5 -28t-52 -10zM349 625q26 0 43.5 14.5t22.5 40.5q4 23 4 35q0 43 -49 43q-26 0 -43.5 -14.5t-22.5 -40.5q-4 -23 -4 -35q0 -43 49 -43z" />
    <glyph glyph-name="aringacute.alt01" 
d="M215 -12q-74 0 -116.5 35t-42.5 96q0 83 60 130t189 47h111l6 33q3 16 3 32q0 92 -107 92q-51 0 -84.5 -19.5t-60.5 -54.5l-54 50q13 19 33 36.5t46 31.5t58 22.5t70 8.5q88 0 138.5 -42.5t50.5 -110.5q0 -14 -1.5 -28.5t-3.5 -29.5l-53 -317h-88l15 91h-4
q-23 -45 -64 -74t-101 -29zM241 61q30 0 56 7.5t46 21t33.5 31t16.5 37.5l13 74h-111q-135 0 -144 -78q-2 -13 -2 -19v-14q0 -29 24.5 -44.5t67.5 -15.5zM383 812l-39 34l100 114l55 -46zM344 566q-47 0 -77 27.5t-30 72.5q0 27 11 50.5t30 41t43.5 27t51.5 9.5
q47 0 77 -27.5t30 -72.5q0 -27 -11 -50.5t-30 -41t-43.5 -27t-51.5 -9.5zM349 617q24 0 41.5 12.5t23.5 41.5q2 11 2.5 18t0.5 12q0 20 -12 31t-37 11q-24 0 -41.5 -12.5t-23.5 -41.5q-2 -11 -2.5 -18t-0.5 -12q0 -20 12 -31t37 -11z" />
    <glyph glyph-name="atilde.alt01" 
d="M215 -12q-74 0 -116.5 35t-42.5 96q0 83 60 130t189 47h111l6 33q3 16 3 32q0 92 -107 92q-51 0 -84.5 -19.5t-60.5 -54.5l-54 50q13 19 33 36.5t46 31.5t58 22.5t70 8.5q88 0 138.5 -42.5t50.5 -110.5q0 -14 -1.5 -28.5t-3.5 -29.5l-53 -317h-88l15 91h-4
q-23 -45 -64 -74t-101 -29zM241 61q30 0 56 7.5t46 21t33.5 31t16.5 37.5l13 74h-111q-135 0 -144 -78q-2 -13 -2 -19v-14q0 -29 24.5 -44.5t67.5 -15.5zM422 608q-24 0 -40.5 9t-34.5 18t-34.5 16t-31.5 7q-16 0 -31 -7.5t-32 -21.5l-30 46q17 21 43.5 38t60.5 17
q24 0 40.5 -9t34.5 -18t34.5 -16t31.5 -7q16 0 31 7.5t32 21.5l30 -46q-17 -21 -43.5 -38t-60.5 -17z" />
    <glyph glyph-name="uni1EAF.alt01" 
d="M215 -12q-74 0 -116.5 35t-42.5 96q0 83 60 130t189 47h111l6 33q3 16 3 32q0 92 -107 92q-51 0 -84.5 -19.5t-60.5 -54.5l-54 50q13 19 33 36.5t46 31.5t58 22.5t70 8.5q88 0 138.5 -42.5t50.5 -110.5q0 -14 -1.5 -28.5t-3.5 -29.5l-53 -317h-88l15 91h-4
q-23 -45 -64 -74t-101 -29zM241 61q30 0 56 7.5t46 21t33.5 31t16.5 37.5l13 74h-111q-135 0 -144 -78q-2 -13 -2 -19v-14q0 -29 24.5 -44.5t67.5 -15.5zM345 581q-42 0 -69 13.5t-44.5 34t-26 45.5t-12.5 48l51 27l16 -31q19 -37 38 -52.5t51 -15.5q29 0 53.5 14.5
t56.5 53.5l26 31l53 -27q-13 -25 -30 -50t-40 -45.5t-53.5 -33t-69.5 -12.5zM365 711l-50 29l107 171l73 -41z" />
    <glyph glyph-name="uni1EB7.alt01" 
d="M215 -12q-74 0 -116.5 35t-42.5 96q0 83 60 130t189 47h111l6 33q3 16 3 32q0 92 -107 92q-51 0 -84.5 -19.5t-60.5 -54.5l-54 50q13 19 33 36.5t46 31.5t58 22.5t70 8.5q88 0 138.5 -42.5t50.5 -110.5q0 -14 -1.5 -28.5t-3.5 -29.5l-53 -317h-88l15 91h-4
q-23 -45 -64 -74t-101 -29zM241 61q30 0 56 7.5t46 21t33.5 31t16.5 37.5l13 74h-111q-135 0 -144 -78q-2 -13 -2 -19v-14q0 -29 24.5 -44.5t67.5 -15.5zM349 590q-41 0 -67.5 15t-43 38t-25.5 50.5t-13 51.5l55 25l16 -35q16 -37 31.5 -55.5t48.5 -18.5q15 0 27 4.5
t23 13.5t23 23t28 34l27 34l56 -25q-12 -25 -28 -52.5t-38 -50t-51.5 -37.5t-68.5 -15zM229 -177q-31 0 -43 11.5t-12 27.5q0 5 1 12.5t3 15.5q4 20 18 33t46 13q31 0 43 -11.5t12 -27.5q0 -5 -1 -12.5t-3 -15.5q-4 -20 -18 -33t-46 -13z" />
    <glyph glyph-name="uni1EB1.alt01" 
d="M215 -12q-74 0 -116.5 35t-42.5 96q0 83 60 130t189 47h111l6 33q3 16 3 32q0 92 -107 92q-51 0 -84.5 -19.5t-60.5 -54.5l-54 50q13 19 33 36.5t46 31.5t58 22.5t70 8.5q88 0 138.5 -42.5t50.5 -110.5q0 -14 -1.5 -28.5t-3.5 -29.5l-53 -317h-88l15 91h-4
q-23 -45 -64 -74t-101 -29zM241 61q30 0 56 7.5t46 21t33.5 31t16.5 37.5l13 74h-111q-135 0 -144 -78q-2 -13 -2 -19v-14q0 -29 24.5 -44.5t67.5 -15.5zM345 581q-42 0 -69 13.5t-44.5 34t-26 45.5t-12.5 48l51 27l16 -31q19 -37 38 -52.5t51 -15.5q29 0 53.5 14.5
t56.5 53.5l26 31l53 -27q-13 -25 -30 -50t-40 -45.5t-53.5 -33t-69.5 -12.5zM259 879l80 32l55 -178l-54 -22z" />
    <glyph glyph-name="uni1EB3.alt01" 
d="M215 -12q-74 0 -116.5 35t-42.5 96q0 83 60 130t189 47h111l6 33q3 16 3 32q0 92 -107 92q-51 0 -84.5 -19.5t-60.5 -54.5l-54 50q13 19 33 36.5t46 31.5t58 22.5t70 8.5q88 0 138.5 -42.5t50.5 -110.5q0 -14 -1.5 -28.5t-3.5 -29.5l-53 -317h-88l15 91h-4
q-23 -45 -64 -74t-101 -29zM241 61q30 0 56 7.5t46 21t33.5 31t16.5 37.5l13 74h-111q-135 0 -144 -78q-2 -13 -2 -19v-14q0 -29 24.5 -44.5t67.5 -15.5zM345 581q-42 0 -69 13.5t-44.5 34t-26 45.5t-12.5 48l51 27l16 -31q19 -37 38 -52.5t51 -15.5q29 0 53.5 14.5
t56.5 53.5l26 31l53 -27q-13 -25 -30 -50t-40 -45.5t-53.5 -33t-69.5 -12.5zM284 900h99q37 0 53.5 -15t16.5 -38q0 -20 -12 -40.5t-34 -44.5l-52 -58l-46 28l69 99h-106z" />
    <glyph glyph-name="uni1EB5.alt01" 
d="M215 -12q-74 0 -116.5 35t-42.5 96q0 83 60 130t189 47h111l6 33q3 16 3 32q0 92 -107 92q-51 0 -84.5 -19.5t-60.5 -54.5l-54 50q13 19 33 36.5t46 31.5t58 22.5t70 8.5q88 0 138.5 -42.5t50.5 -110.5q0 -14 -1.5 -28.5t-3.5 -29.5l-53 -317h-88l15 91h-4
q-23 -45 -64 -74t-101 -29zM241 61q30 0 56 7.5t46 21t33.5 31t16.5 37.5l13 74h-111q-135 0 -144 -78q-2 -13 -2 -19v-14q0 -29 24.5 -44.5t67.5 -15.5zM345 581q-41 0 -68.5 13.5t-44.5 34t-25.5 45.5t-12.5 48l50 27l16 -31q19 -37 37.5 -52.5t51.5 -15.5q29 0 53.5 14.5
t56.5 53.5l25 31l55 -27q-13 -25 -30.5 -50t-40.5 -45.5t-53.5 -33t-69.5 -12.5zM436 778q-24 0 -42 7t-33 14q-40 20 -65 20q-17 0 -31 -6.5t-31 -19.5l-30 40q18 22 43.5 38t61.5 16q25 0 43 -7t32 -14q22 -11 37 -15.5t29 -4.5q17 0 31 6.5t31 19.5l29 -40
q-18 -22 -43.5 -38t-61.5 -16z" />
    <glyph glyph-name="uni1EA5.alt01" 
d="M215 -12q-74 0 -116.5 35t-42.5 96q0 83 60 130t189 47h111l6 33q3 16 3 32q0 92 -107 92q-51 0 -84.5 -19.5t-60.5 -54.5l-54 50q13 19 33 36.5t46 31.5t58 22.5t70 8.5q88 0 138.5 -42.5t50.5 -110.5q0 -14 -1.5 -28.5t-3.5 -29.5l-53 -317h-88l15 91h-4
q-23 -45 -64 -74t-101 -29zM241 61q30 0 56 7.5t46 21t33.5 31t16.5 37.5l13 74h-111q-135 0 -144 -78q-2 -13 -2 -19v-14q0 -29 24.5 -44.5t67.5 -15.5zM517 711l-51 29l107 171l74 -41zM419 758l94 -147l-52 -34l-98 115l-137 -115l-44 39l140 142h97z" />
    <glyph glyph-name="uni1EAD.alt01" 
d="M215 -12q-74 0 -116.5 35t-42.5 96q0 83 60 130t189 47h111l6 33q3 16 3 32q0 92 -107 92q-51 0 -84.5 -19.5t-60.5 -54.5l-54 50q13 19 33 36.5t46 31.5t58 22.5t70 8.5q88 0 138.5 -42.5t50.5 -110.5q0 -14 -1.5 -28.5t-3.5 -29.5l-53 -317h-88l15 91h-4
q-23 -45 -64 -74t-101 -29zM241 61q30 0 56 7.5t46 21t33.5 31t16.5 37.5l13 74h-111q-135 0 -144 -78q-2 -13 -2 -19v-14q0 -29 24.5 -44.5t67.5 -15.5zM424 769l91 -149l-52 -33l-98 117l-136 -117l-45 38l137 144h103zM229 -177q-31 0 -43 11.5t-12 27.5q0 5 1 12.5
t3 15.5q4 20 18 33t46 13q31 0 43 -11.5t12 -27.5q0 -5 -1 -12.5t-3 -15.5q-4 -20 -18 -33t-46 -13z" />
    <glyph glyph-name="uni1EA7.alt01" 
d="M215 -12q-74 0 -116.5 35t-42.5 96q0 83 60 130t189 47h111l6 33q3 16 3 32q0 92 -107 92q-51 0 -84.5 -19.5t-60.5 -54.5l-54 50q13 19 33 36.5t46 31.5t58 22.5t70 8.5q88 0 138.5 -42.5t50.5 -110.5q0 -14 -1.5 -28.5t-3.5 -29.5l-53 -317h-88l15 91h-4
q-23 -45 -64 -74t-101 -29zM241 61q30 0 56 7.5t46 21t33.5 31t16.5 37.5l13 74h-111q-135 0 -144 -78q-2 -13 -2 -19v-14q0 -29 24.5 -44.5t67.5 -15.5zM126 883l79 32l56 -178l-53 -22zM419 758l94 -147l-52 -34l-98 115l-137 -115l-44 39l140 142h97z" />
    <glyph glyph-name="uni1EA9.alt01" 
d="M215 -12q-74 0 -116.5 35t-42.5 96q0 83 60 130t189 47h111l6 33q3 16 3 32q0 92 -107 92q-51 0 -84.5 -19.5t-60.5 -54.5l-54 50q13 19 33 36.5t46 31.5t58 22.5t70 8.5q88 0 138.5 -42.5t50.5 -110.5q0 -14 -1.5 -28.5t-3.5 -29.5l-53 -317h-88l15 91h-4
q-23 -45 -64 -74t-101 -29zM241 61q30 0 56 7.5t46 21t33.5 31t16.5 37.5l13 74h-111q-135 0 -144 -78q-2 -13 -2 -19v-14q0 -29 24.5 -44.5t67.5 -15.5zM438 904h108q37 0 53.5 -15t16.5 -37q0 -21 -11 -40.5t-29 -39.5l-55 -64l-48 28l68 100h-115zM420 758l93 -147
l-51 -34l-99 115l-136 -115l-44 39l140 142h97z" />
    <glyph glyph-name="uni1EAB.alt01" 
d="M215 -12q-74 0 -116.5 35t-42.5 96q0 83 60 130t189 47h111l6 33q3 16 3 32q0 92 -107 92q-51 0 -84.5 -19.5t-60.5 -54.5l-54 50q13 19 33 36.5t46 31.5t58 22.5t70 8.5q88 0 138.5 -42.5t50.5 -110.5q0 -14 -1.5 -28.5t-3.5 -29.5l-53 -317h-88l15 91h-4
q-23 -45 -64 -74t-101 -29zM241 61q30 0 56 7.5t46 21t33.5 31t16.5 37.5l13 74h-111q-135 0 -144 -78q-2 -13 -2 -19v-14q0 -29 24.5 -44.5t67.5 -15.5zM320 901q24 0 42 -8.5t33 -17.5q18 -11 34.5 -17t31.5 -6q17 0 31.5 7t31.5 21l30 -46q-17 -20 -43.5 -36.5
t-59.5 -16.5q-25 0 -42.5 8.5t-33.5 17.5q-18 11 -34.5 17t-31.5 6q-16 0 -31 -7.5t-32 -20.5l-30 45q17 21 44 37.5t60 16.5zM420 748l94 -138l-52 -33l-100 108l-135 -108l-44 41l138 130h99z" />
    <glyph glyph-name="ae" unicode="&#xe6;" 
d="M119 -12q-52 0 -86.5 32.5t-34.5 96.5q0 81 56.5 124t150.5 47l58 2l10 54q3 25 3 42q0 77 -69 77q-35 0 -60 -19.5t-46 -55.5l-53 37q24 46 64.5 74.5t100.5 28.5t87.5 -28t29.5 -66h3q23 45 58 69.5t83 24.5q54 0 88.5 -32t34.5 -91q0 -30 -12 -60t-42 -54t-81 -39.5
t-128 -17.5l-4 -21q-2 -14 -3 -28.5t-1 -23.5q0 -52 19.5 -78.5t54.5 -26.5q37 0 59.5 25.5t40.5 62.5l61 -29q-11 -25 -27 -48t-36.5 -40.5t-46.5 -28t-57 -10.5q-55 0 -91.5 33t-39.5 98h-6q-15 -64 -49.5 -97.5t-88.5 -33.5zM140 53q37 0 65 28t36 75l12 77l-49 -3
q-55 -2 -87 -19.5t-40 -64.5q-2 -14 -2.5 -21t-0.5 -12q0 -29 18 -44.5t48 -15.5zM467 463q-25 0 -45 -12.5t-35.5 -33.5t-25.5 -49t-15 -60l-3 -16q51 1 85.5 10.5t55.5 24.5t30 34.5t9 41.5q0 29 -14 44.5t-42 15.5z" />
    <glyph glyph-name="aeacute" unicode="&#x1fd;" 
d="M119 -12q-52 0 -86.5 32.5t-34.5 96.5q0 81 56.5 124t150.5 47l58 2l10 54q3 25 3 42q0 77 -69 77q-35 0 -60 -19.5t-46 -55.5l-53 37q24 46 64.5 74.5t100.5 28.5t87.5 -28t29.5 -66h3q23 45 58 69.5t83 24.5q54 0 88.5 -32t34.5 -91q0 -30 -12 -60t-42 -54t-81 -39.5
t-128 -17.5l-4 -21q-2 -14 -3 -28.5t-1 -23.5q0 -52 19.5 -78.5t54.5 -26.5q37 0 59.5 25.5t40.5 62.5l61 -29q-11 -25 -27 -48t-36.5 -40.5t-46.5 -28t-57 -10.5q-55 0 -91.5 33t-39.5 98h-6q-15 -64 -49.5 -97.5t-88.5 -33.5zM140 53q37 0 65 28t36 75l12 77l-49 -3
q-55 -2 -87 -19.5t-40 -64.5q-2 -14 -2.5 -21t-0.5 -12q0 -29 18 -44.5t48 -15.5zM467 463q-25 0 -45 -12.5t-35.5 -33.5t-25.5 -49t-15 -60l-3 -16q51 1 85.5 10.5t55.5 24.5t30 34.5t9 41.5q0 29 -14 44.5t-42 15.5zM368 582l-55 32l109 170l77 -43z" />
    <glyph glyph-name="cacute" unicode="&#x107;" 
d="M271 -12q-49 0 -86.5 15.5t-62.5 44t-37.5 69t-12.5 89.5q0 72 20.5 131.5t56.5 102t85 65.5t107 23q42 0 73 -9.5t53.5 -26.5t36.5 -40t21 -49l-77 -32q-14 45 -41 62.5t-75 17.5q-62 0 -101 -40t-52 -116l-10 -60q-3 -17 -4 -27.5t-1 -20.5q0 -62 32 -92t87 -30
q17 0 34 4t36.5 16.5t43 37t53.5 65.5l63 -38q-25 -39 -50 -69.5t-54 -51t-62.5 -31t-75.5 -10.5zM360 582l-55 32l109 170l77 -43z" />
    <glyph glyph-name="ccaron" unicode="&#x10d;" 
d="M271 -12q-49 0 -86.5 15.5t-62.5 44t-37.5 69t-12.5 89.5q0 72 20.5 131.5t56.5 102t85 65.5t107 23q42 0 73 -9.5t53.5 -26.5t36.5 -40t21 -49l-77 -32q-14 45 -41 62.5t-75 17.5q-62 0 -101 -40t-52 -116l-10 -60q-3 -17 -4 -27.5t-1 -20.5q0 -62 32 -92t87 -30
q17 0 34 4t36.5 16.5t43 37t53.5 65.5l63 -38q-25 -39 -50 -69.5t-54 -51t-62.5 -31t-75.5 -10.5zM301 595l-91 149l52 33l98 -117l136 117l45 -38l-137 -144h-103z" />
    <glyph glyph-name="ccedilla" unicode="&#xe7;" 
d="M341 528q42 0 73 -9.5t53.5 -26.5t36.5 -40t21 -49l-77 -32q-14 45 -41 62.5t-75 17.5q-62 0 -101 -40.5t-52 -115.5l-10 -60q-3 -17 -4 -27.5t-1 -20.5q0 -62 32 -92t87 -30q17 0 34 4t36.5 16.5t43 37t53.5 65.5l63 -38q-46 -74 -96 -114.5t-122 -46.5l-18 -49l2 -3
q23 5 38 5q28 0 44.5 -15t16.5 -44q0 -24 -10 -41t-26.5 -28t-38.5 -16.5t-46 -5.5q-40 0 -64 12.5t-35 29.5l42 42q8 -11 21 -19t36 -8q22 0 36 8.5t14 24.5q0 11 -12 22.5t-50 16.5l-28 3l24 66q-83 9 -126 67.5t-43 148.5q0 72 20.5 131.5t56.5 102t85 65.5t107 23z" />
    <glyph glyph-name="ccircumflex" unicode="&#x109;" 
d="M271 -12q-49 0 -86.5 15.5t-62.5 44t-37.5 69t-12.5 89.5q0 72 20.5 131.5t56.5 102t85 65.5t107 23q42 0 73 -9.5t53.5 -26.5t36.5 -40t21 -49l-77 -32q-14 45 -41 62.5t-75 17.5q-62 0 -101 -40t-52 -116l-10 -60q-3 -17 -4 -27.5t-1 -20.5q0 -62 32 -92t87 -30
q17 0 34 4t36.5 16.5t43 37t53.5 65.5l63 -38q-25 -39 -50 -69.5t-54 -51t-62.5 -31t-75.5 -10.5zM431 769l91 -149l-52 -33l-98 117l-136 -117l-45 38l137 144h103z" />
    <glyph glyph-name="cdotaccent" unicode="&#x10b;" 
d="M271 -12q-49 0 -86.5 15.5t-62.5 44t-37.5 69t-12.5 89.5q0 72 20.5 131.5t56.5 102t85 65.5t107 23q42 0 73 -9.5t53.5 -26.5t36.5 -40t21 -49l-77 -32q-14 45 -41 62.5t-75 17.5q-62 0 -101 -40t-52 -116l-10 -60q-3 -17 -4 -27.5t-1 -20.5q0 -62 32 -92t87 -30
q17 0 34 4t36.5 16.5t43 37t53.5 65.5l63 -38q-25 -39 -50 -69.5t-54 -51t-62.5 -31t-75.5 -10.5zM357 607q-35 0 -49 13t-14 31q0 6 1 13t3 19q5 26 21.5 38.5t49.5 12.5q35 0 49 -13t14 -31q0 -6 -1 -13t-3 -19q-5 -25 -21.5 -38t-49.5 -13z" />
    <glyph glyph-name="dcaron" unicode="&#x10f;" 
d="M185 -12q-74 0 -111.5 51t-37.5 149q0 56 12.5 116.5t40 110t70.5 81.5t105 32q111 0 140 -103h4l52 315h90l-124 -740h-90l19 117h-4q-27 -59 -65.5 -94t-100.5 -35zM220 65q26 0 51 11t51 40q17 20 31.5 49t20.5 64l19 115q4 26 -2 46t-20 33.5t-34.5 20.5t-44.5 7
q-64 0 -100.5 -42t-47.5 -111l-12 -71q-2 -14 -3 -25.5t-1 -22.5q0 -53 23.5 -83.5t68.5 -30.5zM618 740h107l-82 -191h-61z" />
    <glyph glyph-name="dcroat" unicode="&#x111;" 
d="M396 122h-3q-30 -60 -72 -97t-109 -37q-79 0 -119 51t-40 149q0 57 13.5 117t42.5 109.5t75 81.5t111 32q116 0 148 -103h4l30 179h-150l11 69h151l11 67h91l-11 -67h62l-12 -69h-62l-101 -604h-91zM246 65q63 0 114 56q19 20 34 49.5t21 64.5l18 108q8 51 -23 79.5
t-87 28.5q-71 0 -111 -42.5t-52 -112.5l-11 -69q-4 -23 -4 -45q0 -54 25 -85.5t76 -31.5z" />
    <glyph glyph-name="eth" unicode="&#xf0;" 
d="M440 646q42 -53 73.5 -129.5t31.5 -178.5q0 -81 -19.5 -146t-56.5 -110.5t-91 -69.5t-122 -24q-46 0 -83 15t-63.5 43t-40.5 66.5t-14 86.5q0 64 19 119.5t53 96.5t80.5 64.5t102.5 23.5q51 0 89.5 -25t55.5 -67l5 3q-8 46 -31 94.5t-61 93.5l-104 -63l-33 49l96 59
q-28 26 -60 49.5t-70 43.5h144q13 -10 28.5 -22.5t30.5 -27.5l102 63l33 -49zM269 64q65 0 109.5 37.5t56.5 110.5l9 54q3 17 4 28.5t1 19.5q0 57 -33 85t-89 28q-64 0 -109 -36.5t-57 -111.5l-9 -54q-3 -17 -4 -28.5t-1 -19.5q0 -57 33 -85t89 -28z" />
    <glyph glyph-name="eacute" unicode="&#xe9;" 
d="M278 -12q-101 0 -154.5 55.5t-53.5 165.5q0 70 21 129t59 101t91 65.5t117 23.5q38 0 70.5 -9t56 -27t37 -44t13.5 -60q0 -28 -12.5 -57t-51.5 -54t-112 -42t-194 -21q-1 -7 -1 -13.5v-8.5q0 -26 5 -49t18.5 -40.5t37.5 -28t62 -10.5q27 0 48.5 6t41 18.5t39 33.5
t40.5 51l62 -39q-22 -35 -46 -62t-53 -45.5t-64 -28.5t-77 -10zM349 456q-72 0 -118 -43.5t-58 -127.5l-1 -11q90 3 143.5 14t82 26.5t37.5 33.5t9 36q0 30 -21.5 51t-73.5 21zM373 582l-55 32l109 170l77 -43z" />
    <glyph glyph-name="ebreve" unicode="&#x115;" 
d="M278 -12q-101 0 -154.5 55.5t-53.5 165.5q0 70 21 129t59 101t91 65.5t117 23.5q38 0 70.5 -9t56 -27t37 -44t13.5 -60q0 -28 -12.5 -57t-51.5 -54t-112 -42t-194 -21q-1 -7 -1 -13.5v-8.5q0 -26 5 -49t18.5 -40.5t37.5 -28t62 -10.5q27 0 48.5 6t41 18.5t39 33.5
t40.5 51l62 -39q-22 -35 -46 -62t-53 -45.5t-64 -28.5t-77 -10zM349 456q-72 0 -118 -43.5t-58 -127.5l-1 -11q90 3 143.5 14t82 26.5t37.5 33.5t9 36q0 30 -21.5 51t-73.5 21zM369 590q-41 0 -67.5 15t-43 38t-25.5 50.5t-13 51.5l55 25l16 -35q16 -37 31.5 -55.5
t48.5 -18.5q15 0 27 4.5t23 13.5t23 23t28 34l27 34l56 -25q-12 -25 -28 -52.5t-38 -50t-51.5 -37.5t-68.5 -15z" />
    <glyph glyph-name="ecaron" unicode="&#x11b;" 
d="M278 -12q-101 0 -154.5 55.5t-53.5 165.5q0 70 21 129t59 101t91 65.5t117 23.5q38 0 70.5 -9t56 -27t37 -44t13.5 -60q0 -28 -12.5 -57t-51.5 -54t-112 -42t-194 -21q-1 -7 -1 -13.5v-8.5q0 -26 5 -49t18.5 -40.5t37.5 -28t62 -10.5q27 0 48.5 6t41 18.5t39 33.5
t40.5 51l62 -39q-22 -35 -46 -62t-53 -45.5t-64 -28.5t-77 -10zM349 456q-72 0 -118 -43.5t-58 -127.5l-1 -11q90 3 143.5 14t82 26.5t37.5 33.5t9 36q0 30 -21.5 51t-73.5 21zM314 595l-91 149l52 33l98 -117l136 117l45 -38l-137 -144h-103z" />
    <glyph glyph-name="ecircumflex" unicode="&#xea;" 
d="M278 -12q-101 0 -154.5 55.5t-53.5 165.5q0 70 21 129t59 101t91 65.5t117 23.5q38 0 70.5 -9t56 -27t37 -44t13.5 -60q0 -28 -12.5 -57t-51.5 -54t-112 -42t-194 -21q-1 -7 -1 -13.5v-8.5q0 -26 5 -49t18.5 -40.5t37.5 -28t62 -10.5q27 0 48.5 6t41 18.5t39 33.5
t40.5 51l62 -39q-22 -35 -46 -62t-53 -45.5t-64 -28.5t-77 -10zM349 456q-72 0 -118 -43.5t-58 -127.5l-1 -11q90 3 143.5 14t82 26.5t37.5 33.5t9 36q0 30 -21.5 51t-73.5 21zM444 769l91 -149l-52 -33l-98 117l-136 -117l-45 38l137 144h103z" />
    <glyph glyph-name="edieresis" unicode="&#xeb;" 
d="M278 -12q-101 0 -154.5 55.5t-53.5 165.5q0 70 21 129t59 101t91 65.5t117 23.5q38 0 70.5 -9t56 -27t37 -44t13.5 -60q0 -28 -12.5 -57t-51.5 -54t-112 -42t-194 -21q-1 -7 -1 -13.5v-8.5q0 -26 5 -49t18.5 -40.5t37.5 -28t62 -10.5q27 0 48.5 6t41 18.5t39 33.5
t40.5 51l62 -39q-22 -35 -46 -62t-53 -45.5t-64 -28.5t-77 -10zM349 456q-72 0 -118 -43.5t-58 -127.5l-1 -11q90 3 143.5 14t82 26.5t37.5 33.5t9 36q0 30 -21.5 51t-73.5 21zM275 614q-32 0 -44.5 11.5t-12.5 27.5q0 10 5 27q6 20 18.5 33t45.5 13q32 0 44.5 -11.5
t12.5 -27.5q0 -10 -5 -27q-6 -20 -18.5 -33t-45.5 -13zM467 614q-32 0 -44.5 11.5t-12.5 27.5q0 10 5 27q6 20 18.5 33t45.5 13q32 0 44.5 -11.5t12.5 -27.5q0 -10 -5 -27q-6 -20 -18.5 -33t-45.5 -13z" />
    <glyph glyph-name="edotaccent" unicode="&#x117;" 
d="M278 -12q-101 0 -154.5 55.5t-53.5 165.5q0 70 21 129t59 101t91 65.5t117 23.5q38 0 70.5 -9t56 -27t37 -44t13.5 -60q0 -28 -12.5 -57t-51.5 -54t-112 -42t-194 -21q-1 -7 -1 -13.5v-8.5q0 -26 5 -49t18.5 -40.5t37.5 -28t62 -10.5q27 0 48.5 6t41 18.5t39 33.5
t40.5 51l62 -39q-22 -35 -46 -62t-53 -45.5t-64 -28.5t-77 -10zM349 456q-72 0 -118 -43.5t-58 -127.5l-1 -11q90 3 143.5 14t82 26.5t37.5 33.5t9 36q0 30 -21.5 51t-73.5 21zM370 607q-35 0 -49 13t-14 31q0 6 1 13t3 19q5 26 21.5 38.5t49.5 12.5q35 0 49 -13t14 -31
q0 -6 -1 -13t-3 -19q-5 -25 -21.5 -38t-49.5 -13z" />
    <glyph glyph-name="uni1EB9" unicode="&#x1eb9;" 
d="M278 -12q-101 0 -154.5 55.5t-53.5 165.5q0 70 21 129t59 101t91 65.5t117 23.5q38 0 70.5 -9t56 -27t37 -44t13.5 -60q0 -28 -12.5 -57t-51.5 -54t-112 -42t-194 -21q-1 -7 -1 -13.5v-8.5q0 -26 5 -49t18.5 -40.5t37.5 -28t62 -10.5q27 0 48.5 6t41 18.5t39 33.5
t40.5 51l62 -39q-22 -35 -46 -62t-53 -45.5t-64 -28.5t-77 -10zM349 456q-72 0 -118 -43.5t-58 -127.5l-1 -11q90 3 143.5 14t82 26.5t37.5 33.5t9 36q0 30 -21.5 51t-73.5 21zM257 -177q-31 0 -43 11.5t-12 27.5q0 5 1 12.5t3 15.5q4 20 18 33t46 13q31 0 43 -11.5
t12 -27.5q0 -5 -1 -12.5t-3 -15.5q-4 -20 -18 -33t-46 -13z" />
    <glyph glyph-name="egrave" unicode="&#xe8;" 
d="M278 -12q-101 0 -154.5 55.5t-53.5 165.5q0 70 21 129t59 101t91 65.5t117 23.5q38 0 70.5 -9t56 -27t37 -44t13.5 -60q0 -28 -12.5 -57t-51.5 -54t-112 -42t-194 -21q-1 -7 -1 -13.5v-8.5q0 -26 5 -49t18.5 -40.5t37.5 -28t62 -10.5q27 0 48.5 6t41 18.5t39 33.5
t40.5 51l62 -39q-22 -35 -46 -62t-53 -45.5t-64 -28.5t-77 -10zM349 456q-72 0 -118 -43.5t-58 -127.5l-1 -11q90 3 143.5 14t82 26.5t37.5 33.5t9 36q0 30 -21.5 51t-73.5 21zM271 751l84 33l57 -178l-58 -24z" />
    <glyph glyph-name="uni1EBB" unicode="&#x1ebb;" 
d="M278 -12q-101 0 -154.5 55.5t-53.5 165.5q0 70 21 129t59 101t91 65.5t117 23.5q38 0 70.5 -9t56 -27t37 -44t13.5 -60q0 -28 -12.5 -57t-51.5 -54t-112 -42t-194 -21q-1 -7 -1 -13.5v-8.5q0 -26 5 -49t18.5 -40.5t37.5 -28t62 -10.5q27 0 48.5 6t41 18.5t39 33.5
t40.5 51l62 -39q-22 -35 -46 -62t-53 -45.5t-64 -28.5t-77 -10zM349 456q-72 0 -118 -43.5t-58 -127.5l-1 -11q90 3 143.5 14t82 26.5t37.5 33.5t9 36q0 30 -21.5 51t-73.5 21zM304 770h111q36 0 52.5 -15t16.5 -38q0 -24 -13.5 -47t-37.5 -49l-43 -47l-48 28l67 99h-116z
" />
    <glyph glyph-name="emacron" unicode="&#x113;" 
d="M278 -12q-101 0 -154.5 55.5t-53.5 165.5q0 70 21 129t59 101t91 65.5t117 23.5q38 0 70.5 -9t56 -27t37 -44t13.5 -60q0 -28 -12.5 -57t-51.5 -54t-112 -42t-194 -21q-1 -7 -1 -13.5v-8.5q0 -26 5 -49t18.5 -40.5t37.5 -28t62 -10.5q27 0 48.5 6t41 18.5t39 33.5
t40.5 51l62 -39q-22 -35 -46 -62t-53 -45.5t-64 -28.5t-77 -10zM349 456q-72 0 -118 -43.5t-58 -127.5l-1 -11q90 3 143.5 14t82 26.5t37.5 33.5t9 36q0 30 -21.5 51t-73.5 21zM241 707h282l-12 -73h-282z" />
    <glyph glyph-name="eogonek" unicode="&#x119;" 
d="M320 -208q-20 0 -38.5 4.5t-32.5 14t-22.5 24t-8.5 34.5q0 39 28.5 67.5t76.5 50.5l-1 4q-20 -3 -44 -3q-101 0 -154.5 55.5t-53.5 165.5q0 70 21 129t59 101t91 65.5t117 23.5q38 0 70.5 -9t56 -27t37 -44t13.5 -60q0 -28 -12.5 -57t-51.5 -54t-112 -42t-194 -21
q-1 -7 -1 -13.5v-8.5q0 -26 5 -49t19 -40.5t37.5 -28t61.5 -10.5q27 0 48.5 6t41 18.5t39 33.5t40.5 51l62 -39q-23 -37 -48 -63t-60 -49q-36 -24 -59 -44t-36 -37t-18 -31t-5 -27q0 -18 10.5 -26t25.5 -8q27 0 54 27l41 -44q-15 -16 -40.5 -28t-62.5 -12zM349 456
q-72 0 -118 -43.5t-58 -127.5l-1 -11q90 3 143.5 14t82 26.5t37.5 33.5t9 36q0 30 -21.5 51t-73.5 21z" />
    <glyph glyph-name="uni1EBD" unicode="&#x1ebd;" 
d="M278 -12q-101 0 -154.5 55.5t-53.5 165.5q0 70 21 129t59 101t91 65.5t117 23.5q38 0 70.5 -9t56 -27t37 -44t13.5 -60q0 -28 -12.5 -57t-51.5 -54t-112 -42t-194 -21q-1 -7 -1 -13.5v-8.5q0 -26 5 -49t18.5 -40.5t37.5 -28t62 -10.5q27 0 48.5 6t41 18.5t39 33.5
t40.5 51l62 -39q-22 -35 -46 -62t-53 -45.5t-64 -28.5t-77 -10zM349 456q-72 0 -118 -43.5t-58 -127.5l-1 -11q90 3 143.5 14t82 26.5t37.5 33.5t9 36q0 30 -21.5 51t-73.5 21zM442 608q-24 0 -40.5 9t-34.5 18t-34.5 16t-31.5 7q-16 0 -31 -7.5t-32 -21.5l-30 46
q17 21 43.5 38t60.5 17q24 0 40.5 -9t34.5 -18t34.5 -16t31.5 -7q16 0 31 7.5t32 21.5l30 -46q-17 -21 -43.5 -38t-60.5 -17z" />
    <glyph glyph-name="uni1EBF" unicode="&#x1ebf;" 
d="M278 -12q-101 0 -154.5 55.5t-53.5 165.5q0 70 21 129t59 101t91 65.5t117 23.5q38 0 70.5 -9t56 -27t37 -44t13.5 -60q0 -28 -12.5 -57t-51.5 -54t-112 -42t-194 -21q-1 -7 -1 -13.5v-8.5q0 -26 5 -49t18.5 -40.5t37.5 -28t62 -10.5q27 0 48.5 6t41 18.5t39 33.5
t40.5 51l62 -39q-22 -35 -46 -62t-53 -45.5t-64 -28.5t-77 -10zM349 456q-72 0 -118 -43.5t-58 -127.5l-1 -11q90 3 143.5 14t82 26.5t37.5 33.5t9 36q0 30 -21.5 51t-73.5 21zM537 711l-51 29l107 171l74 -41zM439 758l94 -147l-52 -34l-98 115l-137 -115l-44 39l140 142
h97z" />
    <glyph glyph-name="uni1EC7" unicode="&#x1ec7;" 
d="M278 -12q-101 0 -154.5 55.5t-53.5 165.5q0 70 21 129t59 101t91 65.5t117 23.5q38 0 70.5 -9t56 -27t37 -44t13.5 -60q0 -28 -12.5 -57t-51.5 -54t-112 -42t-194 -21q-1 -7 -1 -13.5v-8.5q0 -26 5 -49t18.5 -40.5t37.5 -28t62 -10.5q27 0 48.5 6t41 18.5t39 33.5
t40.5 51l62 -39q-22 -35 -46 -62t-53 -45.5t-64 -28.5t-77 -10zM349 456q-72 0 -118 -43.5t-58 -127.5l-1 -11q90 3 143.5 14t82 26.5t37.5 33.5t9 36q0 30 -21.5 51t-73.5 21zM444 769l91 -149l-52 -33l-98 117l-136 -117l-45 38l137 144h103zM257 -177q-31 0 -43 11.5
t-12 27.5q0 5 1 12.5t3 15.5q4 20 18 33t46 13q31 0 43 -11.5t12 -27.5q0 -5 -1 -12.5t-3 -15.5q-4 -20 -18 -33t-46 -13z" />
    <glyph glyph-name="uni1EC1" unicode="&#x1ec1;" 
d="M278 -12q-101 0 -154.5 55.5t-53.5 165.5q0 70 21 129t59 101t91 65.5t117 23.5q38 0 70.5 -9t56 -27t37 -44t13.5 -60q0 -28 -12.5 -57t-51.5 -54t-112 -42t-194 -21q-1 -7 -1 -13.5v-8.5q0 -26 5 -49t18.5 -40.5t37.5 -28t62 -10.5q27 0 48.5 6t41 18.5t39 33.5
t40.5 51l62 -39q-22 -35 -46 -62t-53 -45.5t-64 -28.5t-77 -10zM349 456q-72 0 -118 -43.5t-58 -127.5l-1 -11q90 3 143.5 14t82 26.5t37.5 33.5t9 36q0 30 -21.5 51t-73.5 21zM146 883l79 32l56 -178l-53 -22zM439 758l94 -147l-52 -34l-98 115l-137 -115l-44 39l140 142
h97z" />
    <glyph glyph-name="uni1EC3" unicode="&#x1ec3;" 
d="M278 -12q-101 0 -154.5 55.5t-53.5 165.5q0 70 21 129t59 101t91 65.5t117 23.5q38 0 70.5 -9t56 -27t37 -44t13.5 -60q0 -28 -12.5 -57t-51.5 -54t-112 -42t-194 -21q-1 -7 -1 -13.5v-8.5q0 -26 5 -49t18.5 -40.5t37.5 -28t62 -10.5q27 0 48.5 6t41 18.5t39 33.5
t40.5 51l62 -39q-22 -35 -46 -62t-53 -45.5t-64 -28.5t-77 -10zM349 456q-72 0 -118 -43.5t-58 -127.5l-1 -11q90 3 143.5 14t82 26.5t37.5 33.5t9 36q0 30 -21.5 51t-73.5 21zM458 904h108q37 0 53.5 -15t16.5 -37q0 -21 -11 -40.5t-29 -39.5l-55 -64l-48 28l68 100h-115z
M440 758l93 -147l-51 -34l-99 115l-136 -115l-44 39l140 142h97z" />
    <glyph glyph-name="uni1EC5" unicode="&#x1ec5;" 
d="M278 -12q-101 0 -154.5 55.5t-53.5 165.5q0 70 21 129t59 101t91 65.5t117 23.5q38 0 70.5 -9t56 -27t37 -44t13.5 -60q0 -28 -12.5 -57t-51.5 -54t-112 -42t-194 -21q-1 -7 -1 -13.5v-8.5q0 -26 5 -49t18.5 -40.5t37.5 -28t62 -10.5q27 0 48.5 6t41 18.5t39 33.5
t40.5 51l62 -39q-22 -35 -46 -62t-53 -45.5t-64 -28.5t-77 -10zM349 456q-72 0 -118 -43.5t-58 -127.5l-1 -11q90 3 143.5 14t82 26.5t37.5 33.5t9 36q0 30 -21.5 51t-73.5 21zM340 901q24 0 42 -8.5t33 -17.5q18 -11 34.5 -17t31.5 -6q17 0 31.5 7t31.5 21l30 -46
q-17 -20 -43.5 -36.5t-59.5 -16.5q-25 0 -42.5 8.5t-33.5 17.5q-18 11 -34.5 17t-31.5 6q-16 0 -31 -7.5t-32 -20.5l-30 45q17 21 44 37.5t60 16.5zM440 748l94 -138l-52 -33l-100 108l-135 -108l-44 41l138 130h99z" />
    <glyph glyph-name="uni0259" unicode="&#x259;" 
d="M242 -12q-38 0 -70.5 9t-56 27t-37 44t-13.5 60q0 28 12.5 57t51.5 54t112 42t194 21q1 7 1 13.5v8.5q0 25 -5 48.5t-18.5 41t-37.5 28t-62 10.5q-27 0 -48.5 -6t-41 -18.5t-39 -33.5t-40.5 -51l-62 39q22 34 46 61.5t53 46t64 28.5t77 10q101 0 154.5 -55.5t53.5 -165.5
q0 -71 -21 -129.5t-59 -100.5t-91 -65.5t-117 -23.5zM251 60q72 0 118 43.5t58 127.5l1 11q-90 -3 -143.5 -14t-82 -26.5t-37.5 -33.5t-9 -36q0 -30 21.5 -51t73.5 -21z" />
    <glyph glyph-name="gbreve" unicode="&#x11f;" 
d="M214 -212q-129 0 -186 72l60 59q21 -26 53 -40t77 -14q67 0 107.5 35t55.5 122l20 118h-5q-29 -62 -71.5 -98t-109.5 -36q-81 0 -121 51t-40 145q0 54 13.5 111.5t43 105.5t75 78.5t109.5 30.5q117 0 148 -103h4l15 91h92l-85 -509q-10 -58 -32.5 -99.5t-55 -68t-75 -39
t-92.5 -12.5zM249 83q31 0 60 13t55 42q15 17 31.5 44.5t23.5 68.5l15 93q8 51 -23 79t-88 28q-69 0 -110 -42t-52 -111l-9 -52q-2 -13 -3.5 -23t-1.5 -22q0 -57 25.5 -87.5t76.5 -30.5zM346 590q-41 0 -67.5 15t-43 38t-25.5 50.5t-13 51.5l55 25l16 -35q16 -37 31.5 -55.5
t48.5 -18.5q15 0 27 4.5t23 13.5t23 23t28 34l27 34l56 -25q-12 -25 -28 -52.5t-38 -50t-51.5 -37.5t-68.5 -15z" />
    <glyph glyph-name="gcircumflex" unicode="&#x11d;" 
d="M214 -212q-129 0 -186 72l60 59q21 -26 53 -40t77 -14q67 0 107.5 35t55.5 122l20 118h-5q-29 -62 -71.5 -98t-109.5 -36q-81 0 -121 51t-40 145q0 54 13.5 111.5t43 105.5t75 78.5t109.5 30.5q117 0 148 -103h4l15 91h92l-85 -509q-10 -58 -32.5 -99.5t-55 -68t-75 -39
t-92.5 -12.5zM249 83q31 0 60 13t55 42q15 17 31.5 44.5t23.5 68.5l15 93q8 51 -23 79t-88 28q-69 0 -110 -42t-52 -111l-9 -52q-2 -13 -3.5 -23t-1.5 -22q0 -57 25.5 -87.5t76.5 -30.5zM421 769l91 -149l-52 -33l-98 117l-136 -117l-45 38l137 144h103z" />
    <glyph glyph-name="gcommaaccent" unicode="&#x123;" 
d="M214 -212q-129 0 -186 72l60 59q21 -26 53 -40t77 -14q67 0 107.5 35t55.5 122l20 118h-5q-29 -62 -71.5 -98t-109.5 -36q-81 0 -121 51t-40 145q0 54 13.5 111.5t43 105.5t75 78.5t109.5 30.5q117 0 148 -103h4l15 91h92l-85 -509q-10 -58 -32.5 -99.5t-55 -68t-75 -39
t-92.5 -12.5zM249 83q31 0 60 13t55 42q15 17 31.5 44.5t23.5 68.5l15 93q8 51 -23 79t-88 28q-69 0 -110 -42t-52 -111l-9 -52q-2 -13 -3.5 -23t-1.5 -22q0 -57 25.5 -87.5t76.5 -30.5zM387 778h66l-55 -191h-117z" />
    <glyph glyph-name="gdotaccent" unicode="&#x121;" 
d="M214 -212q-129 0 -186 72l60 59q21 -26 53 -40t77 -14q67 0 107.5 35t55.5 122l20 118h-5q-29 -62 -71.5 -98t-109.5 -36q-81 0 -121 51t-40 145q0 54 13.5 111.5t43 105.5t75 78.5t109.5 30.5q117 0 148 -103h4l15 91h92l-85 -509q-10 -58 -32.5 -99.5t-55 -68t-75 -39
t-92.5 -12.5zM249 83q31 0 60 13t55 42q15 17 31.5 44.5t23.5 68.5l15 93q8 51 -23 79t-88 28q-69 0 -110 -42t-52 -111l-9 -52q-2 -13 -3.5 -23t-1.5 -22q0 -57 25.5 -87.5t76.5 -30.5zM347 607q-35 0 -49 13t-14 31q0 6 1 13t3 19q5 26 21.5 38.5t49.5 12.5q35 0 49 -13
t14 -31q0 -6 -1 -13t-3 -19q-5 -25 -21.5 -38t-49.5 -13z" />
    <glyph glyph-name="gbreve.alt01" 
d="M356 590q-41 0 -67.5 15t-43 38t-25.5 50.5t-13 51.5l55 25l16 -35q16 -37 31.5 -55.5t48.5 -18.5q15 0 27 4.5t23 13.5t23 23t28 34l27 34l56 -25q-12 -25 -28 -52.5t-38 -50t-51.5 -37.5t-68.5 -15zM232 -212q-121 0 -174 30.5t-53 85.5q0 44 27 71.5t78 39.5l2 10
q-40 19 -40 65q0 43 29 65t78 32l1 6q-35 20 -55 53.5t-20 79.5q0 44 17.5 81t48.5 64t73.5 42t93.5 15q44 0 77 -12h172l-11 -68h-78q22 -33 22 -76q0 -44 -17.5 -81t-48.5 -64t-73.5 -42t-93.5 -15q-33 0 -60 6q-12 -2 -25.5 -7t-25 -12.5t-19 -18.5t-7.5 -24
q0 -23 20.5 -29t53.5 -6h115q92 0 134 -33.5t42 -91.5q0 -80 -69 -123t-214 -43zM295 236q57 0 89 25.5t40 72.5q3 19 4 31.5t1 17.5q0 36 -23.5 57.5t-74.5 21.5q-58 0 -89.5 -25.5t-39.5 -73.5q-6 -36 -6 -49q0 -35 24 -56.5t75 -21.5zM427 -56q0 26 -20.5 41t-74.5 15
h-182q-29 -11 -44.5 -29t-15.5 -44q0 -30 25 -49.5t82 -19.5h84q69 0 107.5 22t38.5 64z" />
    <glyph glyph-name="gcircumflex.alt01" 
d="M431 769l91 -149l-52 -33l-98 117l-136 -117l-45 38l137 144h103zM232 -212q-121 0 -174 30.5t-53 85.5q0 44 27 71.5t78 39.5l2 10q-40 19 -40 65q0 43 29 65t78 32l1 6q-35 20 -55 53.5t-20 79.5q0 44 17.5 81t48.5 64t73.5 42t93.5 15q44 0 77 -12h172l-11 -68h-78
q22 -33 22 -76q0 -44 -17.5 -81t-48.5 -64t-73.5 -42t-93.5 -15q-33 0 -60 6q-12 -2 -25.5 -7t-25 -12.5t-19 -18.5t-7.5 -24q0 -23 20.5 -29t53.5 -6h115q92 0 134 -33.5t42 -91.5q0 -80 -69 -123t-214 -43zM295 236q57 0 89 25.5t40 72.5q3 19 4 31.5t1 17.5
q0 36 -23.5 57.5t-74.5 21.5q-58 0 -89.5 -25.5t-39.5 -73.5q-6 -36 -6 -49q0 -35 24 -56.5t75 -21.5zM427 -56q0 26 -20.5 41t-74.5 15h-182q-29 -11 -44.5 -29t-15.5 -44q0 -30 25 -49.5t82 -19.5h84q69 0 107.5 22t38.5 64z" />
    <glyph glyph-name="gcommaaccent.alt01" 
d="M232 -212q-121 0 -174 30.5t-53 85.5q0 44 27 71.5t78 39.5l2 10q-40 19 -40 65q0 43 29 65t78 32l1 6q-35 20 -55 53.5t-20 79.5q0 44 17.5 81t48.5 64t73.5 42t93.5 15q58 0 100 -22l3 15q5 30 23.5 50t53.5 20h93l-13 -76h-116l-6 -35q21 -20 32.5 -46.5t11.5 -61.5
q0 -44 -17.5 -81t-48.5 -64t-73.5 -42t-93.5 -15q-33 0 -60 6q-12 -2 -25.5 -7t-25 -12.5t-19 -18.5t-7.5 -24q0 -23 20.5 -29t53.5 -6h115q92 0 134 -33.5t42 -91.5q0 -80 -69 -123t-214 -43zM90 -73q0 -30 25 -49.5t82 -19.5h84q69 0 107.5 22t38.5 64q0 26 -20.5 41
t-74.5 15h-182q-29 -11 -44.5 -29t-15.5 -44zM295 236q57 0 89 25.5t40 72.5q3 19 4 31.5t1 17.5q0 36 -23.5 57.5t-74.5 21.5q-58 0 -89.5 -25.5t-39.5 -73.5q-6 -36 -6 -49q0 -35 24 -56.5t75 -21.5zM397 778h66l-55 -191h-117z" />
    <glyph glyph-name="gdotaccent.alt01" 
d="M232 -212q-121 0 -174 30.5t-53 85.5q0 44 27 71.5t78 39.5l2 10q-40 19 -40 65q0 43 29 65t78 32l1 6q-35 20 -55 53.5t-20 79.5q0 44 17.5 81t48.5 64t73.5 42t93.5 15q58 0 100 -22l3 15q5 30 23.5 50t53.5 20h93l-13 -76h-116l-6 -35q21 -20 32.5 -46.5t11.5 -61.5
q0 -44 -17.5 -81t-48.5 -64t-73.5 -42t-93.5 -15q-33 0 -60 6q-12 -2 -25.5 -7t-25 -12.5t-19 -18.5t-7.5 -24q0 -23 20.5 -29t53.5 -6h115q92 0 134 -33.5t42 -91.5q0 -80 -69 -123t-214 -43zM90 -73q0 -30 25 -49.5t82 -19.5h84q69 0 107.5 22t38.5 64q0 26 -20.5 41
t-74.5 15h-182q-29 -11 -44.5 -29t-15.5 -44zM295 236q57 0 89 25.5t40 72.5q3 19 4 31.5t1 17.5q0 36 -23.5 57.5t-74.5 21.5q-58 0 -89.5 -25.5t-39.5 -73.5q-6 -36 -6 -49q0 -35 24 -56.5t75 -21.5zM357 607q-35 0 -49 13t-14 31q0 6 1 13t3 19q5 26 21.5 38.5t49.5 12.5
q35 0 49 -13t14 -31q0 -6 -1 -13t-3 -19q-5 -25 -21.5 -38t-49.5 -13z" />
    <glyph glyph-name="hbar" unicode="&#x127;" 
d="M154 604h-64l12 69h63l11 67h91l-11 -67h148l-12 -69h-147l-35 -210h4q29 62 68.5 98t102.5 36q67 0 103.5 -40t36.5 -109q0 -17 -1.5 -35t-5.5 -39l-51 -305h-91l51 303q3 17 4 31t1 25q0 42 -19.5 67t-61.5 25q-32 0 -56.5 -15t-46.5 -40q-5 -5 -13 -15.5t-16.5 -25.5
t-16.5 -33.5t-11 -39.5l-47 -282h-92z" />
    <glyph glyph-name="hcircumflex" unicode="&#x125;" 
d="M176 740h91l-58 -346h5q29 62 68.5 98t102.5 36q67 0 103.5 -40t36.5 -109q0 -17 -1.5 -35t-5.5 -39l-51 -305h-91l51 303q3 17 4 31t1 25q0 42 -19.5 67t-61.5 25q-32 0 -56.5 -15t-46.5 -40q-5 -6 -13.5 -16.5t-17.5 -25.5t-16.5 -33t-10.5 -39l-47 -282h-91zM305 951
l91 -149l-52 -33l-98 117l-136 -117l-45 38l137 144h103z" />
    <glyph glyph-name="dotlessi" unicode="&#x131;" 
d="M277 -12q-42 0 -64 22t-22 57q0 11 2 22.5t4 24.5l63 326h-181l13 76h273l-85 -442l22 -9l186 165l53 -49l-85 -81q-33 -32 -58.5 -53.5t-46 -34.5t-38 -18.5t-36.5 -5.5z" />
    <glyph glyph-name="iacute" unicode="&#xed;" 
d="M277 -12q-42 0 -64 22t-22 57q0 11 2 22.5t4 24.5l63 326h-181l13 76h273l-85 -442l22 -9l186 165l53 -49l-85 -81q-33 -32 -58.5 -53.5t-46 -34.5t-38 -18.5t-36.5 -5.5zM337 582l-55 32l109 170l77 -43z" />
    <glyph glyph-name="ibreve" unicode="&#x12d;" 
d="M277 -12q-42 0 -64 22t-22 57q0 11 2 22.5t4 24.5l63 326h-181l13 76h273l-85 -442l22 -9l186 165l53 -49l-85 -81q-33 -32 -58.5 -53.5t-46 -34.5t-38 -18.5t-36.5 -5.5zM333 590q-41 0 -67.5 15t-43 38t-25.5 50.5t-13 51.5l55 25l16 -35q16 -37 31.5 -55.5t48.5 -18.5
q15 0 27 4.5t23 13.5t23 23t28 34l27 34l56 -25q-12 -25 -28 -52.5t-38 -50t-51.5 -37.5t-68.5 -15z" />
    <glyph glyph-name="icircumflex" unicode="&#xee;" 
d="M277 -12q-42 0 -64 22t-22 57q0 11 2 22.5t4 24.5l63 326h-181l13 76h273l-85 -442l22 -9l186 165l53 -49l-85 -81q-33 -32 -58.5 -53.5t-46 -34.5t-38 -18.5t-36.5 -5.5zM408 769l91 -149l-52 -33l-98 117l-136 -117l-45 38l137 144h103z" />
    <glyph glyph-name="idieresis" unicode="&#xef;" 
d="M277 -12q-42 0 -64 22t-22 57q0 11 2 22.5t4 24.5l63 326h-181l13 76h273l-85 -442l22 -9l186 165l53 -49l-85 -81q-33 -32 -58.5 -53.5t-46 -34.5t-38 -18.5t-36.5 -5.5zM239 614q-32 0 -44.5 11.5t-12.5 27.5q0 10 5 27q6 20 18.5 33t45.5 13q32 0 44.5 -11.5
t12.5 -27.5q0 -10 -5 -27q-6 -20 -18.5 -33t-45.5 -13zM431 614q-32 0 -44.5 11.5t-12.5 27.5q0 10 5 27q6 20 18.5 33t45.5 13q32 0 44.5 -11.5t12.5 -27.5q0 -10 -5 -27q-6 -20 -18.5 -33t-45.5 -13z" />
    <glyph glyph-name="uni1ECB" unicode="&#x1ecb;" 
d="M340 622q-35 0 -49 13t-14 31q0 13 4 32q5 25 21.5 38t49.5 13q35 0 49 -13t14 -31q0 -13 -4 -32q-5 -25 -21.5 -38t-49.5 -13zM277 -12q-42 0 -64 22t-22 57q0 11 2 22.5t4 24.5l63 326h-181l13 76h273l-85 -442l22 -9l186 165l53 -49l-85 -81q-33 -32 -58.5 -53.5
t-46 -34.5t-38 -18.5t-36.5 -5.5zM244 -177q-31 0 -43 11.5t-12 27.5q0 5 1 12.5t3 15.5q4 20 18 33t46 13q31 0 43 -11.5t12 -27.5q0 -5 -1 -12.5t-3 -15.5q-4 -20 -18 -33t-46 -13z" />
    <glyph glyph-name="igrave" unicode="&#xec;" 
d="M277 -12q-42 0 -64 22t-22 57q0 11 2 22.5t4 24.5l63 326h-181l13 76h273l-85 -442l22 -9l186 165l53 -49l-85 -81q-33 -32 -58.5 -53.5t-46 -34.5t-38 -18.5t-36.5 -5.5zM235 751l84 33l57 -178l-58 -24z" />
    <glyph glyph-name="uni1EC9" unicode="&#x1ec9;" 
d="M277 -12q-42 0 -64 22t-22 57q0 11 2 22.5t4 24.5l63 326h-181l13 76h273l-85 -442l22 -9l186 165l53 -49l-85 -81q-33 -32 -58.5 -53.5t-46 -34.5t-38 -18.5t-36.5 -5.5zM268 770h111q36 0 52.5 -15t16.5 -38q0 -24 -13.5 -47t-37.5 -49l-43 -47l-48 28l67 99h-116z" />
    <glyph glyph-name="imacron" unicode="&#x12b;" 
d="M277 -12q-42 0 -64 22t-22 57q0 11 2 22.5t4 24.5l63 326h-181l13 76h273l-85 -442l22 -9l186 165l53 -49l-85 -81q-33 -32 -58.5 -53.5t-46 -34.5t-38 -18.5t-36.5 -5.5zM205 707h282l-12 -73h-282z" />
    <glyph glyph-name="iogonek" unicode="&#x12f;" 
d="M278 -208q-21 0 -39.5 4.5t-32.5 14t-22.5 24t-8.5 34.5q0 38 29 65.5t74 50.5l-1 5h-15q-36 0 -53.5 23t-17.5 54q0 11 2 22.5t4 24.5l63 326h-181l13 76h273l-85 -442l22 -9l186 165l53 -49l-177 -160q-35 -32 -57.5 -54t-35.5 -38t-17.5 -27.5t-4.5 -21.5
q0 -16 10.5 -23.5t24.5 -7.5q28 0 55 27l41 -44q-14 -16 -39.5 -28t-62.5 -12zM340 622q-35 0 -49 13t-14 31q0 13 4 32q5 25 21.5 38t49.5 13q35 0 49 -13t14 -31q0 -13 -4 -32q-5 -25 -21.5 -38t-49.5 -13z" />
    <glyph glyph-name="itilde" unicode="&#x129;" 
d="M277 -12q-42 0 -64 22t-22 57q0 11 2 22.5t4 24.5l63 326h-181l13 76h273l-85 -442l22 -9l186 165l53 -49l-85 -81q-33 -32 -58.5 -53.5t-46 -34.5t-38 -18.5t-36.5 -5.5zM406 608q-24 0 -40.5 9t-34.5 18t-34.5 16t-31.5 7q-16 0 -31 -7.5t-32 -21.5l-30 46
q17 21 43.5 38t60.5 17q24 0 40.5 -9t34.5 -18t34.5 -16t31.5 -7q16 0 31 7.5t32 21.5l30 -46q-17 -21 -43.5 -38t-60.5 -17z" />
    <glyph glyph-name="ij" unicode="&#x133;" 
d="M143 516h91l-86 -516h-91zM329 -212q-35 0 -64.5 25.5t-67.5 68.5l-34 38l62 53l100 -107l17 4l108 646h91l-102 -610q-8 -50 -34 -84t-76 -34zM210 622q-35 0 -49 13t-14 31q0 13 4 32q5 25 21.5 38t49.5 13q35 0 49 -13t14 -31q0 -13 -4 -32q-5 -25 -21.5 -38
t-49.5 -13zM516 622q-35 0 -49 13t-14 31q0 13 4 32q5 25 21.5 38t49.5 13q35 0 49 -13t14 -31q0 -13 -4 -32q-5 -25 -21.5 -38t-49.5 -13z" />
    <glyph glyph-name="ijacute" 
d="M143 516h91l-86 -516h-91zM329 -212q-35 0 -64.5 25.5t-67.5 68.5l-34 38l62 53l100 -107l17 4l108 646h91l-102 -610q-8 -50 -34 -84t-76 -34zM158 614l109 170l77 -43l-132 -159zM464 614l109 170l77 -43l-132 -159z" />
    <glyph glyph-name="uni0237" unicode="&#x237;" 
d="M264 -212q-18 0 -33.5 6t-33 20.5t-39 38.5t-52.5 59l-58 67l62 52l149 -165l17 4l95 570h-208l12 76h300l-102 -610q-8 -51 -33.5 -84.5t-75.5 -33.5z" />
    <glyph glyph-name="jacute" 
d="M264 -212q-18 0 -33.5 6t-33 20.5t-39 38.5t-52.5 59l-58 67l62 52l149 -165l17 4l95 570h-208l12 76h300l-102 -610q-8 -51 -33.5 -84.5t-75.5 -33.5zM450 582l-55 32l109 170l77 -43z" />
    <glyph glyph-name="jcircumflex" unicode="&#x135;" 
d="M264 -212q-18 0 -33.5 6t-33 20.5t-39 38.5t-52.5 59l-58 67l62 52l149 -165l17 4l95 570h-208l12 76h300l-102 -610q-8 -51 -33.5 -84.5t-75.5 -33.5zM521 769l91 -149l-52 -33l-98 117l-136 -117l-45 38l137 144h103z" />
    <glyph glyph-name="kcommaaccent" unicode="&#x137;" 
d="M176 740h91l-58 -346h5q27 59 69.5 96.5t107.5 37.5q62 0 98.5 -34.5t36.5 -91.5q0 -26 -9 -52.5t-31.5 -51.5t-62 -47t-100.5 -37l65 -146l14 -3l123 114l48 -49l-67 -68q-38 -38 -65.5 -56t-58.5 -18q-30 0 -49.5 16.5t-35.5 53.5l-75 169q59 15 99.5 32.5t65 37
t35.5 40.5t11 44q0 34 -21 53t-60 19q-35 0 -59.5 -15.5t-46.5 -41.5q-21 -25 -36 -53t-20 -61l-47 -282h-91zM182 -62h117l-106 -191h-66z" />
    <glyph glyph-name="kgreenlandic" unicode="&#x138;" 
d="M289 251l-110 -94l-27 -157h-90l85 516h91l-41 -250h5l104 94l174 156h114l-233 -210l176 -306h-104z" />
    <glyph glyph-name="lacute" unicode="&#x13a;" 
d="M253 -12q-45 0 -64.5 22.5t-19.5 57.5q0 9 1 19.5t3 22.5l106 554h-176l13 76h270l-128 -667l23 -8l193 168l51 -49l-95 -89q-35 -32 -60.5 -53t-45.5 -33t-37 -16.5t-34 -4.5zM352 764l-55 32l109 170l77 -43z" />
    <glyph glyph-name="lcaron" unicode="&#x13e;" 
d="M253 -12q-45 0 -64.5 22.5t-19.5 57.5q0 9 1 19.5t3 22.5l106 554h-176l13 76h270l-128 -667l23 -8l193 168l51 -49l-95 -89q-35 -32 -60.5 -53t-45.5 -33t-37 -16.5t-34 -4.5zM500 548h-65l36 192h113z" />
    <glyph glyph-name="lcommaaccent" unicode="&#x13c;" 
d="M253 -12q-45 0 -64.5 22.5t-19.5 57.5q0 9 1 19.5t3 22.5l106 554h-176l13 76h270l-128 -667l23 -8l193 168l51 -49l-95 -89q-35 -32 -60.5 -53t-45.5 -33t-37 -16.5t-34 -4.5zM184 -62h117l-106 -191h-66z" />
    <glyph glyph-name="ldot" unicode="&#x140;" 
d="M253 -12q-45 0 -64.5 22.5t-19.5 57.5q0 9 1 19.5t3 22.5l106 554h-176l13 76h270l-128 -667l23 -8l193 168l51 -49l-95 -89q-35 -32 -60.5 -53t-45.5 -33t-37 -16.5t-34 -4.5zM475 321q-35 0 -49 13t-14 31q0 6 1 13t3 19q5 26 21.5 38.5t49.5 12.5q35 0 49 -13t14 -31
q0 -6 -1 -13t-3 -19q-5 -25 -21.5 -38t-49.5 -13z" />
    <glyph glyph-name="lslash" unicode="&#x142;" 
d="M253 -12q-45 0 -64.5 22.5t-19.5 57.5q0 9 1 19.5t3 22.5l35 176l-151 -45l14 76l151 47l57 300h-176l13 76h269l-66 -348l154 47l-13 -77l-156 -47l-47 -242l24 -8l193 168l51 -49l-95 -89q-35 -32 -60.5 -53t-45.5 -33t-37 -16.5t-34 -4.5z" />
    <glyph glyph-name="nacute" unicode="&#x144;" 
d="M52 0l86 516h91l-20 -122h5q29 62 68.5 98t102.5 36q67 0 103.5 -40t36.5 -109q0 -17 -1.5 -35t-5.5 -39l-51 -305h-91l51 303q3 17 4 31t1 25q0 42 -19.5 67t-61.5 25q-32 0 -56.5 -15t-46.5 -40q-5 -6 -13.5 -16.5t-17 -25t-16.5 -33t-11 -39.5l-47 -282h-91zM357 582
l-55 32l109 170l77 -43z" />
    <glyph glyph-name="ncaron" unicode="&#x148;" 
d="M52 0l86 516h91l-20 -122h5q29 62 68.5 98t102.5 36q67 0 103.5 -40t36.5 -109q0 -17 -1.5 -35t-5.5 -39l-51 -305h-91l51 303q3 17 4 31t1 25q0 42 -19.5 67t-61.5 25q-32 0 -56.5 -15t-46.5 -40q-5 -6 -13.5 -16.5t-17 -25t-16.5 -33t-11 -39.5l-47 -282h-91zM298 595
l-91 149l52 33l98 -117l136 117l45 -38l-137 -144h-103z" />
    <glyph glyph-name="ncommaaccent" unicode="&#x146;" 
d="M52 0l86 516h91l-20 -122h5q29 62 68.5 98t102.5 36q67 0 103.5 -40t36.5 -109q0 -17 -1.5 -35t-5.5 -39l-51 -305h-91l51 303q3 17 4 31t1 25q0 42 -19.5 67t-61.5 25q-32 0 -56.5 -15t-46.5 -40q-5 -6 -13.5 -16.5t-17 -25t-16.5 -33t-11 -39.5l-47 -282h-91zM187 -62
h117l-106 -191h-66z" />
    <glyph glyph-name="ntilde" unicode="&#xf1;" 
d="M52 0l86 516h91l-20 -122h5q29 62 68.5 98t102.5 36q67 0 103.5 -40t36.5 -109q0 -17 -1.5 -35t-5.5 -39l-51 -305h-91l51 303q3 17 4 31t1 25q0 42 -19.5 67t-61.5 25q-32 0 -56.5 -15t-46.5 -40q-5 -6 -13.5 -16.5t-17 -25t-16.5 -33t-11 -39.5l-47 -282h-91zM426 608
q-24 0 -40.5 9t-34.5 18t-34.5 16t-31.5 7q-16 0 -31 -7.5t-32 -21.5l-30 46q17 21 43.5 38t60.5 17q24 0 40.5 -9t34.5 -18t34.5 -16t31.5 -7q16 0 31 7.5t32 21.5l30 -46q-17 -21 -43.5 -38t-60.5 -17z" />
    <glyph glyph-name="napostrophe" unicode="&#x149;" 
d="M148 516h90l-20 -119h5q28 60 67 95.5t101 35.5q66 0 102.5 -39.5t36.5 -107.5q0 -16 -1.5 -32.5t-5.5 -40.5l-51 -308h-91l50 305q6 34 6 55q0 41 -19 66t-60 25q-32 0 -56.5 -14t-45.5 -38q-5 -5 -12.5 -15.5t-16 -25.5t-16 -33.5t-10.5 -39.5l-47 -285h-91zM95 740h98
l-84 -189h-56z" />
    <glyph glyph-name="eng" unicode="&#x14b;" 
d="M341 -212q-17 0 -32.5 6.5t-30.5 19t-31.5 30t-35.5 39.5l-32 35l61 52l98 -104l17 4l72 433q3 17 4 31t1 25q0 42 -19.5 67t-61.5 25q-32 0 -57.5 -16t-45.5 -39q-5 -6 -13.5 -16.5t-17 -25t-16.5 -33t-11 -39.5l-47 -282h-91l86 516h91l-20 -122h5q29 62 68.5 98
t102.5 36q67 0 103.5 -40t36.5 -109q0 -17 -1.5 -35t-5.5 -39l-66 -399q-8 -50 -34.5 -84t-76.5 -34z" />
    <glyph glyph-name="oacute" unicode="&#xf3;" 
d="M265 -12q-50 0 -88.5 16t-64.5 44.5t-39 69t-13 89.5q0 74 21 133.5t58 101t87 64t108 22.5q51 0 89.5 -16t64.5 -44.5t39 -69t13 -89.5q0 -74 -21 -133.5t-58 -101t-87.5 -64t-108.5 -22.5zM270 64q69 0 110 41.5t53 114.5l10 63q3 17 4 28.5t1 20.5q0 62 -32 91t-86 29
q-69 0 -110 -41.5t-53 -114.5l-10 -63q-3 -17 -4 -28.5t-1 -20.5q0 -62 32 -91t86 -29zM364 582l-55 32l109 170l77 -43z" />
    <glyph glyph-name="obreve" unicode="&#x14f;" 
d="M265 -12q-50 0 -88.5 16t-64.5 44.5t-39 69t-13 89.5q0 74 21 133.5t58 101t87 64t108 22.5q51 0 89.5 -16t64.5 -44.5t39 -69t13 -89.5q0 -74 -21 -133.5t-58 -101t-87.5 -64t-108.5 -22.5zM270 64q69 0 110 41.5t53 114.5l10 63q3 17 4 28.5t1 20.5q0 62 -32 91t-86 29
q-69 0 -110 -41.5t-53 -114.5l-10 -63q-3 -17 -4 -28.5t-1 -20.5q0 -62 32 -91t86 -29zM360 590q-41 0 -67.5 15t-43 38t-25.5 50.5t-13 51.5l55 25l16 -35q16 -37 31.5 -55.5t48.5 -18.5q15 0 27 4.5t23 13.5t23 23t28 34l27 34l56 -25q-12 -25 -28 -52.5t-38 -50
t-51.5 -37.5t-68.5 -15z" />
    <glyph glyph-name="ocircumflex" unicode="&#xf4;" 
d="M265 -12q-50 0 -88.5 16t-64.5 44.5t-39 69t-13 89.5q0 74 21 133.5t58 101t87 64t108 22.5q51 0 89.5 -16t64.5 -44.5t39 -69t13 -89.5q0 -74 -21 -133.5t-58 -101t-87.5 -64t-108.5 -22.5zM270 64q69 0 110 41.5t53 114.5l10 63q3 17 4 28.5t1 20.5q0 62 -32 91t-86 29
q-69 0 -110 -41.5t-53 -114.5l-10 -63q-3 -17 -4 -28.5t-1 -20.5q0 -62 32 -91t86 -29zM435 769l91 -149l-52 -33l-98 117l-136 -117l-45 38l137 144h103z" />
    <glyph glyph-name="odieresis" unicode="&#xf6;" 
d="M265 -12q-50 0 -88.5 16t-64.5 44.5t-39 69t-13 89.5q0 74 21 133.5t58 101t87 64t108 22.5q51 0 89.5 -16t64.5 -44.5t39 -69t13 -89.5q0 -74 -21 -133.5t-58 -101t-87.5 -64t-108.5 -22.5zM270 64q69 0 110 41.5t53 114.5l10 63q3 17 4 28.5t1 20.5q0 62 -32 91t-86 29
q-69 0 -110 -41.5t-53 -114.5l-10 -63q-3 -17 -4 -28.5t-1 -20.5q0 -62 32 -91t86 -29zM266 614q-32 0 -44.5 11.5t-12.5 27.5q0 10 5 27q6 20 18.5 33t45.5 13q32 0 44.5 -11.5t12.5 -27.5q0 -10 -5 -27q-6 -20 -18.5 -33t-45.5 -13zM458 614q-32 0 -44.5 11.5t-12.5 27.5
q0 10 5 27q6 20 18.5 33t45.5 13q32 0 44.5 -11.5t12.5 -27.5q0 -10 -5 -27q-6 -20 -18.5 -33t-45.5 -13z" />
    <glyph glyph-name="uni1ECD" unicode="&#x1ecd;" 
d="M265 -12q-50 0 -88.5 16t-64.5 44.5t-39 69t-13 89.5q0 74 21 133.5t58 101t87 64t108 22.5q51 0 89.5 -16t64.5 -44.5t39 -69t13 -89.5q0 -74 -21 -133.5t-58 -101t-87.5 -64t-108.5 -22.5zM270 64q69 0 110 41.5t53 114.5l10 63q3 17 4 28.5t1 20.5q0 62 -32 91t-86 29
q-69 0 -110 -41.5t-53 -114.5l-10 -63q-3 -17 -4 -28.5t-1 -20.5q0 -62 32 -91t86 -29zM231 -177q-31 0 -43 11.5t-12 27.5q0 5 1 12.5t3 15.5q4 20 18 33t46 13q31 0 43 -11.5t12 -27.5q0 -5 -1 -12.5t-3 -15.5q-4 -20 -18 -33t-46 -13z" />
    <glyph glyph-name="ograve" unicode="&#xf2;" 
d="M265 -12q-50 0 -88.5 16t-64.5 44.5t-39 69t-13 89.5q0 74 21 133.5t58 101t87 64t108 22.5q51 0 89.5 -16t64.5 -44.5t39 -69t13 -89.5q0 -74 -21 -133.5t-58 -101t-87.5 -64t-108.5 -22.5zM270 64q69 0 110 41.5t53 114.5l10 63q3 17 4 28.5t1 20.5q0 62 -32 91t-86 29
q-69 0 -110 -41.5t-53 -114.5l-10 -63q-3 -17 -4 -28.5t-1 -20.5q0 -62 32 -91t86 -29zM262 751l84 33l57 -178l-58 -24z" />
    <glyph glyph-name="uni1ECF" unicode="&#x1ecf;" 
d="M265 -12q-50 0 -88.5 16t-64.5 44.5t-39 69t-13 89.5q0 74 21 133.5t58 101t87 64t108 22.5q51 0 89.5 -16t64.5 -44.5t39 -69t13 -89.5q0 -74 -21 -133.5t-58 -101t-87.5 -64t-108.5 -22.5zM270 64q69 0 110 41.5t53 114.5l10 63q3 17 4 28.5t1 20.5q0 62 -32 91t-86 29
q-69 0 -110 -41.5t-53 -114.5l-10 -63q-3 -17 -4 -28.5t-1 -20.5q0 -62 32 -91t86 -29zM295 770h111q36 0 52.5 -15t16.5 -38q0 -24 -13.5 -47t-37.5 -49l-43 -47l-48 28l67 99h-116z" />
    <glyph glyph-name="ohungarumlaut" unicode="&#x151;" 
d="M265 -12q-50 0 -88.5 16t-64.5 44.5t-39 69t-13 89.5q0 74 21 133.5t58 101t87 64t108 22.5q51 0 89.5 -16t64.5 -44.5t39 -69t13 -89.5q0 -74 -21 -133.5t-58 -101t-87.5 -64t-108.5 -22.5zM270 64q69 0 110 41.5t53 114.5l10 63q3 17 4 28.5t1 20.5q0 62 -32 91t-86 29
q-69 0 -110 -41.5t-53 -114.5l-10 -63q-3 -17 -4 -28.5t-1 -20.5q0 -62 32 -91t86 -29zM279 583l-50 28l107 172l73 -41zM447 583l-50 28l107 172l73 -41z" />
    <glyph glyph-name="omacron" unicode="&#x14d;" 
d="M265 -12q-50 0 -88.5 16t-64.5 44.5t-39 69t-13 89.5q0 74 21 133.5t58 101t87 64t108 22.5q51 0 89.5 -16t64.5 -44.5t39 -69t13 -89.5q0 -74 -21 -133.5t-58 -101t-87.5 -64t-108.5 -22.5zM270 64q69 0 110 41.5t53 114.5l10 63q3 17 4 28.5t1 20.5q0 62 -32 91t-86 29
q-69 0 -110 -41.5t-53 -114.5l-10 -63q-3 -17 -4 -28.5t-1 -20.5q0 -62 32 -91t86 -29zM232 707h282l-12 -73h-282z" />
    <glyph glyph-name="oslash" unicode="&#xf8;" 
d="M3 1l84 85q-13 25 -20 55.5t-7 65.5q0 74 21 133.5t58 101t87 64t109 22.5q45 0 79.5 -13t60.5 -36l74 76l48 -40l-84 -85q13 -25 20 -55.5t7 -65.5q0 -74 -21 -133.5t-58 -101t-87.5 -64t-108.5 -22.5q-45 0 -79.5 13t-60.5 36l-74 -76zM330 452q-69 0 -110 -41.5
t-53 -114.5l-10 -63q-3 -16 -4 -28t-1 -23q0 -7 0.5 -13.5t3.5 -17.5l261 271q-15 15 -37.5 22.5t-49.5 7.5zM270 64q69 0 110 41.5t53 114.5l10 63q3 16 4 27.5t1 22.5q0 7 -0.5 14t-3.5 18l-261 -271q15 -15 37.5 -22.5t49.5 -7.5z" />
    <glyph glyph-name="oslashacute" unicode="&#x1ff;" 
d="M3 1l84 85q-13 25 -20 55.5t-7 65.5q0 74 21 133.5t58 101t87 64t109 22.5q45 0 79.5 -13t60.5 -36l74 76l48 -40l-84 -85q13 -25 20 -55.5t7 -65.5q0 -74 -21 -133.5t-58 -101t-87.5 -64t-108.5 -22.5q-45 0 -79.5 13t-60.5 36l-74 -76zM330 452q-69 0 -110 -41.5
t-53 -114.5l-10 -63q-3 -16 -4 -28t-1 -23q0 -7 0.5 -13.5t3.5 -17.5l261 271q-15 15 -37.5 22.5t-49.5 7.5zM270 64q69 0 110 41.5t53 114.5l10 63q3 16 4 27.5t1 22.5q0 7 -0.5 14t-3.5 18l-261 -271q15 -15 37.5 -22.5t49.5 -7.5zM364 582l-55 32l109 170l77 -43z" />
    <glyph glyph-name="otilde" unicode="&#xf5;" 
d="M265 -12q-50 0 -88.5 16t-64.5 44.5t-39 69t-13 89.5q0 74 21 133.5t58 101t87 64t108 22.5q51 0 89.5 -16t64.5 -44.5t39 -69t13 -89.5q0 -74 -21 -133.5t-58 -101t-87.5 -64t-108.5 -22.5zM270 64q69 0 110 41.5t53 114.5l10 63q3 17 4 28.5t1 20.5q0 62 -32 91t-86 29
q-69 0 -110 -41.5t-53 -114.5l-10 -63q-3 -17 -4 -28.5t-1 -20.5q0 -62 32 -91t86 -29zM433 608q-24 0 -40.5 9t-34.5 18t-34.5 16t-31.5 7q-16 0 -31 -7.5t-32 -21.5l-30 46q17 21 43.5 38t60.5 17q24 0 40.5 -9t34.5 -18t34.5 -16t31.5 -7q16 0 31 7.5t32 21.5l30 -46
q-17 -21 -43.5 -38t-60.5 -17z" />
    <glyph glyph-name="ohorn" unicode="&#x1a1;" 
d="M265 -12q-50 0 -88.5 16t-64.5 44.5t-39 69t-13 89.5q0 74 21 133.5t58 101t87 64t108 22.5q45 0 78 -12h96l19 112h79l-17 -102q-5 -29 -22 -47t-56 -18h-22q51 -54 51 -152q0 -74 -21 -133.5t-58 -101t-87.5 -64t-108.5 -22.5zM270 64q69 0 110 41.5t53 114.5l10 63
q3 17 4 28.5t1 20.5q0 62 -32 91t-86 29q-69 0 -110 -41.5t-53 -114.5l-10 -63q-3 -17 -4 -28.5t-1 -20.5q0 -62 32 -91t86 -29z" />
    <glyph glyph-name="uni1EDB" unicode="&#x1edb;" 
d="M265 -12q-50 0 -88.5 16t-64.5 44.5t-39 69t-13 89.5q0 74 21 133.5t58 101t87 64t108 22.5q45 0 78 -12h96l19 112h79l-17 -102q-5 -29 -22 -47t-56 -18h-22q51 -54 51 -152q0 -74 -21 -133.5t-58 -101t-87.5 -64t-108.5 -22.5zM270 64q69 0 110 41.5t53 114.5l10 63
q3 17 4 28.5t1 20.5q0 62 -32 91t-86 29q-69 0 -110 -41.5t-53 -114.5l-10 -63q-3 -17 -4 -28.5t-1 -20.5q0 -62 32 -91t86 -29zM364 582l-55 32l109 170l77 -43z" />
    <glyph glyph-name="uni1EE3" unicode="&#x1ee3;" 
d="M265 -12q-50 0 -88.5 16t-64.5 44.5t-39 69t-13 89.5q0 74 21 133.5t58 101t87 64t108 22.5q45 0 78 -12h96l19 112h79l-17 -102q-5 -29 -22 -47t-56 -18h-22q51 -54 51 -152q0 -74 -21 -133.5t-58 -101t-87.5 -64t-108.5 -22.5zM270 64q69 0 110 41.5t53 114.5l10 63
q3 17 4 28.5t1 20.5q0 62 -32 91t-86 29q-69 0 -110 -41.5t-53 -114.5l-10 -63q-3 -17 -4 -28.5t-1 -20.5q0 -62 32 -91t86 -29zM231 -177q-31 0 -43 11.5t-12 27.5q0 5 1 12.5t3 15.5q4 20 18 33t46 13q31 0 43 -11.5t12 -27.5q0 -5 -1 -12.5t-3 -15.5q-4 -20 -18 -33
t-46 -13z" />
    <glyph glyph-name="uni1EDD" unicode="&#x1edd;" 
d="M265 -12q-50 0 -88.5 16t-64.5 44.5t-39 69t-13 89.5q0 74 21 133.5t58 101t87 64t108 22.5q45 0 78 -12h96l19 112h79l-17 -102q-5 -29 -22 -47t-56 -18h-22q51 -54 51 -152q0 -74 -21 -133.5t-58 -101t-87.5 -64t-108.5 -22.5zM270 64q69 0 110 41.5t53 114.5l10 63
q3 17 4 28.5t1 20.5q0 62 -32 91t-86 29q-69 0 -110 -41.5t-53 -114.5l-10 -63q-3 -17 -4 -28.5t-1 -20.5q0 -62 32 -91t86 -29zM262 751l84 33l57 -178l-58 -24z" />
    <glyph glyph-name="uni1EDF" unicode="&#x1edf;" 
d="M265 -12q-50 0 -88.5 16t-64.5 44.5t-39 69t-13 89.5q0 74 21 133.5t58 101t87 64t108 22.5q45 0 78 -12h96l19 112h79l-17 -102q-5 -29 -22 -47t-56 -18h-22q51 -54 51 -152q0 -74 -21 -133.5t-58 -101t-87.5 -64t-108.5 -22.5zM270 64q69 0 110 41.5t53 114.5l10 63
q3 17 4 28.5t1 20.5q0 62 -32 91t-86 29q-69 0 -110 -41.5t-53 -114.5l-10 -63q-3 -17 -4 -28.5t-1 -20.5q0 -62 32 -91t86 -29zM295 770h111q36 0 52.5 -15t16.5 -38q0 -24 -13.5 -47t-37.5 -49l-43 -47l-48 28l67 99h-116z" />
    <glyph glyph-name="uni1EE1" unicode="&#x1ee1;" 
d="M265 -12q-50 0 -88.5 16t-64.5 44.5t-39 69t-13 89.5q0 74 21 133.5t58 101t87 64t108 22.5q45 0 78 -12h96l19 112h79l-17 -102q-5 -29 -22 -47t-56 -18h-22q51 -54 51 -152q0 -74 -21 -133.5t-58 -101t-87.5 -64t-108.5 -22.5zM270 64q69 0 110 41.5t53 114.5l10 63
q3 17 4 28.5t1 20.5q0 62 -32 91t-86 29q-69 0 -110 -41.5t-53 -114.5l-10 -63q-3 -17 -4 -28.5t-1 -20.5q0 -62 32 -91t86 -29zM420 612q-21 0 -35 7t-29 16q-17 10 -30 15.5t-26 5.5q-16 0 -30 -6.5t-30 -19.5l-33 44q17 21 42.5 37t57.5 16q21 0 35 -7t29 -16
q17 -10 30 -15.5t26 -5.5q16 0 30 6.5t30 19.5l33 -44q-17 -21 -42.5 -37t-57.5 -16z" />
    <glyph glyph-name="uni1ED1" unicode="&#x1ed1;" 
d="M265 -12q-50 0 -88.5 16t-64.5 44.5t-39 69t-13 89.5q0 74 21 133.5t58 101t87 64t108 22.5q51 0 89.5 -16t64.5 -44.5t39 -69t13 -89.5q0 -74 -21 -133.5t-58 -101t-87.5 -64t-108.5 -22.5zM270 64q69 0 110 41.5t53 114.5l10 63q3 17 4 28.5t1 20.5q0 62 -32 91t-86 29
q-69 0 -110 -41.5t-53 -114.5l-10 -63q-3 -17 -4 -28.5t-1 -20.5q0 -62 32 -91t86 -29zM528 711l-51 29l107 171l74 -41zM430 758l94 -147l-52 -34l-98 115l-137 -115l-44 39l140 142h97z" />
    <glyph glyph-name="uni1ED9" unicode="&#x1ed9;" 
d="M265 -12q-50 0 -88.5 16t-64.5 44.5t-39 69t-13 89.5q0 74 21 133.5t58 101t87 64t108 22.5q51 0 89.5 -16t64.5 -44.5t39 -69t13 -89.5q0 -74 -21 -133.5t-58 -101t-87.5 -64t-108.5 -22.5zM270 64q69 0 110 41.5t53 114.5l10 63q3 17 4 28.5t1 20.5q0 62 -32 91t-86 29
q-69 0 -110 -41.5t-53 -114.5l-10 -63q-3 -17 -4 -28.5t-1 -20.5q0 -62 32 -91t86 -29zM435 769l91 -149l-52 -33l-98 117l-136 -117l-45 38l137 144h103zM231 -177q-31 0 -43 11.5t-12 27.5q0 5 1 12.5t3 15.5q4 20 18 33t46 13q31 0 43 -11.5t12 -27.5q0 -5 -1 -12.5
t-3 -15.5q-4 -20 -18 -33t-46 -13z" />
    <glyph glyph-name="uni1ED3" unicode="&#x1ed3;" 
d="M265 -12q-50 0 -88.5 16t-64.5 44.5t-39 69t-13 89.5q0 74 21 133.5t58 101t87 64t108 22.5q51 0 89.5 -16t64.5 -44.5t39 -69t13 -89.5q0 -74 -21 -133.5t-58 -101t-87.5 -64t-108.5 -22.5zM270 64q69 0 110 41.5t53 114.5l10 63q3 17 4 28.5t1 20.5q0 62 -32 91t-86 29
q-69 0 -110 -41.5t-53 -114.5l-10 -63q-3 -17 -4 -28.5t-1 -20.5q0 -62 32 -91t86 -29zM137 883l79 32l56 -178l-53 -22zM430 758l94 -147l-52 -34l-98 115l-137 -115l-44 39l140 142h97z" />
    <glyph glyph-name="uni1ED5" unicode="&#x1ed5;" 
d="M265 -12q-50 0 -88.5 16t-64.5 44.5t-39 69t-13 89.5q0 74 21 133.5t58 101t87 64t108 22.5q51 0 89.5 -16t64.5 -44.5t39 -69t13 -89.5q0 -74 -21 -133.5t-58 -101t-87.5 -64t-108.5 -22.5zM270 64q69 0 110 41.5t53 114.5l10 63q3 17 4 28.5t1 20.5q0 62 -32 91t-86 29
q-69 0 -110 -41.5t-53 -114.5l-10 -63q-3 -17 -4 -28.5t-1 -20.5q0 -62 32 -91t86 -29zM449 904h108q37 0 53.5 -15t16.5 -37q0 -21 -11 -40.5t-29 -39.5l-55 -64l-48 28l68 100h-115zM431 758l93 -147l-51 -34l-99 115l-136 -115l-44 39l140 142h97z" />
    <glyph glyph-name="uni1ED7" unicode="&#x1ed7;" 
d="M265 -12q-50 0 -88.5 16t-64.5 44.5t-39 69t-13 89.5q0 74 21 133.5t58 101t87 64t108 22.5q51 0 89.5 -16t64.5 -44.5t39 -69t13 -89.5q0 -74 -21 -133.5t-58 -101t-87.5 -64t-108.5 -22.5zM270 64q69 0 110 41.5t53 114.5l10 63q3 17 4 28.5t1 20.5q0 62 -32 91t-86 29
q-69 0 -110 -41.5t-53 -114.5l-10 -63q-3 -17 -4 -28.5t-1 -20.5q0 -62 32 -91t86 -29zM331 901q24 0 42 -8.5t33 -17.5q18 -11 34.5 -17t31.5 -6q17 0 31.5 7t31.5 21l30 -46q-17 -20 -43.5 -36.5t-59.5 -16.5q-25 0 -42.5 8.5t-33.5 17.5q-18 11 -34.5 17t-31.5 6
q-16 0 -31 -7.5t-32 -20.5l-30 45q17 21 44 37.5t60 16.5zM431 748l94 -138l-52 -33l-100 108l-135 -108l-44 41l138 130h99z" />
    <glyph glyph-name="oe" unicode="&#x153;" 
d="M405 -12q-48 0 -80.5 26t-38.5 78h-5q-13 -44 -47.5 -74t-87.5 -30q-68 0 -98 53.5t-30 140.5q0 65 13 127.5t39 111t64.5 78t88.5 29.5q26 0 46 -8t33.5 -21.5t21 -30.5t10.5 -35h4q25 45 61 70t84 25q54 0 88.5 -32.5t34.5 -89.5q0 -31 -12 -61t-42 -54t-80.5 -39.5
t-128.5 -17.5l-3 -21q-2 -14 -3 -28t-1 -25q0 -51 19 -77.5t55 -26.5q37 0 59.5 26t40.5 62l62 -29q-12 -26 -28 -49t-36.5 -40.5t-46 -27.5t-56.5 -10zM158 54q37 0 63 34.5t40 114.5l18 110q2 17 3 32t1 24q0 50 -18 71.5t-47 21.5q-36 0 -62 -34.5t-40 -114.5l-18 -110
q-3 -16 -4 -31.5t-1 -24.5q0 -50 18 -71.5t47 -21.5zM475 463q-24 0 -44 -12t-35.5 -33t-25.5 -49.5t-15 -60.5l-3 -16q51 1 86 10.5t56 24.5t30 34.5t9 42.5q0 28 -14.5 43.5t-43.5 15.5z" />
    <glyph glyph-name="racute" unicode="&#x155;" 
d="M172 0l73 440h-139l13 76h230l-24 -141h5q28 64 72.5 102.5t118.5 38.5h70l-15 -91h-90q-44 0 -72 -12.5t-52 -38.5q-6 -6 -14 -16.5t-16 -24.5t-15 -31.5t-10 -38.5l-44 -263h-91zM388 582l-55 32l109 170l77 -43z" />
    <glyph glyph-name="rcaron" unicode="&#x159;" 
d="M172 0l73 440h-139l13 76h230l-24 -141h5q28 64 72.5 102.5t118.5 38.5h70l-15 -91h-90q-44 0 -72 -12.5t-52 -38.5q-6 -6 -14 -16.5t-16 -24.5t-15 -31.5t-10 -38.5l-44 -263h-91zM329 595l-91 149l52 33l98 -117l136 117l45 -38l-137 -144h-103z" />
    <glyph glyph-name="rcommaaccent" unicode="&#x157;" 
d="M172 0l73 440h-139l13 76h230l-24 -141h5q28 64 72.5 102.5t118.5 38.5h70l-15 -91h-90q-44 0 -72 -12.5t-52 -38.5q-6 -6 -14 -16.5t-16 -24.5t-15 -31.5t-10 -38.5l-44 -263h-91zM150 -62h117l-106 -191h-66z" />
    <glyph glyph-name="sacute" unicode="&#x15b;" 
d="M266 -12q-75 0 -131 24.5t-88 70.5l62 52q29 -36 68.5 -55t96.5 -19q64 0 100.5 24t36.5 67q0 33 -20.5 46t-50.5 18l-74 12q-29 4 -56 12t-48 23t-34 38.5t-13 59.5q0 42 17.5 73t48 52t71 31.5t87.5 10.5q68 0 117 -21t78 -57l-60 -54q-14 20 -48 39.5t-95 19.5
q-62 0 -94.5 -23t-32.5 -62q0 -17 6 -28t16.5 -18t24 -10.5t28.5 -6.5l74 -13q26 -5 52.5 -12t47.5 -21.5t34.5 -37.5t13.5 -60q0 -41 -17 -73.5t-47.5 -55t-74 -34.5t-96.5 -12zM357 582l-55 32l109 170l77 -43z" />
    <glyph glyph-name="scaron" unicode="&#x161;" 
d="M266 -12q-75 0 -131 24.5t-88 70.5l62 52q29 -36 68.5 -55t96.5 -19q64 0 100.5 24t36.5 67q0 33 -20.5 46t-50.5 18l-74 12q-29 4 -56 12t-48 23t-34 38.5t-13 59.5q0 42 17.5 73t48 52t71 31.5t87.5 10.5q68 0 117 -21t78 -57l-60 -54q-14 20 -48 39.5t-95 19.5
q-62 0 -94.5 -23t-32.5 -62q0 -17 6 -28t16.5 -18t24 -10.5t28.5 -6.5l74 -13q26 -5 52.5 -12t47.5 -21.5t34.5 -37.5t13.5 -60q0 -41 -17 -73.5t-47.5 -55t-74 -34.5t-96.5 -12zM298 595l-91 149l52 33l98 -117l136 117l45 -38l-137 -144h-103z" />
    <glyph glyph-name="scedilla" unicode="&#x15f;" 
d="M255 -208q-40 0 -64.5 12.5t-35.5 29.5l42 42q8 -11 21.5 -19t35.5 -8t36 8.5t14 24.5q0 11 -11.5 22.5t-49.5 16.5l-28 3l23 65q-132 9 -191 94l62 52q29 -36 68.5 -55t96.5 -19q64 0 100.5 24t36.5 67q0 33 -20 46t-51 18l-74 12q-29 4 -56 12.5t-48 23.5t-34 38.5
t-13 58.5q0 42 17.5 73t48 52t71 31.5t87.5 10.5q68 0 117 -21t78 -57l-60 -54q-14 20 -48 39.5t-95 19.5q-62 0 -94.5 -23t-32.5 -62q0 -17 6 -28t16 -18t24 -10.5t29 -6.5l74 -13q26 -5 52.5 -12t47.5 -21.5t34.5 -37.5t13.5 -60q0 -77 -56.5 -122.5t-152.5 -51.5l-17 -49
l2 -3q23 5 38 5q28 0 44 -15t16 -44q0 -24 -9.5 -41t-26 -28t-38.5 -16.5t-46 -5.5z" />
    <glyph glyph-name="scircumflex" unicode="&#x15d;" 
d="M266 -12q-75 0 -131 24.5t-88 70.5l62 52q29 -36 68.5 -55t96.5 -19q64 0 100.5 24t36.5 67q0 33 -20.5 46t-50.5 18l-74 12q-29 4 -56 12t-48 23t-34 38.5t-13 59.5q0 42 17.5 73t48 52t71 31.5t87.5 10.5q68 0 117 -21t78 -57l-60 -54q-14 20 -48 39.5t-95 19.5
q-62 0 -94.5 -23t-32.5 -62q0 -17 6 -28t16.5 -18t24 -10.5t28.5 -6.5l74 -13q26 -5 52.5 -12t47.5 -21.5t34.5 -37.5t13.5 -60q0 -41 -17 -73.5t-47.5 -55t-74 -34.5t-96.5 -12zM428 769l91 -149l-52 -33l-98 117l-136 -117l-45 38l137 144h103z" />
    <glyph glyph-name="scommaaccent" unicode="&#x219;" 
d="M266 -12q-75 0 -131 24.5t-88 70.5l62 52q29 -36 68.5 -55t96.5 -19q64 0 100.5 24t36.5 67q0 33 -20.5 46t-50.5 18l-74 12q-29 4 -56 12t-48 23t-34 38.5t-13 59.5q0 42 17.5 73t48 52t71 31.5t87.5 10.5q68 0 117 -21t78 -57l-60 -54q-14 20 -48 39.5t-95 19.5
q-62 0 -94.5 -23t-32.5 -62q0 -17 6 -28t16.5 -18t24 -10.5t28.5 -6.5l74 -13q26 -5 52.5 -12t47.5 -21.5t34.5 -37.5t13.5 -60q0 -41 -17 -73.5t-47.5 -55t-74 -34.5t-96.5 -12zM202 -62h117l-106 -191h-66z" />
    <glyph glyph-name="germandbls" unicode="&#xdf;" 
d="M54 0l103 618q11 68 49.5 95t89.5 27h138l-13 -76h-166l-24 -148h338l-14 -83l-199 -224q84 -8 130 -48.5t46 -115.5q0 -56 -19.5 -101.5t-57 -77.5t-92 -49t-124.5 -17h-70l13 76h63q79 0 127.5 30.5t59.5 96.5q4 23 4.5 33.5t0.5 18.5q0 51 -38.5 71t-123.5 20h-17
l12 76l193 218h-245l-74 -440h-90z" />
    <glyph glyph-name="germandbls.alt01" 
d="M124 439h-69l13 77h69l1 6q9 54 30 96.5t53 72t73.5 45.5t90.5 16q86 0 131 -47.5t45 -127.5q0 -30 -6 -64l-10 -59h-50q-60 0 -95.5 -21t-35.5 -67q0 -28 15 -40t47 -25l24 -10q62 -26 86 -54.5t24 -74.5q0 -43 -15 -75.5t-41 -54.5t-62.5 -33t-78.5 -11q-51 0 -92 17.5
t-68 59.5l61 50q17 -29 45 -42.5t62 -13.5q49 0 75 24.5t26 66.5q0 26 -12 43.5t-41 28.5l-25 9q-24 9 -46 19t-38 24.5t-25.5 34.5t-9.5 50q0 36 14.5 64.5t40 49t61 32t76.5 14.5l2 10q3 15 4 28t1 22q0 50 -23 75t-75 25q-65 0 -99.5 -40t-46.5 -112l-89 -527h-90z" />
    <glyph glyph-name="tbar" unicode="&#x167;" 
d="M247 -12q-42 0 -63.5 22t-21.5 62q0 8 1 20.5t3 23.5l25 147h-96l11 69h97l19 108h-146l12 76h101q27 0 40.5 11t18.5 38l22 133h86l-31 -182h211l-12 -76h-211l-18 -108h149l-11 -69h-150l-31 -187l19 -12l211 139l44 -57l-104 -73q-33 -24 -58.5 -40t-46 -26
t-37.5 -14.5t-33 -4.5z" />
    <glyph glyph-name="tcaron" unicode="&#x165;" 
d="M246 -12q-41 0 -62.5 22t-21.5 62q0 8 1 20.5t3 23.5l56 324h-146l12 76h101q27 0 40.5 11t18.5 38l22 133h86l-31 -182h211l-12 -76h-211l-61 -364l20 -11l212 145l45 -56l-103 -75q-34 -25 -60 -42.5t-46.5 -28t-38 -15.5t-35.5 -5zM490 572h-65l36 192h113z" />
    <glyph glyph-name="tcommaaccent" unicode="&#x163;" 
d="M246 -12q-41 0 -62.5 22t-21.5 62q0 8 1 20.5t3 23.5l56 324h-146l12 76h101q27 0 40.5 11t18.5 38l22 133h86l-31 -182h211l-12 -76h-211l-61 -364l20 -11l212 145l45 -56l-103 -75q-34 -25 -60 -42.5t-46.5 -28t-38 -15.5t-35.5 -5zM174 -62h117l-106 -191h-66z" />
    <glyph glyph-name="uni021B" unicode="&#x21b;" 
d="M246 -12q-41 0 -62.5 22t-21.5 62q0 8 1 20.5t3 23.5l56 324h-146l12 76h101q27 0 40.5 11t18.5 38l22 133h86l-31 -182h211l-12 -76h-211l-61 -364l20 -11l212 145l45 -56l-103 -75q-34 -25 -60 -42.5t-46.5 -28t-38 -15.5t-35.5 -5zM174 -62h117l-106 -191h-66z" />
    <glyph glyph-name="thorn" unicode="&#xfe;" 
d="M171 740h91l-58 -346h3q15 30 32.5 54.5t39 42.5t48.5 27.5t61 9.5q79 0 119 -51t40 -149q0 -57 -13.5 -117t-42.5 -109.5t-75 -81.5t-111 -32q-116 0 -148 103h-4l-49 -291h-91zM277 65q71 0 111 42.5t52 112.5l11 69q4 23 4 45q0 54 -25 85.5t-76 31.5q-65 0 -114 -56
q-18 -21 -33.5 -50t-21.5 -64l-18 -108q-8 -51 23 -79.5t87 -28.5z" />
    <glyph glyph-name="uacute" unicode="&#xfa;" 
d="M392 122h-4q-29 -62 -69 -98t-103 -36q-66 0 -103 40t-37 109q0 17 1.5 35t5.5 39l51 305h91l-50 -303q-6 -33 -6 -56q0 -42 19.5 -67t61.5 -25q32 0 57 15t47 40q5 6 13 16.5t17 25t16.5 33t10.5 39.5l47 282h91l-86 -516h-91zM361 582l-55 32l109 170l77 -43z" />
    <glyph glyph-name="ubreve" unicode="&#x16d;" 
d="M392 122h-4q-29 -62 -69 -98t-103 -36q-66 0 -103 40t-37 109q0 17 1.5 35t5.5 39l51 305h91l-50 -303q-6 -33 -6 -56q0 -42 19.5 -67t61.5 -25q32 0 57 15t47 40q5 6 13 16.5t17 25t16.5 33t10.5 39.5l47 282h91l-86 -516h-91zM357 590q-41 0 -67.5 15t-43 38
t-25.5 50.5t-13 51.5l55 25l16 -35q16 -37 31.5 -55.5t48.5 -18.5q15 0 27 4.5t23 13.5t23 23t28 34l27 34l56 -25q-12 -25 -28 -52.5t-38 -50t-51.5 -37.5t-68.5 -15z" />
    <glyph glyph-name="ucircumflex" unicode="&#xfb;" 
d="M392 122h-4q-29 -62 -69 -98t-103 -36q-66 0 -103 40t-37 109q0 17 1.5 35t5.5 39l51 305h91l-50 -303q-6 -33 -6 -56q0 -42 19.5 -67t61.5 -25q32 0 57 15t47 40q5 6 13 16.5t17 25t16.5 33t10.5 39.5l47 282h91l-86 -516h-91zM432 769l91 -149l-52 -33l-98 117
l-136 -117l-45 38l137 144h103z" />
    <glyph glyph-name="udieresis" unicode="&#xfc;" 
d="M392 122h-4q-29 -62 -69 -98t-103 -36q-66 0 -103 40t-37 109q0 17 1.5 35t5.5 39l51 305h91l-50 -303q-6 -33 -6 -56q0 -42 19.5 -67t61.5 -25q32 0 57 15t47 40q5 6 13 16.5t17 25t16.5 33t10.5 39.5l47 282h91l-86 -516h-91zM263 614q-32 0 -44.5 11.5t-12.5 27.5
q0 10 5 27q6 20 18.5 33t45.5 13q32 0 44.5 -11.5t12.5 -27.5q0 -10 -5 -27q-6 -20 -18.5 -33t-45.5 -13zM455 614q-32 0 -44.5 11.5t-12.5 27.5q0 10 5 27q6 20 18.5 33t45.5 13q32 0 44.5 -11.5t12.5 -27.5q0 -10 -5 -27q-6 -20 -18.5 -33t-45.5 -13z" />
    <glyph glyph-name="uni1EE5" unicode="&#x1ee5;" 
d="M392 122h-4q-29 -62 -69 -98t-103 -36q-66 0 -103 40t-37 109q0 17 1.5 35t5.5 39l51 305h91l-50 -303q-6 -33 -6 -56q0 -42 19.5 -67t61.5 -25q32 0 57 15t47 40q5 6 13 16.5t17 25t16.5 33t10.5 39.5l47 282h91l-86 -516h-91zM236 -177q-31 0 -43 11.5t-12 27.5
q0 5 1 12.5t3 15.5q4 20 18 33t46 13q31 0 43 -11.5t12 -27.5q0 -5 -1 -12.5t-3 -15.5q-4 -20 -18 -33t-46 -13z" />
    <glyph glyph-name="ugrave" unicode="&#xf9;" 
d="M392 122h-4q-29 -62 -69 -98t-103 -36q-66 0 -103 40t-37 109q0 17 1.5 35t5.5 39l51 305h91l-50 -303q-6 -33 -6 -56q0 -42 19.5 -67t61.5 -25q32 0 57 15t47 40q5 6 13 16.5t17 25t16.5 33t10.5 39.5l47 282h91l-86 -516h-91zM259 751l84 33l57 -178l-58 -24z" />
    <glyph glyph-name="uni1EE7" unicode="&#x1ee7;" 
d="M392 122h-4q-29 -62 -69 -98t-103 -36q-66 0 -103 40t-37 109q0 17 1.5 35t5.5 39l51 305h91l-50 -303q-6 -33 -6 -56q0 -42 19.5 -67t61.5 -25q32 0 57 15t47 40q5 6 13 16.5t17 25t16.5 33t10.5 39.5l47 282h91l-86 -516h-91zM292 770h111q36 0 52.5 -15t16.5 -38
q0 -24 -13.5 -47t-37.5 -49l-43 -47l-48 28l67 99h-116z" />
    <glyph glyph-name="uhungarumlaut" unicode="&#x171;" 
d="M392 122h-4q-29 -62 -69 -98t-103 -36q-66 0 -103 40t-37 109q0 17 1.5 35t5.5 39l51 305h91l-50 -303q-6 -33 -6 -56q0 -42 19.5 -67t61.5 -25q32 0 57 15t47 40q5 6 13 16.5t17 25t16.5 33t10.5 39.5l47 282h91l-86 -516h-91zM276 583l-50 28l107 172l73 -41zM444 583
l-50 28l107 172l73 -41z" />
    <glyph glyph-name="umacron" unicode="&#x16b;" 
d="M392 122h-4q-29 -62 -69 -98t-103 -36q-66 0 -103 40t-37 109q0 17 1.5 35t5.5 39l51 305h91l-50 -303q-6 -33 -6 -56q0 -42 19.5 -67t61.5 -25q32 0 57 15t47 40q5 6 13 16.5t17 25t16.5 33t10.5 39.5l47 282h91l-86 -516h-91zM229 707h282l-12 -73h-282z" />
    <glyph glyph-name="uogonek" unicode="&#x173;" 
d="M463 0q-40 -26 -63.5 -45t-36 -33t-16 -24t-3.5 -18q0 -16 10 -23.5t24 -7.5q29 0 56 27l41 -44q-15 -16 -40.5 -28t-62.5 -12q-20 0 -38.5 4.5t-32.5 14t-22.5 24t-8.5 34.5q0 41 34 71.5t94 54.5v5h-26l20 122h-4q-29 -62 -68.5 -98t-102.5 -36q-67 0 -104 41t-37 111
q0 16 2 33.5t5 37.5l51 305h91l-50 -302q-3 -17 -4 -31.5t-1 -23.5q0 -42 19 -68t61 -26q32 0 56.5 15t47.5 39q5 5 13 16t17 26t16.5 33.5t10.5 39.5l47 282h91z" />
    <glyph glyph-name="uring" unicode="&#x16f;" 
d="M392 122h-4q-29 -62 -69 -98t-103 -36q-66 0 -103 40t-37 109q0 17 1.5 35t5.5 39l51 305h91l-50 -303q-6 -33 -6 -56q0 -42 19.5 -67t61.5 -25q32 0 57 15t47 40q5 6 13 16.5t17 25t16.5 33t10.5 39.5l47 282h91l-86 -516h-91zM352 573q-46 0 -76 29t-30 74
q0 28 11.5 52.5t30 42.5t43.5 28.5t52 10.5q46 0 76 -29t30 -74q0 -29 -11.5 -53.5t-30 -42.5t-43.5 -28t-52 -10zM357 625q26 0 43.5 14.5t22.5 40.5q4 23 4 35q0 43 -49 43q-26 0 -43.5 -14.5t-22.5 -40.5q-4 -23 -4 -35q0 -43 49 -43z" />
    <glyph glyph-name="utilde" unicode="&#x169;" 
d="M392 122h-4q-29 -62 -69 -98t-103 -36q-66 0 -103 40t-37 109q0 17 1.5 35t5.5 39l51 305h91l-50 -303q-6 -33 -6 -56q0 -42 19.5 -67t61.5 -25q32 0 57 15t47 40q5 6 13 16.5t17 25t16.5 33t10.5 39.5l47 282h91l-86 -516h-91zM430 608q-24 0 -40.5 9t-34.5 18t-34.5 16
t-31.5 7q-16 0 -31 -7.5t-32 -21.5l-30 46q17 21 43.5 38t60.5 17q24 0 40.5 -9t34.5 -18t34.5 -16t31.5 -7q16 0 31 7.5t32 21.5l30 -46q-17 -21 -43.5 -38t-60.5 -17z" />
    <glyph glyph-name="uhorn" unicode="&#x1b0;" 
d="M216 -12q-66 0 -103 40t-37 109q0 17 1.5 35t5.5 39l51 305h91l-50 -303q-6 -33 -6 -56q0 -42 19.5 -67t61.5 -25q32 0 56 14.5t47 38.5q5 5 13.5 16t17 26t16.5 34t11 40l47 282h93l18 112h79l-17 -102q-5 -27 -21 -47.5t-54 -20.5h-17l-76 -458h-91l20 122h-4
q-29 -62 -69 -98t-103 -36z" />
    <glyph glyph-name="uni1EE9" unicode="&#x1ee9;" 
d="M216 -12q-66 0 -103 40t-37 109q0 17 1.5 35t5.5 39l51 305h91l-50 -303q-6 -33 -6 -56q0 -42 19.5 -67t61.5 -25q32 0 56 14.5t47 38.5q5 5 13.5 16t17 26t16.5 34t11 40l47 282h93l18 112h79l-17 -102q-5 -27 -21 -47.5t-54 -20.5h-17l-76 -458h-91l20 122h-4
q-29 -62 -69 -98t-103 -36zM361 582l-55 32l109 170l77 -43z" />
    <glyph glyph-name="uni1EF1" unicode="&#x1ef1;" 
d="M216 -12q-66 0 -103 40t-37 109q0 17 1.5 35t5.5 39l51 305h91l-50 -303q-6 -33 -6 -56q0 -42 19.5 -67t61.5 -25q32 0 56 14.5t47 38.5q5 5 13.5 16t17 26t16.5 34t11 40l47 282h93l18 112h79l-17 -102q-5 -27 -21 -47.5t-54 -20.5h-17l-76 -458h-91l20 122h-4
q-29 -62 -69 -98t-103 -36zM238 -177q-31 0 -43 11.5t-12 27.5q0 5 1 12.5t3 15.5q4 20 18 33t46 13q31 0 43 -11.5t12 -27.5q0 -5 -1 -12.5t-3 -15.5q-4 -20 -18 -33t-46 -13z" />
    <glyph glyph-name="uni1EEB" unicode="&#x1eeb;" 
d="M216 -12q-66 0 -103 40t-37 109q0 17 1.5 35t5.5 39l51 305h91l-50 -303q-6 -33 -6 -56q0 -42 19.5 -67t61.5 -25q32 0 56 14.5t47 38.5q5 5 13.5 16t17 26t16.5 34t11 40l47 282h93l18 112h79l-17 -102q-5 -27 -21 -47.5t-54 -20.5h-17l-76 -458h-91l20 122h-4
q-29 -62 -69 -98t-103 -36zM259 751l84 33l57 -178l-58 -24z" />
    <glyph glyph-name="uni1EED" unicode="&#x1eed;" 
d="M216 -12q-66 0 -103 40t-37 109q0 17 1.5 35t5.5 39l51 305h91l-50 -303q-6 -33 -6 -56q0 -42 19.5 -67t61.5 -25q32 0 56 14.5t47 38.5q5 5 13.5 16t17 26t16.5 34t11 40l47 282h93l18 112h79l-17 -102q-5 -27 -21 -47.5t-54 -20.5h-17l-76 -458h-91l20 122h-4
q-29 -62 -69 -98t-103 -36zM292 770h111q36 0 52.5 -15t16.5 -38q0 -24 -13.5 -47t-37.5 -49l-43 -47l-48 28l67 99h-116z" />
    <glyph glyph-name="uni1EEF" unicode="&#x1eef;" 
d="M216 -12q-66 0 -103 40t-37 109q0 17 1.5 35t5.5 39l51 305h91l-50 -303q-6 -33 -6 -56q0 -42 19.5 -67t61.5 -25q32 0 56 14.5t47 38.5q5 5 13.5 16t17 26t16.5 34t11 40l47 282h93l18 112h79l-17 -102q-5 -27 -21 -47.5t-54 -20.5h-17l-76 -458h-91l20 122h-4
q-29 -62 -69 -98t-103 -36zM417 612q-21 0 -35 7t-29 16q-17 10 -30 15.5t-26 5.5q-16 0 -30 -6.5t-30 -19.5l-33 44q17 21 42.5 37t57.5 16q21 0 35 -7t29 -16q17 -10 30 -15.5t26 -5.5q16 0 30 6.5t30 19.5l33 -44q-17 -21 -42.5 -37t-57.5 -16z" />
    <glyph glyph-name="wacute" unicode="&#x1e83;" 
d="M128 -10q-46 0 -68.5 27.5t-22.5 75.5q0 15 2 33.5t5 38.5l58 351h79l-57 -340q-6 -32 -6 -59q0 -53 43 -53q19 0 33.5 11t27.5 29t20 42t11 44l55 326h77l-56 -341q-3 -17 -4 -31.5t-1 -26.5q0 -54 41 -54q26 0 49 27t40 70.5t26.5 98t9.5 108.5q0 37 -5.5 72.5
t-16.5 60.5l73 22q13 -27 20.5 -66t7.5 -86q0 -91 -21 -170.5t-59 -132.5q-56 -77 -141 -77q-44 0 -67.5 24.5t-19.5 81.5h-6q-21 -51 -50.5 -78.5t-76.5 -27.5zM367 582l-55 32l109 170l77 -43z" />
    <glyph glyph-name="wcircumflex" unicode="&#x175;" 
d="M128 -10q-46 0 -68.5 27.5t-22.5 75.5q0 15 2 33.5t5 38.5l58 351h79l-57 -340q-6 -32 -6 -59q0 -53 43 -53q19 0 33.5 11t27.5 29t20 42t11 44l55 326h77l-56 -341q-3 -17 -4 -31.5t-1 -26.5q0 -54 41 -54q26 0 49 27t40 70.5t26.5 98t9.5 108.5q0 37 -5.5 72.5
t-16.5 60.5l73 22q13 -27 20.5 -66t7.5 -86q0 -91 -21 -170.5t-59 -132.5q-56 -77 -141 -77q-44 0 -67.5 24.5t-19.5 81.5h-6q-21 -51 -50.5 -78.5t-76.5 -27.5zM438 769l91 -149l-52 -33l-98 117l-136 -117l-45 38l137 144h103z" />
    <glyph glyph-name="wdieresis" unicode="&#x1e85;" 
d="M128 -10q-46 0 -68.5 27.5t-22.5 75.5q0 15 2 33.5t5 38.5l58 351h79l-57 -340q-6 -32 -6 -59q0 -53 43 -53q19 0 33.5 11t27.5 29t20 42t11 44l55 326h77l-56 -341q-3 -17 -4 -31.5t-1 -26.5q0 -54 41 -54q26 0 49 27t40 70.5t26.5 98t9.5 108.5q0 37 -5.5 72.5
t-16.5 60.5l73 22q13 -27 20.5 -66t7.5 -86q0 -91 -21 -170.5t-59 -132.5q-56 -77 -141 -77q-44 0 -67.5 24.5t-19.5 81.5h-6q-21 -51 -50.5 -78.5t-76.5 -27.5zM269 614q-32 0 -44.5 11.5t-12.5 27.5q0 10 5 27q6 20 18.5 33t45.5 13q32 0 44.5 -11.5t12.5 -27.5
q0 -10 -5 -27q-6 -20 -18.5 -33t-45.5 -13zM461 614q-32 0 -44.5 11.5t-12.5 27.5q0 10 5 27q6 20 18.5 33t45.5 13q32 0 44.5 -11.5t12.5 -27.5q0 -10 -5 -27q-6 -20 -18.5 -33t-45.5 -13z" />
    <glyph glyph-name="wgrave" unicode="&#x1e81;" 
d="M128 -10q-46 0 -68.5 27.5t-22.5 75.5q0 15 2 33.5t5 38.5l58 351h79l-57 -340q-6 -32 -6 -59q0 -53 43 -53q19 0 33.5 11t27.5 29t20 42t11 44l55 326h77l-56 -341q-3 -17 -4 -31.5t-1 -26.5q0 -54 41 -54q26 0 49 27t40 70.5t26.5 98t9.5 108.5q0 37 -5.5 72.5
t-16.5 60.5l73 22q13 -27 20.5 -66t7.5 -86q0 -91 -21 -170.5t-59 -132.5q-56 -77 -141 -77q-44 0 -67.5 24.5t-19.5 81.5h-6q-21 -51 -50.5 -78.5t-76.5 -27.5zM265 751l84 33l57 -178l-58 -24z" />
    <glyph glyph-name="yacute" unicode="&#xfd;" 
d="M209 -212q-128 0 -187 72l61 59q43 -54 129 -54q69 0 109 35.5t54 121.5l19 116h-3q-29 -63 -69 -99t-103 -36q-67 0 -104 40t-37 109q0 15 1.5 32t5.5 40l48 292h91l-48 -290q-3 -17 -4 -30t-1 -24q0 -41 19.5 -66t61.5 -25q32 0 57 14.5t47 39.5q5 6 13 16.5t16.5 25.5
t16 33t11.5 39l44 267h91l-85 -509q-10 -58 -32 -99.5t-54.5 -68t-75 -39t-92.5 -12.5zM367 582l-55 32l109 170l77 -43z" />
    <glyph glyph-name="ycircumflex" unicode="&#x177;" 
d="M209 -212q-128 0 -187 72l61 59q43 -54 129 -54q69 0 109 35.5t54 121.5l19 116h-3q-29 -63 -69 -99t-103 -36q-67 0 -104 40t-37 109q0 15 1.5 32t5.5 40l48 292h91l-48 -290q-3 -17 -4 -30t-1 -24q0 -41 19.5 -66t61.5 -25q32 0 57 14.5t47 39.5q5 6 13 16.5t16.5 25.5
t16 33t11.5 39l44 267h91l-85 -509q-10 -58 -32 -99.5t-54.5 -68t-75 -39t-92.5 -12.5zM438 769l91 -149l-52 -33l-98 117l-136 -117l-45 38l137 144h103z" />
    <glyph glyph-name="ydieresis" unicode="&#xff;" 
d="M209 -212q-128 0 -187 72l61 59q43 -54 129 -54q69 0 109 35.5t54 121.5l19 116h-3q-29 -63 -69 -99t-103 -36q-67 0 -104 40t-37 109q0 15 1.5 32t5.5 40l48 292h91l-48 -290q-3 -17 -4 -30t-1 -24q0 -41 19.5 -66t61.5 -25q32 0 57 14.5t47 39.5q5 6 13 16.5t16.5 25.5
t16 33t11.5 39l44 267h91l-85 -509q-10 -58 -32 -99.5t-54.5 -68t-75 -39t-92.5 -12.5zM269 614q-32 0 -44.5 11.5t-12.5 27.5q0 10 5 27q6 20 18.5 33t45.5 13q32 0 44.5 -11.5t12.5 -27.5q0 -10 -5 -27q-6 -20 -18.5 -33t-45.5 -13zM461 614q-32 0 -44.5 11.5t-12.5 27.5
q0 10 5 27q6 20 18.5 33t45.5 13q32 0 44.5 -11.5t12.5 -27.5q0 -10 -5 -27q-6 -20 -18.5 -33t-45.5 -13z" />
    <glyph glyph-name="uni1EF5" unicode="&#x1ef5;" 
d="M209 -212q-128 0 -187 72l61 58q43 -54 129 -54q69 0 109.5 36t54.5 122l20 124h-4q-29 -63 -69 -98t-103 -35q-66 0 -103.5 38.5t-37.5 105.5q0 31 7 72l47 287h91l-47 -285q-3 -17 -4 -30.5t-1 -21.5q0 -42 20 -66t62 -24q32 0 56.5 14t47.5 38q5 6 13.5 17t17 26
t16 33.5t10.5 39.5l42 259h91l-85 -509q-10 -58 -32 -99.5t-54.5 -68t-75 -39t-92.5 -12.5zM215 -110q-27 0 -38 10t-11 24q0 5 1 11.5t3 14.5q3 17 15 28t40 11q27 0 38 -10t11 -24q0 -5 -1 -11.5t-3 -14.5q-3 -17 -15 -28t-40 -11z" />
    <glyph glyph-name="ygrave" unicode="&#x1ef3;" 
d="M209 -212q-128 0 -187 72l61 59q43 -54 129 -54q69 0 109 35.5t54 121.5l19 116h-3q-29 -63 -69 -99t-103 -36q-67 0 -104 40t-37 109q0 15 1.5 32t5.5 40l48 292h91l-48 -290q-3 -17 -4 -30t-1 -24q0 -41 19.5 -66t61.5 -25q32 0 57 14.5t47 39.5q5 6 13 16.5t16.5 25.5
t16 33t11.5 39l44 267h91l-85 -509q-10 -58 -32 -99.5t-54.5 -68t-75 -39t-92.5 -12.5zM265 751l84 33l57 -178l-58 -24z" />
    <glyph glyph-name="uni1EF7" unicode="&#x1ef7;" 
d="M209 -212q-128 0 -187 72l61 59q43 -54 129 -54q69 0 109 35.5t54 121.5l19 116h-3q-29 -63 -69 -99t-103 -36q-67 0 -104 40t-37 109q0 15 1.5 32t5.5 40l48 292h91l-48 -290q-3 -17 -4 -30t-1 -24q0 -41 19.5 -66t61.5 -25q32 0 57 14.5t47 39.5q5 6 13 16.5t16.5 25.5
t16 33t11.5 39l44 267h91l-85 -509q-10 -58 -32 -99.5t-54.5 -68t-75 -39t-92.5 -12.5zM298 770h111q36 0 52.5 -15t16.5 -38q0 -24 -13.5 -47t-37.5 -49l-43 -47l-48 28l67 99h-116z" />
    <glyph glyph-name="uni1EF9" unicode="&#x1ef9;" 
d="M209 -212q-128 0 -187 72l61 59q43 -54 129 -54q69 0 109 35.5t54 121.5l19 116h-3q-29 -63 -69 -99t-103 -36q-67 0 -104 40t-37 109q0 15 1.5 32t5.5 40l48 292h91l-48 -290q-3 -17 -4 -30t-1 -24q0 -41 19.5 -66t61.5 -25q32 0 57 14.5t47 39.5q5 6 13 16.5t16.5 25.5
t16 33t11.5 39l44 267h91l-85 -509q-10 -58 -32 -99.5t-54.5 -68t-75 -39t-92.5 -12.5zM436 608q-24 0 -40.5 9t-34.5 18t-34.5 16t-31.5 7q-16 0 -31 -7.5t-32 -21.5l-30 46q17 21 43.5 38t60.5 17q24 0 40.5 -9t34.5 -18t34.5 -16t31.5 -7q16 0 31 7.5t32 21.5l30 -46
q-17 -21 -43.5 -38t-60.5 -17z" />
    <glyph glyph-name="zacute" unicode="&#x17a;" 
d="M423 -10q-24 0 -50.5 5t-60.5 18l-164 58l-5 -4l-11 -67h-87l12 86l351 315q-55 29 -90.5 40.5t-64.5 11.5q-26 0 -42.5 -9t-25.5 -24t-12.5 -35.5t-3.5 -43.5h-72v11q0 85 41 130.5t116 45.5q43 0 87.5 -16.5t101.5 -54.5l17 -10l5 4l10 65h88l-13 -84l-351 -315
l244 -55l11 12l-31 126l62 24l16 -38q12 -26 19.5 -53t7.5 -50q0 -36 -27.5 -64.5t-77.5 -28.5zM350 582l-55 32l109 170l77 -43z" />
    <glyph glyph-name="zcaron" unicode="&#x17e;" 
d="M423 -10q-24 0 -50.5 5t-60.5 18l-164 58l-5 -4l-11 -67h-87l12 86l351 315q-55 29 -90.5 40.5t-64.5 11.5q-26 0 -42.5 -9t-25.5 -24t-12.5 -35.5t-3.5 -43.5h-72v11q0 85 41 130.5t116 45.5q43 0 87.5 -16.5t101.5 -54.5l17 -10l5 4l10 65h88l-13 -84l-351 -315
l244 -55l11 12l-31 126l62 24l16 -38q12 -26 19.5 -53t7.5 -50q0 -36 -27.5 -64.5t-77.5 -28.5zM291 595l-91 149l52 33l98 -117l136 117l45 -38l-137 -144h-103z" />
    <glyph glyph-name="zdotaccent" unicode="&#x17c;" 
d="M423 -10q-24 0 -50.5 5t-60.5 18l-164 58l-5 -4l-11 -67h-87l12 86l351 315q-55 29 -90.5 40.5t-64.5 11.5q-26 0 -42.5 -9t-25.5 -24t-12.5 -35.5t-3.5 -43.5h-72v11q0 85 41 130.5t116 45.5q43 0 87.5 -16.5t101.5 -54.5l17 -10l5 4l10 65h88l-13 -84l-351 -315
l244 -55l11 12l-31 126l62 24l16 -38q12 -26 19.5 -53t7.5 -50q0 -36 -27.5 -64.5t-77.5 -28.5zM347 607q-35 0 -49 13t-14 31q0 6 1 13t3 19q5 26 21.5 38.5t49.5 12.5q35 0 49 -13t14 -31q0 -6 -1 -13t-3 -19q-5 -25 -21.5 -38t-49.5 -13z" />
    <glyph glyph-name="Aacute" unicode="&#xc1;" 
d="M434 0l-24 193h-236l-88 -193h-100l325 698h129l93 -698h-99zM364 602h-9l-146 -327h194zM393 752l-54 32l109 170l77 -43z" />
    <glyph glyph-name="Abreve" unicode="&#x102;" 
d="M434 0l-24 193h-236l-88 -193h-100l325 698h129l93 -698h-99zM364 602h-9l-146 -327h194zM389 760q-40 0 -66.5 15t-43.5 38t-25.5 50.5t-12.5 51.5l54 25l16 -35l16 -32t16 -23.5t20.5 -14t28.5 -4.5q15 0 27 4.5t23 13.5t23 23t27 34l27 34l57 -25q-12 -25 -28 -52.5
t-38 -50t-51.5 -37.5t-69.5 -15z" />
    <glyph glyph-name="Acircumflex" unicode="&#xc2;" 
d="M434 0l-24 193h-236l-88 -193h-100l325 698h129l93 -698h-99zM364 602h-9l-146 -327h194zM464 939l91 -149l-51 -33l-98 117l-137 -117l-45 38l137 144h103z" />
    <glyph glyph-name="Adieresis" unicode="&#xc4;" 
d="M434 0l-24 193h-236l-88 -193h-100l325 698h129l93 -698h-99zM364 602h-9l-146 -327h194zM295 784q-32 0 -44 11.5t-12 27.5q0 5 1 12.5t3 14.5q5 21 18.5 33.5t45.5 12.5t44 -11.5t12 -27.5q0 -5 -1 -12t-3 -15q-5 -21 -18 -33.5t-46 -12.5zM487 784q-32 0 -44 11.5
t-12 27.5q0 5 1 12.5t3 14.5q5 21 18.5 33.5t45.5 12.5t44 -11.5t12 -27.5q0 -5 -1 -12t-3 -15q-5 -21 -18 -33.5t-46 -12.5z" />
    <glyph glyph-name="uni1EA0" unicode="&#x1ea0;" 
d="M434 0l-24 193h-236l-88 -193h-100l325 698h129l93 -698h-99zM364 602h-9l-146 -327h194zM237 -177q-31 0 -43 11.5t-12 27.5q0 5 1 12.5t3 15.5q4 20 18 33t46 13q31 0 43 -11.5t12 -27.5q0 -5 -1 -12.5t-3 -15.5q-4 -20 -18 -33t-46 -13z" />
    <glyph glyph-name="Agrave" unicode="&#xc0;" 
d="M434 0l-24 193h-236l-88 -193h-100l325 698h129l93 -698h-99zM364 602h-9l-146 -327h194zM293 918l83 36l56 -178l-57 -24z" />
    <glyph glyph-name="uni1EA2" unicode="&#x1ea2;" 
d="M434 0l-24 193h-236l-88 -193h-100l325 698h129l93 -698h-99zM364 602h-9l-146 -327h194zM325 940h110q37 0 53.5 -15t16.5 -38q0 -24 -13.5 -47t-37.5 -49l-43 -47l-48 28l66 99h-116z" />
    <glyph glyph-name="Amacron" unicode="&#x100;" 
d="M434 0l-24 193h-236l-88 -193h-100l325 698h129l93 -698h-99zM364 602h-9l-146 -327h194zM262 877h282l-12 -73h-282z" />
    <glyph glyph-name="Aogonek" unicode="&#x104;" 
d="M311 698h129l93 -698q-40 -26 -64 -45t-36.5 -33t-16 -24t-3.5 -18q0 -16 10 -23.5t24 -7.5q29 0 56 27l41 -44q-15 -16 -40.5 -28t-62.5 -12q-41 0 -71.5 18t-30.5 59t34 71t94 55v5h-33l-24 193h-236l-88 -193h-100zM364 602h-9l-146 -327h194z" />
    <glyph glyph-name="Aring" unicode="&#xc5;" 
d="M434 0l-24 193h-236l-88 -193h-100l325 698h129l93 -698h-99zM364 602h-9l-146 -327h194zM384 743q-46 0 -76 29t-30 74q0 28 11.5 52.5t30 42.5t43.5 28.5t52 10.5q46 0 76 -29t30 -74q0 -29 -11.5 -53.5t-30 -42.5t-43.5 -28t-52 -10zM389 795q26 0 43.5 14.5
t22.5 40.5q2 11 3 20t1 15q0 43 -49 43q-26 0 -43.5 -14.5t-22.5 -40.5q-2 -11 -3 -20t-1 -15q0 -43 49 -43z" />
    <glyph glyph-name="Aringacute" unicode="&#x1fa;" 
d="M434 0l-24 193h-236l-88 -193h-100l325 698h129l93 -698h-99zM364 602h-9l-146 -327h194zM423 982l-39 34l100 114l55 -46zM384 736q-47 0 -77 27.5t-30 72.5q0 27 11 50.5t30 41t44 27t52 9.5q47 0 77 -27.5t30 -72.5q0 -27 -11 -50.5t-30 -41t-44 -27t-52 -9.5z
M389 787q24 0 41.5 12.5t23.5 41.5q4 19 4 30q0 20 -12.5 31t-36.5 11t-41.5 -12.5t-23.5 -41.5q-4 -19 -4 -30q0 -20 12.5 -31t36.5 -11z" />
    <glyph glyph-name="Atilde" unicode="&#xc3;" 
d="M434 0l-24 193h-236l-88 -193h-100l325 698h129l93 -698h-99zM364 602h-9l-146 -327h194zM463 778q-24 0 -41 9.5t-34 17.5q-19 10 -35 16.5t-31 6.5q-16 0 -31 -7.5t-32 -21.5l-30 46q17 21 43.5 38t60.5 17q24 0 41 -9.5t34 -17.5q20 -10 35.5 -16.5t30.5 -6.5
q16 0 31 7.5t32 21.5l30 -46q-17 -21 -43.5 -38t-60.5 -17z" />
    <glyph glyph-name="uni1EAE" unicode="&#x1eae;" 
d="M434 0l-24 193h-236l-88 -193h-100l325 698h129l93 -698h-99zM364 602h-9l-146 -327h194zM386 751q-42 0 -69 13.5t-44.5 34t-26 45.5t-12.5 48l51 27l16 -31q19 -37 37.5 -52.5t51.5 -15.5q29 0 53 14.5t56 53.5l26 31l54 -27q-13 -25 -30 -50t-40 -45.5t-53.5 -33
t-69.5 -12.5zM406 881l-51 29l107 171l74 -41z" />
    <glyph glyph-name="uni1EB6" unicode="&#x1eb6;" 
d="M434 0l-24 193h-236l-88 -193h-100l325 698h129l93 -698h-99zM364 602h-9l-146 -327h194zM389 760q-40 0 -66.5 15t-43.5 38t-25.5 50.5t-12.5 51.5l54 25l16 -35l16 -32t16 -23.5t20.5 -14t28.5 -4.5q15 0 27 4.5t23 13.5t23 23t27 34l27 34l57 -25q-12 -25 -28 -52.5
t-38 -50t-51.5 -37.5t-69.5 -15zM237 -177q-31 0 -43 11.5t-12 27.5q0 5 1 12.5t3 15.5q4 20 18 33t46 13q31 0 43 -11.5t12 -27.5q0 -5 -1 -12.5t-3 -15.5q-4 -20 -18 -33t-46 -13z" />
    <glyph glyph-name="uni1EB0" unicode="&#x1eb0;" 
d="M434 0l-24 193h-236l-88 -193h-100l325 698h129l93 -698h-99zM364 602h-9l-146 -327h194zM386 751q-42 0 -69 13.5t-44.5 34t-26 45.5t-12.5 48l51 27l16 -31q19 -37 37.5 -52.5t51.5 -15.5q29 0 53 14.5t56 53.5l26 31l54 -27q-13 -25 -30 -50t-40 -45.5t-53.5 -33
t-69.5 -12.5zM300 1049l80 32l55 -178l-54 -22z" />
    <glyph glyph-name="uni1EB2" unicode="&#x1eb2;" 
d="M434 0l-24 193h-236l-88 -193h-100l325 698h129l93 -698h-99zM364 602h-9l-146 -327h194zM325 1070h99q36 0 52.5 -15t16.5 -38q0 -20 -11.5 -40.5t-33.5 -44.5l-52 -58l-46 28l68 99h-105zM386 751q-42 0 -69 13.5t-44.5 34t-26 45.5t-12.5 48l51 27l16 -31
q19 -37 37.5 -52.5t51.5 -15.5q29 0 53 14.5t56 53.5l26 31l54 -27q-13 -25 -30 -50t-40 -45.5t-53.5 -33t-69.5 -12.5z" />
    <glyph glyph-name="uni1EB4" unicode="&#x1eb4;" 
d="M434 0l-24 193h-236l-88 -193h-100l325 698h129l93 -698h-99zM364 602h-9l-146 -327h194zM477 948q-25 0 -41.5 6.5t-33.5 14.5q-22 10 -37 15t-29 5q-17 0 -30.5 -6.5t-30.5 -19.5l-30 40q18 22 43.5 38t61.5 16q24 0 41 -7l34 -14q22 -9 37 -14.5t29 -5.5q16 0 30 6.5
t31 19.5l30 -40q-18 -22 -43.5 -38t-61.5 -16zM386 751q-42 0 -69 13.5t-44.5 34t-26 45.5t-12.5 48l51 27l16 -31q19 -37 37.5 -52.5t51.5 -15.5q29 0 53 14.5t56 53.5l26 31l54 -27q-13 -25 -30 -50t-40 -45.5t-53.5 -33t-69.5 -12.5z" />
    <glyph glyph-name="uni1EA4" unicode="&#x1ea4;" 
d="M434 0l-24 193h-236l-88 -193h-100l325 698h129l93 -698h-99zM364 602h-9l-146 -327h194zM558 881l-51 29l107 171l73 -41zM460 928l93 -147l-51 -34l-99 115l-137 -115l-43 39l139 142h98z" />
    <glyph glyph-name="uni1EAC" unicode="&#x1eac;" 
d="M434 0l-24 193h-236l-88 -193h-100l325 698h129l93 -698h-99zM364 602h-9l-146 -327h194zM464 939l91 -149l-51 -33l-98 117l-137 -117l-45 38l137 144h103zM237 -177q-31 0 -43 11.5t-12 27.5q0 5 1 12.5t3 15.5q4 20 18 33t46 13q31 0 43 -11.5t12 -27.5q0 -5 -1 -12.5
t-3 -15.5q-4 -20 -18 -33t-46 -13z" />
    <glyph glyph-name="uni1EA6" unicode="&#x1ea6;" 
d="M434 0l-24 193h-236l-88 -193h-100l325 698h129l93 -698h-99zM364 602h-9l-146 -327h194zM169 1053l79 32l56 -178l-53 -22zM460 928l93 -147l-51 -34l-99 115l-137 -115l-43 39l139 142h98z" />
    <glyph glyph-name="uni1EA8" unicode="&#x1ea8;" 
d="M434 0l-24 193h-236l-88 -193h-100l325 698h129l93 -698h-99zM364 602h-9l-146 -327h194zM478 1074h108q36 0 52.5 -15t16.5 -37q0 -21 -10.5 -40.5t-28.5 -39.5l-56 -64l-47 28l67 100h-114zM459 928l94 -147l-51 -34l-99 115l-137 -115l-43 39l139 142h97z" />
    <glyph glyph-name="uni1EAA" unicode="&#x1eaa;" 
d="M434 0l-24 193h-236l-88 -193h-100l325 698h129l93 -698h-99zM364 602h-9l-146 -327h194zM361 1071q24 0 41.5 -8.5t33.5 -17.5q18 -11 34.5 -17t31.5 -6q16 0 31 7t32 21l30 -46q-17 -20 -44 -36.5t-60 -16.5q-24 0 -41.5 8.5t-33.5 17.5q-18 11 -34.5 17t-31.5 6
q-17 0 -31.5 -7.5t-31.5 -20.5l-30 45q17 21 43.5 37.5t60.5 16.5zM460 918l95 -138l-52 -33l-101 108l-134 -108l-44 41l138 130h98z" />
    <glyph glyph-name="AE" unicode="&#xc6;" 
d="M301 195h-140l-84 -195h-96l311 698h347l-13 -77h-165l-38 -229h153l-12 -77h-154l-39 -238h165l-13 -77h-254zM346 630l-153 -358h121l60 358h-28z" />
    <glyph glyph-name="AEacute" unicode="&#x1fc;" 
d="M301 195h-140l-84 -195h-96l311 698h347l-13 -77h-165l-38 -229h153l-12 -77h-154l-39 -238h165l-13 -77h-254zM346 630l-153 -358h121l60 358h-28zM446 752l-54 32l109 170l77 -43z" />
    <glyph glyph-name="Cacute" unicode="&#x106;" 
d="M288 -12q-112 0 -163.5 66t-51.5 189q0 45 6.5 97.5t21 104.5t38.5 100t59 84.5t82 58.5t108 22q50 0 85.5 -14t59 -37.5t36 -53.5t17.5 -62l-87 -25q-5 23 -12.5 43t-20.5 35t-33.5 24t-50.5 9q-40 0 -71.5 -16t-55 -45t-39 -70.5t-24.5 -93.5l-17 -99
q-3 -21 -5.5 -42.5t-2.5 -43.5q0 -69 30.5 -109.5t99.5 -40.5q29 0 51.5 8.5t41 25.5t35.5 42.5t35 58.5l77 -34q-20 -43 -43.5 -76.5t-53.5 -57t-67.5 -36t-84.5 -12.5zM408 752l-54 32l109 170l77 -43z" />
    <glyph glyph-name="Ccaron" unicode="&#x10c;" 
d="M288 -12q-112 0 -163.5 66t-51.5 189q0 45 6.5 97.5t21 104.5t38.5 100t59 84.5t82 58.5t108 22q50 0 85.5 -14t59 -37.5t36 -53.5t17.5 -62l-87 -25q-5 23 -12.5 43t-20.5 35t-33.5 24t-50.5 9q-40 0 -71.5 -16t-55 -45t-39 -70.5t-24.5 -93.5l-17 -99
q-3 -21 -5.5 -42.5t-2.5 -43.5q0 -69 30.5 -109.5t99.5 -40.5q29 0 51.5 8.5t41 25.5t35.5 42.5t35 58.5l77 -34q-20 -43 -43.5 -76.5t-53.5 -57t-67.5 -36t-84.5 -12.5zM350 765l-92 149l52 33l98 -117l137 117l45 -38l-138 -144h-102z" />
    <glyph glyph-name="Ccedilla" unicode="&#xc7;" 
d="M382 629q-40 0 -71.5 -16t-55 -45t-39 -70.5t-24.5 -93.5l-17 -99q-3 -21 -5.5 -42.5t-2.5 -43.5q0 -69 30.5 -109.5t99.5 -40.5q29 0 51.5 8.5t41 25.5t35.5 42.5t35 58.5l77 -34q-19 -40 -41 -72t-49 -55t-60 -37t-75 -17l-17 -49l2 -3q23 5 38 5q28 0 44 -15t16 -44
q0 -24 -9.5 -41t-26 -28t-38.5 -16.5t-46 -5.5q-40 0 -64.5 12.5t-35.5 29.5l42 42q8 -11 21.5 -19t35.5 -8t36 8.5t14 24.5q0 11 -11.5 22.5t-49.5 16.5l-28 3l23 65q-97 9 -141 74t-44 180q0 45 6.5 97.5t21 104.5t38.5 100t59 84.5t82 58.5t108 22q50 0 85.5 -14
t59 -37.5t36 -53.5t17.5 -62l-87 -25q-5 23 -12.5 43t-20.5 35t-33.5 24t-50.5 9z" />
    <glyph glyph-name="Ccircumflex" unicode="&#x108;" 
d="M288 -12q-112 0 -163.5 66t-51.5 189q0 45 6.5 97.5t21 104.5t38.5 100t59 84.5t82 58.5t108 22q50 0 85.5 -14t59 -37.5t36 -53.5t17.5 -62l-87 -25q-5 23 -12.5 43t-20.5 35t-33.5 24t-50.5 9q-40 0 -71.5 -16t-55 -45t-39 -70.5t-24.5 -93.5l-17 -99
q-3 -21 -5.5 -42.5t-2.5 -43.5q0 -69 30.5 -109.5t99.5 -40.5q29 0 51.5 8.5t41 25.5t35.5 42.5t35 58.5l77 -34q-20 -43 -43.5 -76.5t-53.5 -57t-67.5 -36t-84.5 -12.5zM479 939l91 -149l-51 -33l-98 117l-137 -117l-45 38l137 144h103z" />
    <glyph glyph-name="Cdotaccent" unicode="&#x10a;" 
d="M288 -12q-112 0 -163.5 66t-51.5 189q0 45 6.5 97.5t21 104.5t38.5 100t59 84.5t82 58.5t108 22q50 0 85.5 -14t59 -37.5t36 -53.5t17.5 -62l-87 -25q-5 23 -12.5 43t-20.5 35t-33.5 24t-50.5 9q-40 0 -71.5 -16t-55 -45t-39 -70.5t-24.5 -93.5l-17 -99
q-3 -21 -5.5 -42.5t-2.5 -43.5q0 -69 30.5 -109.5t99.5 -40.5q29 0 51.5 8.5t41 25.5t35.5 42.5t35 58.5l77 -34q-20 -43 -43.5 -76.5t-53.5 -57t-67.5 -36t-84.5 -12.5zM405 776q-35 0 -49 13t-14 31q0 13 4 32q5 25 21.5 38t49.5 13q35 0 49 -13t14 -31q0 -13 -4 -32
q-5 -25 -21.5 -38t-49.5 -13z" />
    <glyph glyph-name="Dcaron" unicode="&#x10e;" 
d="M166 698h178q55 0 97.5 -17t70.5 -47.5t42.5 -73t14.5 -93.5q0 -119 -22 -206.5t-63.5 -145.5t-100.5 -86.5t-134 -28.5h-200zM255 81q161 0 196 205l17 102q3 18 5 40.5t2 42.5q0 146 -142 146h-86l-90 -536h98zM291 765l-92 149l52 33l98 -117l137 117l45 -38
l-138 -144h-102z" />
    <glyph glyph-name="Dcroat" unicode="&#x110;" 
d="M105 332h-76l12 72h76l49 294h178q55 0 97.5 -17t70.5 -47.5t42.5 -73t14.5 -93.5q0 -119 -22 -206.5t-63.5 -145.5t-100.5 -86.5t-134 -28.5h-200zM255 81q161 0 196 205l17 102q3 18 5 40.5t2 42.5q0 146 -142 146h-86l-36 -214h134l-12 -70h-134l-42 -252h98z" />
    <glyph glyph-name="Eth" unicode="&#xd0;" 
d="M105 332h-76l12 72h76l49 294h178q55 0 97.5 -17t70.5 -47.5t42.5 -73t14.5 -93.5q0 -119 -22 -206.5t-63.5 -145.5t-100.5 -86.5t-134 -28.5h-200zM255 81q161 0 196 205l17 102q3 18 5 40.5t2 42.5q0 146 -142 146h-86l-36 -214h134l-12 -70h-134l-42 -252h98z" />
    <glyph glyph-name="Eacute" unicode="&#xc9;" 
d="M45 0l117 698h432l-14 -82h-337l-37 -222h325l-14 -82h-325l-38 -230h338l-14 -82h-433zM398 752l-54 32l109 170l77 -43z" />
    <glyph glyph-name="Ebreve" unicode="&#x114;" 
d="M45 0l117 698h432l-14 -82h-337l-37 -222h325l-14 -82h-325l-38 -230h338l-14 -82h-433zM394 760q-40 0 -66.5 15t-43.5 38t-25.5 50.5t-12.5 51.5l54 25l16 -35l16 -32t16 -23.5t20.5 -14t28.5 -4.5q15 0 27 4.5t23 13.5t23 23t27 34l27 34l57 -25q-12 -25 -28 -52.5
t-38 -50t-51.5 -37.5t-69.5 -15z" />
    <glyph glyph-name="Ecaron" unicode="&#x11a;" 
d="M45 0l117 698h432l-14 -82h-337l-37 -222h325l-14 -82h-325l-38 -230h338l-14 -82h-433zM340 765l-92 149l52 33l98 -117l137 117l45 -38l-138 -144h-102z" />
    <glyph glyph-name="Ecircumflex" unicode="&#xca;" 
d="M45 0l117 698h432l-14 -82h-337l-37 -222h325l-14 -82h-325l-38 -230h338l-14 -82h-433zM469 939l91 -149l-51 -33l-98 117l-137 -117l-45 38l137 144h103z" />
    <glyph glyph-name="Edieresis" unicode="&#xcb;" 
d="M45 0l117 698h432l-14 -82h-337l-37 -222h325l-14 -82h-325l-38 -230h338l-14 -82h-433zM300 784q-32 0 -44 11.5t-12 27.5q0 5 1 12.5t3 14.5q5 21 18.5 33.5t45.5 12.5t44 -11.5t12 -27.5q0 -5 -1 -12t-3 -15q-5 -21 -18 -33.5t-46 -12.5zM492 784q-32 0 -44 11.5
t-12 27.5q0 5 1 12.5t3 14.5q5 21 18.5 33.5t45.5 12.5t44 -11.5t12 -27.5q0 -5 -1 -12t-3 -15q-5 -21 -18 -33.5t-46 -12.5z" />
    <glyph glyph-name="Edotaccent" unicode="&#x116;" 
d="M45 0l117 698h432l-14 -82h-337l-37 -222h325l-14 -82h-325l-38 -230h338l-14 -82h-433zM395 776q-35 0 -49 13t-14 31q0 13 4 32q5 25 21.5 38t49.5 13q35 0 49 -13t14 -31q0 -13 -4 -32q-5 -25 -21.5 -38t-49.5 -13z" />
    <glyph glyph-name="uni1EB8" unicode="&#x1eb8;" 
d="M45 0l117 698h432l-14 -82h-337l-37 -222h325l-14 -82h-325l-38 -230h338l-14 -82h-433zM254 -177q-31 0 -43 11.5t-12 27.5q0 5 1 12.5t3 15.5q4 20 18 33t46 13q31 0 43 -11.5t12 -27.5q0 -5 -1 -12.5t-3 -15.5q-4 -20 -18 -33t-46 -13z" />
    <glyph glyph-name="Egrave" unicode="&#xc8;" 
d="M45 0l117 698h432l-14 -82h-337l-37 -222h325l-14 -82h-325l-38 -230h338l-14 -82h-433zM298 918l83 36l56 -178l-57 -24z" />
    <glyph glyph-name="uni1EBA" unicode="&#x1eba;" 
d="M45 0l117 698h432l-14 -82h-337l-37 -222h325l-14 -82h-325l-38 -230h338l-14 -82h-433zM330 940h110q37 0 53.5 -15t16.5 -38q0 -24 -13.5 -47t-37.5 -49l-43 -47l-48 28l66 99h-116z" />
    <glyph glyph-name="Emacron" unicode="&#x112;" 
d="M45 0l117 698h432l-14 -82h-337l-37 -222h325l-14 -82h-325l-38 -230h338l-14 -82h-433zM267 877h282l-12 -73h-282z" />
    <glyph glyph-name="Eogonek" unicode="&#x118;" 
d="M162 698h432l-14 -82h-337l-37 -222h325l-14 -82h-325l-38 -230h338l-14 -82q-40 -26 -63.5 -45t-36 -33t-16.5 -24t-4 -18q0 -16 10 -23.5t25 -7.5q28 0 55 27l41 -44q-14 -16 -39.5 -28t-62.5 -12q-21 0 -39.5 4.5t-32.5 14t-22.5 24t-8.5 34.5q0 41 34.5 71.5
t95.5 54.5l-1 5h-368z" />
    <glyph glyph-name="uni1EBC" unicode="&#x1ebc;" 
d="M45 0l117 698h432l-14 -82h-337l-37 -222h325l-14 -82h-325l-38 -230h338l-14 -82h-433zM468 778q-24 0 -41 9.5t-34 17.5q-19 10 -35 16.5t-31 6.5q-16 0 -31 -7.5t-32 -21.5l-30 46q17 21 43.5 38t60.5 17q24 0 41 -9.5t34 -17.5q20 -10 35.5 -16.5t30.5 -6.5
q16 0 31 7.5t32 21.5l30 -46q-17 -21 -43.5 -38t-60.5 -17z" />
    <glyph glyph-name="uni1EBE" unicode="&#x1ebe;" 
d="M45 0l117 698h432l-14 -82h-337l-37 -222h325l-14 -82h-325l-38 -230h338l-14 -82h-433zM563 881l-51 29l107 171l73 -41zM465 928l93 -147l-51 -34l-99 115l-137 -115l-43 39l139 142h98z" />
    <glyph glyph-name="uni1EC6" unicode="&#x1ec6;" 
d="M45 0l117 698h432l-14 -82h-337l-37 -222h325l-14 -82h-325l-38 -230h338l-14 -82h-433zM469 939l91 -149l-51 -33l-98 117l-137 -117l-45 38l137 144h103zM254 -177q-31 0 -43 11.5t-12 27.5q0 5 1 12.5t3 15.5q4 20 18 33t46 13q31 0 43 -11.5t12 -27.5q0 -5 -1 -12.5
t-3 -15.5q-4 -20 -18 -33t-46 -13z" />
    <glyph glyph-name="uni1EC0" unicode="&#x1ec0;" 
d="M45 0l117 698h432l-14 -82h-337l-37 -222h325l-14 -82h-325l-38 -230h338l-14 -82h-433zM174 1053l79 32l56 -178l-53 -22zM465 928l93 -147l-51 -34l-99 115l-137 -115l-43 39l139 142h98z" />
    <glyph glyph-name="uni1EC2" unicode="&#x1ec2;" 
d="M45 0l117 698h432l-14 -82h-337l-37 -222h325l-14 -82h-325l-38 -230h338l-14 -82h-433zM483 1074h108q36 0 52.5 -15t16.5 -37q0 -21 -10.5 -40.5t-28.5 -39.5l-56 -64l-47 28l67 100h-114zM464 928l94 -147l-51 -34l-99 115l-137 -115l-43 39l139 142h97z" />
    <glyph glyph-name="uni1EC4" unicode="&#x1ec4;" 
d="M45 0l117 698h432l-14 -82h-337l-37 -222h325l-14 -82h-325l-38 -230h338l-14 -82h-433zM366 1071q24 0 41.5 -8.5t33.5 -17.5q18 -11 34.5 -17t31.5 -6q16 0 31 7t32 21l30 -46q-17 -20 -44 -36.5t-60 -16.5q-24 0 -41.5 8.5t-33.5 17.5q-18 11 -34.5 17t-31.5 6
q-17 0 -31.5 -7.5t-31.5 -20.5l-30 45q17 21 43.5 37.5t60.5 16.5zM465 918l95 -138l-52 -33l-101 108l-134 -108l-44 41l138 130h98z" />
    <glyph glyph-name="uni018F" unicode="&#x18f;" 
d="M261 -12q-103 0 -153 62.5t-50 177.5q0 11 0.5 25t1.5 29t2 29t3 24l6 41h400l4 28q5 24 6.5 45t1.5 37q0 69 -28 106.5t-93 37.5t-106.5 -37t-71.5 -100l-76 36q36 83 101 132t162 49q107 0 155.5 -63.5t48.5 -190.5q0 -44 -6 -95.5t-20.5 -103.5t-38 -100.5t-58.5 -86
t-82.5 -60t-108.5 -22.5zM267 68q40 0 71.5 15.5t55 44.5t39 70t24.5 92l2 11h-301q-5 -26 -6.5 -49t-1.5 -40q0 -32 6 -58.5t19.5 -45.5t36 -29.5t55.5 -10.5z" />
    <glyph glyph-name="Gbreve" unicode="&#x11e;" 
d="M415 102h-6q-14 -23 -29 -44t-34.5 -36.5t-44.5 -24.5t-58 -9q-88 0 -134.5 64t-46.5 189q0 45 6.5 97.5t21 104.5t38 100.5t58.5 85.5t82.5 59t108.5 22q49 0 84 -14t58.5 -37.5t36.5 -53.5t18 -62l-88 -25q-5 22 -12 42.5t-20.5 35.5t-33.5 24t-50 9q-80 0 -126 -61.5
t-63 -163.5l-16 -97q-4 -22 -5 -45t-1 -37q0 -72 26.5 -114.5t89.5 -42.5q34 0 61 12.5t47.5 33.5t33.5 49t18 60l9 53h-142l12 73h229l-58 -349h-87zM383 760q-40 0 -66.5 15t-43.5 38t-25.5 50.5t-12.5 51.5l54 25l16 -35l16 -32t16 -23.5t20.5 -14t28.5 -4.5q15 0 27 4.5
t23 13.5t23 23t27 34l27 34l57 -25q-12 -25 -28 -52.5t-38 -50t-51.5 -37.5t-69.5 -15z" />
    <glyph glyph-name="Gcircumflex" unicode="&#x11c;" 
d="M415 102h-6q-14 -23 -29 -44t-34.5 -36.5t-44.5 -24.5t-58 -9q-88 0 -134.5 64t-46.5 189q0 45 6.5 97.5t21 104.5t38 100.5t58.5 85.5t82.5 59t108.5 22q49 0 84 -14t58.5 -37.5t36.5 -53.5t18 -62l-88 -25q-5 22 -12 42.5t-20.5 35.5t-33.5 24t-50 9q-80 0 -126 -61.5
t-63 -163.5l-16 -97q-4 -22 -5 -45t-1 -37q0 -72 26.5 -114.5t89.5 -42.5q34 0 61 12.5t47.5 33.5t33.5 49t18 60l9 53h-142l12 73h229l-58 -349h-87zM458 939l91 -149l-51 -33l-98 117l-137 -117l-45 38l137 144h103z" />
    <glyph glyph-name="Gcommaaccent" unicode="&#x122;" 
d="M415 102h-6q-14 -23 -29 -44t-34.5 -36.5t-44.5 -24.5t-58 -9q-88 0 -134.5 64t-46.5 189q0 45 6.5 97.5t21 104.5t38 100.5t58.5 85.5t82.5 59t108.5 22q49 0 84 -14t58.5 -37.5t36.5 -53.5t18 -62l-88 -25q-5 22 -12 42.5t-20.5 35.5t-33.5 24t-50 9q-80 0 -126 -61.5
t-63 -163.5l-16 -97q-4 -22 -5 -45t-1 -37q0 -72 26.5 -114.5t89.5 -42.5q34 0 61 12.5t47.5 33.5t33.5 49t18 60l9 53h-142l12 73h229l-58 -349h-87zM222 -62h117l-106 -191h-66z" />
    <glyph glyph-name="Gdotaccent" unicode="&#x120;" 
d="M415 102h-6q-14 -23 -29 -44t-34.5 -36.5t-44.5 -24.5t-58 -9q-88 0 -134.5 64t-46.5 189q0 45 6.5 97.5t21 104.5t38 100.5t58.5 85.5t82.5 59t108.5 22q49 0 84 -14t58.5 -37.5t36.5 -53.5t18 -62l-88 -25q-5 22 -12 42.5t-20.5 35.5t-33.5 24t-50 9q-80 0 -126 -61.5
t-63 -163.5l-16 -97q-4 -22 -5 -45t-1 -37q0 -72 26.5 -114.5t89.5 -42.5q34 0 61 12.5t47.5 33.5t33.5 49t18 60l9 53h-142l12 73h229l-58 -349h-87zM384 776q-35 0 -49 13t-14 31q0 13 4 32q5 25 21.5 38t49.5 13q35 0 49 -13t14 -31q0 -13 -4 -32q-5 -25 -21.5 -38
t-49.5 -13z" />
    <glyph glyph-name="Hbar" unicode="&#x126;" 
d="M437 313h-255l-52 -313h-95l87 516h-66l12 72h66l18 110h95l-19 -111h255l18 111h95l-19 -110h66l-11 -72h-66l-87 -516h-95zM450 395l21 122h-254l-22 -122h255z" />
    <glyph glyph-name="Hcircumflex" unicode="&#x124;" 
d="M437 313h-255l-52 -313h-95l117 698h95l-51 -303h254l51 303h95l-117 -698h-95zM463 939l91 -149l-51 -33l-98 117l-137 -117l-45 38l137 144h103z" />
    <glyph glyph-name="Iacute" unicode="&#xcd;" 
d="M40 0l12 74h170l92 550h-170l12 74h435l-12 -74h-170l-92 -550h170l-12 -74h-435zM392 752l-54 32l109 170l77 -43z" />
    <glyph glyph-name="Ibreve" unicode="&#x12c;" 
d="M40 0l12 74h170l92 550h-170l12 74h435l-12 -74h-170l-92 -550h170l-12 -74h-435zM388 760q-40 0 -66.5 15t-43.5 38t-25.5 50.5t-12.5 51.5l54 25l16 -35l16 -32t16 -23.5t20.5 -14t28.5 -4.5q15 0 27 4.5t23 13.5t23 23t27 34l27 34l57 -25q-12 -25 -28 -52.5t-38 -50
t-51.5 -37.5t-69.5 -15z" />
    <glyph glyph-name="Icircumflex" unicode="&#xce;" 
d="M40 0l12 74h170l92 550h-170l12 74h435l-12 -74h-170l-92 -550h170l-12 -74h-435zM463 939l91 -149l-51 -33l-98 117l-137 -117l-45 38l137 144h103z" />
    <glyph glyph-name="Idieresis" unicode="&#xcf;" 
d="M40 0l12 74h170l92 550h-170l12 74h435l-12 -74h-170l-92 -550h170l-12 -74h-435zM294 784q-32 0 -44 11.5t-12 27.5q0 5 1 12.5t3 14.5q5 21 18.5 33.5t45.5 12.5t44 -11.5t12 -27.5q0 -5 -1 -12t-3 -15q-5 -21 -18 -33.5t-46 -12.5zM486 784q-32 0 -44 11.5t-12 27.5
q0 5 1 12.5t3 14.5q5 21 18.5 33.5t45.5 12.5t44 -11.5t12 -27.5q0 -5 -1 -12t-3 -15q-5 -21 -18 -33.5t-46 -12.5z" />
    <glyph glyph-name="Idotaccent" unicode="&#x130;" 
d="M40 0l12 74h170l92 550h-170l12 74h435l-12 -74h-170l-92 -550h170l-12 -74h-435zM389 776q-35 0 -49 13t-14 31q0 13 4 32q5 25 21.5 38t49.5 13q35 0 49 -13t14 -31q0 -13 -4 -32q-5 -25 -21.5 -38t-49.5 -13z" />
    <glyph glyph-name="uni1ECA" unicode="&#x1eca;" 
d="M40 0l12 74h170l92 550h-170l12 74h435l-12 -74h-170l-92 -550h170l-12 -74h-435zM234 -177q-31 0 -43 11.5t-12 27.5q0 5 1 12.5t3 15.5q4 20 18 33t46 13q31 0 43 -11.5t12 -27.5q0 -5 -1 -12.5t-3 -15.5q-4 -20 -18 -33t-46 -13z" />
    <glyph glyph-name="Igrave" unicode="&#xcc;" 
d="M40 0l12 74h170l92 550h-170l12 74h435l-12 -74h-170l-92 -550h170l-12 -74h-435zM292 918l83 36l56 -178l-57 -24z" />
    <glyph glyph-name="uni1EC8" unicode="&#x1ec8;" 
d="M40 0l12 74h170l92 550h-170l12 74h435l-12 -74h-170l-92 -550h170l-12 -74h-435zM324 940h110q37 0 53.5 -15t16.5 -38q0 -24 -13.5 -47t-37.5 -49l-43 -47l-48 28l66 99h-116z" />
    <glyph glyph-name="Imacron" unicode="&#x12a;" 
d="M40 0l12 74h170l92 550h-170l12 74h435l-12 -74h-170l-92 -550h170l-12 -74h-435zM261 877h282l-12 -73h-282z" />
    <glyph glyph-name="Iogonek" unicode="&#x12e;" 
d="M52 74h170l92 550h-170l12 74h435l-12 -74h-170l-92 -550h170l-12 -74q-40 -26 -64 -45t-36.5 -33t-16 -24t-3.5 -18q0 -16 10 -23.5t24 -7.5q29 0 56 27l41 -44q-14 -16 -40 -28t-62 -12q-21 0 -39.5 4.5t-32.5 14t-22.5 24t-8.5 34.5q0 41 34 71.5t95 54.5l-1 5h-369z
" />
    <glyph glyph-name="Itilde" unicode="&#x128;" 
d="M40 0l12 74h170l92 550h-170l12 74h435l-12 -74h-170l-92 -550h170l-12 -74h-435zM462 778q-24 0 -41 9.5t-34 17.5q-19 10 -35 16.5t-31 6.5q-16 0 -31 -7.5t-32 -21.5l-30 46q17 21 43.5 38t60.5 17q24 0 41 -9.5t34 -17.5q20 -10 35.5 -16.5t30.5 -6.5q16 0 31 7.5
t32 21.5l30 -46q-17 -21 -43.5 -38t-60.5 -17z" />
    <glyph glyph-name="IJ" unicode="&#x132;" 
d="M593 698l-87 -521q-17 -98 -78 -143.5t-154 -45.5q-89 0 -142.5 43.5t-61.5 126.5l91 18q3 -22 9 -41.5t19 -33.5t34.5 -22.5t54.5 -8.5q115 0 137 128l83 500h95zM168 698h94l-66 -405h-95z" />
    <glyph glyph-name="IJacute" 
d="M593 698l-87 -521q-17 -98 -78 -143.5t-154 -45.5q-89 0 -142.5 43.5t-61.5 126.5l91 18q3 -22 9 -41.5t19 -33.5t34.5 -22.5t54.5 -8.5q115 0 137 128l83 500h95zM168 698h94l-66 -405h-95zM236 752l-54 32l109 170l77 -43zM561 752l-54 32l109 170l77 -43z" />
    <glyph glyph-name="Jacute" 
d="M559 698l-87 -522q-17 -97 -75.5 -142.5t-148.5 -45.5q-85 0 -136.5 43.5t-59.5 126.5l91 18q2 -22 8 -41.5t18.5 -33.5t32.5 -22.5t50 -8.5q53 0 85.5 31.5t43.5 95.5l69 419h-250l14 82h345zM406 752l-54 32l109 170l77 -43z" />
    <glyph glyph-name="Jcircumflex" unicode="&#x134;" 
d="M559 698l-87 -522q-17 -97 -75.5 -142.5t-148.5 -45.5q-85 0 -136.5 43.5t-59.5 126.5l91 18q2 -22 8 -41.5t18.5 -33.5t32.5 -22.5t50 -8.5q53 0 85.5 31.5t43.5 95.5l69 419h-250l14 82h345zM477 939l91 -149l-51 -33l-98 117l-137 -117l-45 38l137 144h103z" />
    <glyph glyph-name="Kcommaaccent" unicode="&#x136;" 
d="M287 333l-116 -118l-36 -215h-95l117 698h95l-59 -351h5l129 141l205 210h117l-291 -299l178 -399h-104zM200 -62h117l-106 -191h-66z" />
    <glyph glyph-name="Lacute" unicode="&#x139;" 
d="M73 0l117 698h93l-102 -616h325l-13 -82h-420zM256 752l-54 32l109 170l77 -43z" />
    <glyph glyph-name="Lcaron" unicode="&#x13d;" 
d="M73 0l117 698h93l-102 -616h325l-13 -82h-420zM411 548h-65l36 192h113z" />
    <glyph glyph-name="Lcommaaccent" unicode="&#x13b;" 
d="M73 0l117 698h93l-102 -616h325l-13 -82h-420zM214 -62h117l-106 -191h-66z" />
    <glyph glyph-name="Ldot" unicode="&#x13f;" 
d="M73 0l117 698h93l-102 -616h325l-13 -82h-420zM444 265q-35 0 -49 13t-14 31q0 6 1 13t3 19q5 26 21.5 38.5t49.5 12.5q35 0 49 -13t14 -31q0 -6 -1 -13t-3 -19q-5 -25 -21.5 -38t-49.5 -13z" />
    <glyph glyph-name="Lslash" unicode="&#x141;" 
d="M495 0h-418l45 268l-84 -25l12 77l85 26l59 352h93l-53 -326l214 68l-12 -78l-216 -67l-35 -213h323z" />
    <glyph glyph-name="Nacute" unicode="&#x143;" 
d="M226 576h-8l-97 -576h-86l117 698h130l124 -576h7l97 576h86l-117 -698h-130zM392 752l-54 32l109 170l77 -43z" />
    <glyph glyph-name="Ncaron" unicode="&#x147;" 
d="M226 576h-8l-97 -576h-86l117 698h130l124 -576h7l97 576h86l-117 -698h-130zM334 765l-92 149l52 33l98 -117l137 117l45 -38l-138 -144h-102z" />
    <glyph glyph-name="Ncommaaccent" unicode="&#x145;" 
d="M226 576h-8l-97 -576h-86l117 698h130l124 -576h7l97 576h86l-117 -698h-130zM187 -62h117l-106 -191h-66z" />
    <glyph glyph-name="Ntilde" unicode="&#xd1;" 
d="M226 576h-8l-97 -576h-86l117 698h130l124 -576h7l97 576h86l-117 -698h-130zM462 778q-24 0 -41 9.5t-34 17.5q-19 10 -35 16.5t-31 6.5q-16 0 -31 -7.5t-32 -21.5l-30 46q17 21 43.5 38t60.5 17q24 0 41 -9.5t34 -17.5q20 -10 35.5 -16.5t30.5 -6.5q16 0 31 7.5
t32 21.5l30 -46q-17 -21 -43.5 -38t-60.5 -17z" />
    <glyph glyph-name="Eng" unicode="&#x14a;" 
d="M35 0l117 698h130l124 -576h7l97 576h86l-133 -793q-9 -52 -33 -84.5t-72 -32.5q-18 0 -32.5 6.5t-29.5 18.5t-31.5 29.5t-37.5 40.5l-34 37l60 53l100 -107l17 4l23 130h-44l-123 576h-8l-97 -576h-86z" />
    <glyph glyph-name="Oacute" unicode="&#xd3;" 
d="M264 -12q-108 0 -157.5 63t-49.5 179q0 47 6 101t20 107t37.5 102.5t58 87t81.5 60t108 22.5q107 0 156.5 -63t49.5 -179q0 -47 -6 -101t-20 -107t-37.5 -102.5t-58 -87t-81 -60t-107.5 -22.5zM268 69q78 0 123.5 59.5t62.5 162.5l19 115q4 22 5.5 42.5t1.5 37.5
q0 68 -27 105.5t-90 37.5q-78 0 -123.5 -59.5t-62.5 -162.5l-19 -115q-4 -22 -5.5 -42.5t-1.5 -37.5q0 -68 27 -105.5t90 -37.5zM384 752l-54 32l109 170l77 -43z" />
    <glyph glyph-name="Obreve" unicode="&#x14e;" 
d="M264 -12q-108 0 -157.5 63t-49.5 179q0 47 6 101t20 107t37.5 102.5t58 87t81.5 60t108 22.5q107 0 156.5 -63t49.5 -179q0 -47 -6 -101t-20 -107t-37.5 -102.5t-58 -87t-81 -60t-107.5 -22.5zM268 69q78 0 123.5 59.5t62.5 162.5l19 115q4 22 5.5 42.5t1.5 37.5
q0 68 -27 105.5t-90 37.5q-78 0 -123.5 -59.5t-62.5 -162.5l-19 -115q-4 -22 -5.5 -42.5t-1.5 -37.5q0 -68 27 -105.5t90 -37.5zM380 760q-40 0 -66.5 15t-43.5 38t-25.5 50.5t-12.5 51.5l54 25l16 -35l16 -32t16 -23.5t20.5 -14t28.5 -4.5q15 0 27 4.5t23 13.5t23 23t27 34
l27 34l57 -25q-12 -25 -28 -52.5t-38 -50t-51.5 -37.5t-69.5 -15z" />
    <glyph glyph-name="Ocircumflex" unicode="&#xd4;" 
d="M264 -12q-108 0 -157.5 63t-49.5 179q0 47 6 101t20 107t37.5 102.5t58 87t81.5 60t108 22.5q107 0 156.5 -63t49.5 -179q0 -47 -6 -101t-20 -107t-37.5 -102.5t-58 -87t-81 -60t-107.5 -22.5zM268 69q78 0 123.5 59.5t62.5 162.5l19 115q4 22 5.5 42.5t1.5 37.5
q0 68 -27 105.5t-90 37.5q-78 0 -123.5 -59.5t-62.5 -162.5l-19 -115q-4 -22 -5.5 -42.5t-1.5 -37.5q0 -68 27 -105.5t90 -37.5zM455 939l91 -149l-51 -33l-98 117l-137 -117l-45 38l137 144h103z" />
    <glyph glyph-name="Odieresis" unicode="&#xd6;" 
d="M264 -12q-108 0 -157.5 63t-49.5 179q0 47 6 101t20 107t37.5 102.5t58 87t81.5 60t108 22.5q107 0 156.5 -63t49.5 -179q0 -47 -6 -101t-20 -107t-37.5 -102.5t-58 -87t-81 -60t-107.5 -22.5zM268 69q78 0 123.5 59.5t62.5 162.5l19 115q4 22 5.5 42.5t1.5 37.5
q0 68 -27 105.5t-90 37.5q-78 0 -123.5 -59.5t-62.5 -162.5l-19 -115q-4 -22 -5.5 -42.5t-1.5 -37.5q0 -68 27 -105.5t90 -37.5zM286 784q-32 0 -44 11.5t-12 27.5q0 5 1 12.5t3 14.5q5 21 18.5 33.5t45.5 12.5t44 -11.5t12 -27.5q0 -5 -1 -12t-3 -15q-5 -21 -18 -33.5
t-46 -12.5zM478 784q-32 0 -44 11.5t-12 27.5q0 5 1 12.5t3 14.5q5 21 18.5 33.5t45.5 12.5t44 -11.5t12 -27.5q0 -5 -1 -12t-3 -15q-5 -21 -18 -33.5t-46 -12.5z" />
    <glyph glyph-name="uni1ECC" unicode="&#x1ecc;" 
d="M264 -12q-108 0 -157.5 63t-49.5 179q0 47 6 101t20 107t37.5 102.5t58 87t81.5 60t108 22.5q107 0 156.5 -63t49.5 -179q0 -47 -6 -101t-20 -107t-37.5 -102.5t-58 -87t-81 -60t-107.5 -22.5zM268 69q78 0 123.5 59.5t62.5 162.5l19 115q4 22 5.5 42.5t1.5 37.5
q0 68 -27 105.5t-90 37.5q-78 0 -123.5 -59.5t-62.5 -162.5l-19 -115q-4 -22 -5.5 -42.5t-1.5 -37.5q0 -68 27 -105.5t90 -37.5zM237 -177q-31 0 -43 11.5t-12 27.5q0 5 1 12.5t3 15.5q4 20 18 33t46 13q31 0 43 -11.5t12 -27.5q0 -5 -1 -12.5t-3 -15.5q-4 -20 -18 -33
t-46 -13z" />
    <glyph glyph-name="Ograve" unicode="&#xd2;" 
d="M264 -12q-108 0 -157.5 63t-49.5 179q0 47 6 101t20 107t37.5 102.5t58 87t81.5 60t108 22.5q107 0 156.5 -63t49.5 -179q0 -47 -6 -101t-20 -107t-37.5 -102.5t-58 -87t-81 -60t-107.5 -22.5zM268 69q78 0 123.5 59.5t62.5 162.5l19 115q4 22 5.5 42.5t1.5 37.5
q0 68 -27 105.5t-90 37.5q-78 0 -123.5 -59.5t-62.5 -162.5l-19 -115q-4 -22 -5.5 -42.5t-1.5 -37.5q0 -68 27 -105.5t90 -37.5zM284 918l83 36l56 -178l-57 -24z" />
    <glyph glyph-name="uni1ECE" unicode="&#x1ece;" 
d="M264 -12q-108 0 -157.5 63t-49.5 179q0 47 6 101t20 107t37.5 102.5t58 87t81.5 60t108 22.5q107 0 156.5 -63t49.5 -179q0 -47 -6 -101t-20 -107t-37.5 -102.5t-58 -87t-81 -60t-107.5 -22.5zM268 69q78 0 123.5 59.5t62.5 162.5l19 115q4 22 5.5 42.5t1.5 37.5
q0 68 -27 105.5t-90 37.5q-78 0 -123.5 -59.5t-62.5 -162.5l-19 -115q-4 -22 -5.5 -42.5t-1.5 -37.5q0 -68 27 -105.5t90 -37.5zM316 940h110q37 0 53.5 -15t16.5 -38q0 -24 -13.5 -47t-37.5 -49l-43 -47l-48 28l66 99h-116z" />
    <glyph glyph-name="Ohungarumlaut" unicode="&#x150;" 
d="M264 -12q-108 0 -157.5 63t-49.5 179q0 47 6 101t20 107t37.5 102.5t58 87t81.5 60t108 22.5q107 0 156.5 -63t49.5 -179q0 -47 -6 -101t-20 -107t-37.5 -102.5t-58 -87t-81 -60t-107.5 -22.5zM268 69q78 0 123.5 59.5t62.5 162.5l19 115q4 22 5.5 42.5t1.5 37.5
q0 68 -27 105.5t-90 37.5q-78 0 -123.5 -59.5t-62.5 -162.5l-19 -115q-4 -22 -5.5 -42.5t-1.5 -37.5q0 -68 27 -105.5t90 -37.5zM300 753l-51 28l107 172l74 -41zM468 753l-50 28l107 172l73 -41z" />
    <glyph glyph-name="Omacron" unicode="&#x14c;" 
d="M264 -12q-108 0 -157.5 63t-49.5 179q0 47 6 101t20 107t37.5 102.5t58 87t81.5 60t108 22.5q107 0 156.5 -63t49.5 -179q0 -47 -6 -101t-20 -107t-37.5 -102.5t-58 -87t-81 -60t-107.5 -22.5zM268 69q78 0 123.5 59.5t62.5 162.5l19 115q4 22 5.5 42.5t1.5 37.5
q0 68 -27 105.5t-90 37.5q-78 0 -123.5 -59.5t-62.5 -162.5l-19 -115q-4 -22 -5.5 -42.5t-1.5 -37.5q0 -68 27 -105.5t90 -37.5zM253 877h282l-12 -73h-282z" />
    <glyph glyph-name="Oslash" unicode="&#xd8;" 
d="M264 -12q-89 0 -141 47l-57 -77l-63 40l76 100q-22 53 -22 132q0 47 6 101t20 107t37.5 102.5t58 87t81.5 60t108 22.5q46 0 80 -12t60 -35l57 77l63 -40l-76 -100q22 -53 22 -132q0 -47 -6 -101t-20 -107t-37.5 -102.5t-58 -87t-81 -60t-107.5 -22.5zM158 294
q-7 -41 -7 -75v-15t2 -14l302 399q-28 40 -92 40q-78 0 -123.5 -59.5t-62.5 -162.5zM268 69q78 0 124 59.5t63 162.5l18 113q7 41 7 75v15t-1 14l-303 -399q29 -40 92 -40z" />
    <glyph glyph-name="Oslashacute" unicode="&#x1fe;" 
d="M264 -12q-89 0 -141 47l-57 -77l-63 40l76 100q-22 53 -22 132q0 47 6 101t20 107t37.5 102.5t58 87t81.5 60t108 22.5q46 0 80 -12t60 -35l57 77l63 -40l-76 -100q22 -53 22 -132q0 -47 -6 -101t-20 -107t-37.5 -102.5t-58 -87t-81 -60t-107.5 -22.5zM158 294
q-7 -41 -7 -75v-15t2 -14l302 399q-28 40 -92 40q-78 0 -123.5 -59.5t-62.5 -162.5zM268 69q78 0 124 59.5t63 162.5l18 113q7 41 7 75v15t-1 14l-303 -399q29 -40 92 -40zM384 752l-54 32l109 170l77 -43z" />
    <glyph glyph-name="Otilde" unicode="&#xd5;" 
d="M264 -12q-108 0 -157.5 63t-49.5 179q0 47 6 101t20 107t37.5 102.5t58 87t81.5 60t108 22.5q107 0 156.5 -63t49.5 -179q0 -47 -6 -101t-20 -107t-37.5 -102.5t-58 -87t-81 -60t-107.5 -22.5zM268 69q78 0 123.5 59.5t62.5 162.5l19 115q4 22 5.5 42.5t1.5 37.5
q0 68 -27 105.5t-90 37.5q-78 0 -123.5 -59.5t-62.5 -162.5l-19 -115q-4 -22 -5.5 -42.5t-1.5 -37.5q0 -68 27 -105.5t90 -37.5zM454 778q-24 0 -41 9.5t-34 17.5q-19 10 -35 16.5t-31 6.5q-16 0 -31 -7.5t-32 -21.5l-30 46q17 21 43.5 38t60.5 17q24 0 41 -9.5t34 -17.5
q20 -10 35.5 -16.5t30.5 -6.5q16 0 31 7.5t32 21.5l30 -46q-17 -21 -43.5 -38t-60.5 -17z" />
    <glyph glyph-name="Ohorn" unicode="&#x1a0;" 
d="M615 708q-5 -29 -21.5 -49t-56.5 -20h-12q27 -31 38 -74t11 -97q0 -47 -6 -101t-20 -107t-37.5 -102.5t-58 -87t-81 -60t-107.5 -22.5q-108 0 -157.5 63t-49.5 179q0 47 6 101t20 107t37.5 102.5t58 87t81.5 60t108 22.5q45 0 81 -12h86l18 112h79zM268 69
q78 0 123.5 59.5t62.5 162.5l19 115q4 22 5.5 42.5t1.5 37.5q0 68 -27 105.5t-90 37.5q-78 0 -123.5 -59.5t-62.5 -162.5l-19 -115q-4 -22 -5.5 -42.5t-1.5 -37.5q0 -68 27 -105.5t90 -37.5z" />
    <glyph glyph-name="uni1EDA" unicode="&#x1eda;" 
d="M615 708q-5 -29 -21.5 -49t-56.5 -20h-12q27 -31 38 -74t11 -97q0 -47 -6 -101t-20 -107t-37.5 -102.5t-58 -87t-81 -60t-107.5 -22.5q-108 0 -157.5 63t-49.5 179q0 47 6 101t20 107t37.5 102.5t58 87t81.5 60t108 22.5q45 0 81 -12h86l18 112h79zM268 69
q78 0 123.5 59.5t62.5 162.5l19 115q4 22 5.5 42.5t1.5 37.5q0 68 -27 105.5t-90 37.5q-78 0 -123.5 -59.5t-62.5 -162.5l-19 -115q-4 -22 -5.5 -42.5t-1.5 -37.5q0 -68 27 -105.5t90 -37.5zM384 752l-54 32l109 170l77 -43z" />
    <glyph glyph-name="uni1EE2" unicode="&#x1ee2;" 
d="M615 708q-5 -29 -21.5 -49t-56.5 -20h-12q27 -31 38 -74t11 -97q0 -47 -6 -101t-20 -107t-37.5 -102.5t-58 -87t-81 -60t-107.5 -22.5q-108 0 -157.5 63t-49.5 179q0 47 6 101t20 107t37.5 102.5t58 87t81.5 60t108 22.5q45 0 81 -12h86l18 112h79zM268 69
q78 0 123.5 59.5t62.5 162.5l19 115q4 22 5.5 42.5t1.5 37.5q0 68 -27 105.5t-90 37.5q-78 0 -123.5 -59.5t-62.5 -162.5l-19 -115q-4 -22 -5.5 -42.5t-1.5 -37.5q0 -68 27 -105.5t90 -37.5zM237 -177q-31 0 -43 11.5t-12 27.5q0 5 1 12.5t3 15.5q4 20 18 33t46 13
q31 0 43 -11.5t12 -27.5q0 -5 -1 -12.5t-3 -15.5q-4 -20 -18 -33t-46 -13z" />
    <glyph glyph-name="uni1EDC" unicode="&#x1edc;" 
d="M615 708q-5 -29 -21.5 -49t-56.5 -20h-12q27 -31 38 -74t11 -97q0 -47 -6 -101t-20 -107t-37.5 -102.5t-58 -87t-81 -60t-107.5 -22.5q-108 0 -157.5 63t-49.5 179q0 47 6 101t20 107t37.5 102.5t58 87t81.5 60t108 22.5q45 0 81 -12h86l18 112h79zM268 69
q78 0 123.5 59.5t62.5 162.5l19 115q4 22 5.5 42.5t1.5 37.5q0 68 -27 105.5t-90 37.5q-78 0 -123.5 -59.5t-62.5 -162.5l-19 -115q-4 -22 -5.5 -42.5t-1.5 -37.5q0 -68 27 -105.5t90 -37.5zM284 918l83 36l56 -178l-57 -24z" />
    <glyph glyph-name="uni1EDE" unicode="&#x1ede;" 
d="M615 708q-5 -29 -21.5 -49t-56.5 -20h-12q27 -31 38 -74t11 -97q0 -47 -6 -101t-20 -107t-37.5 -102.5t-58 -87t-81 -60t-107.5 -22.5q-108 0 -157.5 63t-49.5 179q0 47 6 101t20 107t37.5 102.5t58 87t81.5 60t108 22.5q45 0 81 -12h86l18 112h79zM268 69
q78 0 123.5 59.5t62.5 162.5l19 115q4 22 5.5 42.5t1.5 37.5q0 68 -27 105.5t-90 37.5q-78 0 -123.5 -59.5t-62.5 -162.5l-19 -115q-4 -22 -5.5 -42.5t-1.5 -37.5q0 -68 27 -105.5t90 -37.5zM316 940h110q37 0 53.5 -15t16.5 -38q0 -24 -13.5 -47t-37.5 -49l-43 -47l-48 28
l66 99h-116z" />
    <glyph glyph-name="uni1EE0" unicode="&#x1ee0;" 
d="M615 708q-5 -29 -21.5 -49t-56.5 -20h-12q27 -31 38 -74t11 -97q0 -47 -6 -101t-20 -107t-37.5 -102.5t-58 -87t-81 -60t-107.5 -22.5q-108 0 -157.5 63t-49.5 179q0 47 6 101t20 107t37.5 102.5t58 87t81.5 60t108 22.5q45 0 81 -12h86l18 112h79zM268 69
q78 0 123.5 59.5t62.5 162.5l19 115q4 22 5.5 42.5t1.5 37.5q0 68 -27 105.5t-90 37.5q-78 0 -123.5 -59.5t-62.5 -162.5l-19 -115q-4 -22 -5.5 -42.5t-1.5 -37.5q0 -68 27 -105.5t90 -37.5zM442 782q-21 0 -35 7t-29 16q-17 10 -30 15.5t-26 5.5q-16 0 -30 -6.5t-30 -19.5
l-33 44q17 21 42.5 37t57.5 16q21 0 35 -7t29 -16q17 -10 30 -15.5t26 -5.5q16 0 30 6.5t30 19.5l33 -44q-17 -21 -42.5 -37t-57.5 -16z" />
    <glyph glyph-name="uni1ED0" unicode="&#x1ed0;" 
d="M264 -12q-108 0 -157.5 63t-49.5 179q0 47 6 101t20 107t37.5 102.5t58 87t81.5 60t108 22.5q107 0 156.5 -63t49.5 -179q0 -47 -6 -101t-20 -107t-37.5 -102.5t-58 -87t-81 -60t-107.5 -22.5zM268 69q78 0 123.5 59.5t62.5 162.5l19 115q4 22 5.5 42.5t1.5 37.5
q0 68 -27 105.5t-90 37.5q-78 0 -123.5 -59.5t-62.5 -162.5l-19 -115q-4 -22 -5.5 -42.5t-1.5 -37.5q0 -68 27 -105.5t90 -37.5zM549 881l-51 29l107 171l73 -41zM451 928l93 -147l-51 -34l-99 115l-137 -115l-43 39l139 142h98z" />
    <glyph glyph-name="uni1ED8" unicode="&#x1ed8;" 
d="M264 -12q-108 0 -157.5 63t-49.5 179q0 47 6 101t20 107t37.5 102.5t58 87t81.5 60t108 22.5q107 0 156.5 -63t49.5 -179q0 -47 -6 -101t-20 -107t-37.5 -102.5t-58 -87t-81 -60t-107.5 -22.5zM268 69q78 0 123.5 59.5t62.5 162.5l19 115q4 22 5.5 42.5t1.5 37.5
q0 68 -27 105.5t-90 37.5q-78 0 -123.5 -59.5t-62.5 -162.5l-19 -115q-4 -22 -5.5 -42.5t-1.5 -37.5q0 -68 27 -105.5t90 -37.5zM455 939l91 -149l-51 -33l-98 117l-137 -117l-45 38l137 144h103zM237 -177q-31 0 -43 11.5t-12 27.5q0 5 1 12.5t3 15.5q4 20 18 33t46 13
q31 0 43 -11.5t12 -27.5q0 -5 -1 -12.5t-3 -15.5q-4 -20 -18 -33t-46 -13z" />
    <glyph glyph-name="uni1ED2" unicode="&#x1ed2;" 
d="M264 -12q-108 0 -157.5 63t-49.5 179q0 47 6 101t20 107t37.5 102.5t58 87t81.5 60t108 22.5q107 0 156.5 -63t49.5 -179q0 -47 -6 -101t-20 -107t-37.5 -102.5t-58 -87t-81 -60t-107.5 -22.5zM268 69q78 0 123.5 59.5t62.5 162.5l19 115q4 22 5.5 42.5t1.5 37.5
q0 68 -27 105.5t-90 37.5q-78 0 -123.5 -59.5t-62.5 -162.5l-19 -115q-4 -22 -5.5 -42.5t-1.5 -37.5q0 -68 27 -105.5t90 -37.5zM160 1053l79 32l56 -178l-53 -22zM451 928l93 -147l-51 -34l-99 115l-137 -115l-43 39l139 142h98z" />
    <glyph glyph-name="uni1ED4" unicode="&#x1ed4;" 
d="M264 -12q-108 0 -157.5 63t-49.5 179q0 47 6 101t20 107t37.5 102.5t58 87t81.5 60t108 22.5q107 0 156.5 -63t49.5 -179q0 -47 -6 -101t-20 -107t-37.5 -102.5t-58 -87t-81 -60t-107.5 -22.5zM268 69q78 0 123.5 59.5t62.5 162.5l19 115q4 22 5.5 42.5t1.5 37.5
q0 68 -27 105.5t-90 37.5q-78 0 -123.5 -59.5t-62.5 -162.5l-19 -115q-4 -22 -5.5 -42.5t-1.5 -37.5q0 -68 27 -105.5t90 -37.5zM469 1074h108q36 0 52.5 -15t16.5 -37q0 -21 -10.5 -40.5t-28.5 -39.5l-56 -64l-47 28l67 100h-114zM450 928l94 -147l-51 -34l-99 115
l-137 -115l-43 39l139 142h97z" />
    <glyph glyph-name="uni1ED6" unicode="&#x1ed6;" 
d="M264 -12q-108 0 -157.5 63t-49.5 179q0 47 6 101t20 107t37.5 102.5t58 87t81.5 60t108 22.5q107 0 156.5 -63t49.5 -179q0 -47 -6 -101t-20 -107t-37.5 -102.5t-58 -87t-81 -60t-107.5 -22.5zM268 69q78 0 123.5 59.5t62.5 162.5l19 115q4 22 5.5 42.5t1.5 37.5
q0 68 -27 105.5t-90 37.5q-78 0 -123.5 -59.5t-62.5 -162.5l-19 -115q-4 -22 -5.5 -42.5t-1.5 -37.5q0 -68 27 -105.5t90 -37.5zM352 1071q24 0 41.5 -8.5t33.5 -17.5q18 -11 34.5 -17t31.5 -6q16 0 31 7t32 21l30 -46q-17 -20 -44 -36.5t-60 -16.5q-24 0 -41.5 8.5
t-33.5 17.5q-18 11 -34.5 17t-31.5 6q-17 0 -31.5 -7.5t-31.5 -20.5l-30 45q17 21 43.5 37.5t60.5 16.5zM451 918l95 -138l-52 -33l-101 108l-134 -108l-44 41l138 130h98z" />
    <glyph glyph-name="OE" unicode="&#x152;" 
d="M264 0q-110 0 -164.5 64t-54.5 189q0 105 22 188t64 140t102 87t135 30h274l-13 -77h-164l-38 -229h152l-12 -77h-153l-40 -238h166l-13 -77h-263zM375 621h-16q-81 0 -134 -56t-67 -161l-15 -103q-2 -17 -4.5 -37t-2.5 -37q0 -75 37.5 -112.5t107.5 -37.5h3z" />
    <glyph glyph-name="Racute" unicode="&#x154;" 
d="M139 0h-94l117 698h249q45 0 77.5 -12.5t54.5 -34.5t32.5 -53t10.5 -68q0 -103 -53 -163t-149 -70l121 -297h-102l-111 292h-104zM356 370q51 0 83.5 23.5t40.5 72.5l6 33q3 18 3 38q0 41 -24.5 60.5t-69.5 19.5h-152l-41 -247h154zM374 752l-54 32l109 170l77 -43z" />
    <glyph glyph-name="Rcaron" unicode="&#x158;" 
d="M139 0h-94l117 698h249q45 0 77.5 -12.5t54.5 -34.5t32.5 -53t10.5 -68q0 -103 -53 -163t-149 -70l121 -297h-102l-111 292h-104zM356 370q51 0 83.5 23.5t40.5 72.5l6 33q3 18 3 38q0 41 -24.5 60.5t-69.5 19.5h-152l-41 -247h154zM316 765l-92 149l52 33l98 -117
l137 117l45 -38l-138 -144h-102z" />
    <glyph glyph-name="Rcommaaccent" unicode="&#x156;" 
d="M139 0h-94l117 698h249q45 0 77.5 -12.5t54.5 -34.5t32.5 -53t10.5 -68q0 -103 -53 -163t-149 -70l121 -297h-102l-111 292h-104zM356 370q51 0 83.5 23.5t40.5 72.5l6 33q3 18 3 38q0 41 -24.5 60.5t-69.5 19.5h-152l-41 -247h154zM199 -62h117l-106 -191h-66z" />
    <glyph glyph-name="Sacute" unicode="&#x15a;" 
d="M266 -12q-90 0 -151 33t-92 87l67 58q64 -97 181 -97q78 0 122 37t44 101q0 41 -23.5 65.5t-80.5 37.5l-74 16q-81 19 -118.5 62t-37.5 110q0 49 18.5 88.5t51.5 67t80 42t104 14.5q88 0 144 -32t84 -80l-67 -52q-28 42 -68 63t-97 21q-72 0 -112.5 -33.5t-40.5 -90.5
q0 -45 27 -67t81 -35l71 -17q85 -20 120.5 -63t35.5 -109q0 -50 -18.5 -92t-53.5 -72t-85 -46.5t-112 -16.5zM378 752l-54 32l109 170l77 -43z" />
    <glyph glyph-name="Scaron" unicode="&#x160;" 
d="M266 -12q-90 0 -151 33t-92 87l67 58q64 -97 181 -97q78 0 122 37t44 101q0 41 -23.5 65.5t-80.5 37.5l-74 16q-81 19 -118.5 62t-37.5 110q0 49 18.5 88.5t51.5 67t80 42t104 14.5q88 0 144 -32t84 -80l-67 -52q-28 42 -68 63t-97 21q-72 0 -112.5 -33.5t-40.5 -90.5
q0 -45 27 -67t81 -35l71 -17q85 -20 120.5 -63t35.5 -109q0 -50 -18.5 -92t-53.5 -72t-85 -46.5t-112 -16.5zM320 765l-92 149l52 33l98 -117l137 117l45 -38l-138 -144h-102z" />
    <glyph glyph-name="Scedilla" unicode="&#x15e;" 
d="M253 -208q-39 0 -63.5 12.5t-35.5 29.5l42 42q8 -11 21.5 -19t35.5 -8t36 8.5t14 24.5q0 11 -11.5 22.5t-50.5 16.5l-28 3l24 65q-78 5 -132 37t-82 82l67 58q64 -97 181 -97q78 0 122 37t44 101q0 41 -23.5 65.5t-80.5 37.5l-74 16q-81 19 -118.5 62t-37.5 110
q0 49 18.5 88.5t51.5 67t80 42t104 14.5q88 0 144 -32t84 -80l-67 -52q-28 42 -68 63t-97 21q-72 0 -112.5 -33.5t-40.5 -90.5q0 -45 27 -67t81 -35l71 -17q85 -20 120.5 -63t35.5 -109q0 -48 -17 -88t-48.5 -69.5t-77 -47.5t-102.5 -21l-17 -49l2 -3q25 5 38 5
q28 0 44.5 -15t16.5 -44q0 -24 -10 -41t-26.5 -28t-38.5 -16.5t-46 -5.5z" />
    <glyph glyph-name="Scircumflex" unicode="&#x15c;" 
d="M266 -12q-90 0 -151 33t-92 87l67 58q64 -97 181 -97q78 0 122 37t44 101q0 41 -23.5 65.5t-80.5 37.5l-74 16q-81 19 -118.5 62t-37.5 110q0 49 18.5 88.5t51.5 67t80 42t104 14.5q88 0 144 -32t84 -80l-67 -52q-28 42 -68 63t-97 21q-72 0 -112.5 -33.5t-40.5 -90.5
q0 -45 27 -67t81 -35l71 -17q85 -20 120.5 -63t35.5 -109q0 -50 -18.5 -92t-53.5 -72t-85 -46.5t-112 -16.5zM449 939l91 -149l-51 -33l-98 117l-137 -117l-45 38l137 144h103z" />
    <glyph glyph-name="Scommaaccent" unicode="&#x218;" 
d="M266 -12q-90 0 -151 33t-92 87l67 58q64 -97 181 -97q78 0 122 37t44 101q0 41 -23.5 65.5t-80.5 37.5l-74 16q-81 19 -118.5 62t-37.5 110q0 49 18.5 88.5t51.5 67t80 42t104 14.5q88 0 144 -32t84 -80l-67 -52q-28 42 -68 63t-97 21q-72 0 -112.5 -33.5t-40.5 -90.5
q0 -45 27 -67t81 -35l71 -17q85 -20 120.5 -63t35.5 -109q0 -50 -18.5 -92t-53.5 -72t-85 -46.5t-112 -16.5zM201 -62h117l-106 -191h-66z" />
    <glyph glyph-name="uni1E9E" unicode="&#x1e9e;" 
d="M132 698h479l-15 -91l-196 -202v-5q76 -2 124 -43t48 -126q0 -45 -14.5 -88.5t-44 -78t-73.5 -55.5t-103 -21q-58 0 -104 22t-72 64l68 51q37 -58 108 -58q54 0 87.5 31.5t42.5 82.5q5 29 6.5 40t1.5 19q0 39 -23.5 62.5t-71.5 23.5h-92l14 85l200 207h-289l-104 -618
h-94z" />
    <glyph glyph-name="Tbar" unicode="&#x166;" 
d="M359 328l-55 -328h-94l55 328h-165l11 71h165l37 217h-227l14 82h549l-14 -82h-227l-37 -217h165l-12 -71h-165z" />
    <glyph glyph-name="Tcaron" unicode="&#x164;" 
d="M408 616l-103 -616h-95l103 616h-227l14 82h549l-14 -82h-227zM331 765l-92 149l52 33l98 -117l137 117l45 -38l-138 -144h-102z" />
    <glyph glyph-name="Tcommaaccent" unicode="&#x162;" 
d="M408 616l-103 -616h-95l103 616h-227l14 82h549l-14 -82h-227zM190 -62h117l-106 -191h-66z" />
    <glyph glyph-name="uni021A" unicode="&#x21a;" 
d="M408 616l-103 -616h-95l103 616h-227l14 82h549l-14 -82h-227zM190 -62h117l-106 -191h-66z" />
    <glyph glyph-name="Thorn" unicode="&#xde;" 
d="M45 0l117 698h95l-23 -139h153q45 0 77.5 -12.5t54.5 -34.5t32.5 -53t10.5 -68q0 -113 -61 -177t-172 -64h-164l-25 -150h-95zM179 231h153q55 0 85.5 25.5t38.5 70.5l6 35q3 16 3 37q0 40 -24.5 59.5t-69.5 19.5h-151z" />
    <glyph glyph-name="Uacute" unicode="&#xda;" 
d="M244 698l-68 -407q-8 -49 -10.5 -74t-2.5 -42q0 -24 4.5 -44t16.5 -33.5t32 -21t52 -7.5q46 0 74.5 13.5t45 39t25.5 63t17 85.5l72 428h95l-69 -411q-13 -76 -29 -132.5t-43.5 -93.5t-72 -55t-114.5 -18q-110 0 -155.5 47t-45.5 133q0 31 5 70.5t12 78.5l64 381h95z
M388 752l-54 32l109 170l77 -43z" />
    <glyph glyph-name="Ubreve" unicode="&#x16c;" 
d="M244 698l-68 -407q-8 -49 -10.5 -74t-2.5 -42q0 -24 4.5 -44t16.5 -33.5t32 -21t52 -7.5q46 0 74.5 13.5t45 39t25.5 63t17 85.5l72 428h95l-69 -411q-13 -76 -29 -132.5t-43.5 -93.5t-72 -55t-114.5 -18q-110 0 -155.5 47t-45.5 133q0 31 5 70.5t12 78.5l64 381h95z
M384 760q-40 0 -66.5 15t-43.5 38t-25.5 50.5t-12.5 51.5l54 25l16 -35l16 -32t16 -23.5t20.5 -14t28.5 -4.5q15 0 27 4.5t23 13.5t23 23t27 34l27 34l57 -25q-12 -25 -28 -52.5t-38 -50t-51.5 -37.5t-69.5 -15z" />
    <glyph glyph-name="Ucircumflex" unicode="&#xdb;" 
d="M244 698l-68 -407q-8 -49 -10.5 -74t-2.5 -42q0 -24 4.5 -44t16.5 -33.5t32 -21t52 -7.5q46 0 74.5 13.5t45 39t25.5 63t17 85.5l72 428h95l-69 -411q-13 -76 -29 -132.5t-43.5 -93.5t-72 -55t-114.5 -18q-110 0 -155.5 47t-45.5 133q0 31 5 70.5t12 78.5l64 381h95z
M459 939l91 -149l-51 -33l-98 117l-137 -117l-45 38l137 144h103z" />
    <glyph glyph-name="Udieresis" unicode="&#xdc;" 
d="M244 698l-68 -407q-8 -49 -10.5 -74t-2.5 -42q0 -24 4.5 -44t16.5 -33.5t32 -21t52 -7.5q46 0 74.5 13.5t45 39t25.5 63t17 85.5l72 428h95l-69 -411q-13 -76 -29 -132.5t-43.5 -93.5t-72 -55t-114.5 -18q-110 0 -155.5 47t-45.5 133q0 31 5 70.5t12 78.5l64 381h95z
M290 784q-32 0 -44 11.5t-12 27.5q0 5 1 12.5t3 14.5q5 21 18.5 33.5t45.5 12.5t44 -11.5t12 -27.5q0 -5 -1 -12t-3 -15q-5 -21 -18 -33.5t-46 -12.5zM482 784q-32 0 -44 11.5t-12 27.5q0 5 1 12.5t3 14.5q5 21 18.5 33.5t45.5 12.5t44 -11.5t12 -27.5q0 -5 -1 -12t-3 -15
q-5 -21 -18 -33.5t-46 -12.5z" />
    <glyph glyph-name="uni1EE4" unicode="&#x1ee4;" 
d="M244 698l-68 -407q-8 -49 -10.5 -74t-2.5 -42q0 -24 4.5 -44t16.5 -33.5t32 -21t52 -7.5q46 0 74.5 13.5t45 39t25.5 63t17 85.5l72 428h95l-69 -411q-13 -76 -29 -132.5t-43.5 -93.5t-72 -55t-114.5 -18q-110 0 -155.5 47t-45.5 133q0 31 5 70.5t12 78.5l64 381h95z
M232 -177q-31 0 -43 11.5t-12 27.5q0 5 1 12.5t3 15.5q4 20 18 33t46 13q31 0 43 -11.5t12 -27.5q0 -5 -1 -12.5t-3 -15.5q-4 -20 -18 -33t-46 -13z" />
    <glyph glyph-name="Ugrave" unicode="&#xd9;" 
d="M244 698l-68 -407q-8 -49 -10.5 -74t-2.5 -42q0 -24 4.5 -44t16.5 -33.5t32 -21t52 -7.5q46 0 74.5 13.5t45 39t25.5 63t17 85.5l72 428h95l-69 -411q-13 -76 -29 -132.5t-43.5 -93.5t-72 -55t-114.5 -18q-110 0 -155.5 47t-45.5 133q0 31 5 70.5t12 78.5l64 381h95z
M288 918l83 36l56 -178l-57 -24z" />
    <glyph glyph-name="uni1EE6" unicode="&#x1ee6;" 
d="M244 698l-68 -407q-8 -49 -10.5 -74t-2.5 -42q0 -24 4.5 -44t16.5 -33.5t32 -21t52 -7.5q46 0 74.5 13.5t45 39t25.5 63t17 85.5l72 428h95l-69 -411q-13 -76 -29 -132.5t-43.5 -93.5t-72 -55t-114.5 -18q-110 0 -155.5 47t-45.5 133q0 31 5 70.5t12 78.5l64 381h95z
M320 940h110q37 0 53.5 -15t16.5 -38q0 -24 -13.5 -47t-37.5 -49l-43 -47l-48 28l66 99h-116z" />
    <glyph glyph-name="Uhungarumlaut" unicode="&#x170;" 
d="M244 698l-68 -407q-8 -49 -10.5 -74t-2.5 -42q0 -24 4.5 -44t16.5 -33.5t32 -21t52 -7.5q46 0 74.5 13.5t45 39t25.5 63t17 85.5l72 428h95l-69 -411q-13 -76 -29 -132.5t-43.5 -93.5t-72 -55t-114.5 -18q-110 0 -155.5 47t-45.5 133q0 31 5 70.5t12 78.5l64 381h95z
M304 753l-51 28l107 172l74 -41zM472 753l-50 28l107 172l73 -41z" />
    <glyph glyph-name="Umacron" unicode="&#x16a;" 
d="M244 698l-68 -407q-8 -49 -10.5 -74t-2.5 -42q0 -24 4.5 -44t16.5 -33.5t32 -21t52 -7.5q46 0 74.5 13.5t45 39t25.5 63t17 85.5l72 428h95l-69 -411q-13 -76 -29 -132.5t-43.5 -93.5t-72 -55t-114.5 -18q-110 0 -155.5 47t-45.5 133q0 31 5 70.5t12 78.5l64 381h95z
M257 877h282l-12 -73h-282z" />
    <glyph glyph-name="Uogonek" unicode="&#x172;" 
d="M244 698l-68 -407q-8 -49 -10.5 -74t-2.5 -42q0 -24 4.5 -44t16.5 -33.5t32 -21t52 -7.5q46 0 74.5 13.5t45 39t25.5 63t17 85.5l72 428h95l-69 -411q-9 -54 -19.5 -97.5t-26.5 -77.5t-40 -60t-60 -46t-59 -38t-36 -34t-18 -30t-5 -24q0 -16 10 -23.5t25 -7.5q28 0 55 27
l41 -44q-14 -16 -39.5 -28t-62.5 -12q-21 0 -39.5 4.5t-32.5 14t-22.5 24t-8.5 34.5q0 36 28 64.5t76 50.5l-1 5q-7 -1 -12.5 -1h-11.5q-110 0 -155.5 47t-45.5 133q0 31 5 70.5t12 78.5l64 381h95z" />
    <glyph glyph-name="Uring" unicode="&#x16e;" 
d="M244 698l-68 -407q-8 -49 -10.5 -74t-2.5 -42q0 -24 4.5 -44t16.5 -33.5t32 -21t52 -7.5q46 0 74.5 13.5t45 39t25.5 63t17 85.5l72 428h95l-69 -411q-13 -76 -29 -132.5t-43.5 -93.5t-72 -55t-114.5 -18q-110 0 -155.5 47t-45.5 133q0 31 5 70.5t12 78.5l64 381h95z
M379 743q-46 0 -76 29t-30 74q0 28 11.5 52.5t30 42.5t43.5 28.5t52 10.5q46 0 76 -29t30 -74q0 -29 -11.5 -53.5t-30 -42.5t-43.5 -28t-52 -10zM384 795q26 0 43.5 14.5t22.5 40.5q2 11 3 20t1 15q0 43 -49 43q-26 0 -43.5 -14.5t-22.5 -40.5q-2 -11 -3 -20t-1 -15
q0 -43 49 -43z" />
    <glyph glyph-name="Utilde" unicode="&#x168;" 
d="M244 698l-68 -407q-8 -49 -10.5 -74t-2.5 -42q0 -24 4.5 -44t16.5 -33.5t32 -21t52 -7.5q46 0 74.5 13.5t45 39t25.5 63t17 85.5l72 428h95l-69 -411q-13 -76 -29 -132.5t-43.5 -93.5t-72 -55t-114.5 -18q-110 0 -155.5 47t-45.5 133q0 31 5 70.5t12 78.5l64 381h95z
M458 778q-24 0 -41 9.5t-34 17.5q-19 10 -35 16.5t-31 6.5q-16 0 -31 -7.5t-32 -21.5l-30 46q17 21 43.5 38t60.5 17q24 0 41 -9.5t34 -17.5q20 -10 35.5 -16.5t30.5 -6.5q16 0 31 7.5t32 21.5l30 -46q-17 -21 -43.5 -38t-60.5 -17z" />
    <glyph glyph-name="Uhorn" unicode="&#x1af;" 
d="M244 698l-68 -407q-8 -49 -10.5 -74t-2.5 -42q0 -24 4.5 -44t16.5 -33.5t32 -21t52 -7.5q46 0 74.5 13.5t45 39t25.5 63.5t17 86l72 427h91l18 112h79l-17 -102q-5 -27 -20.5 -47.5t-53.5 -20.5h-12l-59 -353q-13 -76 -29 -132.5t-43.5 -93.5t-72 -55t-114.5 -18
q-110 0 -155.5 47t-45.5 133q0 31 5 70.5t12 78.5l64 381h95z" />
    <glyph glyph-name="uni1EE8" unicode="&#x1ee8;" 
d="M244 698l-68 -407q-8 -49 -10.5 -74t-2.5 -42q0 -24 4.5 -44t16.5 -33.5t32 -21t52 -7.5q46 0 74.5 13.5t45 39t25.5 63.5t17 86l72 427h91l18 112h79l-17 -102q-5 -27 -20.5 -47.5t-53.5 -20.5h-12l-59 -353q-13 -76 -29 -132.5t-43.5 -93.5t-72 -55t-114.5 -18
q-110 0 -155.5 47t-45.5 133q0 31 5 70.5t12 78.5l64 381h95zM388 752l-54 32l109 170l77 -43z" />
    <glyph glyph-name="uni1EF0" unicode="&#x1ef0;" 
d="M244 698l-68 -407q-8 -49 -10.5 -74t-2.5 -42q0 -24 4.5 -44t16.5 -33.5t32 -21t52 -7.5q46 0 74.5 13.5t45 39t25.5 63.5t17 86l72 427h91l18 112h79l-17 -102q-5 -27 -20.5 -47.5t-53.5 -20.5h-12l-59 -353q-13 -76 -29 -132.5t-43.5 -93.5t-72 -55t-114.5 -18
q-110 0 -155.5 47t-45.5 133q0 31 5 70.5t12 78.5l64 381h95zM232 -177q-31 0 -43 11.5t-12 27.5q0 5 1 12.5t3 15.5q4 20 18 33t46 13q31 0 43 -11.5t12 -27.5q0 -5 -1 -12.5t-3 -15.5q-4 -20 -18 -33t-46 -13z" />
    <glyph glyph-name="uni1EEA" unicode="&#x1eea;" 
d="M244 698l-68 -407q-8 -49 -10.5 -74t-2.5 -42q0 -24 4.5 -44t16.5 -33.5t32 -21t52 -7.5q46 0 74.5 13.5t45 39t25.5 63.5t17 86l72 427h91l18 112h79l-17 -102q-5 -27 -20.5 -47.5t-53.5 -20.5h-12l-59 -353q-13 -76 -29 -132.5t-43.5 -93.5t-72 -55t-114.5 -18
q-110 0 -155.5 47t-45.5 133q0 31 5 70.5t12 78.5l64 381h95zM288 918l83 36l56 -178l-57 -24z" />
    <glyph glyph-name="uni1EEC" unicode="&#x1eec;" 
d="M244 698l-68 -407q-8 -49 -10.5 -74t-2.5 -42q0 -24 4.5 -44t16.5 -33.5t32 -21t52 -7.5q46 0 74.5 13.5t45 39t25.5 63.5t17 86l72 427h91l18 112h79l-17 -102q-5 -27 -20.5 -47.5t-53.5 -20.5h-12l-59 -353q-13 -76 -29 -132.5t-43.5 -93.5t-72 -55t-114.5 -18
q-110 0 -155.5 47t-45.5 133q0 31 5 70.5t12 78.5l64 381h95zM320 940h110q37 0 53.5 -15t16.5 -38q0 -24 -13.5 -47t-37.5 -49l-43 -47l-48 28l66 99h-116z" />
    <glyph glyph-name="uni1EEE" unicode="&#x1eee;" 
d="M244 698l-68 -407q-8 -49 -10.5 -74t-2.5 -42q0 -24 4.5 -44t16.5 -33.5t32 -21t52 -7.5q46 0 74.5 13.5t45 39t25.5 63.5t17 86l72 427h91l18 112h79l-17 -102q-5 -27 -20.5 -47.5t-53.5 -20.5h-12l-59 -353q-13 -76 -29 -132.5t-43.5 -93.5t-72 -55t-114.5 -18
q-110 0 -155.5 47t-45.5 133q0 31 5 70.5t12 78.5l64 381h95zM444 782q-21 0 -35 7t-29 16q-17 10 -30 15.5t-26 5.5q-16 0 -30 -6.5t-30 -19.5l-33 44q17 21 42.5 37t57.5 16q21 0 35 -7t29 -16q17 -10 30 -15.5t26 -5.5q16 0 30 6.5t30 19.5l33 -44q-17 -21 -42.5 -37
t-57.5 -16z" />
    <glyph glyph-name="Wacute" unicode="&#x1e82;" 
d="M39 0l64 698h83l-39 -398l-20 -208h8l156 430h102l16 -430h8l46 201l95 405h84l-169 -698h-134l-10 414h-8l-148 -414h-134zM385 752l-54 32l109 170l77 -43z" />
    <glyph glyph-name="Wcircumflex" unicode="&#x174;" 
d="M39 0l64 698h83l-39 -398l-20 -208h8l156 430h102l16 -430h8l46 201l95 405h84l-169 -698h-134l-10 414h-8l-148 -414h-134zM456 939l91 -149l-51 -33l-98 117l-137 -117l-45 38l137 144h103z" />
    <glyph glyph-name="Wdieresis" unicode="&#x1e84;" 
d="M39 0l64 698h83l-39 -398l-20 -208h8l156 430h102l16 -430h8l46 201l95 405h84l-169 -698h-134l-10 414h-8l-148 -414h-134zM287 784q-32 0 -44 11.5t-12 27.5q0 5 1 12.5t3 14.5q5 21 18.5 33.5t45.5 12.5t44 -11.5t12 -27.5q0 -5 -1 -12t-3 -15q-5 -21 -18 -33.5
t-46 -12.5zM479 784q-32 0 -44 11.5t-12 27.5q0 5 1 12.5t3 14.5q5 21 18.5 33.5t45.5 12.5t44 -11.5t12 -27.5q0 -5 -1 -12t-3 -15q-5 -21 -18 -33.5t-46 -12.5z" />
    <glyph glyph-name="Wgrave" unicode="&#x1e80;" 
d="M39 0l64 698h83l-39 -398l-20 -208h8l156 430h102l16 -430h8l46 201l95 405h84l-169 -698h-134l-10 414h-8l-148 -414h-134zM285 918l83 36l56 -178l-57 -24z" />
    <glyph glyph-name="Yacute" unicode="&#xdd;" 
d="M210 0l45 267l-167 431h101l67 -179l54 -157h4l108 157l125 179h111l-307 -425l-46 -273h-95zM385 752l-54 32l109 170l77 -43z" />
    <glyph glyph-name="Ycircumflex" unicode="&#x176;" 
d="M210 0l45 267l-167 431h101l67 -179l54 -157h4l108 157l125 179h111l-307 -425l-46 -273h-95zM456 939l91 -149l-51 -33l-98 117l-137 -117l-45 38l137 144h103z" />
    <glyph glyph-name="uni1EF4" unicode="&#x1ef4;" 
d="M210 0l45 267l-167 431h101l67 -179l54 -157h4l108 157l125 179h111l-307 -425l-46 -273h-95zM233 -177q-31 0 -43 11.5t-12 27.5q0 5 1 12.5t3 15.5q4 20 18 33t46 13q31 0 43 -11.5t12 -27.5q0 -5 -1 -12.5t-3 -15.5q-4 -20 -18 -33t-46 -13z" />
    <glyph glyph-name="Ydieresis" unicode="&#x178;" 
d="M210 0l45 267l-167 431h101l67 -179l54 -157h4l108 157l125 179h111l-307 -425l-46 -273h-95zM287 784q-32 0 -44 11.5t-12 27.5q0 5 1 12.5t3 14.5q5 21 18.5 33.5t45.5 12.5t44 -11.5t12 -27.5q0 -5 -1 -12t-3 -15q-5 -21 -18 -33.5t-46 -12.5zM479 784q-32 0 -44 11.5
t-12 27.5q0 5 1 12.5t3 14.5q5 21 18.5 33.5t45.5 12.5t44 -11.5t12 -27.5q0 -5 -1 -12t-3 -15q-5 -21 -18 -33.5t-46 -12.5z" />
    <glyph glyph-name="Ygrave" unicode="&#x1ef2;" 
d="M210 0l45 267l-167 431h101l67 -179l54 -157h4l108 157l125 179h111l-307 -425l-46 -273h-95zM285 918l83 36l56 -178l-57 -24z" />
    <glyph glyph-name="uni1EF6" unicode="&#x1ef6;" 
d="M210 0l45 267l-167 431h101l67 -179l54 -157h4l108 157l125 179h111l-307 -425l-46 -273h-95zM317 940h110q37 0 53.5 -15t16.5 -38q0 -24 -13.5 -47t-37.5 -49l-43 -47l-48 28l66 99h-116z" />
    <glyph glyph-name="uni1EF8" unicode="&#x1ef8;" 
d="M210 0l45 267l-167 431h101l67 -179l54 -157h4l108 157l125 179h111l-307 -425l-46 -273h-95zM455 778q-24 0 -41 9.5t-34 17.5q-19 10 -35 16.5t-31 6.5q-16 0 -31 -7.5t-32 -21.5l-30 46q17 21 43.5 38t60.5 17q24 0 41 -9.5t34 -17.5q20 -10 35.5 -16.5t30.5 -6.5
q16 0 31 7.5t32 21.5l30 -46q-17 -21 -43.5 -38t-60.5 -17z" />
    <glyph glyph-name="Zacute" unicode="&#x179;" 
d="M509 0h-503l13 85l468 531h-361l14 82h470l-14 -85l-467 -531h394zM384 752l-54 32l109 170l77 -43z" />
    <glyph glyph-name="Zcaron" unicode="&#x17d;" 
d="M509 0h-503l13 85l468 531h-361l14 82h470l-14 -85l-467 -531h394zM326 765l-92 149l52 33l98 -117l137 117l45 -38l-138 -144h-102z" />
    <glyph glyph-name="Zdotaccent" unicode="&#x17b;" 
d="M509 0h-503l13 85l468 531h-361l14 82h470l-14 -85l-467 -531h394zM381 776q-35 0 -49 13t-14 31q0 13 4 32q5 25 21.5 38t49.5 13q35 0 49 -13t14 -31q0 -13 -4 -32q-5 -25 -21.5 -38t-49.5 -13z" />
    <glyph glyph-name="mu" unicode="&#xb5;" 
d="M17 -200l118 716h91l-51 -307q-2 -16 -3 -28.5t-1 -20.5q0 -45 20 -70t62 -25q32 0 57 14.5t47 39.5q11 12 29 41t25 70l48 286h91l-85 -516h-92l20 121h-4q-11 -25 -25.5 -49t-34 -42.5t-44.5 -30t-56 -11.5q-33 0 -56 15t-31 47h-4l-7 -105l-24 -145h-90z" />
    <glyph glyph-name="Delta" unicode="&#x2206;" 
d="M17 85l292 613h129l87 -613l-14 -85h-508zM362 601h-9l-237 -520h311z" />
    <glyph glyph-name="product" unicode="&#x220f;" 
d="M148 698h447l-115 -698h-94l102 616h-259l-102 -616h-94z" />
    <glyph glyph-name="summation" unicode="&#x2211;" 
d="M453 -200h-466l14 85l320 372v6l-198 350l14 85h466l-14 -82h-369l191 -337l-10 -60l-294 -337h359z" />
    <glyph glyph-name="Omega" unicode="&#x2126;" 
d="M22 75h146l2 10q-19 12 -36 30t-29.5 45t-20 64t-7.5 87q0 76 16 148t50.5 128t88.5 89.5t129 33.5q101 0 152 -66t51 -191q0 -61 -11.5 -118t-35 -105.5t-59 -86t-84.5 -58.5l-2 -10h148l-13 -75h-215l19 117q46 11 82.5 57t49.5 122l18 108q5 25 6.5 44.5t1.5 36.5
q0 66 -28.5 105t-89.5 39q-128 0 -156 -169l-18 -108q-4 -23 -5.5 -41t-1.5 -34q0 -27 2.5 -52t10 -45.5t21 -36.5t35.5 -26l-19 -117h-211z" />
    <glyph glyph-name="pi" unicode="&#x3c0;" 
d="M135 440h-90l13 76h546l-13 -76h-102l-62 -369l23 -8l83 62l43 -45l-16 -15q-25 -23 -44 -37.5t-35.5 -23.5t-31 -12.5t-29.5 -3.5q-42 0 -61 22t-19 54q0 14 2.5 32.5t7.5 50.5l49 293h-174l-74 -440h-90z" />
    <glyph glyph-name="uni0430" unicode="&#x430;" 
d="M376 0l20 122h-3q-30 -60 -72 -97t-109 -37q-79 0 -119 51t-40 149q0 57 13.5 117t42.5 109.5t75 81.5t111 32q116 0 148 -103h4l15 91h91l-86 -516h-91zM246 65q63 0 114 56q19 20 34 49.5t21 64.5l18 108q8 51 -23 79.5t-87 28.5q-71 0 -111 -42.5t-52 -112.5l-11 -69
q-4 -23 -4 -45q0 -54 25 -85.5t76 -31.5z" />
    <glyph glyph-name="uni0430.alt01" 
d="M215 -12q-74 0 -116.5 35t-42.5 96q0 83 60 130t189 47h111l6 33q3 16 3 32q0 92 -107 92q-51 0 -84.5 -19.5t-60.5 -54.5l-54 50q13 19 33 36.5t46 31.5t58 22.5t70 8.5q88 0 138.5 -42.5t50.5 -110.5q0 -14 -1.5 -28.5t-3.5 -29.5l-53 -317h-88l15 91h-4
q-23 -45 -64 -74t-101 -29zM241 61q30 0 56 7.5t46 21t33.5 31t16.5 37.5l13 74h-111q-135 0 -144 -78q-2 -13 -2 -19v-14q0 -29 24.5 -44.5t67.5 -15.5z" />
    <glyph glyph-name="uni0431" unicode="&#x431;" 
d="M271 -12q-48 0 -85.5 16t-62.5 44.5t-38 67.5t-13 84q0 64 12 133.5t32 133t47 115.5t57 82q37 37 87 57t122 22l149 6l-16 -87l-147 -5q-45 -2 -77.5 -14t-57.5 -41t-46.5 -75t-41.5 -118h6q33 53 72 78.5t96 25.5q77 0 125 -51.5t48 -152.5q0 -74 -20.5 -133.5
t-56.5 -101t-85 -64t-106 -22.5zM277 64q64 0 104.5 41.5t53.5 114.5l10 58q2 11 2.5 22.5t0.5 21.5q0 58 -31.5 86.5t-82.5 28.5q-72 0 -109 -35.5t-48 -102.5l-7 -44q-3 -17 -5 -37.5t-2 -33.5q0 -62 31 -91t83 -29z" />
    <glyph glyph-name="uni0432" unicode="&#x432;" 
d="M284 -12q-100 0 -155 54t-55 157q0 17 1.5 37.5t7.5 52.5q10 52 32.5 96t57 75.5t80 49.5t101.5 18q78 0 123 -34.5t45 -90.5q0 -48 -32 -79t-86 -44v-4q49 -8 74.5 -36t25.5 -73q0 -38 -16.5 -70.5t-45.5 -56.5t-69.5 -38t-88.5 -14zM288 61q48 0 81 22.5t39 62.5
q1 5 1.5 10.5t0.5 11.5q0 69 -86 69q-20 0 -45.5 -2.5t-70.5 -9.5l-40 -6q-1 -5 -1.5 -12t-0.5 -15q0 -64 31 -97.5t91 -33.5zM240 292q51 6 85.5 14t56 18.5t32 23.5t13.5 29q1 5 1.5 9.5t0.5 8.5q0 26 -21.5 43t-63.5 17q-71 0 -113 -44t-53 -114l-2 -13z" />
    <glyph glyph-name="uni0433" unicode="&#x433;" 
d="M251 -12q-95 0 -140.5 35t-45.5 100q0 64 44.5 110t145.5 60l64 9q66 9 92.5 32t26.5 55t-24 48.5t-75 16.5q-50 0 -87.5 -16t-69.5 -45l-50 54q47 41 98.5 61t118.5 20q90 0 135 -34.5t45 -97.5t-46 -107t-144 -58l-64 -9q-62 -9 -90.5 -31.5t-28.5 -59.5
q0 -32 24 -50.5t81 -18.5q60 0 105 21t83 59l49 -54q-50 -49 -108.5 -74.5t-138.5 -25.5z" />
    </font>
</defs>
</svg>
