<?xml version="1.0" standalone="no"?>
<!DOCTYPE svg PUBLIC "-//W3C//DTD SVG 1.1//EN" "http://www.w3.org/Graphics/SVG/1.1/DTD/svg11.dtd" >
<svg xmlns="http://www.w3.org/2000/svg" xmlns:xlink="http://www.w3.org/1999/xlink" version="1.1">
<metadata>
Created by FontForge 20170812 at Fri Dec 22 17:13:06 2017
 By ,,,
Copyright 2017 IBM Corp. All rights reserved.
</metadata>
<defs>
<font id="IBMPlexMono-Bold" horiz-adv-x="600" >
  <font-face 
    font-family="IBM Plex Mono"
    font-weight="700"
    font-stretch="normal"
    units-per-em="1000"
    panose-1="2 11 8 9 5 2 3 0 2 3"
    ascent="780"
    descent="-220"
    x-height="516"
    cap-height="698"
    bbox="-307 -269 637 1150"
    underline-thickness="100"
    underline-position="-150"
    unicode-range="U+000D-FB02"
  />
<missing-glyph 
d="M32 0v780h536v-780h-536zM132 100h336v580h-336v-580z" />
    <glyph glyph-name=".notdef" 
d="M32 0v780h536v-780h-536zM132 100h336v580h-336v-580z" />
    <glyph glyph-name=".null" horiz-adv-x="0" 
 />
    <glyph glyph-name=".null" horiz-adv-x="0" 
 />
    <glyph glyph-name="uni000D" unicode="&#xd;" 
 />
    <glyph glyph-name="space" unicode=" " 
 />
    <glyph glyph-name="a" unicode="a" 
d="M487 0q-46 0 -74 23.5t-33 67.5h-5q-14 -51 -55.5 -77t-101.5 -26q-75 0 -120.5 40.5t-45.5 113.5q0 81 59 120t173 39h83v26q0 46 -21.5 69.5t-72.5 23.5q-47 0 -76 -18t-50 -47l-81 72q26 44 81.5 72.5t142.5 28.5q106 0 165.5 -48.5t59.5 -146.5v-226h57v-107h-85z
M274 85q39 0 66 19t27 55v62h-79q-91 0 -91 -61v-20q0 -27 21 -41t56 -14z" />
    <glyph glyph-name="a.alt01" 
d="M393 94h-7q-20 -47 -55.5 -76.5t-97.5 -29.5q-43 0 -78.5 16t-61 49t-40 84t-14.5 121t14.5 121t40 84t61 49t78.5 16q31 0 55 -8t42.5 -22t32 -33.5t23.5 -42.5h7v94h148v-516h-148v94zM297 103q39 0 67.5 19t28.5 60v152q0 41 -28.5 60t-67.5 19q-50 0 -77 -30.5
t-27 -84.5v-80q0 -54 27 -84.5t77 -30.5z" />
    <glyph glyph-name="b" unicode="b" 
d="M59 740h148v-318h7q19 46 55 76t98 30q43 0 78.5 -16t61 -49t40 -84t14.5 -121t-14.5 -121t-40 -84t-61 -49t-78.5 -16q-62 0 -98 29.5t-55 76.5h-7v-94h-148v740zM303 103q50 0 77 30.5t27 84.5v80q0 54 -27 84.5t-77 30.5q-39 0 -67.5 -19t-28.5 -60v-152
q0 -41 28.5 -60t67.5 -19z" />
    <glyph glyph-name="c" unicode="c" 
d="M321 -12q-61 0 -109.5 18.5t-82 53.5t-51.5 85t-18 113t18 113t51.5 85t82 53.5t108.5 18.5q85 0 136.5 -34.5t78.5 -91.5l-114 -62q-14 30 -36.5 50t-64.5 20q-51 0 -78.5 -29.5t-27.5 -80.5v-84q0 -51 27.5 -80.5t80.5 -29.5q43 0 67.5 20t41.5 52l112 -64
q-28 -57 -81.5 -91.5t-140.5 -34.5z" />
    <glyph glyph-name="d" unicode="d" 
d="M393 94h-7q-20 -47 -55.5 -76.5t-97.5 -29.5q-43 0 -78.5 16t-61 49t-40 84t-14.5 121t14.5 121t40 84t61 49t78.5 16q31 0 55 -8t42.5 -22t32 -33.5t23.5 -42.5h7v318h148v-740h-148v94zM297 103q39 0 67.5 19t28.5 60v152q0 41 -28.5 60t-67.5 19q-50 0 -77 -30.5
t-27 -84.5v-80q0 -54 27 -84.5t77 -30.5z" />
    <glyph glyph-name="e" unicode="e" 
d="M314 -12q-130 0 -197 72t-67 196q0 63 17.5 113.5t50 86t79 54t104.5 18.5t104 -18.5t78 -52.5t49.5 -82.5t17.5 -108.5v-44h-353v-9q0 -50 31 -80.5t91 -30.5q46 0 79 17.5t57 46.5l80 -87q-30 -37 -84 -64t-137 -27zM302 422q-48 0 -76.5 -29.5t-28.5 -79.5v-8h208v8
q0 51 -27.5 80t-75.5 29z" />
    <glyph glyph-name="f" unicode="f" 
d="M71 115h152v286h-162v115h162v75q0 66 38.5 107.5t119.5 41.5h175v-115h-185v-109h185v-115h-185v-286h162v-115h-462v115z" />
    <glyph glyph-name="g" unicode="g" 
d="M583 -52q0 -82 -69 -121t-217 -39q-74 0 -122 8.5t-76.5 24.5t-40 38t-11.5 48q0 44 26 66.5t73 34.5v6q-33 10 -52.5 28.5t-19.5 52.5q0 38 25.5 56t67.5 28v6q-46 22 -71.5 62t-25.5 97q0 45 16 79.5t45.5 57.5t70.5 35t92 12q49 0 91 -11v28q0 30 21 50t58 20h91v-108
h-124v-9q42 -22 65.5 -60.5t23.5 -93.5q0 -45 -16 -79t-46 -57.5t-71.5 -35.5t-92.5 -12q-23 0 -44 2.5t-40 7.5q-11 -6 -18.5 -15t-7.5 -23q0 -12 6 -19t16.5 -10.5t24.5 -4.5t29 -1h118q55 0 94 -11t64 -31t36 -47t11 -60zM443 -63q0 20 -16 31.5t-61 11.5h-177
q-20 -17 -20 -42q0 -24 20.5 -39.5t69.5 -15.5h87q51 0 74 14t23 40zM294 254q45 0 65.5 22t20.5 56v24q0 34 -20.5 56t-65.5 22q-44 0 -64 -22t-20 -56v-24q0 -34 20 -56t64 -22z" />
    <glyph glyph-name="g.alt01" 
d="M541 31q0 -115 -65 -179t-196 -64q-78 0 -128.5 21.5t-81.5 53.5l79 94q51 -53 127 -53q60 0 88.5 30t28.5 84v103h-7q-20 -47 -55.5 -77t-97.5 -30q-43 0 -78.5 16t-61 48t-40 80t-14.5 113t14.5 113t40 80t61 48t78.5 16q31 0 55 -8t42.5 -22t32 -33.5t23.5 -42.5h7v94
h148v-485zM297 129q39 0 67.5 19t28.5 60v126q0 41 -28.5 60t-67.5 19q-50 0 -77 -30.5t-27 -84.5v-53q0 -54 27 -85t77 -31z" />
    <glyph glyph-name="g.alt02" 
d="M297 -212q-74 0 -122 8.5t-76.5 24.5t-40 38t-11.5 48q0 44 26 66.5t73 34.5v6q-33 10 -52.5 28.5t-19.5 52.5q0 38 25.5 56t67.5 28v6q-46 23 -71.5 63t-25.5 97q0 90 61.5 136.5t164.5 46.5q50 0 91 -12h194v-98h-83q12 -16 17 -34.5t5 -41.5q0 -44 -16 -77.5t-46 -57
t-71.5 -35.5t-92.5 -12q-23 0 -44 2.5t-40 7.5q-11 -6 -18.5 -15t-7.5 -23q0 -12 6 -19t16.5 -10.5t24.5 -4.5t29 -1h118q55 0 94 -11t64 -31t36 -47t11 -60q0 -82 -69 -121t-217 -39zM294 254q45 0 65.5 22t20.5 56v24q0 34 -20.5 56t-65.5 22q-44 0 -64 -22t-20 -56v-24
q0 -34 20 -56t64 -22zM443 -63q0 20 -16 31.5t-61 11.5h-177q-20 -17 -20 -42q0 -24 20.5 -39.5t69.5 -15.5h87q51 0 74 14t23 40z" />
    <glyph glyph-name="h" unicode="h" 
d="M65 740h148v-318h6q9 22 22 41t31.5 33.5t43 23t55.5 8.5q37 0 68 -12.5t53 -37.5t34.5 -61t12.5 -83v-334h-148v314q0 100 -87 100q-17 0 -33.5 -4.5t-29.5 -14t-20.5 -23.5t-7.5 -33v-339h-148v740z" />
    <glyph glyph-name="i" unicode="i" 
d="M332 582q-50 0 -69.5 20.5t-19.5 49.5v29q0 30 19.5 50t69.5 20t69.5 -20t19.5 -50v-29q0 -29 -19.5 -49.5t-69.5 -20.5zM94 115h164v286h-164v115h312v-401h152v-115h-464v115z" />
    <glyph glyph-name="j" unicode="j" 
d="M92 -85h198v486h-200v115h348v-567q0 -65 -39 -107t-118 -42h-189v115zM364 582q-50 0 -69.5 20.5t-19.5 49.5v29q0 30 19.5 50t69.5 20q49 0 69 -20t20 -50v-29q0 -29 -20 -49.5t-69 -20.5z" />
    <glyph glyph-name="k" unicode="k" 
d="M65 740h148v-420h7l69 81l108 115h170l-200 -204l221 -312h-176l-150 228l-49 -49v-179h-148v740z" />
    <glyph glyph-name="l" unicode="l" 
d="M68 115h158v510h-158v115h306v-625h158v-115h-464v115z" />
    <glyph glyph-name="m" unicode="m" 
d="M30 0v516h119v-76h7q12 36 34.5 62t63.5 26q75 0 92 -88h6q6 18 15 34t22 28t31 19t42 7q108 0 108 -159v-369h-119v354q0 36 -12.5 50.5t-32.5 14.5q-19 0 -32.5 -12.5t-13.5 -38.5v-368h-120v354q0 36 -11.5 50.5t-31.5 14.5t-34 -12.5t-14 -38.5v-368h-119z" />
    <glyph glyph-name="n" unicode="n" 
d="M65 0v516h148v-94h6q9 22 22 41t31.5 33.5t43 23t55.5 8.5q37 0 68 -12.5t53 -37.5t34.5 -61t12.5 -83v-334h-148v314q0 100 -87 100q-17 0 -33.5 -4.5t-29.5 -14t-20.5 -23.5t-7.5 -33v-339h-148z" />
    <glyph glyph-name="o" unicode="o" 
d="M300 -12q-60 0 -108 18.5t-81.5 53.5t-51.5 85t-18 113t18 113t51.5 85t81.5 53.5t108 18.5t108 -18.5t81.5 -53.5t51.5 -85t18 -113t-18 -113t-51.5 -85t-81.5 -53.5t-108 -18.5zM300 98q50 0 78 31t28 88v82q0 57 -28 88t-78 31t-78 -31t-28 -88v-82q0 -57 28 -88
t78 -31z" />
    <glyph glyph-name="p" unicode="p" 
d="M59 516h148v-94h7q19 46 55 76t98 30q43 0 78.5 -16t61 -49t40 -84t14.5 -121t-14.5 -121t-40 -84t-61 -49t-78.5 -16q-62 0 -98 29.5t-55 76.5h-7v-294h-148v716zM303 103q50 0 77 30.5t27 84.5v80q0 54 -27 84.5t-77 30.5q-39 0 -67.5 -19t-28.5 -60v-152
q0 -41 28.5 -60t67.5 -19z" />
    <glyph glyph-name="q" unicode="q" 
d="M393 94h-7q-20 -47 -55.5 -76.5t-97.5 -29.5q-43 0 -78.5 16t-61 49t-40 84t-14.5 121t14.5 121t40 84t61 49t78.5 16q31 0 55 -8t42.5 -22t32 -33.5t23.5 -42.5h7v94h148v-716h-148v294zM297 103q39 0 67.5 19t28.5 60v152q0 41 -28.5 60t-67.5 19q-50 0 -77 -30.5
t-27 -84.5v-80q0 -54 27 -84.5t77 -30.5z" />
    <glyph glyph-name="r" unicode="r" 
d="M74 115h119v286h-119v115h267v-146h7q7 28 19.5 54.5t32 47t47.5 32.5t66 12h49v-136h-110q-55 0 -83 -32.5t-28 -79.5v-153h170v-115h-437v115z" />
    <glyph glyph-name="s" unicode="s" 
d="M294 -12q-86 0 -149.5 26t-95.5 71l83 77q30 -33 70.5 -51.5t92.5 -18.5q44 0 69 13.5t25 41.5q0 22 -17 30.5t-47 13.5l-83 13q-35 5 -65 15.5t-52 28.5t-35 44t-13 63q0 81 62 127t174 46q76 0 129.5 -20.5t85.5 -58.5l-74 -84q-23 25 -59 42t-87 17q-86 0 -86 -52
q0 -23 17 -31.5t47 -13.5l82 -13q35 -5 65 -15.5t52.5 -28.5t35.5 -44t13 -63q0 -81 -62.5 -128t-177.5 -47z" />
    <glyph glyph-name="t" unicode="t" 
d="M340 0q-80 0 -119 42t-39 107v252h-140v115h91q33 0 47 13t14 48v121h136v-182h201v-115h-201v-286h201v-115h-191z" />
    <glyph glyph-name="u" unicode="u" 
d="M387 94h-6q-17 -44 -53.5 -75t-98.5 -31q-37 0 -68 12.5t-53 37.5t-34.5 61t-12.5 83v334h148v-314q0 -100 87 -100q17 0 33.5 4.5t29 14t20.5 23.5t8 33v339h148v-516h-148v94z" />
    <glyph glyph-name="v" unicode="v" 
d="M212 0l-185 516h156l67 -221l49 -172h8l49 172l67 221h150l-185 -516h-176z" />
    <glyph glyph-name="w" unicode="w" 
d="M7 516h123l37 -418h10l61 418h130l60 -418h10l38 418h117l-61 -516h-176l-51 356h-10l-51 -356h-176z" />
    <glyph glyph-name="x" unicode="x" 
d="M23 0l193 262l-180 254h169l55 -83l42 -67h8l43 67l56 83h155l-180 -246l193 -270h-170l-65 97l-45 69h-8l-44 -69l-66 -97h-156z" />
    <glyph glyph-name="y" unicode="y" 
d="M430 516h151l-243 -599q-23 -57 -61 -87t-104 -30h-102v115h124l32 88l-208 513h159l75 -217l47 -150h8l45 150z" />
    <glyph glyph-name="z" unicode="z" 
d="M66 0v123l287 278h-277v115h448v-123l-287 -278h297v-115h-468z" />
    <glyph glyph-name="A" unicode="A" 
d="M435 0l-44 168h-191l-43 -168h-152l189 698h212l189 -698h-160zM300 553h-8l-68 -264h144z" />
    <glyph glyph-name="B" unicode="B" 
d="M77 698h245q103 0 157.5 -50t54.5 -136q0 -60 -29.5 -95.5t-84.5 -51.5v-6q65 -16 100.5 -56t35.5 -111q0 -88 -55.5 -140t-155.5 -52h-268v698zM299 105q54 0 79 18t25 66v29q0 48 -25 66t-79 18h-76v-197h76zM280 402q53 0 77 17.5t24 63.5v30q0 46 -24 63t-77 17h-57
v-191h57z" />
    <glyph glyph-name="C" unicode="C" 
d="M316 -12q-140 0 -207.5 94.5t-67.5 266.5t67.5 266.5t207.5 94.5q54 0 95.5 -14.5t71.5 -40.5t49.5 -63t30.5 -83l-140 -34q-6 25 -14 46t-20.5 36t-31 23.5t-44.5 8.5q-61 0 -86.5 -47.5t-25.5 -131.5v-122q0 -84 25.5 -131.5t86.5 -47.5q52 0 75.5 32t34.5 82l140 -34
q-11 -46 -30.5 -83t-49.5 -63.5t-71.5 -40.5t-95.5 -14z" />
    <glyph glyph-name="D" unicode="D" 
d="M64 698h225q141 0 209 -90t68 -259t-68 -259t-209 -90h-225v698zM279 118q67 0 98 43t31 125v127q0 81 -31 124t-98 43h-67v-462h67z" />
    <glyph glyph-name="E" unicode="E" 
d="M80 0v698h446v-123h-296v-160h286v-123h-286v-169h296v-123h-446z" />
    <glyph glyph-name="F" unicode="F" 
d="M80 0v698h463v-123h-313v-160h280v-123h-280v-292h-150z" />
    <glyph glyph-name="G" unicode="G" 
d="M411 99h-9q-9 -22 -22 -42t-32 -35.5t-44.5 -24.5t-57.5 -9q-51 0 -90.5 24t-66.5 70t-40.5 112t-13.5 149q0 178 65 272.5t201 94.5q54 0 95 -14.5t70.5 -41t48.5 -63.5t30 -82l-140 -34q-6 22 -13.5 42.5t-19.5 36.5t-30 25.5t-44 9.5q-57 0 -80.5 -47t-23.5 -132v-114
q0 -85 25.5 -136t90.5 -51q51 0 76 30t25 77v51h-119v106h253v-373h-134v99z" />
    <glyph glyph-name="H" unicode="H" 
d="M388 292h-176v-292h-151v698h151v-283h176v283h151v-698h-151v292z" />
    <glyph glyph-name="I" unicode="I" 
d="M75 0v111h150v476h-150v111h450v-111h-150v-476h150v-111h-450z" />
    <glyph glyph-name="J" unicode="J" 
d="M511 698v-503q0 -47 -16.5 -85.5t-47 -65.5t-73.5 -41.5t-96 -14.5q-107 0 -165.5 53.5t-74.5 140.5l142 29q8 -45 30.5 -73t67.5 -28q38 0 59.5 24.5t21.5 75.5v365h-230v123h382z" />
    <glyph glyph-name="K" unicode="K" 
d="M280 291l-62 -87v-204h-150v698h150v-292h8l76 116l123 176h168l-209 -295l219 -403h-169z" />
    <glyph glyph-name="L" unicode="L" 
d="M92 0v698h151v-575h300v-123h-451z" />
    <glyph glyph-name="M" unicode="M" 
d="M431 311l8 195h-9l-130 -359l-130 359h-9l8 -195v-311h-130v698h177l86 -235h8l86 235h165v-698h-130v311z" />
    <glyph glyph-name="N" unicode="N" 
d="M200 464h-11v-464h-128v698h180l159 -464h11v464h128v-698h-180z" />
    <glyph glyph-name="O" unicode="O" 
d="M300 -12q-140 0 -206.5 95t-66.5 266t66.5 266t206.5 95t206.5 -95t66.5 -266t-66.5 -266t-206.5 -95zM300 109q64 0 88.5 47.5t24.5 132.5v121q0 84 -24.5 131.5t-88.5 47.5t-88.5 -47.5t-24.5 -131.5v-122q0 -84 24.5 -131.5t88.5 -47.5z" />
    <glyph glyph-name="P" unicode="P" 
d="M76 0v698h270q51 0 91 -15.5t67.5 -44.5t41.5 -70t14 -92t-14 -92t-41.5 -70t-67.5 -44.5t-91 -15.5h-119v-254h-151zM227 375h81q53 0 73.5 20t20.5 66v30q0 46 -20.5 66t-73.5 20h-81v-202z" />
    <glyph glyph-name="Q" unicode="Q" 
d="M526 -191h-142q-81 0 -115 39t-34 105v41q-107 21 -157.5 112.5t-50.5 242.5q0 171 66.5 266t206.5 95t206.5 -95t66.5 -266q0 -151 -50.5 -242.5t-157.5 -112.5v-78h161v-107zM300 109q64 0 88.5 47.5t24.5 132.5v121q0 84 -24.5 131.5t-88.5 47.5t-88.5 -47.5
t-24.5 -131.5v-122q0 -84 24.5 -131.5t88.5 -47.5z" />
    <glyph glyph-name="R" unicode="R" 
d="M224 0h-148v698h270q51 0 91 -15.5t67.5 -44.5t41.5 -70t14 -92q0 -74 -32 -127t-91 -70l137 -279h-164l-117 259h-69v-259zM310 375q53 0 73.5 20t20.5 66v30q0 46 -20.5 66t-73.5 20h-86v-202h86z" />
    <glyph glyph-name="S" unicode="S" 
d="M289 -12q-88 0 -153 29t-105 79l87 96q38 -42 83.5 -62t92.5 -20q54 0 82 24t28 69q0 37 -21.5 56t-72.5 27l-73 12q-94 16 -136 69.5t-42 130.5q0 101 66 156.5t185 55.5q81 0 141 -25t97 -68l-85 -95q-28 31 -66 48.5t-86 17.5q-101 0 -101 -83q0 -36 22.5 -54
t73.5 -27l73 -13q85 -15 131 -64t46 -132q0 -49 -17 -90.5t-51 -72t-83.5 -47.5t-115.5 -17z" />
    <glyph glyph-name="T" unicode="T" 
d="M375 575v-575h-150v575h-201v123h552v-123h-201z" />
    <glyph glyph-name="U" unicode="U" 
d="M205 698v-442q0 -33 2.5 -60.5t12 -46.5t28.5 -29.5t52 -10.5t52 10.5t28.5 29.5t12 46.5t2.5 60.5v442h150v-422q0 -72 -9.5 -126t-36.5 -90t-75 -54t-124 -18t-124 18t-75 54t-36.5 90t-9.5 126v422h150z" />
    <glyph glyph-name="V" unicode="V" 
d="M194 0l-185 698h167l82 -355l41 -201h8l42 201l83 355h159l-185 -698h-212z" />
    <glyph glyph-name="W" unicode="W" 
d="M54 0l-43 698h129l20 -418l6 -132h9l60 398h135l60 -398h9l6 128l20 422h124l-43 -698h-190l-51 385h-10l-51 -385h-190z" />
    <glyph glyph-name="X" unicode="X" 
d="M591 0h-171l-72 139l-49 110h-9l-50 -110l-74 -139h-157l196 361l-183 337h171l57 -111l51 -112h8l52 112l60 111h157l-183 -339z" />
    <glyph glyph-name="Y" unicode="Y" 
d="M225 0v247l-221 451h167l74 -162l54 -137h8l54 137l74 162h161l-221 -451v-247h-150z" />
    <glyph glyph-name="Z" unicode="Z" 
d="M551 0h-503v131l325 444h-315v123h483v-131l-325 -444h335v-123z" />
    <glyph glyph-name="zero" unicode="0" 
d="M300 -12q-140 0 -206.5 95t-66.5 266t66.5 266t206.5 95t206.5 -95t66.5 -266t-66.5 -266t-206.5 -95zM300 106q67 0 93.5 47t26.5 131v130q0 84 -26.5 131t-93.5 47t-93.5 -47t-26.5 -131v-130q0 -84 26.5 -131t93.5 -47zM300 290q-35 0 -48.5 14t-13.5 34v22
q0 20 13.5 34t48.5 14t48.5 -14t13.5 -34v-22q0 -20 -13.5 -34t-48.5 -14z" />
    <glyph glyph-name="zero.alt01" 
d="M300 -12q-140 0 -206.5 95t-66.5 266t66.5 266t206.5 95t206.5 -95t66.5 -266t-66.5 -266t-206.5 -95zM300 597q-70 0 -98 -48t-28 -135v-122q0 -6 1 -10l230 251q-28 64 -105 64zM300 101q70 0 98 48t28 135v122q0 6 -1 10l-230 -251q28 -64 105 -64z" />
    <glyph glyph-name="zero.alt02" 
d="M300 -12q-140 0 -206.5 95t-66.5 266t66.5 266t206.5 95t206.5 -95t66.5 -266t-66.5 -266t-206.5 -95zM300 109q64 0 88.5 47.5t24.5 132.5v121q0 84 -24.5 131.5t-88.5 47.5t-88.5 -47.5t-24.5 -131.5v-122q0 -84 24.5 -131.5t88.5 -47.5z" />
    <glyph glyph-name="one" unicode="1" 
d="M94 0v121h188v468h-9l-142 -186l-96 75l167 220h230v-577h148v-121h-486z" />
    <glyph glyph-name="two" unicode="2" 
d="M555 0h-502v137l220 183q57 49 82 85t25 76v10q0 44 -26 66.5t-70 22.5q-50 0 -77 -29t-38 -69l-131 50q12 36 33 68.5t53.5 56.5t75.5 38.5t99 14.5q57 0 102 -16t76 -44t47 -66.5t16 -83.5q0 -44 -14.5 -80.5t-40 -68.5t-60 -62t-73.5 -60l-133 -103h336v-126z" />
    <glyph glyph-name="three" unicode="3" 
d="M273 422q58 0 84.5 22t26.5 54v7q0 38 -25.5 60.5t-72.5 22.5q-43 0 -80.5 -21.5t-63.5 -61.5l-95 88q20 26 44 47.5t53 37t65.5 24t82.5 8.5q57 0 103 -13t78.5 -37.5t50.5 -58.5t18 -76q0 -33 -11 -60t-29.5 -47t-43 -32.5t-52.5 -17.5v-6q64 -11 106.5 -53.5
t42.5 -114.5q0 -47 -19.5 -85t-55 -65t-86 -41.5t-112.5 -14.5q-53 0 -93.5 11t-71.5 29.5t-53.5 43t-39.5 50.5l111 86q23 -43 57.5 -70.5t92.5 -27.5q54 0 83 25t29 69v7q0 43 -33 64.5t-92 21.5h-65v125h66z" />
    <glyph glyph-name="four" unicode="4" 
d="M339 0v134h-314v128l278 436h180v-448h90v-116h-90v-134h-144zM146 250h193v293h-9z" />
    <glyph glyph-name="five" unicode="5" 
d="M525 567h-323l-16 -221h9q11 24 25 44.5t33 35t44 22.5t57 8q43 0 81.5 -15t68 -43.5t46.5 -70t17 -93.5q0 -53 -18 -98t-52.5 -78t-85.5 -51.5t-116 -18.5q-51 0 -91 11t-70.5 29.5t-53 43t-38.5 50.5l109 86q12 -20 25.5 -38t31 -31.5t39 -21t49.5 -7.5q56 0 84.5 30.5
t28.5 81.5v8q0 49 -29 77t-80 28q-42 0 -69.5 -16.5t-41.5 -32.5l-123 17l26 395h433v-131z" />
    <glyph glyph-name="six" unicode="6" 
d="M304 -12q-63 0 -112.5 19.5t-83.5 56t-52 87.5t-18 114q0 73 23 138.5t59.5 121t82 99.5t90.5 74h207q-65 -45 -116.5 -86.5t-90 -83t-63 -85.5t-35.5 -95l9 -3q9 20 22 39t32 33.5t44.5 23.5t59.5 9q44 0 82 -15.5t65.5 -44t43.5 -68.5t16 -90q0 -53 -19 -98
t-53.5 -77.5t-83.5 -50.5t-109 -18zM303 105q54 0 82 28.5t28 80.5v14q0 52 -28.5 79.5t-81.5 27.5q-51 0 -80 -27.5t-29 -79.5v-14q0 -52 27.5 -80.5t81.5 -28.5z" />
    <glyph glyph-name="seven" unicode="7" 
d="M164 0l240 576h-226v-127h-127v249h502v-130l-231 -568h-158z" />
    <glyph glyph-name="eight" unicode="8" 
d="M300 -12q-63 0 -112 15.5t-83 42.5t-51.5 64.5t-17.5 81.5q0 68 39 109.5t100 58.5v8q-52 19 -85 58t-33 100q0 40 16 74t47 58.5t76 38t104 13.5q58 0 103.5 -13.5t76.5 -38t47 -58.5t16 -74q0 -61 -33 -100t-85 -58v-8q61 -17 100 -58.5t39 -109.5q0 -44 -17.5 -81.5
t-51.5 -64.5t-83 -42.5t-112 -15.5zM300 103q52 0 79.5 24t27.5 65v20q0 42 -27 65.5t-80 23.5t-80 -23.5t-27 -65.5v-20q0 -41 27.5 -65t79.5 -24zM300 411q50 0 76 23t26 62v15q0 39 -26.5 61.5t-75.5 22.5t-75.5 -22.5t-26.5 -61.5v-15q0 -39 26 -62t76 -23z" />
    <glyph glyph-name="nine" unicode="9" 
d="M562 433q0 -74 -23 -139t-59.5 -120.5t-82 -99.5t-90.5 -74h-207q65 45 116.5 86.5t90 83t63 85.5t35.5 95l-9 3q-9 -20 -22.5 -39t-32 -33.5t-44 -23.5t-59.5 -9q-44 0 -82 15.5t-65.5 44t-43.5 68.5t-16 90q0 53 19 98t53.5 77.5t83.5 50.5t109 18q63 0 112.5 -19.5
t83.5 -56t52 -87.5t18 -114zM297 363q51 0 80 27.5t29 79.5v14q0 52 -27.5 80.5t-81.5 28.5t-82 -28.5t-28 -80.5v-14q0 -52 28.5 -79.5t81.5 -27.5z" />
    <glyph glyph-name="ampersand" unicode="&#x26;" 
d="M207 -12q-47 0 -83 16.5t-60.5 44t-37 64t-12.5 77.5q0 63 30 110t88 81q-32 45 -48.5 80t-16.5 73q0 37 14.5 69.5t41 56t62 37t77.5 13.5q37 0 69 -10.5t56.5 -27.5t41 -39.5t24.5 -46.5l-102 -55q-11 32 -34 50.5t-53 18.5t-48.5 -18t-18.5 -47v-5q0 -14 4 -26.5
t14 -28t25.5 -36t39.5 -50.5l57 -72l48 -74h6q3 17 5 37.5t3.5 42t2 42t0.5 37.5h178v-110h-70q-5 -32 -15 -65.5t-26 -68.5l130 -158h-158l-80 97h-7q-7 -51 -46 -80t-101 -29zM244 101q23 0 43 8.5t34 31.5l-129 164q-26 -25 -34 -50.5t-8 -54.5v-2q0 -48 25.5 -72.5
t68.5 -24.5z" />
    <glyph glyph-name="at" unicode="@" 
d="M446 -113h-105q-83 0 -141 26t-94 78t-52 130.5t-16 183.5q0 114 17.5 191.5t51 125t82.5 68t112 20.5q65 0 112.5 -19t78.5 -52.5t46 -78.5t15 -97v-372h-107v61h-7q-11 -37 -35 -55t-59 -18q-59 0 -91.5 51.5t-32.5 163.5t32.5 163.5t91.5 51.5q35 0 59 -18t35 -55h7
v27q0 42 -10 71t-28.5 47t-44 26t-56.5 8q-37 0 -66 -12t-49.5 -41t-31 -79t-10.5 -125v-129q0 -58 10.5 -104t33.5 -77.5t59 -48t88 -16.5h105v-96zM389 165q28 0 42.5 16t14.5 43v140q0 27 -14.5 43t-42.5 16q-27 0 -41.5 -20t-14.5 -76v-66q0 -56 14.5 -76t41.5 -20z" />
    <glyph glyph-name="hyphen" unicode="-" 
d="M140 234v142h320v-142h-320z" />
    <glyph glyph-name="uni00AD" unicode="&#xad;" 
d="M140 234v142h320v-142h-320z" />
    <glyph glyph-name="endash" unicode="&#x2013;" 
d="M60 244v121h480v-121h-480z" />
    <glyph glyph-name="emdash" unicode="&#x2014;" 
d="M0 244v121h600v-121h-600z" />
    <glyph glyph-name="underscore" unicode="_" 
d="M60 -192v121h480v-121h-480z" />
    <glyph glyph-name="period" unicode="." 
d="M300 -12q-56 0 -80.5 24.5t-24.5 58.5v35q0 34 24.5 58.5t80.5 24.5t80.5 -24.5t24.5 -58.5v-35q0 -34 -24.5 -58.5t-80.5 -24.5z" />
    <glyph glyph-name="ellipsis" unicode="&#x2026;" 
d="M102 -7q-38 0 -55.5 16t-17.5 38v46q0 22 17.5 38t55.5 16q36 0 54 -16t18 -38v-46q0 -22 -18 -38t-54 -16zM300 -7q-37 0 -55 16t-18 38v46q0 22 18 38t55 16t55 -16t18 -38v-46q0 -22 -18 -38t-55 -16zM498 -7q-36 0 -54 16t-18 38v46q0 22 18 38t54 16q37 0 55 -16
t18 -38v-46q0 -22 -18 -38t-55 -16z" />
    <glyph glyph-name="colon" unicode=":" 
d="M300 -12q-56 0 -80.5 24.5t-24.5 58.5v35q0 34 24.5 58.5t80.5 24.5t80.5 -24.5t24.5 -58.5v-35q0 -34 -24.5 -58.5t-80.5 -24.5zM300 327q-56 0 -80.5 24.5t-24.5 58.5v35q0 34 24.5 58.5t80.5 24.5t80.5 -24.5t24.5 -58.5v-35q0 -34 -24.5 -58.5t-80.5 -24.5z" />
    <glyph glyph-name="comma" unicode="," 
d="M227 174h190l-137 -325h-110z" />
    <glyph glyph-name="semicolon" unicode=";" 
d="M227 174h190l-137 -325h-110zM300 327q-56 0 -80.5 24.5t-24.5 58.5v35q0 34 24.5 58.5t80.5 24.5t80.5 -24.5t24.5 -58.5v-35q0 -34 -24.5 -58.5t-80.5 -24.5z" />
    <glyph glyph-name="quotesingle" unicode="'" 
d="M234 414v326h132v-326h-132z" />
    <glyph glyph-name="quotedbl" unicode="&#x22;" 
d="M122 414v326h132v-326h-132zM347 414v326h132v-326h-132z" />
    <glyph glyph-name="quoteleft" unicode="&#x2018;" 
d="M300 740h109l-57 -326h-190z" />
    <glyph glyph-name="quoteright" unicode="&#x2019;" 
d="M248 740h190l-138 -326h-109z" />
    <glyph glyph-name="quotedblleft" unicode="&#x201c;" 
d="M172 740h109l-57 -326h-190zM430 740h109l-57 -326h-190z" />
    <glyph glyph-name="quotedblright" unicode="&#x201d;" 
d="M120 740h190l-138 -326h-109zM378 740h190l-138 -326h-109z" />
    <glyph glyph-name="quotesinglbase" unicode="&#x201a;" 
d="M227 174h190l-137 -325h-110z" />
    <glyph glyph-name="quotedblbase" unicode="&#x201e;" 
d="M102 174h190l-137 -325h-110zM360 174h190l-137 -325h-110z" />
    <glyph glyph-name="guilsinglleft" unicode="&#x2039;" 
d="M373 38l-200 168v132l200 168l45 -96l-130 -138l130 -139z" />
    <glyph glyph-name="guilsinglright" unicode="&#x203a;" 
d="M182 133l130 139l-130 138l45 96l200 -168v-132l-200 -168z" />
    <glyph glyph-name="guillemotleft" unicode="&#xab;" 
d="M260 38l-200 168v132l200 168l45 -96l-130 -138l130 -139zM506 38l-200 168v132l200 168l45 -96l-130 -138l130 -139z" />
    <glyph glyph-name="guillemotright" unicode="&#xbb;" 
d="M50 133l130 139l-130 138l45 96l200 -168v-132l-200 -168zM296 133l130 139l-130 138l45 96l200 -168v-132l-200 -168z" />
    <glyph glyph-name="exclamdown" unicode="&#xa1;" 
d="M219 -182v203l57 252h48l57 -252v-203h-162zM300 341q-53 0 -75.5 22.5t-22.5 54.5v32q0 32 22 55t76 23t76 -23t22 -55v-32q0 -32 -22.5 -54.5t-75.5 -22.5z" />
    <glyph glyph-name="exclam" unicode="!" 
d="M276 243l-57 252v203h162v-203l-57 -252h-48zM300 -12q-54 0 -76 23t-22 55v32q0 31 22.5 54t75.5 23t75.5 -23t22.5 -54v-32q0 -32 -22 -55t-76 -23z" />
    <glyph glyph-name="questiondown" unicode="&#xbf;" 
d="M309 -194q-53 0 -96.5 15t-74.5 42t-48 65t-17 83q0 42 14.5 76.5t39 60t57 41.5t68.5 22v72h140v-153q-75 -3 -119 -26t-44 -80v-14q0 -42 24.5 -60t60.5 -18q41 0 67 23.5t36 61.5l122 -51q-9 -30 -26.5 -59t-45.5 -51.5t-67 -36t-91 -13.5zM320 341q-53 0 -76 22.5
t-23 54.5v32q0 32 22.5 55t76.5 23q53 0 75.5 -23t22.5 -55v-32q0 -32 -22.5 -54.5t-75.5 -22.5z" />
    <glyph glyph-name="question" unicode="?" 
d="M208 233v153q75 3 119 26t44 80v14q0 42 -24.5 60t-60.5 18q-41 0 -67 -23.5t-36 -61.5l-122 51q9 30 26.5 58.5t45.5 51t67 36.5t91 14q53 0 96.5 -15t74.5 -42t48 -65t17 -83q0 -42 -14.5 -76.5t-39 -60t-57 -41.5t-68.5 -22v-72h-140zM280 -12q-53 0 -75.5 23
t-22.5 55v32q0 32 22.5 54.5t75.5 22.5t76 -23t23 -54v-32q0 -32 -22.5 -55t-76.5 -23z" />
    <glyph glyph-name="parenleft" unicode="(" 
d="M174 311q0 73 16.5 140.5t45 125.5t66.5 104.5t80 78.5h148q-47 -32 -89 -74.5t-73.5 -93.5t-50.5 -109t-19 -121v-102q0 -63 19 -121t50.5 -109t73.5 -93.5t89 -74.5h-148q-42 31 -80 78t-66.5 105t-45 125.5t-16.5 140.5z" />
    <glyph glyph-name="parenright" unicode=")" 
d="M426 311q0 -73 -16.5 -140.5t-45 -125.5t-66.5 -105t-80 -78h-148q46 32 88.5 74.5t74 93.5t50.5 109t19 121v102q0 63 -19 121t-50.5 109t-74 93.5t-88.5 74.5h148q42 -32 80 -78.5t66.5 -104.5t45 -125.5t16.5 -140.5z" />
    <glyph glyph-name="bracketleft" unicode="[" 
d="M183 -138v898h324v-99h-205v-700h205v-99h-324z" />
    <glyph glyph-name="bracketright" unicode="]" 
d="M417 760v-898h-324v99h205v700h-205v99h324z" />
    <glyph glyph-name="braceleft" unicode="{" 
d="M330 -138q-68 0 -97 30.5t-29 77.5v45q0 25 5.5 44t13.5 34t18 26.5t19 22.5q17 20 23.5 34.5t6.5 30.5q0 26 -27 40t-81 14h-90v100h90q54 0 81 14t27 40q0 16 -6.5 30.5t-23.5 34.5q-9 10 -19 22t-18 27t-13.5 34t-5.5 44v45q0 47 29 77.5t97 30.5h178v-99h-185v-48
q0 -38 12.5 -58t27.5 -40q17 -21 32 -45t15 -56q0 -42 -29 -67t-89 -32v-8q60 -7 89 -32t29 -67q0 -32 -15 -56t-32 -45q-15 -20 -27.5 -40t-12.5 -58v-48h185v-99h-178z" />
    <glyph glyph-name="braceright" unicode="}" 
d="M270 760q68 0 97 -30.5t29 -77.5v-45q0 -25 -5.5 -44t-13.5 -34t-18 -27t-19 -22q-17 -20 -23.5 -34.5t-6.5 -30.5q0 -26 27 -40t81 -14h90v-100h-90q-54 0 -81 -14t-27 -40q0 -16 6.5 -30.5t23.5 -34.5q9 -11 19 -22.5t18 -26.5t13.5 -34t5.5 -44v-45q0 -47 -29 -77.5
t-97 -30.5h-178v99h185v48q0 38 -12.5 58t-27.5 40q-17 21 -32 45t-15 56q0 42 29 67t89 32v8q-60 7 -89 32t-29 67q0 32 15 56t32 45q15 20 27.5 40t12.5 58v48h-185v99h178z" />
    <glyph glyph-name="slash" unicode="/" 
d="M73 -138l321 898h133l-321 -898h-133z" />
    <glyph glyph-name="backslash" unicode="\" 
d="M394 -138l-321 898h133l321 -898h-133z" />
    <glyph glyph-name="fraction" unicode="&#x2044;" 
d="M496 698h103l-173 -300h-103zM174 300h103l-173 -300h-103z" />
    <glyph glyph-name="percent" unicode="%" 
d="M165 338q-75 0 -116 49.5t-41 136.5t41 136.5t116 49.5t116 -49.5t41 -136.5t-41 -136.5t-116 -49.5zM165 425q29 0 40.5 21t11.5 56v44q0 35 -11.5 56t-40.5 21t-40.5 -21t-11.5 -56v-44q0 -35 11.5 -56t40.5 -21zM485 698h113l-151 -300h-113zM153 300h113l-151 -300
h-113zM436 -12q-75 0 -116 49.5t-41 136.5t41 136.5t116 49.5t116 -49.5t41 -136.5t-41 -136.5t-116 -49.5zM436 75q29 0 40.5 21t11.5 56v44q0 35 -11.5 56t-40.5 21t-40.5 -21t-11.5 -56v-44q0 -35 11.5 -56t40.5 -21z" />
    <glyph glyph-name="perthousand" unicode="&#x2030;" 
d="M148 400q-72 0 -110 42.5t-38 112.5q0 71 38 113t110 42t110 -42t38 -113q0 -70 -38 -112.5t-110 -42.5zM148 479q24 0 37 18t13 42v32q0 24 -13 42t-37 18t-37 -18t-13 -42v-32q0 -24 13 -42t37 -18zM59 343l462 142l20 -67l-462 -142zM252 -12q-69 0 -107.5 42.5
t-38.5 112.5q0 71 39 113t107 42q32 0 56.5 -12t40.5 -33h8q16 20 41 32.5t56 12.5q69 0 107.5 -42.5t38.5 -112.5q0 -71 -39 -113t-107 -42q-32 0 -56.5 12t-40.5 33h-8q-16 -20 -41 -32.5t-56 -12.5zM254 67q24 0 37 18t13 42v32q0 24 -13 42t-37 18t-37 -18t-13 -42v-32
q0 -24 13 -42t37 -18zM452 67q24 0 37 18t13 42v32q0 24 -13 42t-37 18t-37 -18t-13 -42v-32q0 -24 13 -42t37 -18z" />
    <glyph glyph-name="bar" unicode="|" 
d="M237 -138v898h126v-898h-126z" />
    <glyph glyph-name="brokenbar" unicode="&#xa6;" 
d="M237 401v359h126v-359h-126zM237 -138v359h126v-359h-126z" />
    <glyph glyph-name="section" unicode="&#xa7;" 
d="M511 3q0 -41 -16.5 -74t-45.5 -56.5t-70 -36t-90 -12.5q-52 0 -104.5 16t-96.5 56l73 88q26 -26 58.5 -40.5t70.5 -14.5q44 0 70 18.5t26 49.5q0 27 -21.5 42.5t-67.5 27.5l-78 21q-43 12 -72.5 28.5t-47.5 36t-26 41.5t-8 44q0 43 26.5 78.5t83.5 58.5v16
q-42 26 -60.5 62t-18.5 78q0 41 16.5 74t45.5 56.5t70 36t90 12.5q52 0 104.5 -16t96.5 -56l-73 -88q-26 26 -58.5 40.5t-70.5 14.5q-44 0 -70 -18.5t-26 -49.5q0 -27 21.5 -42.5t67.5 -27.5l78 -21q43 -12 72.5 -28.5t47.5 -36t26 -41.5t8 -44q0 -43 -26.5 -78.5
t-83.5 -58.5v-16q42 -26 60.5 -62t18.5 -78zM419 252q0 26 -16.5 47t-66.5 35l-77 21q-9 2 -17 5l-16 6q-18 -20 -28 -40.5t-10 -43.5q0 -26 16.5 -47t66.5 -35l77 -21q9 -2 17 -5l16 -6q18 20 28 40.5t10 43.5z" />
    <glyph glyph-name="paragraph" unicode="&#xb6;" 
d="M245 246q-47 0 -87.5 17t-71.5 47t-48.5 71.5t-17.5 90.5t17.5 90.5t48.5 71.5t71.5 47t87.5 17h307v-847h-119v731h-69v-731h-119v395z" />
    <glyph glyph-name="copyright" unicode="&#xa9;" 
d="M300 18q-63 0 -117.5 23t-95 66t-64 104t-23.5 138q0 76 23.5 137.5t64 104.5t95 66t117.5 23t117.5 -23t95 -66t64 -104.5t23.5 -137.5q0 -77 -23.5 -138t-64 -104t-95 -66t-117.5 -23zM300 73q51 0 94.5 19t75 52.5t49.5 78.5t18 96v60q0 51 -18 96t-49.5 78.5
t-75 52.5t-94.5 19t-94.5 -19t-75 -52.5t-49.5 -78.5t-18 -96v-60q0 -51 18 -96t49.5 -78.5t75 -52.5t94.5 -19zM309 153q-42 0 -76 14t-58 39.5t-37 61.5t-13 80q0 45 13.5 81.5t38 62t58 39.5t74.5 14q62 0 99 -28.5t55 -73.5l-85 -43q-10 23 -25.5 37.5t-41.5 14.5
q-30 0 -47 -18.5t-17 -47.5v-73q0 -29 17 -48t48 -19q28 0 44.5 15t27.5 37l85 -43q-9 -20 -22 -38.5t-32.5 -32.5t-45.5 -22.5t-60 -8.5z" />
    <glyph glyph-name="registered" unicode="&#xae;" 
d="M300 346q-38 0 -71.5 14t-58.5 38t-39 57.5t-14 72.5t14 72.5t39 57.5t58.5 38t71.5 14t71.5 -14t58 -38t39 -57.5t14.5 -72.5t-14.5 -72.5t-39 -57.5t-58 -38t-71.5 -14zM300 387q29 0 53.5 9.5t42.5 26.5t28.5 41t10.5 54v20q0 30 -10.5 54t-28.5 41t-42.5 26.5
t-53.5 9.5t-53.5 -9.5t-42.5 -26.5t-28.5 -41t-10.5 -54v-20q0 -30 10.5 -54t28.5 -41t42.5 -26.5t53.5 -9.5zM278 436h-56v185h92q38 0 55 -18t17 -45q0 -41 -34 -57l39 -65h-61l-30 54h-22v-54zM302 531q26 0 26 20v7q0 20 -26 20h-24v-47h24z" />
    <glyph glyph-name="trademark" unicode="&#x2122;" 
d="M82 409v228h-69v61h224v-61h-69v-228h-86zM258 409v289h91l56 -107h6l56 107h85v-289h-72v97l8 93h-4l-79 -146l-79 146h-4l8 -93v-97h-72z" />
    <glyph glyph-name="ordfeminine" unicode="&#xaa;" 
d="M429 340q-32 0 -51.5 16.5t-22.5 47.5h-4q-10 -35 -39 -53.5t-71 -18.5q-53 0 -84.5 28.5t-31.5 79.5q0 57 41.5 84t120.5 27h58v18q0 32 -15 48.5t-50 16.5q-33 0 -53.5 -12.5t-35.5 -32.5l-56 50q18 31 57 51t100 20q74 0 115.5 -34t41.5 -103v-158h40v-75h-60z
M290 495q-64 0 -64 -43v-14q0 -19 14.5 -28.5t39.5 -9.5q28 0 46.5 13t18.5 39v43h-55z" />
    <glyph glyph-name="ordmasculine" unicode="&#xba;" 
d="M300 332q-85 0 -133 50.5t-48 138.5t48 138.5t133 50.5t133 -50.5t48 -138.5t-48 -138.5t-133 -50.5zM300 409q35 0 54.5 21.5t19.5 61.5v58q0 40 -19.5 61.5t-54.5 21.5t-54.5 -21.5t-19.5 -61.5v-58q0 -40 19.5 -61.5t54.5 -21.5z" />
    <glyph glyph-name="degree" unicode="&#xb0;" 
d="M300 334q-40 0 -74 14.5t-59.5 39.5t-40 59.5t-14.5 74.5t14.5 74.5t40 59.5t59.5 39.5t74 14.5t74 -14.5t59.5 -39.5t40 -59.5t14.5 -74.5t-14.5 -74.5t-40 -59.5t-59.5 -39.5t-74 -14.5zM300 429q39 0 62.5 27t23.5 66t-23.5 66t-62.5 27t-62.5 -27t-23.5 -66t23.5 -66
t62.5 -27z" />
    <glyph glyph-name="asterisk" unicode="*" 
d="M191 60l-104 69l114 150l-171 58l39 115l167 -61v177h128v-177l167 61l39 -115l-171 -58l114 -150l-104 -69l-109 149z" />
    <glyph glyph-name="dagger" unicode="&#x2020;" 
d="M237 -200v608h-176v108h176v224h126v-224h176v-108h-176v-608h-126z" />
    <glyph glyph-name="daggerdbl" unicode="&#x2021;" 
d="M237 -200v224h-176v108h176v276h-176v108h176v224h126v-224h176v-108h-176v-276h176v-108h-176v-224h-126z" />
    <glyph glyph-name="numbersign" unicode="#" 
d="M117 194h-108v110h128l15 90h-105v110h125l34 194h117l-123 -698h-117zM400 698h117l-34 -194h108v-110h-128l-15 -90h105v-110h-125l-34 -194h-117z" />
    <glyph glyph-name="asciicircum" unicode="^" 
d="M456 239l-153 323h-12l-153 -323l-111 54l195 405h157l194 -405z" />
    <glyph glyph-name="asciitilde" unicode="~" 
d="M409 210q-32 0 -60.5 11t-58.5 26q-26 13 -45 21.5t-38 8.5q-24 0 -38.5 -16.5t-26.5 -50.5l-106 38q16 68 55.5 110t99.5 42q32 0 60.5 -11t58.5 -26q26 -13 45 -21.5t38 -8.5q24 0 38.5 16.5t26.5 50.5l106 -38q-16 -68 -55.5 -110t-99.5 -42z" />
    <glyph glyph-name="plus" unicode="+" 
d="M236 62v184h-174v118h174v184h128v-184h174v-118h-174v-184h-128z" />
    <glyph glyph-name="minus" unicode="&#x2212;" 
d="M62 246v118h476v-118h-476z" />
    <glyph glyph-name="plusminus" unicode="&#xb1;" 
d="M236 184v166h-174v118h174v166h128v-166h174v-118h-174v-166h-128zM62 0v119h476v-119h-476z" />
    <glyph glyph-name="multiply" unicode="&#xd7;" 
d="M300 220l-145 -145l-85 85l145 145l-145 145l85 85l145 -145l145 145l85 -85l-145 -145l145 -145l-85 -85z" />
    <glyph glyph-name="divide" unicode="&#xf7;" 
d="M62 246v118h476v-118h-476zM300 29q-48 0 -68 20t-20 49v24q0 29 20 49t68 20t68 -20t20 -49v-24q0 -29 -20 -49t-68 -20zM300 419q-48 0 -68 20t-20 49v24q0 29 20 49t68 20t68 -20t20 -49v-24q0 -29 -20 -49t-68 -20z" />
    <glyph glyph-name="equal" unicode="=" 
d="M62 361v118h476v-118h-476zM62 131v118h476v-118h-476z" />
    <glyph glyph-name="approxequal" unicode="&#x2248;" 
d="M409 325q-32 0 -60.5 11t-58.5 26q-26 13 -45 21.5t-38 8.5q-24 0 -38.5 -16.5t-26.5 -50.5l-106 38q16 68 55.5 110t99.5 42q32 0 60.5 -11t58.5 -26q26 -13 45 -21.5t38 -8.5q24 0 38.5 16.5t26.5 50.5l106 -38q-16 -68 -55.5 -110t-99.5 -42zM409 95q-32 0 -60.5 11
t-58.5 26q-26 13 -45 21.5t-38 8.5q-24 0 -38.5 -16.5t-26.5 -50.5l-106 38q16 68 55.5 110t99.5 42q32 0 60.5 -11t58.5 -26q26 -13 45 -21.5t38 -8.5q24 0 38.5 16.5t26.5 50.5l106 -38q-16 -68 -55.5 -110t-99.5 -42z" />
    <glyph glyph-name="notequal" unicode="&#x2260;" 
d="M91 36l52 95h-81v118h148l63 112h-211v118h269l52 95h126l-52 -95h81v-118h-148l-63 -112h211v-118h-269l-52 -95h-126z" />
    <glyph glyph-name="less" unicode="&#x3c;" 
d="M85 236v138l430 230v-138l-297 -157v-8l297 -157v-138z" />
    <glyph glyph-name="greater" unicode="&#x3e;" 
d="M85 144l297 157v8l-297 157v138l430 -230v-138l-430 -230v138z" />
    <glyph glyph-name="lessequal" unicode="&#x2264;" 
d="M85 0v116h430v-116h-430zM515 471l-289 -98v-7l289 -96v-126l-430 157v137l430 157v-124z" />
    <glyph glyph-name="greaterequal" unicode="&#x2265;" 
d="M85 272l288 96v7l-288 98v122l430 -157v-137l-430 -157v128zM85 116h430v-116h-430v116z" />
    <glyph glyph-name="periodcentered" unicode="&#xb7;" 
d="M300 204q-56 0 -80.5 24.5t-24.5 58.5v35q0 34 24.5 58.5t80.5 24.5t80.5 -24.5t24.5 -58.5v-35q0 -34 -24.5 -58.5t-80.5 -24.5z" />
    <glyph glyph-name="bullet" unicode="&#x2022;" 
d="M300 156q-42 0 -71.5 10t-48 27.5t-26.5 41.5t-8 52v34q0 28 8 52t26.5 41.5t48 27.5t71.5 10t71.5 -10t48 -27.5t26.5 -41.5t8 -52v-34q0 -28 -8 -52t-26.5 -41.5t-48 -27.5t-71.5 -10z" />
    <glyph glyph-name="lozenge" unicode="&#x25ca;" 
d="M246 0l-218 349l218 349h108l218 -349l-218 -349h-108zM303 123l138 226l-138 226h-6l-138 -226l138 -226h6z" />
    <glyph glyph-name="logicalnot" unicode="&#xac;" 
d="M401 54v192h-339v118h460v-310h-121z" />
    <glyph glyph-name="radical" unicode="&#x221a;" 
d="M213 0l-118 392h-80v124h175l57 -196l52 -215h8l56 215l109 378h124l-206 -698h-177z" />
    <glyph glyph-name="integral" unicode="&#x222b;" 
d="M28 -85h185v676q0 66 38.5 107.5t119.5 41.5h175v-115h-185v-676q0 -65 -39 -107t-119 -42h-175v115z" />
    <glyph glyph-name="infinity" unicode="&#x221e;" 
d="M161 126q-72 0 -111 47t-39 132t41.5 132t116.5 47q51 0 87.5 -30t59.5 -99h4q8 67 42.5 98t76.5 31q72 0 111 -47t39 -132t-41.5 -132t-116.5 -47q-51 0 -87.5 30t-59.5 99h-4q-4 -34 -15.5 -58.5t-27.5 -40t-35.5 -23t-40.5 -7.5zM174 228q32 0 52 19.5t30 45.5
q-13 35 -31.5 62t-50.5 27q-20 0 -33.5 -18t-13.5 -52v-14q0 -34 13.5 -52t33.5 -18zM426 228q20 0 33.5 18t13.5 52v14q0 34 -13.5 52t-33.5 18q-32 0 -52 -19.5t-30 -45.5q13 -35 31.5 -62t50.5 -27z" />
    <glyph glyph-name="uni212E" unicode="&#x212e;" 
d="M185 85q18 -17 49 -29t66 -12q37 0 66.5 10t53.5 28t43 43t34 55l52 -29q-18 -33 -41.5 -63t-54 -52t-68.5 -35t-85 -13q-62 0 -112.5 27.5t-86.5 75.5t-55.5 114t-19.5 144t19.5 144t55.5 114t86.5 75.5t112.5 27.5t112.5 -27.5t86.5 -75.5t55.5 -114t19.5 -144h-389
v-264zM415 401v217q-19 17 -49.5 27.5t-65.5 10.5t-65.5 -10.5t-49.5 -27.5v-217h230z" />
    <glyph glyph-name="uni2113" unicode="&#x2113;" 
d="M334 -12q-41 0 -76.5 12t-62 34t-41.5 53.5t-15 71.5v3q-6 -4 -21 -13.5t-22 -13.5l-64 103q28 15 55.5 34t44.5 30v244q0 56 14 95t39 64t58.5 36t72.5 11q88 0 135 -50.5t47 -139.5q0 -47 -14 -88.5t-42 -81.5t-70.5 -80t-99.5 -84v-41q0 -38 16 -54.5t44 -16.5
q15 0 27.5 5t24.5 17t24 31.5t27 49.5l120 -61q-29 -76 -83 -123t-138 -47zM320 621q-18 0 -33 -15.5t-15 -54.5v-173q39 35 64.5 76.5t25.5 95.5v10q0 32 -12 46.5t-30 14.5z" />
    <glyph glyph-name="uni2116" unicode="&#x2116;" 
d="M481 325q-120 0 -120 191q0 190 120 190q116 0 116 -190q0 -191 -116 -191zM17 0v698h175l26 -335l17 -263h12v598h88v-698h-175l-26 335l-17 263h-12v-598h-88zM481 403q23 0 29.5 19t6.5 56v75q0 36 -6.5 55.5t-29.5 19.5q-24 0 -30 -19.5t-6 -55.5v-75q0 -36 6 -55.5
t30 -19.5zM369 226v77h220v-77h-220z" />
    <glyph glyph-name="partialdiff" unicode="&#x2202;" 
d="M559 274q0 -74 -18.5 -128t-52.5 -89t-81.5 -52t-104.5 -17q-61 0 -109.5 18.5t-82 53t-51.5 84t-18 111.5q0 56 14 102t40 78.5t63 50.5t83 18q56 0 94 -25.5t62 -70.5l9 4q-29 80 -108 149t-204 137h218q46 -28 90.5 -67.5t79.5 -92t56 -118t21 -146.5zM300 98
q50 0 78 31t28 88v56q0 57 -28 88t-78 31t-78 -31t-28 -88v-56q0 -57 28 -88t78 -31z" />
    <glyph glyph-name="cent" unicode="&#xa2;" 
d="M258 -114v108q-94 17 -146 86t-52 178t52 178t146 86v108h114v-106q62 -10 101 -42t62 -80l-107 -58q-10 21 -26 39t-39 28v-307q26 9 44.5 27.5t30.5 41.5l105 -59q-23 -48 -65 -80t-106 -42v-106h-114zM202 216q0 -39 16.5 -67.5t49.5 -42.5v304q-32 -13 -49 -41.5
t-17 -68.5v-84z" />
    <glyph glyph-name="Euro" unicode="&#x20ac;" 
d="M336 -12q-69 0 -123 24.5t-91.5 70.5t-57 113t-19.5 153q0 85 19.5 152.5t57 113.5t91.5 70.5t123 24.5q51 0 88 -10.5t65 -27.5t47.5 -38.5t36.5 -44.5l-109 -76q-22 39 -51 58.5t-71 19.5q-56 0 -89.5 -30.5t-45.5 -85.5h222v-90h-228v-72h228v-90h-222
q12 -55 45.5 -85.5t89.5 -30.5q42 0 71 19.5t51 58.5l109 -76q-17 -23 -36.5 -44.5t-47.5 -38.5t-65 -27.5t-88 -10.5z" />
    <glyph glyph-name="florin" unicode="&#x192;" 
d="M-31 -85h184l68 408h-163l19 115h164l20 121q11 66 50.5 102.5t120.5 36.5h185l-19 -115h-185l-24 -145h172l-18 -115h-174l-64 -384q-11 -66 -50.5 -102.5t-120.5 -36.5h-184z" />
    <glyph glyph-name="sterling" unicode="&#xa3;" 
d="M69 0v136q40 17 62.5 48t22.5 73q0 8 -1 12h-107v110h71q-12 28 -21.5 58.5t-9.5 66.5q0 46 18 84t50.5 65t78.5 42t102 15q76 0 131 -27t93 -78l-99 -93q-23 30 -50.5 49.5t-69.5 19.5q-47 0 -74 -26.5t-27 -74.5q0 -28 8.5 -52.5t19.5 -48.5h175v-110h-140v-7
q0 -26 -7 -46t-18.5 -35t-25.5 -26t-27 -18v-9h329v-128h-484z" />
    <glyph glyph-name="dollar" unicode="$" 
d="M253 -10q-75 6 -131.5 33.5t-91.5 72.5l87 95q32 -34 68.5 -53t77.5 -25v184l-23 4q-96 17 -142 70.5t-46 130.5q0 85 52 138t149 66v105h114v-104q63 -8 107.5 -32t74.5 -59l-86 -96q-42 46 -106 60v-167l23 -4q96 -18 142 -69.5t46 -127.5q0 -41 -13.5 -77t-39 -64
t-63 -47.5t-85.5 -28.5v-108h-114v103zM193 507q0 -32 16.5 -48.5t53.5 -26.5v151q-37 -6 -53.5 -25t-16.5 -51zM428 202q0 34 -17 51t-54 26v-165q36 8 53.5 30.5t17.5 57.5z" />
    <glyph glyph-name="yen" unicode="&#xa5;" 
d="M56 113h173v108h-173v113h104l-160 364h156l141 -364h10l142 364h151l-159 -364h103v-113h-173v-108h173v-113h-488v113z" />
    <glyph glyph-name="uni0E3F" unicode="&#xe3f;" 
d="M358 -113h-114v113h-180v698h180v113h114v-114q91 -5 140.5 -55.5t49.5 -129.5q0 -115 -115 -147v-6q64 -15 99.5 -56t35.5 -111q0 -88 -55 -140t-154 -52h-1v-113zM254 401v193h-56v-193h56zM348 405q28 7 42 25t14 51v33q0 33 -14 51t-42 25v-185zM254 104v198h-56
v-198h56zM348 105q38 4 57 21.5t19 58.5v36q0 41 -19 58.5t-57 21.5v-196z" />
    <glyph glyph-name="uni20A1" unicode="&#x20a1;" 
d="M318 -12h-2q-26 0 -48 3l-7 -104h-71l9 123q-81 35 -119.5 121.5t-38.5 217.5q0 150 50 240.5t156 113.5l7 108h71l-7 -101q13 0 25.5 -1t24.5 -3l7 105h71l-9 -123q44 -19 77 -53.5t55 -88.5l-113 -54q-12 33 -29 56l-30 -425q38 25 59 83l113 -54q-27 -68 -72.5 -105.5
t-107.5 -51.5l-7 -108h-71zM309 598l-34 -494q8 -2 17.5 -3t20.5 -1h14l34 492q-23 6 -48 6h-4zM183 288q0 -41 6 -75t21 -59l29 423q-31 -23 -43.5 -66.5t-12.5 -100.5v-122z" />
    <glyph glyph-name="uni20A4" unicode="&#x20a4;" 
d="M553 0h-484v136q51 22 72 64h-92v89h102q-4 17 -10 34t-14 34h-78v89h44q-3 14 -5 28t-2 30q0 46 18 84t50.5 65t78.5 42t102 15q76 0 131 -27t93 -78l-99 -93q-23 30 -50.5 49.5t-69.5 19.5q-47 0 -74 -26.5t-27 -74.5q0 -19 4 -34h181v-89h-146q7 -16 13 -33t9 -35h124
v-89h-136q-11 -23 -29 -38.5t-35 -24.5v-9h329v-128z" />
    <glyph glyph-name="uni20A6" unicode="&#x20a6;" 
d="M278 238h-100v-238h-110v231h-45v94h45v48h-45v94h45v231h188l66 -238h100v238h110v-231h45v-94h-45v-48h45v-94h-45v-231h-188zM256 318l-68 246h-10v-246h78zM412 134h10v246h-78z" />
    <glyph glyph-name="uni20A8" unicode="&#x20a8;" 
d="M37 0v698h150q88 0 134.5 -47.5t46.5 -134.5q0 -53 -20.5 -98.5t-63.5 -70.5l58 -181q12 -38 30.5 -59t53.5 -21q46 0 46 40q0 17 -8 30.5t-26 31.5l-15 15q-32 32 -49 62.5t-17 71.5q0 66 40 102.5t103 36.5q25 0 51.5 -6.5t48.5 -20.5l-38 -87q-12 8 -23.5 12.5
t-25.5 4.5q-38 0 -38 -38q0 -18 8 -31.5t26 -31.5l15 -15q32 -32 49 -62.5t17 -72.5q0 -62 -41.5 -101t-131.5 -39q-72 0 -119.5 31.5t-70.5 108.5l-58 193h-13v-321h-119zM190 419q31 0 44.5 15.5t13.5 52.5v42q0 37 -13.5 52.5t-44.5 15.5h-34v-178h34z" />
    <glyph glyph-name="uni20A9" unicode="&#x20a9;" 
d="M68 270h-60v91h57l-2 76h-55v92h52l-6 169h126v-176h243v176h123l-6 -169h52v-92h-55l-2 -76h57v-91h-60l-9 -270h-180l-31 444h-24l-31 -444h-180zM197 93l25 351h-50v-351h25zM431 93v351h-50l25 -351h25z" />
    <glyph glyph-name="uni20AA" unicode="&#x20aa;" 
d="M184 531h95v-441h85q42 0 72.5 25t30.5 84v499h103v-500q0 -50 -14 -87t-39 -62t-60 -37t-76 -12h-197v531zM34 0v698h199q41 0 75.5 -12t59 -37t38.5 -62t14 -87v-333h-95v332q0 59 -30 84t-72 25h-86v-608h-103z" />
    <glyph glyph-name="uni20AB" unicode="&#x20ab;" 
d="M379 253h-6q-8 -20 -19.5 -37.5t-28 -30.5t-38.5 -21t-51 -8q-36 0 -66.5 11.5t-52.5 35.5t-34.5 60.5t-12.5 86.5q0 100 46.5 147t119.5 47q29 0 51 -8t38.5 -21t28 -31t19.5 -37h6v137h-126v105h126v51h140v-51h50v-105h-50v-418h-140v87zM296 260q40 0 61.5 20
t21.5 44v52q0 24 -21.5 44t-61.5 20q-42 0 -62 -23t-20 -58v-18q0 -35 20 -58t62 -23zM82 0v107h460v-107h-460z" />
    <glyph glyph-name="uni20AD" unicode="&#x20ad;" 
d="M219 0h-150v296h-50v120h50v282h150v-282h40l165 282h161l-175 -282h145v-120h-135l181 -296h-168l-174 296h-40v-296z" />
    <glyph glyph-name="uni20AE" unicode="&#x20ae;" 
d="M371 178v-178h-142v116l-129 -56v100l129 56v84l-129 -56v100l129 56v181h-205v117h552v-117h-205v-119l129 56v-100l-129 -56v-84l129 56v-100z" />
    <glyph glyph-name="uni20B1" unicode="&#x20b1;" 
d="M218 0h-142v317h-51v94h51v49h-51v94h51v144h242q79 0 129.5 -33.5t70.5 -110.5h61v-94h-48v-49h48v-94h-61q-20 -78 -70 -112t-130 -34h-100v-171zM218 549h164q-8 29 -27.5 42t-61.5 13h-75v-55zM387 407v57h-169v-57h169zM293 266q43 0 63 13.5t27 42.5h-165v-56h75z
" />
    <glyph glyph-name="uni20B2" unicode="&#x20b2;" 
d="M197 5q-83 33 -122.5 120.5t-39.5 224.5q0 85 15.5 151.5t48 112.5t81.5 70.5t116 25.5l14 101h116l-16 -120q93 -38 129 -159l-113 -40q-7 23 -17 42.5t-27 33.5l-28 -195h191v-139q0 -55 -16 -100t-46 -77t-73.5 -50.5t-99.5 -19.5l-14 -100h-116zM290 594
q-57 -5 -81.5 -50.5t-24.5 -133.5v-123q0 -57 9.5 -95t30.5 -60zM316 102q54 4 77 37t23 79v49h-77z" />
    <glyph glyph-name="uni20B4" unicode="&#x20b4;" 
d="M308 -12q-54 0 -95.5 15t-69.5 41.5t-42 61.5t-14 75q0 13 1.5 25.5t6.5 23.5h-68v82h117l149 84v6h-266v82h337q6 13 6 32q0 39 -21.5 58t-59.5 19q-35 0 -63.5 -14.5t-52.5 -40.5l-75 89q33 38 83.5 60.5t113.5 22.5q50 0 89 -14t66 -37.5t41 -55t14 -65.5
q0 -14 -2 -28.5t-6 -25.5h76v-82h-113l-149 -84v-6h262v-82h-342q-5 -10 -6.5 -20.5t-1.5 -21.5q0 -41 24 -63.5t69 -22.5q34 0 67.5 16t70.5 55l76 -89q-35 -43 -92 -69.5t-130 -26.5z" />
    <glyph glyph-name="uni20B5" unicode="&#x20b5;" 
d="M203 8q-83 34 -122.5 120.5t-39.5 220.5q0 170 64 262.5t197 98.5l14 101h115l-16 -116q59 -21 92 -64t49 -97l-117 -39q-8 25 -19.5 46t-31.5 35l-67 -475q25 1 43.5 10.5t31.5 26t21.5 38t13.5 45.5l132 -32q-11 -46 -30.5 -83t-49.5 -63.5t-71.5 -40.5t-95.5 -14h-1
l-14 -101h-115zM295 596q-49 -8 -76.5 -50t-27.5 -136v-122q0 -106 39 -151z" />
    <glyph glyph-name="uni20B8" unicode="&#x20b8;" 
d="M45 593v105h510v-105h-510zM375 416v-416h-150v416h-181v105h512v-105h-181z" />
    <glyph glyph-name="uni20B9" unicode="&#x20b9;" 
d="M352 0l-184 246h-122v109h121q50 0 83.5 15.5t37.5 56.5h-242v92h242q-5 38 -38.5 54t-82.5 16h-121v109h518v-109h-210v-5q21 -4 40 -19.5t30 -45.5h140v-92h-131q-5 -57 -34 -94.5t-80 -59.5l210 -273h-177z" />
    <glyph glyph-name="uni20BA" unicode="&#x20ba;" 
d="M109 199l-70 -32v104l70 32v66l-70 -32v104l70 32v225h139v-160l161 74v-104l-161 -74v-66l161 74v-104l-161 -74v-142h46q36 0 62.5 9t44.5 30.5t26.5 56.5t8.5 87h142q0 -64 -15.5 -119.5t-47.5 -97t-82.5 -65t-119.5 -23.5h-204v199z" />
    <glyph glyph-name="uni20BD" unicode="&#x20bd;" 
d="M243 114v-114h-151v114h-60v109h60v52h-60v109h60v314h260q103 0 158 -57.5t55 -154.5t-55 -154t-158 -57h-109v-52h206v-109h-206zM243 384h71q53 0 73.5 20t20.5 66v31q0 46 -20.5 66t-73.5 20h-71v-203z" />
    <glyph glyph-name="uni20BF" unicode="&#x20bf;" 
d="M313 0h-61v-113h-84v113h-91v698h91v113h84v-113h61v113h84v-122q67 -17 102 -62.5t35 -114.5q0 -59 -28.5 -94.5t-85.5 -52.5v-6q66 -16 101 -56t35 -111q0 -76 -42 -125t-117 -63v-117h-84v113zM223 402h57q53 0 77 18.5t24 64.5v29q0 47 -24 65t-77 18h-57v-195z
M223 101h76q54 0 79 19t25 67v30q0 48 -25 66.5t-79 18.5h-76v-201z" />
    <glyph glyph-name="fi" unicode="&#xfb01;" 
d="M75 401h-44v115h44v75q0 65 38.5 107t118.5 42h97v-115h-106v-109h312v-516h-148v401h-164v-401h-148v401zM461 582q-50 0 -69.5 20.5t-19.5 49.5v29q0 30 19.5 50t69.5 20t69.5 -20t19.5 -50v-29q0 -29 -19.5 -49.5t-69.5 -20.5z" />
    <glyph glyph-name="fl" unicode="&#xfb02;" 
d="M75 401h-44v115h44v75q0 65 38.5 107t118.5 42h98v-115h-107v-109h108v-115h-108v-401h-148v401zM387 740h148v-740h-148v740z" />
    <glyph glyph-name="aacute" unicode="&#xe1;" 
d="M487 0q-46 0 -74 23.5t-33 67.5h-5q-14 -51 -55.5 -77t-101.5 -26q-75 0 -120.5 40.5t-45.5 113.5q0 81 59 120t173 39h83v26q0 46 -21.5 69.5t-72.5 23.5q-47 0 -76 -18t-50 -47l-81 72q26 44 81.5 72.5t142.5 28.5q106 0 165.5 -48.5t59.5 -146.5v-226h57v-107h-85z
M274 85q39 0 66 19t27 55v62h-79q-91 0 -91 -61v-20q0 -27 21 -41t56 -14zM309 570l-88 43l99 194l123 -61z" />
    <glyph glyph-name="abreve" unicode="&#x103;" 
d="M487 0q-46 0 -74 23.5t-33 67.5h-5q-14 -51 -55.5 -77t-101.5 -26q-75 0 -120.5 40.5t-45.5 113.5q0 81 59 120t173 39h83v26q0 46 -21.5 69.5t-72.5 23.5q-47 0 -76 -18t-50 -47l-81 72q26 44 81.5 72.5t142.5 28.5q106 0 165.5 -48.5t59.5 -146.5v-226h57v-107h-85z
M274 85q39 0 66 19t27 55v62h-79q-91 0 -91 -61v-20q0 -27 21 -41t56 -14zM293 570q-45 0 -77.5 16.5t-55 41.5t-37.5 55t-24 57l83 42l21 -32q23 -36 42 -56.5t48 -20.5t48 20.5t42 56.5l21 32l83 -42q-9 -27 -24 -57t-37.5 -55t-55 -41.5t-77.5 -16.5z" />
    <glyph glyph-name="acircumflex" unicode="&#xe2;" 
d="M487 0q-46 0 -74 23.5t-33 67.5h-5q-14 -51 -55.5 -77t-101.5 -26q-75 0 -120.5 40.5t-45.5 113.5q0 81 59 120t173 39h83v26q0 46 -21.5 69.5t-72.5 23.5q-47 0 -76 -18t-50 -47l-81 72q26 44 81.5 72.5t142.5 28.5q106 0 165.5 -48.5t59.5 -146.5v-226h57v-107h-85z
M274 85q39 0 66 19t27 55v62h-79q-91 0 -91 -61v-20q0 -27 21 -41t56 -14zM355 786l132 -159l-75 -58l-121 115l-121 -115l-71 58l132 159h124z" />
    <glyph glyph-name="adieresis" unicode="&#xe4;" 
d="M487 0q-46 0 -74 23.5t-33 67.5h-5q-14 -51 -55.5 -77t-101.5 -26q-75 0 -120.5 40.5t-45.5 113.5q0 81 59 120t173 39h83v26q0 46 -21.5 69.5t-72.5 23.5q-47 0 -76 -18t-50 -47l-81 72q26 44 81.5 72.5t142.5 28.5q106 0 165.5 -48.5t59.5 -146.5v-226h57v-107h-85z
M274 85q39 0 66 19t27 55v62h-79q-91 0 -91 -61v-20q0 -27 21 -41t56 -14zM183 591q-45 0 -62.5 18.5t-17.5 44.5v26q0 26 17.5 44t62.5 18t63 -18t18 -44v-26q0 -26 -18 -44.5t-63 -18.5zM403 591q-45 0 -63 18.5t-18 44.5v26q0 26 18 44t63 18t62.5 -18t17.5 -44v-26
q0 -26 -17.5 -44.5t-62.5 -18.5z" />
    <glyph glyph-name="uni1EA1" unicode="&#x1ea1;" 
d="M487 0q-46 0 -74 23.5t-33 67.5h-5q-14 -51 -55.5 -77t-101.5 -26q-75 0 -120.5 40.5t-45.5 113.5q0 81 59 120t173 39h83v26q0 46 -21.5 69.5t-72.5 23.5q-47 0 -76 -18t-50 -47l-81 72q26 44 81.5 72.5t142.5 28.5q106 0 165.5 -48.5t59.5 -146.5v-226h57v-107h-85z
M274 85q39 0 66 19t27 55v62h-79q-91 0 -91 -61v-20q0 -27 21 -41t56 -14zM292 -203q-45 0 -63 18t-18 44v26q0 27 18 45t63 18t63 -18t18 -45v-26q0 -26 -18 -44t-63 -18z" />
    <glyph glyph-name="agrave" unicode="&#xe0;" 
d="M487 0q-46 0 -74 23.5t-33 67.5h-5q-14 -51 -55.5 -77t-101.5 -26q-75 0 -120.5 40.5t-45.5 113.5q0 81 59 120t173 39h83v26q0 46 -21.5 69.5t-72.5 23.5q-47 0 -76 -18t-50 -47l-81 72q26 44 81.5 72.5t142.5 28.5q106 0 165.5 -48.5t59.5 -146.5v-226h57v-107h-85z
M274 85q39 0 66 19t27 55v62h-79q-91 0 -91 -61v-20q0 -27 21 -41t56 -14zM143 746l123 61l99 -194l-88 -43z" />
    <glyph glyph-name="uni1EA3" unicode="&#x1ea3;" 
d="M487 0q-46 0 -74 23.5t-33 67.5h-5q-14 -51 -55.5 -77t-101.5 -26q-75 0 -120.5 40.5t-45.5 113.5q0 81 59 120t173 39h83v26q0 46 -21.5 69.5t-72.5 23.5q-47 0 -76 -18t-50 -47l-81 72q26 44 81.5 72.5t142.5 28.5q106 0 165.5 -48.5t59.5 -146.5v-226h57v-107h-85z
M274 85q39 0 66 19t27 55v62h-79q-91 0 -91 -61v-20q0 -27 21 -41t56 -14zM172 793h143q28 0 47 -6t30 -16t16 -23t5 -28q0 -29 -16 -62.5t-41 -63.5l-28 -34l-75 35l41 92h-122v106z" />
    <glyph glyph-name="amacron" unicode="&#x101;" 
d="M487 0q-46 0 -74 23.5t-33 67.5h-5q-14 -51 -55.5 -77t-101.5 -26q-75 0 -120.5 40.5t-45.5 113.5q0 81 59 120t173 39h83v26q0 46 -21.5 69.5t-72.5 23.5q-47 0 -76 -18t-50 -47l-81 72q26 44 81.5 72.5t142.5 28.5q106 0 165.5 -48.5t59.5 -146.5v-226h57v-107h-85z
M274 85q39 0 66 19t27 55v62h-79q-91 0 -91 -61v-20q0 -27 21 -41t56 -14zM140 718h306v-103h-306v103z" />
    <glyph glyph-name="aogonek" unicode="&#x105;" 
d="M572 0q-37 -23 -59.5 -38.5t-34.5 -27.5t-16 -21t-4 -18q0 -19 11.5 -26t26.5 -7q18 0 31 8t24 20l53 -51q-13 -24 -43.5 -37.5t-78.5 -13.5q-25 0 -47.5 4.5t-39.5 14t-27 26t-10 40.5q0 42 31.5 69.5t87.5 53.5l-2 4q-42 3 -66.5 26t-28.5 65h-5q-14 -51 -55.5 -77
t-101.5 -26q-75 0 -120.5 40.5t-45.5 113.5q0 81 59 120t173 39h83v26q0 46 -21.5 69.5t-72.5 23.5q-47 0 -76 -18t-50 -47l-81 72q26 44 81.5 72.5t142.5 28.5q106 0 165.5 -48.5t59.5 -146.5v-226h57v-107zM288 221q-91 0 -91 -61v-20q0 -27 20.5 -41t55.5 -14q40 0 67 19
t27 55v62h-79z" />
    <glyph glyph-name="aring" unicode="&#xe5;" 
d="M487 0q-46 0 -74 23.5t-33 67.5h-5q-14 -51 -55.5 -77t-101.5 -26q-75 0 -120.5 40.5t-45.5 113.5q0 81 59 120t173 39h83v26q0 46 -21.5 69.5t-72.5 23.5q-47 0 -76 -18t-50 -47l-81 72q26 44 81.5 72.5t142.5 28.5q106 0 165.5 -48.5t59.5 -146.5v-226h57v-107h-85z
M274 85q39 0 66 19t27 55v62h-79q-91 0 -91 -61v-20q0 -27 21 -41t56 -14zM293 549q-31 0 -58 10.5t-47 29.5t-31.5 45.5t-11.5 57.5t11.5 57t31.5 45t47 30t58 11t58 -10.5t47 -29.5t31.5 -45.5t11.5 -57.5t-11.5 -57t-31.5 -45t-47 -30t-58 -11zM293 624q25 0 38 14t13 37
v34q0 24 -13 37.5t-38 13.5t-38 -14t-13 -37v-34q0 -24 13 -37.5t38 -13.5z" />
    <glyph glyph-name="aringacute" unicode="&#x1fb;" 
d="M487 0q-46 0 -74 23.5t-33 67.5h-5q-14 -51 -55.5 -77t-101.5 -26q-75 0 -120.5 40.5t-45.5 113.5q0 81 59 120t173 39h83v26q0 46 -21.5 69.5t-72.5 23.5q-47 0 -76 -18t-50 -47l-81 72q26 44 81.5 72.5t142.5 28.5q106 0 165.5 -48.5t59.5 -146.5v-226h57v-107h-85z
M274 85q39 0 66 19t27 55v62h-79q-91 0 -91 -61v-20q0 -27 21 -41t56 -14zM286 806l-53 57l129 117l74 -81zM293 555q-32 0 -59.5 8t-48 23.5t-32.5 37.5t-12 51q0 28 12 50.5t32.5 38t48 23.5t59.5 8t59.5 -8t48 -23.5t32.5 -38t12 -50.5t-12 -50.5t-32.5 -38t-48 -23.5
t-59.5 -8zM293 625q55 0 55 45v10q0 24 -14 34.5t-41 10.5q-55 0 -55 -45v-10q0 -24 14 -34.5t41 -10.5z" />
    <glyph glyph-name="atilde" unicode="&#xe3;" 
d="M487 0q-46 0 -74 23.5t-33 67.5h-5q-14 -51 -55.5 -77t-101.5 -26q-75 0 -120.5 40.5t-45.5 113.5q0 81 59 120t173 39h83v26q0 46 -21.5 69.5t-72.5 23.5q-47 0 -76 -18t-50 -47l-81 72q26 44 81.5 72.5t142.5 28.5q106 0 165.5 -48.5t59.5 -146.5v-226h57v-107h-85z
M274 85q39 0 66 19t27 55v62h-79q-91 0 -91 -61v-20q0 -27 21 -41t56 -14zM369 592q-23 0 -40.5 6t-36.5 14q-22 9 -40 15.5t-38 6.5q-17 0 -30 -6t-29 -19l-52 68q18 27 46 45.5t68 18.5q23 0 40.5 -6t36.5 -14q22 -9 40 -15.5t38 -6.5q17 0 30 6t29 19l52 -68
q-18 -27 -46 -45.5t-68 -18.5z" />
    <glyph glyph-name="uni1EAF" unicode="&#x1eaf;" 
d="M487 0q-46 0 -74 23.5t-33 67.5h-5q-14 -51 -55.5 -77t-101.5 -26q-75 0 -120.5 40.5t-45.5 113.5q0 81 59 120t173 39h83v26q0 46 -21.5 69.5t-72.5 23.5q-47 0 -76 -18t-50 -47l-81 72q26 44 81.5 72.5t142.5 28.5q106 0 165.5 -48.5t59.5 -146.5v-226h57v-107h-85z
M274 85q39 0 66 19t27 55v62h-79q-91 0 -91 -61v-20q0 -27 21 -41t56 -14zM292 563q-46 0 -79.5 13.5t-57.5 35.5t-39.5 48t-25.5 52l75 47l21 -28q15 -20 27.5 -32.5t24.5 -20.5t25 -11t29 -3q31 0 54 14t52 53l21 28l75 -47q-10 -26 -25.5 -52t-39.5 -48t-57.5 -35.5
t-79.5 -13.5zM311 724l-79 39l99 194l114 -57z" />
    <glyph glyph-name="uni1EB7" unicode="&#x1eb7;" 
d="M487 0q-46 0 -74 23.5t-33 67.5h-5q-14 -51 -55.5 -77t-101.5 -26q-75 0 -120.5 40.5t-45.5 113.5q0 81 59 120t173 39h83v26q0 46 -21.5 69.5t-72.5 23.5q-47 0 -76 -18t-50 -47l-81 72q26 44 81.5 72.5t142.5 28.5q106 0 165.5 -48.5t59.5 -146.5v-226h57v-107h-85z
M274 85q39 0 66 19t27 55v62h-79q-91 0 -91 -61v-20q0 -27 21 -41t56 -14zM293 570q-45 0 -77.5 16.5t-55 41.5t-37.5 55t-24 57l83 42l21 -32q23 -36 42 -56.5t48 -20.5t48 20.5t42 56.5l21 32l83 -42q-9 -27 -24 -57t-37.5 -55t-55 -41.5t-77.5 -16.5zM292 -203
q-45 0 -63 18t-18 44v26q0 27 18 45t63 18t63 -18t18 -45v-26q0 -26 -18 -44t-63 -18z" />
    <glyph glyph-name="uni1EB1" unicode="&#x1eb1;" 
d="M487 0q-46 0 -74 23.5t-33 67.5h-5q-14 -51 -55.5 -77t-101.5 -26q-75 0 -120.5 40.5t-45.5 113.5q0 81 59 120t173 39h83v26q0 46 -21.5 69.5t-72.5 23.5q-47 0 -76 -18t-50 -47l-81 72q26 44 81.5 72.5t142.5 28.5q106 0 165.5 -48.5t59.5 -146.5v-226h57v-107h-85z
M274 85q39 0 66 19t27 55v62h-79q-91 0 -91 -61v-20q0 -27 21 -41t56 -14zM292 563q-46 0 -79.5 13.5t-57.5 35.5t-39.5 48t-25.5 52l75 47l21 -28q15 -20 27.5 -32.5t24.5 -20.5t25 -11t29 -3q31 0 54 14t52 53l21 28l75 -47q-10 -26 -25.5 -52t-39.5 -48t-57.5 -35.5
t-79.5 -13.5zM139 900l114 57l99 -194l-79 -39z" />
    <glyph glyph-name="uni1EB3" unicode="&#x1eb3;" 
d="M487 0q-46 0 -74 23.5t-33 67.5h-5q-14 -51 -55.5 -77t-101.5 -26q-75 0 -120.5 40.5t-45.5 113.5q0 81 59 120t173 39h83v26q0 46 -21.5 69.5t-72.5 23.5q-47 0 -76 -18t-50 -47l-81 72q26 44 81.5 72.5t142.5 28.5q106 0 165.5 -48.5t59.5 -146.5v-226h57v-107h-85z
M274 85q39 0 66 19t27 55v62h-79q-91 0 -91 -61v-20q0 -27 21 -41t56 -14zM292 563q-46 0 -79.5 13.5t-57.5 35.5t-39.5 48t-25.5 52l75 47l21 -28q15 -20 27.5 -32.5t24.5 -20.5t25 -11t29 -3q31 0 54 14t52 53l21 28l75 -47q-10 -26 -25.5 -52t-39.5 -48t-57.5 -35.5
t-79.5 -13.5zM162 943h136q28 0 47 -6t30 -16t16 -23t5 -27q0 -30 -18.5 -63t-43.5 -64l-27 -33l-66 32l43 99h-122v101z" />
    <glyph glyph-name="uni1EB5" unicode="&#x1eb5;" 
d="M487 0q-46 0 -74 23.5t-33 67.5h-5q-14 -51 -55.5 -77t-101.5 -26q-75 0 -120.5 40.5t-45.5 113.5q0 81 59 120t173 39h83v26q0 46 -21.5 69.5t-72.5 23.5q-47 0 -76 -18t-50 -47l-81 72q26 44 81.5 72.5t142.5 28.5q106 0 165.5 -48.5t59.5 -146.5v-226h57v-107h-85z
M274 85q39 0 66 19t27 55v62h-79q-91 0 -91 -61v-20q0 -27 21 -41t56 -14zM292 563q-46 0 -79.5 13.5t-57.5 35.5t-39.5 48t-25.5 52l75 47l21 -28q15 -20 27.5 -32.5t24.5 -20.5t25 -11t29 -3q31 0 54 14t52 53l21 28l75 -47q-10 -26 -25.5 -52t-39.5 -48t-57.5 -35.5
t-79.5 -13.5zM367 778q-23 0 -40.5 6t-36.5 14q-22 9 -40 15.5t-38 6.5q-17 0 -30 -6t-29 -19l-50 64q18 27 46 45.5t68 18.5q23 0 40.5 -6t36.5 -14q22 -9 40 -15.5t38 -6.5q17 0 30 6t29 19l50 -64q-18 -27 -46 -45.5t-68 -18.5z" />
    <glyph glyph-name="uni1EA5" unicode="&#x1ea5;" 
d="M487 0q-46 0 -74 23.5t-33 67.5h-5q-14 -51 -55.5 -77t-101.5 -26q-75 0 -120.5 40.5t-45.5 113.5q0 81 59 120t173 39h83v26q0 46 -21.5 69.5t-72.5 23.5q-47 0 -76 -18t-50 -47l-81 72q26 44 81.5 72.5t142.5 28.5q106 0 165.5 -48.5t59.5 -146.5v-226h57v-107h-85z
M274 85q39 0 66 19t27 55v62h-79q-91 0 -91 -61v-20q0 -27 21 -41t56 -14zM465 724l-79 39l99 194l114 -57zM339 772l145 -147l-70 -64l-124 104l-124 -104l-66 64l145 147h94z" />
    <glyph glyph-name="uni1EAD" unicode="&#x1ead;" 
d="M487 0q-46 0 -74 23.5t-33 67.5h-5q-14 -51 -55.5 -77t-101.5 -26q-75 0 -120.5 40.5t-45.5 113.5q0 81 59 120t173 39h83v26q0 46 -21.5 69.5t-72.5 23.5q-47 0 -76 -18t-50 -47l-81 72q26 44 81.5 72.5t142.5 28.5q106 0 165.5 -48.5t59.5 -146.5v-226h57v-107h-85z
M274 85q39 0 66 19t27 55v62h-79q-91 0 -91 -61v-20q0 -27 21 -41t56 -14zM355 786l132 -159l-75 -58l-121 115l-121 -115l-71 58l132 159h124zM292 -203q-45 0 -63 18t-18 44v26q0 27 18 45t63 18t63 -18t18 -45v-26q0 -26 -18 -44t-63 -18z" />
    <glyph glyph-name="uni1EA7" unicode="&#x1ea7;" 
d="M487 0q-46 0 -74 23.5t-33 67.5h-5q-14 -51 -55.5 -77t-101.5 -26q-75 0 -120.5 40.5t-45.5 113.5q0 81 59 120t173 39h83v26q0 46 -21.5 69.5t-72.5 23.5q-47 0 -76 -18t-50 -47l-81 72q26 44 81.5 72.5t142.5 28.5q106 0 165.5 -48.5t59.5 -146.5v-226h57v-107h-85z
M274 85q39 0 66 19t27 55v62h-79q-91 0 -91 -61v-20q0 -27 21 -41t56 -14zM-15 900l114 57l99 -194l-79 -39zM339 772l145 -147l-70 -64l-124 104l-124 -104l-66 64l145 147h94z" />
    <glyph glyph-name="uni1EA9" unicode="&#x1ea9;" 
d="M487 0q-46 0 -74 23.5t-33 67.5h-5q-14 -51 -55.5 -77t-101.5 -26q-75 0 -120.5 40.5t-45.5 113.5q0 81 59 120t173 39h83v26q0 46 -21.5 69.5t-72.5 23.5q-47 0 -76 -18t-50 -47l-81 72q26 44 81.5 72.5t142.5 28.5q106 0 165.5 -48.5t59.5 -146.5v-226h57v-107h-85z
M274 85q39 0 66 19t27 55v62h-79q-91 0 -91 -61v-20q0 -27 21 -41t56 -14zM330 943h134q28 0 46.5 -6t30 -16t16.5 -23t5 -27q0 -30 -19 -63.5t-44 -63.5l-27 -33l-66 34l43 97h-119v101zM339 772l145 -147l-70 -64l-124 104l-124 -104l-66 64l145 147h94z" />
    <glyph glyph-name="uni1EAB" unicode="&#x1eab;" 
d="M487 0q-46 0 -74 23.5t-33 67.5h-5q-14 -51 -55.5 -77t-101.5 -26q-75 0 -120.5 40.5t-45.5 113.5q0 81 59 120t173 39h83v26q0 46 -21.5 69.5t-72.5 23.5q-47 0 -76 -18t-50 -47l-81 72q26 44 81.5 72.5t142.5 28.5q106 0 165.5 -48.5t59.5 -146.5v-226h57v-107h-85z
M274 85q39 0 66 19t27 55v62h-79q-91 0 -91 -61v-20q0 -27 21 -41t56 -14zM217 933q23 0 40.5 -6t36.5 -14q22 -9 40 -15.5t38 -6.5q17 0 30 6t29 19l50 -64q-18 -27 -46 -45.5t-68 -18.5q-23 0 -40.5 6t-36.5 14q-22 9 -40 15.5t-38 6.5q-17 0 -30 -6t-29 -19l-50 64
q18 27 46 45.5t68 18.5zM340 759l142 -134l-67 -64l-124 95l-124 -95l-65 64l142 134h96z" />
    <glyph glyph-name="aacute.alt01" 
d="M393 94h-7q-20 -47 -55.5 -76.5t-97.5 -29.5q-43 0 -78.5 16t-61 49t-40 84t-14.5 121t14.5 121t40 84t61 49t78.5 16q31 0 55 -8t42.5 -22t32 -33.5t23.5 -42.5h7v94h148v-516h-148v94zM297 103q39 0 67.5 19t28.5 60v152q0 41 -28.5 60t-67.5 19q-50 0 -77 -30.5
t-27 -84.5v-80q0 -54 27 -84.5t77 -30.5zM308 570l-88 43l99 194l123 -61z" />
    <glyph glyph-name="abreve.alt01" 
d="M393 94h-7q-20 -47 -55.5 -76.5t-97.5 -29.5q-43 0 -78.5 16t-61 49t-40 84t-14.5 121t14.5 121t40 84t61 49t78.5 16q31 0 55 -8t42.5 -22t32 -33.5t23.5 -42.5h7v94h148v-516h-148v94zM297 103q39 0 67.5 19t28.5 60v152q0 41 -28.5 60t-67.5 19q-50 0 -77 -30.5
t-27 -84.5v-80q0 -54 27 -84.5t77 -30.5zM292 570q-45 0 -77.5 16.5t-55 41.5t-37.5 55t-24 57l83 42l21 -32q23 -36 42 -56.5t48 -20.5t48 20.5t42 56.5l21 32l83 -42q-9 -27 -24 -57t-37.5 -55t-55 -41.5t-77.5 -16.5z" />
    <glyph glyph-name="acircumflex.alt01" 
d="M393 94h-7q-20 -47 -55.5 -76.5t-97.5 -29.5q-43 0 -78.5 16t-61 49t-40 84t-14.5 121t14.5 121t40 84t61 49t78.5 16q31 0 55 -8t42.5 -22t32 -33.5t23.5 -42.5h7v94h148v-516h-148v94zM297 103q39 0 67.5 19t28.5 60v152q0 41 -28.5 60t-67.5 19q-50 0 -77 -30.5
t-27 -84.5v-80q0 -54 27 -84.5t77 -30.5zM354 786l132 -159l-75 -58l-121 115l-121 -115l-71 58l132 159h124z" />
    <glyph glyph-name="adieresis.alt01" 
d="M393 94h-7q-20 -47 -55.5 -76.5t-97.5 -29.5q-43 0 -78.5 16t-61 49t-40 84t-14.5 121t14.5 121t40 84t61 49t78.5 16q31 0 55 -8t42.5 -22t32 -33.5t23.5 -42.5h7v94h148v-516h-148v94zM297 103q39 0 67.5 19t28.5 60v152q0 41 -28.5 60t-67.5 19q-50 0 -77 -30.5
t-27 -84.5v-80q0 -54 27 -84.5t77 -30.5zM182 591q-45 0 -62.5 18.5t-17.5 44.5v26q0 26 17.5 44t62.5 18t63 -18t18 -44v-26q0 -26 -18 -44.5t-63 -18.5zM402 591q-45 0 -63 18.5t-18 44.5v26q0 26 18 44t63 18t62.5 -18t17.5 -44v-26q0 -26 -17.5 -44.5t-62.5 -18.5z" />
    <glyph glyph-name="uni1EA1.alt01" 
d="M393 94h-7q-20 -47 -55.5 -76.5t-97.5 -29.5q-43 0 -78.5 16t-61 49t-40 84t-14.5 121t14.5 121t40 84t61 49t78.5 16q31 0 55 -8t42.5 -22t32 -33.5t23.5 -42.5h7v94h148v-516h-148v94zM297 103q39 0 67.5 19t28.5 60v152q0 41 -28.5 60t-67.5 19q-50 0 -77 -30.5
t-27 -84.5v-80q0 -54 27 -84.5t77 -30.5zM291 -203q-45 0 -63 18t-18 44v26q0 27 18 45t63 18t63 -18t18 -45v-26q0 -26 -18 -44t-63 -18z" />
    <glyph glyph-name="agrave.alt01" 
d="M393 94h-7q-20 -47 -55.5 -76.5t-97.5 -29.5q-43 0 -78.5 16t-61 49t-40 84t-14.5 121t14.5 121t40 84t61 49t78.5 16q31 0 55 -8t42.5 -22t32 -33.5t23.5 -42.5h7v94h148v-516h-148v94zM297 103q39 0 67.5 19t28.5 60v152q0 41 -28.5 60t-67.5 19q-50 0 -77 -30.5
t-27 -84.5v-80q0 -54 27 -84.5t77 -30.5zM142 746l123 61l99 -194l-88 -43z" />
    <glyph glyph-name="uni1EA3.alt01" 
d="M393 94h-7q-20 -47 -55.5 -76.5t-97.5 -29.5q-43 0 -78.5 16t-61 49t-40 84t-14.5 121t14.5 121t40 84t61 49t78.5 16q31 0 55 -8t42.5 -22t32 -33.5t23.5 -42.5h7v94h148v-516h-148v94zM297 103q39 0 67.5 19t28.5 60v152q0 41 -28.5 60t-67.5 19q-50 0 -77 -30.5
t-27 -84.5v-80q0 -54 27 -84.5t77 -30.5zM171 793h143q28 0 47 -6t30 -16t16 -23t5 -28q0 -29 -16 -62.5t-41 -63.5l-28 -34l-75 35l41 92h-122v106z" />
    <glyph glyph-name="amacron.alt01" 
d="M393 94h-7q-20 -47 -55.5 -76.5t-97.5 -29.5q-43 0 -78.5 16t-61 49t-40 84t-14.5 121t14.5 121t40 84t61 49t78.5 16q31 0 55 -8t42.5 -22t32 -33.5t23.5 -42.5h7v94h148v-516h-148v94zM297 103q39 0 67.5 19t28.5 60v152q0 41 -28.5 60t-67.5 19q-50 0 -77 -30.5
t-27 -84.5v-80q0 -54 27 -84.5t77 -30.5zM139 718h306v-103h-306v103z" />
    <glyph glyph-name="aogonek.alt01" 
d="M451 -212q-25 0 -47.5 4.5t-39.5 14t-27 26t-10 40.5q0 42 31.5 69.5t87.5 53.5l-1 4h-52v94h-7q-20 -47 -55.5 -76.5t-97.5 -29.5q-43 0 -78.5 16t-61 49t-40 84t-14.5 121t14.5 121t40 84t61 49t78.5 16q31 0 55 -8t42.5 -22t32 -33.5t23.5 -42.5h7v94h148v-516
q-37 -23 -59.5 -38.5t-34.5 -27.5t-16 -21t-4 -18q0 -19 11.5 -26t26.5 -7q18 0 31 8t24 20l53 -51q-13 -24 -43.5 -37.5t-78.5 -13.5zM297 103q39 0 67.5 19t28.5 60v152q0 41 -28.5 60t-67.5 19q-50 0 -77 -30.5t-27 -84.5v-80q0 -54 27 -84.5t77 -30.5z" />
    <glyph glyph-name="aring.alt01" 
d="M393 94h-7q-20 -47 -55.5 -76.5t-97.5 -29.5q-43 0 -78.5 16t-61 49t-40 84t-14.5 121t14.5 121t40 84t61 49t78.5 16q31 0 55 -8t42.5 -22t32 -33.5t23.5 -42.5h7v94h148v-516h-148v94zM297 103q39 0 67.5 19t28.5 60v152q0 41 -28.5 60t-67.5 19q-50 0 -77 -30.5
t-27 -84.5v-80q0 -54 27 -84.5t77 -30.5zM292 549q-31 0 -58 10.5t-47 29.5t-31.5 45.5t-11.5 57.5t11.5 57t31.5 45t47 30t58 11t58 -10.5t47 -29.5t31.5 -45.5t11.5 -57.5t-11.5 -57t-31.5 -45t-47 -30t-58 -11zM292 624q25 0 38 14t13 37v34q0 24 -13 37.5t-38 13.5
t-38 -14t-13 -37v-34q0 -24 13 -37.5t38 -13.5z" />
    <glyph glyph-name="aringacute.alt01" 
d="M393 94h-7q-20 -47 -55.5 -76.5t-97.5 -29.5q-43 0 -78.5 16t-61 49t-40 84t-14.5 121t14.5 121t40 84t61 49t78.5 16q31 0 55 -8t42.5 -22t32 -33.5t23.5 -42.5h7v94h148v-516h-148v94zM297 103q39 0 67.5 19t28.5 60v152q0 41 -28.5 60t-67.5 19q-50 0 -77 -30.5
t-27 -84.5v-80q0 -54 27 -84.5t77 -30.5zM285 806l-53 57l129 117l74 -81zM292 555q-32 0 -59.5 8t-48 23.5t-32.5 37.5t-12 51q0 28 12 50.5t32.5 38t48 23.5t59.5 8t59.5 -8t48 -23.5t32.5 -38t12 -50.5t-12 -50.5t-32.5 -38t-48 -23.5t-59.5 -8zM292 625q55 0 55 45v10
q0 24 -14 34.5t-41 10.5q-55 0 -55 -45v-10q0 -24 14 -34.5t41 -10.5z" />
    <glyph glyph-name="atilde.alt01" 
d="M393 94h-7q-20 -47 -55.5 -76.5t-97.5 -29.5q-43 0 -78.5 16t-61 49t-40 84t-14.5 121t14.5 121t40 84t61 49t78.5 16q31 0 55 -8t42.5 -22t32 -33.5t23.5 -42.5h7v94h148v-516h-148v94zM297 103q39 0 67.5 19t28.5 60v152q0 41 -28.5 60t-67.5 19q-50 0 -77 -30.5
t-27 -84.5v-80q0 -54 27 -84.5t77 -30.5zM368 592q-23 0 -40.5 6t-36.5 14q-22 9 -40 15.5t-38 6.5q-17 0 -30 -6t-29 -19l-52 68q18 27 46 45.5t68 18.5q23 0 40.5 -6t36.5 -14q22 -9 40 -15.5t38 -6.5q17 0 30 6t29 19l52 -68q-18 -27 -46 -45.5t-68 -18.5z" />
    <glyph glyph-name="uni1EAF.alt01" 
d="M393 94h-7q-20 -47 -55.5 -76.5t-97.5 -29.5q-43 0 -78.5 16t-61 49t-40 84t-14.5 121t14.5 121t40 84t61 49t78.5 16q31 0 55 -8t42.5 -22t32 -33.5t23.5 -42.5h7v94h148v-516h-148v94zM297 103q39 0 67.5 19t28.5 60v152q0 41 -28.5 60t-67.5 19q-50 0 -77 -30.5
t-27 -84.5v-80q0 -54 27 -84.5t77 -30.5zM291 563q-46 0 -79.5 13.5t-57.5 35.5t-39.5 48t-25.5 52l75 47l21 -28q15 -20 27.5 -32.5t24.5 -20.5t25 -11t29 -3q31 0 54 14t52 53l21 28l75 -47q-10 -26 -25.5 -52t-39.5 -48t-57.5 -35.5t-79.5 -13.5zM310 724l-79 39l99 194
l114 -57z" />
    <glyph glyph-name="uni1EB7.alt01" 
d="M393 94h-7q-20 -47 -55.5 -76.5t-97.5 -29.5q-43 0 -78.5 16t-61 49t-40 84t-14.5 121t14.5 121t40 84t61 49t78.5 16q31 0 55 -8t42.5 -22t32 -33.5t23.5 -42.5h7v94h148v-516h-148v94zM297 103q39 0 67.5 19t28.5 60v152q0 41 -28.5 60t-67.5 19q-50 0 -77 -30.5
t-27 -84.5v-80q0 -54 27 -84.5t77 -30.5zM292 570q-45 0 -77.5 16.5t-55 41.5t-37.5 55t-24 57l83 42l21 -32q23 -36 42 -56.5t48 -20.5t48 20.5t42 56.5l21 32l83 -42q-9 -27 -24 -57t-37.5 -55t-55 -41.5t-77.5 -16.5zM291 -203q-45 0 -63 18t-18 44v26q0 27 18 45t63 18
t63 -18t18 -45v-26q0 -26 -18 -44t-63 -18z" />
    <glyph glyph-name="uni1EB1.alt01" 
d="M393 94h-7q-20 -47 -55.5 -76.5t-97.5 -29.5q-43 0 -78.5 16t-61 49t-40 84t-14.5 121t14.5 121t40 84t61 49t78.5 16q31 0 55 -8t42.5 -22t32 -33.5t23.5 -42.5h7v94h148v-516h-148v94zM297 103q39 0 67.5 19t28.5 60v152q0 41 -28.5 60t-67.5 19q-50 0 -77 -30.5
t-27 -84.5v-80q0 -54 27 -84.5t77 -30.5zM291 563q-46 0 -79.5 13.5t-57.5 35.5t-39.5 48t-25.5 52l75 47l21 -28q15 -20 27.5 -32.5t24.5 -20.5t25 -11t29 -3q31 0 54 14t52 53l21 28l75 -47q-10 -26 -25.5 -52t-39.5 -48t-57.5 -35.5t-79.5 -13.5zM138 900l114 57l99 -194
l-79 -39z" />
    <glyph glyph-name="uni1EB3.alt01" 
d="M393 94h-7q-20 -47 -55.5 -76.5t-97.5 -29.5q-43 0 -78.5 16t-61 49t-40 84t-14.5 121t14.5 121t40 84t61 49t78.5 16q31 0 55 -8t42.5 -22t32 -33.5t23.5 -42.5h7v94h148v-516h-148v94zM297 103q39 0 67.5 19t28.5 60v152q0 41 -28.5 60t-67.5 19q-50 0 -77 -30.5
t-27 -84.5v-80q0 -54 27 -84.5t77 -30.5zM291 563q-46 0 -79.5 13.5t-57.5 35.5t-39.5 48t-25.5 52l75 47l21 -28q15 -20 27.5 -32.5t24.5 -20.5t25 -11t29 -3q31 0 54 14t52 53l21 28l75 -47q-10 -26 -25.5 -52t-39.5 -48t-57.5 -35.5t-79.5 -13.5zM161 943h136q28 0 47 -6
t30 -16t16 -23t5 -27q0 -30 -18.5 -63t-43.5 -64l-27 -33l-66 32l43 99h-122v101z" />
    <glyph glyph-name="uni1EB5.alt01" 
d="M393 94h-7q-20 -47 -55.5 -76.5t-97.5 -29.5q-43 0 -78.5 16t-61 49t-40 84t-14.5 121t14.5 121t40 84t61 49t78.5 16q31 0 55 -8t42.5 -22t32 -33.5t23.5 -42.5h7v94h148v-516h-148v94zM297 103q39 0 67.5 19t28.5 60v152q0 41 -28.5 60t-67.5 19q-50 0 -77 -30.5
t-27 -84.5v-80q0 -54 27 -84.5t77 -30.5zM291 563q-46 0 -79.5 13.5t-57.5 35.5t-39.5 48t-25.5 52l75 47l21 -28q15 -20 27.5 -32.5t24.5 -20.5t25 -11t29 -3q31 0 54 14t52 53l21 28l75 -47q-10 -26 -25.5 -52t-39.5 -48t-57.5 -35.5t-79.5 -13.5zM366 778q-23 0 -40.5 6
t-36.5 14q-22 9 -40 15.5t-38 6.5q-17 0 -30 -6t-29 -19l-50 64q18 27 46 45.5t68 18.5q23 0 40.5 -6t36.5 -14q22 -9 40 -15.5t38 -6.5q17 0 30 6t29 19l50 -64q-18 -27 -46 -45.5t-68 -18.5z" />
    <glyph glyph-name="uni1EA5.alt01" 
d="M393 94h-7q-20 -47 -55.5 -76.5t-97.5 -29.5q-43 0 -78.5 16t-61 49t-40 84t-14.5 121t14.5 121t40 84t61 49t78.5 16q31 0 55 -8t42.5 -22t32 -33.5t23.5 -42.5h7v94h148v-516h-148v94zM297 103q39 0 67.5 19t28.5 60v152q0 41 -28.5 60t-67.5 19q-50 0 -77 -30.5
t-27 -84.5v-80q0 -54 27 -84.5t77 -30.5zM464 724l-79 39l99 194l114 -57zM338 772l145 -147l-70 -64l-124 104l-124 -104l-66 64l145 147h94z" />
    <glyph glyph-name="uni1EAD.alt01" 
d="M393 94h-7q-20 -47 -55.5 -76.5t-97.5 -29.5q-43 0 -78.5 16t-61 49t-40 84t-14.5 121t14.5 121t40 84t61 49t78.5 16q31 0 55 -8t42.5 -22t32 -33.5t23.5 -42.5h7v94h148v-516h-148v94zM297 103q39 0 67.5 19t28.5 60v152q0 41 -28.5 60t-67.5 19q-50 0 -77 -30.5
t-27 -84.5v-80q0 -54 27 -84.5t77 -30.5zM354 786l132 -159l-75 -58l-121 115l-121 -115l-71 58l132 159h124zM291 -203q-45 0 -63 18t-18 44v26q0 27 18 45t63 18t63 -18t18 -45v-26q0 -26 -18 -44t-63 -18z" />
    <glyph glyph-name="uni1EA7.alt01" 
d="M393 94h-7q-20 -47 -55.5 -76.5t-97.5 -29.5q-43 0 -78.5 16t-61 49t-40 84t-14.5 121t14.5 121t40 84t61 49t78.5 16q31 0 55 -8t42.5 -22t32 -33.5t23.5 -42.5h7v94h148v-516h-148v94zM297 103q39 0 67.5 19t28.5 60v152q0 41 -28.5 60t-67.5 19q-50 0 -77 -30.5
t-27 -84.5v-80q0 -54 27 -84.5t77 -30.5zM-16 900l114 57l99 -194l-79 -39zM338 772l145 -147l-70 -64l-124 104l-124 -104l-66 64l145 147h94z" />
    <glyph glyph-name="uni1EA9.alt01" 
d="M393 94h-7q-20 -47 -55.5 -76.5t-97.5 -29.5q-43 0 -78.5 16t-61 49t-40 84t-14.5 121t14.5 121t40 84t61 49t78.5 16q31 0 55 -8t42.5 -22t32 -33.5t23.5 -42.5h7v94h148v-516h-148v94zM297 103q39 0 67.5 19t28.5 60v152q0 41 -28.5 60t-67.5 19q-50 0 -77 -30.5
t-27 -84.5v-80q0 -54 27 -84.5t77 -30.5zM329 943h134q28 0 46.5 -6t30 -16t16.5 -23t5 -27q0 -30 -19 -63.5t-44 -63.5l-27 -33l-66 34l43 97h-119v101zM338 772l145 -147l-70 -64l-124 104l-124 -104l-66 64l145 147h94z" />
    <glyph glyph-name="uni1EAB.alt01" 
d="M393 94h-7q-20 -47 -55.5 -76.5t-97.5 -29.5q-43 0 -78.5 16t-61 49t-40 84t-14.5 121t14.5 121t40 84t61 49t78.5 16q31 0 55 -8t42.5 -22t32 -33.5t23.5 -42.5h7v94h148v-516h-148v94zM297 103q39 0 67.5 19t28.5 60v152q0 41 -28.5 60t-67.5 19q-50 0 -77 -30.5
t-27 -84.5v-80q0 -54 27 -84.5t77 -30.5zM216 933q23 0 40.5 -6t36.5 -14q22 -9 40 -15.5t38 -6.5q17 0 30 6t29 19l50 -64q-18 -27 -46 -45.5t-68 -18.5q-23 0 -40.5 6t-36.5 14q-22 9 -40 15.5t-38 6.5q-17 0 -30 -6t-29 -19l-50 64q18 27 46 45.5t68 18.5zM339 759
l142 -134l-67 -64l-124 95l-124 -95l-65 64l142 134h96z" />
    <glyph glyph-name="ae" unicode="&#xe6;" 
d="M137 -12q-28 0 -52.5 9.5t-42.5 28.5t-28 48t-10 67q0 81 47 122.5t135 41.5h40v43q0 88 -59 88q-26 0 -39.5 -18t-22.5 -50l-92 33q17 65 57 96t98 31q46 0 77 -19t48 -54h4q42 73 119 73q38 0 69 -17t53 -48t34 -75t12 -99v-61h-239v-15q0 -58 18.5 -93.5t53.5 -35.5
q28 0 42 21.5t22 50.5l97 -27q-8 -29 -20.5 -55t-32 -45t-46 -30t-60.5 -11q-53 0 -96 27.5t-61 89.5h-4q-9 -61 -41 -89t-80 -28zM169 78q32 0 44.5 26t12.5 75v49h-29q-37 0 -57 -18t-20 -53v-19q0 -28 12 -44t37 -16zM410 438q-33 0 -49 -29.5t-16 -71.5v-32h130v32
q0 42 -16 71.5t-49 29.5z" />
    <glyph glyph-name="aeacute" unicode="&#x1fd;" 
d="M137 -12q-28 0 -52.5 9.5t-42.5 28.5t-28 48t-10 67q0 81 47 122.5t135 41.5h40v43q0 88 -59 88q-26 0 -39.5 -18t-22.5 -50l-92 33q17 65 57 96t98 31q46 0 77 -19t48 -54h4q42 73 119 73q38 0 69 -17t53 -48t34 -75t12 -99v-61h-239v-15q0 -58 18.5 -93.5t53.5 -35.5
q28 0 42 21.5t22 50.5l97 -27q-8 -29 -20.5 -55t-32 -45t-46 -30t-60.5 -11q-53 0 -96 27.5t-61 89.5h-4q-9 -61 -41 -89t-80 -28zM169 78q32 0 44.5 26t12.5 75v49h-29q-37 0 -57 -18t-20 -53v-19q0 -28 12 -44t37 -16zM410 438q-33 0 -49 -29.5t-16 -71.5v-32h130v32
q0 42 -16 71.5t-49 29.5zM315 570l-88 43l99 194l123 -61z" />
    <glyph glyph-name="cacute" unicode="&#x107;" 
d="M321 -12q-61 0 -109.5 18.5t-82 53.5t-51.5 85t-18 113t18 113t51.5 85t82 53.5t108.5 18.5q85 0 136.5 -34.5t78.5 -91.5l-114 -62q-14 30 -36.5 50t-64.5 20q-51 0 -78.5 -29.5t-27.5 -80.5v-84q0 -51 27.5 -80.5t80.5 -29.5q43 0 67.5 20t41.5 52l112 -64
q-28 -57 -81.5 -91.5t-140.5 -34.5zM330 570l-88 43l99 194l123 -61z" />
    <glyph glyph-name="ccaron" unicode="&#x10d;" 
d="M321 -12q-61 0 -109.5 18.5t-82 53.5t-51.5 85t-18 113t18 113t51.5 85t82 53.5t108.5 18.5q85 0 136.5 -34.5t78.5 -91.5l-114 -62q-14 30 -36.5 50t-64.5 20q-51 0 -78.5 -29.5t-27.5 -80.5v-84q0 -51 27.5 -80.5t80.5 -29.5q43 0 67.5 20t41.5 52l112 -64
q-28 -57 -81.5 -91.5t-140.5 -34.5zM252 578l-132 159l75 58l121 -115l121 115l71 -58l-132 -159h-124z" />
    <glyph glyph-name="ccedilla" unicode="&#xe7;" 
d="M320 528q85 0 136.5 -34.5t78.5 -91.5l-114 -62q-14 30 -36.5 50t-64.5 20q-51 0 -78.5 -29.5t-27.5 -80.5v-84q0 -51 27.5 -80.5t80.5 -29.5q43 0 67.5 20t41.5 52l112 -64q-27 -55 -78.5 -89.5t-133.5 -36.5l-9 -43l4 -4q12 3 24 5t24 2q30 0 51.5 -16t21.5 -53
q0 -26 -11 -43t-29.5 -28t-42.5 -15.5t-49 -4.5q-52 0 -81.5 14.5t-42.5 29.5l46 56q10 -12 26.5 -20.5t39.5 -8.5q19 0 31.5 6t12.5 19q0 6 -3 12t-11.5 11.5t-23 10t-37.5 6.5l-21 2l14 67q-97 16 -151 85t-54 180q0 63 18 113t51.5 85t82 53.5t108.5 18.5z" />
    <glyph glyph-name="ccircumflex" unicode="&#x109;" 
d="M321 -12q-61 0 -109.5 18.5t-82 53.5t-51.5 85t-18 113t18 113t51.5 85t82 53.5t108.5 18.5q85 0 136.5 -34.5t78.5 -91.5l-114 -62q-14 30 -36.5 50t-64.5 20q-51 0 -78.5 -29.5t-27.5 -80.5v-84q0 -51 27.5 -80.5t80.5 -29.5q43 0 67.5 20t41.5 52l112 -64
q-28 -57 -81.5 -91.5t-140.5 -34.5zM376 786l132 -159l-75 -58l-121 115l-121 -115l-71 58l132 159h124z" />
    <glyph glyph-name="cdotaccent" unicode="&#x10b;" 
d="M321 -12q-61 0 -109.5 18.5t-82 53.5t-51.5 85t-18 113t18 113t51.5 85t82 53.5t108.5 18.5q85 0 136.5 -34.5t78.5 -91.5l-114 -62q-14 30 -36.5 50t-64.5 20q-51 0 -78.5 -29.5t-27.5 -80.5v-84q0 -51 27.5 -80.5t80.5 -29.5q43 0 67.5 20t41.5 52l112 -64
q-28 -57 -81.5 -91.5t-140.5 -34.5zM314 582q-50 0 -69.5 20.5t-19.5 49.5v29q0 30 19.5 50t69.5 20t69.5 -20t19.5 -50v-29q0 -29 -19.5 -49.5t-69.5 -20.5z" />
    <glyph glyph-name="dcaron" unicode="&#x10f;" 
d="M185 -12q-74 0 -116 65.5t-42 204.5t42 204.5t116 65.5q52 0 79 -29t42 -76h8v317h141v-740h-141v93h-8q-15 -47 -42 -76t-79 -29zM244 97q31 0 50.5 20.5t19.5 62.5v156q0 42 -19.5 62.5t-50.5 20.5q-33 0 -51.5 -24t-18.5 -79v-116q0 -55 18.5 -79t51.5 -24zM508 740
h129l-54 -211h-77z" />
    <glyph glyph-name="dcroat" unicode="&#x111;" 
d="M393 94h-7q-20 -47 -55.5 -76.5t-97.5 -29.5q-43 0 -78.5 16t-61 49t-40 84t-14.5 121t14.5 121t40 84t61 49t78.5 16q31 0 55 -8t42.5 -22t32 -33.5t23.5 -42.5h7v158h-140v110h140v50h148v-50h55v-110h-55v-580h-148v94zM297 103q39 0 67.5 19t28.5 60v152
q0 41 -28.5 60t-67.5 19q-50 0 -77 -30.5t-27 -84.5v-80q0 -54 27 -84.5t77 -30.5z" />
    <glyph glyph-name="eth" unicode="&#xf0;" 
d="M483 693l-75 -44q33 -33 61 -72.5t48.5 -85.5t32 -99t11.5 -114q0 -76 -18.5 -131t-52.5 -90t-81.5 -52t-105.5 -17q-62 0 -111 18.5t-82.5 52.5t-51.5 83t-18 111q0 56 14.5 101.5t41 78t63.5 50t83 17.5q57 0 95 -25.5t62 -70.5l9 4q-14 46 -43 89.5t-71 84.5l-92 -54
l-51 60l82 48q-36 29 -76.5 55t-85.5 49h226q13 -8 25.5 -17.5t25.5 -19.5l85 50zM302 98q50 0 78 31t28 88v56q0 57 -29 86t-78 29q-51 0 -79.5 -30t-28.5 -87v-54q0 -57 29.5 -88t79.5 -31z" />
    <glyph glyph-name="eacute" unicode="&#xe9;" 
d="M314 -12q-130 0 -197 72t-67 196q0 63 17.5 113.5t50 86t79 54t104.5 18.5t104 -18.5t78 -52.5t49.5 -82.5t17.5 -108.5v-44h-353v-9q0 -50 31 -80.5t91 -30.5q46 0 79 17.5t57 46.5l80 -87q-30 -37 -84 -64t-137 -27zM302 422q-48 0 -76.5 -29.5t-28.5 -79.5v-8h208v8
q0 51 -27.5 80t-75.5 29zM317 570l-88 43l99 194l123 -61z" />
    <glyph glyph-name="ebreve" unicode="&#x115;" 
d="M314 -12q-130 0 -197 72t-67 196q0 63 17.5 113.5t50 86t79 54t104.5 18.5t104 -18.5t78 -52.5t49.5 -82.5t17.5 -108.5v-44h-353v-9q0 -50 31 -80.5t91 -30.5q46 0 79 17.5t57 46.5l80 -87q-30 -37 -84 -64t-137 -27zM302 422q-48 0 -76.5 -29.5t-28.5 -79.5v-8h208v8
q0 51 -27.5 80t-75.5 29zM301 570q-45 0 -77.5 16.5t-55 41.5t-37.5 55t-24 57l83 42l21 -32q23 -36 42 -56.5t48 -20.5t48 20.5t42 56.5l21 32l83 -42q-9 -27 -24 -57t-37.5 -55t-55 -41.5t-77.5 -16.5z" />
    <glyph glyph-name="ecaron" unicode="&#x11b;" 
d="M314 -12q-130 0 -197 72t-67 196q0 63 17.5 113.5t50 86t79 54t104.5 18.5t104 -18.5t78 -52.5t49.5 -82.5t17.5 -108.5v-44h-353v-9q0 -50 31 -80.5t91 -30.5q46 0 79 17.5t57 46.5l80 -87q-30 -37 -84 -64t-137 -27zM302 422q-48 0 -76.5 -29.5t-28.5 -79.5v-8h208v8
q0 51 -27.5 80t-75.5 29zM239 578l-132 159l75 58l121 -115l121 115l71 -58l-132 -159h-124z" />
    <glyph glyph-name="ecircumflex" unicode="&#xea;" 
d="M314 -12q-130 0 -197 72t-67 196q0 63 17.5 113.5t50 86t79 54t104.5 18.5t104 -18.5t78 -52.5t49.5 -82.5t17.5 -108.5v-44h-353v-9q0 -50 31 -80.5t91 -30.5q46 0 79 17.5t57 46.5l80 -87q-30 -37 -84 -64t-137 -27zM302 422q-48 0 -76.5 -29.5t-28.5 -79.5v-8h208v8
q0 51 -27.5 80t-75.5 29zM363 786l132 -159l-75 -58l-121 115l-121 -115l-71 58l132 159h124z" />
    <glyph glyph-name="edieresis" unicode="&#xeb;" 
d="M314 -12q-130 0 -197 72t-67 196q0 63 17.5 113.5t50 86t79 54t104.5 18.5t104 -18.5t78 -52.5t49.5 -82.5t17.5 -108.5v-44h-353v-9q0 -50 31 -80.5t91 -30.5q46 0 79 17.5t57 46.5l80 -87q-30 -37 -84 -64t-137 -27zM302 422q-48 0 -76.5 -29.5t-28.5 -79.5v-8h208v8
q0 51 -27.5 80t-75.5 29zM191 591q-45 0 -62.5 18.5t-17.5 44.5v26q0 26 17.5 44t62.5 18t63 -18t18 -44v-26q0 -26 -18 -44.5t-63 -18.5zM411 591q-45 0 -63 18.5t-18 44.5v26q0 26 18 44t63 18t62.5 -18t17.5 -44v-26q0 -26 -17.5 -44.5t-62.5 -18.5z" />
    <glyph glyph-name="edotaccent" unicode="&#x117;" 
d="M314 -12q-130 0 -197 72t-67 196q0 63 17.5 113.5t50 86t79 54t104.5 18.5t104 -18.5t78 -52.5t49.5 -82.5t17.5 -108.5v-44h-353v-9q0 -50 31 -80.5t91 -30.5q46 0 79 17.5t57 46.5l80 -87q-30 -37 -84 -64t-137 -27zM302 422q-48 0 -76.5 -29.5t-28.5 -79.5v-8h208v8
q0 51 -27.5 80t-75.5 29zM301 582q-50 0 -69.5 20.5t-19.5 49.5v29q0 30 19.5 50t69.5 20t69.5 -20t19.5 -50v-29q0 -29 -19.5 -49.5t-69.5 -20.5z" />
    <glyph glyph-name="uni1EB9" unicode="&#x1eb9;" 
d="M314 -12q-130 0 -197 72t-67 196q0 63 17.5 113.5t50 86t79 54t104.5 18.5t104 -18.5t78 -52.5t49.5 -82.5t17.5 -108.5v-44h-353v-9q0 -50 31 -80.5t91 -30.5q46 0 79 17.5t57 46.5l80 -87q-30 -37 -84 -64t-137 -27zM302 422q-48 0 -76.5 -29.5t-28.5 -79.5v-8h208v8
q0 51 -27.5 80t-75.5 29zM306 -203q-45 0 -63 18t-18 44v26q0 27 18 45t63 18t63 -18t18 -45v-26q0 -26 -18 -44t-63 -18z" />
    <glyph glyph-name="egrave" unicode="&#xe8;" 
d="M314 -12q-130 0 -197 72t-67 196q0 63 17.5 113.5t50 86t79 54t104.5 18.5t104 -18.5t78 -52.5t49.5 -82.5t17.5 -108.5v-44h-353v-9q0 -50 31 -80.5t91 -30.5q46 0 79 17.5t57 46.5l80 -87q-30 -37 -84 -64t-137 -27zM302 422q-48 0 -76.5 -29.5t-28.5 -79.5v-8h208v8
q0 51 -27.5 80t-75.5 29zM151 746l123 61l99 -194l-88 -43z" />
    <glyph glyph-name="uni1EBB" unicode="&#x1ebb;" 
d="M314 -12q-130 0 -197 72t-67 196q0 63 17.5 113.5t50 86t79 54t104.5 18.5t104 -18.5t78 -52.5t49.5 -82.5t17.5 -108.5v-44h-353v-9q0 -50 31 -80.5t91 -30.5q46 0 79 17.5t57 46.5l80 -87q-30 -37 -84 -64t-137 -27zM302 422q-48 0 -76.5 -29.5t-28.5 -79.5v-8h208v8
q0 51 -27.5 80t-75.5 29zM181 793h143q28 0 47 -6t30 -16t16 -23t5 -28q0 -29 -16 -62.5t-41 -63.5l-28 -34l-75 35l41 92h-122v106z" />
    <glyph glyph-name="emacron" unicode="&#x113;" 
d="M314 -12q-130 0 -197 72t-67 196q0 63 17.5 113.5t50 86t79 54t104.5 18.5t104 -18.5t78 -52.5t49.5 -82.5t17.5 -108.5v-44h-353v-9q0 -50 31 -80.5t91 -30.5q46 0 79 17.5t57 46.5l80 -87q-30 -37 -84 -64t-137 -27zM302 422q-48 0 -76.5 -29.5t-28.5 -79.5v-8h208v8
q0 51 -27.5 80t-75.5 29zM148 718h306v-103h-306v103z" />
    <glyph glyph-name="eogonek" unicode="&#x119;" 
d="M363 -212q-24 0 -46.5 4.5t-40 14t-27.5 25.5t-10 40q0 41 31.5 67t86.5 49l-2 5q-17 -5 -50 -5q-58 0 -105 17.5t-80.5 52t-51.5 84.5t-18 115q0 63 17.5 113t50 85.5t79 54t104.5 18.5t104 -18.5t78 -52.5t49.5 -82.5t17.5 -108.5v-44h-353v-9q0 -50 31 -80.5t91 -30.5
q46 0 79 17.5t57 46.5l80 -87q-9 -10 -18.5 -18.5t-21 -18t-27 -21.5t-36.5 -28q-27 -21 -44.5 -35t-28.5 -24.5t-15.5 -19.5t-4.5 -19q0 -19 11.5 -26t26.5 -7q18 0 31 8t24 20l53 -51q-13 -24 -43.5 -37.5t-78.5 -13.5zM405 305v8q0 51 -27.5 80t-75.5 29t-76.5 -29.5
t-28.5 -79.5v-8h208z" />
    <glyph glyph-name="uni1EBD" unicode="&#x1ebd;" 
d="M314 -12q-130 0 -197 72t-67 196q0 63 17.5 113.5t50 86t79 54t104.5 18.5t104 -18.5t78 -52.5t49.5 -82.5t17.5 -108.5v-44h-353v-9q0 -50 31 -80.5t91 -30.5q46 0 79 17.5t57 46.5l80 -87q-30 -37 -84 -64t-137 -27zM302 422q-48 0 -76.5 -29.5t-28.5 -79.5v-8h208v8
q0 51 -27.5 80t-75.5 29zM377 592q-23 0 -40.5 6t-36.5 14q-22 9 -40 15.5t-38 6.5q-17 0 -30 -6t-29 -19l-52 68q18 27 46 45.5t68 18.5q23 0 40.5 -6t36.5 -14q22 -9 40 -15.5t38 -6.5q17 0 30 6t29 19l52 -68q-18 -27 -46 -45.5t-68 -18.5z" />
    <glyph glyph-name="uni1EBF" unicode="&#x1ebf;" 
d="M314 -12q-130 0 -197 72t-67 196q0 63 17.5 113.5t50 86t79 54t104.5 18.5t104 -18.5t78 -52.5t49.5 -82.5t17.5 -108.5v-44h-353v-9q0 -50 31 -80.5t91 -30.5q46 0 79 17.5t57 46.5l80 -87q-30 -37 -84 -64t-137 -27zM302 422q-48 0 -76.5 -29.5t-28.5 -79.5v-8h208v8
q0 51 -27.5 80t-75.5 29zM474 724l-79 39l99 194l114 -57zM348 772l145 -147l-70 -64l-124 104l-124 -104l-66 64l145 147h94z" />
    <glyph glyph-name="uni1EC7" unicode="&#x1ec7;" 
d="M314 -12q-130 0 -197 72t-67 196q0 63 17.5 113.5t50 86t79 54t104.5 18.5t104 -18.5t78 -52.5t49.5 -82.5t17.5 -108.5v-44h-353v-9q0 -50 31 -80.5t91 -30.5q46 0 79 17.5t57 46.5l80 -87q-30 -37 -84 -64t-137 -27zM302 422q-48 0 -76.5 -29.5t-28.5 -79.5v-8h208v8
q0 51 -27.5 80t-75.5 29zM363 786l132 -159l-75 -58l-121 115l-121 -115l-71 58l132 159h124zM306 -203q-45 0 -63 18t-18 44v26q0 27 18 45t63 18t63 -18t18 -45v-26q0 -26 -18 -44t-63 -18z" />
    <glyph glyph-name="uni1EC1" unicode="&#x1ec1;" 
d="M314 -12q-130 0 -197 72t-67 196q0 63 17.5 113.5t50 86t79 54t104.5 18.5t104 -18.5t78 -52.5t49.5 -82.5t17.5 -108.5v-44h-353v-9q0 -50 31 -80.5t91 -30.5q46 0 79 17.5t57 46.5l80 -87q-30 -37 -84 -64t-137 -27zM302 422q-48 0 -76.5 -29.5t-28.5 -79.5v-8h208v8
q0 51 -27.5 80t-75.5 29zM-6 900l114 57l99 -194l-79 -39zM348 772l145 -147l-70 -64l-124 104l-124 -104l-66 64l145 147h94z" />
    <glyph glyph-name="uni1EC3" unicode="&#x1ec3;" 
d="M314 -12q-130 0 -197 72t-67 196q0 63 17.5 113.5t50 86t79 54t104.5 18.5t104 -18.5t78 -52.5t49.5 -82.5t17.5 -108.5v-44h-353v-9q0 -50 31 -80.5t91 -30.5q46 0 79 17.5t57 46.5l80 -87q-30 -37 -84 -64t-137 -27zM302 422q-48 0 -76.5 -29.5t-28.5 -79.5v-8h208v8
q0 51 -27.5 80t-75.5 29zM339 943h134q28 0 46.5 -6t30 -16t16.5 -23t5 -27q0 -30 -19 -63.5t-44 -63.5l-27 -33l-66 34l43 97h-119v101zM348 772l145 -147l-70 -64l-124 104l-124 -104l-66 64l145 147h94z" />
    <glyph glyph-name="uni1EC5" unicode="&#x1ec5;" 
d="M314 -12q-130 0 -197 72t-67 196q0 63 17.5 113.5t50 86t79 54t104.5 18.5t104 -18.5t78 -52.5t49.5 -82.5t17.5 -108.5v-44h-353v-9q0 -50 31 -80.5t91 -30.5q46 0 79 17.5t57 46.5l80 -87q-30 -37 -84 -64t-137 -27zM302 422q-48 0 -76.5 -29.5t-28.5 -79.5v-8h208v8
q0 51 -27.5 80t-75.5 29zM226 933q23 0 40.5 -6t36.5 -14q22 -9 40 -15.5t38 -6.5q17 0 30 6t29 19l50 -64q-18 -27 -46 -45.5t-68 -18.5q-23 0 -40.5 6t-36.5 14q-22 9 -40 15.5t-38 6.5q-17 0 -30 -6t-29 -19l-50 64q18 27 46 45.5t68 18.5zM349 759l142 -134l-67 -64
l-124 95l-124 -95l-65 64l142 134h96z" />
    <glyph glyph-name="uni0259" unicode="&#x259;" 
d="M403 294v9q0 50 -31 80.5t-91 30.5q-46 0 -79 -17.5t-57 -46.5l-80 87q30 37 84 64t137 27q130 0 197 -72t67 -196q0 -63 -17.5 -113.5t-50 -86t-79 -54t-104.5 -18.5t-104 18.5t-78.5 52.5t-49.5 82.5t-17 108.5v44h353zM195 203q0 -51 27.5 -80t75.5 -29t76.5 29.5
t28.5 79.5v8h-208v-8z" />
    <glyph glyph-name="gbreve" unicode="&#x11f;" 
d="M297 -212q-74 0 -122 8.5t-76.5 24.5t-40 38t-11.5 48q0 44 26 66.5t73 34.5v6q-33 10 -52.5 28.5t-19.5 52.5q0 38 25.5 56t67.5 28v6q-46 23 -71.5 63t-25.5 97q0 90 61.5 136.5t164.5 46.5q50 0 91 -12h194v-98h-83q12 -16 17 -34.5t5 -41.5q0 -44 -16 -77.5t-46 -57
t-71.5 -35.5t-92.5 -12q-23 0 -44 2.5t-40 7.5q-11 -6 -18.5 -15t-7.5 -23q0 -12 6 -19t16.5 -10.5t24.5 -4.5t29 -1h118q55 0 94 -11t64 -31t36 -47t11 -60q0 -82 -69 -121t-217 -39zM294 254q45 0 65.5 22t20.5 56v24q0 34 -20.5 56t-65.5 22q-44 0 -64 -22t-20 -56v-24
q0 -34 20 -56t64 -22zM443 -63q0 20 -16 31.5t-61 11.5h-177q-20 -17 -20 -42q0 -24 20.5 -39.5t69.5 -15.5h87q51 0 74 14t23 40zM295 570q-45 0 -77.5 16.5t-55 41.5t-37.5 55t-24 57l83 42l21 -32q23 -36 42 -56.5t48 -20.5t48 20.5t42 56.5l21 32l83 -42q-9 -27 -24 -57
t-37.5 -55t-55 -41.5t-77.5 -16.5z" />
    <glyph glyph-name="gcircumflex" unicode="&#x11d;" 
d="M297 -212q-74 0 -122 8.5t-76.5 24.5t-40 38t-11.5 48q0 44 26 66.5t73 34.5v6q-33 10 -52.5 28.5t-19.5 52.5q0 38 25.5 56t67.5 28v6q-46 23 -71.5 63t-25.5 97q0 90 61.5 136.5t164.5 46.5q50 0 91 -12h194v-98h-83q12 -16 17 -34.5t5 -41.5q0 -44 -16 -77.5t-46 -57
t-71.5 -35.5t-92.5 -12q-23 0 -44 2.5t-40 7.5q-11 -6 -18.5 -15t-7.5 -23q0 -12 6 -19t16.5 -10.5t24.5 -4.5t29 -1h118q55 0 94 -11t64 -31t36 -47t11 -60q0 -82 -69 -121t-217 -39zM294 254q45 0 65.5 22t20.5 56v24q0 34 -20.5 56t-65.5 22q-44 0 -64 -22t-20 -56v-24
q0 -34 20 -56t64 -22zM443 -63q0 20 -16 31.5t-61 11.5h-177q-20 -17 -20 -42q0 -24 20.5 -39.5t69.5 -15.5h87q51 0 74 14t23 40zM357 786l132 -159l-75 -58l-121 115l-121 -115l-71 58l132 159h124z" />
    <glyph glyph-name="gcommaaccent" unicode="&#x123;" 
d="M583 -52q0 -82 -69 -121t-217 -39q-74 0 -122 8.5t-76.5 24.5t-40 38t-11.5 48q0 44 26 66.5t73 34.5v6q-33 10 -52.5 28.5t-19.5 52.5q0 38 25.5 56t67.5 28v6q-46 22 -71.5 62t-25.5 97q0 45 16 79.5t45.5 57.5t70.5 35t92 12q49 0 91 -11v28q0 30 21 50t58 20h91v-108
h-124v-9q42 -22 65.5 -60.5t23.5 -93.5q0 -45 -16 -79t-46 -57.5t-71.5 -35.5t-92.5 -12q-23 0 -44 2.5t-40 7.5q-11 -6 -18.5 -15t-7.5 -23q0 -12 6 -19t16.5 -10.5t24.5 -4.5t29 -1h118q55 0 94 -11t64 -31t36 -47t11 -60zM443 -63q0 20 -16 31.5t-61 11.5h-177
q-20 -17 -20 -42q0 -24 20.5 -39.5t69.5 -15.5h87q51 0 74 14t23 40zM294 254q45 0 65.5 22t20.5 56v24q0 34 -20.5 56t-65.5 22q-44 0 -64 -22t-20 -56v-24q0 -34 20 -56t64 -22zM303 794h88l-18 -215h-157z" />
    <glyph glyph-name="gdotaccent" unicode="&#x121;" 
d="M583 -52q0 -82 -69 -121t-217 -39q-74 0 -122 8.5t-76.5 24.5t-40 38t-11.5 48q0 44 26 66.5t73 34.5v6q-33 10 -52.5 28.5t-19.5 52.5q0 38 25.5 56t67.5 28v6q-46 22 -71.5 62t-25.5 97q0 45 16 79.5t45.5 57.5t70.5 35t92 12q49 0 91 -11v28q0 30 21 50t58 20h91v-108
h-124v-9q42 -22 65.5 -60.5t23.5 -93.5q0 -45 -16 -79t-46 -57.5t-71.5 -35.5t-92.5 -12q-23 0 -44 2.5t-40 7.5q-11 -6 -18.5 -15t-7.5 -23q0 -12 6 -19t16.5 -10.5t24.5 -4.5t29 -1h118q55 0 94 -11t64 -31t36 -47t11 -60zM443 -63q0 20 -16 31.5t-61 11.5h-177
q-20 -17 -20 -42q0 -24 20.5 -39.5t69.5 -15.5h87q51 0 74 14t23 40zM294 254q45 0 65.5 22t20.5 56v24q0 34 -20.5 56t-65.5 22q-44 0 -64 -22t-20 -56v-24q0 -34 20 -56t64 -22zM295 582q-50 0 -69.5 20.5t-19.5 49.5v29q0 30 19.5 50t69.5 20t69.5 -20t19.5 -50v-29
q0 -29 -19.5 -49.5t-69.5 -20.5z" />
    <glyph glyph-name="gbreve.alt01" 
d="M541 31q0 -115 -65 -179t-196 -64q-78 0 -128.5 21.5t-81.5 53.5l79 94q51 -53 127 -53q60 0 88.5 30t28.5 84v103h-7q-20 -47 -55.5 -77t-97.5 -30q-43 0 -78.5 16t-61 48t-40 80t-14.5 113t14.5 113t40 80t61 48t78.5 16q31 0 55 -8t42.5 -22t32 -33.5t23.5 -42.5h7v94
h148v-485zM297 129q39 0 67.5 19t28.5 60v126q0 41 -28.5 60t-67.5 19q-50 0 -77 -30.5t-27 -84.5v-53q0 -54 27 -85t77 -31zM292 570q-45 0 -77.5 16.5t-55 41.5t-37.5 55t-24 57l83 42l21 -32q23 -36 42 -56.5t48 -20.5t48 20.5t42 56.5l21 32l83 -42q-9 -27 -24 -57
t-37.5 -55t-55 -41.5t-77.5 -16.5z" />
    <glyph glyph-name="gcircumflex.alt01" 
d="M541 31q0 -115 -65 -179t-196 -64q-78 0 -128.5 21.5t-81.5 53.5l79 94q51 -53 127 -53q60 0 88.5 30t28.5 84v103h-7q-20 -47 -55.5 -77t-97.5 -30q-43 0 -78.5 16t-61 48t-40 80t-14.5 113t14.5 113t40 80t61 48t78.5 16q31 0 55 -8t42.5 -22t32 -33.5t23.5 -42.5h7v94
h148v-485zM297 129q39 0 67.5 19t28.5 60v126q0 41 -28.5 60t-67.5 19q-50 0 -77 -30.5t-27 -84.5v-53q0 -54 27 -85t77 -31zM354 786l132 -159l-75 -58l-121 115l-121 -115l-71 58l132 159h124z" />
    <glyph glyph-name="gcommaaccent.alt01" 
d="M541 31q0 -115 -65 -179t-196 -64q-78 0 -128.5 21.5t-81.5 53.5l79 94q51 -53 127 -53q60 0 88.5 30t28.5 84v103h-7q-20 -47 -55.5 -77t-97.5 -30q-43 0 -78.5 16t-61 48t-40 80t-14.5 113t14.5 113t40 80t61 48t78.5 16q31 0 55 -8t42.5 -22t32 -33.5t23.5 -42.5h7v94
h148v-485zM297 129q39 0 67.5 19t28.5 60v126q0 41 -28.5 60t-67.5 19q-50 0 -77 -30.5t-27 -84.5v-53q0 -54 27 -85t77 -31zM300 794h88l-18 -215h-157z" />
    <glyph glyph-name="gdotaccent.alt01" 
d="M541 31q0 -115 -65 -179t-196 -64q-78 0 -128.5 21.5t-81.5 53.5l79 94q51 -53 127 -53q60 0 88.5 30t28.5 84v103h-7q-20 -47 -55.5 -77t-97.5 -30q-43 0 -78.5 16t-61 48t-40 80t-14.5 113t14.5 113t40 80t61 48t78.5 16q31 0 55 -8t42.5 -22t32 -33.5t23.5 -42.5h7v94
h148v-485zM297 129q39 0 67.5 19t28.5 60v126q0 41 -28.5 60t-67.5 19q-50 0 -77 -30.5t-27 -84.5v-53q0 -54 27 -85t77 -31zM292 582q-50 0 -69.5 20.5t-19.5 49.5v29q0 30 19.5 50t69.5 20t69.5 -20t19.5 -50v-29q0 -29 -19.5 -49.5t-69.5 -20.5z" />
    <glyph glyph-name="hbar" unicode="&#x127;" 
d="M65 0v580h-56v110h56v50h148v-50h140v-110h-140v-158h6q9 22 22 41t31.5 33.5t43 23t55.5 8.5q37 0 68 -12.5t53 -37.5t34.5 -61t12.5 -83v-334h-148v314q0 100 -87 100q-17 0 -33.5 -4.5t-29.5 -14t-20.5 -23.5t-7.5 -33v-339h-148z" />
    <glyph glyph-name="hcircumflex" unicode="&#x125;" 
d="M65 740h148v-318h6q9 22 22 41t31.5 33.5t43 23t55.5 8.5q37 0 68 -12.5t53 -37.5t34.5 -61t12.5 -83v-334h-148v314q0 100 -87 100q-17 0 -33.5 -4.5t-29.5 -14t-20.5 -23.5t-7.5 -33v-339h-148v740zM202 968l132 -159l-75 -58l-121 115l-121 -115l-71 58l132 159h124z
" />
    <glyph glyph-name="dotlessi" unicode="&#x131;" 
d="M94 115h164v286h-164v115h312v-401h152v-115h-464v115z" />
    <glyph glyph-name="iacute" unicode="&#xed;" 
d="M94 115h164v286h-164v115h312v-401h152v-115h-464v115zM348 570l-88 43l99 194l123 -61z" />
    <glyph glyph-name="ibreve" unicode="&#x12d;" 
d="M94 115h164v286h-164v115h312v-401h152v-115h-464v115zM332 570q-45 0 -77.5 16.5t-55 41.5t-37.5 55t-24 57l83 42l21 -32q23 -36 42 -56.5t48 -20.5t48 20.5t42 56.5l21 32l83 -42q-9 -27 -24 -57t-37.5 -55t-55 -41.5t-77.5 -16.5z" />
    <glyph glyph-name="icircumflex" unicode="&#xee;" 
d="M94 115h164v286h-164v115h312v-401h152v-115h-464v115zM394 786l132 -159l-75 -58l-121 115l-121 -115l-71 58l132 159h124z" />
    <glyph glyph-name="idieresis" unicode="&#xef;" 
d="M94 115h164v286h-164v115h312v-401h152v-115h-464v115zM222 591q-45 0 -62.5 18.5t-17.5 44.5v26q0 26 17.5 44t62.5 18t63 -18t18 -44v-26q0 -26 -18 -44.5t-63 -18.5zM442 591q-45 0 -63 18.5t-18 44.5v26q0 26 18 44t63 18t62.5 -18t17.5 -44v-26q0 -26 -17.5 -44.5
t-62.5 -18.5z" />
    <glyph glyph-name="uni1ECB" unicode="&#x1ecb;" 
d="M332 582q-50 0 -69.5 20.5t-19.5 49.5v29q0 30 19.5 50t69.5 20t69.5 -20t19.5 -50v-29q0 -29 -19.5 -49.5t-69.5 -20.5zM94 115h164v286h-164v115h312v-401h152v-115h-464v115zM332 -203q-45 0 -63 18t-18 44v26q0 27 18 45t63 18t63 -18t18 -45v-26q0 -26 -18 -44
t-63 -18z" />
    <glyph glyph-name="igrave" unicode="&#xec;" 
d="M94 115h164v286h-164v115h312v-401h152v-115h-464v115zM182 746l123 61l99 -194l-88 -43z" />
    <glyph glyph-name="uni1EC9" unicode="&#x1ec9;" 
d="M94 115h164v286h-164v115h312v-401h152v-115h-464v115zM212 793h143q28 0 47 -6t30 -16t16 -23t5 -28q0 -29 -16 -62.5t-41 -63.5l-28 -34l-75 35l41 92h-122v106z" />
    <glyph glyph-name="imacron" unicode="&#x12b;" 
d="M94 115h164v286h-164v115h312v-401h152v-115h-464v115zM179 718h306v-103h-306v103z" />
    <glyph glyph-name="iogonek" unicode="&#x12f;" 
d="M468 -212q-25 0 -47.5 4.5t-39.5 14t-27 26t-10 40.5q0 42 31.5 69.5t87.5 53.5l-1 4h-368v115h164v286h-164v115h312v-401h152v-115q-37 -23 -59.5 -38.5t-34.5 -27.5t-16 -21t-4 -18q0 -19 11.5 -26t26.5 -7q18 0 31 8t24 20l53 -51q-13 -24 -43.5 -37.5t-78.5 -13.5z
M332 582q-50 0 -69.5 20.5t-19.5 49.5v29q0 30 19.5 50t69.5 20t69.5 -20t19.5 -50v-29q0 -29 -19.5 -49.5t-69.5 -20.5z" />
    <glyph glyph-name="itilde" unicode="&#x129;" 
d="M94 115h164v286h-164v115h312v-401h152v-115h-464v115zM408 592q-23 0 -40.5 6t-36.5 14q-22 9 -40 15.5t-38 6.5q-17 0 -30 -6t-29 -19l-52 68q18 27 46 45.5t68 18.5q23 0 40.5 -6t36.5 -14q22 -9 40 -15.5t38 -6.5q17 0 30 6t29 19l52 -68q-18 -27 -46 -45.5
t-68 -18.5z" />
    <glyph glyph-name="ij" unicode="&#x133;" 
d="M74 516h148v-516h-148v516zM222 -85h156v601h148v-567q0 -65 -39 -107t-119 -42h-146v115zM148 582q-50 0 -69.5 20.5t-19.5 49.5v29q0 30 19.5 50t69.5 20q51 0 70.5 -20t19.5 -50v-29q0 -29 -19.5 -49.5t-70.5 -20.5zM452 582q-51 0 -70.5 20.5t-19.5 49.5v29
q0 30 19.5 50t70.5 20q50 0 69.5 -20t19.5 -50v-29q0 -29 -19.5 -49.5t-69.5 -20.5z" />
    <glyph glyph-name="ijacute" 
d="M74 516h148v-516h-148v516zM222 -85h156v601h148v-567q0 -65 -39 -107t-119 -42h-146v115zM76 613l99 194l123 -61l-134 -176zM380 613l99 194l123 -61l-134 -176z" />
    <glyph glyph-name="uni0237" unicode="&#x237;" 
d="M92 -85h198v486h-200v115h348v-567q0 -65 -39 -107t-118 -42h-189v115z" />
    <glyph glyph-name="jacute" 
d="M92 -85h198v486h-200v115h348v-567q0 -65 -39 -107t-118 -42h-189v115zM380 570l-88 43l99 194l123 -61z" />
    <glyph glyph-name="jcircumflex" unicode="&#x135;" 
d="M92 -85h198v486h-200v115h348v-567q0 -65 -39 -107t-118 -42h-189v115zM426 786l132 -159l-75 -58l-121 115l-121 -115l-71 58l132 159h124z" />
    <glyph glyph-name="kcommaaccent" unicode="&#x137;" 
d="M65 740h148v-420h7l69 81l108 115h170l-200 -204l221 -312h-176l-150 228l-49 -49v-179h-148v740zM230 -54h157l-87 -215h-88z" />
    <glyph glyph-name="kgreenlandic" unicode="&#x138;" 
d="M262 228l-49 -49v-179h-148v516h148v-208h7l69 93l108 115h170l-200 -204l221 -312h-176z" />
    <glyph glyph-name="lacute" unicode="&#x13a;" 
d="M68 115h158v510h-158v115h306v-625h158v-115h-464v115zM316 752l-88 43l99 194l123 -61z" />
    <glyph glyph-name="lcaron" unicode="&#x13e;" 
d="M68 115h158v510h-158v115h306v-625h158v-115h-464v115zM534 525h-97l6 215h157z" />
    <glyph glyph-name="lcommaaccent" unicode="&#x13c;" 
d="M68 115h158v510h-158v115h306v-625h158v-115h-464v115zM222 -54h157l-87 -215h-88z" />
    <glyph glyph-name="ldot" unicode="&#x140;" 
d="M54 115h158v510h-158v115h306v-625h158v-115h-464v115zM511 224q-50 0 -69.5 20.5t-19.5 49.5v29q0 30 19.5 50t69.5 20t69.5 -20t19.5 -50v-29q0 -29 -19.5 -49.5t-69.5 -20.5z" />
    <glyph glyph-name="lslash" unicode="&#x142;" 
d="M68 115h158v141l-129 -42v109l129 42v260h-158v115h306v-330l129 42v-109l-129 -42v-186h158v-115h-464v115z" />
    <glyph glyph-name="nacute" unicode="&#x144;" 
d="M65 0v516h148v-94h6q9 22 22 41t31.5 33.5t43 23t55.5 8.5q37 0 68 -12.5t53 -37.5t34.5 -61t12.5 -83v-334h-148v314q0 100 -87 100q-17 0 -33.5 -4.5t-29.5 -14t-20.5 -23.5t-7.5 -33v-339h-148zM318 570l-88 43l99 194l123 -61z" />
    <glyph glyph-name="ncaron" unicode="&#x148;" 
d="M65 0v516h148v-94h6q9 22 22 41t31.5 33.5t43 23t55.5 8.5q37 0 68 -12.5t53 -37.5t34.5 -61t12.5 -83v-334h-148v314q0 100 -87 100q-17 0 -33.5 -4.5t-29.5 -14t-20.5 -23.5t-7.5 -33v-339h-148zM240 578l-132 159l75 58l121 -115l121 115l71 -58l-132 -159h-124z" />
    <glyph glyph-name="ncommaaccent" unicode="&#x146;" 
d="M65 0v516h148v-94h6q9 22 22 41t31.5 33.5t43 23t55.5 8.5q37 0 68 -12.5t53 -37.5t34.5 -61t12.5 -83v-334h-148v314q0 100 -87 100q-17 0 -33.5 -4.5t-29.5 -14t-20.5 -23.5t-7.5 -33v-339h-148zM224 -54h157l-87 -215h-88z" />
    <glyph glyph-name="ntilde" unicode="&#xf1;" 
d="M65 0v516h148v-94h6q9 22 22 41t31.5 33.5t43 23t55.5 8.5q37 0 68 -12.5t53 -37.5t34.5 -61t12.5 -83v-334h-148v314q0 100 -87 100q-17 0 -33.5 -4.5t-29.5 -14t-20.5 -23.5t-7.5 -33v-339h-148zM378 592q-23 0 -40.5 6t-36.5 14q-22 9 -40 15.5t-38 6.5q-17 0 -30 -6
t-29 -19l-52 68q18 27 46 45.5t68 18.5q23 0 40.5 -6t36.5 -14q22 -9 40 -15.5t38 -6.5q17 0 30 6t29 19l52 -68q-18 -27 -46 -45.5t-68 -18.5z" />
    <glyph glyph-name="napostrophe" unicode="&#x149;" 
d="M111 516h140v-94h6q8 22 20 41t29.5 33.5t40.5 23t53 8.5q67 0 108 -46t41 -140v-342h-140v314q0 51 -19 78.5t-57 27.5q-32 0 -57 -20t-25 -61v-339h-140v516zM6 740h129l-66 -211h-69z" />
    <glyph glyph-name="eng" unicode="&#x14b;" 
d="M213 -85h178v399q0 100 -87 100q-17 0 -33.5 -4.5t-29.5 -14t-20.5 -23.5t-7.5 -33v-339h-148v516h148v-94h6q9 22 22 41t31.5 33.5t43 23t55.5 8.5q37 0 68 -12.5t53 -37.5t34.5 -61t12.5 -83v-385q0 -65 -38.5 -107t-118.5 -42h-169v115z" />
    <glyph glyph-name="oacute" unicode="&#xf3;" 
d="M300 -12q-60 0 -108 18.5t-81.5 53.5t-51.5 85t-18 113t18 113t51.5 85t81.5 53.5t108 18.5t108 -18.5t81.5 -53.5t51.5 -85t18 -113t-18 -113t-51.5 -85t-81.5 -53.5t-108 -18.5zM300 98q50 0 78 31t28 88v82q0 57 -28 88t-78 31t-78 -31t-28 -88v-82q0 -57 28 -88
t78 -31zM316 570l-88 43l99 194l123 -61z" />
    <glyph glyph-name="obreve" unicode="&#x14f;" 
d="M300 -12q-60 0 -108 18.5t-81.5 53.5t-51.5 85t-18 113t18 113t51.5 85t81.5 53.5t108 18.5t108 -18.5t81.5 -53.5t51.5 -85t18 -113t-18 -113t-51.5 -85t-81.5 -53.5t-108 -18.5zM300 98q50 0 78 31t28 88v82q0 57 -28 88t-78 31t-78 -31t-28 -88v-82q0 -57 28 -88
t78 -31zM300 570q-45 0 -77.5 16.5t-55 41.5t-37.5 55t-24 57l83 42l21 -32q23 -36 42 -56.5t48 -20.5t48 20.5t42 56.5l21 32l83 -42q-9 -27 -24 -57t-37.5 -55t-55 -41.5t-77.5 -16.5z" />
    <glyph glyph-name="ocircumflex" unicode="&#xf4;" 
d="M300 -12q-60 0 -108 18.5t-81.5 53.5t-51.5 85t-18 113t18 113t51.5 85t81.5 53.5t108 18.5t108 -18.5t81.5 -53.5t51.5 -85t18 -113t-18 -113t-51.5 -85t-81.5 -53.5t-108 -18.5zM300 98q50 0 78 31t28 88v82q0 57 -28 88t-78 31t-78 -31t-28 -88v-82q0 -57 28 -88
t78 -31zM362 786l132 -159l-75 -58l-121 115l-121 -115l-71 58l132 159h124z" />
    <glyph glyph-name="odieresis" unicode="&#xf6;" 
d="M300 -12q-60 0 -108 18.5t-81.5 53.5t-51.5 85t-18 113t18 113t51.5 85t81.5 53.5t108 18.5t108 -18.5t81.5 -53.5t51.5 -85t18 -113t-18 -113t-51.5 -85t-81.5 -53.5t-108 -18.5zM300 98q50 0 78 31t28 88v82q0 57 -28 88t-78 31t-78 -31t-28 -88v-82q0 -57 28 -88
t78 -31zM190 591q-45 0 -62.5 18.5t-17.5 44.5v26q0 26 17.5 44t62.5 18t63 -18t18 -44v-26q0 -26 -18 -44.5t-63 -18.5zM410 591q-45 0 -63 18.5t-18 44.5v26q0 26 18 44t63 18t62.5 -18t17.5 -44v-26q0 -26 -17.5 -44.5t-62.5 -18.5z" />
    <glyph glyph-name="uni1ECD" unicode="&#x1ecd;" 
d="M300 -12q-60 0 -108 18.5t-81.5 53.5t-51.5 85t-18 113t18 113t51.5 85t81.5 53.5t108 18.5t108 -18.5t81.5 -53.5t51.5 -85t18 -113t-18 -113t-51.5 -85t-81.5 -53.5t-108 -18.5zM300 98q50 0 78 31t28 88v82q0 57 -28 88t-78 31t-78 -31t-28 -88v-82q0 -57 28 -88
t78 -31zM300 -203q-45 0 -63 18t-18 44v26q0 27 18 45t63 18t63 -18t18 -45v-26q0 -26 -18 -44t-63 -18z" />
    <glyph glyph-name="ograve" unicode="&#xf2;" 
d="M300 -12q-60 0 -108 18.5t-81.5 53.5t-51.5 85t-18 113t18 113t51.5 85t81.5 53.5t108 18.5t108 -18.5t81.5 -53.5t51.5 -85t18 -113t-18 -113t-51.5 -85t-81.5 -53.5t-108 -18.5zM300 98q50 0 78 31t28 88v82q0 57 -28 88t-78 31t-78 -31t-28 -88v-82q0 -57 28 -88
t78 -31zM150 746l123 61l99 -194l-88 -43z" />
    <glyph glyph-name="uni1ECF" unicode="&#x1ecf;" 
d="M300 -12q-60 0 -108 18.5t-81.5 53.5t-51.5 85t-18 113t18 113t51.5 85t81.5 53.5t108 18.5t108 -18.5t81.5 -53.5t51.5 -85t18 -113t-18 -113t-51.5 -85t-81.5 -53.5t-108 -18.5zM300 98q50 0 78 31t28 88v82q0 57 -28 88t-78 31t-78 -31t-28 -88v-82q0 -57 28 -88
t78 -31zM180 793h143q28 0 47 -6t30 -16t16 -23t5 -28q0 -29 -16 -62.5t-41 -63.5l-28 -34l-75 35l41 92h-122v106z" />
    <glyph glyph-name="ohungarumlaut" unicode="&#x151;" 
d="M300 -12q-60 0 -108 18.5t-81.5 53.5t-51.5 85t-18 113t18 113t51.5 85t81.5 53.5t108 18.5t108 -18.5t81.5 -53.5t51.5 -85t18 -113t-18 -113t-51.5 -85t-81.5 -53.5t-108 -18.5zM300 98q50 0 78 31t28 88v82q0 57 -28 88t-78 31t-78 -31t-28 -88v-82q0 -57 28 -88
t78 -31zM210 570l-81 39l99 194l116 -57zM415 570l-81 39l99 194l116 -57z" />
    <glyph glyph-name="omacron" unicode="&#x14d;" 
d="M300 -12q-60 0 -108 18.5t-81.5 53.5t-51.5 85t-18 113t18 113t51.5 85t81.5 53.5t108 18.5t108 -18.5t81.5 -53.5t51.5 -85t18 -113t-18 -113t-51.5 -85t-81.5 -53.5t-108 -18.5zM300 98q50 0 78 31t28 88v82q0 57 -28 88t-78 31t-78 -31t-28 -88v-82q0 -57 28 -88
t78 -31zM147 718h306v-103h-306v103z" />
    <glyph glyph-name="oslash" unicode="&#xf8;" 
d="M23 1l69 83q-51 67 -51 174q0 63 18 113t51.5 85t81.5 53.5t108 18.5q38 0 71 -8t60 -22l64 77l82 -60l-69 -83q51 -68 51 -174q0 -63 -18 -113t-51.5 -85t-81.5 -53.5t-108 -18.5q-38 0 -71 8t-60 22l-64 -77zM300 418q-50 0 -78 -31t-28 -88v-74v-13t2 -12l165 201
q-25 17 -61 17zM300 98q50 0 78 31t28 88v74v13t-2 12l-165 -201q25 -17 61 -17z" />
    <glyph glyph-name="oslashacute" unicode="&#x1ff;" 
d="M23 1l69 83q-51 67 -51 174q0 63 18 113t51.5 85t81.5 53.5t108 18.5q38 0 71 -8t60 -22l64 77l82 -60l-69 -83q51 -68 51 -174q0 -63 -18 -113t-51.5 -85t-81.5 -53.5t-108 -18.5q-38 0 -71 8t-60 22l-64 -77zM300 418q-50 0 -78 -31t-28 -88v-74v-13t2 -12l165 201
q-25 17 -61 17zM300 98q50 0 78 31t28 88v74v13t-2 12l-165 -201q25 -17 61 -17zM316 570l-88 43l99 194l123 -61z" />
    <glyph glyph-name="otilde" unicode="&#xf5;" 
d="M300 -12q-60 0 -108 18.5t-81.5 53.5t-51.5 85t-18 113t18 113t51.5 85t81.5 53.5t108 18.5t108 -18.5t81.5 -53.5t51.5 -85t18 -113t-18 -113t-51.5 -85t-81.5 -53.5t-108 -18.5zM300 98q50 0 78 31t28 88v82q0 57 -28 88t-78 31t-78 -31t-28 -88v-82q0 -57 28 -88
t78 -31zM376 592q-23 0 -40.5 6t-36.5 14q-22 9 -40 15.5t-38 6.5q-17 0 -30 -6t-29 -19l-52 68q18 27 46 45.5t68 18.5q23 0 40.5 -6t36.5 -14q22 -9 40 -15.5t38 -6.5q17 0 30 6t29 19l52 -68q-18 -27 -46 -45.5t-68 -18.5z" />
    <glyph glyph-name="ohorn" unicode="&#x1a1;" 
d="M583 631v-103q0 -45 -15.5 -70t-60.5 -30q25 -32 38.5 -74t13.5 -96q0 -63 -18 -113t-51.5 -85t-81.5 -53.5t-108 -18.5t-108 18.5t-81.5 53.5t-51.5 85t-18 113t18 113t51.5 85t81.5 53.5t108 18.5q48 0 89 -12h70v115h124zM300 98q50 0 78 31t28 88v82q0 57 -28 88
t-78 31t-78 -31t-28 -88v-82q0 -57 28 -88t78 -31z" />
    <glyph glyph-name="uni1EDB" unicode="&#x1edb;" 
d="M583 631v-103q0 -45 -15.5 -70t-60.5 -30q25 -32 38.5 -74t13.5 -96q0 -63 -18 -113t-51.5 -85t-81.5 -53.5t-108 -18.5t-108 18.5t-81.5 53.5t-51.5 85t-18 113t18 113t51.5 85t81.5 53.5t108 18.5q48 0 89 -12h70v115h124zM300 98q50 0 78 31t28 88v82q0 57 -28 88
t-78 31t-78 -31t-28 -88v-82q0 -57 28 -88t78 -31zM316 570l-88 43l99 194l123 -61z" />
    <glyph glyph-name="uni1EE3" unicode="&#x1ee3;" 
d="M583 631v-103q0 -45 -15.5 -70t-60.5 -30q25 -32 38.5 -74t13.5 -96q0 -63 -18 -113t-51.5 -85t-81.5 -53.5t-108 -18.5t-108 18.5t-81.5 53.5t-51.5 85t-18 113t18 113t51.5 85t81.5 53.5t108 18.5q48 0 89 -12h70v115h124zM300 98q50 0 78 31t28 88v82q0 57 -28 88
t-78 31t-78 -31t-28 -88v-82q0 -57 28 -88t78 -31zM300 -203q-45 0 -63 18t-18 44v26q0 27 18 45t63 18t63 -18t18 -45v-26q0 -26 -18 -44t-63 -18z" />
    <glyph glyph-name="uni1EDD" unicode="&#x1edd;" 
d="M583 631v-103q0 -45 -15.5 -70t-60.5 -30q25 -32 38.5 -74t13.5 -96q0 -63 -18 -113t-51.5 -85t-81.5 -53.5t-108 -18.5t-108 18.5t-81.5 53.5t-51.5 85t-18 113t18 113t51.5 85t81.5 53.5t108 18.5q48 0 89 -12h70v115h124zM300 98q50 0 78 31t28 88v82q0 57 -28 88
t-78 31t-78 -31t-28 -88v-82q0 -57 28 -88t78 -31zM150 746l123 61l99 -194l-88 -43z" />
    <glyph glyph-name="uni1EDF" unicode="&#x1edf;" 
d="M583 631v-103q0 -45 -15.5 -70t-60.5 -30q25 -32 38.5 -74t13.5 -96q0 -63 -18 -113t-51.5 -85t-81.5 -53.5t-108 -18.5t-108 18.5t-81.5 53.5t-51.5 85t-18 113t18 113t51.5 85t81.5 53.5t108 18.5q48 0 89 -12h70v115h124zM300 98q50 0 78 31t28 88v82q0 57 -28 88
t-78 31t-78 -31t-28 -88v-82q0 -57 28 -88t78 -31zM180 793h143q28 0 47 -6t30 -16t16 -23t5 -28q0 -29 -16 -62.5t-41 -63.5l-28 -34l-75 35l41 92h-122v106z" />
    <glyph glyph-name="uni1EE1" unicode="&#x1ee1;" 
d="M583 631v-103q0 -45 -15.5 -70t-60.5 -30q25 -32 38.5 -74t13.5 -96q0 -63 -18 -113t-51.5 -85t-81.5 -53.5t-108 -18.5t-108 18.5t-81.5 53.5t-51.5 85t-18 113t18 113t51.5 85t81.5 53.5t108 18.5q48 0 89 -12h70v115h124zM300 98q50 0 78 31t28 88v82q0 57 -28 88
t-78 31t-78 -31t-28 -88v-82q0 -57 28 -88t78 -31zM343 592q-20 0 -35 6t-32 14q-19 9 -34.5 15.5t-32.5 6.5q-25 0 -49 -21l-51 62q17 28 41.5 47t60.5 19q20 0 35 -6t32 -14q19 -9 34.5 -15.5t32.5 -6.5q25 0 49 21l51 -62q-17 -28 -41.5 -47t-60.5 -19z" />
    <glyph glyph-name="uni1ED1" unicode="&#x1ed1;" 
d="M300 -12q-60 0 -108 18.5t-81.5 53.5t-51.5 85t-18 113t18 113t51.5 85t81.5 53.5t108 18.5t108 -18.5t81.5 -53.5t51.5 -85t18 -113t-18 -113t-51.5 -85t-81.5 -53.5t-108 -18.5zM300 98q50 0 78 31t28 88v82q0 57 -28 88t-78 31t-78 -31t-28 -88v-82q0 -57 28 -88
t78 -31zM473 724l-79 39l99 194l114 -57zM347 772l145 -147l-70 -64l-124 104l-124 -104l-66 64l145 147h94z" />
    <glyph glyph-name="uni1ED9" unicode="&#x1ed9;" 
d="M300 -12q-60 0 -108 18.5t-81.5 53.5t-51.5 85t-18 113t18 113t51.5 85t81.5 53.5t108 18.5t108 -18.5t81.5 -53.5t51.5 -85t18 -113t-18 -113t-51.5 -85t-81.5 -53.5t-108 -18.5zM300 98q50 0 78 31t28 88v82q0 57 -28 88t-78 31t-78 -31t-28 -88v-82q0 -57 28 -88
t78 -31zM362 786l132 -159l-75 -58l-121 115l-121 -115l-71 58l132 159h124zM300 -203q-45 0 -63 18t-18 44v26q0 27 18 45t63 18t63 -18t18 -45v-26q0 -26 -18 -44t-63 -18z" />
    <glyph glyph-name="uni1ED3" unicode="&#x1ed3;" 
d="M300 -12q-60 0 -108 18.5t-81.5 53.5t-51.5 85t-18 113t18 113t51.5 85t81.5 53.5t108 18.5t108 -18.5t81.5 -53.5t51.5 -85t18 -113t-18 -113t-51.5 -85t-81.5 -53.5t-108 -18.5zM300 98q50 0 78 31t28 88v82q0 57 -28 88t-78 31t-78 -31t-28 -88v-82q0 -57 28 -88
t78 -31zM-7 900l114 57l99 -194l-79 -39zM347 772l145 -147l-70 -64l-124 104l-124 -104l-66 64l145 147h94z" />
    <glyph glyph-name="uni1ED5" unicode="&#x1ed5;" 
d="M300 -12q-60 0 -108 18.5t-81.5 53.5t-51.5 85t-18 113t18 113t51.5 85t81.5 53.5t108 18.5t108 -18.5t81.5 -53.5t51.5 -85t18 -113t-18 -113t-51.5 -85t-81.5 -53.5t-108 -18.5zM300 98q50 0 78 31t28 88v82q0 57 -28 88t-78 31t-78 -31t-28 -88v-82q0 -57 28 -88
t78 -31zM338 943h134q28 0 46.5 -6t30 -16t16.5 -23t5 -27q0 -30 -19 -63.5t-44 -63.5l-27 -33l-66 34l43 97h-119v101zM347 772l145 -147l-70 -64l-124 104l-124 -104l-66 64l145 147h94z" />
    <glyph glyph-name="uni1ED7" unicode="&#x1ed7;" 
d="M300 -12q-60 0 -108 18.5t-81.5 53.5t-51.5 85t-18 113t18 113t51.5 85t81.5 53.5t108 18.5t108 -18.5t81.5 -53.5t51.5 -85t18 -113t-18 -113t-51.5 -85t-81.5 -53.5t-108 -18.5zM300 98q50 0 78 31t28 88v82q0 57 -28 88t-78 31t-78 -31t-28 -88v-82q0 -57 28 -88
t78 -31zM225 933q23 0 40.5 -6t36.5 -14q22 -9 40 -15.5t38 -6.5q17 0 30 6t29 19l50 -64q-18 -27 -46 -45.5t-68 -18.5q-23 0 -40.5 6t-36.5 14q-22 9 -40 15.5t-38 6.5q-17 0 -30 -6t-29 -19l-50 64q18 27 46 45.5t68 18.5zM348 759l142 -134l-67 -64l-124 95l-124 -95
l-65 64l142 134h96z" />
    <glyph glyph-name="oe" unicode="&#x153;" 
d="M423 -12q-39 0 -72 15.5t-56 50.5h-4q-20 -32 -48 -49t-69 -17q-36 0 -66 15t-51.5 47t-33 83.5t-11.5 124.5t11.5 124t33 83.5t51.5 47.5t68 15q44 0 73 -19t48 -55h4q43 74 119 74q37 0 67.5 -17t52 -48t33 -75t11.5 -99v-61h-231v-15q0 -58 17.5 -93.5t50.5 -35.5
q26 0 39.5 21.5t20.5 50.5l97 -27q-7 -29 -19.5 -55t-31.5 -45t-44.5 -30t-59.5 -11zM183 84q27 0 42.5 26t15.5 77v142q0 51 -15.5 77t-42.5 26t-42.5 -26t-15.5 -77v-142q0 -51 15.5 -77t42.5 -26zM475 305v32q0 42 -14.5 71.5t-46.5 29.5t-46.5 -29.5t-14.5 -71.5v-32
h122z" />
    <glyph glyph-name="racute" unicode="&#x155;" 
d="M74 115h119v286h-119v115h267v-146h7q7 28 19.5 54.5t32 47t47.5 32.5t66 12h49v-136h-110q-55 0 -83 -32.5t-28 -79.5v-153h170v-115h-437v115zM341 570l-88 43l99 194l123 -61z" />
    <glyph glyph-name="rcaron" unicode="&#x159;" 
d="M74 115h119v286h-119v115h267v-146h7q7 28 19.5 54.5t32 47t47.5 32.5t66 12h49v-136h-110q-55 0 -83 -32.5t-28 -79.5v-153h170v-115h-437v115zM263 578l-132 159l75 58l121 -115l121 115l71 -58l-132 -159h-124z" />
    <glyph glyph-name="rcommaaccent" unicode="&#x157;" 
d="M74 115h119v286h-119v115h267v-146h7q7 28 19.5 54.5t32 47t47.5 32.5t66 12h49v-136h-110q-55 0 -83 -32.5t-28 -79.5v-153h170v-115h-437v115zM189 -54h157l-87 -215h-88z" />
    <glyph glyph-name="sacute" unicode="&#x15b;" 
d="M294 -12q-86 0 -149.5 26t-95.5 71l83 77q30 -33 70.5 -51.5t92.5 -18.5q44 0 69 13.5t25 41.5q0 22 -17 30.5t-47 13.5l-83 13q-35 5 -65 15.5t-52 28.5t-35 44t-13 63q0 81 62 127t174 46q76 0 129.5 -20.5t85.5 -58.5l-74 -84q-23 25 -59 42t-87 17q-86 0 -86 -52
q0 -23 17 -31.5t47 -13.5l82 -13q35 -5 65 -15.5t52.5 -28.5t35.5 -44t13 -63q0 -81 -62.5 -128t-177.5 -47zM321 570l-88 43l99 194l123 -61z" />
    <glyph glyph-name="scaron" unicode="&#x161;" 
d="M294 -12q-86 0 -149.5 26t-95.5 71l83 77q30 -33 70.5 -51.5t92.5 -18.5q44 0 69 13.5t25 41.5q0 22 -17 30.5t-47 13.5l-83 13q-35 5 -65 15.5t-52 28.5t-35 44t-13 63q0 81 62 127t174 46q76 0 129.5 -20.5t85.5 -58.5l-74 -84q-23 25 -59 42t-87 17q-86 0 -86 -52
q0 -23 17 -31.5t47 -13.5l82 -13q35 -5 65 -15.5t52.5 -28.5t35.5 -44t13 -63q0 -81 -62.5 -128t-177.5 -47zM243 578l-132 159l75 58l121 -115l121 115l71 -58l-132 -159h-124z" />
    <glyph glyph-name="scedilla" unicode="&#x15f;" 
d="M307 -212q-52 0 -81.5 14.5t-42.5 29.5l46 56q10 -12 26.5 -20.5t39.5 -8.5q19 0 31.5 6t12.5 19q0 6 -3 12t-11.5 11.5t-23 10t-37.5 6.5l-21 2l13 64q-72 5 -125.5 30t-81.5 65l83 77q30 -33 70.5 -51.5t92.5 -18.5q44 0 69 13.5t25 41.5q0 22 -17 30.5t-47 13.5
l-83 13q-35 5 -65 15.5t-52 28.5t-35 44t-13 63q0 81 62 127t174 46q76 0 129.5 -20.5t85.5 -58.5l-74 -84q-23 25 -59 42t-87 17q-86 0 -86 -52q0 -23 17 -31.5t47 -13.5l82 -13q35 -5 65 -15.5t52.5 -28.5t35.5 -44t13 -63q0 -75 -54.5 -121t-156.5 -53l-9 -44l4 -4
q12 3 24 5t24 2q30 0 51.5 -16t21.5 -53q0 -26 -11 -43t-29.5 -28t-42.5 -15.5t-49 -4.5z" />
    <glyph glyph-name="scircumflex" unicode="&#x15d;" 
d="M294 -12q-86 0 -149.5 26t-95.5 71l83 77q30 -33 70.5 -51.5t92.5 -18.5q44 0 69 13.5t25 41.5q0 22 -17 30.5t-47 13.5l-83 13q-35 5 -65 15.5t-52 28.5t-35 44t-13 63q0 81 62 127t174 46q76 0 129.5 -20.5t85.5 -58.5l-74 -84q-23 25 -59 42t-87 17q-86 0 -86 -52
q0 -23 17 -31.5t47 -13.5l82 -13q35 -5 65 -15.5t52.5 -28.5t35.5 -44t13 -63q0 -81 -62.5 -128t-177.5 -47zM367 786l132 -159l-75 -58l-121 115l-121 -115l-71 58l132 159h124z" />
    <glyph glyph-name="scommaaccent" unicode="&#x219;" 
d="M294 -12q-86 0 -149.5 26t-95.5 71l83 77q30 -33 70.5 -51.5t92.5 -18.5q44 0 69 13.5t25 41.5q0 22 -17 30.5t-47 13.5l-83 13q-35 5 -65 15.5t-52 28.5t-35 44t-13 63q0 81 62 127t174 46q76 0 129.5 -20.5t85.5 -58.5l-74 -84q-23 25 -59 42t-87 17q-86 0 -86 -52
q0 -23 17 -31.5t47 -13.5l82 -13q35 -5 65 -15.5t52.5 -28.5t35.5 -44t13 -63q0 -81 -62.5 -128t-177.5 -47zM215 -54h157l-87 -215h-88z" />
    <glyph glyph-name="germandbls" unicode="&#xdf;" 
d="M60 0v591q0 66 38.5 107.5t119.5 41.5h158v-111h-172v-113h336v-106l-139 -197q81 -15 127 -63.5t46 -133.5q0 -107 -71 -161.5t-191 -54.5h-66v111h57q63 0 92.5 22t29.5 70v23q0 49 -31 71t-97 22h-24v111l123 175h-192v-405h-144z" />
    <glyph glyph-name="germandbls.alt01" 
d="M48 401h-48v115h48v3q0 52 16.5 95t48 74t77 47.5t102.5 16.5q56 0 101.5 -16.5t77.5 -46.5t49.5 -73t17.5 -95v-94h-56q-18 0 -33.5 -1.5t-27 -6t-18 -14t-6.5 -24.5q0 -21 13.5 -33.5t42.5 -23.5l31 -12q63 -25 89.5 -59t26.5 -88q0 -82 -50 -129.5t-144 -47.5
q-54 0 -102 17t-77 54l83 78q20 -23 43 -33t48 -10q11 0 22.5 2.5t20.5 9t14.5 17.5t5.5 28q0 20 -11.5 33t-44.5 26l-31 12q-65 25 -90.5 59t-25.5 83q0 63 36.5 100t104.5 50v9q0 57 -24 88t-83 31q-57 0 -80 -30.5t-23 -88.5v-523h-144v401z" />
    <glyph glyph-name="tbar" unicode="&#x167;" 
d="M531 0h-191q-80 0 -119 42t-39 107v63h-88v105h88v84h-140v115h91q33 0 47 13t14 48v121h136v-182h201v-115h-201v-84h151v-105h-151v-97h201v-115z" />
    <glyph glyph-name="tcaron" unicode="&#x165;" 
d="M340 0q-80 0 -119 42t-39 107v252h-140v115h91q33 0 47 13t14 48v121h136v-182h201v-115h-201v-286h201v-115h-191zM493 565h-97l6 215h157z" />
    <glyph glyph-name="tcommaaccent" unicode="&#x163;" 
d="M340 0q-80 0 -119 42t-39 107v252h-140v115h91q33 0 47 13t14 48v121h136v-182h201v-115h-201v-286h201v-115h-191zM283 -54h157l-87 -215h-88z" />
    <glyph glyph-name="uni021B" unicode="&#x21b;" 
d="M340 0q-80 0 -119 42t-39 107v252h-140v115h91q33 0 47 13t14 48v121h136v-182h201v-115h-201v-286h201v-115h-191zM283 -54h157l-87 -215h-88z" />
    <glyph glyph-name="thorn" unicode="&#xfe;" 
d="M59 740h148v-318h7q19 46 55 76t98 30q43 0 78.5 -16t61 -49t40 -84t14.5 -121t-14.5 -121t-40 -84t-61 -49t-78.5 -16q-62 0 -98 29.5t-55 76.5h-7v-294h-148v940zM303 103q50 0 77 30.5t27 84.5v80q0 54 -27 84.5t-77 30.5q-39 0 -67.5 -19t-28.5 -60v-152
q0 -41 28.5 -60t67.5 -19z" />
    <glyph glyph-name="uacute" unicode="&#xfa;" 
d="M387 94h-6q-17 -44 -53.5 -75t-98.5 -31q-37 0 -68 12.5t-53 37.5t-34.5 61t-12.5 83v334h148v-314q0 -100 87 -100q17 0 33.5 4.5t29 14t20.5 23.5t8 33v339h148v-516h-148v94zM315 570l-88 43l99 194l123 -61z" />
    <glyph glyph-name="ubreve" unicode="&#x16d;" 
d="M387 94h-6q-17 -44 -53.5 -75t-98.5 -31q-37 0 -68 12.5t-53 37.5t-34.5 61t-12.5 83v334h148v-314q0 -100 87 -100q17 0 33.5 4.5t29 14t20.5 23.5t8 33v339h148v-516h-148v94zM299 570q-45 0 -77.5 16.5t-55 41.5t-37.5 55t-24 57l83 42l21 -32q23 -36 42 -56.5
t48 -20.5t48 20.5t42 56.5l21 32l83 -42q-9 -27 -24 -57t-37.5 -55t-55 -41.5t-77.5 -16.5z" />
    <glyph glyph-name="ucircumflex" unicode="&#xfb;" 
d="M387 94h-6q-17 -44 -53.5 -75t-98.5 -31q-37 0 -68 12.5t-53 37.5t-34.5 61t-12.5 83v334h148v-314q0 -100 87 -100q17 0 33.5 4.5t29 14t20.5 23.5t8 33v339h148v-516h-148v94zM361 786l132 -159l-75 -58l-121 115l-121 -115l-71 58l132 159h124z" />
    <glyph glyph-name="udieresis" unicode="&#xfc;" 
d="M387 94h-6q-17 -44 -53.5 -75t-98.5 -31q-37 0 -68 12.5t-53 37.5t-34.5 61t-12.5 83v334h148v-314q0 -100 87 -100q17 0 33.5 4.5t29 14t20.5 23.5t8 33v339h148v-516h-148v94zM189 591q-45 0 -62.5 18.5t-17.5 44.5v26q0 26 17.5 44t62.5 18t63 -18t18 -44v-26
q0 -26 -18 -44.5t-63 -18.5zM409 591q-45 0 -63 18.5t-18 44.5v26q0 26 18 44t63 18t62.5 -18t17.5 -44v-26q0 -26 -17.5 -44.5t-62.5 -18.5z" />
    <glyph glyph-name="uni1EE5" unicode="&#x1ee5;" 
d="M387 94h-6q-17 -44 -53.5 -75t-98.5 -31q-37 0 -68 12.5t-53 37.5t-34.5 61t-12.5 83v334h148v-314q0 -100 87 -100q17 0 33.5 4.5t29 14t20.5 23.5t8 33v339h148v-516h-148v94zM298 -203q-45 0 -63 18t-18 44v26q0 27 18 45t63 18t63 -18t18 -45v-26q0 -26 -18 -44
t-63 -18z" />
    <glyph glyph-name="ugrave" unicode="&#xf9;" 
d="M387 94h-6q-17 -44 -53.5 -75t-98.5 -31q-37 0 -68 12.5t-53 37.5t-34.5 61t-12.5 83v334h148v-314q0 -100 87 -100q17 0 33.5 4.5t29 14t20.5 23.5t8 33v339h148v-516h-148v94zM149 746l123 61l99 -194l-88 -43z" />
    <glyph glyph-name="uni1EE7" unicode="&#x1ee7;" 
d="M387 94h-6q-17 -44 -53.5 -75t-98.5 -31q-37 0 -68 12.5t-53 37.5t-34.5 61t-12.5 83v334h148v-314q0 -100 87 -100q17 0 33.5 4.5t29 14t20.5 23.5t8 33v339h148v-516h-148v94zM178 793h143q28 0 47 -6t30 -16t16 -23t5 -28q0 -29 -16 -62.5t-41 -63.5l-28 -34l-75 35
l41 92h-122v106z" />
    <glyph glyph-name="uhungarumlaut" unicode="&#x171;" 
d="M387 94h-6q-17 -44 -53.5 -75t-98.5 -31q-37 0 -68 12.5t-53 37.5t-34.5 61t-12.5 83v334h148v-314q0 -100 87 -100q17 0 33.5 4.5t29 14t20.5 23.5t8 33v339h148v-516h-148v94zM209 570l-81 39l99 194l116 -57zM414 570l-81 39l99 194l116 -57z" />
    <glyph glyph-name="umacron" unicode="&#x16b;" 
d="M387 94h-6q-17 -44 -53.5 -75t-98.5 -31q-37 0 -68 12.5t-53 37.5t-34.5 61t-12.5 83v334h148v-314q0 -100 87 -100q17 0 33.5 4.5t29 14t20.5 23.5t8 33v339h148v-516h-148v94zM146 718h306v-103h-306v103z" />
    <glyph glyph-name="uogonek" unicode="&#x173;" 
d="M535 0q-37 -23 -59.5 -38.5t-34.5 -27.5t-16 -21t-4 -18q0 -19 11.5 -26t26.5 -7q18 0 31 8t24 20l53 -51q-13 -24 -43.5 -37.5t-78.5 -13.5q-25 0 -47.5 4.5t-39.5 14t-27 26t-10 40.5q0 42 31.5 69.5t87.5 53.5l-1 4h-52v94h-6q-17 -44 -53.5 -75t-98.5 -31
q-37 0 -68 12.5t-53 37.5t-34.5 61t-12.5 83v334h148v-314q0 -100 87 -100q17 0 33.5 4.5t29 14t20.5 23.5t8 33v339h148v-516z" />
    <glyph glyph-name="uring" unicode="&#x16f;" 
d="M387 94h-6q-17 -44 -53.5 -75t-98.5 -31q-37 0 -68 12.5t-53 37.5t-34.5 61t-12.5 83v334h148v-314q0 -100 87 -100q17 0 33.5 4.5t29 14t20.5 23.5t8 33v339h148v-516h-148v94zM299 549q-31 0 -58 10.5t-47 29.5t-31.5 45.5t-11.5 57.5t11.5 57t31.5 45t47 30t58 11
t58 -10.5t47 -29.5t31.5 -45.5t11.5 -57.5t-11.5 -57t-31.5 -45t-47 -30t-58 -11zM299 624q25 0 38 14t13 37v34q0 24 -13 37.5t-38 13.5t-38 -14t-13 -37v-34q0 -24 13 -37.5t38 -13.5z" />
    <glyph glyph-name="utilde" unicode="&#x169;" 
d="M387 94h-6q-17 -44 -53.5 -75t-98.5 -31q-37 0 -68 12.5t-53 37.5t-34.5 61t-12.5 83v334h148v-314q0 -100 87 -100q17 0 33.5 4.5t29 14t20.5 23.5t8 33v339h148v-516h-148v94zM375 592q-23 0 -40.5 6t-36.5 14q-22 9 -40 15.5t-38 6.5q-17 0 -30 -6t-29 -19l-52 68
q18 27 46 45.5t68 18.5q23 0 40.5 -6t36.5 -14q22 -9 40 -15.5t38 -6.5q17 0 30 6t29 19l52 -68q-18 -27 -46 -45.5t-68 -18.5z" />
    <glyph glyph-name="uhorn" unicode="&#x1b0;" 
d="M598 528q0 -42 -13 -66t-50 -32v-430h-148v94h-6q-17 -44 -53.5 -75t-98.5 -31q-37 0 -68 12.5t-53 37.5t-34.5 61t-12.5 83v334h148v-314q0 -100 87 -100q17 0 33.5 4.5t29 14t20.5 23.5t8 33v339h87v115h124v-103z" />
    <glyph glyph-name="uni1EE9" unicode="&#x1ee9;" 
d="M598 528q0 -42 -13 -66t-50 -32v-430h-148v94h-6q-17 -44 -53.5 -75t-98.5 -31q-37 0 -68 12.5t-53 37.5t-34.5 61t-12.5 83v334h148v-314q0 -100 87 -100q17 0 33.5 4.5t29 14t20.5 23.5t8 33v339h87v115h124v-103zM315 570l-88 43l99 194l123 -61z" />
    <glyph glyph-name="uni1EF1" unicode="&#x1ef1;" 
d="M598 528q0 -42 -13 -66t-50 -32v-430h-148v94h-6q-17 -44 -53.5 -75t-98.5 -31q-37 0 -68 12.5t-53 37.5t-34.5 61t-12.5 83v334h148v-314q0 -100 87 -100q17 0 33.5 4.5t29 14t20.5 23.5t8 33v339h87v115h124v-103zM298 -203q-45 0 -63 18t-18 44v26q0 27 18 45t63 18
t63 -18t18 -45v-26q0 -26 -18 -44t-63 -18z" />
    <glyph glyph-name="uni1EEB" unicode="&#x1eeb;" 
d="M598 528q0 -42 -13 -66t-50 -32v-430h-148v94h-6q-17 -44 -53.5 -75t-98.5 -31q-37 0 -68 12.5t-53 37.5t-34.5 61t-12.5 83v334h148v-314q0 -100 87 -100q17 0 33.5 4.5t29 14t20.5 23.5t8 33v339h87v115h124v-103zM149 746l123 61l99 -194l-88 -43z" />
    <glyph glyph-name="uni1EED" unicode="&#x1eed;" 
d="M598 528q0 -42 -13 -66t-50 -32v-430h-148v94h-6q-17 -44 -53.5 -75t-98.5 -31q-37 0 -68 12.5t-53 37.5t-34.5 61t-12.5 83v334h148v-314q0 -100 87 -100q17 0 33.5 4.5t29 14t20.5 23.5t8 33v339h87v115h124v-103zM178 793h143q28 0 47 -6t30 -16t16 -23t5 -28
q0 -29 -16 -62.5t-41 -63.5l-28 -34l-75 35l41 92h-122v106z" />
    <glyph glyph-name="uni1EEF" unicode="&#x1eef;" 
d="M598 528q0 -42 -13 -66t-50 -32v-430h-148v94h-6q-17 -44 -53.5 -75t-98.5 -31q-37 0 -68 12.5t-53 37.5t-34.5 61t-12.5 83v334h148v-314q0 -100 87 -100q17 0 33.5 4.5t29 14t20.5 23.5t8 33v339h87v115h124v-103zM353 592q-20 0 -35 6t-32 14q-19 9 -34.5 15.5
t-32.5 6.5q-25 0 -49 -21l-51 62q17 28 41.5 47t60.5 19q20 0 35 -6t32 -14q19 -9 34.5 -15.5t32.5 -6.5q25 0 49 21l51 -62q-17 -28 -41.5 -47t-60.5 -19z" />
    <glyph glyph-name="wacute" unicode="&#x1e83;" 
d="M7 516h123l37 -418h10l61 418h130l60 -418h10l38 418h117l-61 -516h-176l-51 356h-10l-51 -356h-176zM316 570l-88 43l99 194l123 -61z" />
    <glyph glyph-name="wcircumflex" unicode="&#x175;" 
d="M7 516h123l37 -418h10l61 418h130l60 -418h10l38 418h117l-61 -516h-176l-51 356h-10l-51 -356h-176zM362 786l132 -159l-75 -58l-121 115l-121 -115l-71 58l132 159h124z" />
    <glyph glyph-name="wdieresis" unicode="&#x1e85;" 
d="M7 516h123l37 -418h10l61 418h130l60 -418h10l38 418h117l-61 -516h-176l-51 356h-10l-51 -356h-176zM190 591q-45 0 -62.5 18.5t-17.5 44.5v26q0 26 17.5 44t62.5 18t63 -18t18 -44v-26q0 -26 -18 -44.5t-63 -18.5zM410 591q-45 0 -63 18.5t-18 44.5v26q0 26 18 44
t63 18t62.5 -18t17.5 -44v-26q0 -26 -17.5 -44.5t-62.5 -18.5z" />
    <glyph glyph-name="wgrave" unicode="&#x1e81;" 
d="M7 516h123l37 -418h10l61 418h130l60 -418h10l38 418h117l-61 -516h-176l-51 356h-10l-51 -356h-176zM150 746l123 61l99 -194l-88 -43z" />
    <glyph glyph-name="yacute" unicode="&#xfd;" 
d="M430 516h151l-243 -599q-23 -57 -61 -87t-104 -30h-102v115h124l32 88l-208 513h159l75 -217l47 -150h8l45 150zM319 570l-88 43l99 194l123 -61z" />
    <glyph glyph-name="ycircumflex" unicode="&#x177;" 
d="M430 516h151l-243 -599q-23 -57 -61 -87t-104 -30h-102v115h124l32 88l-208 513h159l75 -217l47 -150h8l45 150zM365 786l132 -159l-75 -58l-121 115l-121 -115l-71 58l132 159h124z" />
    <glyph glyph-name="ydieresis" unicode="&#xff;" 
d="M430 516h151l-243 -599q-23 -57 -61 -87t-104 -30h-102v115h124l32 88l-208 513h159l75 -217l47 -150h8l45 150zM193 591q-45 0 -62.5 18.5t-17.5 44.5v26q0 26 17.5 44t62.5 18t63 -18t18 -44v-26q0 -26 -18 -44.5t-63 -18.5zM413 591q-45 0 -63 18.5t-18 44.5v26
q0 26 18 44t63 18t62.5 -18t17.5 -44v-26q0 -26 -17.5 -44.5t-62.5 -18.5z" />
    <glyph glyph-name="uni1EF5" unicode="&#x1ef5;" 
d="M430 516h151l-243 -599q-23 -57 -61 -87t-104 -30h-102v115h124l32 88l-208 513h159l75 -217l47 -150h8l45 150zM482 -203q-45 0 -63 18t-18 44v26q0 27 18 45t63 18t63 -18t18 -45v-26q0 -26 -18 -44t-63 -18z" />
    <glyph glyph-name="ygrave" unicode="&#x1ef3;" 
d="M430 516h151l-243 -599q-23 -57 -61 -87t-104 -30h-102v115h124l32 88l-208 513h159l75 -217l47 -150h8l45 150zM153 746l123 61l99 -194l-88 -43z" />
    <glyph glyph-name="uni1EF7" unicode="&#x1ef7;" 
d="M430 516h151l-243 -599q-23 -57 -61 -87t-104 -30h-102v115h124l32 88l-208 513h159l75 -217l47 -150h8l45 150zM183 793h143q28 0 47 -6t30 -16t16 -23t5 -28q0 -29 -16 -62.5t-41 -63.5l-28 -34l-75 35l41 92h-122v106z" />
    <glyph glyph-name="uni1EF9" unicode="&#x1ef9;" 
d="M430 516h151l-243 -599q-23 -57 -61 -87t-104 -30h-102v115h124l32 88l-208 513h159l75 -217l47 -150h8l45 150zM379 592q-23 0 -40.5 6t-36.5 14q-22 9 -40 15.5t-38 6.5q-17 0 -30 -6t-29 -19l-52 68q18 27 46 45.5t68 18.5q23 0 40.5 -6t36.5 -14q22 -9 40 -15.5
t38 -6.5q17 0 30 6t29 19l52 -68q-18 -27 -46 -45.5t-68 -18.5z" />
    <glyph glyph-name="zacute" unicode="&#x17a;" 
d="M66 0v123l287 278h-277v115h448v-123l-287 -278h297v-115h-468zM316 570l-88 43l99 194l123 -61z" />
    <glyph glyph-name="zcaron" unicode="&#x17e;" 
d="M66 0v123l287 278h-277v115h448v-123l-287 -278h297v-115h-468zM238 578l-132 159l75 58l121 -115l121 115l71 -58l-132 -159h-124z" />
    <glyph glyph-name="zdotaccent" unicode="&#x17c;" 
d="M66 0v123l287 278h-277v115h448v-123l-287 -278h297v-115h-468zM300 582q-50 0 -69.5 20.5t-19.5 49.5v29q0 30 19.5 50t69.5 20t69.5 -20t19.5 -50v-29q0 -29 -19.5 -49.5t-69.5 -20.5z" />
    <glyph glyph-name="Aacute" unicode="&#xc1;" 
d="M435 0l-44 168h-191l-43 -168h-152l189 698h212l189 -698h-160zM300 553h-8l-68 -264h144zM316 740l-88 43l99 194l123 -61z" />
    <glyph glyph-name="Abreve" unicode="&#x102;" 
d="M435 0l-44 168h-191l-43 -168h-152l189 698h212l189 -698h-160zM300 553h-8l-68 -264h144zM300 740q-45 0 -77.5 16.5t-55 41.5t-37.5 55t-24 57l83 42l21 -32q23 -36 42 -56.5t48 -20.5t48 20.5t42 56.5l21 32l83 -42q-9 -27 -24 -57t-37.5 -55t-55 -41.5t-77.5 -16.5z
" />
    <glyph glyph-name="Acircumflex" unicode="&#xc2;" 
d="M435 0l-44 168h-191l-43 -168h-152l189 698h212l189 -698h-160zM300 553h-8l-68 -264h144zM362 956l132 -159l-75 -58l-121 115l-121 -115l-71 58l132 159h124z" />
    <glyph glyph-name="Adieresis" unicode="&#xc4;" 
d="M435 0l-44 168h-191l-43 -168h-152l189 698h212l189 -698h-160zM300 553h-8l-68 -264h144zM190 761q-45 0 -62.5 18.5t-17.5 44.5v26q0 26 17.5 44t62.5 18t63 -18t18 -44v-26q0 -26 -18 -44.5t-63 -18.5zM410 761q-45 0 -63 18.5t-18 44.5v26q0 26 18 44t63 18t62.5 -18
t17.5 -44v-26q0 -26 -17.5 -44.5t-62.5 -18.5z" />
    <glyph glyph-name="uni1EA0" unicode="&#x1ea0;" 
d="M435 0l-44 168h-191l-43 -168h-152l189 698h212l189 -698h-160zM300 553h-8l-68 -264h144zM300 -203q-45 0 -63 18t-18 44v26q0 27 18 45t63 18t63 -18t18 -45v-26q0 -26 -18 -44t-63 -18z" />
    <glyph glyph-name="Agrave" unicode="&#xc0;" 
d="M435 0l-44 168h-191l-43 -168h-152l189 698h212l189 -698h-160zM300 553h-8l-68 -264h144zM150 916l123 61l99 -194l-88 -43z" />
    <glyph glyph-name="uni1EA2" unicode="&#x1ea2;" 
d="M435 0l-44 168h-191l-43 -168h-152l189 698h212l189 -698h-160zM300 553h-8l-68 -264h144zM180 963h143q28 0 47 -6t30 -16t16 -23t5 -28q0 -29 -16 -62.5t-41 -63.5l-28 -34l-75 35l41 92h-122v106z" />
    <glyph glyph-name="Amacron" unicode="&#x100;" 
d="M435 0l-44 168h-191l-43 -168h-152l189 698h212l189 -698h-160zM300 553h-8l-68 -264h144zM147 888h306v-103h-306v103z" />
    <glyph glyph-name="Aogonek" unicode="&#x104;" 
d="M194 698h212l189 -698q-37 -23 -59.5 -38.5t-34.5 -27.5t-16 -21t-4 -18q0 -19 11.5 -26t26.5 -7q18 0 31 8t24 20l53 -51q-13 -24 -43.5 -37.5t-78.5 -13.5q-25 0 -47.5 4.5t-39.5 14t-27 26t-10 40.5q0 42 31.5 69.5t87.5 53.5l-2 4h-63l-44 168h-191l-43 -168h-152z
M300 553h-8l-68 -264h144z" />
    <glyph glyph-name="Aring" unicode="&#xc5;" 
d="M435 0l-44 168h-191l-43 -168h-152l189 698h212l189 -698h-160zM300 553h-8l-68 -264h144zM300 719q-31 0 -58 10.5t-47 29.5t-31.5 45.5t-11.5 57.5t11.5 57t31.5 45t47 30t58 11t58 -10.5t47 -29.5t31.5 -45.5t11.5 -57.5t-11.5 -57t-31.5 -45t-47 -30t-58 -11z
M300 794q25 0 38 14t13 37v34q0 24 -13 37.5t-38 13.5t-38 -14t-13 -37v-34q0 -24 13 -37.5t38 -13.5z" />
    <glyph glyph-name="Aringacute" unicode="&#x1fa;" 
d="M435 0l-44 168h-191l-43 -168h-152l189 698h212l189 -698h-160zM300 553h-8l-68 -264h144zM293 976l-53 57l129 117l74 -81zM300 725q-32 0 -59.5 8t-48 23.5t-32.5 37.5t-12 51q0 28 12 50.5t32.5 38t48 23.5t59.5 8t59.5 -8t48 -23.5t32.5 -38t12 -50.5t-12 -50.5
t-32.5 -38t-48 -23.5t-59.5 -8zM300 795q55 0 55 45v10q0 24 -14 34.5t-41 10.5q-55 0 -55 -45v-10q0 -24 14 -34.5t41 -10.5z" />
    <glyph glyph-name="Atilde" unicode="&#xc3;" 
d="M435 0l-44 168h-191l-43 -168h-152l189 698h212l189 -698h-160zM300 553h-8l-68 -264h144zM376 762q-23 0 -40.5 6t-36.5 14q-22 9 -40 15.5t-38 6.5q-17 0 -30 -6t-29 -19l-52 68q18 27 46 45.5t68 18.5q23 0 40.5 -6t36.5 -14q22 -9 40 -15.5t38 -6.5q17 0 30 6t29 19
l52 -68q-18 -27 -46 -45.5t-68 -18.5z" />
    <glyph glyph-name="uni1EAE" unicode="&#x1eae;" 
d="M435 0l-44 168h-191l-43 -168h-152l189 698h212l189 -698h-160zM300 553h-8l-68 -264h144zM300 733q-46 0 -79.5 13.5t-57.5 35.5t-39.5 48t-25.5 52l75 47l21 -28q15 -20 27.5 -32.5t24.5 -20.5t25 -11t29 -3q31 0 54 14t52 53l21 28l75 -47q-10 -26 -25.5 -52
t-39.5 -48t-57.5 -35.5t-79.5 -13.5zM319 894l-79 39l99 194l114 -57z" />
    <glyph glyph-name="uni1EB6" unicode="&#x1eb6;" 
d="M435 0l-44 168h-191l-43 -168h-152l189 698h212l189 -698h-160zM300 553h-8l-68 -264h144zM300 740q-45 0 -77.5 16.5t-55 41.5t-37.5 55t-24 57l83 42l21 -32q23 -36 42 -56.5t48 -20.5t48 20.5t42 56.5l21 32l83 -42q-9 -27 -24 -57t-37.5 -55t-55 -41.5t-77.5 -16.5z
M300 -203q-45 0 -63 18t-18 44v26q0 27 18 45t63 18t63 -18t18 -45v-26q0 -26 -18 -44t-63 -18z" />
    <glyph glyph-name="uni1EB0" unicode="&#x1eb0;" 
d="M435 0l-44 168h-191l-43 -168h-152l189 698h212l189 -698h-160zM300 553h-8l-68 -264h144zM300 733q-46 0 -79.5 13.5t-57.5 35.5t-39.5 48t-25.5 52l75 47l21 -28q15 -20 27.5 -32.5t24.5 -20.5t25 -11t29 -3q31 0 54 14t52 53l21 28l75 -47q-10 -26 -25.5 -52
t-39.5 -48t-57.5 -35.5t-79.5 -13.5zM147 1070l114 57l99 -194l-79 -39z" />
    <glyph glyph-name="uni1EB2" unicode="&#x1eb2;" 
d="M435 0l-44 168h-191l-43 -168h-152l189 698h212l189 -698h-160zM300 553h-8l-68 -264h144zM170 1113h136q28 0 47 -6t30 -16t16 -23t5 -27q0 -30 -18.5 -63t-43.5 -64l-27 -33l-66 32l43 99h-122v101zM300 733q-46 0 -79.5 13.5t-57.5 35.5t-39.5 48t-25.5 52l75 47
l21 -28q15 -20 27.5 -32.5t24.5 -20.5t25 -11t29 -3q31 0 54 14t52 53l21 28l75 -47q-10 -26 -25.5 -52t-39.5 -48t-57.5 -35.5t-79.5 -13.5z" />
    <glyph glyph-name="uni1EB4" unicode="&#x1eb4;" 
d="M435 0l-44 168h-191l-43 -168h-152l189 698h212l189 -698h-160zM300 553h-8l-68 -264h144zM375 948q-23 0 -40.5 6t-36.5 14q-22 9 -40 15.5t-38 6.5q-17 0 -30 -6t-29 -19l-50 64q18 27 46 45.5t68 18.5q23 0 40.5 -6t36.5 -14q22 -9 40 -15.5t38 -6.5q17 0 30 6t29 19
l50 -64q-18 -27 -46 -45.5t-68 -18.5zM300 733q-46 0 -79.5 13.5t-57.5 35.5t-39.5 48t-25.5 52l75 47l21 -28q15 -20 27.5 -32.5t24.5 -20.5t25 -11t29 -3q31 0 54 14t52 53l21 28l75 -47q-10 -26 -25.5 -52t-39.5 -48t-57.5 -35.5t-79.5 -13.5z" />
    <glyph glyph-name="uni1EA4" unicode="&#x1ea4;" 
d="M435 0l-44 168h-191l-43 -168h-152l189 698h212l189 -698h-160zM300 553h-8l-68 -264h144zM473 894l-79 39l99 194l114 -57zM347 942l145 -147l-70 -64l-124 104l-124 -104l-66 64l145 147h94z" />
    <glyph glyph-name="uni1EAC" unicode="&#x1eac;" 
d="M435 0l-44 168h-191l-43 -168h-152l189 698h212l189 -698h-160zM300 553h-8l-68 -264h144zM362 956l132 -159l-75 -58l-121 115l-121 -115l-71 58l132 159h124zM300 -203q-45 0 -63 18t-18 44v26q0 27 18 45t63 18t63 -18t18 -45v-26q0 -26 -18 -44t-63 -18z" />
    <glyph glyph-name="uni1EA6" unicode="&#x1ea6;" 
d="M435 0l-44 168h-191l-43 -168h-152l189 698h212l189 -698h-160zM300 553h-8l-68 -264h144zM-7 1070l114 57l99 -194l-79 -39zM347 942l145 -147l-70 -64l-124 104l-124 -104l-66 64l145 147h94z" />
    <glyph glyph-name="uni1EA8" unicode="&#x1ea8;" 
d="M435 0l-44 168h-191l-43 -168h-152l189 698h212l189 -698h-160zM300 553h-8l-68 -264h144zM338 1113h134q28 0 46.5 -6t30 -16t16.5 -23t5 -27q0 -30 -19 -63.5t-44 -63.5l-27 -33l-66 34l43 97h-119v101zM347 942l145 -147l-70 -64l-124 104l-124 -104l-66 64l145 147
h94z" />
    <glyph glyph-name="uni1EAA" unicode="&#x1eaa;" 
d="M435 0l-44 168h-191l-43 -168h-152l189 698h212l189 -698h-160zM300 553h-8l-68 -264h144zM225 1103q23 0 40.5 -6t36.5 -14q22 -9 40 -15.5t38 -6.5q17 0 30 6t29 19l50 -64q-18 -27 -46 -45.5t-68 -18.5q-23 0 -40.5 6t-36.5 14q-22 9 -40 15.5t-38 6.5q-17 0 -30 -6
t-29 -19l-50 64q18 27 46 45.5t68 18.5zM348 929l142 -134l-68 -64l-124 95l-124 -95l-64 64l142 134h96z" />
    <glyph glyph-name="AE" unicode="&#xc6;" 
d="M279 168h-104l-33 -168h-146l159 698h417v-111h-155v-178h145v-111h-145v-187h155v-111h-293v168zM257 594l-60 -315h82v315h-22z" />
    <glyph glyph-name="AEacute" unicode="&#x1fc;" 
d="M279 168h-104l-33 -168h-146l159 698h417v-111h-155v-178h145v-111h-145v-187h155v-111h-293v168zM257 594l-60 -315h82v315h-22zM380 740l-88 43l99 194l123 -61z" />
    <glyph glyph-name="Cacute" unicode="&#x106;" 
d="M316 -12q-140 0 -207.5 94.5t-67.5 266.5t67.5 266.5t207.5 94.5q54 0 95.5 -14.5t71.5 -40.5t49.5 -63t30.5 -83l-140 -34q-6 25 -14 46t-20.5 36t-31 23.5t-44.5 8.5q-61 0 -86.5 -47.5t-25.5 -131.5v-122q0 -84 25.5 -131.5t86.5 -47.5q52 0 75.5 32t34.5 82l140 -34
q-11 -46 -30.5 -83t-49.5 -63.5t-71.5 -40.5t-95.5 -14zM328 740l-88 43l99 194l123 -61z" />
    <glyph glyph-name="Ccaron" unicode="&#x10c;" 
d="M316 -12q-140 0 -207.5 94.5t-67.5 266.5t67.5 266.5t207.5 94.5q54 0 95.5 -14.5t71.5 -40.5t49.5 -63t30.5 -83l-140 -34q-6 25 -14 46t-20.5 36t-31 23.5t-44.5 8.5q-61 0 -86.5 -47.5t-25.5 -131.5v-122q0 -84 25.5 -131.5t86.5 -47.5q52 0 75.5 32t34.5 82l140 -34
q-11 -46 -30.5 -83t-49.5 -63.5t-71.5 -40.5t-95.5 -14zM250 748l-132 159l75 58l121 -115l121 115l71 -58l-132 -159h-124z" />
    <glyph glyph-name="Ccedilla" unicode="&#xc7;" 
d="M313 589q-61 0 -86.5 -47.5t-25.5 -131.5v-122q0 -84 25.5 -131.5t86.5 -47.5q52 0 75.5 32t34.5 82l140 -34q-20 -88 -75 -141.5t-155 -58.5l-9 -44l4 -4q12 3 24 5t24 2q30 0 51.5 -16t21.5 -53q0 -26 -11 -43t-29.5 -28t-42.5 -15.5t-49 -4.5q-52 0 -81.5 14.5
t-42.5 29.5l46 56q10 -12 26.5 -20.5t39.5 -8.5q19 0 31.5 6t12.5 19q0 6 -3 12t-11.5 11.5t-23 10t-37.5 6.5l-21 2l14 66q-116 16 -171 108t-55 249q0 172 67.5 266.5t207.5 94.5q54 0 95.5 -14.5t71.5 -40.5t49.5 -63t30.5 -83l-140 -34q-6 25 -14 46t-20.5 36t-31 23.5
t-44.5 8.5z" />
    <glyph glyph-name="Ccircumflex" unicode="&#x108;" 
d="M316 -12q-140 0 -207.5 94.5t-67.5 266.5t67.5 266.5t207.5 94.5q54 0 95.5 -14.5t71.5 -40.5t49.5 -63t30.5 -83l-140 -34q-6 25 -14 46t-20.5 36t-31 23.5t-44.5 8.5q-61 0 -86.5 -47.5t-25.5 -131.5v-122q0 -84 25.5 -131.5t86.5 -47.5q52 0 75.5 32t34.5 82l140 -34
q-11 -46 -30.5 -83t-49.5 -63.5t-71.5 -40.5t-95.5 -14zM374 956l132 -159l-75 -58l-121 115l-121 -115l-71 58l132 159h124z" />
    <glyph glyph-name="Cdotaccent" unicode="&#x10a;" 
d="M316 -12q-140 0 -207.5 94.5t-67.5 266.5t67.5 266.5t207.5 94.5q54 0 95.5 -14.5t71.5 -40.5t49.5 -63t30.5 -83l-140 -34q-6 25 -14 46t-20.5 36t-31 23.5t-44.5 8.5q-61 0 -86.5 -47.5t-25.5 -131.5v-122q0 -84 25.5 -131.5t86.5 -47.5q52 0 75.5 32t34.5 82l140 -34
q-11 -46 -30.5 -83t-49.5 -63.5t-71.5 -40.5t-95.5 -14zM312 752q-50 0 -69.5 20.5t-19.5 49.5v29q0 30 19.5 50t69.5 20t69.5 -20t19.5 -50v-29q0 -29 -19.5 -49.5t-69.5 -20.5z" />
    <glyph glyph-name="Dcaron" unicode="&#x10e;" 
d="M64 698h225q141 0 209 -90t68 -259t-68 -259t-209 -90h-225v698zM279 118q67 0 98 43t31 125v127q0 81 -31 124t-98 43h-67v-462h67zM217 748l-132 159l75 58l121 -115l121 115l71 -58l-132 -159h-124z" />
    <glyph glyph-name="Dcroat" unicode="&#x110;" 
d="M69 311h-59v114h59v273h220q141 0 209 -90t68 -259t-68 -259t-209 -90h-220v311zM279 118q67 0 98 43t31 125v127q0 81 -31 124t-98 43h-62v-160h110v-104h-110v-198h62z" />
    <glyph glyph-name="Eth" unicode="&#xd0;" 
d="M69 311h-59v114h59v273h220q141 0 209 -90t68 -259t-68 -259t-209 -90h-220v311zM279 118q67 0 98 43t31 125v127q0 81 -31 124t-98 43h-62v-160h110v-104h-110v-198h62z" />
    <glyph glyph-name="Eacute" unicode="&#xc9;" 
d="M80 0v698h446v-123h-296v-160h286v-123h-286v-169h296v-123h-446zM319 740l-88 43l99 194l123 -61z" />
    <glyph glyph-name="Ebreve" unicode="&#x114;" 
d="M80 0v698h446v-123h-296v-160h286v-123h-286v-169h296v-123h-446zM303 740q-45 0 -77.5 16.5t-55 41.5t-37.5 55t-24 57l83 42l21 -32q23 -36 42 -56.5t48 -20.5t48 20.5t42 56.5l21 32l83 -42q-9 -27 -24 -57t-37.5 -55t-55 -41.5t-77.5 -16.5z" />
    <glyph glyph-name="Ecaron" unicode="&#x11a;" 
d="M80 0v698h446v-123h-296v-160h286v-123h-286v-169h296v-123h-446zM241 748l-132 159l75 58l121 -115l121 115l71 -58l-132 -159h-124z" />
    <glyph glyph-name="Ecircumflex" unicode="&#xca;" 
d="M80 0v698h446v-123h-296v-160h286v-123h-286v-169h296v-123h-446zM365 956l132 -159l-75 -58l-121 115l-121 -115l-71 58l132 159h124z" />
    <glyph glyph-name="Edieresis" unicode="&#xcb;" 
d="M80 0v698h446v-123h-296v-160h286v-123h-286v-169h296v-123h-446zM193 761q-45 0 -62.5 18.5t-17.5 44.5v26q0 26 17.5 44t62.5 18t63 -18t18 -44v-26q0 -26 -18 -44.5t-63 -18.5zM413 761q-45 0 -63 18.5t-18 44.5v26q0 26 18 44t63 18t62.5 -18t17.5 -44v-26
q0 -26 -17.5 -44.5t-62.5 -18.5z" />
    <glyph glyph-name="Edotaccent" unicode="&#x116;" 
d="M80 0v698h446v-123h-296v-160h286v-123h-286v-169h296v-123h-446zM303 752q-50 0 -69.5 20.5t-19.5 49.5v29q0 30 19.5 50t69.5 20t69.5 -20t19.5 -50v-29q0 -29 -19.5 -49.5t-69.5 -20.5z" />
    <glyph glyph-name="uni1EB8" unicode="&#x1eb8;" 
d="M80 0v698h446v-123h-296v-160h286v-123h-286v-169h296v-123h-446zM303 -203q-45 0 -63 18t-18 44v26q0 27 18 45t63 18t63 -18t18 -45v-26q0 -26 -18 -44t-63 -18z" />
    <glyph glyph-name="Egrave" unicode="&#xc8;" 
d="M80 0v698h446v-123h-296v-160h286v-123h-286v-169h296v-123h-446zM153 916l123 61l99 -194l-88 -43z" />
    <glyph glyph-name="uni1EBA" unicode="&#x1eba;" 
d="M80 0v698h446v-123h-296v-160h286v-123h-286v-169h296v-123h-446zM183 963h143q28 0 47 -6t30 -16t16 -23t5 -28q0 -29 -16 -62.5t-41 -63.5l-28 -34l-75 35l41 92h-122v106z" />
    <glyph glyph-name="Emacron" unicode="&#x112;" 
d="M80 0v698h446v-123h-296v-160h286v-123h-286v-169h296v-123h-446zM150 888h306v-103h-306v103z" />
    <glyph glyph-name="Eogonek" unicode="&#x118;" 
d="M80 698h446v-123h-296v-160h286v-123h-286v-169h296v-123q-37 -23 -59.5 -38.5t-34.5 -27.5t-16 -21t-4 -18q0 -19 11.5 -26t26.5 -7q18 0 31 8t24 20l53 -51q-13 -24 -43.5 -37.5t-78.5 -13.5q-25 0 -47.5 4.5t-39.5 14t-27 26t-10 40.5q0 42 31.5 69.5t87.5 53.5l-1 4
h-350v698z" />
    <glyph glyph-name="uni1EBC" unicode="&#x1ebc;" 
d="M80 0v698h446v-123h-296v-160h286v-123h-286v-169h296v-123h-446zM379 762q-23 0 -40.5 6t-36.5 14q-22 9 -40 15.5t-38 6.5q-17 0 -30 -6t-29 -19l-52 68q18 27 46 45.5t68 18.5q23 0 40.5 -6t36.5 -14q22 -9 40 -15.5t38 -6.5q17 0 30 6t29 19l52 -68
q-18 -27 -46 -45.5t-68 -18.5z" />
    <glyph glyph-name="uni1EBE" unicode="&#x1ebe;" 
d="M80 0v698h446v-123h-296v-160h286v-123h-286v-169h296v-123h-446zM476 894l-79 39l99 194l114 -57zM350 942l145 -147l-70 -64l-124 104l-124 -104l-66 64l145 147h94z" />
    <glyph glyph-name="uni1EC6" unicode="&#x1ec6;" 
d="M80 0v698h446v-123h-296v-160h286v-123h-286v-169h296v-123h-446zM365 956l132 -159l-75 -58l-121 115l-121 -115l-71 58l132 159h124zM303 -203q-45 0 -63 18t-18 44v26q0 27 18 45t63 18t63 -18t18 -45v-26q0 -26 -18 -44t-63 -18z" />
    <glyph glyph-name="uni1EC0" unicode="&#x1ec0;" 
d="M80 0v698h446v-123h-296v-160h286v-123h-286v-169h296v-123h-446zM-4 1070l114 57l99 -194l-79 -39zM350 942l145 -147l-70 -64l-124 104l-124 -104l-66 64l145 147h94z" />
    <glyph glyph-name="uni1EC2" unicode="&#x1ec2;" 
d="M80 0v698h446v-123h-296v-160h286v-123h-286v-169h296v-123h-446zM341 1113h134q28 0 46.5 -6t30 -16t16.5 -23t5 -27q0 -30 -19 -63.5t-44 -63.5l-27 -33l-66 34l43 97h-119v101zM350 942l145 -147l-70 -64l-124 104l-124 -104l-66 64l145 147h94z" />
    <glyph glyph-name="uni1EC4" unicode="&#x1ec4;" 
d="M80 0v698h446v-123h-296v-160h286v-123h-286v-169h296v-123h-446zM228 1103q23 0 40.5 -6t36.5 -14q22 -9 40 -15.5t38 -6.5q17 0 30 6t29 19l50 -64q-18 -27 -46 -45.5t-68 -18.5q-23 0 -40.5 6t-36.5 14q-22 9 -40 15.5t-38 6.5q-17 0 -30 -6t-29 -19l-50 64
q18 27 46 45.5t68 18.5zM351 929l142 -134l-68 -64l-124 95l-124 -95l-64 64l142 134h96z" />
    <glyph glyph-name="uni018F" unicode="&#x18f;" 
d="M300 -12q-140 0 -206.5 95t-66.5 266v50h393v11q0 40 -6.5 73t-20.5 57t-37.5 37t-57.5 13q-57 0 -84.5 -35t-40.5 -90l-130 49q24 94 87.5 145t167.5 51q142 0 208.5 -95t66.5 -266t-66.5 -266t-206.5 -95zM300 106q68 0 94 48.5t26 133.5v3h-240v-3q0 -85 26 -133.5
t94 -48.5z" />
    <glyph glyph-name="Gbreve" unicode="&#x11e;" 
d="M411 99h-9q-9 -22 -22 -42t-32 -35.5t-44.5 -24.5t-57.5 -9q-51 0 -90.5 24t-66.5 70t-40.5 112t-13.5 149q0 178 65 272.5t201 94.5q54 0 95 -14.5t70.5 -41t48.5 -63.5t30 -82l-140 -34q-6 22 -13.5 42.5t-19.5 36.5t-30 25.5t-44 9.5q-57 0 -80.5 -47t-23.5 -132v-114
q0 -85 25.5 -136t90.5 -51q51 0 76 30t25 77v51h-119v106h253v-373h-134v99zM301 740q-45 0 -77.5 16.5t-55 41.5t-37.5 55t-24 57l83 42l21 -32q23 -36 42 -56.5t48 -20.5t48 20.5t42 56.5l21 32l83 -42q-9 -27 -24 -57t-37.5 -55t-55 -41.5t-77.5 -16.5z" />
    <glyph glyph-name="Gcircumflex" unicode="&#x11c;" 
d="M411 99h-9q-9 -22 -22 -42t-32 -35.5t-44.5 -24.5t-57.5 -9q-51 0 -90.5 24t-66.5 70t-40.5 112t-13.5 149q0 178 65 272.5t201 94.5q54 0 95 -14.5t70.5 -41t48.5 -63.5t30 -82l-140 -34q-6 22 -13.5 42.5t-19.5 36.5t-30 25.5t-44 9.5q-57 0 -80.5 -47t-23.5 -132v-114
q0 -85 25.5 -136t90.5 -51q51 0 76 30t25 77v51h-119v106h253v-373h-134v99zM363 956l132 -159l-75 -58l-121 115l-121 -115l-71 58l132 159h124z" />
    <glyph glyph-name="Gcommaaccent" unicode="&#x122;" 
d="M411 99h-9q-9 -22 -22 -42t-32 -35.5t-44.5 -24.5t-57.5 -9q-51 0 -90.5 24t-66.5 70t-40.5 112t-13.5 149q0 178 65 272.5t201 94.5q54 0 95 -14.5t70.5 -41t48.5 -63.5t30 -82l-140 -34q-6 22 -13.5 42.5t-19.5 36.5t-30 25.5t-44 9.5q-57 0 -80.5 -47t-23.5 -132v-114
q0 -85 25.5 -136t90.5 -51q51 0 76 30t25 77v51h-119v106h253v-373h-134v99zM220 -54h157l-87 -215h-88z" />
    <glyph glyph-name="Gdotaccent" unicode="&#x120;" 
d="M411 99h-9q-9 -22 -22 -42t-32 -35.5t-44.5 -24.5t-57.5 -9q-51 0 -90.5 24t-66.5 70t-40.5 112t-13.5 149q0 178 65 272.5t201 94.5q54 0 95 -14.5t70.5 -41t48.5 -63.5t30 -82l-140 -34q-6 22 -13.5 42.5t-19.5 36.5t-30 25.5t-44 9.5q-57 0 -80.5 -47t-23.5 -132v-114
q0 -85 25.5 -136t90.5 -51q51 0 76 30t25 77v51h-119v106h253v-373h-134v99zM301 752q-50 0 -69.5 20.5t-19.5 49.5v29q0 30 19.5 50t69.5 20t69.5 -20t19.5 -50v-29q0 -29 -19.5 -49.5t-69.5 -20.5z" />
    <glyph glyph-name="Hbar" unicode="&#x126;" 
d="M388 292h-176v-292h-151v507h-55v113h55v78h151v-85h176v85h151v-78h55v-113h-55v-507h-151v292zM388 415v99h-176v-99h176z" />
    <glyph glyph-name="Hcircumflex" unicode="&#x124;" 
d="M388 292h-176v-292h-151v698h151v-283h176v283h151v-698h-151v292zM362 956l132 -159l-75 -58l-121 115l-121 -115l-71 58l132 159h124z" />
    <glyph glyph-name="Iacute" unicode="&#xcd;" 
d="M75 0v111h150v476h-150v111h450v-111h-150v-476h150v-111h-450zM316 740l-88 43l99 194l123 -61z" />
    <glyph glyph-name="Ibreve" unicode="&#x12c;" 
d="M75 0v111h150v476h-150v111h450v-111h-150v-476h150v-111h-450zM300 740q-45 0 -77.5 16.5t-55 41.5t-37.5 55t-24 57l83 42l21 -32q23 -36 42 -56.5t48 -20.5t48 20.5t42 56.5l21 32l83 -42q-9 -27 -24 -57t-37.5 -55t-55 -41.5t-77.5 -16.5z" />
    <glyph glyph-name="Icircumflex" unicode="&#xce;" 
d="M75 0v111h150v476h-150v111h450v-111h-150v-476h150v-111h-450zM362 956l132 -159l-75 -58l-121 115l-121 -115l-71 58l132 159h124z" />
    <glyph glyph-name="Idieresis" unicode="&#xcf;" 
d="M75 0v111h150v476h-150v111h450v-111h-150v-476h150v-111h-450zM190 761q-45 0 -62.5 18.5t-17.5 44.5v26q0 26 17.5 44t62.5 18t63 -18t18 -44v-26q0 -26 -18 -44.5t-63 -18.5zM410 761q-45 0 -63 18.5t-18 44.5v26q0 26 18 44t63 18t62.5 -18t17.5 -44v-26
q0 -26 -17.5 -44.5t-62.5 -18.5z" />
    <glyph glyph-name="Idotaccent" unicode="&#x130;" 
d="M75 0v111h150v476h-150v111h450v-111h-150v-476h150v-111h-450zM300 752q-50 0 -69.5 20.5t-19.5 49.5v29q0 30 19.5 50t69.5 20t69.5 -20t19.5 -50v-29q0 -29 -19.5 -49.5t-69.5 -20.5z" />
    <glyph glyph-name="uni1ECA" unicode="&#x1eca;" 
d="M75 0v111h150v476h-150v111h450v-111h-150v-476h150v-111h-450zM300 -203q-45 0 -63 18t-18 44v26q0 27 18 45t63 18t63 -18t18 -45v-26q0 -26 -18 -44t-63 -18z" />
    <glyph glyph-name="Igrave" unicode="&#xcc;" 
d="M75 0v111h150v476h-150v111h450v-111h-150v-476h150v-111h-450zM150 916l123 61l99 -194l-88 -43z" />
    <glyph glyph-name="uni1EC8" unicode="&#x1ec8;" 
d="M75 0v111h150v476h-150v111h450v-111h-150v-476h150v-111h-450zM180 963h143q28 0 47 -6t30 -16t16 -23t5 -28q0 -29 -16 -62.5t-41 -63.5l-28 -34l-75 35l41 92h-122v106z" />
    <glyph glyph-name="Imacron" unicode="&#x12a;" 
d="M75 0v111h150v476h-150v111h450v-111h-150v-476h150v-111h-450zM147 888h306v-103h-306v103z" />
    <glyph glyph-name="Iogonek" unicode="&#x12e;" 
d="M75 111h150v476h-150v111h450v-111h-150v-476h150v-111q-37 -23 -59.5 -38.5t-34.5 -27.5t-16 -21t-4 -18q0 -19 11.5 -26t26.5 -7q18 0 31 8t24 20l53 -51q-13 -24 -43.5 -37.5t-78.5 -13.5q-25 0 -47.5 4.5t-39.5 14t-27 26t-10 40.5q0 42 31.5 69.5t87.5 53.5l-2 4
h-353v111z" />
    <glyph glyph-name="Itilde" unicode="&#x128;" 
d="M75 0v111h150v476h-150v111h450v-111h-150v-476h150v-111h-450zM376 762q-23 0 -40.5 6t-36.5 14q-22 9 -40 15.5t-38 6.5q-17 0 -30 -6t-29 -19l-52 68q18 27 46 45.5t68 18.5q23 0 40.5 -6t36.5 -14q22 -9 40 -15.5t38 -6.5q17 0 30 6t29 19l52 -68q-18 -27 -46 -45.5
t-68 -18.5z" />
    <glyph glyph-name="IJ" unicode="&#x132;" 
d="M525 698v-503q0 -47 -16 -85.5t-46 -65.5t-73 -41.5t-97 -14.5t-95.5 14.5t-71.5 40t-48 61t-26 77.5l146 32q8 -45 29.5 -74t66.5 -29q38 0 59.5 24.5t21.5 75.5v488h150zM63 698h150v-389h-150v389z" />
    <glyph glyph-name="IJacute" 
d="M525 698v-503q0 -47 -16 -85.5t-46 -65.5t-73 -41.5t-97 -14.5t-95.5 14.5t-71.5 40t-48 61t-26 77.5l146 32q8 -45 29.5 -74t66.5 -29q38 0 59.5 24.5t21.5 75.5v488h150zM63 698h150v-389h-150v389zM155 740l-88 43l99 194l123 -61zM466 740l-88 43l99 194l123 -61z
" />
    <glyph glyph-name="Jacute" 
d="M511 698v-503q0 -47 -16.5 -85.5t-47 -65.5t-73.5 -41.5t-96 -14.5q-107 0 -165.5 53.5t-74.5 140.5l142 29q8 -45 30.5 -73t67.5 -28q38 0 59.5 24.5t21.5 75.5v365h-230v123h382zM337 740l-88 43l99 194l123 -61z" />
    <glyph glyph-name="Jcircumflex" unicode="&#x134;" 
d="M511 698v-503q0 -47 -16.5 -85.5t-47 -65.5t-73.5 -41.5t-96 -14.5q-107 0 -165.5 53.5t-74.5 140.5l142 29q8 -45 30.5 -73t67.5 -28q38 0 59.5 24.5t21.5 75.5v365h-230v123h382zM383 956l132 -159l-75 -58l-121 115l-121 -115l-71 58l132 159h124z" />
    <glyph glyph-name="Kcommaaccent" unicode="&#x136;" 
d="M280 291l-62 -87v-204h-150v698h150v-292h8l76 116l123 176h168l-209 -295l219 -403h-169zM247 -54h157l-87 -215h-88z" />
    <glyph glyph-name="Lacute" unicode="&#x139;" 
d="M92 0v698h151v-575h300v-123h-451zM184 740l-88 43l99 194l123 -61z" />
    <glyph glyph-name="Lcaron" unicode="&#x13d;" 
d="M92 0v698h151v-575h300v-123h-451zM417 525h-97l6 215h157z" />
    <glyph glyph-name="Lcommaaccent" unicode="&#x13b;" 
d="M92 0v698h151v-575h300v-123h-451zM239 -54h157l-87 -215h-88z" />
    <glyph glyph-name="Ldot" unicode="&#x13f;" 
d="M92 0v698h151v-575h300v-123h-451zM445 244q-50 0 -69.5 20.5t-19.5 49.5v29q0 30 19.5 50t69.5 20t69.5 -20t19.5 -50v-29q0 -29 -19.5 -49.5t-69.5 -20.5z" />
    <glyph glyph-name="Lslash" unicode="&#x141;" 
d="M543 0h-439v244l-71 -23v113l71 23v341h151v-296l184 61v-113l-184 -61v-166h288v-123z" />
    <glyph glyph-name="Nacute" unicode="&#x143;" 
d="M200 464h-11v-464h-128v698h180l159 -464h11v464h128v-698h-180zM316 740l-88 43l99 194l123 -61z" />
    <glyph glyph-name="Ncaron" unicode="&#x147;" 
d="M200 464h-11v-464h-128v698h180l159 -464h11v464h128v-698h-180zM238 748l-132 159l75 58l121 -115l121 115l71 -58l-132 -159h-124z" />
    <glyph glyph-name="Ncommaaccent" unicode="&#x145;" 
d="M200 464h-11v-464h-128v698h180l159 -464h11v464h128v-698h-180zM222 -54h157l-87 -215h-88z" />
    <glyph glyph-name="Ntilde" unicode="&#xd1;" 
d="M200 464h-11v-464h-128v698h180l159 -464h11v464h128v-698h-180zM376 762q-23 0 -40.5 6t-36.5 14q-22 9 -40 15.5t-38 6.5q-17 0 -30 -6t-29 -19l-52 68q18 27 46 45.5t68 18.5q23 0 40.5 -6t36.5 -14q22 -9 40 -15.5t38 -6.5q17 0 30 6t29 19l52 -68q-18 -27 -46 -45.5
t-68 -18.5z" />
    <glyph glyph-name="Eng" unicode="&#x14a;" 
d="M61 0v698h180l159 -464h11v464h128v-749q0 -65 -39 -107t-118 -42h-193v110h213v90h-43l-159 464h-11v-464h-128z" />
    <glyph glyph-name="Oacute" unicode="&#xd3;" 
d="M300 -12q-140 0 -206.5 95t-66.5 266t66.5 266t206.5 95t206.5 -95t66.5 -266t-66.5 -266t-206.5 -95zM300 109q64 0 88.5 47.5t24.5 132.5v121q0 84 -24.5 131.5t-88.5 47.5t-88.5 -47.5t-24.5 -131.5v-122q0 -84 24.5 -131.5t88.5 -47.5zM316 740l-88 43l99 194
l123 -61z" />
    <glyph glyph-name="Obreve" unicode="&#x14e;" 
d="M300 -12q-140 0 -206.5 95t-66.5 266t66.5 266t206.5 95t206.5 -95t66.5 -266t-66.5 -266t-206.5 -95zM300 109q64 0 88.5 47.5t24.5 132.5v121q0 84 -24.5 131.5t-88.5 47.5t-88.5 -47.5t-24.5 -131.5v-122q0 -84 24.5 -131.5t88.5 -47.5zM300 740q-45 0 -77.5 16.5
t-55 41.5t-37.5 55t-24 57l83 42l21 -32q23 -36 42 -56.5t48 -20.5t48 20.5t42 56.5l21 32l83 -42q-9 -27 -24 -57t-37.5 -55t-55 -41.5t-77.5 -16.5z" />
    <glyph glyph-name="Ocircumflex" unicode="&#xd4;" 
d="M300 -12q-140 0 -206.5 95t-66.5 266t66.5 266t206.5 95t206.5 -95t66.5 -266t-66.5 -266t-206.5 -95zM300 109q64 0 88.5 47.5t24.5 132.5v121q0 84 -24.5 131.5t-88.5 47.5t-88.5 -47.5t-24.5 -131.5v-122q0 -84 24.5 -131.5t88.5 -47.5zM362 956l132 -159l-75 -58
l-121 115l-121 -115l-71 58l132 159h124z" />
    <glyph glyph-name="Odieresis" unicode="&#xd6;" 
d="M300 -12q-140 0 -206.5 95t-66.5 266t66.5 266t206.5 95t206.5 -95t66.5 -266t-66.5 -266t-206.5 -95zM300 109q64 0 88.5 47.5t24.5 132.5v121q0 84 -24.5 131.5t-88.5 47.5t-88.5 -47.5t-24.5 -131.5v-122q0 -84 24.5 -131.5t88.5 -47.5zM190 761q-45 0 -62.5 18.5
t-17.5 44.5v26q0 26 17.5 44t62.5 18t63 -18t18 -44v-26q0 -26 -18 -44.5t-63 -18.5zM410 761q-45 0 -63 18.5t-18 44.5v26q0 26 18 44t63 18t62.5 -18t17.5 -44v-26q0 -26 -17.5 -44.5t-62.5 -18.5z" />
    <glyph glyph-name="uni1ECC" unicode="&#x1ecc;" 
d="M300 -12q-140 0 -206.5 95t-66.5 266t66.5 266t206.5 95t206.5 -95t66.5 -266t-66.5 -266t-206.5 -95zM300 109q64 0 88.5 47.5t24.5 132.5v121q0 84 -24.5 131.5t-88.5 47.5t-88.5 -47.5t-24.5 -131.5v-122q0 -84 24.5 -131.5t88.5 -47.5zM300 -203q-45 0 -63 18t-18 44
v26q0 27 18 45t63 18t63 -18t18 -45v-26q0 -26 -18 -44t-63 -18z" />
    <glyph glyph-name="Ograve" unicode="&#xd2;" 
d="M300 -12q-140 0 -206.5 95t-66.5 266t66.5 266t206.5 95t206.5 -95t66.5 -266t-66.5 -266t-206.5 -95zM300 109q64 0 88.5 47.5t24.5 132.5v121q0 84 -24.5 131.5t-88.5 47.5t-88.5 -47.5t-24.5 -131.5v-122q0 -84 24.5 -131.5t88.5 -47.5zM150 916l123 61l99 -194
l-88 -43z" />
    <glyph glyph-name="uni1ECE" unicode="&#x1ece;" 
d="M300 -12q-140 0 -206.5 95t-66.5 266t66.5 266t206.5 95t206.5 -95t66.5 -266t-66.5 -266t-206.5 -95zM300 109q64 0 88.5 47.5t24.5 132.5v121q0 84 -24.5 131.5t-88.5 47.5t-88.5 -47.5t-24.5 -131.5v-122q0 -84 24.5 -131.5t88.5 -47.5zM180 963h143q28 0 47 -6
t30 -16t16 -23t5 -28q0 -29 -16 -62.5t-41 -63.5l-28 -34l-75 35l41 92h-122v106z" />
    <glyph glyph-name="Ohungarumlaut" unicode="&#x150;" 
d="M300 -12q-140 0 -206.5 95t-66.5 266t66.5 266t206.5 95t206.5 -95t66.5 -266t-66.5 -266t-206.5 -95zM300 109q64 0 88.5 47.5t24.5 132.5v121q0 84 -24.5 131.5t-88.5 47.5t-88.5 -47.5t-24.5 -131.5v-122q0 -84 24.5 -131.5t88.5 -47.5zM210 740l-81 39l99 194
l116 -57zM415 740l-81 39l99 194l116 -57z" />
    <glyph glyph-name="Omacron" unicode="&#x14c;" 
d="M300 -12q-140 0 -206.5 95t-66.5 266t66.5 266t206.5 95t206.5 -95t66.5 -266t-66.5 -266t-206.5 -95zM300 109q64 0 88.5 47.5t24.5 132.5v121q0 84 -24.5 131.5t-88.5 47.5t-88.5 -47.5t-24.5 -131.5v-122q0 -84 24.5 -131.5t88.5 -47.5zM147 888h306v-103h-306v103z
" />
    <glyph glyph-name="Oslash" unicode="&#xd8;" 
d="M300 -12q-79 0 -134 31l-53 -85l-94 54l66 107q-58 91 -58 254q0 171 66.5 266t206.5 95q79 0 134 -31l53 85l94 -54l-66 -107q58 -91 58 -254q0 -171 -66.5 -266t-206.5 -95zM187 288v-20t2 -19l182 316q-26 24 -71 24q-64 0 -88.5 -47.5t-24.5 -131.5v-122zM300 109
q64 0 88.5 47.5t24.5 131.5v122v19.5t-2 19.5l-182 -316q25 -24 71 -24z" />
    <glyph glyph-name="Oslashacute" unicode="&#x1fe;" 
d="M300 -12q-79 0 -134 31l-53 -85l-94 54l66 107q-58 91 -58 254q0 171 66.5 266t206.5 95q79 0 134 -31l53 85l94 -54l-66 -107q58 -91 58 -254q0 -171 -66.5 -266t-206.5 -95zM187 288v-20t2 -19l182 316q-26 24 -71 24q-64 0 -88.5 -47.5t-24.5 -131.5v-122zM300 109
q64 0 88.5 47.5t24.5 131.5v122v19.5t-2 19.5l-182 -316q25 -24 71 -24zM316 740l-88 43l99 194l123 -61z" />
    <glyph glyph-name="Otilde" unicode="&#xd5;" 
d="M300 -12q-140 0 -206.5 95t-66.5 266t66.5 266t206.5 95t206.5 -95t66.5 -266t-66.5 -266t-206.5 -95zM300 109q64 0 88.5 47.5t24.5 132.5v121q0 84 -24.5 131.5t-88.5 47.5t-88.5 -47.5t-24.5 -131.5v-122q0 -84 24.5 -131.5t88.5 -47.5zM376 762q-23 0 -40.5 6
t-36.5 14q-22 9 -40 15.5t-38 6.5q-17 0 -30 -6t-29 -19l-52 68q18 27 46 45.5t68 18.5q23 0 40.5 -6t36.5 -14q22 -9 40 -15.5t38 -6.5q17 0 30 6t29 19l52 -68q-18 -27 -46 -45.5t-68 -18.5z" />
    <glyph glyph-name="Ohorn" unicode="&#x1a0;" 
d="M593 710q0 -47 -17.5 -72t-69.5 -28q38 -42 52.5 -107.5t14.5 -153.5q0 -171 -66.5 -266t-206.5 -95t-206.5 95t-66.5 266t66.5 266t206.5 95q50 0 89 -12h80v115h124v-103zM300 109q64 0 88.5 47.5t24.5 132.5v121q0 84 -24.5 131.5t-88.5 47.5t-88.5 -47.5
t-24.5 -131.5v-122q0 -84 24.5 -131.5t88.5 -47.5z" />
    <glyph glyph-name="uni1EDA" unicode="&#x1eda;" 
d="M593 710q0 -47 -17.5 -72t-69.5 -28q38 -42 52.5 -107.5t14.5 -153.5q0 -171 -66.5 -266t-206.5 -95t-206.5 95t-66.5 266t66.5 266t206.5 95q50 0 89 -12h80v115h124v-103zM300 109q64 0 88.5 47.5t24.5 132.5v121q0 84 -24.5 131.5t-88.5 47.5t-88.5 -47.5
t-24.5 -131.5v-122q0 -84 24.5 -131.5t88.5 -47.5zM316 740l-88 43l99 194l123 -61z" />
    <glyph glyph-name="uni1EE2" unicode="&#x1ee2;" 
d="M593 710q0 -47 -17.5 -72t-69.5 -28q38 -42 52.5 -107.5t14.5 -153.5q0 -171 -66.5 -266t-206.5 -95t-206.5 95t-66.5 266t66.5 266t206.5 95q50 0 89 -12h80v115h124v-103zM300 109q64 0 88.5 47.5t24.5 132.5v121q0 84 -24.5 131.5t-88.5 47.5t-88.5 -47.5
t-24.5 -131.5v-122q0 -84 24.5 -131.5t88.5 -47.5zM300 -203q-45 0 -63 18t-18 44v26q0 27 18 45t63 18t63 -18t18 -45v-26q0 -26 -18 -44t-63 -18z" />
    <glyph glyph-name="uni1EDC" unicode="&#x1edc;" 
d="M593 710q0 -47 -17.5 -72t-69.5 -28q38 -42 52.5 -107.5t14.5 -153.5q0 -171 -66.5 -266t-206.5 -95t-206.5 95t-66.5 266t66.5 266t206.5 95q50 0 89 -12h80v115h124v-103zM300 109q64 0 88.5 47.5t24.5 132.5v121q0 84 -24.5 131.5t-88.5 47.5t-88.5 -47.5
t-24.5 -131.5v-122q0 -84 24.5 -131.5t88.5 -47.5zM150 916l123 61l99 -194l-88 -43z" />
    <glyph glyph-name="uni1EDE" unicode="&#x1ede;" 
d="M593 710q0 -47 -17.5 -72t-69.5 -28q38 -42 52.5 -107.5t14.5 -153.5q0 -171 -66.5 -266t-206.5 -95t-206.5 95t-66.5 266t66.5 266t206.5 95q50 0 89 -12h80v115h124v-103zM300 109q64 0 88.5 47.5t24.5 132.5v121q0 84 -24.5 131.5t-88.5 47.5t-88.5 -47.5
t-24.5 -131.5v-122q0 -84 24.5 -131.5t88.5 -47.5zM180 963h143q28 0 47 -6t30 -16t16 -23t5 -28q0 -29 -16 -62.5t-41 -63.5l-28 -34l-75 35l41 92h-122v106z" />
    <glyph glyph-name="uni1EE0" unicode="&#x1ee0;" 
d="M593 710q0 -47 -17.5 -72t-69.5 -28q38 -42 52.5 -107.5t14.5 -153.5q0 -171 -66.5 -266t-206.5 -95t-206.5 95t-66.5 266t66.5 266t206.5 95q50 0 89 -12h80v115h124v-103zM300 109q64 0 88.5 47.5t24.5 132.5v121q0 84 -24.5 131.5t-88.5 47.5t-88.5 -47.5
t-24.5 -131.5v-122q0 -84 24.5 -131.5t88.5 -47.5zM350 762q-20 0 -35 6t-32 14q-19 9 -34.5 15.5t-32.5 6.5q-25 0 -49 -21l-51 62q17 28 41.5 47t60.5 19q20 0 35 -6t32 -14q19 -9 34.5 -15.5t32.5 -6.5q25 0 49 21l51 -62q-17 -28 -41.5 -47t-60.5 -19z" />
    <glyph glyph-name="uni1ED0" unicode="&#x1ed0;" 
d="M300 -12q-140 0 -206.5 95t-66.5 266t66.5 266t206.5 95t206.5 -95t66.5 -266t-66.5 -266t-206.5 -95zM300 109q64 0 88.5 47.5t24.5 132.5v121q0 84 -24.5 131.5t-88.5 47.5t-88.5 -47.5t-24.5 -131.5v-122q0 -84 24.5 -131.5t88.5 -47.5zM473 894l-79 39l99 194
l114 -57zM347 942l145 -147l-70 -64l-124 104l-124 -104l-66 64l145 147h94z" />
    <glyph glyph-name="uni1ED8" unicode="&#x1ed8;" 
d="M300 -12q-140 0 -206.5 95t-66.5 266t66.5 266t206.5 95t206.5 -95t66.5 -266t-66.5 -266t-206.5 -95zM300 109q64 0 88.5 47.5t24.5 132.5v121q0 84 -24.5 131.5t-88.5 47.5t-88.5 -47.5t-24.5 -131.5v-122q0 -84 24.5 -131.5t88.5 -47.5zM362 956l132 -159l-75 -58
l-121 115l-121 -115l-71 58l132 159h124zM300 -203q-45 0 -63 18t-18 44v26q0 27 18 45t63 18t63 -18t18 -45v-26q0 -26 -18 -44t-63 -18z" />
    <glyph glyph-name="uni1ED2" unicode="&#x1ed2;" 
d="M300 -12q-140 0 -206.5 95t-66.5 266t66.5 266t206.5 95t206.5 -95t66.5 -266t-66.5 -266t-206.5 -95zM300 109q64 0 88.5 47.5t24.5 132.5v121q0 84 -24.5 131.5t-88.5 47.5t-88.5 -47.5t-24.5 -131.5v-122q0 -84 24.5 -131.5t88.5 -47.5zM-7 1070l114 57l99 -194
l-79 -39zM347 942l145 -147l-70 -64l-124 104l-124 -104l-66 64l145 147h94z" />
    <glyph glyph-name="uni1ED4" unicode="&#x1ed4;" 
d="M300 -12q-140 0 -206.5 95t-66.5 266t66.5 266t206.5 95t206.5 -95t66.5 -266t-66.5 -266t-206.5 -95zM300 109q64 0 88.5 47.5t24.5 132.5v121q0 84 -24.5 131.5t-88.5 47.5t-88.5 -47.5t-24.5 -131.5v-122q0 -84 24.5 -131.5t88.5 -47.5zM338 1113h134q28 0 46.5 -6
t30 -16t16.5 -23t5 -27q0 -30 -19 -63.5t-44 -63.5l-27 -33l-66 34l43 97h-119v101zM347 942l145 -147l-70 -64l-124 104l-124 -104l-66 64l145 147h94z" />
    <glyph glyph-name="uni1ED6" unicode="&#x1ed6;" 
d="M300 -12q-140 0 -206.5 95t-66.5 266t66.5 266t206.5 95t206.5 -95t66.5 -266t-66.5 -266t-206.5 -95zM300 109q64 0 88.5 47.5t24.5 132.5v121q0 84 -24.5 131.5t-88.5 47.5t-88.5 -47.5t-24.5 -131.5v-122q0 -84 24.5 -131.5t88.5 -47.5zM225 1103q23 0 40.5 -6
t36.5 -14q22 -9 40 -15.5t38 -6.5q17 0 30 6t29 19l50 -64q-18 -27 -46 -45.5t-68 -18.5q-23 0 -40.5 6t-36.5 14q-22 9 -40 15.5t-38 6.5q-17 0 -30 -6t-29 -19l-50 64q18 27 46 45.5t68 18.5zM348 929l142 -134l-68 -64l-124 95l-124 -95l-64 64l142 134h96z" />
    <glyph glyph-name="OE" unicode="&#x152;" 
d="M277 0q-135 0 -201 90.5t-66 258.5t66 258.5t201 90.5h309v-111h-155v-178h145v-111h-145v-187h155v-111h-309zM293 111v476h-6q-68 0 -99.5 -45t-31.5 -134v-118q0 -89 31.5 -134t99.5 -45h6z" />
    <glyph glyph-name="Racute" unicode="&#x154;" 
d="M224 0h-148v698h270q51 0 91 -15.5t67.5 -44.5t41.5 -70t14 -92q0 -74 -32 -127t-91 -70l137 -279h-164l-117 259h-69v-259zM310 375q53 0 73.5 20t20.5 66v30q0 46 -20.5 66t-73.5 20h-86v-202h86zM320 740l-88 43l99 194l123 -61z" />
    <glyph glyph-name="Rcaron" unicode="&#x158;" 
d="M224 0h-148v698h270q51 0 91 -15.5t67.5 -44.5t41.5 -70t14 -92q0 -74 -32 -127t-91 -70l137 -279h-164l-117 259h-69v-259zM310 375q53 0 73.5 20t20.5 66v30q0 46 -20.5 66t-73.5 20h-86v-202h86zM242 748l-132 159l75 58l121 -115l121 115l71 -58l-132 -159h-124z" />
    <glyph glyph-name="Rcommaaccent" unicode="&#x156;" 
d="M224 0h-148v698h270q51 0 91 -15.5t67.5 -44.5t41.5 -70t14 -92q0 -74 -32 -127t-91 -70l137 -279h-164l-117 259h-69v-259zM310 375q53 0 73.5 20t20.5 66v30q0 46 -20.5 66t-73.5 20h-86v-202h86zM237 -54h157l-87 -215h-88z" />
    <glyph glyph-name="Sacute" unicode="&#x15a;" 
d="M289 -12q-88 0 -153 29t-105 79l87 96q38 -42 83.5 -62t92.5 -20q54 0 82 24t28 69q0 37 -21.5 56t-72.5 27l-73 12q-94 16 -136 69.5t-42 130.5q0 101 66 156.5t185 55.5q81 0 141 -25t97 -68l-85 -95q-28 31 -66 48.5t-86 17.5q-101 0 -101 -83q0 -36 22.5 -54
t73.5 -27l73 -13q85 -15 131 -64t46 -132q0 -49 -17 -90.5t-51 -72t-83.5 -47.5t-115.5 -17zM321 740l-88 43l99 194l123 -61z" />
    <glyph glyph-name="Scaron" unicode="&#x160;" 
d="M289 -12q-88 0 -153 29t-105 79l87 96q38 -42 83.5 -62t92.5 -20q54 0 82 24t28 69q0 37 -21.5 56t-72.5 27l-73 12q-94 16 -136 69.5t-42 130.5q0 101 66 156.5t185 55.5q81 0 141 -25t97 -68l-85 -95q-28 31 -66 48.5t-86 17.5q-101 0 -101 -83q0 -36 22.5 -54
t73.5 -27l73 -13q85 -15 131 -64t46 -132q0 -49 -17 -90.5t-51 -72t-83.5 -47.5t-115.5 -17zM243 748l-132 159l75 58l121 -115l121 115l71 -58l-132 -159h-124z" />
    <glyph glyph-name="Scedilla" unicode="&#x15e;" 
d="M306 -212q-52 0 -81.5 14.5t-42.5 29.5l46 56q10 -12 26.5 -20.5t39.5 -8.5q19 0 31.5 6t12.5 19q0 6 -3 12t-11.5 11.5t-23 10t-37.5 6.5l-21 2l13 63q-75 6 -131.5 34t-92.5 73l87 95q38 -42 83.5 -62t92.5 -20q54 0 82 24t28 69q0 37 -21.5 56t-72.5 27l-73 12
q-94 16 -136 69.5t-42 130.5q0 101 66 157t185 56q81 0 141 -25t97 -68l-85 -96q-28 31 -65.5 48t-85.5 17q-101 0 -101 -82q0 -36 22 -54t73 -27l73 -13q85 -15 131 -64t46 -132q0 -46 -15 -85.5t-44.5 -69t-73.5 -48t-101 -22.5l-9 -44l4 -4q12 3 24 5t24 2q30 0 51.5 -16
t21.5 -53q0 -26 -11 -43t-29.5 -28t-42.5 -15.5t-49 -4.5z" />
    <glyph glyph-name="Scircumflex" unicode="&#x15c;" 
d="M289 -12q-88 0 -153 29t-105 79l87 96q38 -42 83.5 -62t92.5 -20q54 0 82 24t28 69q0 37 -21.5 56t-72.5 27l-73 12q-94 16 -136 69.5t-42 130.5q0 101 66 156.5t185 55.5q81 0 141 -25t97 -68l-85 -95q-28 31 -66 48.5t-86 17.5q-101 0 -101 -83q0 -36 22.5 -54
t73.5 -27l73 -13q85 -15 131 -64t46 -132q0 -49 -17 -90.5t-51 -72t-83.5 -47.5t-115.5 -17zM367 956l132 -159l-75 -58l-121 115l-121 -115l-71 58l132 159h124z" />
    <glyph glyph-name="Scommaaccent" unicode="&#x218;" 
d="M289 -12q-88 0 -153 29t-105 79l87 96q38 -42 83.5 -62t92.5 -20q54 0 82 24t28 69q0 37 -21.5 56t-72.5 27l-73 12q-94 16 -136 69.5t-42 130.5q0 101 66 156.5t185 55.5q81 0 141 -25t97 -68l-85 -95q-28 31 -66 48.5t-86 17.5q-101 0 -101 -83q0 -36 22.5 -54
t73.5 -27l73 -13q85 -15 131 -64t46 -132q0 -49 -17 -90.5t-51 -72t-83.5 -47.5t-115.5 -17zM214 -54h157l-87 -215h-88z" />
    <glyph glyph-name="uni1E9E" unicode="&#x1e9e;" 
d="M46 698h510v-129l-124 -157v-6q28 -2 57.5 -13t54 -34t40.5 -59.5t16 -90.5q0 -45 -12.5 -85t-39 -70.5t-68 -48t-99.5 -17.5q-38 0 -78 10t-74 39l63 104q40 -36 87 -36q21 0 34.5 7t21.5 19t11 27.5t3 33.5v36q0 32 -18 53t-60 21h-86v117l127 163h-219v-582h-147v698z
" />
    <glyph glyph-name="Tbar" unicode="&#x166;" 
d="M375 282v-282h-150v282h-143v114h143v179h-201v123h552v-123h-201v-179h143v-114h-143z" />
    <glyph glyph-name="Tcaron" unicode="&#x164;" 
d="M375 575v-575h-150v575h-201v123h552v-123h-201zM238 748l-132 159l75 58l121 -115l121 115l71 -58l-132 -159h-124z" />
    <glyph glyph-name="Tcommaaccent" unicode="&#x162;" 
d="M375 575v-575h-150v575h-201v123h552v-123h-201zM222 -54h157l-87 -215h-88z" />
    <glyph glyph-name="uni021A" unicode="&#x21a;" 
d="M375 575v-575h-150v575h-201v123h552v-123h-201zM222 -54h157l-87 -215h-88z" />
    <glyph glyph-name="Thorn" unicode="&#xde;" 
d="M76 0v698h151v-121h114q52 0 92 -16t67 -45t41 -70t14 -91t-14 -91t-41 -70t-67 -45t-92 -16h-114v-133h-151zM227 254h77q53 0 73.5 20t20.5 66v30q0 46 -20.5 66t-73.5 20h-77v-202z" />
    <glyph glyph-name="Uacute" unicode="&#xda;" 
d="M205 698v-442q0 -33 2.5 -60.5t12 -46.5t28.5 -29.5t52 -10.5t52 10.5t28.5 29.5t12 46.5t2.5 60.5v442h150v-422q0 -72 -9.5 -126t-36.5 -90t-75 -54t-124 -18t-124 18t-75 54t-36.5 90t-9.5 126v422h150zM316 740l-88 43l99 194l123 -61z" />
    <glyph glyph-name="Ubreve" unicode="&#x16c;" 
d="M205 698v-442q0 -33 2.5 -60.5t12 -46.5t28.5 -29.5t52 -10.5t52 10.5t28.5 29.5t12 46.5t2.5 60.5v442h150v-422q0 -72 -9.5 -126t-36.5 -90t-75 -54t-124 -18t-124 18t-75 54t-36.5 90t-9.5 126v422h150zM300 740q-45 0 -77.5 16.5t-55 41.5t-37.5 55t-24 57l83 42
l21 -32q23 -36 42 -56.5t48 -20.5t48 20.5t42 56.5l21 32l83 -42q-9 -27 -24 -57t-37.5 -55t-55 -41.5t-77.5 -16.5z" />
    <glyph glyph-name="Ucircumflex" unicode="&#xdb;" 
d="M205 698v-442q0 -33 2.5 -60.5t12 -46.5t28.5 -29.5t52 -10.5t52 10.5t28.5 29.5t12 46.5t2.5 60.5v442h150v-422q0 -72 -9.5 -126t-36.5 -90t-75 -54t-124 -18t-124 18t-75 54t-36.5 90t-9.5 126v422h150zM362 956l132 -159l-75 -58l-121 115l-121 -115l-71 58l132 159
h124z" />
    <glyph glyph-name="Udieresis" unicode="&#xdc;" 
d="M205 698v-442q0 -33 2.5 -60.5t12 -46.5t28.5 -29.5t52 -10.5t52 10.5t28.5 29.5t12 46.5t2.5 60.5v442h150v-422q0 -72 -9.5 -126t-36.5 -90t-75 -54t-124 -18t-124 18t-75 54t-36.5 90t-9.5 126v422h150zM190 761q-45 0 -62.5 18.5t-17.5 44.5v26q0 26 17.5 44t62.5 18
t63 -18t18 -44v-26q0 -26 -18 -44.5t-63 -18.5zM410 761q-45 0 -63 18.5t-18 44.5v26q0 26 18 44t63 18t62.5 -18t17.5 -44v-26q0 -26 -17.5 -44.5t-62.5 -18.5z" />
    <glyph glyph-name="uni1EE4" unicode="&#x1ee4;" 
d="M205 698v-442q0 -33 2.5 -60.5t12 -46.5t28.5 -29.5t52 -10.5t52 10.5t28.5 29.5t12 46.5t2.5 60.5v442h150v-422q0 -72 -9.5 -126t-36.5 -90t-75 -54t-124 -18t-124 18t-75 54t-36.5 90t-9.5 126v422h150zM300 -203q-45 0 -63 18t-18 44v26q0 27 18 45t63 18t63 -18
t18 -45v-26q0 -26 -18 -44t-63 -18z" />
    <glyph glyph-name="Ugrave" unicode="&#xd9;" 
d="M205 698v-442q0 -33 2.5 -60.5t12 -46.5t28.5 -29.5t52 -10.5t52 10.5t28.5 29.5t12 46.5t2.5 60.5v442h150v-422q0 -72 -9.5 -126t-36.5 -90t-75 -54t-124 -18t-124 18t-75 54t-36.5 90t-9.5 126v422h150zM150 916l123 61l99 -194l-88 -43z" />
    <glyph glyph-name="uni1EE6" unicode="&#x1ee6;" 
d="M205 698v-442q0 -33 2.5 -60.5t12 -46.5t28.5 -29.5t52 -10.5t52 10.5t28.5 29.5t12 46.5t2.5 60.5v442h150v-422q0 -72 -9.5 -126t-36.5 -90t-75 -54t-124 -18t-124 18t-75 54t-36.5 90t-9.5 126v422h150zM180 963h143q28 0 47 -6t30 -16t16 -23t5 -28q0 -29 -16 -62.5
t-41 -63.5l-28 -34l-75 35l41 92h-122v106z" />
    <glyph glyph-name="Uhungarumlaut" unicode="&#x170;" 
d="M205 698v-442q0 -33 2.5 -60.5t12 -46.5t28.5 -29.5t52 -10.5t52 10.5t28.5 29.5t12 46.5t2.5 60.5v442h150v-422q0 -72 -9.5 -126t-36.5 -90t-75 -54t-124 -18t-124 18t-75 54t-36.5 90t-9.5 126v422h150zM210 740l-81 39l99 194l116 -57zM415 740l-81 39l99 194
l116 -57z" />
    <glyph glyph-name="Umacron" unicode="&#x16a;" 
d="M205 698v-442q0 -33 2.5 -60.5t12 -46.5t28.5 -29.5t52 -10.5t52 10.5t28.5 29.5t12 46.5t2.5 60.5v442h150v-422q0 -72 -9.5 -126t-36.5 -90t-75 -54t-124 -18t-124 18t-75 54t-36.5 90t-9.5 126v422h150zM147 888h306v-103h-306v103z" />
    <glyph glyph-name="Uogonek" unicode="&#x172;" 
d="M205 698v-442q0 -33 2.5 -60.5t12 -46.5t28.5 -29.5t52 -10.5t52 10.5t28.5 29.5t12 46.5t2.5 60.5v442h150v-422q0 -48 -2.5 -86t-14 -71t-34.5 -62t-64 -58q-36 -26 -58 -42t-34 -27t-16 -18.5t-4 -16.5q0 -19 12 -26t26 -7q18 0 31 8t24 20l53 -51
q-13 -24 -43.5 -37.5t-78.5 -13.5q-25 0 -47.5 4.5t-39.5 14.5t-27 26t-10 39q0 40 31 64.5t88 49.5l-2 5q-8 -2 -17 -2.5t-24 -0.5q-74 0 -120.5 18.5t-73 55t-36 90t-9.5 124.5v422h150z" />
    <glyph glyph-name="Uring" unicode="&#x16e;" 
d="M205 698v-442q0 -33 2.5 -60.5t12 -46.5t28.5 -29.5t52 -10.5t52 10.5t28.5 29.5t12 46.5t2.5 60.5v442h150v-422q0 -72 -9.5 -126t-36.5 -90t-75 -54t-124 -18t-124 18t-75 54t-36.5 90t-9.5 126v422h150zM300 719q-31 0 -58 10.5t-47 29.5t-31.5 45.5t-11.5 57.5
t11.5 57t31.5 45t47 30t58 11t58 -10.5t47 -29.5t31.5 -45.5t11.5 -57.5t-11.5 -57t-31.5 -45t-47 -30t-58 -11zM300 794q25 0 38 14t13 37v34q0 24 -13 37.5t-38 13.5t-38 -14t-13 -37v-34q0 -24 13 -37.5t38 -13.5z" />
    <glyph glyph-name="Utilde" unicode="&#x168;" 
d="M205 698v-442q0 -33 2.5 -60.5t12 -46.5t28.5 -29.5t52 -10.5t52 10.5t28.5 29.5t12 46.5t2.5 60.5v442h150v-422q0 -72 -9.5 -126t-36.5 -90t-75 -54t-124 -18t-124 18t-75 54t-36.5 90t-9.5 126v422h150zM376 762q-23 0 -40.5 6t-36.5 14q-22 9 -40 15.5t-38 6.5
q-17 0 -30 -6t-29 -19l-52 68q18 27 46 45.5t68 18.5q23 0 40.5 -6t36.5 -14q22 -9 40 -15.5t38 -6.5q17 0 30 6t29 19l52 -68q-18 -27 -46 -45.5t-68 -18.5z" />
    <glyph glyph-name="Uhorn" unicode="&#x1af;" 
d="M205 698v-442q0 -33 2.5 -60.5t12 -46.5t28.5 -29.5t52 -10.5t52 10.5t28.5 29.5t12 46.5t2.5 60.5v442h81v115h124v-103q0 -39 -11.5 -63t-43.5 -33v-338q0 -72 -9.5 -126t-36.5 -90t-75 -54t-124 -18t-124 18t-75 54t-36.5 90t-9.5 126v422h150z" />
    <glyph glyph-name="uni1EE8" unicode="&#x1ee8;" 
d="M205 698v-442q0 -33 2.5 -60.5t12 -46.5t28.5 -29.5t52 -10.5t52 10.5t28.5 29.5t12 46.5t2.5 60.5v442h81v115h124v-103q0 -39 -11.5 -63t-43.5 -33v-338q0 -72 -9.5 -126t-36.5 -90t-75 -54t-124 -18t-124 18t-75 54t-36.5 90t-9.5 126v422h150zM316 740l-88 43l99 194
l123 -61z" />
    <glyph glyph-name="uni1EF0" unicode="&#x1ef0;" 
d="M205 698v-442q0 -33 2.5 -60.5t12 -46.5t28.5 -29.5t52 -10.5t52 10.5t28.5 29.5t12 46.5t2.5 60.5v442h81v115h124v-103q0 -39 -11.5 -63t-43.5 -33v-338q0 -72 -9.5 -126t-36.5 -90t-75 -54t-124 -18t-124 18t-75 54t-36.5 90t-9.5 126v422h150zM300 -203q-45 0 -63 18
t-18 44v26q0 27 18 45t63 18t63 -18t18 -45v-26q0 -26 -18 -44t-63 -18z" />
    <glyph glyph-name="uni1EEA" unicode="&#x1eea;" 
d="M205 698v-442q0 -33 2.5 -60.5t12 -46.5t28.5 -29.5t52 -10.5t52 10.5t28.5 29.5t12 46.5t2.5 60.5v442h81v115h124v-103q0 -39 -11.5 -63t-43.5 -33v-338q0 -72 -9.5 -126t-36.5 -90t-75 -54t-124 -18t-124 18t-75 54t-36.5 90t-9.5 126v422h150zM150 916l123 61
l99 -194l-88 -43z" />
    <glyph glyph-name="uni1EEC" unicode="&#x1eec;" 
d="M205 698v-442q0 -33 2.5 -60.5t12 -46.5t28.5 -29.5t52 -10.5t52 10.5t28.5 29.5t12 46.5t2.5 60.5v442h81v115h124v-103q0 -39 -11.5 -63t-43.5 -33v-338q0 -72 -9.5 -126t-36.5 -90t-75 -54t-124 -18t-124 18t-75 54t-36.5 90t-9.5 126v422h150zM180 963h143
q28 0 47 -6t30 -16t16 -23t5 -28q0 -29 -16 -62.5t-41 -63.5l-28 -34l-75 35l41 92h-122v106z" />
    <glyph glyph-name="uni1EEE" unicode="&#x1eee;" 
d="M205 698v-442q0 -33 2.5 -60.5t12 -46.5t28.5 -29.5t52 -10.5t52 10.5t28.5 29.5t12 46.5t2.5 60.5v442h81v115h124v-103q0 -39 -11.5 -63t-43.5 -33v-338q0 -72 -9.5 -126t-36.5 -90t-75 -54t-124 -18t-124 18t-75 54t-36.5 90t-9.5 126v422h150zM350 762q-20 0 -35 6
t-32 14q-19 9 -34.5 15.5t-32.5 6.5q-25 0 -49 -21l-51 62q17 28 41.5 47t60.5 19q20 0 35 -6t32 -14q19 -9 34.5 -15.5t32.5 -6.5q25 0 49 21l51 -62q-17 -28 -41.5 -47t-60.5 -19z" />
    <glyph glyph-name="Wacute" unicode="&#x1e82;" 
d="M54 0l-43 698h129l20 -418l6 -132h9l60 398h135l60 -398h9l6 128l20 422h124l-43 -698h-190l-51 385h-10l-51 -385h-190zM316 740l-88 43l99 194l123 -61z" />
    <glyph glyph-name="Wcircumflex" unicode="&#x174;" 
d="M54 0l-43 698h129l20 -418l6 -132h9l60 398h135l60 -398h9l6 128l20 422h124l-43 -698h-190l-51 385h-10l-51 -385h-190zM362 956l132 -159l-75 -58l-121 115l-121 -115l-71 58l132 159h124z" />
    <glyph glyph-name="Wdieresis" unicode="&#x1e84;" 
d="M54 0l-43 698h129l20 -418l6 -132h9l60 398h135l60 -398h9l6 128l20 422h124l-43 -698h-190l-51 385h-10l-51 -385h-190zM190 761q-45 0 -62.5 18.5t-17.5 44.5v26q0 26 17.5 44t62.5 18t63 -18t18 -44v-26q0 -26 -18 -44.5t-63 -18.5zM410 761q-45 0 -63 18.5t-18 44.5
v26q0 26 18 44t63 18t62.5 -18t17.5 -44v-26q0 -26 -17.5 -44.5t-62.5 -18.5z" />
    <glyph glyph-name="Wgrave" unicode="&#x1e80;" 
d="M54 0l-43 698h129l20 -418l6 -132h9l60 398h135l60 -398h9l6 128l20 422h124l-43 -698h-190l-51 385h-10l-51 -385h-190zM150 916l123 61l99 -194l-88 -43z" />
    <glyph glyph-name="Yacute" unicode="&#xdd;" 
d="M225 0v247l-221 451h167l74 -162l54 -137h8l54 137l74 162h161l-221 -451v-247h-150zM316 740l-88 43l99 194l123 -61z" />
    <glyph glyph-name="Ycircumflex" unicode="&#x176;" 
d="M225 0v247l-221 451h167l74 -162l54 -137h8l54 137l74 162h161l-221 -451v-247h-150zM362 956l132 -159l-75 -58l-121 115l-121 -115l-71 58l132 159h124z" />
    <glyph glyph-name="uni1EF4" unicode="&#x1ef4;" 
d="M225 0v247l-221 451h167l74 -162l54 -137h8l54 137l74 162h161l-221 -451v-247h-150zM300 -203q-45 0 -63 18t-18 44v26q0 27 18 45t63 18t63 -18t18 -45v-26q0 -26 -18 -44t-63 -18z" />
    <glyph glyph-name="Ydieresis" unicode="&#x178;" 
d="M225 0v247l-221 451h167l74 -162l54 -137h8l54 137l74 162h161l-221 -451v-247h-150zM190 761q-45 0 -62.5 18.5t-17.5 44.5v26q0 26 17.5 44t62.5 18t63 -18t18 -44v-26q0 -26 -18 -44.5t-63 -18.5zM410 761q-45 0 -63 18.5t-18 44.5v26q0 26 18 44t63 18t62.5 -18
t17.5 -44v-26q0 -26 -17.5 -44.5t-62.5 -18.5z" />
    <glyph glyph-name="Ygrave" unicode="&#x1ef2;" 
d="M225 0v247l-221 451h167l74 -162l54 -137h8l54 137l74 162h161l-221 -451v-247h-150zM150 916l123 61l99 -194l-88 -43z" />
    <glyph glyph-name="uni1EF6" unicode="&#x1ef6;" 
d="M225 0v247l-221 451h167l74 -162l54 -137h8l54 137l74 162h161l-221 -451v-247h-150zM180 963h143q28 0 47 -6t30 -16t16 -23t5 -28q0 -29 -16 -62.5t-41 -63.5l-28 -34l-75 35l41 92h-122v106z" />
    <glyph glyph-name="uni1EF8" unicode="&#x1ef8;" 
d="M225 0v247l-221 451h167l74 -162l54 -137h8l54 137l74 162h161l-221 -451v-247h-150zM376 762q-23 0 -40.5 6t-36.5 14q-22 9 -40 15.5t-38 6.5q-17 0 -30 -6t-29 -19l-52 68q18 27 46 45.5t68 18.5q23 0 40.5 -6t36.5 -14q22 -9 40 -15.5t38 -6.5q17 0 30 6t29 19
l52 -68q-18 -27 -46 -45.5t-68 -18.5z" />
    <glyph glyph-name="Zacute" unicode="&#x179;" 
d="M551 0h-503v131l325 444h-315v123h483v-131l-325 -444h335v-123zM316 740l-88 43l99 194l123 -61z" />
    <glyph glyph-name="Zcaron" unicode="&#x17d;" 
d="M551 0h-503v131l325 444h-315v123h483v-131l-325 -444h335v-123zM238 748l-132 159l75 58l121 -115l121 115l71 -58l-132 -159h-124z" />
    <glyph glyph-name="Zdotaccent" unicode="&#x17b;" 
d="M551 0h-503v131l325 444h-315v123h483v-131l-325 -444h335v-123zM300 752q-50 0 -69.5 20.5t-19.5 49.5v29q0 30 19.5 50t69.5 20t69.5 -20t19.5 -50v-29q0 -29 -19.5 -49.5t-69.5 -20.5z" />
    <glyph glyph-name="mu" unicode="&#xb5;" 
d="M65 -200v716h148v-304q0 -110 85 -110q17 0 33 4.5t28.5 14t20 23.5t7.5 33v339h148v-516h-148v94h-6q-6 -20 -16 -39t-25 -34t-34 -24t-43 -9q-20 0 -38 8.5t-35 33.5h-6l29 -133v-97h-148z" />
    <glyph glyph-name="Delta" unicode="&#x2206;" 
d="M36 127l158 571h212l158 -571v-127h-528v127zM303 556h-8l-104 -433h216z" />
    <glyph glyph-name="product" unicode="&#x220f;" 
d="M60 698h480v-698h-148v575h-184v-575h-148v698z" />
    <glyph glyph-name="summation" unicode="&#x2211;" 
d="M536 -200h-478v130l227 317v4l-227 317v130h478v-123h-313l199 -276v-100l-199 -276h313v-123z" />
    <glyph glyph-name="Omega" unicode="&#x2126;" 
d="M27 105h143v10q-65 31 -101.5 100.5t-36.5 189.5q0 145 67.5 225t200.5 80t200.5 -80t67.5 -225q0 -120 -36.5 -189.5t-101.5 -100.5v-10h143v-105h-243v173q21 11 35.5 29t23.5 39t13 45t4 47v100q0 72 -25 111.5t-81 39.5t-81 -39.5t-25 -111.5v-100q0 -23 4 -47
t13 -45t23.5 -39t35.5 -29v-173h-243v105z" />
    <glyph glyph-name="pi" unicode="&#x3c0;" 
d="M80 401h-60v115h555v-115h-60v-286h60v-115h-50q-80 0 -119 42t-39 107v252h-139v-401h-148v401z" />
    <glyph glyph-name="uni0430" unicode="&#x430;" 
d="M487 0q-46 0 -74 23.5t-33 67.5h-5q-14 -51 -55.5 -77t-101.5 -26q-75 0 -120.5 40.5t-45.5 113.5q0 81 59 120t173 39h83v26q0 46 -21.5 69.5t-72.5 23.5q-47 0 -76 -18t-50 -47l-81 72q26 44 81.5 72.5t142.5 28.5q106 0 165.5 -48.5t59.5 -146.5v-226h57v-107h-85z
M274 85q39 0 66 19t27 55v62h-79q-91 0 -91 -61v-20q0 -27 21 -41t56 -14z" />
    <glyph glyph-name="uni0430.alt01" 
d="M393 94h-7q-20 -47 -55.5 -76.5t-97.5 -29.5q-43 0 -78.5 16t-61 49t-40 84t-14.5 121t14.5 121t40 84t61 49t78.5 16q31 0 55 -8t42.5 -22t32 -33.5t23.5 -42.5h7v94h148v-516h-148v94zM297 103q39 0 67.5 19t28.5 60v152q0 41 -28.5 60t-67.5 19q-50 0 -77 -30.5
t-27 -84.5v-80q0 -54 27 -84.5t77 -30.5z" />
    <glyph glyph-name="uni0431" unicode="&#x431;" 
d="M301 -12q-117 0 -185 75t-68 216q0 118 17 203t54.5 141t98 84t147.5 32l155 7v-134l-140 -5q-51 -2 -84.5 -14.5t-53 -37.5t-28 -63.5t-10.5 -92.5h7q17 50 51.5 76.5t88.5 26.5q45 0 82 -16t64 -46.5t41.5 -76t14.5 -105.5q0 -63 -17.5 -113t-50 -85t-79.5 -53.5
t-105 -18.5zM301 98q45 0 72 31t27 82v78q0 51 -26 77t-73 26q-46 0 -72.5 -31t-26.5 -88v-56q0 -57 26.5 -88t72.5 -31z" />
    <glyph glyph-name="uni0432" unicode="&#x432;" 
d="M80 516h295q72 0 110 -36t38 -96q0 -44 -25.5 -73t-83.5 -40v-5q62 -5 95.5 -34t33.5 -80q0 -70 -44 -111t-122 -41h-297v516zM351 105q44 0 44 42v24q0 22 -12 32.5t-32 10.5h-127v-109h127zM333 302q20 0 31 11.5t11 32.5v21q0 21 -11 32.5t-31 11.5h-109v-109h109z
" />
    <glyph glyph-name="uni0433" unicode="&#x433;" 
d="M122 516h390v-115h-242v-401h-148v516z" />
    <glyph glyph-name="uni0434" unicode="&#x434;" 
d="M10 115h60q26 39 41 99.5t15 143.5v158h377v-401h80v-255h-134v140h-305v-140h-134v255zM360 115v286h-101v-47q0 -78 -11 -139t-31 -100h143z" />
    <glyph glyph-name="uni0435" unicode="&#x435;" 
d="M314 -12q-130 0 -197 72t-67 196q0 63 17.5 113.5t50 86t79 54t104.5 18.5t104 -18.5t78 -52.5t49.5 -82.5t17.5 -108.5v-44h-353v-9q0 -50 31 -80.5t91 -30.5q46 0 79 17.5t57 46.5l80 -87q-30 -37 -84 -64t-137 -27zM302 422q-48 0 -76.5 -29.5t-28.5 -79.5v-8h208v8
q0 51 -27.5 80t-75.5 29z" />
    <glyph glyph-name="uni0436" unicode="&#x436;" 
d="M241 210h-49l-51 -210h-127l42 170q10 40 27.5 61.5t53.5 30.5v7q-29 9 -46 28t-26 54l-43 165h122l52 -203h45v203h118v-203h45l53 203h121l-43 -165q-9 -35 -26 -54t-46 -28v-7q36 -9 53.5 -30.5t27.5 -61.5l42 -170h-128l-50 210h-49v-210h-118v210z" />
    <glyph glyph-name="uni0437" unicode="&#x437;" 
d="M289 -12q-81 0 -143 26t-95 70l85 79q30 -33 66 -49t91 -16q46 0 70 16t24 43v6q0 46 -56 46h-121v98h108q32 0 45.5 13.5t13.5 36.5v6q0 23 -22.5 39t-68.5 16q-45 0 -77.5 -14.5t-61.5 -44.5l-82 76q41 44 95.5 68.5t138.5 24.5q54 0 96 -10.5t71.5 -29.5t44.5 -44.5
t15 -55.5q0 -48 -29.5 -77.5t-77.5 -38.5v-5q51 -8 84 -40t33 -83q0 -70 -63 -113t-184 -43z" />
    <glyph glyph-name="uni0438" unicode="&#x438;" 
d="M68 516h144v-166l-12 -152h6l187 318h139v-516h-144v166l12 152h-6l-187 -318h-139v516z" />
    <glyph glyph-name="uni0439" unicode="&#x439;" 
d="M68 516h144v-166l-12 -152h6l187 318h139v-516h-144v166l12 152h-6l-187 -318h-139v516zM302 570q-66 0 -108 29.5t-63 84.5l-21 55l115 43l32 -107q6 -3 19 -5t26 -2t26 2t19 5l32 107l115 -43l-21 -55q-21 -55 -63 -84.5t-108 -29.5z" />
    <glyph glyph-name="uni043A" unicode="&#x43a;" 
d="M71 516h148v-198h76l104 198h157l-100 -178q-17 -32 -36.5 -46.5t-44.5 -19.5v-6q29 -6 47.5 -21.5t37.5 -52.5l39 -77h55v-115h-69q-42 0 -71.5 17t-50.5 58l-68 130h-76v-205h-148v516z" />
    <glyph glyph-name="uni043B" unicode="&#x43b;" 
d="M22 115h70q22 27 34 77t12 143v181h394v-516h-148v401h-113v-70q0 -63 -5 -110t-14 -81t-21 -57t-26 -37q-29 -29 -61.5 -40.5t-80.5 -11.5h-41v121z" />
    <glyph glyph-name="uni043C" unicode="&#x43c;" 
d="M50 516h150l103 -217h8l103 217h136v-516h-120v247l5 91h-8l-127 -267l-127 267h-8l5 -91v-247h-120v516z" />
    <glyph glyph-name="uni043D" unicode="&#x43d;" 
d="M68 516h148v-197h168v197h148v-516h-148v204h-168v-204h-148v516z" />
    <glyph glyph-name="uni043E" unicode="&#x43e;" 
d="M300 -12q-60 0 -108 18.5t-81.5 53.5t-51.5 85t-18 113t18 113t51.5 85t81.5 53.5t108 18.5t108 -18.5t81.5 -53.5t51.5 -85t18 -113t-18 -113t-51.5 -85t-81.5 -53.5t-108 -18.5zM300 98q50 0 78 31t28 88v82q0 57 -28 88t-78 31t-78 -31t-28 -88v-82q0 -57 28 -88
t78 -31z" />
    <glyph glyph-name="uni043F" unicode="&#x43f;" 
d="M68 516h464v-516h-148v401h-168v-401h-148v516z" />
    <glyph glyph-name="uni0440" unicode="&#x440;" 
d="M59 516h148v-94h7q19 46 55 76t98 30q43 0 78.5 -16t61 -49t40 -84t14.5 -121t-14.5 -121t-40 -84t-61 -49t-78.5 -16q-62 0 -98 29.5t-55 76.5h-7v-294h-148v716zM303 103q50 0 77 30.5t27 84.5v80q0 54 -27 84.5t-77 30.5q-39 0 -67.5 -19t-28.5 -60v-152
q0 -41 28.5 -60t67.5 -19z" />
    <glyph glyph-name="uni0441" unicode="&#x441;" 
d="M321 -12q-61 0 -109.5 18.5t-82 53.5t-51.5 85t-18 113t18 113t51.5 85t82 53.5t108.5 18.5q85 0 136.5 -34.5t78.5 -91.5l-114 -62q-14 30 -36.5 50t-64.5 20q-51 0 -78.5 -29.5t-27.5 -80.5v-84q0 -51 27.5 -80.5t80.5 -29.5q43 0 67.5 20t41.5 52l112 -64
q-28 -57 -81.5 -91.5t-140.5 -34.5z" />
    <glyph glyph-name="uni0442" unicode="&#x442;" 
d="M227 401h-170v115h486v-115h-170v-401h-146v401z" />
    <glyph glyph-name="uni0443" unicode="&#x443;" 
d="M430 516h151l-243 -599q-23 -57 -61 -87t-104 -30h-102v115h124l32 88l-208 513h159l75 -217l47 -150h8l45 150z" />
    <glyph glyph-name="uni0444" unicode="&#x444;" 
d="M200 98q22 0 32 15t10 54v182q0 39 -10 54t-32 15q-25 0 -38 -22t-13 -78v-120q0 -56 13 -78t38 -22zM240 65h-7q-15 -45 -37 -61t-52 -16q-29 0 -51.5 14t-37.5 46t-22.5 83.5t-7.5 126.5t7.5 126.5t22.5 83.5t37.5 46t51.5 14q30 0 52 -16t37 -61h7v259h120v-259h7
q15 45 37 61t52 16q29 0 51.5 -14t37.5 -46t22.5 -83.5t7.5 -126.5t-7.5 -126.5t-22.5 -83.5t-37.5 -46t-51.5 -14q-30 0 -52 16t-37 61h-7v-265h-120v265zM400 98q25 0 38 22t13 78v120q0 56 -13 78t-38 22q-22 0 -32 -15t-10 -54v-182q0 -39 10 -54t32 -15z" />
    <glyph glyph-name="uni0445" unicode="&#x445;" 
d="M23 0l193 262l-180 254h169l55 -83l42 -67h8l43 67l56 83h155l-180 -246l193 -270h-170l-65 97l-45 69h-8l-44 -69l-66 -97h-156z" />
    <glyph glyph-name="uni0446" unicode="&#x446;" 
d="M449 0h-394v516h148v-401h152v401h148v-401h80v-255h-134v140z" />
    <glyph glyph-name="uni0447" unicode="&#x447;" 
d="M374 215h-5q-24 -32 -58.5 -50.5t-84.5 -18.5q-89 0 -129.5 46t-40.5 141v183h148v-176q0 -39 18.5 -56.5t62.5 -17.5q45 0 67 15t22 42v193h148v-516h-148v215z" />
    <glyph glyph-name="uni0448" unicode="&#x448;" 
d="M30 516h119v-408h91v408h119v-408h91v408h119v-516h-539v516z" />
    <glyph glyph-name="uni0449" unicode="&#x449;" 
d="M491 0h-465v516h118v-408h77v408h118v-408h77v408h118v-408h63v-248h-106v140z" />
    <glyph glyph-name="uni044A" unicode="&#x44a;" 
d="M130 401h-115v115h263v-147h111q38 0 71 -12t57.5 -35.5t38.5 -57.5t14 -79t-14 -79.5t-39 -58t-58.5 -35.5t-73.5 -12h-255v401zM357 108q29 0 46.5 18t17.5 47v23q0 29 -17.5 47t-46.5 18h-79v-153h79z" />
    <glyph glyph-name="uni044B" unicode="&#x44b;" 
d="M30 516h124v-147h58q38 0 71 -12t57.5 -35.5t38.5 -57.5t14 -79t-14 -79.5t-39 -58t-58.5 -35.5t-73.5 -12h-178v516zM207 101q29 0 45 17t16 54v25q0 37 -16 54t-45 17h-53v-167h53zM445 516h124v-516h-124v516z" />
    <glyph glyph-name="uni044C" unicode="&#x44c;" 
d="M86 516h148v-147h132q38 0 71 -12t57.5 -35.5t38.5 -57.5t14 -79t-14 -79.5t-39 -58t-58.5 -35.5t-73.5 -12h-276v516zM334 108q29 0 46.5 18t17.5 47v23q0 29 -17.5 47t-46.5 18h-100v-153h100z" />
    <glyph glyph-name="uni044D" unicode="&#x44d;" 
d="M232 307h162q-2 52 -31.5 81.5t-85.5 29.5q-45 0 -69.5 -20t-39.5 -55l-109 59q13 28 32.5 51.5t46 40t61 25.5t78.5 9q62 0 111 -18.5t82.5 -53.5t51.5 -85t18 -113t-18 -113t-51.5 -85t-82 -53.5t-109.5 -18.5q-85 0 -138 33.5t-82 88.5l107 61q15 -32 41 -52.5
t72 -20.5q54 0 83.5 29.5t31.5 81.5h-162v98z" />
    <glyph glyph-name="uni044E" unicode="&#x44e;" 
d="M393 -12q-85 0 -126.5 52.5t-48.5 169.5h-64v-210h-124v516h124v-203h64q9 114 51.5 164.5t123.5 50.5q46 0 80 -15t55.5 -47.5t32 -83.5t10.5 -124t-11 -124t-33 -83.5t-55.5 -47.5t-78.5 -15zM394 93q13 0 22 4.5t15 17t8.5 34t2.5 55.5v108q0 34 -2.5 55.5t-8.5 34
t-15 17t-22 4.5t-22 -4.5t-15 -17t-8.5 -34t-2.5 -55.5v-108q0 -34 2.5 -55.5t8.5 -34t15 -17t22 -4.5z" />
    <glyph glyph-name="uni044F" unicode="&#x44f;" 
d="M45 115h60l25 44q25 42 77 42v6q-65 6 -106 40t-41 99q0 39 13 70.5t36 53.5t55.5 34t70.5 12h288v-516h-148v185h-64l-62 -110q-24 -43 -52 -59t-73 -16h-79v115zM375 411h-110q-27 0 -41.5 -17t-14.5 -37v-23q0 -20 14.5 -35.5t41.5 -15.5h110v128z" />
    <glyph glyph-name="uni0410" unicode="&#x410;" 
d="M435 0l-44 168h-191l-43 -168h-152l189 698h212l189 -698h-160zM300 553h-8l-68 -264h144z" />
    <glyph glyph-name="uni0411" unicode="&#x411;" 
d="M64 698h433v-123h-282v-149h138q49 0 88 -15.5t66.5 -43t42.5 -66.5t15 -86t-15 -86t-42.5 -68t-66.5 -45t-88 -16h-289v698zM325 118q83 0 83 74v42q0 74 -83 74h-110v-190h110z" />
    <glyph glyph-name="uni0412" unicode="&#x412;" 
d="M77 698h245q103 0 157.5 -50t54.5 -136q0 -60 -29.5 -95.5t-84.5 -51.5v-6q65 -16 100.5 -56t35.5 -111q0 -88 -55.5 -140t-155.5 -52h-268v698zM299 105q54 0 79 18t25 66v29q0 48 -25 66t-79 18h-76v-197h76zM280 402q53 0 77 17.5t24 63.5v30q0 46 -24 63t-77 17h-57
v-191h57z" />
    <glyph glyph-name="uni0413" unicode="&#x413;" 
d="M107 698h421v-123h-270v-575h-151v698z" />
    <glyph glyph-name="uni0414" unicode="&#x414;" 
d="M11 123h50q17 19 32 49.5t25.5 77t16.5 110t6 147.5v191h375v-575h67v-273h-138v150h-296v-150h-138v273zM371 579h-99v-94q0 -74 -4.5 -131.5t-12.5 -101t-19.5 -75.5t-25.5 -54h161v456z" />
    <glyph glyph-name="uni0415" unicode="&#x415;" 
d="M80 0v698h446v-123h-296v-160h286v-123h-286v-169h296v-123h-446z" />
    <glyph glyph-name="uni0416" unicode="&#x416;" 
d="M235 297h-42l-56 -297h-135l47 249q9 50 29 75t58 33v6q-32 9 -51.5 32t-28.5 70l-44 233h127l54 -288h42v288h130v-288h42l54 288h127l-44 -233q-9 -47 -28.5 -70t-51.5 -32v-6q38 -8 58 -33t29 -75l47 -249h-135l-56 297h-42v-297h-130v297z" />
    <glyph glyph-name="uni0417" unicode="&#x417;" 
d="M278 -12q-84 0 -142.5 28t-97.5 72l87 96q30 -35 70.5 -54.5t82.5 -19.5q53 0 79 23.5t26 62.5v11q0 42 -21.5 61t-69.5 19h-96v121h96q41 0 60 23t19 64v9q0 85 -95 85q-45 0 -78 -18.5t-62 -50.5l-85 88q45 48 101 75t135 27q117 0 180.5 -50t63.5 -147
q0 -62 -39.5 -101.5t-105.5 -50.5v-6q34 -2 62.5 -12.5t49.5 -29t33 -45.5t12 -63q0 -50 -19 -90t-53.5 -68t-83.5 -43.5t-109 -15.5z" />
    <glyph glyph-name="uni0418" unicode="&#x418;" 
d="M55 698h141v-259l-12 -187h10l210 446h141v-698h-141v259l12 187h-10l-210 -446h-141v698z" />
    <glyph glyph-name="uni0419" unicode="&#x419;" 
d="M55 698h141v-259l-12 -187h10l210 446h141v-698h-141v259l12 187h-10l-210 -446h-141v698zM300 740q-66 0 -108 29.5t-63 84.5l-21 55l115 43l32 -107q6 -3 19 -5t26 -2t26 2t19 5l32 107l115 -43l-21 -55q-21 -55 -63 -84.5t-108 -29.5z" />
    <glyph glyph-name="uni041A" unicode="&#x41a;" 
d="M61 698h151v-284h88l112 284h149l-98 -249q-17 -42 -35 -61t-45 -25v-6q27 -6 44 -22.5t33 -56.5l60 -155h56v-123h-74q-47 0 -76.5 21t-49.5 74l-76 198h-88v-293h-151v698z" />
    <glyph glyph-name="uni041B" unicode="&#x41b;" 
d="M399 575h-110v-120q0 -92 -7 -159.5t-20 -115.5t-30 -79t-36 -50q-31 -31 -66.5 -44t-88.5 -13h-29v129h69q16 17 28.5 44.5t21.5 69.5t14 100.5t5 138.5v222h400v-698h-151v575z" />
    <glyph glyph-name="uni041C" unicode="&#x41c;" 
d="M431 311l8 195h-9l-130 -359l-130 359h-9l8 -195v-311h-130v698h177l86 -235h8l86 235h165v-698h-130v311z" />
    <glyph glyph-name="uni041D" unicode="&#x41d;" 
d="M388 292h-176v-292h-151v698h151v-283h176v283h151v-698h-151v292z" />
    <glyph glyph-name="uni041E" unicode="&#x41e;" 
d="M300 -12q-140 0 -206.5 95t-66.5 266t66.5 266t206.5 95t206.5 -95t66.5 -266t-66.5 -266t-206.5 -95zM300 109q64 0 88.5 47.5t24.5 132.5v121q0 84 -24.5 131.5t-88.5 47.5t-88.5 -47.5t-24.5 -131.5v-122q0 -84 24.5 -131.5t88.5 -47.5z" />
    <glyph glyph-name="uni041F" unicode="&#x41f;" 
d="M61 698h478v-698h-151v575h-176v-575h-151v698z" />
    <glyph glyph-name="uni0420" unicode="&#x420;" 
d="M76 0v698h270q51 0 91 -15.5t67.5 -44.5t41.5 -70t14 -92t-14 -92t-41.5 -70t-67.5 -44.5t-91 -15.5h-119v-254h-151zM227 375h81q53 0 73.5 20t20.5 66v30q0 46 -20.5 66t-73.5 20h-81v-202z" />
    <glyph glyph-name="uni0421" unicode="&#x421;" 
d="M316 -12q-140 0 -207.5 94.5t-67.5 266.5t67.5 266.5t207.5 94.5q54 0 95.5 -14.5t71.5 -40.5t49.5 -63t30.5 -83l-140 -34q-6 25 -14 46t-20.5 36t-31 23.5t-44.5 8.5q-61 0 -86.5 -47.5t-25.5 -131.5v-122q0 -84 25.5 -131.5t86.5 -47.5q52 0 75.5 32t34.5 82l140 -34
q-11 -46 -30.5 -83t-49.5 -63.5t-71.5 -40.5t-95.5 -14z" />
    <glyph glyph-name="uni0422" unicode="&#x422;" 
d="M375 575v-575h-150v575h-201v123h552v-123h-201z" />
    <glyph glyph-name="uni0423" unicode="&#x423;" 
d="M109 123h118l19 48l-230 527h159l102 -248l37 -120h3l32 120l88 248h152l-218 -575q-13 -35 -28.5 -58.5t-34.5 -38t-43.5 -20.5t-55.5 -6h-100v123z" />
    <glyph glyph-name="uni0424" unicode="&#x424;" 
d="M226 49q-98 12 -150 84.5t-52 214.5q0 140 52.5 213.5t149.5 85.5v83h148v-83q98 -12 150 -84.5t52 -214.5q0 -140 -52.5 -213.5t-149.5 -85.5v-83h-148v83zM236 542q-80 -9 -80 -127v-134q0 -118 80 -127v388zM364 154q80 9 80 127v134q0 118 -80 127v-388z" />
    <glyph glyph-name="uni0425" unicode="&#x425;" 
d="M591 0h-171l-72 139l-49 110h-9l-50 -110l-74 -139h-157l196 361l-183 337h171l57 -111l51 -112h8l52 112l60 111h157l-183 -339z" />
    <glyph glyph-name="uni0426" unicode="&#x426;" 
d="M441 0h-395v698h151v-575h158v575h151v-575h77v-273h-142v150z" />
    <glyph glyph-name="uni0427" unicode="&#x427;" 
d="M388 246h-5q-23 -9 -53.5 -15.5t-66.5 -6.5q-59 0 -102 13.5t-70.5 43t-40.5 77.5t-13 117v223h151v-227q0 -72 23 -99t77 -27q30 0 54.5 4.5t45.5 12.5v336h151v-698h-151v246z" />
    <glyph glyph-name="uni0428" unicode="&#x428;" 
d="M28 698h128v-585h80v585h128v-585h80v585h128v-698h-544v698z" />
    <glyph glyph-name="uni0429" unicode="&#x429;" 
d="M481 0h-453v698h120v-585h73v585h120v-585h73v585h120v-585h57v-263h-110v150z" />
    <glyph glyph-name="uni042A" unicode="&#x42a;" 
d="M121 575h-116v123h267v-252h106q98 0 155 -59.5t57 -163.5q0 -51 -15 -92t-42.5 -70.5t-66.5 -45t-88 -15.5h-257v575zM350 118q83 0 83 74v62q0 74 -83 74h-78v-210h78z" />
    <glyph glyph-name="uni042B" unicode="&#x42b;" 
d="M28 698h128v-252h44q45 0 81 -15.5t61.5 -45t39 -70.5t13.5 -92t-13.5 -92.5t-39 -70.5t-61.5 -44.5t-81 -15.5h-172v698zM178 113q85 0 85 74v72q0 74 -85 74h-22v-220h22zM444 0v698h128v-698h-128z" />
    <glyph glyph-name="uni042C" unicode="&#x42c;" 
d="M68 698h151v-252h131q98 0 155 -59.5t57 -163.5q0 -51 -15 -92t-42.5 -70.5t-66.5 -45t-88 -15.5h-282v698zM322 118q83 0 83 74v62q0 74 -83 74h-103v-210h103z" />
    <glyph glyph-name="uni042D" unicode="&#x42d;" 
d="M287 -12q-56 0 -98.5 14t-73.5 39.5t-50.5 60.5t-29.5 77l140 34q4 -21 12 -40t21.5 -33t33 -22.5t48.5 -8.5q64 0 90 47.5t26 131.5v4h-183v123h183q-1 81 -27 127.5t-89 46.5q-29 0 -48.5 -8.5t-32.5 -22.5t-21 -33t-13 -40l-140 34q10 42 29.5 77t50.5 60.5t73.5 39.5
t98.5 14q143 0 211 -94.5t68 -266.5t-68 -266.5t-211 -94.5z" />
    <glyph glyph-name="uni042E" unicode="&#x42e;" 
d="M393 -12q-45 0 -78 15t-55.5 50.5t-34 95t-14.5 148.5h-55v-297h-128v698h128v-288h55q2 85 13.5 142.5t33 92.5t55 50t80.5 15q48 0 82.5 -15.5t57 -56t33 -110.5t10.5 -179q0 -107 -11 -177t-34 -111t-57.5 -57t-80.5 -16zM393 101q13 0 22.5 5t16 18.5t10 38t3.5 62.5
v248q0 38 -3.5 62.5t-10 38t-16 18.5t-22.5 5t-22.5 -5t-16 -18.5t-10 -38t-3.5 -62.5v-248q0 -38 3.5 -62.5t10 -38t16 -18.5t22.5 -5z" />
    <glyph glyph-name="uni042F" unicode="&#x42f;" 
d="M32 123h60l52 100q15 29 31.5 42t40.5 16v6q-83 5 -125 55.5t-42 139.5q0 49 15 88.5t42.5 68t66.5 44t88 15.5h272v-698h-151v267h-51l-95 -183q-13 -24 -25.5 -40.5t-27.5 -26t-32 -13.5t-39 -4h-80v123zM382 580h-93q-83 0 -83 -74v-49q0 -74 83 -74h93v197z" />
    <glyph glyph-name="uni04D3" unicode="&#x4d3;" 
d="M487 0q-46 0 -74 23.5t-33 67.5h-5q-14 -51 -55.5 -77t-101.5 -26q-75 0 -120.5 40.5t-45.5 113.5q0 81 59 120t173 39h83v26q0 46 -21.5 69.5t-72.5 23.5q-47 0 -76 -18t-50 -47l-81 72q26 44 81.5 72.5t142.5 28.5q106 0 165.5 -48.5t59.5 -146.5v-226h57v-107h-85z
M274 85q39 0 66 19t27 55v62h-79q-91 0 -91 -61v-20q0 -27 21 -41t56 -14zM183 591q-45 0 -62.5 18.5t-17.5 44.5v26q0 26 17.5 44t62.5 18t63 -18t18 -44v-26q0 -26 -18 -44.5t-63 -18.5zM403 591q-45 0 -63 18.5t-18 44.5v26q0 26 18 44t63 18t62.5 -18t17.5 -44v-26
q0 -26 -17.5 -44.5t-62.5 -18.5z" />
    <glyph glyph-name="uni04D1" unicode="&#x4d1;" 
d="M487 0q-46 0 -74 23.5t-33 67.5h-5q-14 -51 -55.5 -77t-101.5 -26q-75 0 -120.5 40.5t-45.5 113.5q0 81 59 120t173 39h83v26q0 46 -21.5 69.5t-72.5 23.5q-47 0 -76 -18t-50 -47l-81 72q26 44 81.5 72.5t142.5 28.5q106 0 165.5 -48.5t59.5 -146.5v-226h57v-107h-85z
M274 85q39 0 66 19t27 55v62h-79q-91 0 -91 -61v-20q0 -27 21 -41t56 -14zM293 570q-66 0 -108 29.5t-63 84.5l-21 55l115 43l32 -107q6 -3 19 -5t26 -2t26 2t19 5l32 107l115 -43l-21 -55q-21 -55 -63 -84.5t-108 -29.5z" />
    <glyph glyph-name="uni04D3.alt01" 
d="M393 94h-7q-20 -47 -55.5 -76.5t-97.5 -29.5q-43 0 -78.5 16t-61 49t-40 84t-14.5 121t14.5 121t40 84t61 49t78.5 16q31 0 55 -8t42.5 -22t32 -33.5t23.5 -42.5h7v94h148v-516h-148v94zM297 103q39 0 67.5 19t28.5 60v152q0 41 -28.5 60t-67.5 19q-50 0 -77 -30.5
t-27 -84.5v-80q0 -54 27 -84.5t77 -30.5zM182 591q-45 0 -62.5 18.5t-17.5 44.5v26q0 26 17.5 44t62.5 18t63 -18t18 -44v-26q0 -26 -18 -44.5t-63 -18.5zM402 591q-45 0 -63 18.5t-18 44.5v26q0 26 18 44t63 18t62.5 -18t17.5 -44v-26q0 -26 -17.5 -44.5t-62.5 -18.5z" />
    <glyph glyph-name="uni04D1.alt01" 
d="M393 94h-7q-20 -47 -55.5 -76.5t-97.5 -29.5q-43 0 -78.5 16t-61 49t-40 84t-14.5 121t14.5 121t40 84t61 49t78.5 16q31 0 55 -8t42.5 -22t32 -33.5t23.5 -42.5h7v94h148v-516h-148v94zM297 103q39 0 67.5 19t28.5 60v152q0 41 -28.5 60t-67.5 19q-50 0 -77 -30.5
t-27 -84.5v-80q0 -54 27 -84.5t77 -30.5zM292 570q-66 0 -108 29.5t-63 84.5l-21 55l115 43l32 -107q6 -3 19 -5t26 -2t26 2t19 5l32 107l115 -43l-21 -55q-21 -55 -63 -84.5t-108 -29.5z" />
    <glyph glyph-name="uni04D5" unicode="&#x4d5;" 
d="M137 -12q-28 0 -52.5 9.5t-42.5 28.5t-28 48t-10 67q0 81 47 122.5t135 41.5h40v43q0 88 -59 88q-26 0 -39.5 -18t-22.5 -50l-92 33q17 65 57 96t98 31q46 0 77 -19t48 -54h4q42 73 119 73q38 0 69 -17t53 -48t34 -75t12 -99v-61h-239v-15q0 -58 18.5 -93.5t53.5 -35.5
q28 0 42 21.5t22 50.5l97 -27q-8 -29 -20.5 -55t-32 -45t-46 -30t-60.5 -11q-53 0 -96 27.5t-61 89.5h-4q-9 -61 -41 -89t-80 -28zM169 78q32 0 44.5 26t12.5 75v49h-29q-37 0 -57 -18t-20 -53v-19q0 -28 12 -44t37 -16zM410 438q-33 0 -49 -29.5t-16 -71.5v-32h130v32
q0 42 -16 71.5t-49 29.5z" />
    <glyph glyph-name="uni0453" unicode="&#x453;" 
d="M122 516h390v-115h-242v-401h-148v516zM333 570l-88 43l99 194l123 -61z" />
    <glyph glyph-name="uni0491" unicode="&#x491;" 
d="M122 516h256v140h134v-255h-242v-401h-148v516z" />
    <glyph glyph-name="uni0493" unicode="&#x493;" 
d="M144 187h-88v105h88v224h390v-115h-242v-109h151v-105h-151v-187h-148v187z" />
    <glyph glyph-name="uni0495" unicode="&#x495;" 
d="M272 -85h100q9 11 14.5 30.5t5.5 64.5v70q0 51 -18 70.5t-63 19.5t-67 -15t-22 -42v-113h-148v516h390v-115h-242v-180h5q24 32 58.5 50.5t84.5 18.5q91 0 130.5 -47.5t39.5 -153.5v-88q0 -106 -39.5 -153.5t-130.5 -47.5h-98v115z" />
    <glyph glyph-name="uni0450" unicode="&#x450;" 
d="M314 -12q-130 0 -197 72t-67 196q0 63 17.5 113.5t50 86t79 54t104.5 18.5t104 -18.5t78 -52.5t49.5 -82.5t17.5 -108.5v-44h-353v-9q0 -50 31 -80.5t91 -30.5q46 0 79 17.5t57 46.5l80 -87q-30 -37 -84 -64t-137 -27zM302 422q-48 0 -76.5 -29.5t-28.5 -79.5v-8h208v8
q0 51 -27.5 80t-75.5 29zM151 746l123 61l99 -194l-88 -43z" />
    <glyph glyph-name="uni0451" unicode="&#x451;" 
d="M314 -12q-130 0 -197 72t-67 196q0 63 17.5 113.5t50 86t79 54t104.5 18.5t104 -18.5t78 -52.5t49.5 -82.5t17.5 -108.5v-44h-353v-9q0 -50 31 -80.5t91 -30.5q46 0 79 17.5t57 46.5l80 -87q-30 -37 -84 -64t-137 -27zM302 422q-48 0 -76.5 -29.5t-28.5 -79.5v-8h208v8
q0 51 -27.5 80t-75.5 29zM191 591q-45 0 -62.5 18.5t-17.5 44.5v26q0 26 17.5 44t62.5 18t63 -18t18 -44v-26q0 -26 -18 -44.5t-63 -18.5zM411 591q-45 0 -63 18.5t-18 44.5v26q0 26 18 44t63 18t62.5 -18t17.5 -44v-26q0 -26 -17.5 -44.5t-62.5 -18.5z" />
    <glyph glyph-name="uni04D7" unicode="&#x4d7;" 
d="M314 -12q-130 0 -197 72t-67 196q0 63 17.5 113.5t50 86t79 54t104.5 18.5t104 -18.5t78 -52.5t49.5 -82.5t17.5 -108.5v-44h-353v-9q0 -50 31 -80.5t91 -30.5q46 0 79 17.5t57 46.5l80 -87q-30 -37 -84 -64t-137 -27zM302 422q-48 0 -76.5 -29.5t-28.5 -79.5v-8h208v8
q0 51 -27.5 80t-75.5 29zM301 570q-66 0 -108 29.5t-63 84.5l-21 55l115 43l32 -107q6 -3 19 -5t26 -2t26 2t19 5l32 107l115 -43l-21 -55q-21 -55 -63 -84.5t-108 -29.5z" />
    <glyph glyph-name="uni0454" unicode="&#x454;" 
d="M321 -12q-61 0 -109.5 18.5t-82 53.5t-51.5 85t-18 113t18 113t51.5 85t82 53.5t108.5 18.5q85 0 136.5 -34.5t78.5 -91.5l-109 -58q-14 33 -38 53.5t-68 20.5q-54 0 -83 -29.5t-31 -81.5h162v-98h-162q2 -52 31 -81.5t84 -29.5q46 0 72 20.5t41 52.5l107 -61
q-29 -55 -82 -88.5t-138 -33.5z" />
    <glyph glyph-name="uni04DD" unicode="&#x4dd;" 
d="M241 210h-49l-51 -210h-127l42 170q10 40 27.5 61.5t53.5 30.5v7q-29 9 -46 28t-26 54l-43 165h122l52 -203h45v203h118v-203h45l53 203h121l-43 -165q-9 -35 -26 -54t-46 -28v-7q36 -9 53.5 -30.5t27.5 -61.5l42 -170h-128l-50 210h-49v-210h-118v210zM190 591
q-45 0 -62.5 18.5t-17.5 44.5v26q0 26 17.5 44t62.5 18t63 -18t18 -44v-26q0 -26 -18 -44.5t-63 -18.5zM410 591q-45 0 -63 18.5t-18 44.5v26q0 26 18 44t63 18t62.5 -18t17.5 -44v-26q0 -26 -17.5 -44.5t-62.5 -18.5z" />
    <glyph glyph-name="uni04C2" unicode="&#x4c2;" 
d="M241 210h-49l-51 -210h-127l42 170q10 40 27.5 61.5t53.5 30.5v7q-29 9 -46 28t-26 54l-43 165h122l52 -203h45v203h118v-203h45l53 203h121l-43 -165q-9 -35 -26 -54t-46 -28v-7q36 -9 53.5 -30.5t27.5 -61.5l42 -170h-128l-50 210h-49v-210h-118v210zM300 570
q-66 0 -108 29.5t-63 84.5l-21 55l115 43l32 -107q6 -3 19 -5t26 -2t26 2t19 5l32 107l115 -43l-21 -55q-21 -55 -63 -84.5t-108 -29.5z" />
    <glyph glyph-name="uni0497" unicode="&#x497;" 
d="M506 0h-62l-50 210h-49v-210h-118v210h-49l-51 -210h-127l42 170q10 40 27.5 61.5t53.5 30.5v7q-29 9 -46 28t-26 54l-43 165h122l52 -203h45v203h118v-203h45l53 203h121l-43 -165q-9 -35 -26 -54t-46 -28v-7q36 -9 53.5 -30.5t27.5 -61.5l15 -62h67v-248h-106v140z" />
    <glyph glyph-name="uni04DF" unicode="&#x4df;" 
d="M289 -12q-81 0 -143 26t-95 70l85 79q30 -33 66 -49t91 -16q46 0 70 16t24 43v6q0 46 -56 46h-121v98h108q32 0 45.5 13.5t13.5 36.5v6q0 23 -22.5 39t-68.5 16q-45 0 -77.5 -14.5t-61.5 -44.5l-82 76q41 44 95.5 68.5t138.5 24.5q54 0 96 -10.5t71.5 -29.5t44.5 -44.5
t15 -55.5q0 -48 -29.5 -77.5t-77.5 -38.5v-5q51 -8 84 -40t33 -83q0 -70 -63 -113t-184 -43zM190 591q-45 0 -62.5 18.5t-17.5 44.5v26q0 26 17.5 44t62.5 18t63 -18t18 -44v-26q0 -26 -18 -44.5t-63 -18.5zM410 591q-45 0 -63 18.5t-18 44.5v26q0 26 18 44t63 18t62.5 -18
t17.5 -44v-26q0 -26 -17.5 -44.5t-62.5 -18.5z" />
    <glyph glyph-name="uni0499" unicode="&#x499;" 
d="M222 -7q-58 9 -101.5 32.5t-69.5 58.5l85 79q30 -33 66 -49t91 -16q46 0 70 16t24 43v6q0 46 -56 46h-121v98h108q32 0 45.5 13.5t13.5 36.5v6q0 23 -22.5 39t-68.5 16q-45 0 -77.5 -14.5t-61.5 -44.5l-82 76q41 44 95.5 68.5t138.5 24.5q54 0 96 -10.5t71.5 -29.5
t44.5 -44.5t15 -55.5q0 -48 -29.5 -77.5t-77.5 -38.5v-5q51 -8 84 -40t33 -83q0 -60 -46 -100.5t-134 -51.5v-132h-134v133z" />
    <glyph glyph-name="uni04CF" unicode="&#x4cf;" 
d="M68 115h158v510h-158v115h464v-115h-158v-510h158v-115h-464v115z" />
    <glyph glyph-name="uni04E5" unicode="&#x4e5;" 
d="M68 516h144v-166l-12 -152h6l187 318h139v-516h-144v166l12 152h-6l-187 -318h-139v516zM192 591q-45 0 -62.5 18.5t-17.5 44.5v26q0 26 17.5 44t62.5 18t63 -18t18 -44v-26q0 -26 -18 -44.5t-63 -18.5zM412 591q-45 0 -63 18.5t-18 44.5v26q0 26 18 44t63 18t62.5 -18
t17.5 -44v-26q0 -26 -17.5 -44.5t-62.5 -18.5z" />
    <glyph glyph-name="uni045D" unicode="&#x45d;" 
d="M68 516h144v-166l-12 -152h6l187 318h139v-516h-144v166l12 152h-6l-187 -318h-139v516zM152 746l123 61l99 -194l-88 -43z" />
    <glyph glyph-name="uni04E3" unicode="&#x4e3;" 
d="M68 516h144v-166l-12 -152h6l187 318h139v-516h-144v166l12 152h-6l-187 -318h-139v516zM149 718h306v-103h-306v103z" />
    <glyph glyph-name="uni045C" unicode="&#x45c;" 
d="M71 516h148v-198h76l104 198h157l-100 -178q-17 -32 -36.5 -46.5t-44.5 -19.5v-6q29 -6 47.5 -21.5t37.5 -52.5l39 -77h55v-115h-69q-42 0 -71.5 17t-50.5 58l-68 130h-76v-205h-148v516zM316 570l-88 43l99 194l123 -61z" />
    <glyph glyph-name="uni049B" unicode="&#x49b;" 
d="M439 0q-29 9 -49.5 26.5t-36.5 48.5l-68 130h-76v-205h-148v516h148v-198h76l104 198h157l-100 -178q-17 -32 -36.5 -46.5t-44.5 -19.5v-6q29 -6 47.5 -21.5t37.5 -52.5l39 -77h84v-255h-134v140z" />
    <glyph glyph-name="uni049D" unicode="&#x49d;" 
d="M207 206h-44v-206h-133v516h133v-199h44v119h96v-119h36l98 199h142l-92 -178q-17 -32 -36.5 -46t-46.5 -20v-6q32 -5 50 -20.5t33 -49.5l38 -86h52v-110h-57q-42 0 -73 17t-50 60l-58 129h-36v-107h-96v107z" />
    <glyph glyph-name="uni04A1" unicode="&#x4a1;" 
d="M120 401h-115v115h263v-198h60l96 198h157l-97 -181q-17 -30 -36 -43.5t-45 -19.5v-6q31 -6 49.5 -22t33.5 -48l38 -81h55v-115h-69q-42 0 -72 17.5t-52 63.5l-58 124h-60v-205h-148v401z" />
    <glyph glyph-name="uni0459" unicode="&#x459;" 
d="M0 108h48q10 14 17 32.5t11.5 47.5t6.5 71.5t2 105.5v151h298v-147h32q38 0 71 -12t57.5 -35.5t38.5 -57.5t14 -79t-14 -79.5t-39 -58t-58.5 -35.5t-73.5 -12h-147v408h-66v-47q0 -86 -4.5 -141.5t-12.5 -92t-21 -58t-29 -37.5q-18 -18 -46 -28t-67 -10h-18v114zM418 98
q27 0 42.5 18t15.5 56v25q0 38 -15.5 56t-42.5 18h-35v-173h35z" />
    <glyph glyph-name="uni04A3" unicode="&#x4a3;" 
d="M55 516h148v-197h152v197h148v-401h80v-255h-134v140h-94v204h-152v-204h-148v516z" />
    <glyph glyph-name="uni045A" unicode="&#x45a;" 
d="M30 516h119v-200h104v200h119v-147h43q38 0 71 -12t57.5 -35.5t38.5 -57.5t14 -79t-14 -79.5t-39 -58t-58.5 -35.5t-73.5 -12h-158v208h-104v-208h-119v516zM418 98q27 0 42.5 18t15.5 56v25q0 38 -15.5 56t-42.5 18h-46v-173h46z" />
    <glyph glyph-name="uni04A5" unicode="&#x4a5;" 
d="M30 516h133v-199h115v199h301v-111h-168v-405h-133v206h-115v-206h-133v516z" />
    <glyph glyph-name="uni04E7" unicode="&#x4e7;" 
d="M300 -12q-60 0 -108 18.5t-81.5 53.5t-51.5 85t-18 113t18 113t51.5 85t81.5 53.5t108 18.5t108 -18.5t81.5 -53.5t51.5 -85t18 -113t-18 -113t-51.5 -85t-81.5 -53.5t-108 -18.5zM300 98q50 0 78 31t28 88v82q0 57 -28 88t-78 31t-78 -31t-28 -88v-82q0 -57 28 -88
t78 -31zM190 591q-45 0 -62.5 18.5t-17.5 44.5v26q0 26 17.5 44t62.5 18t63 -18t18 -44v-26q0 -26 -18 -44.5t-63 -18.5zM410 591q-45 0 -63 18.5t-18 44.5v26q0 26 18 44t63 18t62.5 -18t17.5 -44v-26q0 -26 -17.5 -44.5t-62.5 -18.5z" />
    <glyph glyph-name="uni0473" unicode="&#x473;" 
d="M300 -12q-60 0 -108 18.5t-81.5 53.5t-51.5 85t-18 113t18 113t51.5 85t81.5 53.5t108 18.5t108 -18.5t81.5 -53.5t51.5 -85t18 -113t-18 -113t-51.5 -85t-81.5 -53.5t-108 -18.5zM300 87q56 0 86 31t31 94h-234q0 -63 30 -94t87 -31zM300 429q-55 0 -85 -29.5t-32 -89.5
h234q-2 60 -32.5 89.5t-84.5 29.5z" />
    <glyph glyph-name="uni04E9" unicode="&#x4e9;" 
d="M300 -12q-60 0 -108 18.5t-81.5 53.5t-51.5 85t-18 113t18 113t51.5 85t81.5 53.5t108 18.5t108 -18.5t81.5 -53.5t51.5 -85t18 -113t-18 -113t-51.5 -85t-81.5 -53.5t-108 -18.5zM300 87q56 0 86 31t31 94h-234q0 -63 30 -94t87 -31zM300 429q-55 0 -85 -29.5t-32 -89.5
h234q-2 60 -32.5 89.5t-84.5 29.5z" />
    <glyph glyph-name="uni04AB" unicode="&#x4ab;" 
d="M254 -5q-93 18 -143.5 86.5t-50.5 176.5q0 63 18 113t51.5 85t82 53.5t108.5 18.5q85 0 136.5 -34.5t78.5 -91.5l-114 -62q-14 30 -36.5 50t-64.5 20q-51 0 -78.5 -29.5t-27.5 -80.5v-84q0 -51 27.5 -80.5t80.5 -29.5q43 0 67.5 20t41.5 52l112 -64q-22 -45 -60 -76.5
t-95 -42.5v-135h-134v135z" />
    <glyph glyph-name="uni04EF" unicode="&#x4ef;" 
d="M430 516h151l-243 -599q-23 -57 -61 -87t-104 -30h-102v115h124l32 88l-208 513h159l75 -217l47 -150h8l45 150zM150 718h306v-103h-306v103z" />
    <glyph glyph-name="uni04F1" unicode="&#x4f1;" 
d="M430 516h151l-243 -599q-23 -57 -61 -87t-104 -30h-102v115h124l32 88l-208 513h159l75 -217l47 -150h8l45 150zM193 591q-45 0 -62.5 18.5t-17.5 44.5v26q0 26 17.5 44t62.5 18t63 -18t18 -44v-26q0 -26 -18 -44.5t-63 -18.5zM413 591q-45 0 -63 18.5t-18 44.5v26
q0 26 18 44t63 18t62.5 -18t17.5 -44v-26q0 -26 -17.5 -44.5t-62.5 -18.5z" />
    <glyph glyph-name="uni04F3" unicode="&#x4f3;" 
d="M430 516h151l-243 -599q-23 -57 -61 -87t-104 -30h-102v115h124l32 88l-208 513h159l75 -217l47 -150h8l45 150zM213 570l-81 39l99 194l116 -57zM418 570l-81 39l99 194l116 -57z" />
    <glyph glyph-name="uni045E" unicode="&#x45e;" 
d="M430 516h151l-243 -599q-23 -57 -61 -87t-104 -30h-102v115h124l32 88l-208 513h159l75 -217l47 -150h8l45 150zM303 570q-66 0 -108 29.5t-63 84.5l-21 55l115 43l32 -107q6 -3 19 -5t26 -2t26 2t19 5l32 107l115 -43l-21 -55q-21 -55 -63 -84.5t-108 -29.5z" />
    <glyph glyph-name="uni04AF" unicode="&#x4af;" 
d="M226 0l-199 516h156l67 -197l49 -168h8l49 168l67 197h150l-199 -516v-200h-148v200z" />
    <glyph glyph-name="uni04B1" unicode="&#x4b1;" 
d="M226 -105h-130v105h130l-199 516h156l67 -197l49 -168h8l49 168l67 197h150l-199 -516h130v-105h-130v-95h-148v95z" />
    <glyph glyph-name="uni04B3" unicode="&#x4b3;" 
d="M441 0h-34l-65 97l-45 69h-8l-44 -69l-66 -97h-156l193 262l-180 254h169l55 -83l42 -67h8l43 67l56 83h155l-180 -246l111 -155h80v-255h-134v140z" />
    <glyph glyph-name="uni04F5" unicode="&#x4f5;" 
d="M374 215h-5q-24 -32 -58.5 -50.5t-84.5 -18.5q-89 0 -129.5 46t-40.5 141v183h148v-176q0 -39 18.5 -56.5t62.5 -17.5q45 0 67 15t22 42v193h148v-516h-148v215zM180 591q-45 0 -62.5 18.5t-17.5 44.5v26q0 26 17.5 44t62.5 18t63 -18t18 -44v-26q0 -26 -18 -44.5
t-63 -18.5zM400 591q-45 0 -63 18.5t-18 44.5v26q0 26 18 44t63 18t62.5 -18t17.5 -44v-26q0 -26 -17.5 -44.5t-62.5 -18.5z" />
    <glyph glyph-name="uni04B7" unicode="&#x4b7;" 
d="M449 0h-94v215h-5q-23 -30 -57.5 -49.5t-78.5 -19.5q-164 0 -164 187v183h148v-176q0 -39 18.5 -56.5t56.5 -17.5q39 0 60.5 15t21.5 42v193h148v-401h80v-255h-134v140z" />
    <glyph glyph-name="uni04B9" unicode="&#x4b9;" 
d="M381 205h-5q-8 -11 -18 -21.5t-21 -18.5v-93h-96v74q-55 0 -91.5 11.5t-59 34.5t-32 58.5t-9.5 82.5v183h148v-187q0 -45 44 -58v138h96v-138q21 6 32.5 18.5t11.5 33.5v193h148v-516h-148v205z" />
    <glyph glyph-name="uni04F9" unicode="&#x4f9;" 
d="M30 516h124v-147h58q38 0 71 -12t57.5 -35.5t38.5 -57.5t14 -79t-14 -79.5t-39 -58t-58.5 -35.5t-73.5 -12h-178v516zM207 101q29 0 45 17t16 54v25q0 37 -16 54t-45 17h-53v-167h53zM445 516h124v-516h-124v516zM190 591q-45 0 -62.5 18.5t-17.5 44.5v26q0 26 17.5 44
t62.5 18t63 -18t18 -44v-26q0 -26 -18 -44.5t-63 -18.5zM410 591q-45 0 -63 18.5t-18 44.5v26q0 26 18 44t63 18t62.5 -18t17.5 -44v-26q0 -26 -17.5 -44.5t-62.5 -18.5z" />
    <glyph glyph-name="uni0455" unicode="&#x455;" 
d="M294 -12q-86 0 -149.5 26t-95.5 71l83 77q30 -33 70.5 -51.5t92.5 -18.5q44 0 69 13.5t25 41.5q0 22 -17 30.5t-47 13.5l-83 13q-35 5 -65 15.5t-52 28.5t-35 44t-13 63q0 81 62 127t174 46q76 0 129.5 -20.5t85.5 -58.5l-74 -84q-23 25 -59 42t-87 17q-86 0 -86 -52
q0 -23 17 -31.5t47 -13.5l82 -13q35 -5 65 -15.5t52.5 -28.5t35.5 -44t13 -63q0 -81 -62.5 -128t-177.5 -47z" />
    <glyph glyph-name="uni045F" unicode="&#x45f;" 
d="M68 516h148v-401h168v401h148v-516h-165v-140h-134v140h-165v516z" />
    <glyph glyph-name="uni0456" unicode="&#x456;" 
d="M332 582q-50 0 -69.5 20.5t-19.5 49.5v29q0 30 19.5 50t69.5 20t69.5 -20t19.5 -50v-29q0 -29 -19.5 -49.5t-69.5 -20.5zM94 115h164v286h-164v115h312v-401h152v-115h-464v115z" />
    <glyph glyph-name="uni0457" unicode="&#x457;" 
d="M94 115h164v286h-164v115h312v-401h152v-115h-464v115zM222 591q-45 0 -62.5 18.5t-17.5 44.5v26q0 26 17.5 44t62.5 18t63 -18t18 -44v-26q0 -26 -18 -44.5t-63 -18.5zM442 591q-45 0 -63 18.5t-18 44.5v26q0 26 18 44t63 18t62.5 -18t17.5 -44v-26q0 -26 -17.5 -44.5
t-62.5 -18.5z" />
    <glyph glyph-name="uni0458" unicode="&#x458;" 
d="M92 -85h198v486h-200v115h348v-567q0 -65 -39 -107t-118 -42h-189v115zM364 582q-50 0 -69.5 20.5t-19.5 49.5v29q0 30 19.5 50t69.5 20q49 0 69 -20t20 -50v-29q0 -29 -20 -49.5t-69 -20.5z" />
    <glyph glyph-name="uni0452" unicode="&#x452;" 
d="M213 -85h178v399q0 100 -87 100q-17 0 -33.5 -4.5t-29.5 -14t-20.5 -23.5t-7.5 -33v-339h-148v580h-56v110h56v50h148v-50h140v-110h-140v-158h6q9 22 22 41t31.5 33.5t43 23t55.5 8.5q37 0 68 -12.5t53 -37.5t34.5 -61t12.5 -83v-385q0 -65 -38.5 -107t-118.5 -42h-169
v115z" />
    <glyph glyph-name="uni045B" unicode="&#x45b;" 
d="M65 0v580h-56v110h56v50h148v-50h140v-110h-140v-158h6q9 22 22 41t31.5 33.5t43 23t55.5 8.5q37 0 68 -12.5t53 -37.5t34.5 -61t12.5 -83v-334h-148v314q0 100 -87 100q-17 0 -33.5 -4.5t-29.5 -14t-20.5 -23.5t-7.5 -33v-339h-148z" />
    <glyph glyph-name="uni04BB" unicode="&#x4bb;" 
d="M65 740h148v-318h6q9 22 22 41t31.5 33.5t43 23t55.5 8.5q37 0 68 -12.5t53 -37.5t34.5 -61t12.5 -83v-334h-148v314q0 100 -87 100q-17 0 -33.5 -4.5t-29.5 -14t-20.5 -23.5t-7.5 -33v-339h-148v740z" />
    <glyph glyph-name="uni04D9" unicode="&#x4d9;" 
d="M403 294v9q0 50 -31 80.5t-91 30.5q-46 0 -79 -17.5t-57 -46.5l-80 87q30 37 84 64t137 27q130 0 197 -72t67 -196q0 -63 -17.5 -113.5t-50 -86t-79 -54t-104.5 -18.5t-104 18.5t-78.5 52.5t-49.5 82.5t-17 108.5v44h353zM195 203q0 -51 27.5 -80t75.5 -29t76.5 29.5
t28.5 79.5v8h-208v-8z" />
    <glyph glyph-name="uni04D2" unicode="&#x4d2;" 
d="M435 0l-44 168h-191l-43 -168h-152l189 698h212l189 -698h-160zM300 553h-8l-68 -264h144zM190 761q-45 0 -62.5 18.5t-17.5 44.5v26q0 26 17.5 44t62.5 18t63 -18t18 -44v-26q0 -26 -18 -44.5t-63 -18.5zM410 761q-45 0 -63 18.5t-18 44.5v26q0 26 18 44t63 18t62.5 -18
t17.5 -44v-26q0 -26 -17.5 -44.5t-62.5 -18.5z" />
    <glyph glyph-name="uni04D0" unicode="&#x4d0;" 
d="M435 0l-44 168h-191l-43 -168h-152l189 698h212l189 -698h-160zM300 553h-8l-68 -264h144zM300 740q-66 0 -108 29.5t-63 84.5l-21 55l115 43l32 -107q6 -3 19 -5t26 -2t26 2t19 5l32 107l115 -43l-21 -55q-21 -55 -63 -84.5t-108 -29.5z" />
    <glyph glyph-name="uni04D4" unicode="&#x4d4;" 
d="M279 168h-104l-33 -168h-146l159 698h417v-111h-155v-178h145v-111h-145v-187h155v-111h-293v168zM257 594l-60 -315h82v315h-22z" />
    <glyph glyph-name="uni0403" unicode="&#x403;" 
d="M107 698h421v-123h-270v-575h-151v698zM333 740l-88 43l99 194l123 -61z" />
    <glyph glyph-name="uni0490" unicode="&#x490;" 
d="M107 698h279v150h142v-273h-270v-575h-151v698z" />
    <glyph glyph-name="uni0492" unicode="&#x492;" 
d="M123 396v302h421v-123h-270v-179h174v-114h-174v-282h-151v282h-85v114h85z" />
    <glyph glyph-name="uni0494" unicode="&#x494;" 
d="M272 -68h114q26 32 26 114v103q0 72 -23 99t-77 27q-30 0 -54.5 -4.5t-45.5 -12.5v-258h-151v698h421v-123h-270v-201h5q23 9 53.5 15.5t66.5 6.5q59 0 102 -13.5t70.5 -43t40.5 -77.5t13 -117v-103q0 -62 -13 -106.5t-37 -72.5t-58.5 -41t-77.5 -13h-105v123z" />
    <glyph glyph-name="uni0400" unicode="&#x400;" 
d="M80 0v698h446v-123h-296v-160h286v-123h-286v-169h296v-123h-446zM153 916l123 61l99 -194l-88 -43z" />
    <glyph glyph-name="uni0401" unicode="&#x401;" 
d="M80 0v698h446v-123h-296v-160h286v-123h-286v-169h296v-123h-446zM193 761q-45 0 -62.5 18.5t-17.5 44.5v26q0 26 17.5 44t62.5 18t63 -18t18 -44v-26q0 -26 -18 -44.5t-63 -18.5zM413 761q-45 0 -63 18.5t-18 44.5v26q0 26 18 44t63 18t62.5 -18t17.5 -44v-26
q0 -26 -17.5 -44.5t-62.5 -18.5z" />
    <glyph glyph-name="uni04D6" unicode="&#x4d6;" 
d="M80 0v698h446v-123h-296v-160h286v-123h-286v-169h296v-123h-446zM303 740q-66 0 -108 29.5t-63 84.5l-21 55l115 43l32 -107q6 -3 19 -5t26 -2t26 2t19 5l32 107l115 -43l-21 -55q-21 -55 -63 -84.5t-108 -29.5z" />
    </font>
</defs>
</svg>
