<?xml version="1.0" standalone="no"?>
<!DOCTYPE svg PUBLIC "-//W3C//DTD SVG 1.1//EN" "http://www.w3.org/Graphics/SVG/1.1/DTD/svg11.dtd" >
<svg xmlns="http://www.w3.org/2000/svg" xmlns:xlink="http://www.w3.org/1999/xlink" version="1.1">
<metadata>
Created by FontForge 20170812 at Fri Dec 22 17:13:06 2017
 By ,,,
Copyright 2017 IBM Corp. All rights reserved.
</metadata>
<defs>
<font id="IBMPlexMono-LightItalic" horiz-adv-x="600" >
  <font-face 
    font-family="IBM Plex Mono Light"
    font-weight="300"
    font-style="italic"
    font-stretch="normal"
    units-per-em="1000"
    panose-1="2 11 4 9 5 2 3 0 2 3"
    ascent="780"
    descent="-220"
    x-height="516"
    cap-height="698"
    bbox="-186 -250 705 1112"
    underline-thickness="43"
    underline-position="-178"
    slope="-9"
    unicode-range="U+000D-FB02"
  />
<missing-glyph 
d="M32 0v780h536v-780h-536zM75 43h450v694h-450v-694z" />
    <glyph glyph-name=".notdef" 
d="M32 0v780h536v-780h-536zM75 43h450v694h-450v-694z" />
    <glyph glyph-name=".null" horiz-adv-x="0" 
 />
    <glyph glyph-name=".null" horiz-adv-x="0" 
 />
    <glyph glyph-name="uni000D" unicode="&#xd;" 
 />
    <glyph glyph-name="space" unicode=" " 
 />
    <glyph glyph-name="a" unicode="a" 
d="M394 0l20 119h-3q-30 -59 -72.5 -95t-110.5 -36q-81 0 -123.5 52.5t-42.5 146.5q0 61 14.5 121.5t44.5 109.5t75.5 79.5t108.5 30.5q62 0 101.5 -27t55.5 -75h3l15 90h56l-86 -516h-56zM244 38q32 0 62 12t56 38q23 24 42.5 57.5t26.5 75.5l22 129q4 26 -2.5 49.5
t-23.5 41t-44.5 27.5t-63.5 10q-39 0 -70.5 -14t-55 -38.5t-38.5 -58.5t-22 -74l-11 -63q-2 -14 -3 -25.5t-1 -22.5q0 -63 30.5 -103.5t95.5 -40.5z" />
    <glyph glyph-name="a.alt01" 
d="M225 -12q-75 0 -117 34t-42 93q0 37 12 69t40 54.5t72.5 35.5t109.5 13h132l8 47q3 21 3 40q0 106 -118 106q-59 0 -95 -22t-64 -64l-36 31q27 43 74.5 73t123.5 30q81 0 126 -40t45 -105q0 -13 -1.5 -26.5t-3.5 -27.5l-54 -329h-55l14 85h-3q-23 -41 -65 -69t-106 -28z
M237 36q33 0 62 8.5t52.5 24t38.5 37t20 47.5l15 91h-133q-80 0 -119 -24.5t-47 -67.5q-3 -19 -3.5 -25.5t-0.5 -12.5q0 -38 30.5 -58t84.5 -20z" />
    <glyph glyph-name="b" unicode="b" 
d="M187 740h56l-57 -343h3q15 29 32.5 53t39.5 41.5t49.5 27t61.5 9.5q81 0 123.5 -52.5t42.5 -146.5q0 -61 -14.5 -122t-44.5 -109.5t-75.5 -79t-108.5 -30.5q-62 0 -101.5 27t-55.5 75h-3l-15 -90h-56zM281 38q39 0 70.5 14t54.5 38.5t38.5 58.5t22.5 74l11 63
q2 14 3 25.5t1 22.5q0 63 -30.5 103.5t-95.5 40.5q-32 0 -62 -12t-56 -38q-23 -24 -42.5 -57.5t-26.5 -75.5l-22 -129q-5 -26 2 -49.5t24 -41t44.5 -27.5t63.5 -10z" />
    <glyph glyph-name="c" unicode="c" 
d="M268 -12q-47 0 -82.5 16t-59.5 44.5t-36 68t-12 87.5q0 75 20 135t55.5 102t83 64.5t102.5 22.5q74 0 116 -34.5t55 -85.5l-48 -18q-14 48 -46.5 68.5t-82.5 20.5q-74 0 -122.5 -47.5t-62.5 -134.5l-9 -56q-3 -17 -4 -27.5t-1 -22.5q0 -72 36 -113t104 -41q23 0 44.5 6
t43.5 21t45 40.5t49 63.5l41 -23q-23 -37 -47 -66t-51.5 -49.5t-59.5 -31t-71 -10.5z" />
    <glyph glyph-name="d" unicode="d" 
d="M414 119h-3q-30 -59 -72.5 -95t-110.5 -36q-81 0 -123.5 52.5t-42.5 146.5q0 61 14.5 121.5t44.5 109.5t75.5 79.5t108.5 30.5q62 0 101.5 -27t55.5 -75h3l52 314h56l-123 -740h-56zM244 38q32 0 62 12t56 38q23 24 42.5 57.5t26.5 75.5l22 129q4 26 -2.5 49.5t-23.5 41
t-44.5 27.5t-63.5 10q-39 0 -70.5 -13.5t-55 -38.5t-38.5 -59t-22 -74l-11 -63q-2 -14 -3 -25.5t-1 -22.5q0 -63 30.5 -103.5t95.5 -40.5z" />
    <glyph glyph-name="e" unicode="e" 
d="M275 -12q-96 0 -147 55.5t-51 166.5q0 68 20 126t56.5 101t87 67t111.5 24q76 0 122.5 -34.5t46.5 -98.5q0 -26 -12.5 -55t-52.5 -54t-116.5 -43t-203.5 -21q-1 -8 -1 -15v-9q0 -33 6.5 -62t23 -51.5t44.5 -35.5t71 -13q60 0 102 31t81 95l41 -25q-43 -75 -97 -112
t-132 -37zM346 481q-79 0 -134 -51.5t-69 -148.5l-3 -18q104 3 167.5 15t98.5 30.5t46.5 40.5t11.5 44q0 37 -27 62.5t-91 25.5z" />
    <glyph glyph-name="f" unicode="f" 
d="M203 -212q-11 0 -21 4t-21.5 13t-26 23t-35.5 35l-115 113l38 35l175 -173l13 3l105 627h-188l8 48h188l23 141q6 38 28.5 60.5t64.5 22.5h191l-8 -48h-214l-30 -176h216l-8 -48h-215l-101 -603q-5 -32 -20 -54.5t-47 -22.5z" />
    <glyph glyph-name="g" unicode="g" 
d="M210 -212q-60 0 -103 18t-69 51l39 38q21 -27 53.5 -42t82.5 -15q75 0 121.5 38t60.5 128l21 126h-3q-29 -60 -72.5 -96t-111.5 -36q-82 0 -124.5 53t-42.5 144q0 60 15 119.5t45 107t75.5 77t107.5 29.5t101.5 -27.5t55.5 -75.5h3l15 91h56l-87 -523
q-19 -108 -81.5 -156.5t-157.5 -48.5zM245 48q33 0 63 11.5t56 39.5q20 20 40.5 53.5t28.5 78.5l20 119q4 26 -2.5 49.5t-24 41t-44.5 27.5t-63 10q-78 0 -125 -51t-61 -132l-9 -53q-2 -14 -3.5 -25t-1.5 -22q0 -66 30.5 -106.5t95.5 -40.5z" />
    <glyph glyph-name="g.alt01" 
d="M230 -212q-109 0 -161.5 31.5t-52.5 86.5q0 46 29 76.5t80 44.5l2 8q-18 8 -29 23.5t-11 38.5q0 42 29 63.5t77 32.5l1 5q-35 19 -54 52t-19 78q0 43 16 80t44.5 63.5t68 41.5t85.5 15q34 0 60.5 -8t46.5 -22l4 25q5 24 18.5 38.5t39.5 14.5h100l-8 -50h-117l-9 -52
q34 -40 34 -97q0 -44 -16 -80.5t-45 -63t-68.5 -41.5t-85.5 -15q-32 0 -56 7q-39 -9 -67.5 -26.5t-28.5 -48.5q0 -42 72 -42h128q85 0 123.5 -31.5t38.5 -87.5q0 -78 -67.5 -119t-201.5 -41zM71 -81q0 -40 34 -62.5t99 -22.5h62q81 0 130 28t49 83q0 34 -24.5 53t-87.5 19
h-173q-40 -12 -64.5 -36t-24.5 -62zM292 221q65 0 103 30.5t46 84.5q4 23 5 35t1 18q0 42 -29 68.5t-86 26.5q-64 0 -102 -30.5t-47 -84.5q-3 -23 -4.5 -35.5t-1.5 -17.5q0 -43 29 -69t86 -26z" />
    <glyph glyph-name="g.alt02" 
d="M230 -212q-109 0 -161.5 31.5t-52.5 86.5q0 46 29 76.5t80 44.5l2 8q-18 8 -29 23.5t-11 38.5q0 42 29 63.5t77 32.5l1 5q-35 19 -54 52t-19 78q0 43 16 80t44.5 63.5t68 41.5t85.5 15q41 0 73 -12h174l-7 -45h-106q17 -18 26 -41.5t9 -52.5q0 -44 -16 -80.5t-45 -63
t-68.5 -41.5t-85.5 -15q-32 0 -56 7q-39 -9 -67.5 -26.5t-28.5 -48.5q0 -42 72 -42h128q85 0 123.5 -31.5t38.5 -87.5q0 -78 -67.5 -119t-201.5 -41zM292 221q65 0 103 30.5t46 84.5q4 23 5 35t1 18q0 42 -29 68.5t-86 26.5q-64 0 -102 -30.5t-47 -84.5q-3 -23 -4.5 -35.5
t-1.5 -17.5q0 -43 29 -69t86 -26zM445 -55q0 34 -24.5 53t-87.5 19h-173q-40 -12 -64.5 -36t-24.5 -62q0 -40 34 -62.5t99 -22.5h62q81 0 130 28t49 83z" />
    <glyph glyph-name="h" unicode="h" 
d="M194 740h56l-58 -343h4q29 61 70.5 96t105.5 35q66 0 102.5 -38.5t36.5 -107.5q0 -14 -1.5 -30.5t-4.5 -32.5l-53 -319h-56l52 313q3 17 4 32t1 26q0 52 -24.5 79.5t-73.5 27.5q-69 0 -119 -59q-15 -18 -34 -48.5t-27 -74.5l-49 -296h-56z" />
    <glyph glyph-name="i" unicode="i" 
d="M346 654q-26 0 -36 10t-10 22q0 5 1 11.5t2 11.5q3 17 14.5 27.5t36.5 10.5q26 0 36 -10t10 -22q0 -5 -1 -11.5t-2 -11.5q-3 -17 -14.5 -27.5t-36.5 -10.5zM253 -12q-26 0 -40 14t-14 36q0 7 1.5 15.5t3.5 22.5l76 392h-194l8 48h251l-91 -471l15 -6l225 173l30 -36
l-148 -114q-26 -20 -43.5 -34t-31.5 -23t-25 -13t-23 -4z" />
    <glyph glyph-name="j" unicode="j" 
d="M298 -212q-11 0 -20.5 4t-21.5 13t-27.5 24t-37.5 37l-113 110l38 35l175 -173l14 4l104 626h-251l8 48h306l-108 -651q-5 -32 -19.5 -54.5t-46.5 -22.5zM478 747q26 0 36 -10t10 -22q0 -5 -1 -11.5t-2 -11.5q-3 -17 -14.5 -27.5t-36.5 -10.5q-26 0 -36 10t-10 22
q0 5 1 11.5t2 11.5q3 17 14.5 27.5t36.5 10.5z" />
    <glyph glyph-name="k" unicode="k" 
d="M190 740h56l-57 -343h4q31 63 76.5 97t108.5 34q66 0 101 -34t35 -89q0 -24 -9 -50t-33.5 -51.5t-68.5 -48t-113 -38.5l91 -178l10 -1l150 137l31 -32l-98 -95q-33 -32 -53 -46t-41 -14q-19 0 -32 11t-25 37l-98 193q67 16 111.5 35t71.5 40.5t38 44.5t11 48
q0 38 -23.5 60.5t-73.5 22.5q-38 0 -67.5 -14.5t-52.5 -39.5q-56 -57 -68 -130l-49 -296h-56z" />
    <glyph glyph-name="l" unicode="l" 
d="M235 -12q-26 0 -39.5 14t-13.5 37q0 14 4 33l119 620h-191l8 48h249l-134 -694l17 -6l229 175l30 -35l-156 -121q-26 -20 -44 -34t-32 -22t-24.5 -11.5t-21.5 -3.5z" />
    <glyph glyph-name="m" unicode="m" 
d="M24 0l86 516h52l-13 -80h3q18 39 45 65.5t72 26.5q43 0 63.5 -26.5t17.5 -70.5h3q19 45 50 71t76 26q42 0 65 -26.5t23 -71.5q0 -12 -1.5 -28t-4.5 -31l-62 -371h-52l60 359l4 32t2 28q0 29 -13 46t-41 17q-23 0 -40 -11t-33 -31t-26 -45t-15 -51l-57 -344h-52l59 356
q3 17 5 32t2 28q0 66 -53 66q-24 0 -42 -11.5t-32 -30.5q-14 -20 -25.5 -44.5t-16.5 -51.5l-57 -344h-52z" />
    <glyph glyph-name="n" unicode="n" 
d="M70 0l86 516h56l-20 -119h4q29 61 70.5 96t105.5 35q66 0 102.5 -38.5t36.5 -107.5q0 -14 -1.5 -30.5t-4.5 -32.5l-53 -319h-56l52 313q3 17 4 32t1 26q0 52 -24.5 79.5t-73.5 27.5q-69 0 -119 -59q-15 -18 -34 -48.5t-27 -74.5l-49 -296h-56z" />
    <glyph glyph-name="o" unicode="o" 
d="M265 -12q-48 0 -84.5 15.5t-60.5 43t-36.5 66t-12.5 83.5q0 77 20 138.5t55 104.5t83.5 66t105.5 23q48 0 84.5 -15.5t60.5 -43t36.5 -66t12.5 -83.5q0 -77 -20 -138.5t-55 -104.5t-83.5 -66t-105.5 -23zM269 37q79 0 127.5 50t62.5 138l9 56q3 17 4 28t1 24
q0 69 -36 107.5t-106 38.5q-79 0 -127.5 -50t-62.5 -138l-9 -56q-3 -17 -4 -28t-1 -24q0 -69 36 -107.5t106 -38.5z" />
    <glyph glyph-name="p" unicode="p" 
d="M150 516h56l-20 -119h3q15 29 32.5 53t39.5 41.5t49.5 27t61.5 9.5q81 0 123.5 -52.5t42.5 -146.5q0 -61 -14.5 -122t-44.5 -109.5t-75.5 -79t-108.5 -30.5q-62 0 -101.5 27t-55.5 75h-3l-49 -290h-56zM281 38q39 0 70.5 14t54.5 38.5t38.5 58.5t22.5 74l11 63
q2 14 3 25.5t1 22.5q0 63 -30.5 103.5t-95.5 40.5q-32 0 -62 -12t-56 -38q-23 -24 -42.5 -57.5t-26.5 -75.5l-22 -129q-5 -26 2 -49.5t24 -41t44.5 -27.5t63.5 -10z" />
    <glyph glyph-name="q" unicode="q" 
d="M414 119h-3q-30 -59 -72.5 -95t-110.5 -36q-81 0 -123.5 52.5t-42.5 146.5q0 61 14.5 121.5t44.5 109.5t75.5 79.5t108.5 30.5q62 0 101.5 -27t55.5 -75h3l15 90h56l-119 -716h-56zM244 38q32 0 62 12t56 38q23 24 42.5 57.5t26.5 75.5l22 129q4 26 -2.5 49.5t-23.5 41
t-44.5 27.5t-63.5 10q-39 0 -70.5 -14t-55 -38.5t-38.5 -58.5t-22 -74l-11 -63q-2 -14 -3 -25.5t-1 -22.5q0 -63 30.5 -103.5t95.5 -40.5z" />
    <glyph glyph-name="r" unicode="r" 
d="M192 0l79 468h-158l8 48h213l-20 -118h5q13 27 29.5 48.5t38 37t49 24t63.5 8.5h94l-9 -55h-100q-76 0 -121 -44q-17 -14 -37 -42.5t-27 -70.5l-51 -304h-56z" />
    <glyph glyph-name="s" unicode="s" 
d="M275 -12q-152 0 -221 99l42 33q31 -43 75 -63.5t108 -20.5q76 0 120.5 30t44.5 87q0 42 -26 59t-69 22l-76 9q-29 4 -56 11.5t-47.5 22t-32.5 37t-12 56.5q0 40 16.5 70t45.5 49.5t67 29t82 9.5q73 0 120 -22.5t74 -57.5l-40 -35q-8 12 -21 24t-32.5 21.5t-45.5 15.5
t-61 6q-72 0 -111 -27.5t-39 -78.5q0 -21 7 -35.5t20 -23.5t31 -14t39 -8l75 -10q27 -3 53.5 -10t47 -20.5t33.5 -36.5t13 -58q0 -41 -16.5 -72.5t-46.5 -53.5t-71 -33t-90 -11z" />
    <glyph glyph-name="t" unicode="t" 
d="M229 -12q-52 0 -52 52q0 14 3 38l67 390h-169l8 48h131q21 0 32 9t15 31l24 142h53l-30 -182h233l-8 -48h-233l-71 -421l14 -8l247 157l28 -36l-169 -111q-48 -33 -74.5 -47t-48.5 -14z" />
    <glyph glyph-name="u" unicode="u" 
d="M408 119h-4q-29 -61 -70.5 -96t-105.5 -35q-66 0 -102.5 38.5t-36.5 107.5q0 31 6 63l53 319h56l-52 -313q-3 -17 -4 -32t-1 -26q0 -52 24.5 -79.5t73.5 -27.5q35 0 65 15t54 44q15 18 34 48.5t27 74.5l49 296h56l-86 -516h-56z" />
    <glyph glyph-name="v" unicode="v" 
d="M252 516l-69 -471l10 -8q67 5 120.5 36.5t90.5 80t56.5 109t19.5 123.5q0 32 -6 62.5t-18 56.5l54 16q13 -28 20 -63t7 -70q0 -80 -27.5 -151.5t-75 -125.5t-111 -85.5t-134.5 -31.5q-60 0 -60 52q0 6 1 14.5t3 17.5l57 390h-117l8 48h171z" />
    <glyph glyph-name="w" unicode="w" 
d="M144 -12q-45 0 -67 27t-22 71q0 17 2 35t5 38l59 357h51l-58 -350q-4 -22 -5.5 -37.5t-1.5 -30.5q0 -32 14.5 -47.5t39.5 -15.5q24 0 43 13t33 34q14 20 22.5 46.5t12.5 49.5l57 338h50l-57 -346q-3 -19 -4 -35.5t-1 -32.5q0 -67 54 -67q33 0 60 27.5t45.5 72.5t29 102.5
t10.5 117.5q0 42 -6.5 83t-19.5 68l48 14q13 -29 21 -71t8 -92q0 -85 -18 -162.5t-53 -129.5q-26 -37 -59.5 -57t-75.5 -20q-40 0 -64.5 24.5t-21.5 82.5h-4q-20 -50 -50 -78.5t-77 -28.5z" />
    <glyph glyph-name="x" unicode="x" 
d="M116 -12q-47 0 -74.5 29.5t-27.5 92.5q0 14 1.5 30.5t5.5 33.5l52 3q-2 -14 -4 -30.5t-2 -32.5q0 -81 59 -81q39 0 68 31.5t47.5 76t27.5 93t9 83.5q0 21 -3 45.5t-8 48t-12 42.5t-14 29l-11 1l-163 -91l-22 34l99 64q36 23 53.5 30.5t33.5 7.5q27 0 44 -14.5t26.5 -39
t13.5 -58t7 -70.5h5q22 95 63 138.5t97 43.5q47 0 74.5 -29.5t27.5 -92.5q0 -14 -1.5 -30.5t-5.5 -33.5l-52 -3q2 14 4 30.5t2 32.5q0 81 -59 81q-26 0 -47.5 -14.5t-38.5 -38.5t-29.5 -54.5t-20.5 -62t-12 -62t-4 -53.5q0 -20 3 -44t8 -47t11.5 -42.5t14.5 -29.5l12 -2
l155 99l24 -34l-91 -65q-41 -29 -62 -37t-34 -8q-24 0 -39.5 14.5t-25 39t-14 57.5t-6.5 71h-5q-22 -95 -63 -138.5t-97 -43.5z" />
    <glyph glyph-name="y" unicode="y" 
d="M203 -212q-60 0 -102.5 18t-69.5 51l40 38q20 -27 53 -42t83 -15q75 0 121.5 38.5t60.5 127.5l21 124h-3q-29 -60 -71 -95.5t-106 -35.5q-66 0 -102.5 38.5t-36.5 107.5q0 14 1.5 28.5t3.5 32.5l52 312h56l-51 -307q-3 -16 -4 -30t-1 -28q0 -49 25 -76.5t74 -27.5
q71 0 119 59q6 7 14.5 18.5t17.5 27.5t16.5 35t11.5 41l48 288h56l-87 -523q-18 -108 -81.5 -156.5t-158.5 -48.5z" />
    <glyph glyph-name="z" unicode="z" 
d="M439 -12q-17 0 -36.5 4t-45.5 11l-235 62l-5 -4l-10 -61h-56l13 77l385 343q-73 34 -118 46.5t-79 12.5q-57 0 -78 -34t-22 -101h-47v15q0 169 148 169q81 0 200 -62l29 -15l5 4l10 61h56l-13 -77l-383 -341l293 -65l9 9l-31 153l43 13l18 -63q8 -29 14 -53.5t6 -42.5
q0 -23 -17.5 -42t-52.5 -19z" />
    <glyph glyph-name="A" unicode="A" 
d="M458 0l-30 213h-265l-102 -213h-63l337 698h79l105 -698h-61zM368 637h-7l-176 -372h236z" />
    <glyph glyph-name="B" unicode="B" 
d="M167 698h217q80 0 121.5 -41.5t41.5 -114.5q0 -69 -34 -116t-96 -64v-3q48 -13 76.5 -46.5t28.5 -92.5q0 -47 -15 -87.5t-42.5 -70t-66.5 -46t-88 -16.5h-259zM300 52q66 0 105.5 30t48.5 85l5 31q2 10 3 18.5t1 17.5q0 44 -29.5 72t-88.5 28h-180l-47 -282h182zM340 383
q62 0 97 29.5t43 78.5l5 31q2 10 2 16.5v14.5q0 45 -28 69t-83 24h-159l-44 -263h167z" />
    <glyph glyph-name="C" unicode="C" 
d="M284 -12q-100 0 -150.5 61t-50.5 183q0 48 6.5 102t21 107t37.5 102t57 86t79 59t103 22q44 0 76 -12t53.5 -33t35 -48.5t20.5 -57.5l-53 -17q-6 25 -16 46.5t-26 37t-38.5 24t-55.5 8.5q-87 0 -143.5 -68.5t-76.5 -191.5l-14 -82q-5 -26 -6.5 -50t-1.5 -47
q0 -85 36.5 -132t112.5 -47q62 0 102.5 34.5t79.5 105.5l47 -24q-42 -82 -96 -125t-139 -43z" />
    <glyph glyph-name="D" unicode="D" 
d="M175 698h168q51 0 91.5 -16t68.5 -45.5t42.5 -71.5t14.5 -94q0 -110 -19.5 -197t-58.5 -148t-96.5 -93.5t-132.5 -32.5h-194zM257 52q89 0 146.5 60.5t77.5 180.5l13 81q5 23 6.5 48t1.5 48q0 86 -43 131t-122 45h-112l-99 -594h131z" />
    <glyph glyph-name="E" unicode="E" 
d="M54 0l116 698h420l-8 -52h-362l-44 -266h349l-9 -52h-348l-46 -276h361l-8 -52h-421z" />
    <glyph glyph-name="F" unicode="F" 
d="M54 0l116 698h428l-9 -52h-369l-44 -266h340l-9 -52h-339l-55 -328h-59z" />
    <glyph glyph-name="G" unicode="G" 
d="M439 102h-5q-14 -23 -30 -44t-36 -36.5t-46.5 -24.5t-60.5 -9q-92 0 -139 60t-47 184q0 48 6 102t20 107t36.5 102t56 86t78.5 59t103 22q45 0 77.5 -12t55.5 -33t37 -48.5t21 -57.5l-53 -17q-6 25 -16.5 46.5t-27 37t-39.5 24t-56 8.5q-90 0 -144.5 -69.5t-74.5 -191.5
l-14 -81q-5 -26 -6 -51t-1 -42q0 -88 33 -136.5t110 -48.5q37 0 67 13.5t53 37t38.5 55.5t21.5 69l12 72h-159l8 48h214l-56 -333h-55z" />
    <glyph glyph-name="H" unicode="H" 
d="M465 328h-306l-55 -328h-59l116 698h59l-52 -318h305l53 318h59l-116 -698h-59z" />
    <glyph glyph-name="I" unicode="I" 
d="M44 0l8 48h184l101 602h-184l8 48h426l-8 -48h-184l-101 -602h184l-8 -48h-426z" />
    <glyph glyph-name="J" unicode="J" 
d="M546 698l-87 -521q-16 -95 -73 -142t-143 -47q-78 0 -125.5 39.5t-53.5 111.5l56 11q5 -50 34.5 -80t89.5 -30q133 0 159 154l76 452h-265l9 52h323z" />
    <glyph glyph-name="K" unicode="K" 
d="M286 361l-137 -133l-38 -228h-59l116 698h59l-64 -382h4l143 140l250 242h74l-305 -296l190 -402h-64z" />
    <glyph glyph-name="L" unicode="L" 
d="M88 0l116 698h59l-107 -646h342l-9 -52h-401z" />
    <glyph glyph-name="M" unicode="M" 
d="M529 610h-5l-230 -384l-101 384h-6l-101 -610h-54l116 698h73l91 -346h4l204 346h77l-116 -698h-54z" />
    <glyph glyph-name="N" unicode="N" 
d="M210 629h-6l-104 -629h-55l116 698h85l174 -629h6l104 629h55l-116 -698h-85z" />
    <glyph glyph-name="O" unicode="O" 
d="M262 -12q-195 0 -195 235q0 50 6 105.5t20.5 110t37 103.5t56 86.5t78.5 59.5t103 22q195 0 195 -235q0 -50 -6 -105.5t-20.5 -110t-37 -103.5t-56 -86.5t-78.5 -59.5t-103 -22zM265 40q87 0 142 68t75 190l16 93q4 26 5.5 49.5t1.5 43.5q0 85 -33 129.5t-107 44.5
q-87 0 -142 -68t-75 -190l-16 -93q-4 -26 -5.5 -49.5t-1.5 -43.5q0 -85 33 -129.5t107 -44.5z" />
    <glyph glyph-name="P" unicode="P" 
d="M54 0l116 698h244q82 0 123.5 -44.5t41.5 -114.5q0 -108 -56 -170.5t-162 -62.5h-197l-51 -306h-59zM172 358h194q65 0 101 32.5t44 83.5l6 37q1 8 2 16.5t1 17.5q0 45 -28.5 73t-83.5 28h-188z" />
    <glyph glyph-name="Q" unicode="Q" 
d="M381 -177q-17 0 -28 9t-22 24l-91 133q-173 12 -173 234q0 50 6 105.5t20.5 110t37 103.5t56 86.5t78.5 59.5t103 22q195 0 195 -235q0 -71 -13 -150.5t-43 -150t-80 -121t-124 -62.5l80 -120l9 -1l109 95l29 -30l-81 -74q-23 -20 -36 -29t-32 -9zM265 40q87 0 142 68
t75 190l16 93q4 26 5.5 49.5t1.5 43.5q0 85 -33 129.5t-107 44.5q-87 0 -142 -68t-75 -190l-16 -93q-4 -26 -5.5 -49.5t-1.5 -43.5q0 -85 33 -129.5t107 -44.5z" />
    <glyph glyph-name="R" unicode="R" 
d="M113 0h-59l116 698h244q82 0 123.5 -44.5t41.5 -114.5q0 -104 -53.5 -164.5t-152.5 -64.5h-18l137 -310h-64l-132 308h-132zM366 358q62 0 99 31t46 85l6 37q1 8 2 16.5t1 17.5q0 45 -28.5 73t-83.5 28h-188l-48 -288h194z" />
    <glyph glyph-name="S" unicode="S" 
d="M269 -12q-93 0 -150.5 33t-88.5 86l44 35q32 -50 78 -76.5t120 -26.5q88 0 139 43t51 119q0 50 -27 79t-92 43l-79 19q-80 18 -116.5 59.5t-36.5 107.5q0 48 17.5 85t49 63t76 39.5t97.5 13.5q92 0 145 -30.5t80 -77.5l-44 -32q-29 46 -72 67.5t-112 21.5
q-82 0 -129.5 -38t-47.5 -109q0 -52 29.5 -79.5t89.5 -41.5l78 -18q83 -20 118.5 -61.5t35.5 -105.5q0 -50 -18 -90t-51 -68.5t-79.5 -44t-104.5 -15.5z" />
    <glyph glyph-name="T" unicode="T" 
d="M394 646l-108 -646h-59l108 646h-239l9 52h537l-9 -52h-239z" />
    <glyph glyph-name="U" unicode="U" 
d="M220 698l-69 -411q-8 -48 -11 -75t-3 -48q0 -63 27.5 -93.5t99.5 -30.5q51 0 83 14t53 42.5t33 72.5t22 104l71 425h59l-69 -415q-13 -79 -30 -135t-44.5 -91.5t-70 -52t-106.5 -16.5q-100 0 -143.5 42t-43.5 129q0 30 5 68.5t12 77.5l66 393h59z" />
    <glyph glyph-name="V" unicode="V" 
d="M217 0l-101 698h57l90 -638h4l300 638h61l-331 -698h-80z" />
    <glyph glyph-name="W" unicode="W" 
d="M60 0l56 698h53l-54 -639h7l183 445h68l36 -445h7l159 639h53l-176 -698h-88l-32 434h-6l-177 -434h-89z" />
    <glyph glyph-name="X" unicode="X" 
d="M524 0h-63l-146 308h-4l-248 -308h-70l294 358l-166 340h63l140 -292h4l235 292h70l-280 -344z" />
    <glyph glyph-name="Y" unicode="Y" 
d="M227 0l47 281l-180 417h63l151 -358h3l271 358h70l-318 -413l-48 -285h-59z" />
    <glyph glyph-name="Z" unicode="Z" 
d="M508 0h-503l9 54l517 592h-397l9 52h464l-9 -54l-517 -592h436z" />
    <glyph glyph-name="zero" unicode="0" 
d="M262 -12q-195 0 -195 235q0 50 6 105.5t20.5 110t37 103.5t56 86.5t78.5 59.5t103 22q195 0 195 -235q0 -50 -6 -105.5t-20.5 -110t-37 -103.5t-56 -86.5t-78.5 -59.5t-103 -22zM265 40q87 0 142 68t75 190l16 93q4 26 5.5 49.5t1.5 43.5q0 85 -33 129.5t-107 44.5
q-87 0 -142 -68t-75 -190l-16 -93q-4 -26 -5.5 -49.5t-1.5 -43.5q0 -85 33 -129.5t107 -44.5zM308 304q-23 0 -33 8.5t-10 20.5q0 7 3 22q3 18 15 28.5t39 10.5q23 0 33 -8.5t10 -20.5q0 -7 -3 -22q-3 -18 -15 -28.5t-39 -10.5z" />
    <glyph glyph-name="zero.alt01" 
d="M262 -12q-195 0 -195 235q0 50 6 105.5t20.5 110t37 103.5t56 86.5t78.5 59.5t103 22q195 0 195 -235q0 -50 -6 -105.5t-20.5 -110t-37 -103.5t-56 -86.5t-78.5 -59.5t-103 -22zM365 660q-88 0 -143 -69t-76 -191l-16 -93q-4 -21 -5.5 -42t-1.5 -36v-11.5t1 -10.5
l378 339q-10 56 -43.5 85t-93.5 29zM265 38q88 0 143 69t76 191l16 93q4 21 5.5 42t1.5 36v11.5t-1 10.5l-378 -339q10 -56 43.5 -85t93.5 -29z" />
    <glyph glyph-name="zero.alt02" 
d="M262 -12q-195 0 -195 235q0 50 6 105.5t20.5 110t37 103.5t56 86.5t78.5 59.5t103 22q195 0 195 -235q0 -50 -6 -105.5t-20.5 -110t-37 -103.5t-56 -86.5t-78.5 -59.5t-103 -22zM265 40q87 0 142 68t75 190l16 93q4 26 5.5 49.5t1.5 43.5q0 85 -33 129.5t-107 44.5
q-87 0 -142 -68t-75 -190l-16 -93q-4 -26 -5.5 -49.5t-1.5 -43.5q0 -85 33 -129.5t107 -44.5z" />
    <glyph glyph-name="one" unicode="1" 
d="M45 0l9 52h207l101 602h-6l-220 -171l-29 39l225 176h96l-108 -646h195l-9 -52h-461z" />
    <glyph glyph-name="two" unicode="2" 
d="M487 0h-452l10 61l289 237q36 29 61.5 53.5t42 47.5t26 46t14.5 50q3 18 4 27.5t1 17.5q0 52 -34.5 85.5t-100.5 33.5q-68 0 -109.5 -34t-67.5 -94l-51 20q29 72 85.5 115.5t148.5 43.5q45 0 80.5 -13t60 -35.5t37 -53.5t12.5 -68q0 -41 -11 -76t-33 -68.5t-55 -66
t-76 -67.5l-260 -210h387z" />
    <glyph glyph-name="three" unicode="3" 
d="M297 391q76 0 121.5 33t56.5 92q2 13 3 21.5t1 15.5q0 50 -35.5 78t-94.5 28q-63 0 -103 -25.5t-67 -68.5l-41 32q32 49 83.5 81t133.5 32q40 0 74.5 -10.5t59 -30t38.5 -48t14 -65.5q0 -72 -43 -122t-123 -66l-1 -4q53 -8 88.5 -47t35.5 -103q0 -49 -17.5 -90.5
t-50 -71.5t-79.5 -47t-105 -17q-44 0 -78 9t-59.5 24.5t-44 37t-31.5 46.5l48 29q22 -44 61 -69.5t110 -25.5q76 0 123 35.5t58 101.5q2 16 3 25.5t1 17.5q0 57 -36 89.5t-108 32.5h-88l9 50h83z" />
    <glyph glyph-name="four" unicode="4" 
d="M349 0l25 146h-353l9 55l414 497h78l-84 -503h109l-8 -49h-109l-25 -146h-56zM85 195h297l74 440h-4z" />
    <glyph glyph-name="five" unicode="5" 
d="M556 646h-315l-70 -293l4 -1q32 36 68 54.5t90 18.5q86 0 135 -47.5t49 -129.5q0 -55 -17 -102.5t-50 -82.5t-81 -55t-111 -20q-75 0 -128 32.5t-78 81.5l50 32q23 -46 62 -70t100 -24q81 0 127.5 40.5t58.5 112.5q4 20 4.5 30.5t0.5 21.5q0 60 -35.5 95t-105.5 35
q-54 0 -87 -17t-64 -46l-51 7l88 379h364z" />
    <glyph glyph-name="six" unicode="6" 
d="M263 -12q-96 0 -145.5 54.5t-49.5 146.5q0 82 29.5 158t77.5 142t109.5 119t125.5 90h81q-68 -42 -121.5 -83t-95.5 -86t-73.5 -96t-55.5 -112l5 -2q32 52 80.5 80t112.5 28q83 0 133 -48t50 -131q0 -53 -18.5 -100t-52.5 -82.5t-82.5 -56.5t-109.5 -21zM269 38
q78 0 128.5 43.5t63.5 116.5q2 17 3.5 27.5t1.5 20.5q0 61 -36 96.5t-107 35.5q-78 0 -128.5 -43.5t-63.5 -116.5q-2 -17 -3.5 -27.5t-1.5 -20.5q0 -61 36 -96.5t107 -35.5z" />
    <glyph glyph-name="seven" unicode="7" 
d="M136 0l388 646h-337l-25 -143h-53l33 195h453l-8 -52l-386 -646h-65z" />
    <glyph glyph-name="eight" unicode="8" 
d="M258 -12q-104 0 -157 47.5t-53 122.5q0 78 47.5 133t132.5 74v7q-48 15 -74 50t-26 86q0 41 16.5 78t48 64.5t76.5 43.5t103 16q92 0 141.5 -41.5t49.5 -111.5q0 -66 -40.5 -117t-112.5 -71v-6q57 -16 87.5 -54t30.5 -102q0 -46 -18.5 -86t-53 -69.5t-84.5 -46.5
t-114 -17zM266 38q83 0 134.5 38t62.5 101q3 18 4 27t1 18q0 56 -40.5 88.5t-115.5 32.5q-83 0 -134.5 -38t-62.5 -101q-3 -18 -4 -27t-1 -18q0 -56 40.5 -88.5t115.5 -32.5zM326 391q74 0 119.5 33.5t54.5 89.5q2 15 2.5 23.5t0.5 15.5q0 51 -36.5 79t-102.5 28
q-74 0 -119.5 -33.5t-54.5 -89.5q-2 -15 -2.5 -23.5t-0.5 -15.5q0 -51 36.5 -79t102.5 -28z" />
    <glyph glyph-name="nine" unicode="9" 
d="M553 509q0 -82 -29.5 -158t-77.5 -142t-109.5 -119t-125.5 -90h-81q68 42 121.5 83t95.5 86t73.5 95.5t55.5 112.5l-5 2q-32 -52 -80.5 -80t-112.5 -28q-83 0 -133 48t-50 131q0 52 18.5 99.5t52.5 83t82.5 56.5t109.5 21q96 0 145.5 -54.5t49.5 -146.5zM298 320
q78 0 128.5 43.5t63.5 116.5q2 17 3.5 27.5t1.5 20.5q0 61 -36 96.5t-107 35.5q-78 0 -128.5 -43.5t-63.5 -116.5q-2 -17 -3.5 -27.5t-1.5 -20.5q0 -61 36 -96.5t107 -35.5z" />
    <glyph glyph-name="ampersand" unicode="&#x26;" 
d="M169 -12q-39 0 -69.5 13.5t-51.5 37t-31.5 55.5t-10.5 70q0 41 9.5 79t32 68t59.5 50t92 25q-14 25 -23 45.5t-15 38t-8.5 34t-2.5 33.5q0 42 13.5 74.5t36.5 54t55 33t69 11.5q69 0 114.5 -40t45.5 -120q0 -50 -14 -88.5t-39.5 -65.5t-61.5 -44t-79 -25l162 -288h12
l85 136l39 -21l-58 -101q-20 -35 -35.5 -50t-37.5 -15q-20 0 -35 9t-29 36l-56 105h-4q-7 -44 -23 -72.5t-38 -46t-48.5 -24.5t-54.5 -7zM177 37q54 0 91.5 31.5t49.5 97.5l-103 190q-38 -5 -63.5 -16.5t-42 -28t-25.5 -37.5t-13 -45q-5 -24 -6 -38t-1 -25q0 -62 28 -95.5
t85 -33.5zM320 663q-49 0 -81.5 -29t-32.5 -96q0 -16 2.5 -32t8.5 -34.5t16.5 -40.5t26.5 -49l15 -26q57 13 93.5 41.5t48.5 78.5q7 26 9 43.5t2 28.5q0 60 -29.5 87.5t-78.5 27.5z" />
    <glyph glyph-name="at" unicode="@" 
d="M410 -110h-125q-60 0 -101.5 16t-67.5 47.5t-37.5 78t-11.5 106.5q0 38 5 84.5t14 102.5q17 103 41 176.5t58 119.5t78 67.5t101 21.5q49 0 84.5 -13.5t58.5 -37.5t33.5 -57t10.5 -71q0 -17 -1.5 -33.5t-3.5 -34.5l-61 -370h-51l14 82h-4q-17 -38 -45 -65.5t-73 -27.5
q-51 0 -79 35t-28 110q0 37 7 72t16 67q39 138 146 138q42 0 66.5 -21.5t31.5 -54.5h4l5 34q6 33 6 65q0 64 -31 101t-108 37q-41 0 -74.5 -16t-60.5 -51.5t-47.5 -93t-33.5 -139.5l-18 -110q-5 -32 -8 -69t-3 -60q0 -45 8.5 -80.5t28 -59.5t52.5 -37t82 -13h129zM345 125
q22 0 41 11.5t34 31.5q33 41 42 93l17 107q6 36 -13 64.5t-68 28.5q-45 0 -73.5 -32.5t-40.5 -106.5l-8 -49q-2 -15 -3.5 -28t-1.5 -24q0 -51 19.5 -73.5t54.5 -22.5z" />
    <glyph glyph-name="hyphen" unicode="-" 
d="M164 275l10 58h277l-10 -58h-277z" />
    <glyph glyph-name="uni00AD" unicode="&#xad;" 
d="M164 275l10 58h277l-10 -58h-277z" />
    <glyph glyph-name="endash" unicode="&#x2013;" 
d="M64 279l9 51h477l-9 -51h-477z" />
    <glyph glyph-name="emdash" unicode="&#x2014;" 
d="M5 279l9 51h596l-9 -51h-596z" />
    <glyph glyph-name="underscore" unicode="_" 
d="M-1 -157l9 51h477l-9 -51h-477z" />
    <glyph glyph-name="period" unicode="." 
d="M257 -7q-28 0 -39.5 10t-11.5 26q0 10 3 25q4 21 19 33.5t45 12.5q28 0 39.5 -10t11.5 -26q0 -10 -3 -25q-4 -21 -19 -33.5t-45 -12.5z" />
    <glyph glyph-name="ellipsis" unicode="&#x2026;" 
d="M74 -4q-26 0 -36 9.5t-10 24.5q0 5 1 12t3 17q3 18 16.5 29t38.5 11q26 0 36 -9.5t10 -24.5q0 -5 -1 -12t-3 -17q-3 -18 -16.5 -29t-38.5 -11zM259 -4q-26 0 -36 9.5t-10 24.5q0 5 1 12t3 17q3 18 16.5 29t38.5 11q26 0 36 -9.5t10 -24.5q0 -5 -1 -12t-3 -17
q-3 -18 -16.5 -29t-38.5 -11zM444 -4q-26 0 -36 9.5t-10 24.5q0 5 1 12t3 17q3 18 16.5 29t38.5 11q26 0 36 -9.5t10 -24.5q0 -5 -1 -12t-3 -17q-3 -18 -16.5 -29t-38.5 -11z" />
    <glyph glyph-name="colon" unicode=":" 
d="M257 -7q-28 0 -39.5 10t-11.5 26q0 10 3 25q4 21 19 33.5t45 12.5q28 0 39.5 -10t11.5 -26q0 -10 -3 -25q-4 -21 -19 -33.5t-45 -12.5zM327 417q-28 0 -39.5 10t-11.5 26q0 10 3 25q4 21 19 33.5t45 12.5q28 0 39.5 -10t11.5 -26q0 -10 -3 -25q-4 -21 -19 -33.5
t-45 -12.5z" />
    <glyph glyph-name="comma" unicode="," 
d="M243 113h94l-143 -266h-48z" />
    <glyph glyph-name="semicolon" unicode=";" 
d="M243 113h94l-143 -266h-48zM327 417q-28 0 -39.5 10t-11.5 26q0 10 3 25q4 21 19 33.5t45 12.5q28 0 39.5 -10t11.5 -26q0 -10 -3 -25q-4 -21 -19 -33.5t-45 -12.5z" />
    <glyph glyph-name="quotesingle" unicode="'" 
d="M309 474l44 266h55l-45 -266h-54z" />
    <glyph glyph-name="quotedbl" unicode="&#x22;" 
d="M231 474l44 266h55l-45 -266h-54zM388 474l44 266h55l-45 -266h-54z" />
    <glyph glyph-name="quoteleft" unicode="&#x2018;" 
d="M395 740h47l-97 -266h-93z" />
    <glyph glyph-name="quoteright" unicode="&#x2019;" 
d="M373 740h94l-144 -266h-47z" />
    <glyph glyph-name="quotedblleft" unicode="&#x201c;" 
d="M294 740h47l-97 -266h-93zM504 740h47l-97 -266h-93z" />
    <glyph glyph-name="quotedblright" unicode="&#x201d;" 
d="M272 740h94l-144 -266h-47zM482 740h94l-144 -266h-47z" />
    <glyph glyph-name="quotesinglbase" unicode="&#x201a;" 
d="M243 113h94l-143 -266h-48z" />
    <glyph glyph-name="quotedblbase" unicode="&#x201e;" 
d="M154 113h94l-143 -266h-48zM363 113h94l-143 -266h-48z" />
    <glyph glyph-name="guilsinglleft" unicode="&#x2039;" 
d="M345 64l-178 178l9 55l237 177l12 -43l-195 -166l140 -164z" />
    <glyph glyph-name="guilsinglright" unicode="&#x203a;" 
d="M179 107l195 166l-140 165l25 36l178 -177l-9 -55l-237 -178z" />
    <glyph glyph-name="guillemotleft" unicode="&#xab;" 
d="M254 64l-178 178l9 55l237 177l12 -43l-195 -166l140 -164zM477 64l-178 178l9 55l237 177l12 -43l-195 -166l140 -164z" />
    <glyph glyph-name="guillemotright" unicode="&#xbb;" 
d="M48 107l195 166l-140 165l25 36l178 -177l-9 -55l-237 -178zM271 107l195 166l-140 165l25 36l178 -177l-9 -55l-237 -178z" />
    <glyph glyph-name="exclamdown" unicode="&#xa1;" 
d="M196 -182l39 234l61 253h24l-24 -253l-39 -234h-61zM327 416q-28 0 -39.5 10t-11.5 26q0 10 3 25q4 21 19 33.5t45 12.5q28 0 39.5 -10t11.5 -26q0 -10 -3 -25q-4 -21 -19 -33.5t-45 -12.5z" />
    <glyph glyph-name="exclam" unicode="!" 
d="M280 211l24 253l39 234h61l-39 -234l-61 -253h-24zM257 -7q-28 0 -39.5 10t-11.5 26q0 10 3 25q4 21 19 33.5t45 12.5q28 0 39.5 -10t11.5 -26q0 -10 -3 -25q-4 -21 -19 -33.5t-45 -12.5z" />
    <glyph glyph-name="questiondown" unicode="&#xbf;" 
d="M232 -194q-87 0 -136 44t-49 119q0 98 63.5 155.5t170.5 70.5l20 121h56l-27 -163q-107 -11 -157.5 -45.5t-61.5 -103.5q-2 -10 -2.5 -21t-0.5 -15q0 -51 34 -81t95 -30q69 0 109.5 34.5t63.5 91.5l51 -21q-13 -33 -33 -61.5t-48 -49.5t-65 -33t-83 -12zM361 523
q28 0 39.5 -10t11.5 -26q0 -10 -3 -25q-4 -21 -19 -33.5t-45 -12.5q-28 0 -39.5 10t-11.5 26q0 10 3 25q4 21 19 33.5t45 12.5z" />
    <glyph glyph-name="question" unicode="?" 
d="M241 200l27 163q107 11 157.5 45.5t61.5 103.5q2 10 2.5 21t0.5 15q0 51 -34 81t-95 30q-69 0 -109.5 -34.5t-63.5 -91.5l-51 21q13 33 33 61.5t48 49.5t65 33t83 12q87 0 136 -44t49 -119q0 -98 -63.5 -155.5t-170.5 -70.5l-20 -121h-56zM237 -7q-28 0 -39.5 10
t-11.5 26q0 10 3 25q4 21 19 33.5t45 12.5q28 0 39.5 -10t11.5 -26q0 -10 -3 -25q-4 -21 -19 -33.5t-45 -12.5z" />
    <glyph glyph-name="parenleft" unicode="(" 
d="M218 222q0 88 24 169t63.5 150.5t91 125t107.5 93.5h62q-50 -34 -96 -78t-84 -96t-64.5 -110.5t-37.5 -121.5l-10 -66q-4 -20 -5.5 -39.5t-1.5 -39.5q0 -108 41.5 -195t107.5 -152h-55q-30 29 -56 67t-45.5 84t-30.5 98.5t-11 110.5z" />
    <glyph glyph-name="parenright" unicode=")" 
d="M401 400q0 -88 -24 -169t-63.5 -150.5t-91.5 -125t-107 -93.5h-62q50 34 96 78t84 96t64.5 110.5t37.5 121.5l10 66q4 20 5.5 39.5t1.5 39.5q0 108 -41.5 195t-107.5 152h55q30 -29 56 -67t45.5 -84t30.5 -98.5t11 -110.5z" />
    <glyph glyph-name="bracketleft" unicode="[" 
d="M175 -138l150 898h261l-7 -44h-213l-135 -810h212l-7 -44h-261z" />
    <glyph glyph-name="bracketright" unicode="]" 
d="M429 760l-150 -898h-261l7 44h213l135 810h-213l8 44h261z" />
    <glyph glyph-name="braceleft" unicode="{" 
d="M243 -138q-27 0 -40 13.5t-13 33.5q0 2 0.5 6t2 13.5t4.5 27.5l8 48q4 28 12.5 49t19 36.5t22 27t20.5 21.5q27 28 37 44t10 36q0 71 -125 71h-85l7 44h86q74 0 112.5 22.5t38.5 67.5q0 14 -5.5 28t-16.5 34q-10 17 -23.5 37.5t-13.5 57.5q0 5 1 12t3 20.5t5.5 34
t9.5 52.5q5 27 22.5 44t49.5 17h181l-7 -44h-194l-11 -66t-6 -37t-2.5 -19t-0.5 -10q0 -25 9.5 -43t17.5 -31q13 -22 22 -42.5t9 -43.5q0 -47 -33.5 -76t-96.5 -37v-3q45 -5 70.5 -27t25.5 -59q0 -32 -17 -55.5t-46 -54.5q-17 -18 -34.5 -41.5t-25.5 -70.5l-16 -94h194
l-8 -44h-180z" />
    <glyph glyph-name="braceright" unicode="}" 
d="M376 760q27 0 40 -13.5t13 -33.5q0 -2 -0.5 -6t-2 -13.5t-4.5 -27.5l-8 -48q-4 -28 -12.5 -49t-19 -36.5t-22 -27t-20.5 -21.5q-27 -28 -37 -44t-10 -36q0 -71 125 -71h85l-7 -44h-86q-74 0 -112.5 -22.5t-38.5 -67.5q0 -14 5.5 -28t16.5 -34q10 -17 23.5 -37.5
t13.5 -57.5q0 -5 -1 -12t-3 -20.5t-5.5 -34t-9.5 -52.5q-5 -27 -22.5 -44t-49.5 -17h-181l7 44h194l11 66t6 37t2.5 18.5t0.5 10.5q0 25 -9.5 43t-17.5 31q-13 22 -22 42.5t-9 43.5q0 47 33.5 76t96.5 37v3q-45 5 -70.5 27t-25.5 59q0 32 17 55.5t46 54.5q8 9 17 19t17 22.5
t15 29.5t11 41l16 94h-194l8 44h180z" />
    <glyph glyph-name="slash" unicode="/" 
d="M29 -138l503 898h53l-503 -898h-53z" />
    <glyph glyph-name="backslash" unicode="\" 
d="M392 -138l-203 898h45l203 -898h-45z" />
    <glyph glyph-name="fraction" unicode="&#x2044;" 
d="M597 698h52l-216 -300h-52zM198 300h52l-216 -300h-52z" />
    <glyph glyph-name="percent" unicode="%" 
d="M194 365q-55 0 -89.5 34.5t-34.5 100.5q0 51 14 90t37 65.5t54 40.5t65 14q55 0 89.5 -34.5t34.5 -100.5q0 -51 -14 -90t-37 -65.5t-54 -40.5t-65 -14zM196 404q44 0 73 27.5t38 82.5l5 30t3 19.5t1.5 12.5t0.5 9q0 44 -21.5 65t-57.5 21q-44 0 -73 -27.5t-38 -82.5
l-5 -30t-3 -19.5t-1.5 -12.5t-0.5 -9q0 -44 21.5 -65t57.5 -21zM599 698h53l-217 -300h-53zM196 300h53l-217 -300h-52zM392 -12q-55 0 -89.5 34.5t-34.5 100.5q0 51 14 90t37 65.5t54 40.5t65 14q55 0 89.5 -34.5t34.5 -100.5q0 -51 -14 -90t-37 -65.5t-54 -40.5t-65 -14z
M394 27q44 0 73 27.5t38 82.5l5 30t3 19.5t1.5 12.5t0.5 9q0 44 -21.5 65t-57.5 21q-44 0 -73 -27.5t-38 -82.5l-5 -30t-3 -19.5t-1.5 -12.5t-0.5 -9q0 -44 21.5 -65t57.5 -21z" />
    <glyph glyph-name="perthousand" unicode="&#x2030;" 
d="M164 400q-53 0 -84.5 31.5t-31.5 85.5q0 48 12 84.5t33 60.5t50 36t63 12q53 0 84.5 -31.5t31.5 -85.5q0 -48 -12 -84.5t-33 -60.5t-50 -36t-63 -12zM167 437q41 0 66 24.5t33 72.5q3 18 5 29.5t3 18.5t1 11v7q0 35 -21 54t-51 19q-41 0 -66 -24.5t-33 -72.5
q-3 -18 -5 -29.5t-3 -18.5t-1 -11v-7q0 -35 21 -54t51 -19zM75 320l475 180l12 -36l-475 -181zM205 -12q-53 0 -84.5 31.5t-31.5 85.5q0 48 12 84.5t33 60.5t50 36t63 12q37 0 63.5 -16.5t36.5 -46.5h4q42 63 115 63q53 0 84.5 -31.5t31.5 -85.5q0 -48 -12 -84.5t-33 -60.5
t-50 -36t-63 -12q-37 0 -63.5 16.5t-37.5 45.5h-4q-41 -62 -114 -62zM208 25q41 0 66 24.5t33 72.5q3 18 5 29.5t3 18.5t1 11v7q0 35 -21 54t-51 19q-41 0 -66 -24.5t-33 -72.5q-3 -18 -5 -29.5t-3 -18.5t-1 -11v-7q0 -35 21 -54t51 -19zM427 25q41 0 66 24.5t33 72.5
q3 18 5 29.5t3 18.5t1 11v7q0 35 -21 54t-51 19q-82 0 -99 -97q-3 -18 -5 -29.5t-2.5 -18.5t-1 -11t-0.5 -7q0 -35 21 -54t51 -19z" />
    <glyph glyph-name="bar" unicode="|" 
d="M209 -138l150 898h50l-150 -898h-50z" />
    <glyph glyph-name="brokenbar" unicode="&#xa6;" 
d="M299 400l60 360h50l-60 -360h-50zM209 -138l60 360h50l-60 -360h-50z" />
    <glyph glyph-name="section" unicode="&#xa7;" 
d="M441 13q0 -38 -14.5 -69t-41 -53t-63 -34t-81.5 -12q-49 0 -92.5 14.5t-70.5 43.5l36 37q23 -22 54.5 -34t72.5 -12q67 0 105 30.5t38 83.5q0 41 -24.5 64t-69.5 37l-67 20q-70 20 -96.5 54t-26.5 81q0 118 141 157v6q-31 20 -46 49.5t-15 66.5q0 38 14.5 69t40.5 52.5
t63 33.5t82 12q48 0 91.5 -14.5t70.5 -42.5l-36 -37q-23 21 -54.5 33t-72.5 12q-67 0 -105 -30.5t-38 -82.5q0 -42 24.5 -65t69.5 -37l67 -19q70 -21 97 -55t27 -80q0 -118 -142 -158v-5q62 -41 62 -116zM465 281q0 38 -22.5 62t-80.5 41l-66 19q-8 2 -14.5 4t-12.5 4
q-54 -21 -84 -55t-30 -82q0 -38 23 -62t80 -41l67 -19q14 -3 26 -9q54 21 84 55.5t30 82.5z" />
    <glyph glyph-name="paragraph" unicode="&#xb6;" 
d="M282 246q-44 0 -79.5 14t-61 39.5t-39.5 61.5t-14 81q0 57 21 104.5t57.5 81t84.5 52t102 18.5h210l-141 -847h-51l133 801h-104l-133 -801h-51z" />
    <glyph glyph-name="copyright" unicode="&#xa9;" 
d="M273 18q-57 0 -105 19.5t-82.5 56t-54 88.5t-19.5 117q0 85 25.5 155t71.5 120.5t108.5 78t137.5 27.5q57 0 105 -19.5t82.5 -56t54 -88.5t19.5 -117q0 -85 -25.5 -155t-71.5 -120.5t-108.5 -78t-137.5 -27.5zM276 58q56 0 104 18.5t85 51.5t62 78.5t34 98.5q4 21 6 36
t3 25.5t1.5 18t0.5 14.5q0 49 -13.5 93t-40.5 77t-68.5 52t-97.5 19t-104 -18.5t-85 -51.5t-62 -78.5t-34 -98.5q-8 -42 -9.5 -61.5t-1.5 -32.5q0 -50 13.5 -93.5t40.5 -76.5t68.5 -52t97.5 -19zM291 178q-55 0 -87.5 36t-32.5 102q0 43 12.5 80.5t35 65.5t54 43.5
t69.5 15.5q45 0 71.5 -21t37.5 -54l-42 -17q-8 25 -24 38t-48 13q-45 0 -72 -27t-36 -78l-7 -42q-3 -17 -3 -31q0 -40 19.5 -61.5t55.5 -21.5q32 0 55.5 15t40.5 40l33 -22q-20 -32 -53.5 -53t-78.5 -21z" />
    <glyph glyph-name="registered" unicode="&#xae;" 
d="M317 346q-36 0 -66 11.5t-52 32.5t-34.5 50.5t-12.5 65.5q0 43 15.5 80.5t42.5 65t64 43t80 15.5q36 0 66 -11.5t52 -32.5t34.5 -50.5t12.5 -65.5q0 -44 -15.5 -81t-42.5 -64.5t-64 -43t-80 -15.5zM316 376q66 0 108.5 35t53.5 92q4 20 5 29.5t1 17.5q0 59 -33 94.5
t-96 35.5q-66 0 -108.5 -35t-53.5 -92q-4 -20 -5 -29.5t-1 -17.5q0 -59 33 -94.5t96 -35.5zM286 438h-29l31 185h78q49 0 49 -46q0 -27 -14 -42t-37 -20l36 -77h-33l-32 73h-36zM345 534q32 0 36 28q2 6 2 9v5q0 23 -27 23h-43l-11 -65h43z" />
    <glyph glyph-name="trademark" unicode="&#x2122;" 
d="M136 423l40 241h-93l6 34h225l-6 -34h-93l-40 -241h-39zM321 423l45 275h47l49 -148h2l98 148h48l-45 -275h-36l22 131l15 91h-3l-111 -164l-57 164h-3l-14 -91l-22 -131h-35z" />
    <glyph glyph-name="ordfeminine" unicode="&#xaa;" 
d="M387 362l9 54h-6q-14 -23 -40.5 -41.5t-68.5 -18.5q-51 0 -76.5 23t-25.5 61q0 53 37 82t120 29h83l6 38q2 7 2 13v11q0 30 -20 44.5t-57 14.5q-32 0 -58.5 -14.5t-42.5 -40.5l-29 25q18 28 52 48t83 20q56 0 87 -24t31 -68q0 -6 -0.5 -14t-2.5 -16l-37 -226h-46z
M331 516q-50 0 -73.5 -13t-28.5 -38q-4 -20 -4 -26q0 -45 64 -45q21 0 40.5 5t35 14.5t26.5 23t14 31.5l8 48h-82z" />
    <glyph glyph-name="ordmasculine" unicode="&#xba;" 
d="M320 356q-58 0 -94 38t-36 98q0 48 13 88t36.5 69t57 45t75.5 16q58 0 94 -38t36 -98q0 -48 -13 -88t-36.5 -69t-57 -45t-75.5 -16zM325 396q51 0 80.5 31t37.5 77l9 50q2 9 2 15.5v12.5q0 38 -21.5 63t-65.5 25q-51 0 -80.5 -31t-37.5 -77l-9 -50q-2 -9 -2 -15.5v-12.5
q0 -38 21.5 -63t65.5 -25z" />
    <glyph glyph-name="degree" unicode="&#xb0;" 
d="M331 382q-66 0 -107.5 39.5t-41.5 107.5q0 38 13.5 71t38 57.5t58 38.5t72.5 14q66 0 107.5 -39.5t41.5 -107.5q0 -38 -13.5 -71t-38 -57.5t-58 -38.5t-72.5 -14zM333 428q28 0 52 10t41 28t27 42.5t10 52.5q0 46 -26 74.5t-75 28.5q-28 0 -52 -10t-41 -28t-27 -42.5
t-10 -52.5q0 -46 26 -74.5t75 -28.5z" />
    <glyph glyph-name="asterisk" unicode="*" 
d="M131 53l-39 32l168 187l-201 71l22 43l203 -68l39 230h52l-39 -229l222 68l8 -47l-224 -71l106 -187l-43 -29l-106 190z" />
    <glyph glyph-name="dagger" unicode="&#x2020;" 
d="M199 -200l111 670h-201l8 46h201l37 224h49l-37 -224h201l-8 -46h-201l-111 -670h-49z" />
    <glyph glyph-name="daggerdbl" unicode="&#x2021;" 
d="M199 -200l37 224h-201l8 46h200l67 400h-201l8 46h201l37 224h49l-37 -224h201l-8 -46h-201l-67 -400h202l-8 -46h-201l-37 -224h-49z" />
    <glyph glyph-name="numbersign" unicode="#" 
d="M157 226h-142l8 46h150l52 154h-141l8 46h149l77 226h53l-238 -698h-53zM498 698h53l-77 -226h142l-8 -46h-150l-52 -154h141l-8 -46h-149l-77 -226h-53z" />
    <glyph glyph-name="asciicircum" unicode="^" 
d="M515 304l-144 344h-3l-255 -344l-41 26l273 368h62l154 -374z" />
    <glyph glyph-name="asciitilde" unicode="~" 
d="M414 244q-31 0 -56 10t-54 25q-32 17 -56 27t-48 10q-32 0 -55 -19t-45 -53l-40 24q25 46 59.5 71.5t82.5 25.5q31 0 56 -10t54 -25q32 -17 56 -27t48 -10q32 0 55 19t45 53l40 -24q-25 -46 -59.5 -71.5t-82.5 -25.5z" />
    <glyph glyph-name="plus" unicode="+" 
d="M240 62l37 219h-210l8 48h210l37 219h53l-37 -219h210l-8 -48h-210l-37 -219h-53z" />
    <glyph glyph-name="minus" unicode="&#x2212;" 
d="M67 281l8 48h473l-8 -48h-473z" />
    <glyph glyph-name="plusminus" unicode="&#xb1;" 
d="M253 137l36 213h-210l8 48h210l36 213h53l-36 -213h210l-8 -48h-210l-36 -213h-53zM20 0l8 48h474l-8 -48h-474z" />
    <glyph glyph-name="multiply" unicode="&#xd7;" 
d="M305 273l-200 -172l-30 35l200 173l-141 170l36 31l142 -171l200 171l30 -35l-200 -172l142 -171l-37 -31z" />
    <glyph glyph-name="divide" unicode="&#xf7;" 
d="M67 281l8 48h473l-8 -48h-473zM269 63q-26 0 -36 9.5t-10 23.5q0 6 0.5 11.5t1.5 10.5q4 19 17 29.5t39 10.5t36 -9.5t10 -23.5q0 -6 -0.5 -11.5t-1.5 -10.5q-4 -19 -17 -29.5t-39 -10.5zM334 452q-26 0 -36 9.5t-10 23.5q0 6 0.5 11.5t1.5 10.5q4 19 17 29.5t39 10.5
t36 -9.5t10 -23.5q0 -6 -0.5 -11.5t-1.5 -10.5q-4 -19 -17 -29.5t-39 -10.5z" />
    <glyph glyph-name="equal" unicode="=" 
d="M84 377l8 48h472l-8 -48h-472zM52 187l8 48h472l-8 -48h-472z" />
    <glyph glyph-name="approxequal" unicode="&#x2248;" 
d="M429 337q-31 0 -56 10t-54 25q-32 17 -56 27t-48 10q-32 0 -55 -19t-45 -53l-40 24q25 46 59.5 71.5t82.5 25.5q31 0 56 -10t54 -25q32 -17 56 -27t48 -10q32 0 55 19t45 53l40 -24q-25 -46 -59.5 -71.5t-82.5 -25.5zM399 153q-31 0 -56 10t-54 25q-32 17 -56 27t-48 10
q-32 0 -55 -19t-45 -53l-40 24q25 46 59.5 71.5t82.5 25.5q31 0 56 -10t54 -25q32 -17 56 -27t48 -10q32 0 55 19t45 53l40 -24q-25 -46 -59.5 -71.5t-82.5 -25.5z" />
    <glyph glyph-name="notequal" unicode="&#x2260;" 
d="M115 81l78 106h-141l8 48h169l105 142h-250l7 48h277l78 106h55l-78 -106h141l-8 -48h-168l-105 -142h249l-8 -48h-275l-78 -106h-56z" />
    <glyph glyph-name="less" unicode="&#x3c;" 
d="M89 279l9 53l470 253l-10 -62l-410 -218l-1 -6l337 -218l-9 -54z" />
    <glyph glyph-name="greater" unicode="&#x3e;" 
d="M59 89l410 218l1 5l-338 219l10 54l386 -252l-9 -53l-470 -253z" />
    <glyph glyph-name="lessequal" unicode="&#x2264;" 
d="M43 0l8 48h429l-8 -48h-429zM560 534l-404 -182v-5l344 -182l-10 -53l-392 210l10 59l462 210z" />
    <glyph glyph-name="greaterequal" unicode="&#x2265;" 
d="M73 169l404 182l1 5l-345 182l10 53l392 -210l-9 -59l-463 -210zM51 48h429l-8 -48h-429z" />
    <glyph glyph-name="periodcentered" unicode="&#xb7;" 
d="M299 251q-28 0 -39.5 10t-11.5 26q0 10 3 25q4 21 19 33.5t45 12.5q28 0 39.5 -10t11.5 -26q0 -10 -3 -25q-4 -21 -19 -33.5t-45 -12.5z" />
    <glyph glyph-name="bullet" unicode="&#x2022;" 
d="M290 199q-51 0 -71.5 21t-20.5 53q0 5 1 13t5 30q7 41 35 67.5t87 26.5q51 0 71.5 -21t20.5 -53q0 -5 -1 -13t-5 -30q-7 -41 -35 -67.5t-87 -26.5z" />
    <glyph glyph-name="lozenge" unicode="&#x25ca;" 
d="M229 0l-165 349l280 349h57l165 -349l-280 -349h-57zM266 51l243 302l-139 294h-6l-243 -302l139 -294h6z" />
    <glyph glyph-name="logicalnot" unicode="&#xac;" 
d="M446 88l32 193h-411l8 48h460l-40 -241h-49z" />
    <glyph glyph-name="radical" unicode="&#x221a;" 
d="M226 0l-54 471h-109l7 45h150l51 -466h4l298 648h58l-326 -698h-79z" />
    <glyph glyph-name="integral" unicode="&#x222b;" 
d="M191 -212q-11 0 -21 4.5t-22 14t-26.5 24.5t-34.5 36l-111 107l38 35l173 -171l13 4l136 815q6 38 28.5 60.5t64.5 22.5h195l-8 -48h-218l-138 -827q-5 -32 -21 -54.5t-48 -22.5z" />
    <glyph glyph-name="infinity" unicode="&#x221e;" 
d="M132 126q-24 0 -45.5 8.5t-37.5 25.5t-25.5 44t-9.5 63q0 45 11.5 84.5t33.5 69.5t54 47t72 17q56 0 91.5 -38t43.5 -103h5q25 68 67 104.5t90 36.5q24 0 45.5 -8.5t37.5 -25.5t25.5 -44t9.5 -63q0 -45 -11.5 -84.5t-33.5 -69.5t-54 -47t-72 -17q-56 0 -91.5 38
t-43.5 103h-5q-25 -68 -67 -104.5t-90 -36.5zM143 172q84 0 140 130q-7 67 -29.5 102t-67.5 35q-42 0 -71.5 -28.5t-40.5 -85.5q-4 -20 -6 -37.5t-2 -29.5q0 -42 20 -64t57 -22zM428 172q42 0 71.5 28.5t40.5 85.5q4 20 6 37.5t2 29.5q0 42 -20 64t-57 22q-84 0 -140 -130
q7 -67 29.5 -102t67.5 -35z" />
    <glyph glyph-name="uni212E" unicode="&#x212e;" 
d="M116 145q25 -51 71.5 -86t112.5 -35q40 0 71.5 10.5t57 29t46 44t37.5 55.5l33 -18q-18 -32 -41 -60.5t-53 -50t-67.5 -34t-83.5 -12.5q-62 0 -112.5 27.5t-86.5 75.5t-55.5 114t-19.5 144t19.5 144t55.5 114t86.5 75.5t112.5 27.5t112.5 -27.5t86.5 -75.5t55.5 -114
t19.5 -144h-458v-204zM484 381v175q-26 52 -72.5 85.5t-111.5 33.5t-111.5 -33.5t-72.5 -85.5v-175h368z" />
    <glyph glyph-name="uni2113" unicode="&#x2113;" 
d="M318 -12q-76 0 -112 47.5t-36 125.5v29q-32 -24 -63 -42l-24 38q21 13 43.5 27.5t43.5 31.5v317q0 101 35.5 145.5t97.5 44.5t94.5 -40t32.5 -117q0 -103 -55 -197t-150 -179v-46q0 -73 23.5 -105.5t71.5 -32.5q50 0 80.5 30.5t56.5 79.5l42 -24q-12 -27 -28.5 -51
t-38 -42t-50 -29t-64.5 -11zM304 705q-18 0 -32.5 -7t-25 -23t-16 -43t-5.5 -66v-286q70 70 111.5 149t41.5 159v15q0 54 -20.5 78t-53.5 24z" />
    <glyph glyph-name="uni2116" unicode="&#x2116;" 
d="M500 353q-84 0 -84 107q0 15 2 33t5 38q14 89 45.5 131.5t85.5 42.5q84 0 84 -107q0 -15 -2 -33t-5 -38q-14 -89 -45.5 -131.5t-85.5 -42.5zM10 0l116 698h88l30 -633h5l105 633h49l-116 -698h-88l-30 633h-5l-105 -633h-49zM504 392q34 0 51 28t25 74l11 65q2 14 3.5 26
t1.5 21q0 28 -10 44t-36 16q-34 0 -51 -28t-25 -74l-11 -65q-2 -14 -3.5 -26t-1.5 -21q0 -28 10 -44t36 -16zM385 272l7 41h200l-7 -41h-200z" />
    <glyph glyph-name="partialdiff" unicode="&#x2202;" 
d="M254 -12q-43 0 -78 14.5t-59.5 41t-38 64t-13.5 83.5q0 68 18.5 126t52 100t79.5 65.5t100 23.5q52 0 92.5 -24.5t60.5 -66.5l3 2q-19 91 -84 163t-160 118h90q40 -23 77.5 -56.5t67 -78.5t47 -101.5t17.5 -123.5q0 -82 -20 -147t-56 -110t-86 -69t-110 -24zM260 38
q73 0 125.5 44t67.5 131l9 51q3 17 3.5 29.5t0.5 23.5q0 68 -38 103.5t-102 35.5q-73 0 -125.5 -44t-67.5 -131l-9 -51q-3 -17 -3.5 -29.5t-0.5 -23.5q0 -68 38 -103.5t102 -35.5z" />
    <glyph glyph-name="cent" unicode="&#xa2;" 
d="M228 -9q-75 13 -112.5 70.5t-37.5 142.5q0 72 18 129.5t50 99.5t76 66t96 28l17 103h45l-17 -104q62 -5 98.5 -38t48.5 -80l-48 -18q-13 42 -40.5 63.5t-68.5 24.5l-73 -441h5q44 2 83.5 31.5t87.5 99.5l41 -23q-22 -36 -45.5 -64t-49.5 -48.5t-56.5 -31.5t-66.5 -12h-6
l-17 -103h-45zM134 191q0 -62 26.5 -101t77.5 -50l72 438q-64 -7 -106 -54.5t-56 -126.5l-9 -56q-3 -17 -4 -27.5t-1 -22.5z" />
    <glyph glyph-name="Euro" unicode="&#x20ac;" 
d="M287 -12q-98 0 -148.5 61.5t-50.5 182.5q0 93 18.5 179t56.5 152.5t95.5 106.5t134.5 40q44 0 75.5 -12t53 -33t35 -48.5t20.5 -57.5l-53 -17q-6 25 -16 46.5t-26 37t-38.5 24t-55.5 8.5q-76 0 -129.5 -55.5t-79.5 -152.5h233l-8 -47h-235q-1 -4 -1.5 -7t-1.5 -8
q-3 -17 -6.5 -41.5t-5.5 -35.5q-1 -5 -1.5 -9.5t-0.5 -9.5h233l-8 -47h-231v-19q0 -41 8 -75t25.5 -59t45 -38.5t67.5 -13.5q31 0 55.5 8t45.5 24t39 40t38 55l47 -24q-22 -37 -44.5 -65.5t-49.5 -48.5t-60 -30.5t-76 -10.5z" />
    <glyph glyph-name="florin" unicode="&#x192;" 
d="M146 -212q-24 0 -44 15t-54 52l-117 120l37 34l168 -172l13 6l142 537h-174l9 49h178l48 186q11 42 33 62.5t64 20.5h186l-9 -48h-208l-58 -221h205l-9 -49h-209l-137 -522q-9 -34 -23 -52t-41 -18z" />
    <glyph glyph-name="sterling" unicode="&#xa3;" 
d="M479 -12q-19 0 -44 5.5t-57 12.5l-281 56l-10 -62h-58l12 78q28 13 51 28.5t39.5 37.5t26 51.5t9.5 69.5q0 14 -1 26.5t-3 24.5h-103l8 49h86q-5 27 -10 53t-5 55q0 53 16.5 97t46.5 75t72 48t93 17q42 0 74.5 -10.5t57 -29t40.5 -42.5t24 -51l-51 -21q-17 48 -52.5 76
t-95.5 28q-78 0 -122 -50t-44 -142q0 -28 4.5 -52.5t9.5 -50.5h193l-8 -49h-176q2 -11 3 -24t1 -25q0 -26 -6 -52t-19 -47.5t-33 -37.5t-47 -22l-1 -3l359 -65l9 8l-30 151l44 13l17 -64q9 -30 14.5 -56t5.5 -44q0 -26 -15 -43t-44 -17z" />
    <glyph glyph-name="dollar" unicode="$" 
d="M230 -10q-75 8 -124 39.5t-78 78.5l45 35q29 -45 67 -70.5t98 -31.5l49 295l-23 6q-154 34 -154 167q0 47 17 84t48 63t74 39.5t95 14.5h6l17 101h44l-18 -103q72 -8 116 -36.5t68 -70.5l-43 -31q-25 39 -60.5 60.5t-88.5 26.5l-47 -278l30 -6q81 -19 118 -61t37 -106
q0 -49 -17 -88.5t-49 -68t-77 -44.5t-101 -17h-5l-17 -101h-44zM170 512q0 -51 28.5 -78.5t86.5 -41.5l12 -3l44 270h-5q-77 -3 -121.5 -40.5t-44.5 -106.5zM463 201q0 50 -28 79t-93 43l-13 3l-47 -286h5q82 4 129 46.5t47 114.5z" />
    <glyph glyph-name="yen" unicode="&#xa5;" 
d="M47 49h190l37 222h-191l8 49h159l-151 378h62l145 -377h3l272 377h68l-279 -378h159l-8 -49h-191l-37 -222h191l-8 -49h-437z" />
    <glyph glyph-name="uni0E3F" unicode="&#xe3f;" 
d="M254 -113h-44l19 113h-177l116 698h177l19 113h44l-19 -113h4q81 0 122.5 -41.5t41.5 -113.5q0 -69 -35.5 -117.5t-100.5 -64.5v-3q48 -12 75.5 -46.5t27.5 -93.5q0 -47 -15 -87t-43.5 -69t-69 -45.5t-92.5 -16.5h-31zM292 382l43 265h-118l-43 -265h118zM498 553
q0 45 -29 69.5t-85 24.5h-5l-42 -265h12q61 2 97 31t44 78l5 31q2 10 2.5 16.5t0.5 14.5zM237 51l46 283h-118l-47 -283h119zM464 234q0 44 -29 72t-89 28h-18l-47 -283h20q67 0 106.5 30.5t48.5 85.5l5 31q3 18 3 36z" />
    <glyph glyph-name="uni20A1" unicode="&#x20a1;" 
d="M105 -113l41 149q-63 61 -63 196q0 84 15.5 162.5t46 142.5t77.5 108.5t110 58.5l30 107h45l-28 -101h7q20 0 37 -2.5t31 -7.5l31 111h45l-35 -128q34 -21 53 -53.5t28 -69.5l-53 -17q-7 26 -17.5 47t-27.5 37l-164 -587q50 7 84 40.5t68 90.5l48 -24
q-21 -36 -42.5 -64.5t-46.5 -48.5t-55.5 -31.5t-68.5 -13.5l-28 -102h-45l28 102q-42 5 -71 22l-35 -124h-45zM383 661h-9.5t-9.5 -1l-166 -595q32 -24 73 -27l171 612q-27 11 -59 11zM141 220q0 -70 25 -114l152 542q-60 -23 -100 -87t-55 -161l-14 -84q-5 -26 -6.5 -50.5
t-1.5 -45.5z" />
    <glyph glyph-name="uni20A4" unicode="&#x20a4;" 
d="M482 -12q-23 0 -47 5.5t-57 12.5l-281 55l-10 -61h-58l12 78q25 11 46.5 25t37.5 33t26.5 44t13.5 58h-120l8 47h112q-1 26 -6 51l-10 50h-83l8 47h68q-2 7 -2.5 18.5t-0.5 19.5q0 54 16.5 98t46.5 75.5t72 48.5t93 17q41 0 73.5 -10.5t57.5 -28.5t41 -42t24 -52l-51 -21
q-17 48 -52.5 76t-95.5 28q-78 0 -122 -49.5t-44 -141.5q0 -8 0.5 -18.5t2.5 -17.5h213l-8 -47h-199q5 -26 9.5 -50.5t6.5 -50.5h169l-7 -47h-164q-5 -45 -29 -80.5t-72 -49.5l-1 -3l359 -65l9 8l-30 151l44 13l17 -64q9 -30 14.5 -56t5.5 -45q0 -26 -15 -42.5t-41 -16.5z
" />
    <glyph glyph-name="uni20A6" unicode="&#x20a6;" 
d="M313 255h-164l-43 -255h-50l41 253h-67l8 47h67l17 99h-67l8 47h66l43 252h87l63 -255h165l42 255h51l-42 -252h67l-8 -47h-67l-17 -99h68l-8 -47h-68l-41 -253h-87zM218 643h-5l-58 -346h150zM417 55h5l58 346h-150z" />
    <glyph glyph-name="uni20A8" unicode="&#x20a8;" 
d="M419 -12q-70 0 -108 33.5t-58 104.5l-60 200h-25h-39l-54 -326h-57l116 698h110q78 0 111.5 -38t33.5 -105q0 -38 -7.5 -74t-24.5 -65.5t-43.5 -51t-65.5 -30.5l58 -191q17 -57 43 -82t73 -25q41 0 64 21t23 59q0 27 -12 48.5t-32 43.5l-22 27q-25 29 -39.5 55.5
t-14.5 61.5q0 24 8.5 46.5t25 39.5t40.5 27t55 10q55 0 90 -33l-30 -39q-12 12 -27.5 19t-35.5 7q-33 0 -52.5 -20.5t-19.5 -52.5q0 -24 10.5 -43.5t32.5 -46.5l21 -25q24 -29 40 -56.5t16 -65.5q0 -57 -36.5 -94t-107.5 -37zM188 376q59 0 91.5 24t41.5 79l9 56q1 6 1.5 14
t0.5 16q0 82 -98 82h-51l-45 -271h50z" />
    <glyph glyph-name="uni20A9" unicode="&#x20a9;" 
d="M99 253h-65l8 47h63l12 103h-58l8 47h57l31 248h53l-34 -251h318l50 251h52l-52 -248h57l-8 -47h-58l-22 -103h63l-8 -47h-65l-52 -253h-93l-25 406h-11l-161 -406h-92zM133 54l143 352h-108l-47 -352h12zM414 54l71 352h-109l26 -352h12z" />
    <glyph glyph-name="uni20AA" unicode="&#x20aa;" 
d="M258 559h55l-85 -513h105q110 0 130 121l89 531h54l-87 -524q-14 -86 -61.5 -130t-131.5 -44h-161zM146 698h158q69 0 105 -34t36 -100q0 -9 -1 -22.5t-3 -27.5l-62 -375h-55l64 390q2 9 3 19t1 19q0 42 -22.5 63.5t-71.5 21.5h-104l-109 -652h-55z" />
    <glyph glyph-name="uni20AB" unicode="&#x20ab;" 
d="M417 219h-4q-11 -20 -26.5 -38.5t-36 -32.5t-46 -22.5t-55.5 -8.5q-72 0 -113.5 44.5t-41.5 125.5q0 63 16.5 113.5t45.5 85t68.5 53t85.5 18.5q32 0 56.5 -9t42 -23t29 -32.5t16.5 -36.5h3l28 174h-157l8 44h157l11 66h53l-11 -66h70l-8 -44h-69l-84 -503h-54zM266 163
q30 0 57.5 10t49.5 27.5t37 42t20 53.5l16 98q4 23 -3.5 44.5t-24.5 37.5t-42.5 25.5t-57.5 9.5q-67 0 -106.5 -36.5t-50.5 -102.5q-7 -44 -9.5 -62t-2.5 -29q0 -54 31 -86t86 -32zM41 0l8 49h425l-8 -49h-425z" />
    <glyph glyph-name="uni20AD" unicode="&#x20ad;" 
d="M118 0h-59l57 339h-83l8 49h83l51 310h59l-51 -310h62l286 310h69l-284 -310h232l-8 -49h-235l190 -339h-66l-187 339h-67z" />
    <glyph glyph-name="uni20AE" unicode="&#x20ae;" 
d="M325 230l-39 -230h-59l34 202l-156 -69l7 51l158 69l17 105l-156 -69l8 51l157 69l40 237h-240l9 52h538l-9 -52h-240l-35 -210l158 70l-8 -50l-158 -70l-18 -106l158 71l-8 -51z" />
    <glyph glyph-name="uni20B1" unicode="&#x20b1;" 
d="M119 363h-57l8 47h57l17 97h-57l8 47h57l23 144h210q72 0 113.5 -37.5t50.5 -106.5h70l-7 -47h-61v-9q-1 -22 -4 -45t-8 -43h55l-8 -47h-63q-29 -69 -81.5 -106t-124.5 -37h-162l-37 -220h-59zM496 553q-5 44 -34.5 69.5t-82.5 25.5h-153l-16 -95h286zM479 408
q7 31 10 54.5t5 38.5q0 4 -1 7h-290l-17 -100h293zM322 270q56 0 93.5 24.5t54.5 69.5h-293l-14 -94h159z" />
    <glyph glyph-name="uni20B2" unicode="&#x20b2;" 
d="M179 5q-103 49 -103 226q0 93 17.5 179.5t54.5 153t93.5 106.5t133.5 40q13 0 25 -1t21 -3l37 105h46l-41 -117q44 -20 68.5 -56t34.5 -79l-50 -17q-8 34 -25 60t-46 40l-108 -309h192l-15 -91q-20 -120 -81 -187t-169 -67q-12 0 -22.5 1t-21.5 4l-37 -106h-45zM132 223
q0 -123 65 -165l208 597q-9 2 -18.5 2.5t-20.5 0.5q-86 0 -139.5 -69.5t-73.5 -188.5l-13 -83q-5 -26 -6.5 -50t-1.5 -44zM236 41q8 -3 17.5 -4t20.5 -1q72 0 119.5 48.5t64.5 148.5l10 53h-147z" />
    <glyph glyph-name="uni20B4" unicode="&#x20b4;" 
d="M287 -12q-43 0 -78 12.5t-59.5 34.5t-37.5 52.5t-13 67.5q0 35 12 61t27 44h-100l8 46h128l199 107l1 3h-310l8 46h371q17 18 24 39t7 44q0 55 -33.5 85t-93.5 30q-39 0 -78 -14.5t-75 -48.5l-31 41q42 38 91 55t98 17q84 0 131.5 -42.5t47.5 -112.5q0 -29 -7.5 -52.5
t-21.5 -40.5h99l-8 -46h-129l-199 -106l-1 -4h311l-8 -46h-368q-20 -20 -32 -45t-12 -56q0 -57 36.5 -89t99.5 -32q43 0 83.5 18.5t88.5 63.5l34 -38q-47 -48 -101.5 -71t-108.5 -23z" />
    <glyph glyph-name="uni20B5" unicode="&#x20b5;" 
d="M184 9q-101 52 -101 223q0 93 18.5 179t56.5 152.5t95.5 106.5t134.5 40q18 0 33 -3l35 104h46l-39 -113q48 -18 73 -56t36 -83l-50 -17q-10 37 -27 65t-49 42l-205 -605q21 -6 46 -6q32 0 57 8.5t46 25.5t40 41.5t39 57.5l45 -24q-22 -38 -45 -67.5t-50 -50t-60.5 -31
t-76.5 -10.5q-31 0 -58 6l-36 -107h-45zM139 220q0 -115 64 -158l202 597q-4 1 -10.5 1.5t-11.5 0.5q-88 0 -145 -70t-77 -191l-14 -84q-5 -26 -6.5 -50.5t-1.5 -45.5z" />
    <glyph glyph-name="uni20B8" unicode="&#x20b8;" 
d="M112 649l7 49h509l-8 -49h-508zM369 494l-83 -494h-58l82 494h-224l8 49h508l-8 -49h-225z" />
    <glyph glyph-name="uni20B9" unicode="&#x20b9;" 
d="M386 0l-177 303h-138l8 49h178q75 0 115 34t47 100h-318l8 49h312q0 24 -6 45t-20 36t-36.5 24t-55.5 9h-175l8 49h488l-8 -49h-205v-4q29 -14 46.5 -41.5t19.5 -68.5h120l-8 -49h-113q-9 -75 -56 -123.5t-135 -56.5l-12 -1l181 -305h-68z" />
    <glyph glyph-name="uni20BA" unicode="&#x20ba;" 
d="M165 268l-120 -53l8 51l121 53l17 106l-120 -54l8 52l120 52l37 223h59l-32 -195l206 91l-9 -52l-206 -91l-18 -105l207 92l-8 -52l-207 -91l-41 -243h81q91 0 147.5 68t74.5 185h58q-11 -68 -34 -124t-58 -96.5t-83 -62.5t-108 -22h-145z" />
    <glyph glyph-name="uni20BD" unicode="&#x20bd;" 
d="M180 150l-24 -150h-59l25 150h-92l8 49h92l18 107h-92l8 49h92l57 343h221q83 0 124.5 -44.5t41.5 -116.5q0 -107 -56.5 -169t-162.5 -62h-174l-19 -107h234l-8 -49h-234zM215 355h171q63 0 100 31.5t46 85.5l6 37q2 11 2 18.5v13.5q0 48 -28 76.5t-84 28.5h-165z" />
    <glyph glyph-name="uni20BF" unicode="&#x20bf;" 
d="M274 0h-80l-19 -113h-45l19 113h-98l116 698h99l19 113h45l-19 -113h80l19 113h45l-20 -118q55 -13 83.5 -52t28.5 -99q0 -69 -34 -116t-96 -64v-3q48 -13 76.5 -46.5t28.5 -92.5q0 -46 -14 -85t-40 -68t-63.5 -46.5t-85.5 -19.5l-19 -114h-45zM173 383h167q62 0 97 29.5
t43 78.5l5 31q2 10 2 16.5v14.5q0 45 -28 69t-83 24h-160zM118 52h182q66 0 105.5 30t48.5 85l5 31q2 9 3 18t1 18q0 44 -29.5 72t-88.5 28h-180z" />
    <glyph glyph-name="fi" unicode="&#xfb01;" 
d="M158 468h-80l8 48h80l23 141q6 37 28 60t64 23h137l-8 -48h-159l-29 -176h311l-86 -516h-56l78 468h-255l-78 -468h-56zM531 654q-26 0 -35.5 10t-9.5 22q0 5 1 11.5t2 11.5q2 15 14 26.5t38 11.5t35.5 -9.5t9.5 -22.5q0 -5 -1 -11.5t-2 -11.5q-3 -15 -14.5 -26.5
t-37.5 -11.5z" />
    <glyph glyph-name="fl" unicode="&#xfb02;" 
d="M158 468h-80l8 48h80l23 141q6 37 28 60t64 23h150l-8 -48h-172l-29 -176h173l-8 -48h-173l-78 -468h-56zM514 740h56l-123 -740h-56z" />
    <glyph glyph-name="aacute" unicode="&#xe1;" 
d="M394 0l20 119h-3q-30 -59 -72.5 -95t-110.5 -36q-81 0 -123.5 52.5t-42.5 146.5q0 61 14.5 121.5t44.5 109.5t75.5 79.5t108.5 30.5q62 0 101.5 -27t55.5 -75h3l15 90h56l-86 -516h-56zM244 38q32 0 62 12t56 38q23 24 42.5 57.5t26.5 75.5l22 129q4 26 -2.5 49.5
t-23.5 41t-44.5 27.5t-63.5 10q-39 0 -70.5 -14t-55 -38.5t-38.5 -58.5t-22 -74l-11 -63q-2 -14 -3 -25.5t-1 -22.5q0 -63 30.5 -103.5t95.5 -40.5zM331 590l-34 21l119 161l49 -29z" />
    <glyph glyph-name="abreve" unicode="&#x103;" 
d="M394 0l20 119h-3q-30 -59 -72.5 -95t-110.5 -36q-81 0 -123.5 52.5t-42.5 146.5q0 61 14.5 121.5t44.5 109.5t75.5 79.5t108.5 30.5q62 0 101.5 -27t55.5 -75h3l15 90h56l-86 -516h-56zM244 38q32 0 62 12t56 38q23 24 42.5 57.5t26.5 75.5l22 129q4 26 -2.5 49.5
t-23.5 41t-44.5 27.5t-63.5 10q-39 0 -70.5 -14t-55 -38.5t-38.5 -58.5t-22 -74l-11 -63q-2 -14 -3 -25.5t-1 -22.5q0 -63 30.5 -103.5t95.5 -40.5zM336 601q-35 0 -57.5 12.5t-37 32.5t-23 45.5t-14.5 52.5l35 15l17 -40q16 -38 32.5 -55t48.5 -17q16 0 28.5 4t24 12.5
t24 22t27.5 33.5l31 40l36 -15q-15 -27 -30.5 -52.5t-35.5 -45.5t-46 -32.5t-60 -12.5z" />
    <glyph glyph-name="acircumflex" unicode="&#xe2;" 
d="M394 0l20 119h-3q-30 -59 -72.5 -95t-110.5 -36q-81 0 -123.5 52.5t-42.5 146.5q0 61 14.5 121.5t44.5 109.5t75.5 79.5t108.5 30.5q62 0 101.5 -27t55.5 -75h3l15 90h56l-86 -516h-56zM244 38q32 0 62 12t56 38q23 24 42.5 57.5t26.5 75.5l22 129q4 26 -2.5 49.5
t-23.5 41t-44.5 27.5t-63.5 10q-39 0 -70.5 -14t-55 -38.5t-38.5 -58.5t-22 -74l-11 -63q-2 -14 -3 -25.5t-1 -22.5q0 -63 30.5 -103.5t95.5 -40.5zM395 760l94 -142l-34 -20l-99 121l-141 -121l-29 25l139 137h70z" />
    <glyph glyph-name="adieresis" unicode="&#xe4;" 
d="M394 0l20 119h-3q-30 -59 -72.5 -95t-110.5 -36q-81 0 -123.5 52.5t-42.5 146.5q0 61 14.5 121.5t44.5 109.5t75.5 79.5t108.5 30.5q62 0 101.5 -27t55.5 -75h3l15 90h56l-86 -516h-56zM244 38q32 0 62 12t56 38q23 24 42.5 57.5t26.5 75.5l22 129q4 26 -2.5 49.5
t-23.5 41t-44.5 27.5t-63.5 10q-39 0 -70.5 -14t-55 -38.5t-38.5 -58.5t-22 -74l-11 -63q-2 -14 -3 -25.5t-1 -22.5q0 -63 30.5 -103.5t95.5 -40.5zM249 631q-23 0 -32.5 9t-9.5 20q0 9 3 20q4 17 14.5 26t33.5 9t32.5 -9t9.5 -20q0 -10 -3 -20q-4 -17 -14.5 -26t-33.5 -9z
M433 631q-23 0 -32.5 9t-9.5 20q0 9 3 20q4 17 14.5 26t33.5 9t32.5 -9t9.5 -20q0 -10 -3 -20q-4 -17 -14.5 -26t-33.5 -9z" />
    <glyph glyph-name="uni1EA1" unicode="&#x1ea1;" 
d="M394 0l20 119h-3q-30 -59 -72.5 -95t-110.5 -36q-81 0 -123.5 52.5t-42.5 146.5q0 61 14.5 121.5t44.5 109.5t75.5 79.5t108.5 30.5q62 0 101.5 -27t55.5 -75h3l15 90h56l-86 -516h-56zM244 38q32 0 62 12t56 38q23 24 42.5 57.5t26.5 75.5l22 129q4 26 -2.5 49.5
t-23.5 41t-44.5 27.5t-63.5 10q-39 0 -70.5 -14t-55 -38.5t-38.5 -58.5t-22 -74l-11 -63q-2 -14 -3 -25.5t-1 -22.5q0 -63 30.5 -103.5t95.5 -40.5zM217 -158q-23 0 -32 9t-9 20q0 10 3 21q4 16 14 25.5t33 9.5t32 -9t9 -20q0 -4 -0.5 -10t-2.5 -11q-4 -16 -14 -25.5
t-33 -9.5z" />
    <glyph glyph-name="agrave" unicode="&#xe0;" 
d="M394 0l20 119h-3q-30 -59 -72.5 -95t-110.5 -36q-81 0 -123.5 52.5t-42.5 146.5q0 61 14.5 121.5t44.5 109.5t75.5 79.5t108.5 30.5q62 0 101.5 -27t55.5 -75h3l15 90h56l-86 -516h-56zM244 38q32 0 62 12t56 38q23 24 42.5 57.5t26.5 75.5l22 129q4 26 -2.5 49.5
t-23.5 41t-44.5 27.5t-63.5 10q-39 0 -70.5 -14t-55 -38.5t-38.5 -58.5t-22 -74l-11 -63q-2 -14 -3 -25.5t-1 -22.5q0 -63 30.5 -103.5t95.5 -40.5zM254 751l53 21l65 -167l-37 -15z" />
    <glyph glyph-name="uni1EA3" unicode="&#x1ea3;" 
d="M394 0l20 119h-3q-30 -59 -72.5 -95t-110.5 -36q-81 0 -123.5 52.5t-42.5 146.5q0 61 14.5 121.5t44.5 109.5t75.5 79.5t108.5 30.5q62 0 101.5 -27t55.5 -75h3l15 90h56l-86 -516h-56zM244 38q32 0 62 12t56 38q23 24 42.5 57.5t26.5 75.5l22 129q4 26 -2.5 49.5
t-23.5 41t-44.5 27.5t-63.5 10q-39 0 -70.5 -14t-55 -38.5t-38.5 -58.5t-22 -74l-11 -63q-2 -14 -3 -25.5t-1 -22.5q0 -63 30.5 -103.5t95.5 -40.5zM282 758h114q26 0 38 -10.5t12 -27.5q0 -16 -10.5 -33.5t-35.5 -44.5l-50 -58l-33 20l82 110h-125z" />
    <glyph glyph-name="amacron" unicode="&#x101;" 
d="M394 0l20 119h-3q-30 -59 -72.5 -95t-110.5 -36q-81 0 -123.5 52.5t-42.5 146.5q0 61 14.5 121.5t44.5 109.5t75.5 79.5t108.5 30.5q62 0 101.5 -27t55.5 -75h3l15 90h56l-86 -516h-56zM244 38q32 0 62 12t56 38q23 24 42.5 57.5t26.5 75.5l22 129q4 26 -2.5 49.5
t-23.5 41t-44.5 27.5t-63.5 10q-39 0 -70.5 -14t-55 -38.5t-38.5 -58.5t-22 -74l-11 -63q-2 -14 -3 -25.5t-1 -22.5q0 -63 30.5 -103.5t95.5 -40.5zM215 698h269l-8 -48h-269z" />
    <glyph glyph-name="aogonek" unicode="&#x105;" 
d="M450 0q-39 -23 -64.5 -41t-39.5 -33t-19.5 -28.5t-5.5 -25.5q0 -20 12 -28.5t29 -8.5t32 7t27 19l28 -30q-12 -14 -35 -25t-54 -11q-36 0 -62.5 16.5t-26.5 54.5q0 36 26.5 68t96.5 66l20 119h-3q-30 -59 -72.5 -95t-110.5 -36q-81 0 -123.5 52.5t-42.5 146.5
q0 61 14.5 121.5t44.5 109.5t75.5 79.5t108.5 30.5q62 0 101.5 -27t55.5 -75h3l15 90h56zM244 38q32 0 62 12t56 38q23 24 42.5 57.5t26.5 75.5l22 129q4 26 -2.5 49.5t-23.5 41t-44.5 27.5t-63.5 10q-39 0 -70.5 -14t-55 -38.5t-38.5 -58.5t-22 -74l-11 -63
q-2 -14 -3 -25.5t-1 -22.5q0 -63 30.5 -103.5t95.5 -40.5z" />
    <glyph glyph-name="aring" unicode="&#xe5;" 
d="M394 0l20 119h-3q-30 -59 -72.5 -95t-110.5 -36q-81 0 -123.5 52.5t-42.5 146.5q0 61 14.5 121.5t44.5 109.5t75.5 79.5t108.5 30.5q62 0 101.5 -27t55.5 -75h3l15 90h56l-86 -516h-56zM244 38q32 0 62 12t56 38q23 24 42.5 57.5t26.5 75.5l22 129q4 26 -2.5 49.5
t-23.5 41t-44.5 27.5t-63.5 10q-39 0 -70.5 -14t-55 -38.5t-38.5 -58.5t-22 -74l-11 -63q-2 -14 -3 -25.5t-1 -22.5q0 -63 30.5 -103.5t95.5 -40.5zM334 586q-42 0 -67 25t-25 65q0 25 9.5 47t26 38t38 25t46.5 9q42 0 67 -25t25 -65q0 -26 -9.5 -47.5t-26 -37.5t-38 -25
t-46.5 -9zM338 622q29 0 47.5 15.5t23.5 44.5q4 19 4 30q0 22 -14.5 34.5t-40.5 12.5q-29 0 -47.5 -15.5t-23.5 -44.5q-4 -19 -4 -30q0 -22 14.5 -34.5t40.5 -12.5z" />
    <glyph glyph-name="aringacute" unicode="&#x1fb;" 
d="M394 0l20 119h-3q-30 -59 -72.5 -95t-110.5 -36q-81 0 -123.5 52.5t-42.5 146.5q0 61 14.5 121.5t44.5 109.5t75.5 79.5t108.5 30.5q62 0 101.5 -27t55.5 -75h3l15 90h56l-86 -516h-56zM244 38q32 0 62 12t56 38q23 24 42.5 57.5t26.5 75.5l22 129q4 26 -2.5 49.5
t-23.5 41t-44.5 27.5t-63.5 10q-39 0 -70.5 -14t-55 -38.5t-38.5 -58.5t-22 -74l-11 -63q-2 -14 -3 -25.5t-1 -22.5q0 -63 30.5 -103.5t95.5 -40.5zM370 812l-27 21l92 109l39 -29zM334 580q-42 0 -67 25t-25 65q0 25 9.5 47t26 38t38 25t46.5 9q42 0 67 -25t25 -65
q0 -26 -9.5 -47.5t-26 -37.5t-38 -25t-46.5 -9zM338 616q29 0 47.5 15.5t23.5 44.5q4 19 4 30q0 22 -14.5 34.5t-40.5 12.5q-29 0 -47.5 -15.5t-23.5 -44.5q-4 -19 -4 -30q0 -22 14.5 -34.5t40.5 -12.5z" />
    <glyph glyph-name="atilde" unicode="&#xe3;" 
d="M394 0l20 119h-3q-30 -59 -72.5 -95t-110.5 -36q-81 0 -123.5 52.5t-42.5 146.5q0 61 14.5 121.5t44.5 109.5t75.5 79.5t108.5 30.5q62 0 101.5 -27t55.5 -75h3l15 90h56l-86 -516h-56zM244 38q32 0 62 12t56 38q23 24 42.5 57.5t26.5 75.5l22 129q4 26 -2.5 49.5
t-23.5 41t-44.5 27.5t-63.5 10q-39 0 -70.5 -14t-55 -38.5t-38.5 -58.5t-22 -74l-11 -63q-2 -14 -3 -25.5t-1 -22.5q0 -63 30.5 -103.5t95.5 -40.5zM411 622q-23 0 -39 8.5t-35 20.5q-18 12 -33 18t-31 6q-17 0 -32.5 -8.5t-32.5 -22.5l-22 30q19 20 42.5 33.5t51.5 13.5
q23 0 39 -8.5t35 -20.5q18 -12 33 -18t31 -6q17 0 32.5 8.5t32.5 22.5l22 -30q-19 -20 -42.5 -33.5t-51.5 -13.5z" />
    <glyph glyph-name="uni1EAF" unicode="&#x1eaf;" 
d="M394 0l20 119h-3q-30 -59 -72.5 -95t-110.5 -36q-81 0 -123.5 52.5t-42.5 146.5q0 61 14.5 121.5t44.5 109.5t75.5 79.5t108.5 30.5q62 0 101.5 -27t55.5 -75h3l15 90h56l-86 -516h-56zM244 38q32 0 62 12t56 38q23 24 42.5 57.5t26.5 75.5l22 129q4 26 -2.5 49.5
t-23.5 41t-44.5 27.5t-63.5 10q-39 0 -70.5 -14t-55 -38.5t-38.5 -58.5t-22 -74l-11 -63q-2 -14 -3 -25.5t-1 -22.5q0 -63 30.5 -103.5t95.5 -40.5zM334 592q-35 0 -58 11.5t-37.5 30.5t-23 43t-14.5 50l33 17l18 -39q17 -37 35 -52.5t50 -15.5q30 0 54 14.5t54 53.5l30 39
l36 -17q-15 -27 -31.5 -51t-37.5 -43t-47.5 -30t-60.5 -11zM346 708l-33 20l120 161l47 -28z" />
    <glyph glyph-name="uni1EB7" unicode="&#x1eb7;" 
d="M394 0l20 119h-3q-30 -59 -72.5 -95t-110.5 -36q-81 0 -123.5 52.5t-42.5 146.5q0 61 14.5 121.5t44.5 109.5t75.5 79.5t108.5 30.5q62 0 101.5 -27t55.5 -75h3l15 90h56l-86 -516h-56zM244 38q32 0 62 12t56 38q23 24 42.5 57.5t26.5 75.5l22 129q4 26 -2.5 49.5
t-23.5 41t-44.5 27.5t-63.5 10q-39 0 -70.5 -14t-55 -38.5t-38.5 -58.5t-22 -74l-11 -63q-2 -14 -3 -25.5t-1 -22.5q0 -63 30.5 -103.5t95.5 -40.5zM336 601q-35 0 -57.5 12.5t-37 32.5t-23 45.5t-14.5 52.5l35 15l17 -40q16 -38 32.5 -55t48.5 -17q16 0 28.5 4t24 12.5
t24 22t27.5 33.5l31 40l36 -15q-15 -27 -30.5 -52.5t-35.5 -45.5t-46 -32.5t-60 -12.5zM217 -158q-23 0 -32 9t-9 20q0 10 3 21q4 16 14 25.5t33 9.5t32 -9t9 -20q0 -4 -0.5 -10t-2.5 -11q-4 -16 -14 -25.5t-33 -9.5z" />
    <glyph glyph-name="uni1EB1" unicode="&#x1eb1;" 
d="M394 0l20 119h-3q-30 -59 -72.5 -95t-110.5 -36q-81 0 -123.5 52.5t-42.5 146.5q0 61 14.5 121.5t44.5 109.5t75.5 79.5t108.5 30.5q62 0 101.5 -27t55.5 -75h3l15 90h56l-86 -516h-56zM244 38q32 0 62 12t56 38q23 24 42.5 57.5t26.5 75.5l22 129q4 26 -2.5 49.5
t-23.5 41t-44.5 27.5t-63.5 10q-39 0 -70.5 -14t-55 -38.5t-38.5 -58.5t-22 -74l-11 -63q-2 -14 -3 -25.5t-1 -22.5q0 -63 30.5 -103.5t95.5 -40.5zM334 592q-35 0 -58 11.5t-37.5 30.5t-23 43t-14.5 50l33 17l18 -39q17 -37 35 -52.5t50 -15.5q30 0 54 14.5t54 53.5l30 39
l36 -17q-15 -27 -31.5 -51t-37.5 -43t-47.5 -30t-60.5 -11zM260 869l51 20l65 -167l-36 -14z" />
    <glyph glyph-name="uni1EB3" unicode="&#x1eb3;" 
d="M394 0l20 119h-3q-30 -59 -72.5 -95t-110.5 -36q-81 0 -123.5 52.5t-42.5 146.5q0 61 14.5 121.5t44.5 109.5t75.5 79.5t108.5 30.5q62 0 101.5 -27t55.5 -75h3l15 90h56l-86 -516h-56zM244 38q32 0 62 12t56 38q23 24 42.5 57.5t26.5 75.5l22 129q4 26 -2.5 49.5
t-23.5 41t-44.5 27.5t-63.5 10q-39 0 -70.5 -14t-55 -38.5t-38.5 -58.5t-22 -74l-11 -63q-2 -14 -3 -25.5t-1 -22.5q0 -63 30.5 -103.5t95.5 -40.5zM334 592q-35 0 -58 11.5t-37.5 30.5t-23 43t-14.5 50l33 17l18 -39q17 -37 35 -52.5t50 -15.5q30 0 54 14.5t54 53.5l30 39
l36 -17q-15 -27 -31.5 -51t-37.5 -43t-47.5 -30t-60.5 -11zM287 877h107q26 0 38 -10.5t12 -26.5q0 -14 -8.5 -28.5t-28.5 -37.5l-60 -71l-32 20l82 110h-117z" />
    <glyph glyph-name="uni1EB5" unicode="&#x1eb5;" 
d="M394 0l20 119h-3q-30 -59 -72.5 -95t-110.5 -36q-81 0 -123.5 52.5t-42.5 146.5q0 61 14.5 121.5t44.5 109.5t75.5 79.5t108.5 30.5q62 0 101.5 -27t55.5 -75h3l15 90h56l-86 -516h-56zM244 38q32 0 62 12t56 38q23 24 42.5 57.5t26.5 75.5l22 129q4 26 -2.5 49.5
t-23.5 41t-44.5 27.5t-63.5 10q-39 0 -70.5 -14t-55 -38.5t-38.5 -58.5t-22 -74l-11 -63q-2 -14 -3 -25.5t-1 -22.5q0 -63 30.5 -103.5t95.5 -40.5zM334 592q-35 0 -58 11.5t-37.5 30.5t-23 43t-14.5 50l33 17l18 -39q17 -37 35 -52.5t50 -15.5q30 0 54 14.5t54 53.5l30 39
l36 -17q-15 -27 -31.5 -51t-37.5 -43t-47.5 -30t-60.5 -11zM427 775q-23 0 -40 7.5t-34 18.5q-20 11 -35 16.5t-29 5.5q-17 0 -32 -7.5t-32 -21.5l-22 26q20 20 42 33.5t52 13.5q23 0 40 -7.5t34 -18.5q20 -11 35 -16.5t29 -5.5q17 0 32 7.5t32 21.5l22 -26
q-20 -20 -42 -33.5t-52 -13.5z" />
    <glyph glyph-name="uni1EA5" unicode="&#x1ea5;" 
d="M394 0l20 119h-3q-30 -59 -72.5 -95t-110.5 -36q-81 0 -123.5 52.5t-42.5 146.5q0 61 14.5 121.5t44.5 109.5t75.5 79.5t108.5 30.5q62 0 101.5 -27t55.5 -75h3l15 90h56l-86 -516h-56zM244 38q32 0 62 12t56 38q23 24 42.5 57.5t26.5 75.5l22 129q4 26 -2.5 49.5
t-23.5 41t-44.5 27.5t-63.5 10q-39 0 -70.5 -14t-55 -38.5t-38.5 -58.5t-22 -74l-11 -63q-2 -14 -3 -25.5t-1 -22.5q0 -63 30.5 -103.5t95.5 -40.5zM487 708l-32 20l120 161l46 -28zM393 751l94 -142l-34 -20l-99 121l-141 -121l-29 25l139 137h70z" />
    <glyph glyph-name="uni1EAD" unicode="&#x1ead;" 
d="M394 0l20 119h-3q-30 -59 -72.5 -95t-110.5 -36q-81 0 -123.5 52.5t-42.5 146.5q0 61 14.5 121.5t44.5 109.5t75.5 79.5t108.5 30.5q62 0 101.5 -27t55.5 -75h3l15 90h56l-86 -516h-56zM244 38q32 0 62 12t56 38q23 24 42.5 57.5t26.5 75.5l22 129q4 26 -2.5 49.5
t-23.5 41t-44.5 27.5t-63.5 10q-39 0 -70.5 -14t-55 -38.5t-38.5 -58.5t-22 -74l-11 -63q-2 -14 -3 -25.5t-1 -22.5q0 -63 30.5 -103.5t95.5 -40.5zM395 760l94 -142l-34 -20l-99 121l-141 -121l-29 25l139 137h70zM217 -158q-23 0 -32 9t-9 20q0 10 3 21q4 16 14 25.5
t33 9.5t32 -9t9 -20q0 -4 -0.5 -10t-2.5 -11q-4 -16 -14 -25.5t-33 -9.5z" />
    <glyph glyph-name="uni1EA7" unicode="&#x1ea7;" 
d="M394 0l20 119h-3q-30 -59 -72.5 -95t-110.5 -36q-81 0 -123.5 52.5t-42.5 146.5q0 61 14.5 121.5t44.5 109.5t75.5 79.5t108.5 30.5q62 0 101.5 -27t55.5 -75h3l15 90h56l-86 -516h-56zM244 38q32 0 62 12t56 38q23 24 42.5 57.5t26.5 75.5l22 129q4 26 -2.5 49.5
t-23.5 41t-44.5 27.5t-63.5 10q-39 0 -70.5 -14t-55 -38.5t-38.5 -58.5t-22 -74l-11 -63q-2 -14 -3 -25.5t-1 -22.5q0 -63 30.5 -103.5t95.5 -40.5zM134 872l51 20l65 -166l-35 -15zM393 751l94 -142l-34 -20l-99 121l-141 -121l-29 25l139 137h70z" />
    <glyph glyph-name="uni1EA9" unicode="&#x1ea9;" 
d="M394 0l20 119h-3q-30 -59 -72.5 -95t-110.5 -36q-81 0 -123.5 52.5t-42.5 146.5q0 61 14.5 121.5t44.5 109.5t75.5 79.5t108.5 30.5q62 0 101.5 -27t55.5 -75h3l15 90h56l-86 -516h-56zM244 38q32 0 62 12t56 38q23 24 42.5 57.5t26.5 75.5l22 129q4 26 -2.5 49.5
t-23.5 41t-44.5 27.5t-63.5 10q-39 0 -70.5 -14t-55 -38.5t-38.5 -58.5t-22 -74l-11 -63q-2 -14 -3 -25.5t-1 -22.5q0 -63 30.5 -103.5t95.5 -40.5zM422 880h114q26 0 38 -10.5t12 -26.5q0 -14 -8.5 -28.5t-28.5 -37.5l-60 -71l-31 20l81 110h-125zM393 751l94 -142l-34 -20
l-99 121l-141 -121l-29 25l139 137h70z" />
    <glyph glyph-name="uni1EAB" unicode="&#x1eab;" 
d="M394 0l20 119h-3q-30 -59 -72.5 -95t-110.5 -36q-81 0 -123.5 52.5t-42.5 146.5q0 61 14.5 121.5t44.5 109.5t75.5 79.5t108.5 30.5q62 0 101.5 -27t55.5 -75h3l15 90h56l-86 -516h-56zM244 38q32 0 62 12t56 38q23 24 42.5 57.5t26.5 75.5l22 129q4 26 -2.5 49.5
t-23.5 41t-44.5 27.5t-63.5 10q-39 0 -70.5 -14t-55 -38.5t-38.5 -58.5t-22 -74l-11 -63q-2 -14 -3 -25.5t-1 -22.5q0 -63 30.5 -103.5t95.5 -40.5zM307 880q23 0 39 -8.5t35 -20.5q18 -12 33 -18t31 -6q17 0 32.5 8.5t32.5 22.5l22 -30q-19 -20 -42.5 -33.5t-51.5 -13.5
q-23 0 -39 8.5t-35 20.5q-18 12 -33 18t-31 6q-17 0 -32.5 -8.5t-32.5 -22.5l-22 30q19 20 42.5 33.5t51.5 13.5zM394 745l95 -137l-35 -19l-100 117l-140 -117l-29 26l139 130h70z" />
    <glyph glyph-name="aacute.alt01" 
d="M225 -12q-75 0 -117 34t-42 93q0 37 12 69t40 54.5t72.5 35.5t109.5 13h132l8 47q3 21 3 40q0 106 -118 106q-59 0 -95 -22t-64 -64l-36 31q27 43 74.5 73t123.5 30q81 0 126 -40t45 -105q0 -13 -1.5 -26.5t-3.5 -27.5l-54 -329h-55l14 85h-3q-23 -41 -65 -69t-106 -28z
M237 36q33 0 62 8.5t52.5 24t38.5 37t20 47.5l15 91h-133q-80 0 -119 -24.5t-47 -67.5q-3 -19 -3.5 -25.5t-0.5 -12.5q0 -38 30.5 -58t84.5 -20zM337 590l-34 21l119 161l49 -29z" />
    <glyph glyph-name="abreve.alt01" 
d="M225 -12q-75 0 -117 34t-42 93q0 37 12 69t40 54.5t72.5 35.5t109.5 13h132l8 47q3 21 3 40q0 106 -118 106q-59 0 -95 -22t-64 -64l-36 31q27 43 74.5 73t123.5 30q81 0 126 -40t45 -105q0 -13 -1.5 -26.5t-3.5 -27.5l-54 -329h-55l14 85h-3q-23 -41 -65 -69t-106 -28z
M237 36q33 0 62 8.5t52.5 24t38.5 37t20 47.5l15 91h-133q-80 0 -119 -24.5t-47 -67.5q-3 -19 -3.5 -25.5t-0.5 -12.5q0 -38 30.5 -58t84.5 -20zM342 601q-35 0 -57.5 12.5t-37 32.5t-23 45.5t-14.5 52.5l35 15l17 -40q16 -38 32.5 -55t48.5 -17q16 0 28.5 4t24 12.5t24 22
t27.5 33.5l31 40l36 -15q-15 -27 -30.5 -52.5t-35.5 -45.5t-46 -32.5t-60 -12.5z" />
    <glyph glyph-name="acircumflex.alt01" 
d="M225 -12q-75 0 -117 34t-42 93q0 37 12 69t40 54.5t72.5 35.5t109.5 13h132l8 47q3 21 3 40q0 106 -118 106q-59 0 -95 -22t-64 -64l-36 31q27 43 74.5 73t123.5 30q81 0 126 -40t45 -105q0 -13 -1.5 -26.5t-3.5 -27.5l-54 -329h-55l14 85h-3q-23 -41 -65 -69t-106 -28z
M237 36q33 0 62 8.5t52.5 24t38.5 37t20 47.5l15 91h-133q-80 0 -119 -24.5t-47 -67.5q-3 -19 -3.5 -25.5t-0.5 -12.5q0 -38 30.5 -58t84.5 -20zM401 760l94 -142l-34 -20l-99 121l-141 -121l-29 25l139 137h70z" />
    <glyph glyph-name="adieresis.alt01" 
d="M225 -12q-75 0 -117 34t-42 93q0 37 12 69t40 54.5t72.5 35.5t109.5 13h132l8 47q3 21 3 40q0 106 -118 106q-59 0 -95 -22t-64 -64l-36 31q27 43 74.5 73t123.5 30q81 0 126 -40t45 -105q0 -13 -1.5 -26.5t-3.5 -27.5l-54 -329h-55l14 85h-3q-23 -41 -65 -69t-106 -28z
M237 36q33 0 62 8.5t52.5 24t38.5 37t20 47.5l15 91h-133q-80 0 -119 -24.5t-47 -67.5q-3 -19 -3.5 -25.5t-0.5 -12.5q0 -38 30.5 -58t84.5 -20zM255 631q-23 0 -32.5 9t-9.5 20q0 9 3 20q4 17 14.5 26t33.5 9t32.5 -9t9.5 -20q0 -10 -3 -20q-4 -17 -14.5 -26t-33.5 -9z
M439 631q-23 0 -32.5 9t-9.5 20q0 9 3 20q4 17 14.5 26t33.5 9t32.5 -9t9.5 -20q0 -10 -3 -20q-4 -17 -14.5 -26t-33.5 -9z" />
    <glyph glyph-name="uni1EA1.alt01" 
d="M225 -12q-75 0 -117 34t-42 93q0 37 12 69t40 54.5t72.5 35.5t109.5 13h132l8 47q3 21 3 40q0 106 -118 106q-59 0 -95 -22t-64 -64l-36 31q27 43 74.5 73t123.5 30q81 0 126 -40t45 -105q0 -13 -1.5 -26.5t-3.5 -27.5l-54 -329h-55l14 85h-3q-23 -41 -65 -69t-106 -28z
M237 36q33 0 62 8.5t52.5 24t38.5 37t20 47.5l15 91h-133q-80 0 -119 -24.5t-47 -67.5q-3 -19 -3.5 -25.5t-0.5 -12.5q0 -38 30.5 -58t84.5 -20zM224 -158q-23 0 -32 9t-9 20q0 10 3 21q4 16 14 25.5t33 9.5t32 -9t9 -20q0 -4 -0.5 -10t-2.5 -11q-4 -16 -14 -25.5t-33 -9.5z
" />
    <glyph glyph-name="agrave.alt01" 
d="M225 -12q-75 0 -117 34t-42 93q0 37 12 69t40 54.5t72.5 35.5t109.5 13h132l8 47q3 21 3 40q0 106 -118 106q-59 0 -95 -22t-64 -64l-36 31q27 43 74.5 73t123.5 30q81 0 126 -40t45 -105q0 -13 -1.5 -26.5t-3.5 -27.5l-54 -329h-55l14 85h-3q-23 -41 -65 -69t-106 -28z
M237 36q33 0 62 8.5t52.5 24t38.5 37t20 47.5l15 91h-133q-80 0 -119 -24.5t-47 -67.5q-3 -19 -3.5 -25.5t-0.5 -12.5q0 -38 30.5 -58t84.5 -20zM260 751l53 21l65 -167l-37 -15z" />
    <glyph glyph-name="uni1EA3.alt01" 
d="M225 -12q-75 0 -117 34t-42 93q0 37 12 69t40 54.5t72.5 35.5t109.5 13h132l8 47q3 21 3 40q0 106 -118 106q-59 0 -95 -22t-64 -64l-36 31q27 43 74.5 73t123.5 30q81 0 126 -40t45 -105q0 -13 -1.5 -26.5t-3.5 -27.5l-54 -329h-55l14 85h-3q-23 -41 -65 -69t-106 -28z
M237 36q33 0 62 8.5t52.5 24t38.5 37t20 47.5l15 91h-133q-80 0 -119 -24.5t-47 -67.5q-3 -19 -3.5 -25.5t-0.5 -12.5q0 -38 30.5 -58t84.5 -20zM288 758h114q26 0 38 -10.5t12 -27.5q0 -16 -10.5 -33.5t-35.5 -44.5l-50 -58l-33 20l82 110h-125z" />
    <glyph glyph-name="amacron.alt01" 
d="M225 -12q-75 0 -117 34t-42 93q0 37 12 69t40 54.5t72.5 35.5t109.5 13h132l8 47q3 21 3 40q0 106 -118 106q-59 0 -95 -22t-64 -64l-36 31q27 43 74.5 73t123.5 30q81 0 126 -40t45 -105q0 -13 -1.5 -26.5t-3.5 -27.5l-54 -329h-55l14 85h-3q-23 -41 -65 -69t-106 -28z
M237 36q33 0 62 8.5t52.5 24t38.5 37t20 47.5l15 91h-133q-80 0 -119 -24.5t-47 -67.5q-3 -19 -3.5 -25.5t-0.5 -12.5q0 -38 30.5 -58t84.5 -20zM221 698h269l-8 -48h-269z" />
    <glyph glyph-name="aogonek.alt01" 
d="M350 -205q-36 0 -62.5 16.5t-26.5 54.5q0 36 26.5 68t96.5 66l15 85h-3q-23 -41 -65 -69t-106 -28q-75 0 -117 34t-42 93q0 37 12 69t40 54.5t72.5 35.5t109.5 13h132l8 47q3 21 3 40q0 106 -118 106q-59 0 -95 -22t-64 -64l-36 31q27 43 74.5 73t123.5 30q81 0 126 -40
t45 -105q0 -13 -1.5 -26.5t-3.5 -27.5l-54 -329q-39 -23 -64.5 -41t-39.5 -33t-19.5 -28.5t-5.5 -25.5q0 -20 12 -28.5t29 -8.5t32 7t27 19l28 -30q-12 -14 -35 -25t-54 -11zM237 36q33 0 62 8.5t52.5 24t38.5 37t20 47.5l15 91h-133q-80 0 -119.5 -24.5t-46.5 -67.5
q-3 -19 -3.5 -25.5t-0.5 -12.5q0 -38 30.5 -58t84.5 -20z" />
    <glyph glyph-name="aring.alt01" 
d="M225 -12q-75 0 -117 34t-42 93q0 37 12 69t40 54.5t72.5 35.5t109.5 13h132l8 47q3 21 3 40q0 106 -118 106q-59 0 -95 -22t-64 -64l-36 31q27 43 74.5 73t123.5 30q81 0 126 -40t45 -105q0 -13 -1.5 -26.5t-3.5 -27.5l-54 -329h-55l14 85h-3q-23 -41 -65 -69t-106 -28z
M237 36q33 0 62 8.5t52.5 24t38.5 37t20 47.5l15 91h-133q-80 0 -119 -24.5t-47 -67.5q-3 -19 -3.5 -25.5t-0.5 -12.5q0 -38 30.5 -58t84.5 -20zM340 586q-42 0 -67 25t-25 65q0 25 9.5 47t26 38t38 25t46.5 9q42 0 67 -25t25 -65q0 -26 -9.5 -47.5t-26 -37.5t-38 -25
t-46.5 -9zM344 622q29 0 47.5 15.5t23.5 44.5q4 19 4 30q0 22 -14.5 34.5t-40.5 12.5q-29 0 -47.5 -15.5t-23.5 -44.5q-4 -19 -4 -30q0 -22 14.5 -34.5t40.5 -12.5z" />
    <glyph glyph-name="aringacute.alt01" 
d="M225 -12q-75 0 -117 34t-42 93q0 37 12 69t40 54.5t72.5 35.5t109.5 13h132l8 47q3 21 3 40q0 106 -118 106q-59 0 -95 -22t-64 -64l-36 31q27 43 74.5 73t123.5 30q81 0 126 -40t45 -105q0 -13 -1.5 -26.5t-3.5 -27.5l-54 -329h-55l14 85h-3q-23 -41 -65 -69t-106 -28z
M237 36q33 0 62 8.5t52.5 24t38.5 37t20 47.5l15 91h-133q-80 0 -119 -24.5t-47 -67.5q-3 -19 -3.5 -25.5t-0.5 -12.5q0 -38 30.5 -58t84.5 -20zM376 812l-27 21l92 109l39 -29zM340 580q-42 0 -67 25t-25 65q0 25 9.5 47t26 38t38 25t46.5 9q42 0 67 -25t25 -65
q0 -26 -9.5 -47.5t-26 -37.5t-38 -25t-46.5 -9zM344 616q29 0 47.5 15.5t23.5 44.5q4 19 4 30q0 22 -14.5 34.5t-40.5 12.5q-29 0 -47.5 -15.5t-23.5 -44.5q-4 -19 -4 -30q0 -22 14.5 -34.5t40.5 -12.5z" />
    <glyph glyph-name="atilde.alt01" 
d="M225 -12q-75 0 -117 34t-42 93q0 37 12 69t40 54.5t72.5 35.5t109.5 13h132l8 47q3 21 3 40q0 106 -118 106q-59 0 -95 -22t-64 -64l-36 31q27 43 74.5 73t123.5 30q81 0 126 -40t45 -105q0 -13 -1.5 -26.5t-3.5 -27.5l-54 -329h-55l14 85h-3q-23 -41 -65 -69t-106 -28z
M237 36q33 0 62 8.5t52.5 24t38.5 37t20 47.5l15 91h-133q-80 0 -119 -24.5t-47 -67.5q-3 -19 -3.5 -25.5t-0.5 -12.5q0 -38 30.5 -58t84.5 -20zM417 622q-23 0 -39 8.5t-35 20.5q-18 12 -33 18t-31 6q-17 0 -32.5 -8.5t-32.5 -22.5l-22 30q19 20 42.5 33.5t51.5 13.5
q23 0 39 -8.5t35 -20.5q18 -12 33 -18t31 -6q17 0 32.5 8.5t32.5 22.5l22 -30q-19 -20 -42.5 -33.5t-51.5 -13.5z" />
    <glyph glyph-name="uni1EAF.alt01" 
d="M225 -12q-75 0 -117 34t-42 93q0 37 12 69t40 54.5t72.5 35.5t109.5 13h132l8 47q3 21 3 40q0 106 -118 106q-59 0 -95 -22t-64 -64l-36 31q27 43 74.5 73t123.5 30q81 0 126 -40t45 -105q0 -13 -1.5 -26.5t-3.5 -27.5l-54 -329h-55l14 85h-3q-23 -41 -65 -69t-106 -28z
M237 36q33 0 62 8.5t52.5 24t38.5 37t20 47.5l15 91h-133q-80 0 -119 -24.5t-47 -67.5q-3 -19 -3.5 -25.5t-0.5 -12.5q0 -38 30.5 -58t84.5 -20zM340 592q-35 0 -58 11.5t-37.5 30.5t-23 43t-14.5 50l33 17l18 -39q17 -37 35 -52.5t50 -15.5q30 0 54 14.5t54 53.5l30 39
l36 -17q-15 -27 -31.5 -51t-37.5 -43t-47.5 -30t-60.5 -11zM352 708l-33 20l120 161l47 -28z" />
    <glyph glyph-name="uni1EB7.alt01" 
d="M225 -12q-75 0 -117 34t-42 93q0 37 12 69t40 54.5t72.5 35.5t109.5 13h132l8 47q3 21 3 40q0 106 -118 106q-59 0 -95 -22t-64 -64l-36 31q27 43 74.5 73t123.5 30q81 0 126 -40t45 -105q0 -13 -1.5 -26.5t-3.5 -27.5l-54 -329h-55l14 85h-3q-23 -41 -65 -69t-106 -28z
M237 36q33 0 62 8.5t52.5 24t38.5 37t20 47.5l15 91h-133q-80 0 -119 -24.5t-47 -67.5q-3 -19 -3.5 -25.5t-0.5 -12.5q0 -38 30.5 -58t84.5 -20zM342 601q-35 0 -57.5 12.5t-37 32.5t-23 45.5t-14.5 52.5l35 15l17 -40q16 -38 32.5 -55t48.5 -17q16 0 28.5 4t24 12.5t24 22
t27.5 33.5l31 40l36 -15q-15 -27 -30.5 -52.5t-35.5 -45.5t-46 -32.5t-60 -12.5zM224 -158q-23 0 -32 9t-9 20q0 10 3 21q4 16 14 25.5t33 9.5t32 -9t9 -20q0 -4 -0.5 -10t-2.5 -11q-4 -16 -14 -25.5t-33 -9.5z" />
    <glyph glyph-name="uni1EB1.alt01" 
d="M225 -12q-75 0 -117 34t-42 93q0 37 12 69t40 54.5t72.5 35.5t109.5 13h132l8 47q3 21 3 40q0 106 -118 106q-59 0 -95 -22t-64 -64l-36 31q27 43 74.5 73t123.5 30q81 0 126 -40t45 -105q0 -13 -1.5 -26.5t-3.5 -27.5l-54 -329h-55l14 85h-3q-23 -41 -65 -69t-106 -28z
M237 36q33 0 62 8.5t52.5 24t38.5 37t20 47.5l15 91h-133q-80 0 -119 -24.5t-47 -67.5q-3 -19 -3.5 -25.5t-0.5 -12.5q0 -38 30.5 -58t84.5 -20zM340 592q-35 0 -58 11.5t-37.5 30.5t-23 43t-14.5 50l33 17l18 -39q17 -37 35 -52.5t50 -15.5q30 0 54 14.5t54 53.5l30 39
l36 -17q-15 -27 -31.5 -51t-37.5 -43t-47.5 -30t-60.5 -11zM266 869l51 20l65 -167l-36 -14z" />
    <glyph glyph-name="uni1EB3.alt01" 
d="M225 -12q-75 0 -117 34t-42 93q0 37 12 69t40 54.5t72.5 35.5t109.5 13h132l8 47q3 21 3 40q0 106 -118 106q-59 0 -95 -22t-64 -64l-36 31q27 43 74.5 73t123.5 30q81 0 126 -40t45 -105q0 -13 -1.5 -26.5t-3.5 -27.5l-54 -329h-55l14 85h-3q-23 -41 -65 -69t-106 -28z
M237 36q33 0 62 8.5t52.5 24t38.5 37t20 47.5l15 91h-133q-80 0 -119 -24.5t-47 -67.5q-3 -19 -3.5 -25.5t-0.5 -12.5q0 -38 30.5 -58t84.5 -20zM340 592q-35 0 -58 11.5t-37.5 30.5t-23 43t-14.5 50l33 17l18 -39q17 -37 35 -52.5t50 -15.5q30 0 54 14.5t54 53.5l30 39
l36 -17q-15 -27 -31.5 -51t-37.5 -43t-47.5 -30t-60.5 -11zM293 877h107q26 0 38 -10.5t12 -26.5q0 -14 -8.5 -28.5t-28.5 -37.5l-60 -71l-32 20l82 110h-117z" />
    <glyph glyph-name="uni1EB5.alt01" 
d="M225 -12q-75 0 -117 34t-42 93q0 37 12 69t40 54.5t72.5 35.5t109.5 13h132l8 47q3 21 3 40q0 106 -118 106q-59 0 -95 -22t-64 -64l-36 31q27 43 74.5 73t123.5 30q81 0 126 -40t45 -105q0 -13 -1.5 -26.5t-3.5 -27.5l-54 -329h-55l14 85h-3q-23 -41 -65 -69t-106 -28z
M237 36q33 0 62 8.5t52.5 24t38.5 37t20 47.5l15 91h-133q-80 0 -119 -24.5t-47 -67.5q-3 -19 -3.5 -25.5t-0.5 -12.5q0 -38 30.5 -58t84.5 -20zM340 592q-35 0 -58 11.5t-37.5 30.5t-23 43t-14.5 50l33 17l18 -39q17 -37 35 -52.5t50 -15.5q30 0 54 14.5t54 53.5l30 39
l36 -17q-15 -27 -31.5 -51t-37.5 -43t-47.5 -30t-60.5 -11zM433 775q-23 0 -40 7.5t-34 18.5q-20 11 -35 16.5t-29 5.5q-17 0 -32 -7.5t-32 -21.5l-22 26q20 20 42 33.5t52 13.5q23 0 40 -7.5t34 -18.5q20 -11 35 -16.5t29 -5.5q17 0 32 7.5t32 21.5l22 -26
q-20 -20 -42 -33.5t-52 -13.5z" />
    <glyph glyph-name="uni1EA5.alt01" 
d="M225 -12q-75 0 -117 34t-42 93q0 37 12 69t40 54.5t72.5 35.5t109.5 13h132l8 47q3 21 3 40q0 106 -118 106q-59 0 -95 -22t-64 -64l-36 31q27 43 74.5 73t123.5 30q81 0 126 -40t45 -105q0 -13 -1.5 -26.5t-3.5 -27.5l-54 -329h-55l14 85h-3q-23 -41 -65 -69t-106 -28z
M237 36q33 0 62 8.5t52.5 24t38.5 37t20 47.5l15 91h-133q-80 0 -119 -24.5t-47 -67.5q-3 -19 -3.5 -25.5t-0.5 -12.5q0 -38 30.5 -58t84.5 -20zM493 708l-32 20l120 161l46 -28zM399 751l94 -142l-34 -20l-99 121l-141 -121l-29 25l139 137h70z" />
    <glyph glyph-name="uni1EAD.alt01" 
d="M225 -12q-75 0 -117 34t-42 93q0 37 12 69t40 54.5t72.5 35.5t109.5 13h132l8 47q3 21 3 40q0 106 -118 106q-59 0 -95 -22t-64 -64l-36 31q27 43 74.5 73t123.5 30q81 0 126 -40t45 -105q0 -13 -1.5 -26.5t-3.5 -27.5l-54 -329h-55l14 85h-3q-23 -41 -65 -69t-106 -28z
M237 36q33 0 62 8.5t52.5 24t38.5 37t20 47.5l15 91h-133q-80 0 -119 -24.5t-47 -67.5q-3 -19 -3.5 -25.5t-0.5 -12.5q0 -38 30.5 -58t84.5 -20zM401 760l94 -142l-34 -20l-99 121l-141 -121l-29 25l139 137h70zM224 -158q-23 0 -32 9t-9 20q0 10 3 21q4 16 14 25.5t33 9.5
t32 -9t9 -20q0 -4 -0.5 -10t-2.5 -11q-4 -16 -14 -25.5t-33 -9.5z" />
    <glyph glyph-name="uni1EA7.alt01" 
d="M225 -12q-75 0 -117 34t-42 93q0 37 12 69t40 54.5t72.5 35.5t109.5 13h132l8 47q3 21 3 40q0 106 -118 106q-59 0 -95 -22t-64 -64l-36 31q27 43 74.5 73t123.5 30q81 0 126 -40t45 -105q0 -13 -1.5 -26.5t-3.5 -27.5l-54 -329h-55l14 85h-3q-23 -41 -65 -69t-106 -28z
M237 36q33 0 62 8.5t52.5 24t38.5 37t20 47.5l15 91h-133q-80 0 -119 -24.5t-47 -67.5q-3 -19 -3.5 -25.5t-0.5 -12.5q0 -38 30.5 -58t84.5 -20zM140 872l51 20l65 -166l-35 -15zM399 751l94 -142l-34 -20l-99 121l-141 -121l-29 25l139 137h70z" />
    <glyph glyph-name="uni1EA9.alt01" 
d="M225 -12q-75 0 -117 34t-42 93q0 37 12 69t40 54.5t72.5 35.5t109.5 13h132l8 47q3 21 3 40q0 106 -118 106q-59 0 -95 -22t-64 -64l-36 31q27 43 74.5 73t123.5 30q81 0 126 -40t45 -105q0 -13 -1.5 -26.5t-3.5 -27.5l-54 -329h-55l14 85h-3q-23 -41 -65 -69t-106 -28z
M237 36q33 0 62 8.5t52.5 24t38.5 37t20 47.5l15 91h-133q-80 0 -119 -24.5t-47 -67.5q-3 -19 -3.5 -25.5t-0.5 -12.5q0 -38 30.5 -58t84.5 -20zM428 880h114q26 0 38 -10.5t12 -26.5q0 -14 -8.5 -28.5t-28.5 -37.5l-60 -71l-31 20l81 110h-125zM399 751l94 -142l-34 -20
l-99 121l-141 -121l-29 25l139 137h70z" />
    <glyph glyph-name="uni1EAB.alt01" 
d="M225 -12q-75 0 -117 34t-42 93q0 37 12 69t40 54.5t72.5 35.5t109.5 13h132l8 47q3 21 3 40q0 106 -118 106q-59 0 -95 -22t-64 -64l-36 31q27 43 74.5 73t123.5 30q81 0 126 -40t45 -105q0 -13 -1.5 -26.5t-3.5 -27.5l-54 -329h-55l14 85h-3q-23 -41 -65 -69t-106 -28z
M237 36q33 0 62 8.5t52.5 24t38.5 37t20 47.5l15 91h-133q-80 0 -119 -24.5t-47 -67.5q-3 -19 -3.5 -25.5t-0.5 -12.5q0 -38 30.5 -58t84.5 -20zM313 880q23 0 39 -8.5t35 -20.5q18 -12 33 -18t31 -6q17 0 32.5 8.5t32.5 22.5l22 -30q-19 -20 -42.5 -33.5t-51.5 -13.5
q-23 0 -39 8.5t-35 20.5q-18 12 -33 18t-31 6q-17 0 -32.5 -8.5t-32.5 -22.5l-22 30q19 20 42.5 33.5t51.5 13.5zM400 745l95 -137l-35 -19l-100 117l-140 -117l-29 26l139 130h70z" />
    <glyph glyph-name="ae" unicode="&#xe6;" 
d="M118 -12q-53 0 -84.5 30.5t-31.5 87.5q-1 81 53 122.5t153 46.5l69 4l12 72q2 13 3 24t1 19q0 48 -21.5 69.5t-60.5 21.5q-43 0 -70.5 -21.5t-50.5 -59.5l-35 24q23 42 62.5 71t96.5 29q61 0 89 -31t27 -77h4q50 108 147 108q51 0 81.5 -30.5t30.5 -82.5q0 -36 -14 -67
t-46 -54t-83.5 -37t-127.5 -16l-3 -19q-3 -18 -4.5 -35t-1.5 -31q0 -63 22 -93t62 -30q42 0 69.5 28t49.5 73l40 -20q-11 -24 -26.5 -47t-35.5 -40.5t-45 -28t-55 -10.5q-53 0 -86 33.5t-36 98.5h-5q-16 -61 -52 -96.5t-97 -35.5zM129 31q25 0 46.5 9.5t38 26.5t27.5 39.5
t15 48.5l14 84l-61 -3q-34 -2 -60.5 -7t-45.5 -16.5t-31 -29.5t-17 -46q-3 -14 -3.5 -21.5t-0.5 -12.5q0 -34 20 -53t58 -19zM477 485q-28 0 -52.5 -14t-43 -39t-31.5 -59.5t-19 -75.5l-3 -17q117 3 167 38t50 95q0 34 -18 53t-50 19z" />
    <glyph glyph-name="aeacute" unicode="&#x1fd;" 
d="M118 -12q-53 0 -84.5 30.5t-31.5 87.5q-1 81 53 122.5t153 46.5l69 4l12 72q2 13 3 24t1 19q0 48 -21.5 69.5t-60.5 21.5q-43 0 -70.5 -21.5t-50.5 -59.5l-35 24q23 42 62.5 71t96.5 29q61 0 89 -31t27 -77h4q50 108 147 108q51 0 81.5 -30.5t30.5 -82.5q0 -36 -14 -67
t-46 -54t-83.5 -37t-127.5 -16l-3 -19q-3 -18 -4.5 -35t-1.5 -31q0 -63 22 -93t62 -30q42 0 69.5 28t49.5 73l40 -20q-11 -24 -26.5 -47t-35.5 -40.5t-45 -28t-55 -10.5q-53 0 -86 33.5t-36 98.5h-5q-16 -61 -52 -96.5t-97 -35.5zM129 31q25 0 46.5 9.5t38 26.5t27.5 39.5
t15 48.5l14 84l-61 -3q-34 -2 -60.5 -7t-45.5 -16.5t-31 -29.5t-17 -46q-3 -14 -3.5 -21.5t-0.5 -12.5q0 -34 20 -53t58 -19zM477 485q-28 0 -52.5 -14t-43 -39t-31.5 -59.5t-19 -75.5l-3 -17q117 3 167 38t50 95q0 34 -18 53t-50 19zM367 590l-34 21l119 161l49 -29z" />
    <glyph glyph-name="cacute" unicode="&#x107;" 
d="M268 -12q-47 0 -82.5 16t-59.5 44.5t-36 68t-12 87.5q0 75 20 135t55.5 102t83 64.5t102.5 22.5q74 0 116 -34.5t55 -85.5l-48 -18q-14 48 -46.5 68.5t-82.5 20.5q-74 0 -122.5 -47.5t-62.5 -134.5l-9 -56q-3 -17 -4 -27.5t-1 -22.5q0 -72 36 -113t104 -41q23 0 44.5 6
t43.5 21t45 40.5t49 63.5l41 -23q-23 -37 -47 -66t-51.5 -49.5t-59.5 -31t-71 -10.5zM345 590l-34 21l119 161l49 -29z" />
    <glyph glyph-name="ccaron" unicode="&#x10d;" 
d="M268 -12q-47 0 -82.5 16t-59.5 44.5t-36 68t-12 87.5q0 75 20 135t55.5 102t83 64.5t102.5 22.5q74 0 116 -34.5t55 -85.5l-48 -18q-14 48 -46.5 68.5t-82.5 20.5q-74 0 -122.5 -47.5t-62.5 -134.5l-9 -56q-3 -17 -4 -27.5t-1 -22.5q0 -72 36 -113t104 -41q23 0 44.5 6
t43.5 21t45 40.5t49 63.5l41 -23q-23 -37 -47 -66t-51.5 -49.5t-59.5 -31t-71 -10.5zM314 604l-95 142l34 21l99 -121l142 121l28 -25l-139 -138h-69z" />
    <glyph glyph-name="ccedilla" unicode="&#xe7;" 
d="M339 528q74 0 116 -34.5t55 -85.5l-48 -18q-14 48 -46.5 68.5t-82.5 20.5q-74 0 -122.5 -47.5t-62.5 -134.5l-9 -56q-3 -17 -4 -27.5t-1 -22.5q0 -72 36 -113t104 -41q23 0 44.5 6t43.5 21t45 40.5t49 63.5l41 -23q-44 -72 -94 -112.5t-122 -43.5h-3l-21 -55l2 -2
q9 2 18.5 2.5t15.5 0.5q28 0 43.5 -14.5t15.5 -42.5q0 -41 -30.5 -62t-75.5 -21q-35 0 -57 11.5t-32 25.5l30 30q9 -12 23 -19.5t36 -7.5q26 0 42 11.5t16 31.5q0 13 -11 24.5t-46 15.5l-33 3l26 69q-80 9 -121 67.5t-41 146.5q0 75 20 135t55.5 102t83 64.5t102.5 22.5z
" />
    <glyph glyph-name="ccircumflex" unicode="&#x109;" 
d="M268 -12q-47 0 -82.5 16t-59.5 44.5t-36 68t-12 87.5q0 75 20 135t55.5 102t83 64.5t102.5 22.5q74 0 116 -34.5t55 -85.5l-48 -18q-14 48 -46.5 68.5t-82.5 20.5q-74 0 -122.5 -47.5t-62.5 -134.5l-9 -56q-3 -17 -4 -27.5t-1 -22.5q0 -72 36 -113t104 -41q23 0 44.5 6
t43.5 21t45 40.5t49 63.5l41 -23q-23 -37 -47 -66t-51.5 -49.5t-59.5 -31t-71 -10.5zM409 760l94 -142l-34 -20l-99 121l-141 -121l-29 25l139 137h70z" />
    <glyph glyph-name="cdotaccent" unicode="&#x10b;" 
d="M268 -12q-47 0 -82.5 16t-59.5 44.5t-36 68t-12 87.5q0 75 20 135t55.5 102t83 64.5t102.5 22.5q74 0 116 -34.5t55 -85.5l-48 -18q-14 48 -46.5 68.5t-82.5 20.5q-74 0 -122.5 -47.5t-62.5 -134.5l-9 -56q-3 -17 -4 -27.5t-1 -22.5q0 -72 36 -113t104 -41q23 0 44.5 6
t43.5 21t45 40.5t49 63.5l41 -23q-23 -37 -47 -66t-51.5 -49.5t-59.5 -31t-71 -10.5zM356 626q-26 0 -36 10t-10 22q0 5 1 11.5t2 11.5q3 17 14.5 27.5t36.5 10.5q26 0 36 -10t10 -22q0 -5 -1 -11.5t-2 -11.5q-3 -17 -14.5 -27.5t-36.5 -10.5z" />
    <glyph glyph-name="dcaron" unicode="&#x10f;" 
d="M215 -12q-78 0 -120.5 52.5t-42.5 146.5q0 60 14 121t43.5 110t74 79.5t106.5 30.5q60 0 99 -26.5t54 -74.5h3l52 313h56l-123 -740h-56l20 119h-3q-29 -59 -70 -95t-107 -36zM231 38q29 0 58 11t56 40q22 23 41 57t26 76l22 128q9 54 -26 91t-104 37q-38 0 -68.5 -13.5
t-53.5 -38.5t-38 -59t-21 -74l-11 -63q-4 -23 -4 -47q0 -64 30 -104.5t93 -40.5zM633 740h72l-70 -183h-42z" />
    <glyph glyph-name="dcroat" unicode="&#x111;" 
d="M414 119h-3q-30 -59 -72.5 -95t-110.5 -36q-81 0 -123.5 52.5t-42.5 146.5q0 61 14.5 121.5t44.5 109.5t75.5 79.5t108.5 30.5q62 0 101.5 -27t55.5 -75h3l32 194h-157l7 43h157l13 77h56l-13 -77h68l-8 -43h-67l-103 -620h-56zM244 38q32 0 62 12t56 38q23 24 42.5 57.5
t26.5 75.5l22 129q4 26 -2.5 49.5t-23.5 41t-44.5 27.5t-63.5 10q-39 0 -70.5 -13.5t-55 -38.5t-38.5 -59t-22 -74l-11 -63q-2 -14 -3 -25.5t-1 -22.5q0 -63 30.5 -103.5t95.5 -40.5z" />
    <glyph glyph-name="eth" unicode="&#xf0;" 
d="M416 650q22 -27 42.5 -59.5t36 -72t24.5 -85.5t9 -100q0 -81 -19 -145t-54 -108.5t-85.5 -68t-113.5 -23.5q-43 0 -78 14.5t-59.5 41t-38 64t-13.5 83.5q0 68 19 126t53 100t80.5 65.5t101.5 23.5q51 0 91 -24.5t58 -66.5l4 2q-10 54 -36 106.5t-65 99.5l-108 -68l-23 33
l103 65q-25 25 -53.5 46.5t-60.5 40.5h89q15 -11 33 -26t36 -34l109 70l23 -34zM265 37q72 0 124 44.5t68 131.5l9 50q3 17 3.5 30t0.5 23q0 69 -38.5 105t-102.5 36q-72 0 -124 -44.5t-68 -131.5l-9 -50q-3 -17 -3.5 -30t-0.5 -23q0 -69 38.5 -105t102.5 -36z" />
    <glyph glyph-name="eacute" unicode="&#xe9;" 
d="M275 -12q-96 0 -147 55.5t-51 166.5q0 68 20 126t56.5 101t87 67t111.5 24q76 0 122.5 -34.5t46.5 -98.5q0 -26 -12.5 -55t-52.5 -54t-116.5 -43t-203.5 -21q-1 -8 -1 -15v-9q0 -33 6.5 -62t23 -51.5t44.5 -35.5t71 -13q60 0 102 31t81 95l41 -25q-43 -75 -97 -112
t-132 -37zM346 481q-79 0 -134 -51.5t-69 -148.5l-3 -18q104 3 167.5 15t98.5 30.5t46.5 40.5t11.5 44q0 37 -27 62.5t-91 25.5zM360 590l-34 21l119 161l49 -29z" />
    <glyph glyph-name="ebreve" unicode="&#x115;" 
d="M275 -12q-96 0 -147 55.5t-51 166.5q0 68 20 126t56.5 101t87 67t111.5 24q76 0 122.5 -34.5t46.5 -98.5q0 -26 -12.5 -55t-52.5 -54t-116.5 -43t-203.5 -21q-1 -8 -1 -15v-9q0 -33 6.5 -62t23 -51.5t44.5 -35.5t71 -13q60 0 102 31t81 95l41 -25q-43 -75 -97 -112
t-132 -37zM346 481q-79 0 -134 -51.5t-69 -148.5l-3 -18q104 3 167.5 15t98.5 30.5t46.5 40.5t11.5 44q0 37 -27 62.5t-91 25.5zM365 601q-35 0 -57.5 12.5t-37 32.5t-23 45.5t-14.5 52.5l35 15l17 -40q16 -38 32.5 -55t48.5 -17q16 0 28.5 4t24 12.5t24 22t27.5 33.5l31 40
l36 -15q-15 -27 -30.5 -52.5t-35.5 -45.5t-46 -32.5t-60 -12.5z" />
    <glyph glyph-name="ecaron" unicode="&#x11b;" 
d="M275 -12q-96 0 -147 55.5t-51 166.5q0 68 20 126t56.5 101t87 67t111.5 24q76 0 122.5 -34.5t46.5 -98.5q0 -26 -12.5 -55t-52.5 -54t-116.5 -43t-203.5 -21q-1 -8 -1 -15v-9q0 -33 6.5 -62t23 -51.5t44.5 -35.5t71 -13q60 0 102 31t81 95l41 -25q-43 -75 -97 -112
t-132 -37zM346 481q-79 0 -134 -51.5t-69 -148.5l-3 -18q104 3 167.5 15t98.5 30.5t46.5 40.5t11.5 44q0 37 -27 62.5t-91 25.5zM329 604l-95 142l34 21l99 -121l142 121l28 -25l-139 -138h-69z" />
    <glyph glyph-name="ecircumflex" unicode="&#xea;" 
d="M275 -12q-96 0 -147 55.5t-51 166.5q0 68 20 126t56.5 101t87 67t111.5 24q76 0 122.5 -34.5t46.5 -98.5q0 -26 -12.5 -55t-52.5 -54t-116.5 -43t-203.5 -21q-1 -8 -1 -15v-9q0 -33 6.5 -62t23 -51.5t44.5 -35.5t71 -13q60 0 102 31t81 95l41 -25q-43 -75 -97 -112
t-132 -37zM346 481q-79 0 -134 -51.5t-69 -148.5l-3 -18q104 3 167.5 15t98.5 30.5t46.5 40.5t11.5 44q0 37 -27 62.5t-91 25.5zM424 760l94 -142l-34 -20l-99 121l-141 -121l-29 25l139 137h70z" />
    <glyph glyph-name="edieresis" unicode="&#xeb;" 
d="M275 -12q-96 0 -147 55.5t-51 166.5q0 68 20 126t56.5 101t87 67t111.5 24q76 0 122.5 -34.5t46.5 -98.5q0 -26 -12.5 -55t-52.5 -54t-116.5 -43t-203.5 -21q-1 -8 -1 -15v-9q0 -33 6.5 -62t23 -51.5t44.5 -35.5t71 -13q60 0 102 31t81 95l41 -25q-43 -75 -97 -112
t-132 -37zM346 481q-79 0 -134 -51.5t-69 -148.5l-3 -18q104 3 167.5 15t98.5 30.5t46.5 40.5t11.5 44q0 37 -27 62.5t-91 25.5zM278 631q-23 0 -32.5 9t-9.5 20q0 9 3 20q4 17 14.5 26t33.5 9t32.5 -9t9.5 -20q0 -10 -3 -20q-4 -17 -14.5 -26t-33.5 -9zM462 631
q-23 0 -32.5 9t-9.5 20q0 9 3 20q4 17 14.5 26t33.5 9t32.5 -9t9.5 -20q0 -10 -3 -20q-4 -17 -14.5 -26t-33.5 -9z" />
    <glyph glyph-name="edotaccent" unicode="&#x117;" 
d="M275 -12q-96 0 -147 55.5t-51 166.5q0 68 20 126t56.5 101t87 67t111.5 24q76 0 122.5 -34.5t46.5 -98.5q0 -26 -12.5 -55t-52.5 -54t-116.5 -43t-203.5 -21q-1 -8 -1 -15v-9q0 -33 6.5 -62t23 -51.5t44.5 -35.5t71 -13q60 0 102 31t81 95l41 -25q-43 -75 -97 -112
t-132 -37zM346 481q-79 0 -134 -51.5t-69 -148.5l-3 -18q104 3 167.5 15t98.5 30.5t46.5 40.5t11.5 44q0 37 -27 62.5t-91 25.5zM371 626q-26 0 -36 10t-10 22q0 5 1 11.5t2 11.5q3 17 14.5 27.5t36.5 10.5q26 0 36 -10t10 -22q0 -5 -1 -11.5t-2 -11.5q-3 -17 -14.5 -27.5
t-36.5 -10.5z" />
    <glyph glyph-name="uni1EB9" unicode="&#x1eb9;" 
d="M275 -12q-96 0 -147 55.5t-51 166.5q0 68 20 126t56.5 101t87 67t111.5 24q76 0 122.5 -34.5t46.5 -98.5q0 -26 -12.5 -55t-52.5 -54t-116.5 -43t-203.5 -21q-1 -8 -1 -15v-9q0 -33 6.5 -62t23 -51.5t44.5 -35.5t71 -13q60 0 102 31t81 95l41 -25q-43 -75 -97 -112
t-132 -37zM346 481q-79 0 -134 -51.5t-69 -148.5l-3 -18q104 3 167.5 15t98.5 30.5t46.5 40.5t11.5 44q0 37 -27 62.5t-91 25.5zM254 -158q-23 0 -32 9t-9 20q0 10 3 21q4 16 14 25.5t33 9.5t32 -9t9 -20q0 -4 -0.5 -10t-2.5 -11q-4 -16 -14 -25.5t-33 -9.5z" />
    <glyph glyph-name="egrave" unicode="&#xe8;" 
d="M275 -12q-96 0 -147 55.5t-51 166.5q0 68 20 126t56.5 101t87 67t111.5 24q76 0 122.5 -34.5t46.5 -98.5q0 -26 -12.5 -55t-52.5 -54t-116.5 -43t-203.5 -21q-1 -8 -1 -15v-9q0 -33 6.5 -62t23 -51.5t44.5 -35.5t71 -13q60 0 102 31t81 95l41 -25q-43 -75 -97 -112
t-132 -37zM346 481q-79 0 -134 -51.5t-69 -148.5l-3 -18q104 3 167.5 15t98.5 30.5t46.5 40.5t11.5 44q0 37 -27 62.5t-91 25.5zM283 751l53 21l65 -167l-37 -15z" />
    <glyph glyph-name="uni1EBB" unicode="&#x1ebb;" 
d="M275 -12q-96 0 -147 55.5t-51 166.5q0 68 20 126t56.5 101t87 67t111.5 24q76 0 122.5 -34.5t46.5 -98.5q0 -26 -12.5 -55t-52.5 -54t-116.5 -43t-203.5 -21q-1 -8 -1 -15v-9q0 -33 6.5 -62t23 -51.5t44.5 -35.5t71 -13q60 0 102 31t81 95l41 -25q-43 -75 -97 -112
t-132 -37zM346 481q-79 0 -134 -51.5t-69 -148.5l-3 -18q104 3 167.5 15t98.5 30.5t46.5 40.5t11.5 44q0 37 -27 62.5t-91 25.5zM311 758h114q26 0 38 -10.5t12 -27.5q0 -16 -10.5 -33.5t-35.5 -44.5l-50 -58l-33 20l82 110h-125z" />
    <glyph glyph-name="emacron" unicode="&#x113;" 
d="M275 -12q-96 0 -147 55.5t-51 166.5q0 68 20 126t56.5 101t87 67t111.5 24q76 0 122.5 -34.5t46.5 -98.5q0 -26 -12.5 -55t-52.5 -54t-116.5 -43t-203.5 -21q-1 -8 -1 -15v-9q0 -33 6.5 -62t23 -51.5t44.5 -35.5t71 -13q60 0 102 31t81 95l41 -25q-43 -75 -97 -112
t-132 -37zM346 481q-79 0 -134 -51.5t-69 -148.5l-3 -18q104 3 167.5 15t98.5 30.5t46.5 40.5t11.5 44q0 37 -27 62.5t-91 25.5zM244 698h269l-8 -48h-269z" />
    <glyph glyph-name="eogonek" unicode="&#x119;" 
d="M312 -205q-36 0 -63 16.5t-27 54.5q0 34 24 64.5t80 59.5l-1 3q-25 -5 -50 -5q-96 0 -147 55.5t-51 166.5q0 68 20 126t56.5 101t87 67t111.5 24q76 0 122.5 -34.5t46.5 -98.5q0 -26 -12.5 -55t-52.5 -54t-116.5 -43t-203.5 -21q-1 -8 -1 -15v-9q0 -33 6.5 -62t23 -51.5
t44.5 -35.5t71 -13q60 0 102 31t81 95l41 -25q-23 -40 -49 -68t-56 -48q-37 -25 -61.5 -45t-39 -37t-20.5 -33t-6 -32q0 -21 12.5 -30t31.5 -9q16 0 30 7t26 19l28 -30q-13 -14 -34.5 -25t-53.5 -11zM346 481q-79 0 -134 -51.5t-69 -148.5l-3 -18q104 3 167.5 15t98.5 30.5
t46.5 40.5t11.5 44q0 37 -27 62.5t-91 25.5z" />
    <glyph glyph-name="uni1EBD" unicode="&#x1ebd;" 
d="M275 -12q-96 0 -147 55.5t-51 166.5q0 68 20 126t56.5 101t87 67t111.5 24q76 0 122.5 -34.5t46.5 -98.5q0 -26 -12.5 -55t-52.5 -54t-116.5 -43t-203.5 -21q-1 -8 -1 -15v-9q0 -33 6.5 -62t23 -51.5t44.5 -35.5t71 -13q60 0 102 31t81 95l41 -25q-43 -75 -97 -112
t-132 -37zM346 481q-79 0 -134 -51.5t-69 -148.5l-3 -18q104 3 167.5 15t98.5 30.5t46.5 40.5t11.5 44q0 37 -27 62.5t-91 25.5zM440 622q-23 0 -39 8.5t-35 20.5q-18 12 -33 18t-31 6q-17 0 -32.5 -8.5t-32.5 -22.5l-22 30q19 20 42.5 33.5t51.5 13.5q23 0 39 -8.5
t35 -20.5q18 -12 33 -18t31 -6q17 0 32.5 8.5t32.5 22.5l22 -30q-19 -20 -42.5 -33.5t-51.5 -13.5z" />
    <glyph glyph-name="uni1EBF" unicode="&#x1ebf;" 
d="M275 -12q-96 0 -147 55.5t-51 166.5q0 68 20 126t56.5 101t87 67t111.5 24q76 0 122.5 -34.5t46.5 -98.5q0 -26 -12.5 -55t-52.5 -54t-116.5 -43t-203.5 -21q-1 -8 -1 -15v-9q0 -33 6.5 -62t23 -51.5t44.5 -35.5t71 -13q60 0 102 31t81 95l41 -25q-43 -75 -97 -112
t-132 -37zM346 481q-79 0 -134 -51.5t-69 -148.5l-3 -18q104 3 167.5 15t98.5 30.5t46.5 40.5t11.5 44q0 37 -27 62.5t-91 25.5zM516 708l-32 20l120 161l46 -28zM422 751l94 -142l-34 -20l-99 121l-141 -121l-29 25l139 137h70z" />
    <glyph glyph-name="uni1EC7" unicode="&#x1ec7;" 
d="M275 -12q-96 0 -147 55.5t-51 166.5q0 68 20 126t56.5 101t87 67t111.5 24q76 0 122.5 -34.5t46.5 -98.5q0 -26 -12.5 -55t-52.5 -54t-116.5 -43t-203.5 -21q-1 -8 -1 -15v-9q0 -33 6.5 -62t23 -51.5t44.5 -35.5t71 -13q60 0 102 31t81 95l41 -25q-43 -75 -97 -112
t-132 -37zM346 481q-79 0 -134 -51.5t-69 -148.5l-3 -18q104 3 167.5 15t98.5 30.5t46.5 40.5t11.5 44q0 37 -27 62.5t-91 25.5zM424 760l94 -142l-34 -20l-99 121l-141 -121l-29 25l139 137h70zM254 -158q-23 0 -32 9t-9 20q0 10 3 21q4 16 14 25.5t33 9.5t32 -9t9 -20
q0 -4 -0.5 -10t-2.5 -11q-4 -16 -14 -25.5t-33 -9.5z" />
    <glyph glyph-name="uni1EC1" unicode="&#x1ec1;" 
d="M275 -12q-96 0 -147 55.5t-51 166.5q0 68 20 126t56.5 101t87 67t111.5 24q76 0 122.5 -34.5t46.5 -98.5q0 -26 -12.5 -55t-52.5 -54t-116.5 -43t-203.5 -21q-1 -8 -1 -15v-9q0 -33 6.5 -62t23 -51.5t44.5 -35.5t71 -13q60 0 102 31t81 95l41 -25q-43 -75 -97 -112
t-132 -37zM346 481q-79 0 -134 -51.5t-69 -148.5l-3 -18q104 3 167.5 15t98.5 30.5t46.5 40.5t11.5 44q0 37 -27 62.5t-91 25.5zM163 872l51 20l65 -166l-35 -15zM422 751l94 -142l-34 -20l-99 121l-141 -121l-29 25l139 137h70z" />
    <glyph glyph-name="uni1EC3" unicode="&#x1ec3;" 
d="M275 -12q-96 0 -147 55.5t-51 166.5q0 68 20 126t56.5 101t87 67t111.5 24q76 0 122.5 -34.5t46.5 -98.5q0 -26 -12.5 -55t-52.5 -54t-116.5 -43t-203.5 -21q-1 -8 -1 -15v-9q0 -33 6.5 -62t23 -51.5t44.5 -35.5t71 -13q60 0 102 31t81 95l41 -25q-43 -75 -97 -112
t-132 -37zM346 481q-79 0 -134 -51.5t-69 -148.5l-3 -18q104 3 167.5 15t98.5 30.5t46.5 40.5t11.5 44q0 37 -27 62.5t-91 25.5zM451 880h114q26 0 38 -10.5t12 -26.5q0 -14 -8.5 -28.5t-28.5 -37.5l-60 -71l-31 20l81 110h-125zM422 751l94 -142l-34 -20l-99 121l-141 -121
l-29 25l139 137h70z" />
    <glyph glyph-name="uni1EC5" unicode="&#x1ec5;" 
d="M275 -12q-96 0 -147 55.5t-51 166.5q0 68 20 126t56.5 101t87 67t111.5 24q76 0 122.5 -34.5t46.5 -98.5q0 -26 -12.5 -55t-52.5 -54t-116.5 -43t-203.5 -21q-1 -8 -1 -15v-9q0 -33 6.5 -62t23 -51.5t44.5 -35.5t71 -13q60 0 102 31t81 95l41 -25q-43 -75 -97 -112
t-132 -37zM346 481q-79 0 -134 -51.5t-69 -148.5l-3 -18q104 3 167.5 15t98.5 30.5t46.5 40.5t11.5 44q0 37 -27 62.5t-91 25.5zM336 880q23 0 39 -8.5t35 -20.5q18 -12 33 -18t31 -6q17 0 32.5 8.5t32.5 22.5l22 -30q-19 -20 -42.5 -33.5t-51.5 -13.5q-23 0 -39 8.5
t-35 20.5q-18 12 -33 18t-31 6q-17 0 -32.5 -8.5t-32.5 -22.5l-22 30q19 20 42.5 33.5t51.5 13.5zM423 745l95 -137l-35 -19l-100 117l-140 -117l-29 26l139 130h70z" />
    <glyph glyph-name="uni0259" unicode="&#x259;" 
d="M248 -12q-76 0 -123 34.5t-47 98.5q0 17 5 36t19.5 37.5t41 35.5t69.5 30.5t104.5 22.5t146.5 11v24q0 33 -6.5 62t-23 51.5t-44 35.5t-70.5 13q-60 0 -102.5 -31t-81.5 -95l-41 25q43 75 97 112t132 37q96 0 147 -55.5t51 -166.5q0 -68 -20 -126t-56.5 -101t-87 -67
t-110.5 -24zM253 35q79 0 134 51.5t69 148.5l3 18q-104 -3 -167.5 -15t-98.5 -30.5t-46.5 -40.5t-11.5 -44q0 -18 6.5 -34t20.5 -28t36.5 -19t54.5 -7z" />
    <glyph glyph-name="gbreve" unicode="&#x11f;" 
d="M210 -212q-60 0 -103 18t-69 51l39 38q21 -27 53.5 -42t82.5 -15q75 0 121.5 38t60.5 128l21 126h-3q-29 -60 -72.5 -96t-111.5 -36q-82 0 -124.5 53t-42.5 144q0 60 15 119.5t45 107t75.5 77t107.5 29.5t101.5 -27.5t55.5 -75.5h3l15 91h56l-87 -523
q-19 -108 -81.5 -156.5t-157.5 -48.5zM245 48q33 0 63 11.5t56 39.5q20 20 40.5 53.5t28.5 78.5l20 119q4 26 -2.5 49.5t-24 41t-44.5 27.5t-63 10q-78 0 -125 -51t-61 -132l-9 -53q-2 -14 -3.5 -25t-1.5 -22q0 -66 30.5 -106.5t95.5 -40.5zM341 601q-35 0 -57.5 12.5
t-37 32.5t-23 45.5t-14.5 52.5l35 15l17 -40q16 -38 32.5 -55t48.5 -17q16 0 28.5 4t24 12.5t24 22t27.5 33.5l31 40l36 -15q-15 -27 -30.5 -52.5t-35.5 -45.5t-46 -32.5t-60 -12.5z" />
    <glyph glyph-name="gcircumflex" unicode="&#x11d;" 
d="M210 -212q-60 0 -103 18t-69 51l39 38q21 -27 53.5 -42t82.5 -15q75 0 121.5 38t60.5 128l21 126h-3q-29 -60 -72.5 -96t-111.5 -36q-82 0 -124.5 53t-42.5 144q0 60 15 119.5t45 107t75.5 77t107.5 29.5t101.5 -27.5t55.5 -75.5h3l15 91h56l-87 -523
q-19 -108 -81.5 -156.5t-157.5 -48.5zM245 48q33 0 63 11.5t56 39.5q20 20 40.5 53.5t28.5 78.5l20 119q4 26 -2.5 49.5t-24 41t-44.5 27.5t-63 10q-78 0 -125 -51t-61 -132l-9 -53q-2 -14 -3.5 -25t-1.5 -22q0 -66 30.5 -106.5t95.5 -40.5zM400 760l94 -142l-34 -20
l-99 121l-141 -121l-29 25l139 137h70z" />
    <glyph glyph-name="gcommaaccent" unicode="&#x123;" 
d="M210 -212q-60 0 -103 18t-69 51l39 38q21 -27 53.5 -42t82.5 -15q75 0 121.5 38t60.5 128l21 126h-3q-29 -60 -72.5 -96t-111.5 -36q-82 0 -124.5 53t-42.5 144q0 60 15 119.5t45 107t75.5 77t107.5 29.5t101.5 -27.5t55.5 -75.5h3l15 91h56l-87 -523
q-19 -108 -81.5 -156.5t-157.5 -48.5zM245 48q33 0 63 11.5t56 39.5q20 20 40.5 53.5t28.5 78.5l20 119q4 26 -2.5 49.5t-24 41t-44.5 27.5t-63 10q-78 0 -125 -51t-61 -132l-9 -53q-2 -14 -3.5 -25t-1.5 -22q0 -66 30.5 -106.5t95.5 -40.5zM396 772h45l-66 -181h-76z" />
    <glyph glyph-name="gdotaccent" unicode="&#x121;" 
d="M210 -212q-60 0 -103 18t-69 51l39 38q21 -27 53.5 -42t82.5 -15q75 0 121.5 38t60.5 128l21 126h-3q-29 -60 -72.5 -96t-111.5 -36q-82 0 -124.5 53t-42.5 144q0 60 15 119.5t45 107t75.5 77t107.5 29.5t101.5 -27.5t55.5 -75.5h3l15 91h56l-87 -523
q-19 -108 -81.5 -156.5t-157.5 -48.5zM245 48q33 0 63 11.5t56 39.5q20 20 40.5 53.5t28.5 78.5l20 119q4 26 -2.5 49.5t-24 41t-44.5 27.5t-63 10q-78 0 -125 -51t-61 -132l-9 -53q-2 -14 -3.5 -25t-1.5 -22q0 -66 30.5 -106.5t95.5 -40.5zM347 626q-26 0 -36 10t-10 22
q0 5 1 11.5t2 11.5q3 17 14.5 27.5t36.5 10.5q26 0 36 -10t10 -22q0 -5 -1 -11.5t-2 -11.5q-3 -17 -14.5 -27.5t-36.5 -10.5z" />
    <glyph glyph-name="gbreve.alt01" 
d="M230 -212q-109 0 -161.5 31.5t-52.5 86.5q0 46 29 76.5t80 44.5l2 8q-18 8 -29 23.5t-11 38.5q0 42 29 63.5t77 32.5l1 5q-35 19 -54 52t-19 78q0 43 16 80t44.5 63.5t68 41.5t85.5 15q41 0 73 -12h174l-7 -45h-106q17 -18 26 -41.5t9 -52.5q0 -44 -16 -80.5t-45 -63
t-68.5 -41.5t-85.5 -15q-32 0 -56 7q-39 -9 -67.5 -26.5t-28.5 -48.5q0 -42 72 -42h128q85 0 123.5 -31.5t38.5 -87.5q0 -78 -67.5 -119t-201.5 -41zM292 221q65 0 103 30.5t46 84.5q4 23 5 35t1 18q0 42 -29 68.5t-86 26.5q-64 0 -102 -30.5t-47 -84.5q-3 -23 -4.5 -35.5
t-1.5 -17.5q0 -43 29 -69t86 -26zM445 -55q0 34 -24.5 53t-87.5 19h-173q-40 -12 -64.5 -36t-24.5 -62q0 -40 34 -62.5t99 -22.5h62q81 0 130 28t49 83zM352 601q-35 0 -57.5 12.5t-37 32.5t-23 45.5t-14.5 52.5l35 15l17 -40q16 -38 32.5 -55t48.5 -17q16 0 28.5 4t24 12.5
t24 22t27.5 33.5l31 40l36 -15q-15 -27 -30.5 -52.5t-35.5 -45.5t-46 -32.5t-60 -12.5z" />
    <glyph glyph-name="gcircumflex.alt01" 
d="M411 760l94 -142l-34 -20l-99 121l-141 -121l-29 25l139 137h70zM230 -212q-109 0 -161.5 31.5t-52.5 86.5q0 46 29 76.5t80 44.5l2 8q-18 8 -29 23.5t-11 38.5q0 42 29 63.5t77 32.5l1 5q-35 19 -54 52t-19 78q0 43 16 80t44.5 63.5t68 41.5t85.5 15q41 0 73 -12h174
l-7 -45h-106q17 -18 26 -41.5t9 -52.5q0 -44 -16 -80.5t-45 -63t-68.5 -41.5t-85.5 -15q-32 0 -56 7q-39 -9 -67.5 -26.5t-28.5 -48.5q0 -42 72 -42h128q85 0 123.5 -31.5t38.5 -87.5q0 -78 -67.5 -119t-201.5 -41zM292 221q65 0 103 30.5t46 84.5q4 23 5 35t1 18
q0 42 -29 68.5t-86 26.5q-64 0 -102 -30.5t-47 -84.5q-3 -23 -4.5 -35.5t-1.5 -17.5q0 -43 29 -69t86 -26zM445 -55q0 34 -24.5 53t-87.5 19h-173q-40 -12 -64.5 -36t-24.5 -62q0 -40 34 -62.5t99 -22.5h62q81 0 130 28t49 83z" />
    <glyph glyph-name="gcommaaccent.alt01" 
d="M230 -212q-109 0 -161.5 31.5t-52.5 86.5q0 46 29 76.5t80 44.5l2 8q-18 8 -29 23.5t-11 38.5q0 42 29 63.5t77 32.5l1 5q-35 19 -54 52t-19 78q0 43 16 80t44.5 63.5t68 41.5t85.5 15q34 0 60.5 -8t46.5 -22l4 25q5 24 18.5 38.5t39.5 14.5h100l-8 -50h-117l-9 -52
q34 -40 34 -97q0 -44 -16 -80.5t-45 -63t-68.5 -41.5t-85.5 -15q-32 0 -56 7q-39 -9 -67.5 -26.5t-28.5 -48.5q0 -42 72 -42h128q85 0 123.5 -31.5t38.5 -87.5q0 -78 -67.5 -119t-201.5 -41zM71 -81q0 -40 34 -62.5t99 -22.5h62q81 0 130 28t49 83q0 34 -24.5 53t-87.5 19
h-173q-40 -12 -64.5 -36t-24.5 -62zM292 221q65 0 103 30.5t46 84.5q4 23 5 35t1 18q0 42 -29 68.5t-86 26.5q-64 0 -102 -30.5t-47 -84.5q-3 -23 -4.5 -35.5t-1.5 -17.5q0 -43 29 -69t86 -26zM407 772h45l-66 -181h-76z" />
    <glyph glyph-name="gdotaccent.alt01" 
d="M230 -212q-109 0 -161.5 31.5t-52.5 86.5q0 46 29 76.5t80 44.5l2 8q-18 8 -29 23.5t-11 38.5q0 42 29 63.5t77 32.5l1 5q-35 19 -54 52t-19 78q0 43 16 80t44.5 63.5t68 41.5t85.5 15q34 0 60.5 -8t46.5 -22l4 25q5 24 18.5 38.5t39.5 14.5h100l-8 -50h-117l-9 -52
q34 -40 34 -97q0 -44 -16 -80.5t-45 -63t-68.5 -41.5t-85.5 -15q-32 0 -56 7q-39 -9 -67.5 -26.5t-28.5 -48.5q0 -42 72 -42h128q85 0 123.5 -31.5t38.5 -87.5q0 -78 -67.5 -119t-201.5 -41zM71 -81q0 -40 34 -62.5t99 -22.5h62q81 0 130 28t49 83q0 34 -24.5 53t-87.5 19
h-173q-40 -12 -64.5 -36t-24.5 -62zM292 221q65 0 103 30.5t46 84.5q4 23 5 35t1 18q0 42 -29 68.5t-86 26.5q-64 0 -102 -30.5t-47 -84.5q-3 -23 -4.5 -35.5t-1.5 -17.5q0 -43 29 -69t86 -26zM358 626q-26 0 -36 10t-10 22q0 5 1 11.5t2 11.5q3 17 14.5 27.5t36.5 10.5
q26 0 36 -10t10 -22q0 -5 -1 -11.5t-2 -11.5q-3 -17 -14.5 -27.5t-36.5 -10.5z" />
    <glyph glyph-name="hbar" unicode="&#x127;" 
d="M174 620h-68l7 43h68l13 77h56l-13 -77h156l-7 -43h-156l-38 -223h4q29 61 70.5 96t105.5 35q66 0 102.5 -38.5t36.5 -107.5q0 -14 -1.5 -30.5t-4.5 -32.5l-53 -319h-56l52 313q3 17 4 32t1 26q0 52 -24.5 79.5t-73.5 27.5q-71 0 -119 -59q-6 -7 -14.5 -19t-17.5 -27.5
t-17 -35t-12 -41.5l-49 -296h-56z" />
    <glyph glyph-name="hcircumflex" unicode="&#x125;" 
d="M194 740h56l-58 -343h4q29 61 70.5 96t105.5 35q66 0 102.5 -38.5t36.5 -107.5q0 -14 -1.5 -30.5t-4.5 -32.5l-53 -319h-56l52 313q3 17 4 32t1 26q0 52 -24.5 79.5t-73.5 27.5q-69 0 -119 -59q-15 -18 -34 -48.5t-27 -74.5l-49 -296h-56zM289 942l94 -142l-34 -20
l-99 121l-141 -121l-29 25l139 137h70z" />
    <glyph glyph-name="dotlessi" unicode="&#x131;" 
d="M253 -12q-26 0 -40 14t-14 36q0 7 1.5 15.5t3.5 22.5l76 392h-194l7 48h252l-91 -471l15 -6l225 173l30 -36l-148 -114q-26 -20 -43.5 -34t-31.5 -23t-25 -13t-23 -4z" />
    <glyph glyph-name="iacute" unicode="&#xed;" 
d="M253 -12q-26 0 -40 14t-14 36q0 7 1.5 15.5t3.5 22.5l76 392h-194l7 48h252l-91 -471l15 -6l225 173l30 -36l-148 -114q-26 -20 -43.5 -34t-31.5 -23t-25 -13t-23 -4zM326 590l-34 21l119 161l49 -29z" />
    <glyph glyph-name="ibreve" unicode="&#x12d;" 
d="M253 -12q-26 0 -40 14t-14 36q0 7 1.5 15.5t3.5 22.5l76 392h-194l7 48h252l-91 -471l15 -6l225 173l30 -36l-148 -114q-26 -20 -43.5 -34t-31.5 -23t-25 -13t-23 -4zM331 601q-35 0 -57.5 12.5t-37 32.5t-23 45.5t-14.5 52.5l35 15l17 -40q16 -38 32.5 -55t48.5 -17
q16 0 28.5 4t24 12.5t24 22t27.5 33.5l31 40l36 -15q-15 -27 -30.5 -52.5t-35.5 -45.5t-46 -32.5t-60 -12.5z" />
    <glyph glyph-name="icircumflex" unicode="&#xee;" 
d="M253 -12q-26 0 -40 14t-14 36q0 7 1.5 15.5t3.5 22.5l76 392h-194l7 48h252l-91 -471l15 -6l225 173l30 -36l-148 -114q-26 -20 -43.5 -34t-31.5 -23t-25 -13t-23 -4zM390 760l94 -142l-34 -20l-99 121l-141 -121l-29 25l139 137h70z" />
    <glyph glyph-name="idieresis" unicode="&#xef;" 
d="M253 -12q-26 0 -40 14t-14 36q0 7 1.5 15.5t3.5 22.5l76 392h-194l7 48h252l-91 -471l15 -6l225 173l30 -36l-148 -114q-26 -20 -43.5 -34t-31.5 -23t-25 -13t-23 -4zM244 631q-23 0 -32.5 9t-9.5 20q0 9 3 20q4 17 14.5 26t33.5 9t32.5 -9t9.5 -20q0 -10 -3 -20
q-4 -17 -14.5 -26t-33.5 -9zM428 631q-23 0 -32.5 9t-9.5 20q0 9 3 20q4 17 14.5 26t33.5 9t32.5 -9t9.5 -20q0 -10 -3 -20q-4 -17 -14.5 -26t-33.5 -9z" />
    <glyph glyph-name="uni1ECB" unicode="&#x1ecb;" 
d="M346 654q-26 0 -36 10t-10 22q0 5 1 11.5t2 11.5q3 17 14.5 27.5t36.5 10.5q26 0 36 -10t10 -22q0 -5 -1 -11.5t-2 -11.5q-3 -17 -14.5 -27.5t-36.5 -10.5zM253 -12q-26 0 -40 14t-14 36q0 7 1.5 15.5t3.5 22.5l76 392h-194l8 48h251l-91 -471l15 -6l225 173l30 -36
l-148 -114q-26 -20 -43.5 -34t-31.5 -23t-25 -13t-23 -4zM225 -158q-23 0 -32 9t-9 20q0 10 3 21q4 16 14 25.5t33 9.5t32 -9t9 -20q0 -4 -0.5 -10t-2.5 -11q-4 -16 -14 -25.5t-33 -9.5z" />
    <glyph glyph-name="igrave" unicode="&#xec;" 
d="M253 -12q-26 0 -40 14t-14 36q0 7 1.5 15.5t3.5 22.5l76 392h-194l7 48h252l-91 -471l15 -6l225 173l30 -36l-148 -114q-26 -20 -43.5 -34t-31.5 -23t-25 -13t-23 -4zM249 751l53 21l65 -167l-37 -15z" />
    <glyph glyph-name="uni1EC9" unicode="&#x1ec9;" 
d="M253 -12q-26 0 -40 14t-14 36q0 7 1.5 15.5t3.5 22.5l76 392h-194l7 48h252l-91 -471l15 -6l225 173l30 -36l-148 -114q-26 -20 -43.5 -34t-31.5 -23t-25 -13t-23 -4zM277 758h114q26 0 38 -10.5t12 -27.5q0 -16 -10.5 -33.5t-35.5 -44.5l-50 -58l-33 20l82 110h-125z
" />
    <glyph glyph-name="imacron" unicode="&#x12b;" 
d="M253 -12q-26 0 -40 14t-14 36q0 7 1.5 15.5t3.5 22.5l76 392h-194l7 48h252l-91 -471l15 -6l225 173l30 -36l-148 -114q-26 -20 -43.5 -34t-31.5 -23t-25 -13t-23 -4zM210 698h269l-8 -48h-269z" />
    <glyph glyph-name="iogonek" unicode="&#x12f;" 
d="M230 -205q-35 0 -61.5 17t-26.5 55q0 35 26.5 63.5t80.5 57.5l-1 3h-9q-20 0 -30 15t-10 32q0 7 1.5 15.5t3.5 22.5l76 392h-194l7 48h252l-91 -471l15 -6l225 173l30 -36l-208 -161q-37 -29 -61 -49.5t-38.5 -36.5t-20 -29.5t-5.5 -26.5q0 -20 12.5 -29t29.5 -9t32 7
t27 19l28 -30q-13 -14 -35.5 -25t-54.5 -11zM344 654q-26 0 -36 10t-10 22q0 5 1 10t3 13q6 38 52 38q26 0 35.5 -9.5t9.5 -22.5q0 -5 -1 -10t-2 -13q-6 -38 -52 -38z" />
    <glyph glyph-name="itilde" unicode="&#x129;" 
d="M253 -12q-26 0 -40 14t-14 36q0 7 1.5 15.5t3.5 22.5l76 392h-194l7 48h252l-91 -471l15 -6l225 173l30 -36l-148 -114q-26 -20 -43.5 -34t-31.5 -23t-25 -13t-23 -4zM406 622q-23 0 -39 8.5t-35 20.5q-18 12 -33 18t-31 6q-17 0 -32.5 -8.5t-32.5 -22.5l-22 30
q19 20 42.5 33.5t51.5 13.5q23 0 39 -8.5t35 -20.5q18 -12 33 -18t31 -6q17 0 32.5 8.5t32.5 22.5l22 -30q-19 -20 -42.5 -33.5t-51.5 -13.5z" />
    <glyph glyph-name="ij" unicode="&#x133;" 
d="M159 516h56l-86 -516h-56zM351 -212q-23 0 -43 17t-49 47l-77 74l37 35l125 -123l14 4l112 674h56l-109 -653q-5 -32 -19.5 -53.5t-46.5 -21.5zM214 654q-26 0 -36 10t-10 22q0 5 1 11.5t2 11.5q3 17 14.5 27.5t36.5 10.5q26 0 36 -10t10 -22q0 -5 -1 -11.5t-2 -11.5
q-3 -17 -14.5 -27.5t-36.5 -10.5zM524 654q-26 0 -36 10t-10 22q0 5 1 11.5t2 11.5q3 17 14.5 27.5t36.5 10.5q26 0 36 -10t10 -22q0 -5 -1 -11.5t-2 -11.5q-3 -17 -14.5 -27.5t-36.5 -10.5z" />
    <glyph glyph-name="ijacute" 
d="M159 516h56l-86 -516h-56zM351 -212q-23 0 -43 17t-49 47l-77 74l37 35l125 -123l14 4l112 674h56l-109 -651q-5 -32 -19.5 -54.5t-46.5 -22.5zM167 612l120 160l48 -29l-134 -153zM477 612l120 160l49 -29l-134 -153z" />
    <glyph glyph-name="uni0237" unicode="&#x237;" 
d="M298 -212q-11 0 -20.5 4t-21.5 13t-27.5 24t-37.5 37l-113 110l38 35l175 -173l14 4l104 626h-251l8 48h306l-108 -651q-5 -32 -19.5 -54.5t-46.5 -22.5z" />
    <glyph glyph-name="jacute" 
d="M298 -212q-11 0 -20.5 4t-21.5 13t-27.5 24t-37.5 37l-113 110l38 35l175 -173l14 4l104 626h-251l8 48h306l-108 -651q-5 -32 -19.5 -54.5t-46.5 -22.5zM456 590l-34 21l119 161l49 -29z" />
    <glyph glyph-name="jcircumflex" unicode="&#x135;" 
d="M298 -212q-11 0 -20.5 4t-21.5 13t-27.5 24t-37.5 37l-113 110l38 35l175 -173l14 4l104 626h-251l8 48h306l-108 -651q-5 -32 -19.5 -54.5t-46.5 -22.5zM520 760l94 -142l-34 -20l-99 121l-141 -121l-29 25l139 137h70z" />
    <glyph glyph-name="kcommaaccent" unicode="&#x137;" 
d="M190 740h56l-57 -343h4q31 63 76.5 97t108.5 34q66 0 101 -34t35 -89q0 -24 -9 -50t-33.5 -51.5t-68.5 -48t-113 -38.5l91 -178l10 -1l150 137l31 -32l-98 -95q-33 -32 -53 -46t-41 -14q-19 0 -32 11t-25 37l-98 193q67 16 111.5 35t71.5 40.5t38 44.5t11 48
q0 38 -23.5 60.5t-73.5 22.5q-38 0 -67.5 -14.5t-52.5 -39.5q-56 -57 -68 -130l-49 -296h-56zM196 -66h75l-86 -184h-44z" />
    <glyph glyph-name="kgreenlandic" unicode="&#x138;" 
d="M294 272l-129 -106l-28 -166h-56l86 516h56l-47 -279h4l120 101l211 178h74l-247 -210l192 -306h-65z" />
    <glyph glyph-name="lacute" unicode="&#x13a;" 
d="M235 -12q-26 0 -39.5 14t-13.5 37q0 14 4 33l119 620h-191l8 48h249l-134 -694l17 -6l229 175l30 -35l-156 -121q-26 -20 -44 -34t-32 -22t-24.5 -11.5t-21.5 -3.5zM346 772l-34 21l119 161l49 -29z" />
    <glyph glyph-name="lcaron" unicode="&#x13e;" 
d="M235 -12q-26 0 -39.5 14t-13.5 37q0 14 4 33l119 620h-191l8 48h249l-134 -694l17 -6l229 175l30 -35l-156 -121q-26 -20 -44 -34t-32 -22t-24.5 -11.5t-21.5 -3.5zM476 557h-42l40 183h72z" />
    <glyph glyph-name="lcommaaccent" unicode="&#x13c;" 
d="M235 -12q-26 0 -39.5 14t-13.5 37q0 14 4 33l119 620h-191l8 48h249l-134 -694l17 -6l229 175l30 -35l-156 -121q-26 -20 -44 -34t-32 -22t-24.5 -11.5t-21.5 -3.5zM188 -66h75l-86 -184h-44z" />
    <glyph glyph-name="ldot" unicode="&#x140;" 
d="M235 -12q-26 0 -39.5 14t-13.5 37q0 14 4 33l119 620h-191l8 48h249l-134 -694l17 -6l229 175l30 -35l-156 -121q-26 -20 -44 -34t-32 -22t-24.5 -11.5t-21.5 -3.5zM477 329q-26 0 -36 10t-10 22q0 5 1 11.5t2 11.5q3 17 14.5 27.5t36.5 10.5q26 0 36 -10t10 -22
q0 -5 -1 -11.5t-2 -11.5q-3 -17 -14.5 -27.5t-36.5 -10.5z" />
    <glyph glyph-name="lslash" unicode="&#x142;" 
d="M235 -12q-26 0 -39.5 14t-13.5 37q0 14 4 33l45 228l-161 -48l9 50l161 49l66 341h-192l8 48h250l-72 -371l164 49l-8 -49l-165 -51l-54 -272l17 -6l229 175l30 -35l-156 -121q-26 -20 -44 -34t-32 -22t-24.5 -11.5t-21.5 -3.5z" />
    <glyph glyph-name="nacute" unicode="&#x144;" 
d="M70 0l86 516h56l-20 -119h4q29 61 70.5 96t105.5 35q66 0 102.5 -38.5t36.5 -107.5q0 -14 -1.5 -30.5t-4.5 -32.5l-53 -319h-56l52 313q3 17 4 32t1 26q0 52 -24.5 79.5t-73.5 27.5q-69 0 -119 -59q-15 -18 -34 -48.5t-27 -74.5l-49 -296h-56zM353 590l-34 21l119 161
l49 -29z" />
    <glyph glyph-name="ncaron" unicode="&#x148;" 
d="M70 0l86 516h56l-20 -119h4q29 61 70.5 96t105.5 35q66 0 102.5 -38.5t36.5 -107.5q0 -14 -1.5 -30.5t-4.5 -32.5l-53 -319h-56l52 313q3 17 4 32t1 26q0 52 -24.5 79.5t-73.5 27.5q-69 0 -119 -59q-15 -18 -34 -48.5t-27 -74.5l-49 -296h-56zM322 604l-95 142l34 21
l99 -121l142 121l28 -25l-139 -138h-69z" />
    <glyph glyph-name="ncommaaccent" unicode="&#x146;" 
d="M70 0l86 516h56l-20 -119h4q29 61 70.5 96t105.5 35q66 0 102.5 -38.5t36.5 -107.5q0 -14 -1.5 -30.5t-4.5 -32.5l-53 -319h-56l52 313q3 17 4 32t1 26q0 52 -24.5 79.5t-73.5 27.5q-69 0 -119 -59q-15 -18 -34 -48.5t-27 -74.5l-49 -296h-56zM209 -66h75l-86 -184h-44z
" />
    <glyph glyph-name="ntilde" unicode="&#xf1;" 
d="M70 0l86 516h56l-20 -119h4q29 61 70.5 96t105.5 35q66 0 102.5 -38.5t36.5 -107.5q0 -14 -1.5 -30.5t-4.5 -32.5l-53 -319h-56l52 313q3 17 4 32t1 26q0 52 -24.5 79.5t-73.5 27.5q-69 0 -119 -59q-15 -18 -34 -48.5t-27 -74.5l-49 -296h-56zM433 622q-23 0 -39 8.5
t-35 20.5q-18 12 -33 18t-31 6q-17 0 -32.5 -8.5t-32.5 -22.5l-22 30q19 20 42.5 33.5t51.5 13.5q23 0 39 -8.5t35 -20.5q18 -12 33 -18t31 -6q17 0 32.5 8.5t32.5 22.5l22 -30q-19 -20 -42.5 -33.5t-51.5 -13.5z" />
    <glyph glyph-name="napostrophe" unicode="&#x149;" 
d="M156 516h56l-20 -119h4q29 61 70.5 96t105.5 35q66 0 102.5 -38.5t36.5 -107.5q0 -14 -1.5 -30.5t-4.5 -32.5l-53 -319h-56l52 313q3 17 4 32t1 26q0 52 -24.5 79.5t-73.5 27.5q-69 0 -119 -59q-15 -18 -34 -48.5t-27 -74.5l-49 -296h-56zM111 740h72l-96 -210h-39z" />
    <glyph glyph-name="eng" unicode="&#x14b;" 
d="M361 -212q-23 0 -41 16t-49 46l-80 78l38 35l127 -125l14 4l78 471q3 17 4 32t1 26q0 52 -24.5 79.5t-73.5 27.5q-69 0 -119 -59q-15 -18 -34 -48.5t-27 -74.5l-49 -296h-56l86 516h56l-20 -119h4q29 61 70.5 96t105.5 35q66 0 102.5 -38.5t36.5 -107.5q0 -14 -1.5 -30.5
t-4.5 -32.5l-76 -454q-5 -32 -20.5 -54.5t-47.5 -22.5z" />
    <glyph glyph-name="oacute" unicode="&#xf3;" 
d="M265 -12q-48 0 -84.5 15.5t-60.5 43t-36.5 66t-12.5 83.5q0 77 20 138.5t55 104.5t83.5 66t105.5 23q48 0 84.5 -15.5t60.5 -43t36.5 -66t12.5 -83.5q0 -77 -20 -138.5t-55 -104.5t-83.5 -66t-105.5 -23zM269 37q79 0 127.5 50t62.5 138l9 56q3 17 4 28t1 24
q0 69 -36 107.5t-106 38.5q-79 0 -127.5 -50t-62.5 -138l-9 -56q-3 -17 -4 -28t-1 -24q0 -69 36 -107.5t106 -38.5zM350 590l-34 21l119 161l49 -29z" />
    <glyph glyph-name="obreve" unicode="&#x14f;" 
d="M265 -12q-48 0 -84.5 15.5t-60.5 43t-36.5 66t-12.5 83.5q0 77 20 138.5t55 104.5t83.5 66t105.5 23q48 0 84.5 -15.5t60.5 -43t36.5 -66t12.5 -83.5q0 -77 -20 -138.5t-55 -104.5t-83.5 -66t-105.5 -23zM269 37q79 0 127.5 50t62.5 138l9 56q3 17 4 28t1 24
q0 69 -36 107.5t-106 38.5q-79 0 -127.5 -50t-62.5 -138l-9 -56q-3 -17 -4 -28t-1 -24q0 -69 36 -107.5t106 -38.5zM355 601q-35 0 -57.5 12.5t-37 32.5t-23 45.5t-14.5 52.5l35 15l17 -40q16 -38 32.5 -55t48.5 -17q16 0 28.5 4t24 12.5t24 22t27.5 33.5l31 40l36 -15
q-15 -27 -30.5 -52.5t-35.5 -45.5t-46 -32.5t-60 -12.5z" />
    <glyph glyph-name="ocircumflex" unicode="&#xf4;" 
d="M265 -12q-48 0 -84.5 15.5t-60.5 43t-36.5 66t-12.5 83.5q0 77 20 138.5t55 104.5t83.5 66t105.5 23q48 0 84.5 -15.5t60.5 -43t36.5 -66t12.5 -83.5q0 -77 -20 -138.5t-55 -104.5t-83.5 -66t-105.5 -23zM269 37q79 0 127.5 50t62.5 138l9 56q3 17 4 28t1 24
q0 69 -36 107.5t-106 38.5q-79 0 -127.5 -50t-62.5 -138l-9 -56q-3 -17 -4 -28t-1 -24q0 -69 36 -107.5t106 -38.5zM414 760l94 -142l-34 -20l-99 121l-141 -121l-29 25l139 137h70z" />
    <glyph glyph-name="odieresis" unicode="&#xf6;" 
d="M265 -12q-48 0 -84.5 15.5t-60.5 43t-36.5 66t-12.5 83.5q0 77 20 138.5t55 104.5t83.5 66t105.5 23q48 0 84.5 -15.5t60.5 -43t36.5 -66t12.5 -83.5q0 -77 -20 -138.5t-55 -104.5t-83.5 -66t-105.5 -23zM269 37q79 0 127.5 50t62.5 138l9 56q3 17 4 28t1 24
q0 69 -36 107.5t-106 38.5q-79 0 -127.5 -50t-62.5 -138l-9 -56q-3 -17 -4 -28t-1 -24q0 -69 36 -107.5t106 -38.5zM268 631q-23 0 -32.5 9t-9.5 20q0 9 3 20q4 17 14.5 26t33.5 9t32.5 -9t9.5 -20q0 -10 -3 -20q-4 -17 -14.5 -26t-33.5 -9zM452 631q-23 0 -32.5 9t-9.5 20
q0 9 3 20q4 17 14.5 26t33.5 9t32.5 -9t9.5 -20q0 -10 -3 -20q-4 -17 -14.5 -26t-33.5 -9z" />
    <glyph glyph-name="uni1ECD" unicode="&#x1ecd;" 
d="M265 -12q-48 0 -84.5 15.5t-60.5 43t-36.5 66t-12.5 83.5q0 77 20 138.5t55 104.5t83.5 66t105.5 23q48 0 84.5 -15.5t60.5 -43t36.5 -66t12.5 -83.5q0 -77 -20 -138.5t-55 -104.5t-83.5 -66t-105.5 -23zM269 37q79 0 127.5 50t62.5 138l9 56q3 17 4 28t1 24
q0 69 -36 107.5t-106 38.5q-79 0 -127.5 -50t-62.5 -138l-9 -56q-3 -17 -4 -28t-1 -24q0 -69 36 -107.5t106 -38.5zM238 -158q-23 0 -32 9t-9 20q0 10 3 21q4 16 14 25.5t33 9.5t32 -9t9 -20q0 -4 -0.5 -10t-2.5 -11q-4 -16 -14 -25.5t-33 -9.5z" />
    <glyph glyph-name="ograve" unicode="&#xf2;" 
d="M265 -12q-48 0 -84.5 15.5t-60.5 43t-36.5 66t-12.5 83.5q0 77 20 138.5t55 104.5t83.5 66t105.5 23q48 0 84.5 -15.5t60.5 -43t36.5 -66t12.5 -83.5q0 -77 -20 -138.5t-55 -104.5t-83.5 -66t-105.5 -23zM269 37q79 0 127.5 50t62.5 138l9 56q3 17 4 28t1 24
q0 69 -36 107.5t-106 38.5q-79 0 -127.5 -50t-62.5 -138l-9 -56q-3 -17 -4 -28t-1 -24q0 -69 36 -107.5t106 -38.5zM273 751l53 21l65 -167l-37 -15z" />
    <glyph glyph-name="uni1ECF" unicode="&#x1ecf;" 
d="M265 -12q-48 0 -84.5 15.5t-60.5 43t-36.5 66t-12.5 83.5q0 77 20 138.5t55 104.5t83.5 66t105.5 23q48 0 84.5 -15.5t60.5 -43t36.5 -66t12.5 -83.5q0 -77 -20 -138.5t-55 -104.5t-83.5 -66t-105.5 -23zM269 37q79 0 127.5 50t62.5 138l9 56q3 17 4 28t1 24
q0 69 -36 107.5t-106 38.5q-79 0 -127.5 -50t-62.5 -138l-9 -56q-3 -17 -4 -28t-1 -24q0 -69 36 -107.5t106 -38.5zM301 758h114q26 0 38 -10.5t12 -27.5q0 -16 -10.5 -33.5t-35.5 -44.5l-50 -58l-33 20l82 110h-125z" />
    <glyph glyph-name="ohungarumlaut" unicode="&#x151;" 
d="M265 -12q-48 0 -84.5 15.5t-60.5 43t-36.5 66t-12.5 83.5q0 77 20 138.5t55 104.5t83.5 66t105.5 23q48 0 84.5 -15.5t60.5 -43t36.5 -66t12.5 -83.5q0 -77 -20 -138.5t-55 -104.5t-83.5 -66t-105.5 -23zM269 37q79 0 127.5 50t62.5 138l9 56q3 17 4 28t1 24
q0 69 -36 107.5t-106 38.5q-79 0 -127.5 -50t-62.5 -138l-9 -56q-3 -17 -4 -28t-1 -24q0 -69 36 -107.5t106 -38.5zM277 590l-33 20l119 161l47 -27zM437 590l-32 20l119 161l47 -27z" />
    <glyph glyph-name="omacron" unicode="&#x14d;" 
d="M265 -12q-48 0 -84.5 15.5t-60.5 43t-36.5 66t-12.5 83.5q0 77 20 138.5t55 104.5t83.5 66t105.5 23q48 0 84.5 -15.5t60.5 -43t36.5 -66t12.5 -83.5q0 -77 -20 -138.5t-55 -104.5t-83.5 -66t-105.5 -23zM269 37q79 0 127.5 50t62.5 138l9 56q3 17 4 28t1 24
q0 69 -36 107.5t-106 38.5q-79 0 -127.5 -50t-62.5 -138l-9 -56q-3 -17 -4 -28t-1 -24q0 -69 36 -107.5t106 -38.5zM234 698h269l-8 -48h-269z" />
    <glyph glyph-name="oslash" unicode="&#xf8;" 
d="M18 -5l81 84q-28 50 -28 117q0 77 20 138.5t55 104.5t83.5 66t105.5 23q48 0 83 -15.5t60 -41.5l73 76l31 -26l-81 -84q28 -50 28 -117q0 -77 -20 -138.5t-55 -104.5t-83.5 -66t-105.5 -23q-48 0 -83 15.5t-60 41.5l-73 -76zM331 479q-79 0 -127.5 -50t-62.5 -138l-9 -56
q-3 -17 -4 -28t-1 -24q0 -18 2.5 -34.5t9.5 -30.5l303 317q-18 21 -45.5 32.5t-65.5 11.5zM269 37q79 0 127.5 50t62.5 138l9 56q3 17 4 28t1 24q0 18 -2.5 34.5t-9.5 30.5l-303 -317q38 -44 111 -44z" />
    <glyph glyph-name="oslashacute" unicode="&#x1ff;" 
d="M18 -5l81 84q-28 50 -28 117q0 77 20 138.5t55 104.5t83.5 66t105.5 23q48 0 83 -15.5t60 -41.5l73 76l31 -26l-81 -84q28 -50 28 -117q0 -77 -20 -138.5t-55 -104.5t-83.5 -66t-105.5 -23q-48 0 -83 15.5t-60 41.5l-73 -76zM331 479q-79 0 -127.5 -50t-62.5 -138l-9 -56
q-3 -17 -4 -28t-1 -24q0 -18 2.5 -34.5t9.5 -30.5l303 317q-18 21 -45.5 32.5t-65.5 11.5zM269 37q79 0 127.5 50t62.5 138l9 56q3 17 4 28t1 24q0 18 -2.5 34.5t-9.5 30.5l-303 -317q38 -44 111 -44zM350 590l-34 21l119 161l49 -29z" />
    <glyph glyph-name="otilde" unicode="&#xf5;" 
d="M265 -12q-48 0 -84.5 15.5t-60.5 43t-36.5 66t-12.5 83.5q0 77 20 138.5t55 104.5t83.5 66t105.5 23q48 0 84.5 -15.5t60.5 -43t36.5 -66t12.5 -83.5q0 -77 -20 -138.5t-55 -104.5t-83.5 -66t-105.5 -23zM269 37q79 0 127.5 50t62.5 138l9 56q3 17 4 28t1 24
q0 69 -36 107.5t-106 38.5q-79 0 -127.5 -50t-62.5 -138l-9 -56q-3 -17 -4 -28t-1 -24q0 -69 36 -107.5t106 -38.5zM430 622q-23 0 -39 8.5t-35 20.5q-18 12 -33 18t-31 6q-17 0 -32.5 -8.5t-32.5 -22.5l-22 30q19 20 42.5 33.5t51.5 13.5q23 0 39 -8.5t35 -20.5
q18 -12 33 -18t31 -6q17 0 32.5 8.5t32.5 22.5l22 -30q-19 -20 -42.5 -33.5t-51.5 -13.5z" />
    <glyph glyph-name="ohorn" unicode="&#x1a1;" 
d="M584 627l-17 -101q-4 -21 -16.5 -33.5t-41.5 -12.5h-43q32 -28 47.5 -68.5t15.5 -91.5q0 -77 -20 -138.5t-55 -104.5t-83.5 -66t-105.5 -23q-48 0 -84.5 15.5t-60.5 43t-36.5 66t-12.5 83.5q0 77 20 138.5t55 104.5t83.5 66t105.5 23q41 0 74 -12h106l18 111h51zM269 37
q79 0 127.5 50t62.5 138l9 56q3 17 4 28t1 24q0 69 -36 107.5t-106 38.5q-79 0 -127.5 -50t-62.5 -138l-9 -56q-3 -17 -4 -28t-1 -24q0 -69 36 -107.5t106 -38.5z" />
    <glyph glyph-name="uni1EDB" unicode="&#x1edb;" 
d="M584 627l-17 -101q-4 -21 -16.5 -33.5t-41.5 -12.5h-43q32 -28 47.5 -68.5t15.5 -91.5q0 -77 -20 -138.5t-55 -104.5t-83.5 -66t-105.5 -23q-48 0 -84.5 15.5t-60.5 43t-36.5 66t-12.5 83.5q0 77 20 138.5t55 104.5t83.5 66t105.5 23q41 0 74 -12h106l18 111h51zM269 37
q79 0 127.5 50t62.5 138l9 56q3 17 4 28t1 24q0 69 -36 107.5t-106 38.5q-79 0 -127.5 -50t-62.5 -138l-9 -56q-3 -17 -4 -28t-1 -24q0 -69 36 -107.5t106 -38.5zM350 590l-34 21l119 161l49 -29z" />
    <glyph glyph-name="uni1EE3" unicode="&#x1ee3;" 
d="M584 627l-17 -101q-4 -21 -16.5 -33.5t-41.5 -12.5h-43q32 -28 47.5 -68.5t15.5 -91.5q0 -77 -20 -138.5t-55 -104.5t-83.5 -66t-105.5 -23q-48 0 -84.5 15.5t-60.5 43t-36.5 66t-12.5 83.5q0 77 20 138.5t55 104.5t83.5 66t105.5 23q41 0 74 -12h106l18 111h51zM269 37
q79 0 127.5 50t62.5 138l9 56q3 17 4 28t1 24q0 69 -36 107.5t-106 38.5q-79 0 -127.5 -50t-62.5 -138l-9 -56q-3 -17 -4 -28t-1 -24q0 -69 36 -107.5t106 -38.5zM238 -158q-23 0 -32 9t-9 20q0 10 3 21q4 16 14 25.5t33 9.5t32 -9t9 -20q0 -4 -0.5 -10t-2.5 -11
q-4 -16 -14 -25.5t-33 -9.5z" />
    <glyph glyph-name="uni1EDD" unicode="&#x1edd;" 
d="M584 627l-17 -101q-4 -21 -16.5 -33.5t-41.5 -12.5h-43q32 -28 47.5 -68.5t15.5 -91.5q0 -77 -20 -138.5t-55 -104.5t-83.5 -66t-105.5 -23q-48 0 -84.5 15.5t-60.5 43t-36.5 66t-12.5 83.5q0 77 20 138.5t55 104.5t83.5 66t105.5 23q41 0 74 -12h106l18 111h51zM269 37
q79 0 127.5 50t62.5 138l9 56q3 17 4 28t1 24q0 69 -36 107.5t-106 38.5q-79 0 -127.5 -50t-62.5 -138l-9 -56q-3 -17 -4 -28t-1 -24q0 -69 36 -107.5t106 -38.5zM273 751l53 21l65 -167l-37 -15z" />
    <glyph glyph-name="uni1EDF" unicode="&#x1edf;" 
d="M584 627l-17 -101q-4 -21 -16.5 -33.5t-41.5 -12.5h-43q32 -28 47.5 -68.5t15.5 -91.5q0 -77 -20 -138.5t-55 -104.5t-83.5 -66t-105.5 -23q-48 0 -84.5 15.5t-60.5 43t-36.5 66t-12.5 83.5q0 77 20 138.5t55 104.5t83.5 66t105.5 23q41 0 74 -12h106l18 111h51zM269 37
q79 0 127.5 50t62.5 138l9 56q3 17 4 28t1 24q0 69 -36 107.5t-106 38.5q-79 0 -127.5 -50t-62.5 -138l-9 -56q-3 -17 -4 -28t-1 -24q0 -69 36 -107.5t106 -38.5zM301 758h114q26 0 38 -10.5t12 -27.5q0 -16 -10.5 -33.5t-35.5 -44.5l-50 -58l-33 20l82 110h-125z" />
    <glyph glyph-name="uni1EE1" unicode="&#x1ee1;" 
d="M584 627l-17 -101q-4 -21 -16.5 -33.5t-41.5 -12.5h-43q32 -28 47.5 -68.5t15.5 -91.5q0 -77 -20 -138.5t-55 -104.5t-83.5 -66t-105.5 -23q-48 0 -84.5 15.5t-60.5 43t-36.5 66t-12.5 83.5q0 77 20 138.5t55 104.5t83.5 66t105.5 23q41 0 74 -12h106l18 111h51zM269 37
q79 0 127.5 50t62.5 138l9 56q3 17 4 28t1 24q0 69 -36 107.5t-106 38.5q-79 0 -127.5 -50t-62.5 -138l-9 -56q-3 -17 -4 -28t-1 -24q0 -69 36 -107.5t106 -38.5zM411 625q-20 0 -34 7t-33 19q-17 11 -30.5 16.5t-27.5 5.5q-17 0 -32 -7.5t-32 -21.5l-24 29q19 20 42 33
t51 13q20 0 34 -7t33 -19q17 -11 30.5 -16.5t27.5 -5.5q17 0 32 7.5t32 21.5l24 -29q-19 -20 -42 -33t-51 -13z" />
    <glyph glyph-name="uni1ED1" unicode="&#x1ed1;" 
d="M265 -12q-48 0 -84.5 15.5t-60.5 43t-36.5 66t-12.5 83.5q0 77 20 138.5t55 104.5t83.5 66t105.5 23q48 0 84.5 -15.5t60.5 -43t36.5 -66t12.5 -83.5q0 -77 -20 -138.5t-55 -104.5t-83.5 -66t-105.5 -23zM269 37q79 0 127.5 50t62.5 138l9 56q3 17 4 28t1 24
q0 69 -36 107.5t-106 38.5q-79 0 -127.5 -50t-62.5 -138l-9 -56q-3 -17 -4 -28t-1 -24q0 -69 36 -107.5t106 -38.5zM506 708l-32 20l120 161l46 -28zM412 751l94 -142l-34 -20l-99 121l-141 -121l-29 25l139 137h70z" />
    <glyph glyph-name="uni1ED9" unicode="&#x1ed9;" 
d="M265 -12q-48 0 -84.5 15.5t-60.5 43t-36.5 66t-12.5 83.5q0 77 20 138.5t55 104.5t83.5 66t105.5 23q48 0 84.5 -15.5t60.5 -43t36.5 -66t12.5 -83.5q0 -77 -20 -138.5t-55 -104.5t-83.5 -66t-105.5 -23zM269 37q79 0 127.5 50t62.5 138l9 56q3 17 4 28t1 24
q0 69 -36 107.5t-106 38.5q-79 0 -127.5 -50t-62.5 -138l-9 -56q-3 -17 -4 -28t-1 -24q0 -69 36 -107.5t106 -38.5zM414 760l94 -142l-34 -20l-99 121l-141 -121l-29 25l139 137h70zM238 -158q-23 0 -32 9t-9 20q0 10 3 21q4 16 14 25.5t33 9.5t32 -9t9 -20q0 -4 -0.5 -10
t-2.5 -11q-4 -16 -14 -25.5t-33 -9.5z" />
    <glyph glyph-name="uni1ED3" unicode="&#x1ed3;" 
d="M265 -12q-48 0 -84.5 15.5t-60.5 43t-36.5 66t-12.5 83.5q0 77 20 138.5t55 104.5t83.5 66t105.5 23q48 0 84.5 -15.5t60.5 -43t36.5 -66t12.5 -83.5q0 -77 -20 -138.5t-55 -104.5t-83.5 -66t-105.5 -23zM269 37q79 0 127.5 50t62.5 138l9 56q3 17 4 28t1 24
q0 69 -36 107.5t-106 38.5q-79 0 -127.5 -50t-62.5 -138l-9 -56q-3 -17 -4 -28t-1 -24q0 -69 36 -107.5t106 -38.5zM153 872l51 20l65 -166l-35 -15zM412 751l94 -142l-34 -20l-99 121l-141 -121l-29 25l139 137h70z" />
    <glyph glyph-name="uni1ED5" unicode="&#x1ed5;" 
d="M265 -12q-48 0 -84.5 15.5t-60.5 43t-36.5 66t-12.5 83.5q0 77 20 138.5t55 104.5t83.5 66t105.5 23q48 0 84.5 -15.5t60.5 -43t36.5 -66t12.5 -83.5q0 -77 -20 -138.5t-55 -104.5t-83.5 -66t-105.5 -23zM269 37q79 0 127.5 50t62.5 138l9 56q3 17 4 28t1 24
q0 69 -36 107.5t-106 38.5q-79 0 -127.5 -50t-62.5 -138l-9 -56q-3 -17 -4 -28t-1 -24q0 -69 36 -107.5t106 -38.5zM441 880h114q26 0 38 -10.5t12 -26.5q0 -14 -8.5 -28.5t-28.5 -37.5l-60 -71l-31 20l81 110h-125zM412 751l94 -142l-34 -20l-99 121l-141 -121l-29 25
l139 137h70z" />
    <glyph glyph-name="uni1ED7" unicode="&#x1ed7;" 
d="M265 -12q-48 0 -84.5 15.5t-60.5 43t-36.5 66t-12.5 83.5q0 77 20 138.5t55 104.5t83.5 66t105.5 23q48 0 84.5 -15.5t60.5 -43t36.5 -66t12.5 -83.5q0 -77 -20 -138.5t-55 -104.5t-83.5 -66t-105.5 -23zM269 37q79 0 127.5 50t62.5 138l9 56q3 17 4 28t1 24
q0 69 -36 107.5t-106 38.5q-79 0 -127.5 -50t-62.5 -138l-9 -56q-3 -17 -4 -28t-1 -24q0 -69 36 -107.5t106 -38.5zM326 880q23 0 39 -8.5t35 -20.5q18 -12 33 -18t31 -6q17 0 32.5 8.5t32.5 22.5l22 -30q-19 -20 -42.5 -33.5t-51.5 -13.5q-23 0 -39 8.5t-35 20.5
q-18 12 -33 18t-31 6q-17 0 -32.5 -8.5t-32.5 -22.5l-22 30q19 20 42.5 33.5t51.5 13.5zM413 745l95 -137l-35 -19l-100 117l-140 -117l-29 26l139 130h70z" />
    <glyph glyph-name="oe" unicode="&#x153;" 
d="M403 -12q-48 0 -80 30.5t-36 91.5h-4q-17 -57 -54.5 -89.5t-88.5 -32.5q-63 0 -90.5 49t-27.5 135q0 70 13 134t38.5 113.5t62.5 79t84 29.5q53 0 80 -35.5t29 -87.5h4q26 63 66 93t91 30t81.5 -30.5t30.5 -82.5q0 -36 -14 -67t-46 -54t-84 -37t-128 -16l-3 -19
q-3 -18 -4.5 -35t-1.5 -31q0 -63 22.5 -93t61.5 -30q42 0 70 28t49 73l40 -20q-12 -26 -27.5 -48.5t-35 -40t-44 -27.5t-54.5 -10zM147 31q44 0 78 43.5t50 140.5l14 85q3 20 4 37t1 29q0 62 -20.5 90.5t-56.5 28.5q-44 0 -78 -43.5t-50 -140.5l-14 -85q-3 -20 -4 -37
t-1 -29q0 -62 20.5 -90.5t56.5 -28.5zM485 485q-28 0 -52.5 -14t-43 -39t-31.5 -59.5t-19 -75.5l-2 -17q117 3 166.5 38t49.5 95q0 34 -17.5 53t-50.5 19z" />
    <glyph glyph-name="racute" unicode="&#x155;" 
d="M192 0l79 468h-158l8 48h213l-20 -118h5q13 27 29.5 48.5t38 37t49 24t63.5 8.5h94l-9 -55h-100q-76 0 -121 -44q-17 -14 -37 -42.5t-27 -70.5l-51 -304h-56zM378 590l-34 21l119 161l49 -29z" />
    <glyph glyph-name="rcaron" unicode="&#x159;" 
d="M192 0l79 468h-158l8 48h213l-20 -118h5q13 27 29.5 48.5t38 37t49 24t63.5 8.5h94l-9 -55h-100q-76 0 -121 -44q-17 -14 -37 -42.5t-27 -70.5l-51 -304h-56zM347 604l-95 142l34 21l99 -121l142 121l28 -25l-139 -138h-69z" />
    <glyph glyph-name="rcommaaccent" unicode="&#x157;" 
d="M192 0l79 468h-158l8 48h213l-20 -118h5q13 27 29.5 48.5t38 37t49 24t63.5 8.5h94l-9 -55h-100q-76 0 -121 -44q-17 -14 -37 -42.5t-27 -70.5l-51 -304h-56zM173 -66h75l-86 -184h-44z" />
    <glyph glyph-name="sacute" unicode="&#x15b;" 
d="M275 -12q-152 0 -221 99l42 33q31 -43 75 -63.5t108 -20.5q76 0 120.5 30t44.5 87q0 42 -26 59t-69 22l-76 9q-29 4 -56 11.5t-47.5 22t-32.5 37t-12 56.5q0 40 16.5 70t45.5 49.5t67 29t82 9.5q73 0 120 -22.5t74 -57.5l-40 -35q-8 12 -21 24t-32.5 21.5t-45.5 15.5
t-61 6q-72 0 -111 -27.5t-39 -78.5q0 -21 7 -35.5t20 -23.5t31 -14t39 -8l75 -10q27 -3 53.5 -10t47 -20.5t33.5 -36.5t13 -58q0 -41 -16.5 -72.5t-46.5 -53.5t-71 -33t-90 -11zM346 590l-34 21l119 161l49 -29z" />
    <glyph glyph-name="scaron" unicode="&#x161;" 
d="M275 -12q-152 0 -221 99l42 33q31 -43 75 -63.5t108 -20.5q76 0 120.5 30t44.5 87q0 42 -26 59t-69 22l-76 9q-29 4 -56 11.5t-47.5 22t-32.5 37t-12 56.5q0 40 16.5 70t45.5 49.5t67 29t82 9.5q73 0 120 -22.5t74 -57.5l-40 -35q-8 12 -21 24t-32.5 21.5t-45.5 15.5
t-61 6q-72 0 -111 -27.5t-39 -78.5q0 -21 7 -35.5t20 -23.5t31 -14t39 -8l75 -10q27 -3 53.5 -10t47 -20.5t33.5 -36.5t13 -58q0 -41 -16.5 -72.5t-46.5 -53.5t-71 -33t-90 -11zM315 604l-95 142l34 21l99 -121l142 121l28 -25l-139 -138h-69z" />
    <glyph glyph-name="scedilla" unicode="&#x15f;" 
d="M251 -205q-35 0 -57 11.5t-31 25.5l29 30q9 -12 23 -19.5t36 -7.5q26 0 42 11.5t16 31.5q0 13 -11 24.5t-46 15.5l-33 3l26 68q-131 9 -191 98l42 33q31 -43 75 -63.5t108 -20.5q76 0 120.5 30t44.5 87q0 42 -26 59t-69 22l-76 9q-29 4 -56 11.5t-47.5 22t-32.5 37
t-12 56.5q0 40 16.5 70t45.5 49.5t67 29t82 9.5q73 0 120 -22.5t74 -57.5l-40 -35q-8 12 -21 24t-32.5 21.5t-45.5 15.5t-61 6q-72 0 -111 -27.5t-39 -78.5q0 -21 7 -35.5t20 -23.5t31 -14t39 -8l75 -10q27 -3 53.5 -10t47 -20.5t33.5 -36.5t13 -58q0 -39 -15.5 -70
t-43.5 -52.5t-66.5 -33.5t-84.5 -13h-6l-21 -55l2 -2q9 2 18.5 2.5t15.5 0.5q28 0 43.5 -14.5t15.5 -42.5q0 -41 -30.5 -62t-75.5 -21z" />
    <glyph glyph-name="scircumflex" unicode="&#x15d;" 
d="M275 -12q-152 0 -221 99l42 33q31 -43 75 -63.5t108 -20.5q76 0 120.5 30t44.5 87q0 42 -26 59t-69 22l-76 9q-29 4 -56 11.5t-47.5 22t-32.5 37t-12 56.5q0 40 16.5 70t45.5 49.5t67 29t82 9.5q73 0 120 -22.5t74 -57.5l-40 -35q-8 12 -21 24t-32.5 21.5t-45.5 15.5
t-61 6q-72 0 -111 -27.5t-39 -78.5q0 -21 7 -35.5t20 -23.5t31 -14t39 -8l75 -10q27 -3 53.5 -10t47 -20.5t33.5 -36.5t13 -58q0 -41 -16.5 -72.5t-46.5 -53.5t-71 -33t-90 -11zM410 760l94 -142l-34 -20l-99 121l-141 -121l-29 25l139 137h70z" />
    <glyph glyph-name="scommaaccent" unicode="&#x219;" 
d="M275 -12q-152 0 -221 99l42 33q31 -43 75 -63.5t108 -20.5q76 0 120.5 30t44.5 87q0 42 -26 59t-69 22l-76 9q-29 4 -56 11.5t-47.5 22t-32.5 37t-12 56.5q0 40 16.5 70t45.5 49.5t67 29t82 9.5q73 0 120 -22.5t74 -57.5l-40 -35q-8 12 -21 24t-32.5 21.5t-45.5 15.5
t-61 6q-72 0 -111 -27.5t-39 -78.5q0 -21 7 -35.5t20 -23.5t31 -14t39 -8l75 -10q27 -3 53.5 -10t47 -20.5t33.5 -36.5t13 -58q0 -41 -16.5 -72.5t-46.5 -53.5t-71 -33t-90 -11zM225 -66h75l-86 -184h-44z" />
    <glyph glyph-name="germandbls" unicode="&#xdf;" 
d="M78 0l108 657q8 49 33.5 66t59.5 17h169l-8 -48h-192l-29 -176h351l-9 -55l-232 -252q93 -5 148 -45.5t55 -118.5q0 -113 -71 -179t-216 -66h-75l8 48h71q97 0 152.5 35t66.5 109q5 29 5.5 40.5t0.5 19.5q0 63 -48.5 89t-139.5 26h-22l8 49l232 252h-293l-77 -468h-56z
" />
    <glyph glyph-name="germandbls.alt01" 
d="M149 467h-81l8 49h81l1 6q8 52 28 94.5t50 72.5t69 46.5t85 16.5q79 0 119.5 -45.5t40.5 -123.5q0 -16 -2 -31t-4 -32l-8 -49h-37q-31 0 -60 -5.5t-51 -18t-35.5 -33.5t-13.5 -52q0 -32 18.5 -46.5t54.5 -27.5l31 -11q57 -20 82 -47.5t25 -74.5q0 -41 -14 -72.5
t-39 -52.5t-59.5 -31.5t-74.5 -10.5q-53 0 -93.5 19.5t-67.5 65.5l41 30q20 -37 52 -52t74 -15q58 0 92 29.5t34 83.5q0 31 -15 50t-49 31l-30 10q-24 9 -45 18t-37 22.5t-25.5 32.5t-9.5 47q0 40 16.5 68.5t45 47.5t65 28t77.5 11l2 13q3 16 4.5 31t1.5 27q0 58 -27 88
t-84 30q-71 0 -113.5 -47t-56.5 -132l-89 -525h-55z" />
    <glyph glyph-name="tbar" unicode="&#x167;" 
d="M229 -12q-52 0 -52 52q0 14 3 38l34 196h-110l7 44h110l26 150h-169l8 48h131q21 0 32 9t15 31l24 142h53l-30 -182h233l-8 -48h-233l-25 -150h167l-7 -44h-168l-38 -227l14 -8l247 157l28 -36l-169 -111q-48 -33 -74.5 -47t-48.5 -14z" />
    <glyph glyph-name="tcaron" unicode="&#x165;" 
d="M229 -12q-52 0 -52 52q0 14 3 38l67 390h-169l8 48h131q21 0 32 9t15 31l24 142h53l-30 -182h233l-8 -48h-233l-71 -421l14 -8l247 157l28 -36l-169 -111q-48 -33 -74.5 -47t-48.5 -14zM473 577h-42l40 183h72z" />
    <glyph glyph-name="tcommaaccent" unicode="&#x163;" 
d="M229 -12q-52 0 -52 52q0 14 3 38l67 390h-169l8 48h131q21 0 32 9t15 31l24 142h53l-30 -182h233l-8 -48h-233l-71 -421l14 -8l247 157l28 -36l-169 -111q-48 -33 -74.5 -47t-48.5 -14zM177 -66h75l-86 -184h-44z" />
    <glyph glyph-name="uni021B" unicode="&#x21b;" 
d="M229 -12q-52 0 -52 52q0 14 3 38l67 390h-169l8 48h131q21 0 32 9t15 31l24 142h53l-30 -182h233l-8 -48h-233l-71 -421l14 -8l247 157l28 -36l-169 -111q-48 -33 -74.5 -47t-48.5 -14zM177 -66h75l-86 -184h-44z" />
    <glyph glyph-name="thorn" unicode="&#xfe;" 
d="M187 740h56l-57 -343h3q15 29 32.5 53t39.5 41.5t49.5 27t61.5 9.5q81 0 123.5 -52.5t42.5 -146.5q0 -61 -14.5 -122t-44.5 -109.5t-75.5 -79t-108.5 -30.5q-62 0 -101.5 27t-55.5 75h-3l-49 -290h-56zM281 38q39 0 70.5 14t54.5 38.5t38.5 58.5t22.5 74l11 63
q2 14 3 25.5t1 22.5q0 63 -30.5 103.5t-95.5 40.5q-32 0 -62 -12t-56 -38q-23 -24 -42.5 -57.5t-26.5 -75.5l-22 -129q-5 -26 2 -49.5t24 -41t44.5 -27.5t63.5 -10z" />
    <glyph glyph-name="uacute" unicode="&#xfa;" 
d="M408 119h-4q-29 -61 -70.5 -96t-105.5 -35q-66 0 -102.5 38.5t-36.5 107.5q0 31 6 63l53 319h56l-52 -313q-3 -17 -4 -32t-1 -26q0 -52 24.5 -79.5t73.5 -27.5q35 0 65 15t54 44q15 18 34 48.5t27 74.5l49 296h56l-86 -516h-56zM350 590l-34 21l119 161l49 -29z" />
    <glyph glyph-name="ubreve" unicode="&#x16d;" 
d="M408 119h-4q-29 -61 -70.5 -96t-105.5 -35q-66 0 -102.5 38.5t-36.5 107.5q0 31 6 63l53 319h56l-52 -313q-3 -17 -4 -32t-1 -26q0 -52 24.5 -79.5t73.5 -27.5q35 0 65 15t54 44q15 18 34 48.5t27 74.5l49 296h56l-86 -516h-56zM355 601q-35 0 -57.5 12.5t-37 32.5
t-23 45.5t-14.5 52.5l35 15l17 -40q16 -38 32.5 -55t48.5 -17q16 0 28.5 4t24 12.5t24 22t27.5 33.5l31 40l36 -15q-15 -27 -30.5 -52.5t-35.5 -45.5t-46 -32.5t-60 -12.5z" />
    <glyph glyph-name="ucircumflex" unicode="&#xfb;" 
d="M408 119h-4q-29 -61 -70.5 -96t-105.5 -35q-66 0 -102.5 38.5t-36.5 107.5q0 31 6 63l53 319h56l-52 -313q-3 -17 -4 -32t-1 -26q0 -52 24.5 -79.5t73.5 -27.5q35 0 65 15t54 44q15 18 34 48.5t27 74.5l49 296h56l-86 -516h-56zM414 760l94 -142l-34 -20l-99 121
l-141 -121l-29 25l139 137h70z" />
    <glyph glyph-name="udieresis" unicode="&#xfc;" 
d="M408 119h-4q-29 -61 -70.5 -96t-105.5 -35q-66 0 -102.5 38.5t-36.5 107.5q0 31 6 63l53 319h56l-52 -313q-3 -17 -4 -32t-1 -26q0 -52 24.5 -79.5t73.5 -27.5q35 0 65 15t54 44q15 18 34 48.5t27 74.5l49 296h56l-86 -516h-56zM268 631q-23 0 -32.5 9t-9.5 20q0 9 3 20
q4 17 14.5 26t33.5 9t32.5 -9t9.5 -20q0 -10 -3 -20q-4 -17 -14.5 -26t-33.5 -9zM452 631q-23 0 -32.5 9t-9.5 20q0 9 3 20q4 17 14.5 26t33.5 9t32.5 -9t9.5 -20q0 -10 -3 -20q-4 -17 -14.5 -26t-33.5 -9z" />
    <glyph glyph-name="uni1EE5" unicode="&#x1ee5;" 
d="M408 119h-4q-29 -61 -70.5 -96t-105.5 -35q-66 0 -102.5 38.5t-36.5 107.5q0 31 6 63l53 319h56l-52 -313q-3 -17 -4 -32t-1 -26q0 -52 24.5 -79.5t73.5 -27.5q35 0 65 15t54 44q15 18 34 48.5t27 74.5l49 296h56l-86 -516h-56zM234 -158q-23 0 -32 9t-9 20q0 10 3 21
q4 16 14 25.5t33 9.5t32 -9t9 -20q0 -4 -0.5 -10t-2.5 -11q-4 -16 -14 -25.5t-33 -9.5z" />
    <glyph glyph-name="ugrave" unicode="&#xf9;" 
d="M408 119h-4q-29 -61 -70.5 -96t-105.5 -35q-66 0 -102.5 38.5t-36.5 107.5q0 31 6 63l53 319h56l-52 -313q-3 -17 -4 -32t-1 -26q0 -52 24.5 -79.5t73.5 -27.5q35 0 65 15t54 44q15 18 34 48.5t27 74.5l49 296h56l-86 -516h-56zM273 751l53 21l65 -167l-37 -15z" />
    <glyph glyph-name="uni1EE7" unicode="&#x1ee7;" 
d="M408 119h-4q-29 -61 -70.5 -96t-105.5 -35q-66 0 -102.5 38.5t-36.5 107.5q0 31 6 63l53 319h56l-52 -313q-3 -17 -4 -32t-1 -26q0 -52 24.5 -79.5t73.5 -27.5q35 0 65 15t54 44q15 18 34 48.5t27 74.5l49 296h56l-86 -516h-56zM301 758h114q26 0 38 -10.5t12 -27.5
q0 -16 -10.5 -33.5t-35.5 -44.5l-50 -58l-33 20l82 110h-125z" />
    <glyph glyph-name="uhungarumlaut" unicode="&#x171;" 
d="M408 119h-4q-29 -61 -70.5 -96t-105.5 -35q-66 0 -102.5 38.5t-36.5 107.5q0 31 6 63l53 319h56l-52 -313q-3 -17 -4 -32t-1 -26q0 -52 24.5 -79.5t73.5 -27.5q35 0 65 15t54 44q15 18 34 48.5t27 74.5l49 296h56l-86 -516h-56zM277 590l-33 20l119 161l47 -27zM437 590
l-32 20l119 161l47 -27z" />
    <glyph glyph-name="umacron" unicode="&#x16b;" 
d="M408 119h-4q-29 -61 -70.5 -96t-105.5 -35q-66 0 -102.5 38.5t-36.5 107.5q0 31 6 63l53 319h56l-52 -313q-3 -17 -4 -32t-1 -26q0 -52 24.5 -79.5t73.5 -27.5q35 0 65 15t54 44q15 18 34 48.5t27 74.5l49 296h56l-86 -516h-56zM234 698h269l-8 -48h-269z" />
    <glyph glyph-name="uogonek" unicode="&#x173;" 
d="M444 0q-39 -23 -64.5 -41t-39.5 -33t-19.5 -28.5t-5.5 -25.5q0 -20 12 -28.5t29 -8.5t32 7t27 19l28 -30q-12 -14 -35 -25t-54 -11q-36 0 -62.5 16.5t-26.5 54.5q0 36 26.5 68t96.5 66l20 119h-4q-29 -61 -70.5 -96t-105.5 -35q-66 0 -102.5 38.5t-36.5 107.5q0 31 6 63
l53 319h56l-52 -313q-3 -17 -4 -32t-1 -26q0 -52 24.5 -79.5t73.5 -27.5q35 0 65 15t54 44q15 18 34 48.5t27 74.5l49 296h56z" />
    <glyph glyph-name="uring" unicode="&#x16f;" 
d="M408 119h-4q-29 -61 -70.5 -96t-105.5 -35q-66 0 -102.5 38.5t-36.5 107.5q0 31 6 63l53 319h56l-52 -313q-3 -17 -4 -32t-1 -26q0 -52 24.5 -79.5t73.5 -27.5q35 0 65 15t54 44q15 18 34 48.5t27 74.5l49 296h56l-86 -516h-56zM353 586q-42 0 -67 25t-25 65q0 25 9.5 47
t26 38t38 25t46.5 9q42 0 67 -25t25 -65q0 -26 -9.5 -47.5t-26 -37.5t-38 -25t-46.5 -9zM357 622q29 0 47.5 15.5t23.5 44.5q4 19 4 30q0 22 -14.5 34.5t-40.5 12.5q-29 0 -47.5 -15.5t-23.5 -44.5q-4 -19 -4 -30q0 -22 14.5 -34.5t40.5 -12.5z" />
    <glyph glyph-name="utilde" unicode="&#x169;" 
d="M408 119h-4q-29 -61 -70.5 -96t-105.5 -35q-66 0 -102.5 38.5t-36.5 107.5q0 31 6 63l53 319h56l-52 -313q-3 -17 -4 -32t-1 -26q0 -52 24.5 -79.5t73.5 -27.5q35 0 65 15t54 44q15 18 34 48.5t27 74.5l49 296h56l-86 -516h-56zM430 622q-23 0 -39 8.5t-35 20.5
q-18 12 -33 18t-31 6q-17 0 -32.5 -8.5t-32.5 -22.5l-22 30q19 20 42.5 33.5t51.5 13.5q23 0 39 -8.5t35 -20.5q18 -12 33 -18t31 -6q17 0 32.5 8.5t32.5 22.5l22 -30q-19 -20 -42.5 -33.5t-51.5 -13.5z" />
    <glyph glyph-name="uhorn" unicode="&#x1b0;" 
d="M621 526q-4 -22 -16.5 -35.5t-41.5 -13.5h-40l-79 -477h-56l20 119h-4q-29 -61 -70.5 -96t-105.5 -35q-66 0 -102.5 38.5t-36.5 107.5q0 31 6 63l53 319h56l-52 -313q-3 -17 -4 -32t-1 -26q0 -52 24.5 -79.5t73.5 -27.5q35 0 65 15t54 44q15 18 34 48.5t27 74.5l49 296
h95l18 111h50z" />
    <glyph glyph-name="uni1EE9" unicode="&#x1ee9;" 
d="M621 526q-4 -22 -16.5 -35.5t-41.5 -13.5h-40l-79 -477h-56l20 119h-4q-29 -61 -70.5 -96t-105.5 -35q-66 0 -102.5 38.5t-36.5 107.5q0 31 6 63l53 319h56l-52 -313q-3 -17 -4 -32t-1 -26q0 -52 24.5 -79.5t73.5 -27.5q35 0 65 15t54 44q15 18 34 48.5t27 74.5l49 296
h95l18 111h50zM350 590l-34 21l119 161l49 -29z" />
    <glyph glyph-name="uni1EF1" unicode="&#x1ef1;" 
d="M621 526q-4 -22 -16.5 -35.5t-41.5 -13.5h-40l-79 -477h-56l20 119h-4q-29 -61 -70.5 -96t-105.5 -35q-66 0 -102.5 38.5t-36.5 107.5q0 31 6 63l53 319h56l-52 -313q-3 -17 -4 -32t-1 -26q0 -52 24.5 -79.5t73.5 -27.5q35 0 65 15t54 44q15 18 34 48.5t27 74.5l49 296
h95l18 111h50zM234 -158q-23 0 -32 9t-9 20q0 10 3 21q4 16 14 25.5t33 9.5t32 -9t9 -20q0 -4 -0.5 -10t-2.5 -11q-4 -16 -14 -25.5t-33 -9.5z" />
    <glyph glyph-name="uni1EEB" unicode="&#x1eeb;" 
d="M621 526q-4 -22 -16.5 -35.5t-41.5 -13.5h-40l-79 -477h-56l20 119h-4q-29 -61 -70.5 -96t-105.5 -35q-66 0 -102.5 38.5t-36.5 107.5q0 31 6 63l53 319h56l-52 -313q-3 -17 -4 -32t-1 -26q0 -52 24.5 -79.5t73.5 -27.5q35 0 65 15t54 44q15 18 34 48.5t27 74.5l49 296
h95l18 111h50zM273 751l53 21l65 -167l-37 -15z" />
    <glyph glyph-name="uni1EED" unicode="&#x1eed;" 
d="M621 526q-4 -22 -16.5 -35.5t-41.5 -13.5h-40l-79 -477h-56l20 119h-4q-29 -61 -70.5 -96t-105.5 -35q-66 0 -102.5 38.5t-36.5 107.5q0 31 6 63l53 319h56l-52 -313q-3 -17 -4 -32t-1 -26q0 -52 24.5 -79.5t73.5 -27.5q35 0 65 15t54 44q15 18 34 48.5t27 74.5l49 296
h95l18 111h50zM301 758h114q26 0 38 -10.5t12 -27.5q0 -16 -10.5 -33.5t-35.5 -44.5l-50 -58l-33 20l82 110h-125z" />
    <glyph glyph-name="uni1EEF" unicode="&#x1eef;" 
d="M621 526q-4 -22 -16.5 -35.5t-41.5 -13.5h-40l-79 -477h-56l20 119h-4q-29 -61 -70.5 -96t-105.5 -35q-66 0 -102.5 38.5t-36.5 107.5q0 31 6 63l53 319h56l-52 -313q-3 -17 -4 -32t-1 -26q0 -52 24.5 -79.5t73.5 -27.5q35 0 65 15t54 44q15 18 34 48.5t27 74.5l49 296
h95l18 111h50zM424 625q-20 0 -34 7t-33 19q-17 11 -30.5 16.5t-27.5 5.5q-17 0 -32 -7.5t-32 -21.5l-24 29q19 20 42 33t51 13q20 0 34 -7t33 -19q17 -11 30.5 -16.5t27.5 -5.5q17 0 32 7.5t32 21.5l24 -29q-19 -20 -42 -33t-51 -13z" />
    <glyph glyph-name="wacute" unicode="&#x1e83;" 
d="M144 -12q-45 0 -67 27t-22 71q0 17 2 35t5 38l59 357h51l-58 -350q-4 -22 -5.5 -37.5t-1.5 -30.5q0 -32 14.5 -47.5t39.5 -15.5q24 0 43 13t33 34q14 20 22.5 46.5t12.5 49.5l57 338h50l-57 -346q-3 -19 -4 -35.5t-1 -32.5q0 -67 54 -67q33 0 60 27.5t45.5 72.5t29 102.5
t10.5 117.5q0 42 -6.5 83t-19.5 68l48 14q13 -29 21 -71t8 -92q0 -85 -18 -162.5t-53 -129.5q-26 -37 -59.5 -57t-75.5 -20q-40 0 -64.5 24.5t-21.5 82.5h-4q-20 -50 -50 -78.5t-77 -28.5zM364 590l-34 21l119 161l49 -29z" />
    <glyph glyph-name="wcircumflex" unicode="&#x175;" 
d="M144 -12q-45 0 -67 27t-22 71q0 17 2 35t5 38l59 357h51l-58 -350q-4 -22 -5.5 -37.5t-1.5 -30.5q0 -32 14.5 -47.5t39.5 -15.5q24 0 43 13t33 34q14 20 22.5 46.5t12.5 49.5l57 338h50l-57 -346q-3 -19 -4 -35.5t-1 -32.5q0 -67 54 -67q33 0 60 27.5t45.5 72.5t29 102.5
t10.5 117.5q0 42 -6.5 83t-19.5 68l48 14q13 -29 21 -71t8 -92q0 -85 -18 -162.5t-53 -129.5q-26 -37 -59.5 -57t-75.5 -20q-40 0 -64.5 24.5t-21.5 82.5h-4q-20 -50 -50 -78.5t-77 -28.5zM428 760l94 -142l-34 -20l-99 121l-141 -121l-29 25l139 137h70z" />
    <glyph glyph-name="wdieresis" unicode="&#x1e85;" 
d="M144 -12q-45 0 -67 27t-22 71q0 17 2 35t5 38l59 357h51l-58 -350q-4 -22 -5.5 -37.5t-1.5 -30.5q0 -32 14.5 -47.5t39.5 -15.5q24 0 43 13t33 34q14 20 22.5 46.5t12.5 49.5l57 338h50l-57 -346q-3 -19 -4 -35.5t-1 -32.5q0 -67 54 -67q33 0 60 27.5t45.5 72.5t29 102.5
t10.5 117.5q0 42 -6.5 83t-19.5 68l48 14q13 -29 21 -71t8 -92q0 -85 -18 -162.5t-53 -129.5q-26 -37 -59.5 -57t-75.5 -20q-40 0 -64.5 24.5t-21.5 82.5h-4q-20 -50 -50 -78.5t-77 -28.5zM282 631q-23 0 -32.5 9t-9.5 20q0 9 3 20q4 17 14.5 26t33.5 9t32.5 -9t9.5 -20
q0 -10 -3 -20q-4 -17 -14.5 -26t-33.5 -9zM466 631q-23 0 -32.5 9t-9.5 20q0 9 3 20q4 17 14.5 26t33.5 9t32.5 -9t9.5 -20q0 -10 -3 -20q-4 -17 -14.5 -26t-33.5 -9z" />
    <glyph glyph-name="wgrave" unicode="&#x1e81;" 
d="M144 -12q-45 0 -67 27t-22 71q0 17 2 35t5 38l59 357h51l-58 -350q-4 -22 -5.5 -37.5t-1.5 -30.5q0 -32 14.5 -47.5t39.5 -15.5q24 0 43 13t33 34q14 20 22.5 46.5t12.5 49.5l57 338h50l-57 -346q-3 -19 -4 -35.5t-1 -32.5q0 -67 54 -67q33 0 60 27.5t45.5 72.5t29 102.5
t10.5 117.5q0 42 -6.5 83t-19.5 68l48 14q13 -29 21 -71t8 -92q0 -85 -18 -162.5t-53 -129.5q-26 -37 -59.5 -57t-75.5 -20q-40 0 -64.5 24.5t-21.5 82.5h-4q-20 -50 -50 -78.5t-77 -28.5zM287 751l53 21l65 -167l-37 -15z" />
    <glyph glyph-name="yacute" unicode="&#xfd;" 
d="M203 -212q-60 0 -102.5 18t-69.5 51l40 38q20 -27 53 -42t83 -15q75 0 121.5 38.5t60.5 127.5l21 124h-3q-29 -60 -71 -95.5t-106 -35.5q-66 0 -102.5 38.5t-36.5 107.5q0 14 1.5 28.5t3.5 32.5l52 312h56l-51 -307q-3 -16 -4 -30t-1 -28q0 -49 25 -76.5t74 -27.5
q71 0 119 59q6 7 14.5 18.5t17.5 27.5t16.5 35t11.5 41l48 288h56l-87 -523q-18 -108 -81.5 -156.5t-158.5 -48.5zM351 590l-34 21l119 161l49 -29z" />
    <glyph glyph-name="ycircumflex" unicode="&#x177;" 
d="M203 -212q-60 0 -102.5 18t-69.5 51l40 38q20 -27 53 -42t83 -15q75 0 121.5 38.5t60.5 127.5l21 124h-3q-29 -60 -71 -95.5t-106 -35.5q-66 0 -102.5 38.5t-36.5 107.5q0 14 1.5 28.5t3.5 32.5l52 312h56l-51 -307q-3 -16 -4 -30t-1 -28q0 -49 25 -76.5t74 -27.5
q71 0 119 59q6 7 14.5 18.5t17.5 27.5t16.5 35t11.5 41l48 288h56l-87 -523q-18 -108 -81.5 -156.5t-158.5 -48.5zM415 760l94 -142l-34 -20l-99 121l-141 -121l-29 25l139 137h70z" />
    <glyph glyph-name="ydieresis" unicode="&#xff;" 
d="M203 -212q-60 0 -102.5 18t-69.5 51l40 38q20 -27 53 -42t83 -15q75 0 121.5 38.5t60.5 127.5l21 124h-3q-29 -60 -71 -95.5t-106 -35.5q-66 0 -102.5 38.5t-36.5 107.5q0 14 1.5 28.5t3.5 32.5l52 312h56l-51 -307q-3 -16 -4 -30t-1 -28q0 -49 25 -76.5t74 -27.5
q71 0 119 59q6 7 14.5 18.5t17.5 27.5t16.5 35t11.5 41l48 288h56l-87 -523q-18 -108 -81.5 -156.5t-158.5 -48.5zM269 631q-23 0 -32.5 9t-9.5 20q0 9 3 20q4 17 14.5 26t33.5 9t32.5 -9t9.5 -20q0 -10 -3 -20q-4 -17 -14.5 -26t-33.5 -9zM453 631q-23 0 -32.5 9t-9.5 20
q0 9 3 20q4 17 14.5 26t33.5 9t32.5 -9t9.5 -20q0 -10 -3 -20q-4 -17 -14.5 -26t-33.5 -9z" />
    <glyph glyph-name="uni1EF5" unicode="&#x1ef5;" 
d="M203 -212q-60 0 -102.5 18t-69.5 51l40 38q20 -27 53 -42t83 -15q75 0 121.5 38.5t60.5 127.5l21 124h-3q-29 -60 -71 -95.5t-106 -35.5q-66 0 -102.5 38.5t-36.5 107.5q0 14 1.5 28.5t3.5 32.5l52 312h56l-51 -307q-3 -16 -4 -30t-1 -28q0 -49 25 -76.5t74 -27.5
q71 0 119 59q6 7 14.5 18.5t17.5 27.5t16.5 35t11.5 41l48 288h56l-87 -523q-18 -108 -81.5 -156.5t-158.5 -48.5zM227 -44q21 0 29.5 -7.5t8.5 -18.5q0 -5 -1 -10l-2 -10q-3 -14 -12.5 -23.5t-31.5 -9.5q-21 0 -29.5 7.5t-8.5 18.5q0 5 1 10l2 10q3 14 12.5 23.5t31.5 9.5z
" />
    <glyph glyph-name="ygrave" unicode="&#x1ef3;" 
d="M203 -212q-60 0 -102.5 18t-69.5 51l40 38q20 -27 53 -42t83 -15q75 0 121.5 38.5t60.5 127.5l21 124h-3q-29 -60 -71 -95.5t-106 -35.5q-66 0 -102.5 38.5t-36.5 107.5q0 14 1.5 28.5t3.5 32.5l52 312h56l-51 -307q-3 -16 -4 -30t-1 -28q0 -49 25 -76.5t74 -27.5
q71 0 119 59q6 7 14.5 18.5t17.5 27.5t16.5 35t11.5 41l48 288h56l-87 -523q-18 -108 -81.5 -156.5t-158.5 -48.5zM274 751l53 21l65 -167l-37 -15z" />
    <glyph glyph-name="uni1EF7" unicode="&#x1ef7;" 
d="M203 -212q-60 0 -102.5 18t-69.5 51l40 38q20 -27 53 -42t83 -15q75 0 121.5 38.5t60.5 127.5l21 124h-3q-29 -60 -71 -95.5t-106 -35.5q-66 0 -102.5 38.5t-36.5 107.5q0 14 1.5 28.5t3.5 32.5l52 312h56l-51 -307q-3 -16 -4 -30t-1 -28q0 -49 25 -76.5t74 -27.5
q71 0 119 59q6 7 14.5 18.5t17.5 27.5t16.5 35t11.5 41l48 288h56l-87 -523q-18 -108 -81.5 -156.5t-158.5 -48.5zM302 758h114q26 0 38 -10.5t12 -27.5q0 -16 -10.5 -33.5t-35.5 -44.5l-50 -58l-33 20l82 110h-125z" />
    <glyph glyph-name="uni1EF9" unicode="&#x1ef9;" 
d="M203 -212q-60 0 -102.5 18t-69.5 51l40 38q20 -27 53 -42t83 -15q75 0 121.5 38.5t60.5 127.5l21 124h-3q-29 -60 -71 -95.5t-106 -35.5q-66 0 -102.5 38.5t-36.5 107.5q0 14 1.5 28.5t3.5 32.5l52 312h56l-51 -307q-3 -16 -4 -30t-1 -28q0 -49 25 -76.5t74 -27.5
q71 0 119 59q6 7 14.5 18.5t17.5 27.5t16.5 35t11.5 41l48 288h56l-87 -523q-18 -108 -81.5 -156.5t-158.5 -48.5zM431 622q-23 0 -39 8.5t-35 20.5q-18 12 -33 18t-31 6q-17 0 -32.5 -8.5t-32.5 -22.5l-22 30q19 20 42.5 33.5t51.5 13.5q23 0 39 -8.5t35 -20.5
q18 -12 33 -18t31 -6q17 0 32.5 8.5t32.5 22.5l22 -30q-19 -20 -42.5 -33.5t-51.5 -13.5z" />
    <glyph glyph-name="zacute" unicode="&#x17a;" 
d="M439 -12q-17 0 -36.5 4t-45.5 11l-235 62l-5 -4l-10 -61h-56l13 77l385 343q-73 34 -118 46.5t-79 12.5q-57 0 -78 -34t-22 -101h-47v15q0 169 148 169q81 0 200 -62l29 -15l5 4l10 61h56l-13 -77l-383 -341l293 -65l9 9l-31 153l43 13l18 -63q8 -29 14 -53.5t6 -42.5
q0 -23 -17.5 -42t-52.5 -19zM346 590l-34 21l119 161l49 -29z" />
    <glyph glyph-name="zcaron" unicode="&#x17e;" 
d="M439 -12q-17 0 -36.5 4t-45.5 11l-235 62l-5 -4l-10 -61h-56l13 77l385 343q-73 34 -118 46.5t-79 12.5q-57 0 -78 -34t-22 -101h-47v15q0 169 148 169q81 0 200 -62l29 -15l5 4l10 61h56l-13 -77l-383 -341l293 -65l9 9l-31 153l43 13l18 -63q8 -29 14 -53.5t6 -42.5
q0 -23 -17.5 -42t-52.5 -19zM315 604l-95 142l34 21l99 -121l142 121l28 -25l-139 -138h-69z" />
    <glyph glyph-name="zdotaccent" unicode="&#x17c;" 
d="M439 -12q-17 0 -36.5 4t-45.5 11l-235 62l-5 -4l-10 -61h-56l13 77l385 343q-73 34 -118 46.5t-79 12.5q-57 0 -78 -34t-22 -101h-47v15q0 169 148 169q81 0 200 -62l29 -15l5 4l10 61h56l-13 -77l-383 -341l293 -65l9 9l-31 153l43 13l18 -63q8 -29 14 -53.5t6 -42.5
q0 -23 -17.5 -42t-52.5 -19zM357 626q-26 0 -36 10t-10 22q0 5 1 11.5t2 11.5q3 17 14.5 27.5t36.5 10.5q26 0 36 -10t10 -22q0 -5 -1 -11.5t-2 -11.5q-3 -17 -14.5 -27.5t-36.5 -10.5z" />
    <glyph glyph-name="Aacute" unicode="&#xc1;" 
d="M458 0l-30 213h-265l-102 -213h-63l337 698h79l105 -698h-61zM368 637h-7l-176 -372h236zM385 760l-34 21l119 161l49 -29z" />
    <glyph glyph-name="Abreve" unicode="&#x102;" 
d="M458 0l-30 213h-265l-102 -213h-63l337 698h79l105 -698h-61zM368 637h-7l-176 -372h236zM390 771q-35 0 -57.5 12.5t-37 32.5t-23 45.5t-14.5 52.5l35 15l17 -40q16 -38 32.5 -55t48.5 -17q16 0 28.5 4t24 12.5t24 22t27.5 33.5l31 40l36 -15q-15 -27 -30.5 -52.5
t-35.5 -45.5t-46 -32.5t-60 -12.5z" />
    <glyph glyph-name="Acircumflex" unicode="&#xc2;" 
d="M458 0l-30 213h-265l-102 -213h-63l337 698h79l105 -698h-61zM368 637h-7l-176 -372h236zM449 930l94 -142l-34 -20l-99 121l-141 -121l-29 25l139 137h70z" />
    <glyph glyph-name="Adieresis" unicode="&#xc4;" 
d="M458 0l-30 213h-265l-102 -213h-63l337 698h79l105 -698h-61zM368 637h-7l-176 -372h236zM303 801q-23 0 -32.5 9t-9.5 20q0 9 3 20q4 17 14.5 26t33.5 9t32.5 -9t9.5 -20q0 -10 -3 -20q-4 -17 -14.5 -26t-33.5 -9zM487 801q-23 0 -32.5 9t-9.5 20q0 9 3 20q4 17 14.5 26
t33.5 9t32.5 -9t9.5 -20q0 -10 -3 -20q-4 -17 -14.5 -26t-33.5 -9z" />
    <glyph glyph-name="uni1EA0" unicode="&#x1ea0;" 
d="M458 0l-30 213h-265l-102 -213h-63l337 698h79l105 -698h-61zM368 637h-7l-176 -372h236zM238 -158q-23 0 -32 9t-9 20q0 10 3 21q4 16 14 25.5t33 9.5t32 -9t9 -20q0 -4 -0.5 -10t-2.5 -11q-4 -16 -14 -25.5t-33 -9.5z" />
    <glyph glyph-name="Agrave" unicode="&#xc0;" 
d="M458 0l-30 213h-265l-102 -213h-63l337 698h79l105 -698h-61zM368 637h-7l-176 -372h236zM309 919l52 23l65 -167l-37 -15z" />
    <glyph glyph-name="uni1EA2" unicode="&#x1ea2;" 
d="M458 0l-30 213h-265l-102 -213h-63l337 698h79l105 -698h-61zM368 637h-7l-176 -372h236zM336 928h114q26 0 38 -10.5t12 -27.5q0 -16 -10.5 -33.5t-35.5 -44.5l-50 -58l-33 20l82 110h-125z" />
    <glyph glyph-name="Amacron" unicode="&#x100;" 
d="M458 0l-30 213h-265l-102 -213h-63l337 698h79l105 -698h-61zM368 637h-7l-176 -372h236zM269 868h269l-8 -48h-269z" />
    <glyph glyph-name="Aogonek" unicode="&#x104;" 
d="M335 698h79l105 -698q-41 -23 -66 -41t-39.5 -33t-19.5 -28.5t-5 -25.5q0 -20 12 -28.5t29 -8.5t32 7t28 19l28 -30q-13 -14 -35.5 -25t-54.5 -11q-35 0 -62 16.5t-27 54.5q0 18 5.5 34.5t19 33t36.5 33t58 33.5l-30 213h-265l-102 -213h-63zM368 637h-7l-176 -372h236z
" />
    <glyph glyph-name="Aring" unicode="&#xc5;" 
d="M458 0l-30 213h-265l-102 -213h-63l337 698h79l105 -698h-61zM368 637h-7l-176 -372h236zM388 756q-42 0 -67 25t-25 65q0 25 9.5 47t26 38t38 25t46.5 9q42 0 67 -25t25 -65q0 -26 -9.5 -47.5t-26 -37.5t-38 -25t-46.5 -9zM392 792q29 0 47.5 15.5t23.5 44.5q4 19 4 30
q0 22 -14.5 34.5t-40.5 12.5q-29 0 -47.5 -15.5t-23.5 -44.5q-4 -19 -4 -30q0 -22 14.5 -34.5t40.5 -12.5z" />
    <glyph glyph-name="Aringacute" unicode="&#x1fa;" 
d="M458 0l-30 213h-265l-102 -213h-63l337 698h79l105 -698h-61zM368 637h-7l-176 -372h236zM424 982l-27 21l92 109l39 -29zM388 750q-42 0 -67 25t-25 65q0 25 9.5 47t26 38t38 25t46.5 9q42 0 67 -25t25 -65q0 -26 -9.5 -47.5t-26 -37.5t-38 -25t-46.5 -9zM392 786
q29 0 47.5 15.5t23.5 44.5q4 19 4 30q0 22 -14.5 34.5t-40.5 12.5q-29 0 -47.5 -15.5t-23.5 -44.5q-4 -19 -4 -30q0 -22 14.5 -34.5t40.5 -12.5z" />
    <glyph glyph-name="Atilde" unicode="&#xc3;" 
d="M458 0l-30 213h-265l-102 -213h-63l337 698h79l105 -698h-61zM368 637h-7l-176 -372h236zM465 792q-23 0 -39 8.5t-35 20.5q-18 12 -33 18t-31 6q-17 0 -32.5 -8.5t-32.5 -22.5l-22 30q19 20 42.5 33.5t51.5 13.5q23 0 39 -8.5t35 -20.5q18 -12 33 -18t31 -6
q17 0 32.5 8.5t32.5 22.5l22 -30q-19 -20 -42.5 -33.5t-51.5 -13.5z" />
    <glyph glyph-name="uni1EAE" unicode="&#x1eae;" 
d="M458 0l-30 213h-265l-102 -213h-63l337 698h79l105 -698h-61zM368 637h-7l-176 -372h236zM388 762q-35 0 -58 11.5t-37.5 30.5t-23 43t-14.5 50l33 17l18 -39q17 -37 35 -52.5t50 -15.5q30 0 54 14.5t54 53.5l30 39l36 -17q-15 -27 -31.5 -51t-37.5 -43t-47.5 -30
t-60.5 -11zM400 878l-33 20l120 161l47 -28z" />
    <glyph glyph-name="uni1EB6" unicode="&#x1eb6;" 
d="M458 0l-30 213h-265l-102 -213h-63l337 698h79l105 -698h-61zM368 637h-7l-176 -372h236zM390 771q-35 0 -57.5 12.5t-37 32.5t-23 45.5t-14.5 52.5l35 15l17 -40q16 -38 32.5 -55t48.5 -17q16 0 28.5 4t24 12.5t24 22t27.5 33.5l31 40l36 -15q-15 -27 -30.5 -52.5
t-35.5 -45.5t-46 -32.5t-60 -12.5zM238 -158q-23 0 -32 9t-9 20q0 10 3 21q4 16 14 25.5t33 9.5t32 -9t9 -20q0 -4 -0.5 -10t-2.5 -11q-4 -16 -14 -25.5t-33 -9.5z" />
    <glyph glyph-name="uni1EB0" unicode="&#x1eb0;" 
d="M458 0l-30 213h-265l-102 -213h-63l337 698h79l105 -698h-61zM368 637h-7l-176 -372h236zM388 762q-35 0 -58 11.5t-37.5 30.5t-23 43t-14.5 50l33 17l18 -39q17 -37 35 -52.5t50 -15.5q30 0 54 14.5t54 53.5l30 39l36 -17q-15 -27 -31.5 -51t-37.5 -43t-47.5 -30
t-60.5 -11zM314 1039l51 20l65 -167l-36 -14z" />
    <glyph glyph-name="uni1EB2" unicode="&#x1eb2;" 
d="M458 0l-30 213h-265l-102 -213h-63l337 698h79l105 -698h-61zM368 637h-7l-176 -372h236zM341 1047h107q26 0 38 -10.5t12 -26.5q0 -14 -8.5 -28.5t-28.5 -37.5l-60 -71l-32 20l82 110h-117zM388 762q-35 0 -58 11.5t-37.5 30.5t-23 43t-14.5 50l33 17l18 -39
q17 -37 35 -52.5t50 -15.5q30 0 54 14.5t54 53.5l30 39l36 -17q-15 -27 -31.5 -51t-37.5 -43t-47.5 -30t-60.5 -11z" />
    <glyph glyph-name="uni1EB4" unicode="&#x1eb4;" 
d="M458 0l-30 213h-265l-102 -213h-63l337 698h79l105 -698h-61zM368 637h-7l-176 -372h236zM481 945q-23 0 -40 7.5t-34 18.5q-20 11 -35 16.5t-29 5.5q-17 0 -32 -7.5t-32 -21.5l-22 26q20 20 42 33.5t52 13.5q23 0 40 -7.5t34 -18.5q20 -11 35 -16.5t29 -5.5q17 0 32 7.5
t32 21.5l22 -26q-20 -20 -42 -33.5t-52 -13.5zM388 762q-35 0 -58 11.5t-37.5 30.5t-23 43t-14.5 50l33 17l18 -39q17 -37 35 -52.5t50 -15.5q30 0 54 14.5t54 53.5l30 39l36 -17q-15 -27 -31.5 -51t-37.5 -43t-47.5 -30t-60.5 -11z" />
    <glyph glyph-name="uni1EA4" unicode="&#x1ea4;" 
d="M458 0l-30 213h-265l-102 -213h-63l337 698h79l105 -698h-61zM368 637h-7l-176 -372h236zM541 878l-32 20l120 161l46 -28zM447 921l94 -142l-34 -20l-99 121l-141 -121l-29 25l139 137h70z" />
    <glyph glyph-name="uni1EAC" unicode="&#x1eac;" 
d="M458 0l-30 213h-265l-102 -213h-63l337 698h79l105 -698h-61zM368 637h-7l-176 -372h236zM449 930l94 -142l-34 -20l-99 121l-141 -121l-29 25l139 137h70zM238 -158q-23 0 -32 9t-9 20q0 10 3 21q4 16 14 25.5t33 9.5t32 -9t9 -20q0 -4 -0.5 -10t-2.5 -11
q-4 -16 -14 -25.5t-33 -9.5z" />
    <glyph glyph-name="uni1EA6" unicode="&#x1ea6;" 
d="M458 0l-30 213h-265l-102 -213h-63l337 698h79l105 -698h-61zM368 637h-7l-176 -372h236zM190 1042l51 20l65 -166l-35 -15zM447 921l94 -142l-34 -20l-99 121l-141 -121l-29 25l139 137h70z" />
    <glyph glyph-name="uni1EA8" unicode="&#x1ea8;" 
d="M458 0l-30 213h-265l-102 -213h-63l337 698h79l105 -698h-61zM368 637h-7l-176 -372h236zM477 1050h113q27 0 39 -10.5t12 -26.5q0 -14 -8.5 -28.5t-28.5 -37.5l-60 -71l-32 20l82 110h-125zM447 921l94 -142l-34 -20l-99 121l-141 -121l-29 25l139 137h70z" />
    <glyph glyph-name="uni1EAA" unicode="&#x1eaa;" 
d="M458 0l-30 213h-265l-102 -213h-63l337 698h79l105 -698h-61zM368 637h-7l-176 -372h236zM361 1050q23 0 39 -8.5t35 -20.5q18 -12 33 -18t31 -6q17 0 32.5 8.5t32.5 22.5l22 -30q-19 -20 -42.5 -33.5t-51.5 -13.5q-23 0 -39 8.5t-35 20.5q-18 12 -33 18t-31 6
q-17 0 -32.5 -8.5t-32.5 -22.5l-22 30q19 20 42.5 33.5t51.5 13.5zM448 915l95 -137l-35 -19l-100 117l-140 -117l-29 26l139 130h70z" />
    <glyph glyph-name="AE" unicode="&#xc6;" 
d="M306 214h-164l-99 -214h-61l327 698h314l-8 -50h-181l-44 -269h168l-9 -50h-168l-46 -279h181l-8 -50h-237zM343 654l-180 -391h152l64 391h-36z" />
    <glyph glyph-name="AEacute" unicode="&#x1fc;" 
d="M306 214h-164l-99 -214h-61l327 698h314l-8 -50h-181l-44 -269h168l-9 -50h-168l-46 -279h181l-8 -50h-237zM343 654l-180 -391h152l64 391h-36zM424 760l-34 21l119 161l49 -29z" />
    <glyph glyph-name="Cacute" unicode="&#x106;" 
d="M284 -12q-100 0 -150.5 61t-50.5 183q0 48 6.5 102t21 107t37.5 102t57 86t79 59t103 22q44 0 76 -12t53.5 -33t35 -48.5t20.5 -57.5l-53 -17q-6 25 -16 46.5t-26 37t-38.5 24t-55.5 8.5q-87 0 -143.5 -68.5t-76.5 -191.5l-14 -82q-5 -26 -6.5 -50t-1.5 -47
q0 -85 36.5 -132t112.5 -47q62 0 102.5 34.5t79.5 105.5l47 -24q-42 -82 -96 -125t-139 -43zM400 760l-34 21l119 161l49 -29z" />
    <glyph glyph-name="Ccaron" unicode="&#x10c;" 
d="M284 -12q-100 0 -150.5 61t-50.5 183q0 48 6.5 102t21 107t37.5 102t57 86t79 59t103 22q44 0 76 -12t53.5 -33t35 -48.5t20.5 -57.5l-53 -17q-6 25 -16 46.5t-26 37t-38.5 24t-55.5 8.5q-87 0 -143.5 -68.5t-76.5 -191.5l-14 -82q-5 -26 -6.5 -50t-1.5 -47
q0 -85 36.5 -132t112.5 -47q62 0 102.5 34.5t79.5 105.5l47 -24q-42 -82 -96 -125t-139 -43zM369 774l-95 142l34 21l99 -121l142 121l28 -25l-139 -138h-69z" />
    <glyph glyph-name="Ccedilla" unicode="&#xc7;" 
d="M383 658q-87 0 -143.5 -68.5t-76.5 -191.5l-14 -82q-5 -26 -6.5 -50t-1.5 -47q0 -85 36.5 -132t112.5 -47q62 0 102.5 34.5t79.5 105.5l47 -24q-20 -39 -42.5 -69.5t-49 -51.5t-58 -33t-70.5 -13l-21 -55l2 -2q9 2 18.5 2.5t15.5 0.5q28 0 43.5 -14.5t15.5 -42.5
q0 -41 -30.5 -62t-75.5 -21q-35 0 -57 11.5t-31 25.5l29 30q9 -12 23 -19.5t36 -7.5q26 0 42 11.5t16 31.5q0 13 -11 24.5t-46 15.5l-33 3l26 68q-88 7 -133 67.5t-45 175.5q0 48 6.5 102t21 107t37.5 102t57 86t79 59t103 22q44 0 76 -12t53.5 -33t35 -48.5t20.5 -57.5
l-53 -17q-6 25 -16 46.5t-26 37t-38.5 24t-55.5 8.5z" />
    <glyph glyph-name="Ccircumflex" unicode="&#x108;" 
d="M284 -12q-100 0 -150.5 61t-50.5 183q0 48 6.5 102t21 107t37.5 102t57 86t79 59t103 22q44 0 76 -12t53.5 -33t35 -48.5t20.5 -57.5l-53 -17q-6 25 -16 46.5t-26 37t-38.5 24t-55.5 8.5q-87 0 -143.5 -68.5t-76.5 -191.5l-14 -82q-5 -26 -6.5 -50t-1.5 -47
q0 -85 36.5 -132t112.5 -47q62 0 102.5 34.5t79.5 105.5l47 -24q-42 -82 -96 -125t-139 -43zM464 930l94 -142l-34 -20l-99 121l-141 -121l-29 25l139 137h70z" />
    <glyph glyph-name="Cdotaccent" unicode="&#x10a;" 
d="M284 -12q-100 0 -150.5 61t-50.5 183q0 48 6.5 102t21 107t37.5 102t57 86t79 59t103 22q44 0 76 -12t53.5 -33t35 -48.5t20.5 -57.5l-53 -17q-6 25 -16 46.5t-26 37t-38.5 24t-55.5 8.5q-87 0 -143.5 -68.5t-76.5 -191.5l-14 -82q-5 -26 -6.5 -50t-1.5 -47
q0 -85 36.5 -132t112.5 -47q62 0 102.5 34.5t79.5 105.5l47 -24q-42 -82 -96 -125t-139 -43zM411 796q-26 0 -36 10t-10 22q0 5 1 11.5t2 11.5q3 17 14.5 27.5t36.5 10.5q26 0 36 -10t10 -22q0 -5 -1 -11.5t-2 -11.5q-3 -17 -14.5 -27.5t-36.5 -10.5z" />
    <glyph glyph-name="Dcaron" unicode="&#x10e;" 
d="M175 698h168q51 0 91.5 -16t68.5 -45.5t42.5 -71.5t14.5 -94q0 -110 -19.5 -197t-58.5 -148t-96.5 -93.5t-132.5 -32.5h-194zM257 52q89 0 146.5 60.5t77.5 180.5l13 81q5 23 6.5 48t1.5 48q0 86 -43 131t-122 45h-112l-99 -594h131zM313 774l-95 142l34 21l99 -121
l142 121l28 -25l-139 -138h-69z" />
    <glyph glyph-name="Dcroat" unicode="&#x110;" 
d="M117 346h-79l7 45h80l50 307h168q51 0 91.5 -16t68.5 -45.5t42.5 -71.5t14.5 -94q0 -110 -19.5 -197t-58.5 -148t-96.5 -93.5t-132.5 -32.5h-194zM257 52q89 0 146.5 60t77.5 181l13 81q4 23 6 48t2 48q0 86 -43 131t-122 45h-112l-42 -255h161l-7 -45h-161l-50 -294h131
z" />
    <glyph glyph-name="Eth" unicode="&#xd0;" 
d="M117 346h-79l7 45h80l50 307h168q51 0 91.5 -16t68.5 -45.5t42.5 -71.5t14.5 -94q0 -110 -19.5 -197t-58.5 -148t-96.5 -93.5t-132.5 -32.5h-194zM257 52q89 0 146.5 60t77.5 181l13 81q4 23 6 48t2 48q0 86 -43 131t-122 45h-112l-42 -255h161l-7 -45h-161l-50 -294h131
z" />
    <glyph glyph-name="Eacute" unicode="&#xc9;" 
d="M54 0l116 698h420l-8 -52h-362l-44 -266h349l-9 -52h-348l-46 -276h361l-8 -52h-421zM392 760l-34 21l119 161l49 -29z" />
    <glyph glyph-name="Ebreve" unicode="&#x114;" 
d="M54 0l116 698h420l-8 -52h-362l-44 -266h349l-9 -52h-348l-46 -276h361l-8 -52h-421zM397 771q-35 0 -57.5 12.5t-37 32.5t-23 45.5t-14.5 52.5l35 15l17 -40q16 -38 32.5 -55t48.5 -17q16 0 28.5 4t24 12.5t24 22t27.5 33.5l31 40l36 -15q-15 -27 -30.5 -52.5
t-35.5 -45.5t-46 -32.5t-60 -12.5z" />
    <glyph glyph-name="Ecaron" unicode="&#x11a;" 
d="M54 0l116 698h420l-8 -52h-362l-44 -266h349l-9 -52h-348l-46 -276h361l-8 -52h-421zM361 774l-95 142l34 21l99 -121l142 121l28 -25l-139 -138h-69z" />
    <glyph glyph-name="Ecircumflex" unicode="&#xca;" 
d="M54 0l116 698h420l-8 -52h-362l-44 -266h349l-9 -52h-348l-46 -276h361l-8 -52h-421zM456 930l94 -142l-34 -20l-99 121l-141 -121l-29 25l139 137h70z" />
    <glyph glyph-name="Edieresis" unicode="&#xcb;" 
d="M54 0l116 698h420l-8 -52h-362l-44 -266h349l-9 -52h-348l-46 -276h361l-8 -52h-421zM310 801q-23 0 -32.5 9t-9.5 20q0 9 3 20q4 17 14.5 26t33.5 9t32.5 -9t9.5 -20q0 -10 -3 -20q-4 -17 -14.5 -26t-33.5 -9zM494 801q-23 0 -32.5 9t-9.5 20q0 9 3 20q4 17 14.5 26
t33.5 9t32.5 -9t9.5 -20q0 -10 -3 -20q-4 -17 -14.5 -26t-33.5 -9z" />
    <glyph glyph-name="Edotaccent" unicode="&#x116;" 
d="M54 0l116 698h420l-8 -52h-362l-44 -266h349l-9 -52h-348l-46 -276h361l-8 -52h-421zM403 796q-26 0 -36 10t-10 22q0 5 1 11.5t2 11.5q3 17 14.5 27.5t36.5 10.5q26 0 36 -10t10 -22q0 -5 -1 -11.5t-2 -11.5q-3 -17 -14.5 -27.5t-36.5 -10.5z" />
    <glyph glyph-name="uni1EB8" unicode="&#x1eb8;" 
d="M54 0l116 698h420l-8 -52h-362l-44 -266h349l-9 -52h-348l-46 -276h361l-8 -52h-421zM252 -158q-23 0 -32 9t-9 20q0 10 3 21q4 16 14 25.5t33 9.5t32 -9t9 -20q0 -4 -0.5 -10t-2.5 -11q-4 -16 -14 -25.5t-33 -9.5z" />
    <glyph glyph-name="Egrave" unicode="&#xc8;" 
d="M54 0l116 698h420l-8 -52h-362l-44 -266h349l-9 -52h-348l-46 -276h361l-8 -52h-421zM316 919l52 23l65 -167l-37 -15z" />
    <glyph glyph-name="uni1EBA" unicode="&#x1eba;" 
d="M54 0l116 698h420l-8 -52h-362l-44 -266h349l-9 -52h-348l-46 -276h361l-8 -52h-421zM343 928h114q26 0 38 -10.5t12 -27.5q0 -16 -10.5 -33.5t-35.5 -44.5l-50 -58l-33 20l82 110h-125z" />
    <glyph glyph-name="Emacron" unicode="&#x112;" 
d="M54 0l116 698h420l-8 -52h-362l-44 -266h349l-9 -52h-348l-46 -276h361l-8 -52h-421zM276 868h269l-8 -48h-269z" />
    <glyph glyph-name="Eogonek" unicode="&#x118;" 
d="M170 698h420l-8 -52h-362l-45 -266h350l-9 -52h-349l-46 -276h362l-8 -52q-39 -24 -64.5 -42.5t-40 -33.5t-20 -27.5t-5.5 -24.5q0 -20 12 -28.5t29 -8.5t32 7t27 19l28 -30q-12 -14 -34.5 -25t-54.5 -11q-35 0 -62 16.5t-27 54.5q0 36 31 67t100 63l-1 4h-371z" />
    <glyph glyph-name="uni1EBC" unicode="&#x1ebc;" 
d="M54 0l116 698h420l-8 -52h-362l-44 -266h349l-9 -52h-348l-46 -276h361l-8 -52h-421zM472 792q-23 0 -39 8.5t-35 20.5q-18 12 -33 18t-31 6q-17 0 -32.5 -8.5t-32.5 -22.5l-22 30q19 20 42.5 33.5t51.5 13.5q23 0 39 -8.5t35 -20.5q18 -12 33 -18t31 -6q17 0 32.5 8.5
t32.5 22.5l22 -30q-19 -20 -42.5 -33.5t-51.5 -13.5z" />
    <glyph glyph-name="uni1EBE" unicode="&#x1ebe;" 
d="M54 0l116 698h420l-8 -52h-362l-44 -266h349l-9 -52h-348l-46 -276h361l-8 -52h-421zM548 878l-32 20l120 161l46 -28zM454 921l94 -142l-34 -20l-99 121l-141 -121l-29 25l139 137h70z" />
    <glyph glyph-name="uni1EC6" unicode="&#x1ec6;" 
d="M54 0l116 698h420l-8 -52h-362l-44 -266h349l-9 -52h-348l-46 -276h361l-8 -52h-421zM456 930l94 -142l-34 -20l-99 121l-141 -121l-29 25l139 137h70zM252 -158q-23 0 -32 9t-9 20q0 10 3 21q4 16 14 25.5t33 9.5t32 -9t9 -20q0 -4 -0.5 -10t-2.5 -11q-4 -16 -14 -25.5
t-33 -9.5z" />
    <glyph glyph-name="uni1EC0" unicode="&#x1ec0;" 
d="M54 0l116 698h420l-8 -52h-362l-44 -266h349l-9 -52h-348l-46 -276h361l-8 -52h-421zM197 1042l51 20l65 -166l-35 -15zM454 921l94 -142l-34 -20l-99 121l-141 -121l-29 25l139 137h70z" />
    <glyph glyph-name="uni1EC2" unicode="&#x1ec2;" 
d="M54 0l116 698h420l-8 -52h-362l-44 -266h349l-9 -52h-348l-46 -276h361l-8 -52h-421zM484 1050h113q27 0 39 -10.5t12 -26.5q0 -14 -8.5 -28.5t-28.5 -37.5l-60 -71l-32 20l82 110h-125zM454 921l94 -142l-34 -20l-99 121l-141 -121l-29 25l139 137h70z" />
    <glyph glyph-name="uni1EC4" unicode="&#x1ec4;" 
d="M54 0l116 698h420l-8 -52h-362l-44 -266h349l-9 -52h-348l-46 -276h361l-8 -52h-421zM368 1050q23 0 39 -8.5t35 -20.5q18 -12 33 -18t31 -6q17 0 32.5 8.5t32.5 22.5l22 -30q-19 -20 -42.5 -33.5t-51.5 -13.5q-23 0 -39 8.5t-35 20.5q-18 12 -33 18t-31 6
q-17 0 -32.5 -8.5t-32.5 -22.5l-22 30q19 20 42.5 33.5t51.5 13.5zM455 915l95 -137l-35 -19l-100 117l-140 -117l-29 26l139 130h70z" />
    <glyph glyph-name="uni018F" unicode="&#x18f;" 
d="M260 -12q-97 0 -145 58.5t-48 173.5q0 26 2 59t5 56l4 24h414l5 31q5 28 6.5 51.5t1.5 44.5q0 85 -33 129t-108 44q-69 0 -117 -39t-81 -108l-46 24q35 77 96.5 125.5t151.5 48.5q100 0 147 -59.5t47 -180.5q0 -49 -6.5 -104t-20.5 -108.5t-37 -102t-56.5 -86
t-78.5 -59.5t-103 -22zM264 39q89 0 143.5 69t74.5 190l2 12h-352q-5 -28 -6.5 -51.5t-1.5 -43.5q0 -41 7.5 -74t24 -55.5t43.5 -34.5t65 -12z" />
    <glyph glyph-name="Gbreve" unicode="&#x11e;" 
d="M439 102h-5q-14 -23 -30 -44t-36 -36.5t-46.5 -24.5t-60.5 -9q-92 0 -139 60t-47 184q0 48 6 102t20 107t36.5 102t56 86t78.5 59t103 22q45 0 77.5 -12t55.5 -33t37 -48.5t21 -57.5l-53 -17q-6 25 -16.5 46.5t-27 37t-39.5 24t-56 8.5q-90 0 -144.5 -69.5t-74.5 -191.5
l-14 -81q-5 -26 -6 -51t-1 -42q0 -88 33 -136.5t110 -48.5q37 0 67 13.5t53 37t38.5 55.5t21.5 69l12 72h-159l8 48h214l-56 -333h-55zM387 771q-35 0 -57.5 12.5t-37 32.5t-23 45.5t-14.5 52.5l35 15l17 -40q16 -38 32.5 -55t48.5 -17q16 0 28.5 4t24 12.5t24 22t27.5 33.5
l31 40l36 -15q-15 -27 -30.5 -52.5t-35.5 -45.5t-46 -32.5t-60 -12.5z" />
    <glyph glyph-name="Gcircumflex" unicode="&#x11c;" 
d="M439 102h-5q-14 -23 -30 -44t-36 -36.5t-46.5 -24.5t-60.5 -9q-92 0 -139 60t-47 184q0 48 6 102t20 107t36.5 102t56 86t78.5 59t103 22q45 0 77.5 -12t55.5 -33t37 -48.5t21 -57.5l-53 -17q-6 25 -16.5 46.5t-27 37t-39.5 24t-56 8.5q-90 0 -144.5 -69.5t-74.5 -191.5
l-14 -81q-5 -26 -6 -51t-1 -42q0 -88 33 -136.5t110 -48.5q37 0 67 13.5t53 37t38.5 55.5t21.5 69l12 72h-159l8 48h214l-56 -333h-55zM446 930l94 -142l-34 -20l-99 121l-141 -121l-29 25l139 137h70z" />
    <glyph glyph-name="Gcommaaccent" unicode="&#x122;" 
d="M439 102h-5q-14 -23 -30 -44t-36 -36.5t-46.5 -24.5t-60.5 -9q-92 0 -139 60t-47 184q0 48 6 102t20 107t36.5 102t56 86t78.5 59t103 22q45 0 77.5 -12t55.5 -33t37 -48.5t21 -57.5l-53 -17q-6 25 -16.5 46.5t-27 37t-39.5 24t-56 8.5q-90 0 -144.5 -69.5t-74.5 -191.5
l-14 -81q-5 -26 -6 -51t-1 -42q0 -88 33 -136.5t110 -48.5q37 0 67 13.5t53 37t38.5 55.5t21.5 69l12 72h-159l8 48h214l-56 -333h-55zM233 -66h75l-86 -184h-44z" />
    <glyph glyph-name="Gdotaccent" unicode="&#x120;" 
d="M439 102h-5q-14 -23 -30 -44t-36 -36.5t-46.5 -24.5t-60.5 -9q-92 0 -139 60t-47 184q0 48 6 102t20 107t36.5 102t56 86t78.5 59t103 22q45 0 77.5 -12t55.5 -33t37 -48.5t21 -57.5l-53 -17q-6 25 -16.5 46.5t-27 37t-39.5 24t-56 8.5q-90 0 -144.5 -69.5t-74.5 -191.5
l-14 -81q-5 -26 -6 -51t-1 -42q0 -88 33 -136.5t110 -48.5q37 0 67 13.5t53 37t38.5 55.5t21.5 69l12 72h-159l8 48h214l-56 -333h-55zM393 796q-26 0 -36 10t-10 22q0 5 1 11.5t2 11.5q3 17 14.5 27.5t36.5 10.5q26 0 36 -10t10 -22q0 -5 -1 -11.5t-2 -11.5
q-3 -17 -14.5 -27.5t-36.5 -10.5z" />
    <glyph glyph-name="Hbar" unicode="&#x126;" 
d="M465 328h-307l-54 -328h-59l87 525h-74l8 46h74l21 127h59l-21 -127h306l21 127h59l-21 -127h76l-8 -46h-76l-87 -525h-59zM473 380l24 145h-306l-24 -145h306z" />
    <glyph glyph-name="Hcircumflex" unicode="&#x124;" 
d="M465 328h-306l-55 -328h-59l116 698h59l-52 -318h305l53 318h59l-116 -698h-59zM448 930l94 -142l-34 -20l-99 121l-141 -121l-29 25l139 137h70z" />
    <glyph glyph-name="Iacute" unicode="&#xcd;" 
d="M44 0l8 48h184l101 602h-184l8 48h426l-8 -48h-184l-101 -602h184l-8 -48h-426zM384 760l-34 21l119 161l49 -29z" />
    <glyph glyph-name="Ibreve" unicode="&#x12c;" 
d="M44 0l8 48h184l101 602h-184l8 48h426l-8 -48h-184l-101 -602h184l-8 -48h-426zM389 771q-35 0 -57.5 12.5t-37 32.5t-23 45.5t-14.5 52.5l35 15l17 -40q16 -38 32.5 -55t48.5 -17q16 0 28.5 4t24 12.5t24 22t27.5 33.5l31 40l36 -15q-15 -27 -30.5 -52.5t-35.5 -45.5
t-46 -32.5t-60 -12.5z" />
    <glyph glyph-name="Icircumflex" unicode="&#xce;" 
d="M44 0l8 48h184l101 602h-184l8 48h426l-8 -48h-184l-101 -602h184l-8 -48h-426zM448 930l94 -142l-34 -20l-99 121l-141 -121l-29 25l139 137h70z" />
    <glyph glyph-name="Idieresis" unicode="&#xcf;" 
d="M44 0l8 48h184l101 602h-184l8 48h426l-8 -48h-184l-101 -602h184l-8 -48h-426zM302 801q-23 0 -32.5 9t-9.5 20q0 9 3 20q4 17 14.5 26t33.5 9t32.5 -9t9.5 -20q0 -10 -3 -20q-4 -17 -14.5 -26t-33.5 -9zM486 801q-23 0 -32.5 9t-9.5 20q0 9 3 20q4 17 14.5 26t33.5 9
t32.5 -9t9.5 -20q0 -10 -3 -20q-4 -17 -14.5 -26t-33.5 -9z" />
    <glyph glyph-name="Idotaccent" unicode="&#x130;" 
d="M44 0l8 48h184l101 602h-184l8 48h426l-8 -48h-184l-101 -602h184l-8 -48h-426zM395 796q-26 0 -36 10t-10 22q0 5 1 11.5t2 11.5q3 17 14.5 27.5t36.5 10.5q26 0 36 -10t10 -22q0 -5 -1 -11.5t-2 -11.5q-3 -17 -14.5 -27.5t-36.5 -10.5z" />
    <glyph glyph-name="uni1ECA" unicode="&#x1eca;" 
d="M44 0l8 48h184l101 602h-184l8 48h426l-8 -48h-184l-101 -602h184l-8 -48h-426zM236 -158q-23 0 -32 9t-9 20q0 10 3 21q4 16 14 25.5t33 9.5t32 -9t9 -20q0 -4 -0.5 -10t-2.5 -11q-4 -16 -14 -25.5t-33 -9.5z" />
    <glyph glyph-name="Igrave" unicode="&#xcc;" 
d="M44 0l8 48h184l101 602h-184l8 48h426l-8 -48h-184l-101 -602h184l-8 -48h-426zM308 919l52 23l65 -167l-37 -15z" />
    <glyph glyph-name="uni1EC8" unicode="&#x1ec8;" 
d="M44 0l8 48h184l101 602h-184l8 48h426l-8 -48h-184l-101 -602h184l-8 -48h-426zM335 928h114q26 0 38 -10.5t12 -27.5q0 -16 -10.5 -33.5t-35.5 -44.5l-50 -58l-33 20l82 110h-125z" />
    <glyph glyph-name="Imacron" unicode="&#x12a;" 
d="M44 0l8 48h184l101 602h-184l8 48h426l-8 -48h-184l-101 -602h184l-8 -48h-426zM268 868h269l-8 -48h-269z" />
    <glyph glyph-name="Iogonek" unicode="&#x12e;" 
d="M52 48h184l100 602h-183l8 48h425l-7 -48h-184l-101 -602h184l-8 -48q-39 -24 -64.5 -42.5t-40 -33.5t-20 -27.5t-5.5 -24.5q0 -20 12 -28.5t29 -8.5t32 7t27 19l29 -30q-13 -14 -35.5 -25t-54.5 -11q-35 0 -62 16.5t-27 54.5q0 36 31 67t100 63l-1 4h-376z" />
    <glyph glyph-name="Itilde" unicode="&#x128;" 
d="M44 0l8 48h184l101 602h-184l8 48h426l-8 -48h-184l-101 -602h184l-8 -48h-426zM464 792q-23 0 -39 8.5t-35 20.5q-18 12 -33 18t-31 6q-17 0 -32.5 -8.5t-32.5 -22.5l-22 30q19 20 42.5 33.5t51.5 13.5q23 0 39 -8.5t35 -20.5q18 -12 33 -18t31 -6q17 0 32.5 8.5
t32.5 22.5l22 -30q-19 -20 -42.5 -33.5t-51.5 -13.5z" />
    <glyph glyph-name="IJ" unicode="&#x132;" 
d="M572 698l-87 -521q-17 -97 -74.5 -143t-146.5 -46q-82 0 -130.5 39.5t-56.5 114.5l56 12q3 -24 11 -45t23 -36.5t39 -24t59 -8.5q138 0 164 152l84 506h59zM174 698h59l-69 -415h-58z" />
    <glyph glyph-name="IJacute" 
d="M572 698l-87 -521q-17 -97 -74.5 -143t-146.5 -46q-82 0 -130.5 39.5t-56.5 114.5l56 12q3 -24 11 -45t23 -36.5t39 -24t59 -8.5q138 0 164 152l84 506h59zM174 698h59l-69 -415h-58zM216 760l-34 21l119 161l49 -29zM553 760l-34 21l119 161l49 -29z" />
    <glyph glyph-name="Jacute" 
d="M546 698l-87 -521q-16 -95 -73 -142t-143 -47q-78 0 -125.5 39.5t-53.5 111.5l56 11q5 -50 34.5 -80t89.5 -30q133 0 159 154l76 452h-265l9 52h323zM396 760l-34 21l119 161l49 -29z" />
    <glyph glyph-name="Jcircumflex" unicode="&#x134;" 
d="M546 698l-87 -521q-16 -95 -73 -142t-143 -47q-78 0 -125.5 39.5t-53.5 111.5l56 11q5 -50 34.5 -80t89.5 -30q133 0 159 154l76 452h-265l9 52h323zM460 930l94 -142l-34 -20l-99 121l-141 -121l-29 25l139 137h70z" />
    <glyph glyph-name="Kcommaaccent" unicode="&#x136;" 
d="M286 361l-137 -133l-38 -228h-59l116 698h59l-64 -382h4l143 140l250 242h74l-305 -296l190 -402h-64zM219 -66h75l-86 -184h-44z" />
    <glyph glyph-name="Lacute" unicode="&#x139;" 
d="M88 0l116 698h59l-107 -646h342l-9 -52h-401zM245 760l-34 21l119 161l49 -29z" />
    <glyph glyph-name="Lcaron" unicode="&#x13d;" 
d="M88 0l116 698h59l-107 -646h342l-9 -52h-401zM376 557h-42l40 183h72z" />
    <glyph glyph-name="Lcommaaccent" unicode="&#x13b;" 
d="M88 0l116 698h59l-107 -646h342l-9 -52h-401zM241 -66h75l-86 -184h-44z" />
    <glyph glyph-name="Ldot" unicode="&#x13f;" 
d="M88 0l116 698h59l-107 -646h342l-9 -52h-401zM440 280q-26 0 -36 10t-10 22q0 5 1 11.5t2 11.5q3 17 14.5 27.5t36.5 10.5q26 0 36 -10t10 -22q0 -5 -1 -11.5t-2 -11.5q-3 -17 -14.5 -27.5t-36.5 -10.5z" />
    <glyph glyph-name="Lslash" unicode="&#x141;" 
d="M488 0h-400l47 285l-90 -28l8 50l91 27l60 364h59l-58 -348l229 71l-8 -50l-230 -71l-40 -248h341z" />
    <glyph glyph-name="Nacute" unicode="&#x143;" 
d="M210 629h-6l-104 -629h-55l116 698h85l174 -629h6l104 629h55l-116 -698h-85zM383 760l-34 21l119 161l49 -29z" />
    <glyph glyph-name="Ncaron" unicode="&#x147;" 
d="M210 629h-6l-104 -629h-55l116 698h85l174 -629h6l104 629h55l-116 -698h-85zM352 774l-95 142l34 21l99 -121l142 121l28 -25l-139 -138h-69z" />
    <glyph glyph-name="Ncommaaccent" unicode="&#x145;" 
d="M210 629h-6l-104 -629h-55l116 698h85l174 -629h6l104 629h55l-116 -698h-85zM208 -66h75l-86 -184h-44z" />
    <glyph glyph-name="Ntilde" unicode="&#xd1;" 
d="M210 629h-6l-104 -629h-55l116 698h85l174 -629h6l104 629h55l-116 -698h-85zM463 792q-23 0 -39 8.5t-35 20.5q-18 12 -33 18t-31 6q-17 0 -32.5 -8.5t-32.5 -22.5l-22 30q19 20 42.5 33.5t51.5 13.5q23 0 39 -8.5t35 -20.5q18 -12 33 -18t31 -6q17 0 32.5 8.5
t32.5 22.5l22 -30q-19 -20 -42.5 -33.5t-51.5 -13.5z" />
    <glyph glyph-name="Eng" unicode="&#x14a;" 
d="M45 0l116 698h85l174 -629h6l104 629h55l-139 -833q-5 -32 -19.5 -54.5t-46.5 -22.5q-22 0 -42 16.5t-50 45.5l-82 77l38 35l129 -124l13 4l28 158h-30l-174 629h-6l-104 -629h-55z" />
    <glyph glyph-name="Oacute" unicode="&#xd3;" 
d="M262 -12q-195 0 -195 235q0 50 6 105.5t20.5 110t37 103.5t56 86.5t78.5 59.5t103 22q195 0 195 -235q0 -50 -6 -105.5t-20.5 -110t-37 -103.5t-56 -86.5t-78.5 -59.5t-103 -22zM265 40q87 0 142 68t75 190l16 93q4 26 5.5 49.5t1.5 43.5q0 85 -33 129.5t-107 44.5
q-87 0 -142 -68t-75 -190l-16 -93q-4 -26 -5.5 -49.5t-1.5 -43.5q0 -85 33 -129.5t107 -44.5zM378 760l-34 21l119 161l49 -29z" />
    <glyph glyph-name="Obreve" unicode="&#x14e;" 
d="M262 -12q-195 0 -195 235q0 50 6 105.5t20.5 110t37 103.5t56 86.5t78.5 59.5t103 22q195 0 195 -235q0 -50 -6 -105.5t-20.5 -110t-37 -103.5t-56 -86.5t-78.5 -59.5t-103 -22zM265 40q87 0 142 68t75 190l16 93q4 26 5.5 49.5t1.5 43.5q0 85 -33 129.5t-107 44.5
q-87 0 -142 -68t-75 -190l-16 -93q-4 -26 -5.5 -49.5t-1.5 -43.5q0 -85 33 -129.5t107 -44.5zM383 771q-35 0 -57.5 12.5t-37 32.5t-23 45.5t-14.5 52.5l35 15l17 -40q16 -38 32.5 -55t48.5 -17q16 0 28.5 4t24 12.5t24 22t27.5 33.5l31 40l36 -15q-15 -27 -30.5 -52.5
t-35.5 -45.5t-46 -32.5t-60 -12.5z" />
    <glyph glyph-name="Ocircumflex" unicode="&#xd4;" 
d="M262 -12q-195 0 -195 235q0 50 6 105.5t20.5 110t37 103.5t56 86.5t78.5 59.5t103 22q195 0 195 -235q0 -50 -6 -105.5t-20.5 -110t-37 -103.5t-56 -86.5t-78.5 -59.5t-103 -22zM265 40q87 0 142 68t75 190l16 93q4 26 5.5 49.5t1.5 43.5q0 85 -33 129.5t-107 44.5
q-87 0 -142 -68t-75 -190l-16 -93q-4 -26 -5.5 -49.5t-1.5 -43.5q0 -85 33 -129.5t107 -44.5zM442 930l94 -142l-34 -20l-99 121l-141 -121l-29 25l139 137h70z" />
    <glyph glyph-name="Odieresis" unicode="&#xd6;" 
d="M262 -12q-195 0 -195 235q0 50 6 105.5t20.5 110t37 103.5t56 86.5t78.5 59.5t103 22q195 0 195 -235q0 -50 -6 -105.5t-20.5 -110t-37 -103.5t-56 -86.5t-78.5 -59.5t-103 -22zM265 40q87 0 142 68t75 190l16 93q4 26 5.5 49.5t1.5 43.5q0 85 -33 129.5t-107 44.5
q-87 0 -142 -68t-75 -190l-16 -93q-4 -26 -5.5 -49.5t-1.5 -43.5q0 -85 33 -129.5t107 -44.5zM296 801q-23 0 -32.5 9t-9.5 20q0 9 3 20q4 17 14.5 26t33.5 9t32.5 -9t9.5 -20q0 -10 -3 -20q-4 -17 -14.5 -26t-33.5 -9zM480 801q-23 0 -32.5 9t-9.5 20q0 9 3 20
q4 17 14.5 26t33.5 9t32.5 -9t9.5 -20q0 -10 -3 -20q-4 -17 -14.5 -26t-33.5 -9z" />
    <glyph glyph-name="uni1ECC" unicode="&#x1ecc;" 
d="M262 -12q-195 0 -195 235q0 50 6 105.5t20.5 110t37 103.5t56 86.5t78.5 59.5t103 22q195 0 195 -235q0 -50 -6 -105.5t-20.5 -110t-37 -103.5t-56 -86.5t-78.5 -59.5t-103 -22zM265 40q87 0 142 68t75 190l16 93q4 26 5.5 49.5t1.5 43.5q0 85 -33 129.5t-107 44.5
q-87 0 -142 -68t-75 -190l-16 -93q-4 -26 -5.5 -49.5t-1.5 -43.5q0 -85 33 -129.5t107 -44.5zM240 -158q-23 0 -32 9t-9 20q0 10 3 21q4 16 14 25.5t33 9.5t32 -9t9 -20q0 -4 -0.5 -10t-2.5 -11q-4 -16 -14 -25.5t-33 -9.5z" />
    <glyph glyph-name="Ograve" unicode="&#xd2;" 
d="M262 -12q-195 0 -195 235q0 50 6 105.5t20.5 110t37 103.5t56 86.5t78.5 59.5t103 22q195 0 195 -235q0 -50 -6 -105.5t-20.5 -110t-37 -103.5t-56 -86.5t-78.5 -59.5t-103 -22zM265 40q87 0 142 68t75 190l16 93q4 26 5.5 49.5t1.5 43.5q0 85 -33 129.5t-107 44.5
q-87 0 -142 -68t-75 -190l-16 -93q-4 -26 -5.5 -49.5t-1.5 -43.5q0 -85 33 -129.5t107 -44.5zM302 919l52 23l65 -167l-37 -15z" />
    <glyph glyph-name="uni1ECE" unicode="&#x1ece;" 
d="M262 -12q-195 0 -195 235q0 50 6 105.5t20.5 110t37 103.5t56 86.5t78.5 59.5t103 22q195 0 195 -235q0 -50 -6 -105.5t-20.5 -110t-37 -103.5t-56 -86.5t-78.5 -59.5t-103 -22zM265 40q87 0 142 68t75 190l16 93q4 26 5.5 49.5t1.5 43.5q0 85 -33 129.5t-107 44.5
q-87 0 -142 -68t-75 -190l-16 -93q-4 -26 -5.5 -49.5t-1.5 -43.5q0 -85 33 -129.5t107 -44.5zM329 928h114q26 0 38 -10.5t12 -27.5q0 -16 -10.5 -33.5t-35.5 -44.5l-50 -58l-33 20l82 110h-125z" />
    <glyph glyph-name="Ohungarumlaut" unicode="&#x150;" 
d="M262 -12q-195 0 -195 235q0 50 6 105.5t20.5 110t37 103.5t56 86.5t78.5 59.5t103 22q195 0 195 -235q0 -50 -6 -105.5t-20.5 -110t-37 -103.5t-56 -86.5t-78.5 -59.5t-103 -22zM265 40q87 0 142 68t75 190l16 93q4 26 5.5 49.5t1.5 43.5q0 85 -33 129.5t-107 44.5
q-87 0 -142 -68t-75 -190l-16 -93q-4 -26 -5.5 -49.5t-1.5 -43.5q0 -85 33 -129.5t107 -44.5zM305 760l-33 20l119 161l47 -27zM465 760l-32 20l119 161l47 -27z" />
    <glyph glyph-name="Omacron" unicode="&#x14c;" 
d="M262 -12q-195 0 -195 235q0 50 6 105.5t20.5 110t37 103.5t56 86.5t78.5 59.5t103 22q195 0 195 -235q0 -50 -6 -105.5t-20.5 -110t-37 -103.5t-56 -86.5t-78.5 -59.5t-103 -22zM265 40q87 0 142 68t75 190l16 93q4 26 5.5 49.5t1.5 43.5q0 85 -33 129.5t-107 44.5
q-87 0 -142 -68t-75 -190l-16 -93q-4 -26 -5.5 -49.5t-1.5 -43.5q0 -85 33 -129.5t107 -44.5zM262 868h269l-8 -48h-269z" />
    <glyph glyph-name="Oslash" unicode="&#xd8;" 
d="M261 -12q-95 0 -143 57l-55 -74l-41 26l69 92q-11 26 -17.5 59.5t-6.5 74.5q0 50 6 105.5t20.5 110t37.5 103.5t56.5 86.5t78.5 59.5t103 22q95 0 143 -57l55 74l41 -26l-69 -92q11 -26 17.5 -59.5t6.5 -74.5q0 -50 -6 -105.5t-20.5 -110t-37.5 -103.5t-56.5 -86.5
t-78.5 -59.5t-103 -22zM132 307q-4 -26 -5.5 -49.5t-1.5 -43.5q0 -21 2 -38.5t7 -31.5l343 462q-34 52 -112 52q-87 0 -142 -68t-75 -190zM265 40q87 0 142 68t75 190l16 93q4 26 5.5 49.5t1.5 43.5q0 21 -2 38.5t-7 31.5l-343 -462q34 -52 112 -52z" />
    <glyph glyph-name="Oslashacute" unicode="&#x1fe;" 
d="M261 -12q-95 0 -143 57l-55 -74l-41 26l69 92q-11 26 -17.5 59.5t-6.5 74.5q0 50 6 105.5t20.5 110t37.5 103.5t56.5 86.5t78.5 59.5t103 22q95 0 143 -57l55 74l41 -26l-69 -92q11 -26 17.5 -59.5t6.5 -74.5q0 -50 -6 -105.5t-20.5 -110t-37.5 -103.5t-56.5 -86.5
t-78.5 -59.5t-103 -22zM132 307q-4 -26 -5.5 -49.5t-1.5 -43.5q0 -21 2 -38.5t7 -31.5l343 462q-34 52 -112 52q-87 0 -142 -68t-75 -190zM265 40q87 0 142 68t75 190l16 93q4 26 5.5 49.5t1.5 43.5q0 21 -2 38.5t-7 31.5l-343 -462q34 -52 112 -52zM378 760l-34 21l119 161
l49 -29z" />
    <glyph glyph-name="Otilde" unicode="&#xd5;" 
d="M262 -12q-195 0 -195 235q0 50 6 105.5t20.5 110t37 103.5t56 86.5t78.5 59.5t103 22q195 0 195 -235q0 -50 -6 -105.5t-20.5 -110t-37 -103.5t-56 -86.5t-78.5 -59.5t-103 -22zM265 40q87 0 142 68t75 190l16 93q4 26 5.5 49.5t1.5 43.5q0 85 -33 129.5t-107 44.5
q-87 0 -142 -68t-75 -190l-16 -93q-4 -26 -5.5 -49.5t-1.5 -43.5q0 -85 33 -129.5t107 -44.5zM458 792q-23 0 -39 8.5t-35 20.5q-18 12 -33 18t-31 6q-17 0 -32.5 -8.5t-32.5 -22.5l-22 30q19 20 42.5 33.5t51.5 13.5q23 0 39 -8.5t35 -20.5q18 -12 33 -18t31 -6
q17 0 32.5 8.5t32.5 22.5l22 -30q-19 -20 -42.5 -33.5t-51.5 -13.5z" />
    <glyph glyph-name="Ohorn" unicode="&#x1a0;" 
d="M594 708q-4 -21 -16.5 -35t-41.5 -14h-29q56 -59 56 -184q0 -50 -6 -105.5t-20.5 -110t-37 -103.5t-56 -86.5t-78.5 -59.5t-103 -22q-195 0 -195 235q0 50 6.5 105.5t20.5 110t37 103.5t56.5 86.5t78.5 59.5t103 22q42 0 77 -12h96l18 111h50zM265 40q87 0 142 68t75 190
l16 93q4 26 5.5 49.5t1.5 43.5q0 85 -33 129.5t-107 44.5q-87 0 -142 -68t-75 -190l-16 -93q-4 -26 -5.5 -49.5t-1.5 -43.5q0 -85 33 -129.5t107 -44.5z" />
    <glyph glyph-name="uni1EDA" unicode="&#x1eda;" 
d="M594 708q-4 -21 -16.5 -35t-41.5 -14h-29q56 -59 56 -184q0 -50 -6 -105.5t-20.5 -110t-37 -103.5t-56 -86.5t-78.5 -59.5t-103 -22q-195 0 -195 235q0 50 6.5 105.5t20.5 110t37 103.5t56.5 86.5t78.5 59.5t103 22q42 0 77 -12h96l18 111h50zM265 40q87 0 142 68t75 190
l16 93q4 26 5.5 49.5t1.5 43.5q0 85 -33 129.5t-107 44.5q-87 0 -142 -68t-75 -190l-16 -93q-4 -26 -5.5 -49.5t-1.5 -43.5q0 -85 33 -129.5t107 -44.5zM378 760l-34 21l119 161l49 -29z" />
    <glyph glyph-name="uni1EE2" unicode="&#x1ee2;" 
d="M594 708q-4 -21 -16.5 -35t-41.5 -14h-29q56 -59 56 -184q0 -50 -6 -105.5t-20.5 -110t-37 -103.5t-56 -86.5t-78.5 -59.5t-103 -22q-195 0 -195 235q0 50 6.5 105.5t20.5 110t37 103.5t56.5 86.5t78.5 59.5t103 22q42 0 77 -12h96l18 111h50zM265 40q87 0 142 68t75 190
l16 93q4 26 5.5 49.5t1.5 43.5q0 85 -33 129.5t-107 44.5q-87 0 -142 -68t-75 -190l-16 -93q-4 -26 -5.5 -49.5t-1.5 -43.5q0 -85 33 -129.5t107 -44.5zM240 -158q-23 0 -32 9t-9 20q0 10 3 21q4 16 14 25.5t33 9.5t32 -9t9 -20q0 -4 -0.5 -10t-2.5 -11q-4 -16 -14 -25.5
t-33 -9.5z" />
    <glyph glyph-name="uni1EDC" unicode="&#x1edc;" 
d="M594 708q-4 -21 -16.5 -35t-41.5 -14h-29q56 -59 56 -184q0 -50 -6 -105.5t-20.5 -110t-37 -103.5t-56 -86.5t-78.5 -59.5t-103 -22q-195 0 -195 235q0 50 6.5 105.5t20.5 110t37 103.5t56.5 86.5t78.5 59.5t103 22q42 0 77 -12h96l18 111h50zM265 40q87 0 142 68t75 190
l16 93q4 26 5.5 49.5t1.5 43.5q0 85 -33 129.5t-107 44.5q-87 0 -142 -68t-75 -190l-16 -93q-4 -26 -5.5 -49.5t-1.5 -43.5q0 -85 33 -129.5t107 -44.5zM302 919l52 23l65 -167l-37 -15z" />
    <glyph glyph-name="uni1EDE" unicode="&#x1ede;" 
d="M594 708q-4 -21 -16.5 -35t-41.5 -14h-29q56 -59 56 -184q0 -50 -6 -105.5t-20.5 -110t-37 -103.5t-56 -86.5t-78.5 -59.5t-103 -22q-195 0 -195 235q0 50 6.5 105.5t20.5 110t37 103.5t56.5 86.5t78.5 59.5t103 22q42 0 77 -12h96l18 111h50zM265 40q87 0 142 68t75 190
l16 93q4 26 5.5 49.5t1.5 43.5q0 85 -33 129.5t-107 44.5q-87 0 -142 -68t-75 -190l-16 -93q-4 -26 -5.5 -49.5t-1.5 -43.5q0 -85 33 -129.5t107 -44.5zM329 928h114q26 0 38 -10.5t12 -27.5q0 -16 -10.5 -33.5t-35.5 -44.5l-50 -58l-33 20l82 110h-125z" />
    <glyph glyph-name="uni1EE0" unicode="&#x1ee0;" 
d="M594 708q-4 -21 -16.5 -35t-41.5 -14h-29q56 -59 56 -184q0 -50 -6 -105.5t-20.5 -110t-37 -103.5t-56 -86.5t-78.5 -59.5t-103 -22q-195 0 -195 235q0 50 6.5 105.5t20.5 110t37 103.5t56.5 86.5t78.5 59.5t103 22q42 0 77 -12h96l18 111h50zM265 40q87 0 142 68t75 190
l16 93q4 26 5.5 49.5t1.5 43.5q0 85 -33 129.5t-107 44.5q-87 0 -142 -68t-75 -190l-16 -93q-4 -26 -5.5 -49.5t-1.5 -43.5q0 -85 33 -129.5t107 -44.5zM452 795q-20 0 -34 7t-33 19q-17 11 -30.5 16.5t-27.5 5.5q-17 0 -32 -7.5t-32 -21.5l-24 29q19 20 42 33t51 13
q20 0 34 -7t33 -19q17 -11 30.5 -16.5t27.5 -5.5q17 0 32 7.5t32 21.5l24 -29q-19 -20 -42 -33t-51 -13z" />
    <glyph glyph-name="uni1ED0" unicode="&#x1ed0;" 
d="M262 -12q-195 0 -195 235q0 50 6 105.5t20.5 110t37 103.5t56 86.5t78.5 59.5t103 22q195 0 195 -235q0 -50 -6 -105.5t-20.5 -110t-37 -103.5t-56 -86.5t-78.5 -59.5t-103 -22zM265 40q87 0 142 68t75 190l16 93q4 26 5.5 49.5t1.5 43.5q0 85 -33 129.5t-107 44.5
q-87 0 -142 -68t-75 -190l-16 -93q-4 -26 -5.5 -49.5t-1.5 -43.5q0 -85 33 -129.5t107 -44.5zM534 878l-32 20l120 161l46 -28zM440 921l94 -142l-34 -20l-99 121l-141 -121l-29 25l139 137h70z" />
    <glyph glyph-name="uni1ED8" unicode="&#x1ed8;" 
d="M262 -12q-195 0 -195 235q0 50 6 105.5t20.5 110t37 103.5t56 86.5t78.5 59.5t103 22q195 0 195 -235q0 -50 -6 -105.5t-20.5 -110t-37 -103.5t-56 -86.5t-78.5 -59.5t-103 -22zM265 40q87 0 142 68t75 190l16 93q4 26 5.5 49.5t1.5 43.5q0 85 -33 129.5t-107 44.5
q-87 0 -142 -68t-75 -190l-16 -93q-4 -26 -5.5 -49.5t-1.5 -43.5q0 -85 33 -129.5t107 -44.5zM442 930l94 -142l-34 -20l-99 121l-141 -121l-29 25l139 137h70zM240 -158q-23 0 -32 9t-9 20q0 10 3 21q4 16 14 25.5t33 9.5t32 -9t9 -20q0 -4 -0.5 -10t-2.5 -11
q-4 -16 -14 -25.5t-33 -9.5z" />
    <glyph glyph-name="uni1ED2" unicode="&#x1ed2;" 
d="M262 -12q-195 0 -195 235q0 50 6 105.5t20.5 110t37 103.5t56 86.5t78.5 59.5t103 22q195 0 195 -235q0 -50 -6 -105.5t-20.5 -110t-37 -103.5t-56 -86.5t-78.5 -59.5t-103 -22zM265 40q87 0 142 68t75 190l16 93q4 26 5.5 49.5t1.5 43.5q0 85 -33 129.5t-107 44.5
q-87 0 -142 -68t-75 -190l-16 -93q-4 -26 -5.5 -49.5t-1.5 -43.5q0 -85 33 -129.5t107 -44.5zM183 1042l51 20l65 -166l-35 -15zM440 921l94 -142l-34 -20l-99 121l-141 -121l-29 25l139 137h70z" />
    <glyph glyph-name="uni1ED4" unicode="&#x1ed4;" 
d="M262 -12q-195 0 -195 235q0 50 6 105.5t20.5 110t37 103.5t56 86.5t78.5 59.5t103 22q195 0 195 -235q0 -50 -6 -105.5t-20.5 -110t-37 -103.5t-56 -86.5t-78.5 -59.5t-103 -22zM265 40q87 0 142 68t75 190l16 93q4 26 5.5 49.5t1.5 43.5q0 85 -33 129.5t-107 44.5
q-87 0 -142 -68t-75 -190l-16 -93q-4 -26 -5.5 -49.5t-1.5 -43.5q0 -85 33 -129.5t107 -44.5zM470 1050h113q27 0 39 -10.5t12 -26.5q0 -14 -8.5 -28.5t-28.5 -37.5l-60 -71l-32 20l82 110h-125zM440 921l94 -142l-34 -20l-99 121l-141 -121l-29 25l139 137h70z" />
    <glyph glyph-name="uni1ED6" unicode="&#x1ed6;" 
d="M262 -12q-195 0 -195 235q0 50 6 105.5t20.5 110t37 103.5t56 86.5t78.5 59.5t103 22q195 0 195 -235q0 -50 -6 -105.5t-20.5 -110t-37 -103.5t-56 -86.5t-78.5 -59.5t-103 -22zM265 40q87 0 142 68t75 190l16 93q4 26 5.5 49.5t1.5 43.5q0 85 -33 129.5t-107 44.5
q-87 0 -142 -68t-75 -190l-16 -93q-4 -26 -5.5 -49.5t-1.5 -43.5q0 -85 33 -129.5t107 -44.5zM354 1050q23 0 39 -8.5t35 -20.5q18 -12 33 -18t31 -6q17 0 32.5 8.5t32.5 22.5l22 -30q-19 -20 -42.5 -33.5t-51.5 -13.5q-23 0 -39 8.5t-35 20.5q-18 12 -33 18t-31 6
q-17 0 -32.5 -8.5t-32.5 -22.5l-22 30q19 20 42.5 33.5t51.5 13.5zM441 915l95 -137l-35 -19l-100 117l-140 -117l-29 26l139 130h70z" />
    <glyph glyph-name="OE" unicode="&#x152;" 
d="M265 0q-109 0 -162.5 64t-53.5 191q0 99 22 181t63.5 140t100.5 90t134 32h257l-8 -50h-180l-45 -269h167l-8 -50h-167l-47 -279h182l-9 -50h-246zM381 648h-20q-46 0 -86 -18t-70.5 -51t-51.5 -79.5t-29 -103.5l-11 -83q-3 -17 -5 -36.5t-2 -36.5q0 -97 42 -143.5
t125 -46.5h8z" />
    <glyph glyph-name="Racute" unicode="&#x154;" 
d="M113 0h-59l116 698h244q82 0 123.5 -44.5t41.5 -114.5q0 -104 -53.5 -164.5t-152.5 -64.5h-18l137 -310h-64l-132 308h-132zM366 358q62 0 99 31t46 85l6 37q1 8 2 16.5t1 17.5q0 45 -28.5 73t-83.5 28h-188l-48 -288h194zM369 760l-34 21l119 161l49 -29z" />
    <glyph glyph-name="Rcaron" unicode="&#x158;" 
d="M113 0h-59l116 698h244q82 0 123.5 -44.5t41.5 -114.5q0 -104 -53.5 -164.5t-152.5 -64.5h-18l137 -310h-64l-132 308h-132zM366 358q62 0 99 31t46 85l6 37q1 8 2 16.5t1 17.5q0 45 -28.5 73t-83.5 28h-188l-48 -288h194zM338 774l-95 142l34 21l99 -121l142 121l28 -25
l-139 -138h-69z" />
    <glyph glyph-name="Rcommaaccent" unicode="&#x156;" 
d="M113 0h-59l116 698h244q82 0 123.5 -44.5t41.5 -114.5q0 -104 -53.5 -164.5t-152.5 -64.5h-18l137 -310h-64l-132 308h-132zM366 358q62 0 99 31t46 85l6 37q1 8 2 16.5t1 17.5q0 45 -28.5 73t-83.5 28h-188l-48 -288h194zM214 -66h75l-86 -184h-44z" />
    <glyph glyph-name="Sacute" unicode="&#x15a;" 
d="M269 -12q-93 0 -150.5 33t-88.5 86l44 35q32 -50 78 -76.5t120 -26.5q88 0 139 43t51 119q0 50 -27 79t-92 43l-79 19q-80 18 -116.5 59.5t-36.5 107.5q0 48 17.5 85t49 63t76 39.5t97.5 13.5q92 0 145 -30.5t80 -77.5l-44 -32q-29 46 -72 67.5t-112 21.5
q-82 0 -129.5 -38t-47.5 -109q0 -52 29.5 -79.5t89.5 -41.5l78 -18q83 -20 118.5 -61.5t35.5 -105.5q0 -50 -18 -90t-51 -68.5t-79.5 -44t-104.5 -15.5zM365 760l-34 21l119 161l49 -29z" />
    <glyph glyph-name="Scaron" unicode="&#x160;" 
d="M269 -12q-93 0 -150.5 33t-88.5 86l44 35q32 -50 78 -76.5t120 -26.5q88 0 139 43t51 119q0 50 -27 79t-92 43l-79 19q-80 18 -116.5 59.5t-36.5 107.5q0 48 17.5 85t49 63t76 39.5t97.5 13.5q92 0 145 -30.5t80 -77.5l-44 -32q-29 46 -72 67.5t-112 21.5
q-82 0 -129.5 -38t-47.5 -109q0 -52 29.5 -79.5t89.5 -41.5l78 -18q83 -20 118.5 -61.5t35.5 -105.5q0 -50 -18 -90t-51 -68.5t-79.5 -44t-104.5 -15.5zM334 774l-95 142l34 21l99 -121l142 121l28 -25l-139 -138h-69z" />
    <glyph glyph-name="Scedilla" unicode="&#x15e;" 
d="M251 -205q-35 0 -56.5 11.5t-31.5 25.5l30 30q8 -12 22.5 -19.5t35.5 -7.5q26 0 42 11.5t16 31.5q0 13 -11 24.5t-46 15.5l-32 3l25 68q-83 4 -134.5 36t-80.5 82l44 35q32 -50 78 -76.5t120 -26.5q88 0 139 43t51 119q0 50 -27 79t-92 43l-79 19q-80 18 -116.5 59.5
t-36.5 107.5q0 48 17.5 85t49 63t76 39.5t97.5 13.5q92 0 145 -30.5t80 -77.5l-44 -32q-29 46 -72 68t-112 22q-82 0 -129.5 -38.5t-47.5 -109.5q0 -52 29.5 -79.5t89.5 -41.5l78 -18q83 -20 118.5 -61.5t35.5 -105.5q0 -49 -17 -88.5t-48 -67.5t-75 -44t-99 -17l-21 -55
l2 -2q9 2 18.5 2.5t15.5 0.5q28 0 43.5 -14.5t15.5 -42.5q0 -41 -30.5 -62t-75.5 -21z" />
    <glyph glyph-name="Scircumflex" unicode="&#x15c;" 
d="M269 -12q-93 0 -150.5 33t-88.5 86l44 35q32 -50 78 -76.5t120 -26.5q88 0 139 43t51 119q0 50 -27 79t-92 43l-79 19q-80 18 -116.5 59.5t-36.5 107.5q0 48 17.5 85t49 63t76 39.5t97.5 13.5q92 0 145 -30.5t80 -77.5l-44 -32q-29 46 -72 67.5t-112 21.5
q-82 0 -129.5 -38t-47.5 -109q0 -52 29.5 -79.5t89.5 -41.5l78 -18q83 -20 118.5 -61.5t35.5 -105.5q0 -50 -18 -90t-51 -68.5t-79.5 -44t-104.5 -15.5zM429 930l94 -142l-34 -20l-99 121l-141 -121l-29 25l139 137h70z" />
    <glyph glyph-name="Scommaaccent" unicode="&#x218;" 
d="M269 -12q-93 0 -150.5 33t-88.5 86l44 35q32 -50 78 -76.5t120 -26.5q88 0 139 43t51 119q0 50 -27 79t-92 43l-79 19q-80 18 -116.5 59.5t-36.5 107.5q0 48 17.5 85t49 63t76 39.5t97.5 13.5q92 0 145 -30.5t80 -77.5l-44 -32q-29 46 -72 67.5t-112 21.5
q-82 0 -129.5 -38t-47.5 -109q0 -52 29.5 -79.5t89.5 -41.5l78 -18q83 -20 118.5 -61.5t35.5 -105.5q0 -50 -18 -90t-51 -68.5t-79.5 -44t-104.5 -15.5zM216 -66h75l-86 -184h-44z" />
    <glyph glyph-name="uni1E9E" unicode="&#x1e9e;" 
d="M150 698h453l-10 -59l-214 -236v-4q92 -2 141 -42.5t49 -124.5q0 -50 -14.5 -94t-44 -77.5t-72.5 -53t-100 -19.5q-65 0 -108 24t-67 68l46 30q20 -34 50.5 -52.5t79.5 -18.5q63 0 106.5 35t54.5 100q6 34 7.5 47.5t1.5 21.5q0 50 -33 78.5t-103 28.5h-68l9 55l218 241
h-331l-109 -646h-58z" />
    <glyph glyph-name="Tbar" unicode="&#x166;" 
d="M345 349l-59 -349h-59l58 349h-178l8 45h178l42 252h-239l9 52h537l-9 -52h-239l-42 -252h179l-8 -45h-178z" />
    <glyph glyph-name="Tcaron" unicode="&#x164;" 
d="M394 646l-108 -646h-59l108 646h-239l9 52h537l-9 -52h-239zM350 774l-95 142l34 21l99 -121l142 121l28 -25l-139 -138h-69z" />
    <glyph glyph-name="Tcommaaccent" unicode="&#x162;" 
d="M394 646l-108 -646h-59l108 646h-239l9 52h537l-9 -52h-239zM210 -66h75l-86 -184h-44z" />
    <glyph glyph-name="uni021A" unicode="&#x21a;" 
d="M394 646l-108 -646h-59l108 646h-239l9 52h537l-9 -52h-239zM210 -66h75l-86 -184h-44z" />
    <glyph glyph-name="Thorn" unicode="&#xde;" 
d="M54 0l117 698h59l-25 -147h184q83 0 124.5 -45t41.5 -115q0 -107 -56.5 -169.5t-162.5 -62.5h-196l-27 -159h-59zM148 211h193q65 0 101.5 32t44.5 84l6 36q3 16 3 36q0 45 -29 72.5t-84 27.5h-186z" />
    <glyph glyph-name="Uacute" unicode="&#xda;" 
d="M220 698l-69 -411q-8 -48 -11 -75t-3 -48q0 -63 27.5 -93.5t99.5 -30.5q51 0 83 14t53 42.5t33 72.5t22 104l71 425h59l-69 -415q-13 -79 -30 -135t-44.5 -91.5t-70 -52t-106.5 -16.5q-100 0 -143.5 42t-43.5 129q0 30 5 68.5t12 77.5l66 393h59zM380 760l-34 21l119 161
l49 -29z" />
    <glyph glyph-name="Ubreve" unicode="&#x16c;" 
d="M220 698l-69 -411q-8 -48 -11 -75t-3 -48q0 -63 27.5 -93.5t99.5 -30.5q51 0 83 14t53 42.5t33 72.5t22 104l71 425h59l-69 -415q-13 -79 -30 -135t-44.5 -91.5t-70 -52t-106.5 -16.5q-100 0 -143.5 42t-43.5 129q0 30 5 68.5t12 77.5l66 393h59zM385 771
q-35 0 -57.5 12.5t-37 32.5t-23 45.5t-14.5 52.5l35 15l17 -40q16 -38 32.5 -55t48.5 -17q16 0 28.5 4t24 12.5t24 22t27.5 33.5l31 40l36 -15q-15 -27 -30.5 -52.5t-35.5 -45.5t-46 -32.5t-60 -12.5z" />
    <glyph glyph-name="Ucircumflex" unicode="&#xdb;" 
d="M220 698l-69 -411q-8 -48 -11 -75t-3 -48q0 -63 27.5 -93.5t99.5 -30.5q51 0 83 14t53 42.5t33 72.5t22 104l71 425h59l-69 -415q-13 -79 -30 -135t-44.5 -91.5t-70 -52t-106.5 -16.5q-100 0 -143.5 42t-43.5 129q0 30 5 68.5t12 77.5l66 393h59zM444 930l94 -142
l-34 -20l-99 121l-141 -121l-29 25l139 137h70z" />
    <glyph glyph-name="Udieresis" unicode="&#xdc;" 
d="M220 698l-69 -411q-8 -48 -11 -75t-3 -48q0 -63 27.5 -93.5t99.5 -30.5q51 0 83 14t53 42.5t33 72.5t22 104l71 425h59l-69 -415q-13 -79 -30 -135t-44.5 -91.5t-70 -52t-106.5 -16.5q-100 0 -143.5 42t-43.5 129q0 30 5 68.5t12 77.5l66 393h59zM298 801q-23 0 -32.5 9
t-9.5 20q0 9 3 20q4 17 14.5 26t33.5 9t32.5 -9t9.5 -20q0 -10 -3 -20q-4 -17 -14.5 -26t-33.5 -9zM482 801q-23 0 -32.5 9t-9.5 20q0 9 3 20q4 17 14.5 26t33.5 9t32.5 -9t9.5 -20q0 -10 -3 -20q-4 -17 -14.5 -26t-33.5 -9z" />
    <glyph glyph-name="uni1EE4" unicode="&#x1ee4;" 
d="M220 698l-69 -411q-8 -48 -11 -75t-3 -48q0 -63 27.5 -93.5t99.5 -30.5q51 0 83 14t53 42.5t33 72.5t22 104l71 425h59l-69 -415q-13 -79 -30 -135t-44.5 -91.5t-70 -52t-106.5 -16.5q-100 0 -143.5 42t-43.5 129q0 30 5 68.5t12 77.5l66 393h59zM233 -158q-23 0 -32 9
t-9 20q0 10 3 21q4 16 14 25.5t33 9.5t32 -9t9 -20q0 -4 -0.5 -10t-2.5 -11q-4 -16 -14 -25.5t-33 -9.5z" />
    <glyph glyph-name="Ugrave" unicode="&#xd9;" 
d="M220 698l-69 -411q-8 -48 -11 -75t-3 -48q0 -63 27.5 -93.5t99.5 -30.5q51 0 83 14t53 42.5t33 72.5t22 104l71 425h59l-69 -415q-13 -79 -30 -135t-44.5 -91.5t-70 -52t-106.5 -16.5q-100 0 -143.5 42t-43.5 129q0 30 5 68.5t12 77.5l66 393h59zM304 919l52 23l65 -167
l-37 -15z" />
    <glyph glyph-name="uni1EE6" unicode="&#x1ee6;" 
d="M220 698l-69 -411q-8 -48 -11 -75t-3 -48q0 -63 27.5 -93.5t99.5 -30.5q51 0 83 14t53 42.5t33 72.5t22 104l71 425h59l-69 -415q-13 -79 -30 -135t-44.5 -91.5t-70 -52t-106.5 -16.5q-100 0 -143.5 42t-43.5 129q0 30 5 68.5t12 77.5l66 393h59zM331 928h114
q26 0 38 -10.5t12 -27.5q0 -16 -10.5 -33.5t-35.5 -44.5l-50 -58l-33 20l82 110h-125z" />
    <glyph glyph-name="Uhungarumlaut" unicode="&#x170;" 
d="M220 698l-69 -411q-8 -48 -11 -75t-3 -48q0 -63 27.5 -93.5t99.5 -30.5q51 0 83 14t53 42.5t33 72.5t22 104l71 425h59l-69 -415q-13 -79 -30 -135t-44.5 -91.5t-70 -52t-106.5 -16.5q-100 0 -143.5 42t-43.5 129q0 30 5 68.5t12 77.5l66 393h59zM307 760l-33 20l119 161
l47 -27zM467 760l-32 20l119 161l47 -27z" />
    <glyph glyph-name="Umacron" unicode="&#x16a;" 
d="M220 698l-69 -411q-8 -48 -11 -75t-3 -48q0 -63 27.5 -93.5t99.5 -30.5q51 0 83 14t53 42.5t33 72.5t22 104l71 425h59l-69 -415q-13 -79 -30 -135t-44.5 -91.5t-70 -52t-106.5 -16.5q-100 0 -143.5 42t-43.5 129q0 30 5 68.5t12 77.5l66 393h59zM264 868h269l-8 -48
h-269z" />
    <glyph glyph-name="Uogonek" unicode="&#x172;" 
d="M220 698l-69 -411q-8 -48 -11 -75t-3 -48q0 -63 27.5 -93.5t99.5 -30.5q51 0 83 14t53 42.5t33 72.5t22 104l71 425h59l-69 -415q-10 -58 -21 -102t-27 -77t-39 -57t-56 -42q-73 -39 -100.5 -71.5t-27.5 -60.5q0 -21 12 -29.5t29 -8.5t32 7t27 19l28 -30
q-13 -14 -35.5 -25t-54.5 -11q-35 0 -61.5 16.5t-26.5 54.5q0 32 24.5 62.5t79.5 57.5l-1 4q-8 -2 -16 -2h-17q-100 0 -143.5 42t-43.5 129q0 30 5 68.5t12 77.5l66 393h59z" />
    <glyph glyph-name="Uring" unicode="&#x16e;" 
d="M220 698l-69 -411q-8 -48 -11 -75t-3 -48q0 -63 27.5 -93.5t99.5 -30.5q51 0 83 14t53 42.5t33 72.5t22 104l71 425h59l-69 -415q-13 -79 -30 -135t-44.5 -91.5t-70 -52t-106.5 -16.5q-100 0 -143.5 42t-43.5 129q0 30 5 68.5t12 77.5l66 393h59zM383 756q-42 0 -67 25
t-25 65q0 25 9.5 47t26 38t38 25t46.5 9q42 0 67 -25t25 -65q0 -26 -9.5 -47.5t-26 -37.5t-38 -25t-46.5 -9zM387 792q29 0 47.5 15.5t23.5 44.5q4 19 4 30q0 22 -14.5 34.5t-40.5 12.5q-29 0 -47.5 -15.5t-23.5 -44.5q-4 -19 -4 -30q0 -22 14.5 -34.5t40.5 -12.5z" />
    <glyph glyph-name="Utilde" unicode="&#x168;" 
d="M220 698l-69 -411q-8 -48 -11 -75t-3 -48q0 -63 27.5 -93.5t99.5 -30.5q51 0 83 14t53 42.5t33 72.5t22 104l71 425h59l-69 -415q-13 -79 -30 -135t-44.5 -91.5t-70 -52t-106.5 -16.5q-100 0 -143.5 42t-43.5 129q0 30 5 68.5t12 77.5l66 393h59zM460 792q-23 0 -39 8.5
t-35 20.5q-18 12 -33 18t-31 6q-17 0 -32.5 -8.5t-32.5 -22.5l-22 30q19 20 42.5 33.5t51.5 13.5q23 0 39 -8.5t35 -20.5q18 -12 33 -18t31 -6q17 0 32.5 8.5t32.5 22.5l22 -30q-19 -20 -42.5 -33.5t-51.5 -13.5z" />
    <glyph glyph-name="Uhorn" unicode="&#x1af;" 
d="M220 698l-69 -411q-8 -48 -11 -75t-3 -48q0 -63 27.5 -93.5t99.5 -30.5q51 0 83 14t53 42.5t33 72.5t22 104l71 425h96l18 111h51l-17 -101q-4 -21 -16.5 -35t-41.5 -14h-37l-63 -376q-13 -79 -30 -135t-44.5 -91.5t-70 -52t-106.5 -16.5q-100 0 -143.5 42t-43.5 129
q0 30 5 68.5t12 77.5l66 393h59z" />
    <glyph glyph-name="uni1EE8" unicode="&#x1ee8;" 
d="M220 698l-69 -411q-8 -48 -11 -75t-3 -48q0 -63 27.5 -93.5t99.5 -30.5q51 0 83 14t53 42.5t33 72.5t22 104l71 425h96l18 111h51l-17 -101q-4 -21 -16.5 -35t-41.5 -14h-37l-63 -376q-13 -79 -30 -135t-44.5 -91.5t-70 -52t-106.5 -16.5q-100 0 -143.5 42t-43.5 129
q0 30 5 68.5t12 77.5l66 393h59zM380 760l-34 21l119 161l49 -29z" />
    <glyph glyph-name="uni1EF0" unicode="&#x1ef0;" 
d="M220 698l-69 -411q-8 -48 -11 -75t-3 -48q0 -63 27.5 -93.5t99.5 -30.5q51 0 83 14t53 42.5t33 72.5t22 104l71 425h96l18 111h51l-17 -101q-4 -21 -16.5 -35t-41.5 -14h-37l-63 -376q-13 -79 -30 -135t-44.5 -91.5t-70 -52t-106.5 -16.5q-100 0 -143.5 42t-43.5 129
q0 30 5 68.5t12 77.5l66 393h59zM233 -158q-23 0 -32 9t-9 20q0 10 3 21q4 16 14 25.5t33 9.5t32 -9t9 -20q0 -4 -0.5 -10t-2.5 -11q-4 -16 -14 -25.5t-33 -9.5z" />
    <glyph glyph-name="uni1EEA" unicode="&#x1eea;" 
d="M220 698l-69 -411q-8 -48 -11 -75t-3 -48q0 -63 27.5 -93.5t99.5 -30.5q51 0 83 14t53 42.5t33 72.5t22 104l71 425h96l18 111h51l-17 -101q-4 -21 -16.5 -35t-41.5 -14h-37l-63 -376q-13 -79 -30 -135t-44.5 -91.5t-70 -52t-106.5 -16.5q-100 0 -143.5 42t-43.5 129
q0 30 5 68.5t12 77.5l66 393h59zM304 919l52 23l65 -167l-37 -15z" />
    <glyph glyph-name="uni1EEC" unicode="&#x1eec;" 
d="M220 698l-69 -411q-8 -48 -11 -75t-3 -48q0 -63 27.5 -93.5t99.5 -30.5q51 0 83 14t53 42.5t33 72.5t22 104l71 425h96l18 111h51l-17 -101q-4 -21 -16.5 -35t-41.5 -14h-37l-63 -376q-13 -79 -30 -135t-44.5 -91.5t-70 -52t-106.5 -16.5q-100 0 -143.5 42t-43.5 129
q0 30 5 68.5t12 77.5l66 393h59zM331 928h114q26 0 38 -10.5t12 -27.5q0 -16 -10.5 -33.5t-35.5 -44.5l-50 -58l-33 20l82 110h-125z" />
    <glyph glyph-name="uni1EEE" unicode="&#x1eee;" 
d="M220 698l-69 -411q-8 -48 -11 -75t-3 -48q0 -63 27.5 -93.5t99.5 -30.5q51 0 83 14t53 42.5t33 72.5t22 104l71 425h96l18 111h51l-17 -101q-4 -21 -16.5 -35t-41.5 -14h-37l-63 -376q-13 -79 -30 -135t-44.5 -91.5t-70 -52t-106.5 -16.5q-100 0 -143.5 42t-43.5 129
q0 30 5 68.5t12 77.5l66 393h59zM454 795q-20 0 -34 7t-33 19q-17 11 -30.5 16.5t-27.5 5.5q-17 0 -32 -7.5t-32 -21.5l-24 29q19 20 42 33t51 13q20 0 34 -7t33 -19q17 -11 30.5 -16.5t27.5 -5.5q17 0 32 7.5t32 21.5l24 -29q-19 -20 -42 -33t-51 -13z" />
    <glyph glyph-name="Wacute" unicode="&#x1e82;" 
d="M60 0l56 698h53l-54 -639h7l183 445h68l36 -445h7l159 639h53l-176 -698h-88l-32 434h-6l-177 -434h-89zM378 760l-34 21l119 161l49 -29z" />
    <glyph glyph-name="Wcircumflex" unicode="&#x174;" 
d="M60 0l56 698h53l-54 -639h7l183 445h68l36 -445h7l159 639h53l-176 -698h-88l-32 434h-6l-177 -434h-89zM442 930l94 -142l-34 -20l-99 121l-141 -121l-29 25l139 137h70z" />
    <glyph glyph-name="Wdieresis" unicode="&#x1e84;" 
d="M60 0l56 698h53l-54 -639h7l183 445h68l36 -445h7l159 639h53l-176 -698h-88l-32 434h-6l-177 -434h-89zM296 801q-23 0 -32.5 9t-9.5 20q0 9 3 20q4 17 14.5 26t33.5 9t32.5 -9t9.5 -20q0 -10 -3 -20q-4 -17 -14.5 -26t-33.5 -9zM480 801q-23 0 -32.5 9t-9.5 20
q0 9 3 20q4 17 14.5 26t33.5 9t32.5 -9t9.5 -20q0 -10 -3 -20q-4 -17 -14.5 -26t-33.5 -9z" />
    <glyph glyph-name="Wgrave" unicode="&#x1e80;" 
d="M60 0l56 698h53l-54 -639h7l183 445h68l36 -445h7l159 639h53l-176 -698h-88l-32 434h-6l-177 -434h-89zM302 919l52 23l65 -167l-37 -15z" />
    <glyph glyph-name="Yacute" unicode="&#xdd;" 
d="M227 0l47 281l-180 417h63l151 -358h3l271 358h70l-318 -413l-48 -285h-59zM379 760l-34 21l119 161l49 -29z" />
    <glyph glyph-name="Ycircumflex" unicode="&#x176;" 
d="M227 0l47 281l-180 417h63l151 -358h3l271 358h70l-318 -413l-48 -285h-59zM443 930l94 -142l-34 -20l-99 121l-141 -121l-29 25l139 137h70z" />
    <glyph glyph-name="uni1EF4" unicode="&#x1ef4;" 
d="M227 0l47 281l-180 417h63l151 -358h3l271 358h70l-318 -413l-48 -285h-59zM235 -158q-23 0 -32 9t-9 20q0 10 3 21q4 16 14 25.5t33 9.5t32 -9t9 -20q0 -4 -0.5 -10t-2.5 -11q-4 -16 -14 -25.5t-33 -9.5z" />
    <glyph glyph-name="Ydieresis" unicode="&#x178;" 
d="M227 0l47 281l-180 417h63l151 -358h3l271 358h70l-318 -413l-48 -285h-59zM297 801q-23 0 -32.5 9t-9.5 20q0 9 3 20q4 17 14.5 26t33.5 9t32.5 -9t9.5 -20q0 -10 -3 -20q-4 -17 -14.5 -26t-33.5 -9zM481 801q-23 0 -32.5 9t-9.5 20q0 9 3 20q4 17 14.5 26t33.5 9
t32.5 -9t9.5 -20q0 -10 -3 -20q-4 -17 -14.5 -26t-33.5 -9z" />
    <glyph glyph-name="Ygrave" unicode="&#x1ef2;" 
d="M227 0l47 281l-180 417h63l151 -358h3l271 358h70l-318 -413l-48 -285h-59zM303 919l52 23l65 -167l-37 -15z" />
    <glyph glyph-name="uni1EF6" unicode="&#x1ef6;" 
d="M227 0l47 281l-180 417h63l151 -358h3l271 358h70l-318 -413l-48 -285h-59zM330 928h114q26 0 38 -10.5t12 -27.5q0 -16 -10.5 -33.5t-35.5 -44.5l-50 -58l-33 20l82 110h-125z" />
    <glyph glyph-name="uni1EF8" unicode="&#x1ef8;" 
d="M227 0l47 281l-180 417h63l151 -358h3l271 358h70l-318 -413l-48 -285h-59zM459 792q-23 0 -39 8.5t-35 20.5q-18 12 -33 18t-31 6q-17 0 -32.5 -8.5t-32.5 -22.5l-22 30q19 20 42.5 33.5t51.5 13.5q23 0 39 -8.5t35 -20.5q18 -12 33 -18t31 -6q17 0 32.5 8.5t32.5 22.5
l22 -30q-19 -20 -42.5 -33.5t-51.5 -13.5z" />
    <glyph glyph-name="Zacute" unicode="&#x179;" 
d="M508 0h-503l9 54l517 592h-397l9 52h464l-9 -54l-517 -592h436zM379 760l-34 21l119 161l49 -29z" />
    <glyph glyph-name="Zcaron" unicode="&#x17d;" 
d="M508 0h-503l9 54l517 592h-397l9 52h464l-9 -54l-517 -592h436zM348 774l-95 142l34 21l99 -121l142 121l28 -25l-139 -138h-69z" />
    <glyph glyph-name="Zdotaccent" unicode="&#x17b;" 
d="M508 0h-503l9 54l517 592h-397l9 52h464l-9 -54l-517 -592h436zM390 796q-26 0 -36 10t-10 22q0 5 1 11.5t2 11.5q3 17 14.5 27.5t36.5 10.5q26 0 36 -10t10 -22q0 -5 -1 -11.5t-2 -11.5q-3 -17 -14.5 -27.5t-36.5 -10.5z" />
    <glyph glyph-name="mu" unicode="&#xb5;" 
d="M33 -200l118 716h56l-53 -316q-2 -16 -3 -31.5t-1 -26.5q0 -52 26 -78t76 -26q34 0 62 15t54 45q6 7 14.5 18.5t17.5 27.5t16.5 35t11.5 41l49 296h56l-86 -516h-56l20 119h-3q-12 -26 -28 -49.5t-36 -41.5t-46 -29t-59 -11q-44 0 -72 20t-37 58h-3l-12 -105l-27 -161
h-55z" />
    <glyph glyph-name="Delta" unicode="&#x2206;" 
d="M17 54l317 644h78l102 -644l-8 -54h-498zM367 635h-7l-281 -583h375z" />
    <glyph glyph-name="product" unicode="&#x220f;" 
d="M159 698h426l-116 -698h-59l107 646h-308l-107 -646h-59z" />
    <glyph glyph-name="summation" unicode="&#x2211;" 
d="M450 -200h-461l9 54l344 399v5l-212 386l9 54h461l-9 -52h-401l208 -378l-5 -37l-328 -379h394z" />
    <glyph glyph-name="Omega" unicode="&#x2126;" 
d="M31 49h149l2 15q-18 13 -35.5 31.5t-30.5 45.5t-21 64.5t-8 88.5q0 79 15.5 154t48.5 133t84.5 93.5t123.5 35.5q94 0 142.5 -62.5t48.5 -181.5q0 -153 -52 -256.5t-146 -146.5l-2 -14h151l-8 -49h-196l13 83q27 9 52.5 26.5t47 44.5t38 64.5t24.5 86.5l13 87
q5 29 7 52.5t2 43.5q0 81 -34.5 126t-105.5 45q-75 0 -123.5 -53t-66.5 -162l-15 -88q-4 -26 -5 -46.5t-1 -36.5q0 -72 19.5 -119t66.5 -71l-13 -83h-193z" />
    <glyph glyph-name="pi" unicode="&#x3c0;" 
d="M154 468h-102l8 48h542l-8 -48h-110l-71 -423l17 -6l102 71l28 -31l-48 -35q-37 -32 -58.5 -44t-42.5 -12q-28 0 -40 14.5t-12 34.5q0 9 2 24t7 47l60 360h-218l-78 -468h-56z" />
    <glyph glyph-name="uni0430" unicode="&#x430;" 
d="M394 0l20 119h-3q-30 -59 -72.5 -95t-110.5 -36q-81 0 -123.5 52.5t-42.5 146.5q0 61 14.5 121.5t44.5 109.5t75.5 79.5t108.5 30.5q62 0 101.5 -27t55.5 -75h3l15 90h56l-86 -516h-56zM244 38q32 0 62 12t56 38q23 24 42.5 57.5t26.5 75.5l22 129q4 26 -2.5 49.5
t-23.5 41t-44.5 27.5t-63.5 10q-39 0 -70.5 -14t-55 -38.5t-38.5 -58.5t-22 -74l-11 -63q-2 -14 -3 -25.5t-1 -22.5q0 -63 30.5 -103.5t95.5 -40.5z" />
    <glyph glyph-name="uni0430.alt01" 
d="M225 -12q-75 0 -117 34t-42 93q0 37 12 69t40 54.5t72.5 35.5t109.5 13h132l8 47q3 21 3 40q0 106 -118 106q-59 0 -95 -22t-64 -64l-36 31q27 43 74.5 73t123.5 30q81 0 126 -40t45 -105q0 -13 -1.5 -26.5t-3.5 -27.5l-54 -329h-55l14 85h-3q-23 -41 -65 -69t-106 -28z
M237 36q33 0 62 8.5t52.5 24t38.5 37t20 47.5l15 91h-133q-80 0 -119 -24.5t-47 -67.5q-3 -19 -3.5 -25.5t-0.5 -12.5q0 -38 30.5 -58t84.5 -20z" />
    <glyph glyph-name="uni0431" unicode="&#x431;" 
d="M275 -12q-45 0 -79.5 15.5t-58.5 42.5t-36 63.5t-12 79.5q0 65 12 137t32 137.5t46.5 119.5t55.5 83q33 33 78 51t109 21l146 8l-9 -53l-146 -8q-45 -2 -79 -15t-63 -43t-53.5 -85.5t-49.5 -147.5h4q32 60 76 91t107 31q80 0 127 -51.5t47 -147.5q0 -71 -18 -131
t-51.5 -104t-80.5 -69t-104 -25zM279 37q72 0 119.5 49.5t61.5 134.5l9 57q2 12 3 25t1 24q0 65 -34 102.5t-100 37.5q-78 0 -122.5 -45t-57.5 -126l-8 -47q-3 -17 -4.5 -33.5t-1.5 -28.5q0 -66 34 -108t100 -42z" />
    <glyph glyph-name="uni0432" unicode="&#x432;" 
d="M285 -12q-97 0 -149.5 53.5t-52.5 152.5q0 21 1.5 42t6.5 48q9 57 32 102t57 76.5t78.5 48.5t97.5 17q72 0 114 -31.5t42 -84.5q0 -100 -132 -132v-4q116 -12 116 -113q0 -38 -15.5 -70.5t-43.5 -55.5t-67 -36t-85 -13zM292 35q57 0 97 27t50 70q2 7 2.5 16t0.5 14
q0 43 -30.5 65.5t-86.5 22.5q-23 0 -50 -3t-65 -8l-69 -10q-2 -6 -2.5 -16.5t-0.5 -21.5q0 -76 40 -116t114 -40zM231 284q110 13 163.5 40t60.5 63q3 15 3 23q0 34 -29 52.5t-78 18.5q-82 0 -135 -50t-67 -138l-3 -19z" />
    <glyph glyph-name="uni0433" unicode="&#x433;" 
d="M249 -12q-176 0 -176 130q0 69 48.5 111t139.5 54l68 9q143 20 143 109q0 79 -121 79q-52 0 -94.5 -17t-80.5 -52l-34 37q42 38 93 59t121 21q81 0 124.5 -30.5t43.5 -92.5q0 -65 -48.5 -106t-138.5 -53l-68 -9q-69 -9 -106.5 -37.5t-37.5 -76.5q0 -87 129 -87
q65 0 115 22.5t94 67.5l33 -36q-50 -52 -110 -77t-137 -25z" />
    <glyph glyph-name="uni0434" unicode="&#x434;" 
d="M245 -12q-46 0 -79.5 15t-56 42t-33.5 64.5t-11 82.5q0 69 17 128t48.5 102.5t75 68.5t97.5 25q63 0 100.5 -32.5t50.5 -92.5h3v48q0 75 -11 125t-33.5 80.5t-57.5 43.5t-83 13q-22 0 -38.5 -1t-29.5 -3l10 51q9 2 27.5 3t39.5 1q119 0 175 -70t56 -227
q0 -160 -29 -257.5t-80 -148.5q-61 -61 -158 -61zM248 37q72 0 121 48.5t65 140.5l7 46q5 25 5 53q0 68 -37 105t-105 37q-70 0 -113 -48.5t-57 -135.5l-8 -47q-2 -17 -3.5 -29.5t-1.5 -23.5q0 -69 31 -107.5t96 -38.5z" />
    </font>
</defs>
</svg>
