<?xml version="1.0" standalone="no"?>
<!DOCTYPE svg PUBLIC "-//W3C//DTD SVG 1.1//EN" "http://www.w3.org/Graphics/SVG/1.1/DTD/svg11.dtd" >
<svg xmlns="http://www.w3.org/2000/svg" xmlns:xlink="http://www.w3.org/1999/xlink" version="1.1">
<metadata>
Created by FontForge 20170812 at Fri Dec 22 17:13:06 2017
 By ,,,
Copyright 2017 IBM Corp. All rights reserved.
</metadata>
<defs>
<font id="IBMPlexMono-MediumItalic" horiz-adv-x="600" >
  <font-face 
    font-family="IBM Plex Mono Medium"
    font-weight="500"
    font-style="italic"
    font-stretch="normal"
    units-per-em="1000"
    panose-1="2 11 6 9 5 2 3 0 2 3"
    ascent="780"
    descent="-220"
    x-height="516"
    cap-height="698"
    bbox="-221 -257 721 1136"
    underline-thickness="77"
    underline-position="-161"
    slope="-9"
    unicode-range="U+000D-FB02"
  />
<missing-glyph 
d="M32 0v780h536v-780h-536zM109 77h382v626h-382v-626z" />
    <glyph glyph-name=".notdef" 
d="M32 0v780h536v-780h-536zM109 77h382v626h-382v-626z" />
    <glyph glyph-name=".null" horiz-adv-x="0" 
 />
    <glyph glyph-name=".null" horiz-adv-x="0" 
 />
    <glyph glyph-name="uni000D" unicode="&#xd;" 
 />
    <glyph glyph-name="space" unicode=" " 
 />
    <glyph glyph-name="a" unicode="a" 
d="M367 0l20 122h-4q-29 -60 -70 -97t-108 -37q-80 0 -118.5 52t-38.5 148q0 62 14.5 123t44.5 109t75.5 78t107.5 30q59 0 94 -27t49 -78h5l15 93h107l-86 -516h-107zM248 75q59 0 106 54q17 19 32 47t21 64l17 103q8 45 -19.5 71.5t-81.5 26.5q-67 0 -103.5 -40.5
t-47.5 -103.5l-12 -71q-2 -9 -3 -20.5t-1 -22.5q0 -49 22 -78.5t70 -29.5z" />
    <glyph glyph-name="a.alt01" 
d="M211 -12q-75 0 -117.5 35t-42.5 96q0 86 61 132.5t189 46.5h107l5 30q3 18 3 29q0 42 -26 64.5t-77 22.5t-83.5 -19t-59.5 -52l-60 57q14 19 34.5 36.5t47 31t59 22t70.5 8.5q93 0 147 -43t54 -115q0 -14 -2 -29t-4 -29l-52 -312h-102l15 91h-5q-22 -47 -63 -75t-98 -28z
M244 67q28 0 52 7.5t43 19.5t31 28.5t15 34.5l12 72h-103q-124 0 -133 -74q-2 -13 -2 -18.5v-12.5q0 -28 22.5 -42.5t62.5 -14.5z" />
    <glyph glyph-name="b" unicode="b" 
d="M163 740h107l-57 -346h4q15 30 32 54.5t38 42.5t47.5 27.5t60.5 9.5q80 0 118.5 -52t38.5 -148q0 -62 -14.5 -123t-44.5 -109t-75.5 -78t-107.5 -30q-59 0 -94 27t-49 78h-5l-15 -93h-107zM277 75q67 0 103.5 40.5t47.5 103.5l12 71q2 9 3 20.5t1 22.5q0 49 -22 78.5
t-70 29.5q-60 0 -106 -54q-17 -19 -32 -47t-21 -64l-17 -103q-8 -45 19.5 -71.5t81.5 -26.5z" />
    <glyph glyph-name="c" unicode="c" 
d="M271 -12q-100 0 -152 59t-52 159q0 70 20 129.5t56.5 102t87 66.5t111.5 24q42 0 74 -9.5t55 -27t37.5 -40.5t21.5 -50l-89 -39q-13 42 -38 59.5t-71 17.5q-55 0 -92.5 -35.5t-49.5 -107.5l-10 -60q-2 -14 -3 -25t-1 -22q0 -56 28.5 -84t82.5 -28q16 0 32.5 3.5t35 16
t41.5 36t52 63.5l71 -44q-25 -40 -51 -70.5t-55 -51.5t-64 -31.5t-78 -10.5z" />
    <glyph glyph-name="d" unicode="d" 
d="M387 122h-4q-29 -60 -70 -97t-108 -37q-80 0 -118.5 52t-38.5 148q0 62 14.5 123t44.5 109t75.5 78t107.5 30q59 0 94 -27t49 -78h5l52 317h107l-123 -740h-107zM248 75q59 0 106 54q17 19 32 47t21 64l17 103q8 45 -19.5 71.5t-81.5 26.5q-67 0 -103.5 -40.5
t-47.5 -103.5l-12 -71q-2 -9 -3 -20.5t-1 -22.5q0 -49 22 -78.5t70 -29.5z" />
    <glyph glyph-name="e" unicode="e" 
d="M279 -12q-106 0 -159.5 56t-53.5 165q0 71 21.5 129.5t60 100.5t92 65.5t118.5 23.5q39 0 72 -9t57.5 -26.5t38.5 -44t14 -60.5q0 -29 -12.5 -59t-51.5 -55t-111 -42t-190 -21q-1 -7 -1 -12.5v-7.5q0 -24 5.5 -45.5t18.5 -37.5t35.5 -25t57.5 -9q25 0 45.5 5.5t39 17.5
t37 31.5t39.5 48.5l70 -45q-21 -33 -45 -59.5t-53.5 -45t-65 -29t-79.5 -10.5zM348 447q-66 0 -108 -39t-55 -119l-2 -11q84 3 133.5 13.5t76 25t34 31.5t7.5 33q0 29 -19.5 47.5t-66.5 18.5z" />
    <glyph glyph-name="f" unicode="f" 
d="M188 -212q-21 0 -39 7.5t-35.5 22.5t-37.5 37.5t-46 53.5l-52 63l73 57l131 -152l16 4l91 548h-174l14 87h174l16 96q9 54 46 91t106 37h175l-14 -87h-199l-23 -137h200l-14 -87h-200l-86 -515q-10 -59 -39 -92.5t-83 -33.5z" />
    <glyph glyph-name="g" unicode="g" 
d="M216 -212q-66 0 -113.5 17t-80.5 56l68 68q43 -54 127 -54q31 0 56.5 7t45 25t32.5 47.5t21 74.5l19 112h-5q-29 -62 -70 -98.5t-108 -36.5q-81 0 -119.5 53.5t-38.5 144.5q0 58 14.5 116t43.5 104.5t74 75t107 28.5q60 0 95 -27t49 -78h5l15 93h107l-83 -498
q-10 -61 -32.5 -104.5t-56 -71.5t-77 -41t-95.5 -13zM251 94q58 0 105 53q14 15 30.5 42t23.5 67l14 85q8 46 -19.5 73t-81.5 27q-66 0 -103 -40t-48 -105l-8 -48q-2 -12 -3 -23t-1 -24q0 -50 21.5 -78.5t69.5 -28.5z" />
    <glyph glyph-name="g.alt01" 
d="M229 -212q-62 0 -105.5 8t-70.5 22.5t-39.5 35t-12.5 46.5q0 46 28 73t81 40l1 9q-21 9 -33 25t-12 42q0 42 28.5 64t78.5 32l2 6q-36 20 -55.5 53t-19.5 79t18 83.5t49.5 64.5t75.5 42t96 15q29 0 53 -5t44 -14l3 19q5 30 26 49.5t56 19.5h91l-14 -85h-118l-5 -28
q24 -20 37.5 -47.5t13.5 -64.5q0 -46 -18 -83.5t-50 -64.5t-76.5 -42t-96.5 -15q-18 0 -34.5 1.5t-30.5 6.5q-11 -3 -22.5 -7.5t-21 -11.5t-16 -16.5t-6.5 -21.5q0 -23 20.5 -28.5t52.5 -5.5h114q94 0 137 -34t43 -92q0 -83 -71 -126.5t-221 -43.5zM98 -72q0 -27 23 -45
t77 -18h87q64 0 98.5 20.5t34.5 57.5q0 25 -19 38.5t-70 13.5h-181q-50 -22 -50 -67zM297 241q52 0 82 24t38 69q3 18 4 29.5t1 16.5q0 34 -22 54t-71 20q-52 0 -82 -24t-38 -69q-3 -18 -4 -29.5t-1 -16.5q0 -34 22 -54t71 -20z" />
    <glyph glyph-name="g.alt02" 
d="M229 -212q-62 0 -105.5 8t-70.5 22.5t-39.5 35t-12.5 46.5q0 46 28 73t81 40l1 9q-21 9 -33 25t-12 42q0 42 28.5 64t78.5 32l2 6q-36 20 -55.5 53t-19.5 79t18 83.5t49.5 64.5t75.5 42t96 15q45 0 78 -12h179l-13 -77h-76q19 -30 19 -67q0 -46 -18 -83.5t-50 -64.5
t-76.5 -42t-96.5 -15q-18 0 -34.5 1.5t-30.5 6.5q-11 -3 -22.5 -7.5t-21 -11.5t-16 -16.5t-6.5 -21.5q0 -23 20.5 -28.5t52.5 -5.5h114q94 0 137 -34t43 -92q0 -83 -71 -126.5t-221 -43.5zM297 241q52 0 82 24t38 69q3 18 4 29.5t1 16.5q0 34 -22 54t-71 20q-52 0 -82 -24
t-38 -69q-3 -18 -4 -29.5t-1 -16.5q0 -34 22 -54t71 -20zM418 -57q0 25 -19 38.5t-70 13.5h-181q-50 -22 -50 -67q0 -27 23 -45t77 -18h87q64 0 98.5 20.5t34.5 57.5z" />
    <glyph glyph-name="h" unicode="h" 
d="M168 740h107l-58 -346h5q29 62 68 98t102 36q69 0 104.5 -41.5t35.5 -107.5q0 -18 -1.5 -37.5t-6.5 -45.5l-49 -296h-107l50 300q2 14 4 29.5t2 28.5q0 35 -17.5 59t-57.5 24q-30 0 -53.5 -14t-43.5 -38q-10 -12 -28.5 -42t-25.5 -71l-46 -276h-107z" />
    <glyph glyph-name="i" unicode="i" 
d="M340 611q-38 0 -53 14.5t-15 34.5q0 6 1 14t3 17q5 27 22.5 42.5t55.5 15.5t53 -14.5t15 -34.5q0 -6 -1 -14t-3 -17q-5 -27 -22.5 -42.5t-55.5 -15.5zM282 -12q-48 0 -72 25t-24 65q0 13 2 26t5 31l57 294h-174l14 87h283l-84 -433l20 -8l173 159l61 -55l-78 -78
q-31 -31 -56 -52.5t-46 -35t-40.5 -19.5t-40.5 -6z" />
    <glyph glyph-name="j" unicode="j" 
d="M251 -212q-21 0 -39 7t-36.5 23t-39.5 40.5t-49 60.5l-51 62l72 57l140 -163l15 5l92 549h-203l14 87h310l-99 -594q-11 -63 -40.5 -98.5t-85.5 -35.5zM442 611q-38 0 -53 14.5t-15 34.5q0 6 1 14t3 17q5 27 22.5 42.5t55.5 15.5t53 -14.5t15 -34.5q0 -6 -1 -14t-3 -17
q-5 -27 -22.5 -42.5t-55.5 -15.5z" />
    <glyph glyph-name="k" unicode="k" 
d="M168 740h107l-58 -346h5q13 29 30.5 53.5t39 42.5t48 28t59.5 10q63 0 99 -35t36 -90q0 -29 -9.5 -56t-32 -51.5t-60.5 -45t-94 -35.5l59 -136l14 -2l111 104l55 -55l-63 -65q-37 -37 -66 -55t-63 -18q-35 0 -56 19.5t-38 59.5l-68 160q110 28 156.5 65t46.5 84
q0 31 -19.5 49t-57.5 18q-30 0 -54 -13.5t-45 -40.5q-18 -23 -32 -49.5t-20 -62.5l-46 -277h-107z" />
    <glyph glyph-name="l" unicode="l" 
d="M258 -12q-50 0 -72.5 25t-22.5 67q0 20 6 52l100 521h-170l15 87h279l-127 -658l21 -7l178 161l60 -55l-86 -84q-32 -31 -57 -52t-46 -33.5t-40 -18t-38 -5.5z" />
    <glyph glyph-name="m" unicode="m" 
d="M2 0l86 516h91l-14 -85h5q18 42 44.5 69.5t68.5 27.5t62.5 -27t16.5 -73h4q19 45 48.5 72.5t75.5 27.5q44 0 66.5 -25t22.5 -73q0 -15 -2 -36.5t-5 -39.5l-59 -354h-91l57 341q2 14 4 30t2 26q0 49 -39 49q-34 0 -57 -37q-11 -18 -20 -39.5t-13 -44.5l-54 -325h-91
l58 346q2 14 3.5 26.5t1.5 23.5q0 50 -36 50q-34 0 -59 -37q-13 -19 -20 -39.5t-11 -39.5l-55 -330h-91z" />
    <glyph glyph-name="n" unicode="n" 
d="M45 0l86 516h107l-21 -122h5q29 62 68 98t102 36q69 0 104.5 -41.5t35.5 -107.5q0 -18 -1.5 -37.5t-6.5 -45.5l-49 -296h-107l50 300q2 14 4 29.5t2 28.5q0 35 -17.5 59t-57.5 24q-30 0 -53.5 -14t-43.5 -38q-10 -12 -28.5 -42t-25.5 -71l-46 -276h-107z" />
    <glyph glyph-name="o" unicode="o" 
d="M265 -12q-51 0 -90 16t-65.5 44.5t-40.5 69t-14 90.5q0 74 21 133t58.5 100.5t89 64t111.5 22.5q51 0 90 -16t65.5 -44.5t40.5 -69.5t14 -90q0 -74 -21 -133t-58.5 -100.5t-89 -64t-111.5 -22.5zM272 73q63 0 101 38.5t49 106.5l11 66q2 14 3.5 26t1.5 21
q0 57 -29.5 84.5t-80.5 27.5q-63 0 -101 -38.5t-49 -106.5l-11 -66q-2 -14 -3.5 -26t-1.5 -21q0 -57 29.5 -84.5t80.5 -27.5z" />
    <glyph glyph-name="p" unicode="p" 
d="M126 516h107l-20 -122h4q15 30 32 54.5t38 42.5t47.5 27.5t60.5 9.5q80 0 118.5 -52t38.5 -148q0 -62 -14.5 -123t-44.5 -109t-75.5 -78t-107.5 -30q-59 0 -94 27t-49 78h-5l-48 -293h-107zM277 75q67 0 103.5 40.5t47.5 103.5l12 71q2 9 3 20.5t1 22.5q0 49 -22 78.5
t-70 29.5q-60 0 -106 -54q-17 -19 -32 -47t-21 -64l-17 -103q-8 -45 19.5 -71.5t81.5 -26.5z" />
    <glyph glyph-name="q" unicode="q" 
d="M387 122h-4q-29 -60 -70 -97t-108 -37q-80 0 -118.5 52t-38.5 148q0 62 14.5 123t44.5 109t75.5 78t107.5 30q59 0 94 -27t49 -78h5l15 93h107l-120 -716h-107zM248 75q59 0 106 54q17 19 32 47t21 64l17 103q8 45 -19.5 71.5t-81.5 26.5q-67 0 -103.5 -40.5
t-47.5 -103.5l-12 -71q-2 -9 -3 -20.5t-1 -22.5q0 -49 22 -78.5t70 -29.5z" />
    <glyph glyph-name="r" unicode="r" 
d="M165 0l71 429h-133l15 87h240l-25 -146h6q29 67 74 106.5t120 39.5h60l-18 -107h-90q-43 0 -70.5 -11.5t-48.5 -37.5q-10 -12 -27.5 -39t-23.5 -63l-43 -258h-107z" />
    <glyph glyph-name="s" unicode="s" 
d="M264 -12q-76 0 -132 23.5t-87 68.5l68 60q55 -70 159 -70q59 0 92.5 21t33.5 60q0 30 -18.5 41.5t-46.5 16.5l-75 13q-29 5 -55.5 14t-46.5 24.5t-32.5 39.5t-12.5 59q0 42 17.5 73.5t48 53t71.5 32t89 10.5q69 0 119.5 -20.5t79.5 -55.5l-66 -63q-15 21 -49 39t-90 18
t-85.5 -20t-29.5 -56q0 -31 19.5 -42t47.5 -16l75 -14q28 -5 54 -13.5t46.5 -23t33 -38t12.5 -58.5q0 -41 -17 -74t-48.5 -56t-76 -35t-98.5 -12z" />
    <glyph glyph-name="t" unicode="t" 
d="M255 -12q-48 0 -72 26t-24 71q0 9 2 21.5t4 26.5l49 296h-142l14 87h96q29 0 43 11.5t19 40.5l22 130h100l-30 -182h208l-14 -87h-209l-57 -342l20 -10l196 139l53 -64l-91 -68q-34 -26 -59.5 -44t-47.5 -29.5t-41 -17t-39 -5.5z" />
    <glyph glyph-name="u" unicode="u" 
d="M384 122h-5q-29 -62 -68 -98t-102 -36q-69 0 -104.5 41.5t-35.5 107.5q0 18 1.5 37.5t6.5 45.5l49 296h107l-50 -300q-2 -14 -4 -29.5t-2 -28.5q0 -35 17.5 -59t57.5 -24q30 0 53.5 14t43.5 38q10 12 28.5 42t25.5 71l46 276h107l-86 -516h-107z" />
    <glyph glyph-name="v" unicode="v" 
d="M273 516l-67 -440l13 -8q56 12 97 41t68 69t40.5 88t13.5 97q0 70 -31 129l98 33q20 -31 30.5 -71.5t10.5 -87.5q0 -78 -28 -146.5t-75.5 -119.5t-109.5 -80.5t-130 -29.5q-50 0 -74 25t-24 69q0 11 1 22t3 25l46 298h-101l14 87h205z" />
    <glyph glyph-name="w" unicode="w" 
d="M123 -11q-48 0 -70.5 28.5t-22.5 76.5q0 15 2 36t6 43l57 343h90l-58 -337q-2 -14 -4 -28.5t-2 -26.5q0 -48 40 -48q18 0 32 11t26 29q11 16 18 39t10 41l53 320h87l-55 -339q-2 -15 -3.5 -29t-1.5 -25q0 -48 38 -48q24 0 45.5 25.5t37 67t25 93.5t9.5 106q0 36 -5 71.5
t-16 59.5l81 24q14 -27 22 -66.5t8 -87.5q0 -90 -21.5 -168.5t-60.5 -130.5q-60 -80 -145 -80q-47 0 -70 27t-20 80h-5q-20 -51 -50.5 -79t-76.5 -28z" />
    <glyph glyph-name="x" unicode="x" 
d="M106 -12q-51 0 -77.5 32t-26.5 96q0 13 1 25.5t3 32.5l91 9q-2 -11 -2 -20.5v-17.5q0 -40 9 -58.5t32 -18.5q33 0 55 31t35.5 75t19 93t5.5 85q0 24 -1.5 48t-6.5 41l-14 7l-147 -95l-43 61l68 51q38 28 72 45.5t67 17.5q30 0 47.5 -13.5t27.5 -36.5t13 -53.5t3 -63.5h7
q21 90 58.5 128.5t92.5 38.5q50 0 76.5 -33t26.5 -94q0 -11 -0.5 -25t-2.5 -34l-91 -9q1 12 1.5 22t0.5 18q0 38 -9 56.5t-32 18.5q-33 0 -55 -30.5t-35.5 -74t-19 -91t-5.5 -81.5q0 -26 2.5 -51.5t7.5 -44.5l13 -7l142 100l45 -59l-50 -44q-51 -45 -87.5 -61t-65.5 -16
q-27 0 -45 12.5t-28 35t-14 53t-4 65.5l-7 1q-21 -90 -59 -128.5t-94 -38.5z" />
    <glyph glyph-name="y" unicode="y" 
d="M211 -212q-67 0 -114.5 17t-79.5 56l68 68q43 -54 127 -54q64 0 103.5 34t53.5 122l17 107h-4q-29 -62 -68 -98t-102 -36q-69 0 -104.5 41.5t-35.5 107.5q0 18 1.5 37.5t6.5 45.5l46 280h107l-47 -284q-2 -14 -4 -29.5t-2 -28.5q0 -35 17.5 -59t57.5 -24q30 0 53.5 14
t43.5 38q10 12 28.5 42t25.5 71l43 260h107l-84 -502q-20 -119 -88 -172.5t-173 -53.5z" />
    <glyph glyph-name="z" unicode="z" 
d="M420 -11q-27 0 -57 6t-66 21l-146 57l-5 -4l-11 -69h-99l16 96l342 297q-48 28 -80.5 38.5t-61.5 10.5q-45 0 -62 -28.5t-17 -73.5h-82v11q0 86 42 131.5t117 45.5q44 0 90 -17t101 -59l13 -8l5 5l11 67h99l-16 -94l-343 -299l230 -50l11 12l-31 116l69 27l16 -35
q13 -27 20 -52.5t7 -48.5q0 -20 -7.5 -38.5t-22 -33t-35.5 -23t-47 -8.5z" />
    <glyph glyph-name="A" unicode="A" 
d="M424 0l-20 186h-227l-82 -186h-116l321 698h150l88 -698h-114zM362 588h-9l-136 -309h178z" />
    <glyph glyph-name="B" unicode="B" 
d="M158 698h230q86 0 131 -43.5t45 -117.5q0 -71 -36.5 -115t-100.5 -61l-1 -4q51 -13 80.5 -45t29.5 -92q0 -46 -16 -86t-45.5 -70t-71.5 -47t-93 -17h-269zM286 85q56 0 89.5 23t41.5 68l5 30q2 9 3 18.5t1 17.5q0 75 -99 75h-125l-39 -232h123zM323 398q54 0 84 20.5
t38 65.5l5 30q3 18 3 29q0 38 -24.5 54t-67.5 16h-110l-36 -215h108z" />
    <glyph glyph-name="C" unicode="C" 
d="M288 -12q-115 0 -168.5 67t-53.5 191q0 97 21 181.5t61.5 147.5t100 99t136.5 36q52 0 89 -14.5t61.5 -38.5t38 -56.5t17.5 -68.5l-103 -26q-4 24 -10.5 44.5t-19 35.5t-32 23.5t-49.5 8.5q-73 0 -116 -56t-60 -156l-17 -102q-4 -23 -6 -42t-2 -42q0 -64 28 -102t94 -38
q27 0 49 9t40 25.5t33.5 40.5t31.5 55l91 -35q-20 -45 -44 -79.5t-55 -58.5t-69.5 -36.5t-86.5 -12.5z" />
    <glyph glyph-name="D" unicode="D" 
d="M159 698h186q56 0 99 -17t72 -48t44 -75t15 -98q0 -228 -86 -344t-239 -116h-208zM255 91q78 0 123.5 48.5t61.5 143.5l18 109q3 18 5 39t2 39q0 137 -132 137h-80l-86 -516h88z" />
    <glyph glyph-name="E" unicode="E" 
d="M42 0l117 698h436l-16 -93h-326l-35 -205h315l-16 -93h-314l-36 -214h328l-16 -93h-437z" />
    <glyph glyph-name="F" unicode="F" 
d="M42 0l117 698h448l-16 -93h-338l-35 -205h309l-16 -92h-308l-51 -308h-110z" />
    <glyph glyph-name="G" unicode="G" 
d="M408 102h-7q-14 -23 -28.5 -44t-33.5 -36.5t-43 -24.5t-57 -9q-88 0 -135 64t-47 190q0 96 20 181t59.5 149t99.5 101t140 37q50 0 86.5 -14.5t60.5 -39t37 -56.5t18 -68l-103 -26q-4 22 -10.5 42.5t-19 36t-32 24.5t-48.5 9q-74 0 -115 -57.5t-57 -153.5l-17 -100
q-3 -18 -5 -42t-2 -40q0 -67 25.5 -106.5t84.5 -39.5q32 0 57.5 11.5t44 31t30.5 45.5t17 55l9 51h-137l14 83h235l-59 -356h-99z" />
    <glyph glyph-name="H" unicode="H" 
d="M426 308h-234l-51 -308h-110l116 698h110l-49 -298h233l49 298h110l-116 -698h-110z" />
    <glyph glyph-name="I" unicode="I" 
d="M38 0l14 84h164l89 530h-164l14 84h438l-14 -84h-164l-89 -530h164l-14 -84h-438z" />
    <glyph glyph-name="J" unicode="J" 
d="M566 698l-86 -512q-17 -104 -78.5 -151t-155.5 -47q-91 0 -143 46.5t-57 130.5l104 21q2 -22 7.5 -41t17 -33.5t30 -22.5t47.5 -8q100 0 120 117l68 407h-245l16 93h355z" />
    <glyph glyph-name="K" unicode="K" 
d="M288 319l-107 -111l-35 -208h-110l116 698h110l-56 -336h6l125 140l184 196h133l-282 -302l171 -396h-121z" />
    <glyph glyph-name="L" unicode="L" 
d="M67 0l116 698h110l-101 -605h319l-16 -93h-428z" />
    <glyph glyph-name="M" unicode="M" 
d="M459 334l39 212h-8l-202 -359l-81 359h-8l-32 -212l-55 -334h-98l116 698h130l62 -279h7l155 279h133l-116 -698h-98z" />
    <glyph glyph-name="N" unicode="N" 
d="M228 546h-8l-91 -546h-98l116 698h144l112 -546h8l91 546h98l-116 -698h-144z" />
    <glyph glyph-name="O" unicode="O" 
d="M268 -12q-113 0 -165 65t-52 183q0 50 6.5 105t21 107.5t38.5 100t58.5 83.5t80.5 57t106 21q113 0 165 -65t52 -183q0 -51 -6.5 -105.5t-21 -107t-38.5 -100t-58.5 -83.5t-80.5 -57t-106 -21zM271 80q73 0 114 55.5t58 155.5l19 115q4 23 5.5 42t1.5 37q0 63 -26 98
t-84 35q-73 0 -114 -55.5t-58 -155.5l-19 -115q-4 -23 -5.5 -42t-1.5 -37q0 -63 26 -98t84 -35z" />
    <glyph glyph-name="P" unicode="P" 
d="M43 0l116 698h251q45 0 78.5 -12.5t56 -35.5t33.5 -55t11 -70q0 -115 -62.5 -180t-174.5 -65h-152l-47 -280h-110zM215 372h132q105 0 120 90l6 36q1 5 2 15t1 19q0 74 -91 74h-131z" />
    <glyph glyph-name="Q" unicode="Q" 
d="M394 -192q-29 0 -48 14.5t-33 36.5l-89 132q-89 12 -131 75t-42 170q0 50 6.5 105t21.5 107.5t38.5 100t58.5 83.5t81 57t105 21q113 0 165 -65t52 -183q0 -45 -5.5 -94t-17 -97.5t-30.5 -93t-46 -81.5t-63.5 -63t-82.5 -37l64 -97l14 -4l94 88l57 -51l-55 -56
q-19 -19 -33.5 -32t-27.5 -21t-25.5 -11.5t-27.5 -3.5zM271 80q73 0 114 55.5t58 155.5l19 115q4 23 5.5 42t1.5 37q0 63 -26 98t-84 35q-73 0 -114 -55.5t-58 -155.5l-19 -115q-4 -23 -5.5 -42t-1.5 -37q0 -63 26 -98t84 -35z" />
    <glyph glyph-name="R" unicode="R" 
d="M152 0h-109l116 698h251q90 0 134.5 -48t44.5 -125q0 -100 -50.5 -160.5t-141.5 -73.5l114 -291h-117l-102 283h-93zM347 372q105 0 120 90l6 36q1 5 2 15t1 19q0 74 -89 74h-133l-39 -234h132z" />
    <glyph glyph-name="S" unicode="S" 
d="M267 -12q-90 0 -153 31.5t-94 84.5l75 68q63 -92 178 -92q72 0 112 34.5t40 93.5q0 40 -22 62t-76 34l-72 17q-81 18 -117.5 62t-36.5 111q0 49 18.5 89t52.5 68.5t81.5 43.5t106.5 15q85 0 142 -30.5t86 -77.5l-76 -63q-26 39 -64.5 59.5t-92.5 20.5q-67 0 -104 -31
t-37 -84q0 -41 24.5 -61.5t76.5 -32.5l70 -17q82 -20 117.5 -63t35.5 -110q0 -51 -18.5 -94t-53.5 -73.5t-85.5 -47.5t-113.5 -17z" />
    <glyph glyph-name="T" unicode="T" 
d="M413 605l-101 -605h-110l101 605h-220l16 93h550l-16 -93h-220z" />
    <glyph glyph-name="U" unicode="U" 
d="M253 698l-69 -413q-7 -41 -10 -66t-3 -41q0 -23 4.5 -41t16 -31t31 -19.5t48.5 -6.5q43 0 69 12.5t41.5 36t23.5 57.5t15 76l73 436h110l-69 -414q-12 -74 -28 -129.5t-44.5 -92.5t-74.5 -55.5t-118 -18.5q-57 0 -96.5 12.5t-64 36t-35 57t-10.5 76.5q0 29 4.5 66
t10.5 73l65 389h110z" />
    <glyph glyph-name="V" unicode="V" 
d="M180 0l-81 698h112l35 -350l24 -241h7l103 241l148 350h118l-312 -698h-154z" />
    <glyph glyph-name="W" unicode="W" 
d="M31 0l66 698h96l-42 -403l-19 -190h9l147 424h112l9 -424h9l41 183l94 410h94l-166 -698h-150l-2 406h-9l-139 -406h-150z" />
    <glyph glyph-name="X" unicode="X" 
d="M540 0h-120l-58 140l-54 133h-6l-96 -133l-105 -140h-124l276 360l-147 338h120l53 -125l51 -127h5l93 127l94 125h124l-260 -342z" />
    <glyph glyph-name="Y" unicode="Y" 
d="M203 0l43 261l-161 437h117l62 -175l47 -151h6l100 151l118 175h126l-304 -432l-44 -266h-110z" />
    <glyph glyph-name="Z" unicode="Z" 
d="M507 0h-501l16 98l445 507h-345l16 93h472l-16 -98l-444 -507h373z" />
    <glyph glyph-name="zero" unicode="0" 
d="M268 -12q-113 0 -165 65.5t-52 184.5q0 50 6.5 104t21.5 106.5t38.5 100t58.5 83.5t81 57t105 21q113 0 165 -65.5t52 -184.5q0 -50 -6.5 -104t-21.5 -106.5t-38.5 -100t-58.5 -83.5t-81 -57t-105 -21zM271 78q38 0 67 14.5t50.5 42t35.5 67t22 88.5l19 114q4 23 6 43.5
t2 38.5q0 63 -27 98.5t-87 35.5q-38 0 -67 -14.5t-50.5 -42t-35.5 -67t-22 -88.5l-19 -114q-4 -23 -6 -43.5t-2 -38.5q0 -63 27 -98.5t87 -35.5zM307 291q-31 0 -44 11t-13 28q0 9 3 27q4 23 19.5 36.5t50.5 13.5q31 0 44 -11t13 -28q0 -9 -3 -27q-4 -23 -19.5 -36.5
t-50.5 -13.5z" />
    <glyph glyph-name="zero.alt01" 
d="M268 -12q-113 0 -165 65.5t-52 184.5q0 50 6.5 104t21.5 106.5t38.5 100t58.5 83.5t81 57t105 21q113 0 165 -65.5t52 -184.5q0 -50 -6.5 -104t-21.5 -106.5t-38.5 -100t-58.5 -83.5t-81 -57t-105 -21zM359 622q-78 0 -119.5 -57t-58.5 -157l-19 -114q-2 -11 -3 -20.5
t-2 -18.5l314 279q-8 42 -35.5 65t-76.5 23zM271 76q78 0 119.5 57t58.5 157l19 114q2 10 3 20t2 19l-314 -279q8 -42 35.5 -65t76.5 -23z" />
    <glyph glyph-name="zero.alt02" 
d="M268 -12q-113 0 -165 65t-52 183q0 50 6.5 105t21 107.5t38.5 100t58.5 83.5t80.5 57t106 21q113 0 165 -65t52 -183q0 -51 -6.5 -105.5t-21 -107t-38.5 -100t-58.5 -83.5t-80.5 -57t-106 -21zM271 80q73 0 114 55.5t58 155.5l19 115q4 23 5.5 42t1.5 37q0 63 -26 98
t-84 35q-73 0 -114 -55.5t-58 -155.5l-19 -115q-4 -23 -5.5 -42t-1.5 -37q0 -63 26 -98t84 -35z" />
    <glyph glyph-name="one" unicode="1" 
d="M44 0l15 92h195l88 524h-9l-187 -174l-62 63l206 193h175l-101 -606h169l-15 -92h-474z" />
    <glyph glyph-name="two" unicode="2" 
d="M501 0h-479l18 106l261 201q39 30 64.5 53.5t41.5 44.5t24.5 42t12.5 46q2 9 2.5 15.5t0.5 14.5q0 41 -28 66.5t-79 25.5q-29 0 -51.5 -9t-40.5 -24t-31.5 -35.5t-23.5 -42.5l-96 37q16 35 39 66t54 54t71 36t90 13t89.5 -13.5t66.5 -38t41.5 -58.5t14.5 -75
q0 -43 -14 -79.5t-40 -70t-64 -66.5t-86 -69l-195 -147h353z" />
    <glyph glyph-name="three" unicode="3" 
d="M293 410q65 0 102.5 26t45.5 71q4 23 4 30q0 38 -28.5 59.5t-76.5 21.5q-51 0 -89 -23t-67 -64l-67 66q20 24 43.5 44.5t52.5 35.5t64 24t79 9q46 0 84.5 -11t65.5 -31.5t42 -50t15 -67.5q0 -66 -43.5 -115t-122.5 -67l-1 -4q54 -9 89 -47t35 -103q0 -47 -18 -88
t-53 -71.5t-86 -48.5t-117 -18q-50 0 -87 10.5t-64 28.5t-45.5 41t-30.5 48l84 56q10 -20 22.5 -37t30 -29t41 -19t56.5 -7q63 0 101.5 28t47.5 82q3 18 3 32q0 45 -30.5 70t-90.5 25h-79l16 93h72z" />
    <glyph glyph-name="four" unicode="4" 
d="M321 0l23 136h-333l17 99l375 463h140l-80 -475h99l-15 -87h-98l-23 -136h-105zM123 223h235l60 356h-6z" />
    <glyph glyph-name="five" unicode="5" 
d="M564 603h-315l-59 -250h6q15 21 31 37.5t35 28.5t42 18t52 6q41 0 75.5 -13t59 -37t38.5 -58.5t14 -78.5q0 -51 -18 -99.5t-53 -86t-88 -60t-123 -22.5q-47 0 -83.5 10.5t-64 28.5t-47 40.5t-31.5 46.5l90 58q19 -40 51.5 -65.5t91.5 -25.5q65 0 104 33.5t49 92.5
q2 14 3 22t1 20q0 49 -29.5 76t-86.5 27q-46 0 -76.5 -17t-53.5 -38l-89 12l90 389h400z" />
    <glyph glyph-name="six" unicode="6" 
d="M265 -12q-104 0 -159 60t-55 163q0 78 29 151.5t75.5 136.5t104.5 114t117 85h153q-67 -42 -121 -82t-96.5 -82.5t-74.5 -89.5t-55 -103l6 -2q15 20 32.5 38.5t39.5 32.5t48 22.5t59 8.5q83 0 131.5 -50.5t48.5 -135.5q0 -53 -19 -101t-55 -85t-89 -59t-120 -22zM277 77
q63 0 102.5 34t50.5 97q2 9 3 18.5t1 18.5q0 108 -117 108q-62 0 -102 -33t-51 -97q-2 -9 -3 -18.5t-1 -18.5q0 -54 30 -81.5t87 -27.5z" />
    <glyph glyph-name="seven" unicode="7" 
d="M122 0l357 606h-270l-22 -129h-96l37 221h480l-16 -96l-350 -602h-120z" />
    <glyph glyph-name="eight" unicode="8" 
d="M261 -12q-57 0 -99.5 13t-71 36t-42.5 55t-14 71q0 73 45.5 126.5t126.5 73.5l1 7q-46 17 -70.5 51.5t-24.5 85.5q0 37 16 73.5t48 65.5t81 46.5t114 17.5q102 0 154.5 -43.5t52.5 -115.5q0 -61 -38.5 -109.5t-109.5 -72.5l-1 -7q54 -16 84.5 -52.5t30.5 -99.5
q0 -43 -18 -83t-53.5 -71t-88.5 -49.5t-123 -18.5zM270 76q70 0 108.5 31t46.5 81q2 14 3.5 22t1.5 18q0 44 -31.5 68.5t-90.5 24.5q-70 0 -108.5 -31t-46.5 -81q-2 -14 -3.5 -22t-1.5 -18q0 -44 31.5 -68.5t90.5 -24.5zM326 405q61 0 96 28t43 73q3 18 3 32q0 40 -28 62
t-82 22q-61 0 -96 -28t-43 -73q-3 -18 -3 -32q0 -40 28 -62t82 -22z" />
    <glyph glyph-name="nine" unicode="9" 
d="M574 487q0 -78 -29 -151.5t-75.5 -136.5t-104.5 -114t-117 -85h-153q67 42 121 82t96.5 82.5t74.5 89.5t55 103l-6 2q-15 -20 -32.5 -38.5t-39.5 -32.5t-48 -22.5t-59 -8.5q-83 0 -131.5 50.5t-48.5 135.5q0 52 19 100.5t55 85.5t88.5 59t120.5 22q104 0 159 -60t55 -163
zM308 345q62 0 102 33t51 97q2 9 3 18.5t1 18.5q0 54 -30 81.5t-87 27.5q-63 0 -102.5 -34t-50.5 -97q-2 -9 -3 -18.5t-1 -18.5q0 -108 117 -108z" />
    <glyph glyph-name="ampersand" unicode="&#x26;" 
d="M159 -12q-72 0 -113 49t-41 134q0 39 9.5 77t31 68.5t58 51.5t90.5 25q-17 40 -26 72.5t-9 65.5q0 39 13.5 72t39 57t61 37t79.5 13q76 0 123 -44t47 -127q0 -90 -52.5 -143.5t-143.5 -69.5l109 -240l17 -2l74 115l67 -41l-50 -88q-25 -45 -49.5 -63.5t-58.5 -18.5
q-42 0 -71.5 35t-51.5 113h-5q-11 -78 -52 -113t-96 -35zM189 81q41 0 65 22t35 64l-75 177q-29 -5 -46.5 -16t-28 -25.5t-15 -31.5t-7.5 -34q-3 -19 -3.5 -33.5t-0.5 -25.5q0 -51 19.5 -74t56.5 -23zM344 629q-40 0 -62.5 -25t-22.5 -72q0 -33 9.5 -65.5t29.5 -76.5l8 -16
q46 13 72 37.5t36 61.5q5 20 7 36.5t2 30.5q0 46 -22 67.5t-57 21.5z" />
    <glyph glyph-name="at" unicode="@" 
d="M407 -112h-118q-130 0 -185.5 69.5t-55.5 201.5q0 43 5 92t13 99q15 87 38.5 154t59 112.5t84.5 69.5t115 24q53 0 92.5 -14.5t65.5 -41t39 -63t13 -79.5q0 -11 -1 -24.5t-3 -27.5l-61 -369h-88l14 84h-4q-17 -41 -43 -68.5t-71 -27.5q-103 0 -103 158q0 52 11 101
t32.5 87t52.5 60.5t71 22.5t63 -22t29 -57h4l5 33q2 14 3.5 27.5t1.5 26.5q0 57 -30 88t-94 31q-34 0 -64.5 -10.5t-56 -39t-45 -78t-32.5 -127.5l-23 -141q-2 -11 -3 -25t-2 -27.5t-1 -25.5v-19q0 -42 8 -75t26.5 -56t49.5 -35t77 -12h122zM353 152q20 0 35.5 11t26.5 25
q9 12 19.5 33.5t15.5 52.5l16 94q2 11 0 23.5t-9 23t-19.5 17t-31.5 6.5q-72 0 -90 -112l-6 -38q-4 -26 -5 -42.5t-1 -24.5q0 -69 49 -69z" />
    <glyph glyph-name="hyphen" unicode="-" 
d="M149 251l18 107h299l-18 -107h-299z" />
    <glyph glyph-name="uni00AD" unicode="&#xad;" 
d="M149 251l18 107h299l-18 -107h-299z" />
    <glyph glyph-name="endash" unicode="&#x2013;" 
d="M63 258l15 92h475l-15 -92h-475z" />
    <glyph glyph-name="emdash" unicode="&#x2014;" 
d="M3 258l15 92h594l-15 -92h-594z" />
    <glyph glyph-name="underscore" unicode="_" 
d="M-4 -179l16 94h475l-16 -94h-475z" />
    <glyph glyph-name="period" unicode="." 
d="M257 -10q-42 0 -59.5 15.5t-17.5 38.5q0 8 1.5 17t3.5 23q5 32 28.5 50t65.5 18t59.5 -15.5t17.5 -38.5q0 -8 -1.5 -17t-3.5 -23q-5 -32 -28.5 -50t-65.5 -18z" />
    <glyph glyph-name="ellipsis" unicode="&#x2026;" 
d="M66 -5q-34 0 -47.5 13t-13.5 33q0 6 1.5 15t3.5 23q4 23 21 39t52 16q34 0 47.5 -13t13.5 -33q0 -6 -1.5 -15t-3.5 -23q-4 -23 -21 -39t-52 -16zM260 -5q-34 0 -47.5 13t-13.5 33q0 6 1.5 15t3.5 23q4 23 21 39t52 16q34 0 47.5 -13t13.5 -33q0 -6 -1.5 -15t-3.5 -23
q-4 -23 -21 -39t-52 -16zM454 -5q-34 0 -47.5 13t-13.5 33q0 6 1.5 15t3.5 23q4 23 21 39t52 16q34 0 47.5 -13t13.5 -33q0 -6 -1.5 -15t-3.5 -23q-4 -23 -21 -39t-52 -16z" />
    <glyph glyph-name="colon" unicode=":" 
d="M257 -10q-42 0 -59.5 15.5t-17.5 38.5q0 8 1.5 17t3.5 23q5 32 28.5 50t65.5 18t59.5 -15.5t17.5 -38.5q0 -8 -1.5 -17t-3.5 -23q-5 -32 -28.5 -50t-65.5 -18zM318 364q-42 0 -59.5 15.5t-17.5 38.5q0 8 1.5 17t3.5 23q5 32 28.5 50t65.5 18t59.5 -15.5t17.5 -38.5
q0 -8 -1.5 -17t-3.5 -23q-5 -32 -28.5 -50t-65.5 -18z" />
    <glyph glyph-name="comma" unicode="," 
d="M226 151h152l-169 -296h-86z" />
    <glyph glyph-name="semicolon" unicode=";" 
d="M226 151h152l-169 -296h-86zM318 364q-42 0 -59.5 15.5t-17.5 38.5q0 8 1.5 17t3.5 23q5 32 28.5 50t65.5 18t59.5 -15.5t17.5 -38.5q0 -8 -1.5 -17t-3.5 -23q-5 -32 -28.5 -50t-65.5 -18z" />
    <glyph glyph-name="quotesingle" unicode="'" 
d="M282 443l49 297h98l-49 -297h-98z" />
    <glyph glyph-name="quotedbl" unicode="&#x22;" 
d="M186 443l49 297h98l-49 -297h-98zM380 443l49 297h98l-49 -297h-98z" />
    <glyph glyph-name="quoteleft" unicode="&#x2018;" 
d="M381 740h84l-103 -296h-153z" />
    <glyph glyph-name="quoteright" unicode="&#x2019;" 
d="M345 740h153l-172 -296h-84z" />
    <glyph glyph-name="quotedblleft" unicode="&#x201c;" 
d="M268 740h84l-103 -296h-153zM513 740h84l-103 -296h-153z" />
    <glyph glyph-name="quotedblright" unicode="&#x201d;" 
d="M227 740h153l-172 -296h-84zM471 740h153l-172 -296h-84z" />
    <glyph glyph-name="quotesinglbase" unicode="&#x201a;" 
d="M234 151h153l-172 -296h-84z" />
    <glyph glyph-name="quotedblbase" unicode="&#x201e;" 
d="M124 151h153l-172 -296h-84zM369 151h153l-172 -296h-84z" />
    <glyph glyph-name="guilsinglleft" unicode="&#x2039;" 
d="M338 51l-173 172l17 99l225 169l25 -74l-165 -151l115 -149z" />
    <glyph glyph-name="guilsinglright" unicode="&#x203a;" 
d="M171 125l165 151l-115 149l44 66l173 -172l-17 -99l-225 -169z" />
    <glyph glyph-name="guillemotleft" unicode="&#xab;" 
d="M236 51l-173 172l17 99l225 169l25 -74l-165 -151l115 -149zM470 51l-173 172l17 99l225 169l25 -74l-165 -151l115 -149z" />
    <glyph glyph-name="guillemotright" unicode="&#xbb;" 
d="M40 125l165 151l-115 149l44 66l173 -172l-17 -99l-225 -169zM274 125l165 151l-115 149l44 66l173 -172l-17 -99l-225 -169z" />
    <glyph glyph-name="exclamdown" unicode="&#xa1;" 
d="M166 -182l34 203l82 258h41l-5 -258l-34 -203h-118zM320 369q-41 0 -58 15t-17 37q0 5 1 13.5t4 26.5q5 27 25 46t66 19q41 0 58 -15t17 -37q0 -5 -1 -13.5t-4 -26.5q-5 -27 -25 -46t-66 -19z" />
    <glyph glyph-name="exclam" unicode="!" 
d="M275 237l5 258l34 203h117l-34 -203l-82 -258h-40zM257 -10q-41 0 -58 15t-17 37q0 5 1 13.5t4 26.5q5 27 25 46t66 19q41 0 58 -15t17 -37q0 -5 -1 -13.5t-4 -26.5q-5 -27 -25 -46t-66 -19z" />
    <glyph glyph-name="questiondown" unicode="&#xbf;" 
d="M241 -194q-96 0 -149.5 48t-53.5 130q0 49 19 88t50 66.5t71 44t81 22.5l15 88h105l-25 -155q-47 -5 -81.5 -13t-59 -23t-38.5 -37.5t-20 -56.5q-1 -5 -1.5 -10.5t-0.5 -13.5q0 -40 28 -62.5t73 -22.5q53 0 85.5 29t50.5 76l89 -40q-12 -32 -32.5 -60.5t-50 -50.5
t-68 -34.5t-87.5 -12.5zM339 369q-41 0 -58 15t-17 37q0 5 1 13.5t4 26.5q5 27 25 46t66 19q41 0 58 -15t17 -37q0 -5 -1 -13.5t-4 -26.5q-5 -27 -25 -46t-66 -19z" />
    <glyph glyph-name="question" unicode="?" 
d="M219 223l25 155q46 4 81 12.5t59.5 23.5t38.5 37.5t20 56.5q1 5 1.5 10.5t0.5 13.5q0 40 -28 62.5t-73 22.5q-53 0 -85.5 -29t-50.5 -76l-89 40q12 32 32.5 60.5t50 50.5t68 34.5t87.5 12.5q96 0 149.5 -48t53.5 -130q0 -50 -19 -88.5t-50 -66t-71 -44t-81 -22.5l-15 -88
h-105zM238 -10q-41 0 -58 15t-17 37q0 5 1 13.5t4 26.5q5 27 25 46t66 19q41 0 58 -15t17 -37q0 -5 -1 -13.5t-4 -26.5q-5 -27 -25 -46t-66 -19z" />
    <glyph glyph-name="parenleft" unicode="(" 
d="M191 226q0 85 23.5 165t63.5 150t91 126t107 93h110q-52 -36 -99 -80t-84.5 -95t-64 -107.5t-36.5 -116.5l-15 -89q-3 -18 -4 -35t-1 -34q0 -51 12.5 -100t33.5 -93t49 -81.5t60 -66.5h-100q-31 28 -57.5 66.5t-46 85t-31 100t-11.5 112.5z" />
    <glyph glyph-name="parenright" unicode=")" 
d="M429 397q0 -85 -23.5 -165.5t-63 -150t-91 -126t-107.5 -93.5h-109q51 36 98 80.5t84.5 95.5t64 107.5t36.5 116.5l15 88q3 18 4 35t1 34q0 51 -12.5 100t-33.5 93t-49.5 81.5t-59.5 66.5h100q31 -28 57.5 -66t46 -84.5t31 -100.5t11.5 -112z" />
    <glyph glyph-name="bracketleft" unicode="[" 
d="M142 -138l150 898h295l-13 -77h-206l-124 -744h206l-13 -77h-295z" />
    <glyph glyph-name="bracketright" unicode="]" 
d="M463 760l-150 -898h-295l13 77h206l124 744h-206l13 77h295z" />
    <glyph glyph-name="braceleft" unicode="{" 
d="M259 -138q-49 0 -67 21t-18 50q0 10 2.5 29t7.5 46q4 27 13 47t19.5 35.5t22 28t22.5 23.5q25 26 33.5 41.5t8.5 30.5q0 59 -103 59h-94l13 76h93q61 0 93.5 19t32.5 56q0 25 -20 56q-11 18 -23.5 40.5t-12.5 56.5q0 11 3 34.5t8 56.5q6 40 35 66t80 26h176l-13 -77h-187
q-7 -38 -10 -62.5t-3 -31.5q0 -25 7 -41t18 -33q11 -19 21 -40.5t10 -47.5q0 -46 -32 -76t-97 -38l-1 -6q48 -5 72 -27.5t24 -57.5t-19.5 -61.5t-45.5 -53.5q-20 -20 -35 -41.5t-22 -61.5l-11 -65h187l-13 -77h-175z" />
    <glyph glyph-name="braceright" unicode="}" 
d="M360 760q24 0 40.5 -6t26.5 -15.5t14 -22t4 -24.5t-2.5 -31.5t-7.5 -46.5t-13.5 -47t-19 -36t-22 -28t-22.5 -23q-26 -26 -34 -41.5t-8 -30.5q0 -59 103 -59h94l-13 -76h-93q-61 0 -93.5 -19t-32.5 -56q0 -14 4.5 -27t15.5 -29q14 -19 25 -41t11 -56q0 -11 -3 -34.5
t-8 -56.5q-6 -40 -35 -66t-80 -26h-176l13 77h187q7 38 10 62.5t3 31.5q0 25 -7 40t-18 34q-12 20 -21.5 41t-9.5 47q0 46 32 76t97 38l1 6q-48 5 -72 27.5t-24 57.5t19.5 62t45.5 53q10 10 18.5 20t16 21.5t13.5 26.5t9 35l11 65h-187l13 77h175z" />
    <glyph glyph-name="slash" unicode="/" 
d="M15 -138l483 898h98l-483 -898h-98z" />
    <glyph glyph-name="backslash" unicode="\" 
d="M359 -138l-186 898h87l186 -898h-87z" />
    <glyph glyph-name="fraction" unicode="&#x2044;" 
d="M577 698h87l-215 -300h-87zM183 300h87l-215 -300h-87z" />
    <glyph glyph-name="percent" unicode="%" 
d="M190 349q-62 0 -97 37t-35 108q0 48 13.5 87.5t37 68t56.5 44.5t72 16q62 0 97 -37t35 -108q0 -48 -13.5 -88t-37 -68.5t-56.5 -44t-72 -15.5zM194 416q40 0 59 25.5t25 61.5q5 32 8 48.5t3 27.5q0 64 -56 64q-40 0 -59 -25.5t-25 -61.5q-5 -32 -8 -48.5t-3 -27.5
q0 -64 56 -64zM575 698h88l-206 -300h-88zM176 300h88l-206 -300h-88zM396 -12q-62 0 -97 37t-35 108q0 48 13.5 87.5t37 68t56.5 44.5t72 16q62 0 97 -37t35 -108q0 -48 -13.5 -88t-37 -68.5t-56.5 -44t-72 -15.5zM400 55q40 0 59 25.5t25 61.5q5 32 8 48.5t3 27.5
q0 64 -56 64q-40 0 -59 -25.5t-25 -61.5q-5 -32 -8 -48.5t-3 -27.5q0 -64 56 -64z" />
    <glyph glyph-name="perthousand" unicode="&#x2030;" 
d="M167 400q-61 0 -92.5 34t-31.5 89q0 86 44.5 136.5t122.5 50.5q61 0 92.5 -34t31.5 -89q0 -86 -44.5 -136.5t-122.5 -50.5zM174 462q33 0 50 21t23 53q9 48 9 59q0 23 -14 38t-39 15q-33 0 -50 -21t-23 -53q-9 -48 -9 -59q0 -23 14 -38t39 -15zM68 333l479 162l13 -57
l-479 -163zM206 -12q-59 0 -90.5 34t-31.5 90q0 86 45 136t120 50q35 0 58.5 -12.5t37.5 -35.5h6q20 22 46 35t60 13q59 0 90.5 -34t31.5 -90q0 -86 -45 -136t-120 -50q-35 0 -59 12.5t-37 35.5h-6q-20 -22 -46 -35t-60 -13zM215 50q33 0 50 21t23 53q9 48 9 59q0 23 -14 38
t-39 15q-33 0 -50 -21t-23 -53q-9 -48 -9 -59q0 -23 14 -38t39 -15zM419 50q33 0 50 21t23 53q9 48 9 59q0 23 -14 38t-39 15q-33 0 -50 -21t-23 -53q-9 -48 -9 -59q0 -23 14 -38t39 -15z" />
    <glyph glyph-name="bar" unicode="|" 
d="M189 -138l150 898h91l-150 -898h-91z" />
    <glyph glyph-name="brokenbar" unicode="&#xa6;" 
d="M279 400l60 360h91l-60 -360h-91zM189 -138l60 360h91l-60 -360h-91z" />
    <glyph glyph-name="section" unicode="&#xa7;" 
d="M455 17q0 -40 -15 -73t-43 -57t-68 -37.5t-90 -13.5q-26 0 -52.5 4t-51 12t-46 20t-37.5 29l62 67q22 -23 55 -35.5t71 -12.5q51 0 83.5 23t32.5 61q0 29 -19.5 48t-65.5 33l-65 21q-75 24 -103.5 59t-28.5 77q0 58 34 97.5t107 58.5l1 9q-32 23 -47.5 55t-15.5 67
q0 40 15 73t43 57t68 37.5t90 13.5q26 0 52.5 -4t51 -12t46 -20t37.5 -29l-62 -67q-22 23 -55 35.5t-71 12.5q-51 0 -83.5 -23t-32.5 -61q0 -29 19.5 -48t65.5 -33l65 -21q75 -24 103.5 -59t28.5 -77q0 -58 -34 -97.5t-107 -58.5l-1 -9q32 -23 47.5 -55t15.5 -67zM434 270
q0 29 -19 51.5t-71 37.5l-66 20q-10 3 -23 8q-81 -41 -81 -111q0 -29 19 -51.5t71 -37.5l66 -20q10 -3 23 -8q81 41 81 111z" />
    <glyph glyph-name="paragraph" unicode="&#xb6;" 
d="M265 246q-41 0 -75.5 13.5t-60 38.5t-39.5 61.5t-14 81.5q0 58 22 105.5t59 81.5t84.5 52t98.5 18h261l-142 -847h-89l128 764h-82l-128 -764h-89z" />
    <glyph glyph-name="copyright" unicode="&#xa9;" 
d="M271 18q-57 0 -105 19.5t-82.5 56t-53.5 88.5t-19 118q0 84 26 154t71.5 120t109 78t138.5 28q57 0 104.5 -19.5t82 -56t54 -88.5t19.5 -118q0 -84 -26 -154t-71.5 -120t-109 -78t-138.5 -28zM276 72q52 0 97 17t80 48.5t59 75t33 96.5q7 41 9 59.5t2 29.5
q0 44 -11.5 85.5t-36 73t-63.5 50.5t-94 19q-52 0 -97 -17t-80 -48.5t-59 -75t-33 -96.5q-8 -41 -9.5 -59.5t-1.5 -29.5q0 -44 11.5 -85.5t36 -73t63.5 -50.5t94 -19zM293 164q-69 0 -106.5 41.5t-37.5 112.5q0 43 14 82.5t39.5 69.5t60.5 47.5t77 17.5q56 0 87 -25t45 -67
l-72 -31q-6 24 -20.5 38t-43.5 14q-38 0 -59 -23t-27 -59l-10 -60q-2 -9 -2 -14.5v-10.5q0 -29 15 -45t46 -16q29 0 49.5 15t36.5 38l61 -36q-23 -37 -60.5 -63t-92.5 -26z" />
    <glyph glyph-name="registered" unicode="&#xae;" 
d="M309 346q-36 0 -65.5 11.5t-51.5 32.5t-34 50.5t-12 66.5q0 41 15.5 78t42.5 64.5t64.5 44t82.5 16.5q36 0 65.5 -11.5t51.5 -32.5t34 -50.5t12 -66.5q0 -41 -15.5 -78t-42.5 -65t-64.5 -44t-82.5 -16zM309 386q34 0 60.5 10t46 27.5t31 40t15.5 47.5q2 14 3.5 22.5
t1.5 16.5q0 52 -28 86t-88 34q-34 0 -60.5 -10t-46 -27.5t-31 -40t-15.5 -47.5q-2 -14 -3.5 -22.5t-1.5 -16.5q0 -52 28 -86t88 -34zM288 439h-46l31 185h88q27 0 41 -13.5t14 -36.5q0 -24 -13 -40t-34 -24l32 -71h-51l-25 63h-26zM335 536q13 0 20.5 6.5t9.5 15.5
q1 5 1 7.5v4.5q0 18 -22 18h-31l-9 -52h31z" />
    <glyph glyph-name="trademark" unicode="&#x2122;" 
d="M121 415l39 231h-80l9 52h225l-9 -52h-80l-39 -231h-65zM300 415l47 283h74l38 -126h4l84 126h72l-47 -283h-58l19 115l18 87h-4l-104 -152l-51 152h-4l-11 -87l-19 -115h-58z" />
    <glyph glyph-name="ordfeminine" unicode="&#xaa;" 
d="M373 349l10 60h-8q-14 -29 -39.5 -48t-63.5 -19q-51 0 -79 24t-28 65q0 61 44 91t129 30h67l4 23q1 7 1.5 12.5t0.5 10.5q0 26 -17.5 38t-49.5 12t-55 -14t-39 -35l-42 44q19 26 55 46.5t92 20.5q62 0 98.5 -27t36.5 -78q0 -23 -3 -41l-36 -215h-78zM331 501
q-36 0 -58 -10t-27 -37q-1 -5 -1.5 -10.5t-0.5 -7.5q0 -36 53 -36q34 0 61 15.5t32 44.5l7 41h-66z" />
    <glyph glyph-name="ordmasculine" unicode="&#xba;" 
d="M320 342q-68 0 -107 40.5t-39 106.5q0 49 14 89.5t39.5 70t62 45.5t81.5 16q68 0 107 -40.5t39 -106.5q0 -49 -14 -89.5t-39.5 -70t-62 -45.5t-81.5 -16zM329 405q40 0 64 24.5t31 65.5l10 59q1 8 1.5 13t0.5 11q0 32 -19 50.5t-55 18.5q-40 0 -64 -24.5t-31 -65.5
l-10 -59q-1 -8 -1.5 -13t-0.5 -11q0 -32 19 -50.5t55 -18.5z" />
    <glyph glyph-name="degree" unicode="&#xb0;" 
d="M329 354q-36 0 -66 11.5t-51.5 32.5t-33.5 51t-12 66q0 41 15 76.5t41.5 62t63 41.5t78.5 15q36 0 65.5 -11.5t51 -32.5t33.5 -51t12 -66q0 -41 -15 -77t-41.5 -62t-62.5 -41t-78 -15zM333 430q50 0 80 34t30 83q0 38 -22.5 62.5t-61.5 24.5q-50 0 -80 -34t-30 -83
q0 -38 22.5 -62.5t61.5 -24.5z" />
    <glyph glyph-name="asterisk" unicode="*" 
d="M150 50l-71 54l145 161l-174 65l40 82l177 -63l33 200h95l-34 -200l194 63l14 -85l-196 -67l92 -158l-79 -52l-93 162z" />
    <glyph glyph-name="dagger" unicode="&#x2020;" 
d="M178 -200l106 635h-186l13 81h187l37 224h92l-37 -224h185l-13 -81h-186l-106 -635h-92z" />
    <glyph glyph-name="daggerdbl" unicode="&#x2021;" 
d="M178 -200l37 224h-186l13 81h187l55 330h-186l13 81h187l37 224h92l-37 -224h185l-13 -81h-186l-55 -330h185l-13 -81h-186l-37 -224h-92z" />
    <glyph glyph-name="numbersign" unicode="#" 
d="M128 208h-121l14 82h135l40 118h-121l14 82h135l72 208h90l-238 -698h-91zM484 698h90l-71 -208h121l-14 -82h-135l-40 -118h121l-14 -82h-135l-71 -208h-91z" />
    <glyph glyph-name="asciicircum" unicode="^" 
d="M487 277l-124 324h-7l-224 -325l-80 42l263 380h117l142 -385z" />
    <glyph glyph-name="asciitilde" unicode="~" 
d="M405 225q-32 0 -56.5 10.5t-50.5 24.5q-24 13 -45.5 23.5t-43.5 10.5q-28 0 -47.5 -18.5t-35.5 -50.5l-74 40q23 55 63.5 87.5t94.5 32.5q32 0 56.5 -10.5t50.5 -24.5q24 -13 45.5 -23.5t43.5 -10.5q28 0 47.5 18.5t35.5 50.5l74 -40q-23 -55 -63.5 -87.5t-94.5 -32.5z
" />
    <glyph glyph-name="plus" unicode="+" 
d="M220 62l33 200h-189l14 87h190l33 200h95l-33 -200h189l-14 -87h-190l-33 -200h-95z" />
    <glyph glyph-name="minus" unicode="&#x2212;" 
d="M64 262l14 87h474l-14 -87h-474z" />
    <glyph glyph-name="plusminus" unicode="&#xb1;" 
d="M237 164l31 187h-189l14 87h190l31 187h95l-31 -187h189l-14 -87h-190l-31 -187h-95zM21 0l14 87h474l-14 -87h-474z" />
    <glyph glyph-name="multiply" unicode="&#xd7;" 
d="M302 243l-183 -156l-56 66l184 157l-128 155l69 59l128 -156l183 156l56 -66l-184 -157l128 -155l-69 -59z" />
    <glyph glyph-name="divide" unicode="&#xf7;" 
d="M64 262l14 87h474l-14 -87h-474zM267 43q-36 0 -51 13.5t-15 32.5q0 13 3 31q5 27 23 42.5t56 15.5q36 0 51 -13.5t15 -32.5q0 -13 -3 -31q-5 -27 -23 -42.5t-56 -15.5zM332 433q-36 0 -51 13.5t-15 32.5q0 13 3 31q5 27 23 42.5t56 15.5q36 0 51 -13.5t15 -32.5
q0 -13 -3 -31q-5 -27 -23 -42.5t-56 -15.5z" />
    <glyph glyph-name="equal" unicode="=" 
d="M82 368l14 87h473l-14 -87h-473zM47 156l14 87h473l-14 -87h-473z" />
    <glyph glyph-name="approxequal" unicode="&#x2248;" 
d="M422 330q-32 0 -56.5 10.5t-50.5 24.5q-24 13 -45.5 23.5t-43.5 10.5q-28 0 -47.5 -18.5t-35.5 -50.5l-74 40q23 55 63.5 87.5t94.5 32.5q32 0 56.5 -10.5t50.5 -24.5q24 -13 45.5 -23.5t43.5 -10.5q28 0 47.5 18.5t35.5 50.5l74 -40q-23 -55 -63.5 -87.5t-94.5 -32.5z
M389 121q-32 0 -56.5 10.5t-50.5 24.5q-24 13 -45.5 23.5t-43.5 10.5q-28 0 -47.5 -18.5t-35.5 -50.5l-74 40q23 55 63.5 87.5t94.5 32.5q32 0 56.5 -10.5t50.5 -24.5q24 -13 45.5 -23.5t43.5 -10.5q28 0 47.5 18.5t35.5 50.5l74 -40q-23 -55 -63.5 -87.5t-94.5 -32.5z" />
    <glyph glyph-name="notequal" unicode="&#x2260;" 
d="M84 58l69 98h-106l14 87h154l92 125h-225l14 87h268l69 98h98l-69 -98h107l-14 -87h-155l-92 -125h226l-14 -87h-269l-69 -98h-98z" />
    <glyph glyph-name="less" unicode="&#x3c;" 
d="M85 255l17 102l468 241l-18 -110l-360 -183l-1 -8l299 -184l-17 -98z" />
    <glyph glyph-name="greater" unicode="&#x3e;" 
d="M66 125l360 183l1 8l-299 184l17 98l388 -240l-17 -102l-468 -241z" />
    <glyph glyph-name="lessequal" unicode="&#x2264;" 
d="M42 0l14 87h428l-14 -87h-428zM551 492l-347 -131l-1 -7l304 -129l-16 -95l-398 178l18 107l457 177z" />
    <glyph glyph-name="greaterequal" unicode="&#x2265;" 
d="M84 230l347 131l1 7l-304 129l16 95l398 -178l-18 -107l-457 -177zM59 87h428l-14 -87h-428z" />
    <glyph glyph-name="periodcentered" unicode="&#xb7;" 
d="M297 224q-42 0 -59.5 15.5t-17.5 38.5q0 8 1.5 17t3.5 23q5 32 28.5 50t65.5 18t59.5 -15.5t17.5 -38.5q0 -8 -1.5 -17t-3.5 -23q-5 -32 -28.5 -50t-65.5 -18z" />
    <glyph glyph-name="bullet" unicode="&#x2022;" 
d="M289 174q-65 0 -92 26.5t-27 66.5q0 6 1 17t5 34q4 25 14.5 46t28.5 36.5t45 24.5t63 9q65 0 92 -26.5t27 -66.5q0 -6 -1 -17t-5 -34q-4 -25 -14.5 -46t-28.5 -36.5t-45 -24.5t-63 -9z" />
    <glyph glyph-name="lozenge" unicode="&#x25ca;" 
d="M213 0l-161 349l273 349h92l161 -349l-273 -349h-92zM274 92l203 262l-114 252h-7l-203 -262l114 -252h7z" />
    <glyph glyph-name="logicalnot" unicode="&#xac;" 
d="M403 68l32 194h-370l14 87h460l-47 -281h-89z" />
    <glyph glyph-name="radical" unicode="&#x221a;" 
d="M196 0l-51 429h-92l14 87h164l20 -176l24 -259h6l113 259l163 358h98l-321 -698h-138z" />
    <glyph glyph-name="integral" unicode="&#x222b;" 
d="M173 -212q-21 0 -39 7.5t-35.5 22.5t-37.5 37.5t-46 53.5l-52 63l73 57l131 -152l16 4l121 731q9 54 46 91t106 37h175l-14 -87h-199l-123 -739q-10 -59 -39 -92.5t-83 -33.5z" />
    <glyph glyph-name="infinity" unicode="&#x221e;" 
d="M138 126q-25 0 -47 8.5t-38.5 26.5t-26.5 45.5t-10 64.5q0 44 12.5 83t35 68t55 46t72.5 17q107 0 139 -131h4q20 65 58.5 98t84.5 33q25 0 47 -8.5t38.5 -26.5t26.5 -45.5t10 -64.5q0 -44 -12.5 -83t-35 -68t-55 -46t-72.5 -17q-107 0 -139 131h-4q-20 -65 -58.5 -98
t-84.5 -33zM162 205q34 0 60.5 23.5t48.5 68.5q-7 46 -23.5 77.5t-54.5 31.5q-32 0 -53 -23.5t-28 -64.5q-2 -14 -3.5 -27.5t-1.5 -23.5q0 -29 14.5 -45.5t40.5 -16.5zM422 205q32 0 53 23.5t28 64.5q2 14 3.5 27.5t1.5 23.5q0 29 -14.5 45.5t-40.5 16.5q-34 0 -60.5 -23.5
t-48.5 -68.5q7 -46 23.5 -77.5t54.5 -31.5z" />
    <glyph glyph-name="uni212E" unicode="&#x212e;" 
d="M162 99q21 -25 57 -43t81 -18q75 0 122.5 38.5t79.5 97.5l45 -25q-18 -33 -41 -62.5t-53 -51t-68 -34.5t-85 -13q-62 0 -112.5 27.5t-86.5 75.5t-55.5 114t-19.5 144t19.5 144t55.5 114t86.5 75.5t112.5 27.5t112.5 -27.5t86.5 -75.5t55.5 -114t19.5 -144h-412v-250z
M438 394v210q-23 26 -58 42t-80 16t-80 -16t-58 -42v-210h276z" />
    <glyph glyph-name="uni2113" unicode="&#x2113;" 
d="M324 -12q-39 0 -71 12t-54.5 34.5t-34.5 54t-12 70.5v17q-11 -8 -25.5 -17t-26.5 -17l-46 72q25 14 50.5 30.5t45.5 30.5v276q0 54 12 92.5t33.5 62.5t51 35t64.5 11q76 0 116.5 -46t40.5 -131q0 -49 -14 -93t-41 -86t-67.5 -84t-94.5 -87v-43q0 -56 20 -80.5t57 -24.5
q19 0 35 6.5t30 19.5t27 33t27 48l80 -44q-13 -33 -31 -60.5t-43 -48t-57 -32t-72 -11.5zM313 663q-26 0 -44 -22t-18 -80v-225q56 54 87.5 109.5t31.5 118.5v18q0 44 -15.5 62.5t-41.5 18.5z" />
    <glyph glyph-name="uni2116" unicode="&#x2116;" 
d="M497 337q-45 0 -68 30t-23 87q0 34 8 80q14 83 46 127.5t89 44.5q45 0 68 -30t23 -87q0 -34 -8 -80q-14 -83 -46 -127.5t-89 -44.5zM-8 0l116 698h143l-15 -343l-13 -262h9l100 605h76l-116 -698h-143l15 343l13 262h-9l-100 -605h-76zM504 400q26 0 36.5 22t17.5 61
l12 74q2 14 3.5 25.5t1.5 19.5q0 18 -7.5 29.5t-25.5 11.5q-26 0 -36.5 -22t-17.5 -61l-12 -74q-2 -14 -3.5 -25.5t-1.5 -19.5q0 -18 7.5 -29.5t25.5 -11.5zM372 244l10 64h212l-10 -64h-212z" />
    <glyph glyph-name="partialdiff" unicode="&#x2202;" 
d="M258 -12q-99 0 -154.5 57.5t-55.5 155.5q0 64 18.5 119.5t52 96t79.5 64t100 23.5q53 0 91 -25t56 -68l5 3q-17 87 -82 158t-171 126h156q41 -24 76.5 -59.5t62 -80.5t42 -99t15.5 -116q0 -84 -21.5 -150t-59.5 -111.5t-92 -69.5t-118 -24zM268 74q59 0 99 34.5t51 104.5
l9 54q2 14 3.5 25t1.5 19q0 53 -30.5 79.5t-82.5 26.5q-59 0 -99 -34.5t-51 -104.5l-9 -54q-2 -14 -3.5 -25t-1.5 -19q0 -53 30.5 -79.5t82.5 -26.5z" />
    <glyph glyph-name="cent" unicode="&#xa2;" 
d="M222 -7q-76 15 -115.5 70.5t-39.5 142.5q0 66 17.5 122t50 98t77.5 68t99 32l17 104h83l-18 -107q61 -10 95.5 -43t46.5 -78l-85 -34q-20 59 -75 72l-61 -365q13 2 27 8.5t30 19t35 33.5t42 52l69 -41q-44 -71 -93 -110.5t-120 -46.5l-17 -104h-83zM172 189
q0 -88 70 -110l60 361q-46 -9 -75.5 -45.5t-39.5 -97.5l-10 -61q-3 -16 -4 -26t-1 -21z" />
    <glyph glyph-name="Euro" unicode="&#x20ac;" 
d="M294 -12q-115 0 -170.5 69t-55.5 194q0 96 21.5 180t63.5 146t103 97.5t139 35.5q48 0 82.5 -12.5t58.5 -32.5t39.5 -46t24.5 -54l-92 -43q-13 43 -40 70t-82 27q-63 0 -105.5 -39.5t-64.5 -108.5h225l-13 -77h-229q-7 -37 -10 -58.5t-4 -32.5h228l-13 -77h-223
q0 -30 7 -57t21.5 -47t38.5 -31.5t59 -11.5q53 0 86 26.5t68 76.5l77 -50q-21 -30 -43.5 -56.5t-50.5 -46t-63.5 -30.5t-82.5 -11z" />
    <glyph glyph-name="florin" unicode="&#x192;" 
d="M133 -212q-22 0 -40 6.5t-35 20t-35.5 34t-40.5 48.5l-63 76l71 55l131 -152l18 7l121 468h-154l14 87h162l35 134q15 58 56 92t109 34h159l-14 -87h-192l-45 -173h180l-14 -87h-188l-115 -443q-15 -60 -43.5 -90t-76.5 -30z" />
    <glyph glyph-name="sterling" unicode="&#xa3;" 
d="M467 -12q-29 0 -64.5 8.5t-73.5 20.5l-195 55l-12 -72h-101l17 105q27 12 48.5 26.5t37.5 34t24.5 45t8.5 59.5q0 9 -0.5 16.5t-1.5 15.5h-104l14 82h76q-4 19 -6.5 39t-2.5 41q0 54 18.5 99t52 78t79.5 51t100 18q43 0 77.5 -11t60 -29.5t43 -43.5t26.5 -52l-89 -46
q-14 38 -43 63.5t-80 25.5q-64 0 -100.5 -41.5t-36.5 -119.5q0 -20 2 -37.5t6 -34.5h179l-14 -82h-150q2 -5 2 -13v-13q0 -45 -23 -78t-68 -41l-3 -6l289 -67l11 12l-26 112l78 22l13 -34q11 -30 17.5 -56.5t6.5 -50.5q0 -42 -24 -71.5t-69 -29.5z" />
    <glyph glyph-name="dollar" unicode="$" 
d="M218 -8q-69 8 -120 39t-77 76l74 67q53 -79 142 -92l39 234l-18 5q-161 41 -161 174q0 47 17 85t48.5 66t75.5 44t99 19l17 102h82l-17 -106q61 -10 103.5 -38t65.5 -66l-74 -63q-21 31 -49.5 50t-66.5 26l-36 -218l21 -5q81 -21 122 -63t41 -110q0 -48 -17 -88.5
t-49 -70.5t-77.5 -48t-103.5 -22l-17 -102h-82zM205 505q0 -38 22 -57.5t66 -31.5l33 200q-58 -6 -89.5 -35.5t-31.5 -75.5zM437 208q0 35 -21.5 56t-70.5 34l-35 -216q60 8 93.5 41t33.5 85z" />
    <glyph glyph-name="yen" unicode="&#xa5;" 
d="M41 86h179l25 152h-178l14 86h136l-129 374h113l108 -346h5l224 346h122l-254 -374h137l-14 -86h-180l-25 -152h179l-14 -86h-462z" />
    <glyph glyph-name="uni0E3F" unicode="&#xe3f;" 
d="M279 -113h-82l19 113h-178l116 698h178l19 113h82l-19 -114q81 -3 123.5 -46.5t42.5 -112.5q0 -71 -39.5 -116t-108.5 -61v-4q51 -12 82 -45t31 -94q0 -46 -16.5 -85.5t-47 -69t-74 -46.5t-97.5 -17h-12zM286 397l36 216h-80l-36 -216h80zM473 543q0 34 -20.5 50.5
t-56.5 18.5l-36 -213q92 6 105 84l5 30q3 18 3 30zM234 85l39 233h-80l-39 -233h80zM438 242q0 73 -91 76l-39 -233q52 2 82.5 23.5t38.5 68.5l5 30q2 9 3 18t1 17z" />
    <glyph glyph-name="uni20A1" unicode="&#x20a1;" 
d="M261 -11q-29 2 -51 9l-29 -111h-65l35 139q-43 31 -64.5 86.5t-21.5 133.5q0 85 16 162t48.5 137.5t81.5 102t115 55.5l27 108h65l-26 -101q16 0 29 -1.5t25 -3.5l27 106h65l-32 -126q39 -21 61.5 -55.5t32.5 -78.5l-92 -36q-5 20 -12 37t-18 31l-128 -498q32 11 55.5 38
t49.5 68l81 -41q-40 -68 -87.5 -108t-121.5 -51l-26 -104h-65zM381 624h-4.5t-7.5 -1l-138 -535q11 -5 23.5 -8.5t30.5 -4.5l140 543q-20 6 -44 6zM169 220q0 -23 3 -42.5t11 -36.5l119 464q-45 -24 -70 -74t-37 -122l-19 -113q-4 -23 -5.5 -41t-1.5 -35z" />
    <glyph glyph-name="uni20A4" unicode="&#x20a4;" 
d="M467 -12q-30 0 -64.5 8.5t-73.5 20.5l-195 55l-12 -72h-102l18 105q46 20 77 50t39 81h-114l12 70h102q-2 19 -5 37t-8 38h-77l12 70h56v12q0 54 18.5 99.5t52 78.5t79.5 51t100 18q43 0 77.5 -11t60 -29.5t43 -43t26.5 -52.5l-89 -46q-14 38 -42.5 63.5t-80.5 25.5
q-64 0 -101 -41t-37 -119v-6h193l-12 -70h-171q5 -20 8 -38.5t5 -36.5h146l-12 -70h-138q-9 -30 -30 -52t-54 -27l-3 -6l289 -67l11 12l-26 112l78 22l13 -34q11 -30 17.5 -56.5t6.5 -49.5q0 -42 -24 -72t-69 -30z" />
    <glyph glyph-name="uni20A6" unicode="&#x20a6;" 
d="M293 244h-122l-41 -244h-86l40 239h-56l13 76h56l12 68h-57l13 76h56l40 239h146l37 -244h122l41 244h86l-40 -239h56l-13 -76h-56l-12 -68h57l-13 -76h-56l-40 -239h-146zM284 310l-45 290h-9l-48 -290h102zM398 98h9l48 290h-102z" />
    <glyph glyph-name="uni20A8" unicode="&#x20a8;" 
d="M4 0l116 698h135q78 0 114.5 -38.5t36.5 -110.5q0 -34 -8 -66.5t-23.5 -60.5t-40 -49t-57.5 -33l36 -168q11 -53 32.5 -79t63.5 -26q35 0 51.5 16.5t16.5 43.5q0 20 -9 38.5t-25 36.5l-15 17q-23 27 -36.5 54t-13.5 60q0 30 10.5 56.5t30 45.5t47 30t61.5 11q26 0 50 -7
t43 -23l-43 -67q-11 9 -23.5 14.5t-29.5 5.5q-25 0 -39.5 -15t-14.5 -40q0 -17 8.5 -32t26.5 -38l13 -16q22 -28 37 -56.5t15 -66.5q0 -65 -40 -106t-129 -41q-149 0 -182 160l-35 174h-31l-53 -322h-96zM205 402q43 0 65 18t29 59l9 54q1 5 1.5 12.5t0.5 12.5q0 57 -69 57
h-39l-35 -213h38z" />
    <glyph glyph-name="uni20A9" unicode="&#x20a9;" 
d="M82 257h-60l13 76h57l11 82h-55l13 76h52l28 207h96l-34 -213h274l37 213h94l-42 -207h53l-13 -76h-55l-16 -82h58l-13 -76h-60l-52 -257h-149l19 421h-20l-121 -421h-150zM157 82l99 339h-66l-53 -339h20zM409 82l60 339h-66l-14 -339h20z" />
    <glyph glyph-name="uni20AA" unicode="&#x20aa;" 
d="M241 543h84l-79 -469h84q49 0 82.5 27t43.5 85l85 512h87l-84 -504q-16 -97 -69 -145.5t-140 -48.5h-185zM125 698h171q78 0 120 -37t42 -112q0 -11 -1 -24.5t-4 -29.5l-56 -340h-84l59 354q2 10 3 19t1 17q0 40 -23 59.5t-67 19.5h-86l-104 -624h-87z" />
    <glyph glyph-name="uni20AB" unicode="&#x20ab;" 
d="M396 241h-5q-23 -42 -61 -71.5t-95 -29.5q-66 0 -105 41t-39 121q0 60 16 107t44.5 79.5t66 49.5t81.5 17q30 0 52 -8.5t37 -23t24.5 -32.5t14.5 -37h5l25 151h-141l13 79h141l9 56h101l-9 -56h61l-13 -79h-61l-76 -456h-101zM280 220q25 0 47.5 7.5t39.5 20.5t28 30.5
t14 37.5l12 72q3 16 -2.5 31.5t-18 28t-31.5 20t-44 7.5q-56 0 -84 -29.5t-36 -73.5q-5 -31 -7 -46.5t-2 -24.5q0 -37 22.5 -59t61.5 -22zM42 0l14 83h443l-14 -83h-443z" />
    <glyph glyph-name="uni20AD" unicode="&#x20ad;" 
d="M146 0h-110l52 315h-65l15 88h65l49 295h110l-49 -295h45l243 295h123l-245 -295h188l-15 -88h-188l155 -315h-120l-150 315h-51z" />
    <glyph glyph-name="uni20AE" unicode="&#x20ae;" 
d="M344 200l-33 -200h-106l25 152l-146 -61l14 82l146 61l14 87l-146 -61l14 82l146 62l34 204h-222l15 90h550l-15 -90h-222l-26 -156l147 62l-14 -82l-147 -62l-14 -88l146 62l-14 -82z" />
    <glyph glyph-name="uni20B1" unicode="&#x20b1;" 
d="M96 329h-54l13 76h53l12 73h-54l13 76h54l24 144h231q152 0 171 -144h67l-13 -76h-53q-1 -20 -3 -38t-5 -35h49l-13 -76h-58q-31 -71 -87.5 -107.5t-135.5 -36.5h-130l-30 -185h-106zM461 551q-4 67 -91 67h-120l-11 -67h222zM441 402q2 9 4 21t4 23.5t3.5 20.5t1.5 14
h-227l-13 -79h227zM309 265q94 0 119 67h-226l-11 -67h118z" />
    <glyph glyph-name="uni20B2" unicode="&#x20b2;" 
d="M165 7q-54 26 -81.5 86t-27.5 151q0 95 20 180t59.5 148.5t99.5 100.5t140 37h6.5t11.5 -1l33 102h87l-42 -119q46 -21 72 -60t34 -88l-89 -30q-5 27 -16 49.5t-34 36.5l-81 -244h190l-19 -114q-10 -57 -31 -104t-54 -80.5t-78.5 -51.5t-105.5 -18h-7t-9 1l-33 -102h-84z
M160 221q0 -85 40 -121l169 520h-13q-38 0 -66.5 -16t-49 -44.5t-34 -68.5t-21.5 -87l-17 -103q-5 -27 -6.5 -46.5t-1.5 -33.5zM266 74q67 0 108 37.5t55 117.5l8 46h-106z" />
    <glyph glyph-name="uni20B4" unicode="&#x20b4;" 
d="M288 -12q-47 0 -84 14t-62.5 38t-39 57t-13.5 71q0 23 5.5 42.5t14.5 35.5h-81l12 71h120l173 85v5h-278l12 71h359q5 10 8 21t3 26q0 46 -26.5 71t-74.5 25q-73 0 -131 -55l-51 72q38 35 87.5 53.5t103.5 18.5q46 0 82 -12.5t61.5 -34.5t39 -52.5t13.5 -65.5
q0 -20 -4 -36.5t-10 -30.5h83l-12 -71h-121l-173 -85l-1 -5h280l-12 -71h-359q-11 -15 -16.5 -32t-5.5 -38q0 -47 28.5 -73.5t77.5 -26.5q38 0 75 18t79 58l53 -72q-43 -45 -99 -68.5t-116 -23.5z" />
    <glyph glyph-name="uni20B5" unicode="&#x20b5;" 
d="M173 12q-55 29 -81.5 88t-26.5 146q0 93 20.5 177.5t60.5 148t100 101t140 37.5h6.5t8.5 -1l33 102h84l-39 -116q27 -10 46.5 -26t33 -35.5t21 -42t11.5 -46.5l-92 -30q-6 29 -17.5 53.5t-35.5 38.5l-174 -531q5 -1 8 -1h8q31 0 54.5 9t41.5 25t33 39t31 50l88 -35
q-21 -40 -44 -72t-53 -55t-68 -35.5t-88 -12.5q-8 0 -17.5 0.5t-16.5 1.5l-34 -103h-84zM170 218q0 -75 37 -112l170 518h-1q-75 0 -119.5 -59t-60.5 -158l-18 -109q-4 -23 -6 -43t-2 -37z" />
    <glyph glyph-name="uni20B8" unicode="&#x20b8;" 
d="M107 615l14 83h507l-14 -83h-507zM387 449l-75 -449h-109l75 449h-199l14 83h507l-14 -83h-199z" />
    <glyph glyph-name="uni20B9" unicode="&#x20b9;" 
d="M346 0l-162 273h-128l14 85h149q65 0 99 25.5t45 70.5h-277l13 78h271q-4 42 -26.5 61t-73.5 20h-157l14 85h503l-14 -85h-202l-1 -5q23 -8 38.5 -25.5t20.5 -50.5h130l-13 -78h-119q-11 -69 -53 -113.5t-117 -59.5l171 -281h-125z" />
    <glyph glyph-name="uni20BA" unicode="&#x20ba;" 
d="M134 227l-94 -40l14 84l94 40l13 80l-93 -40l14 84l93 40l37 223h105l-28 -173l186 80l-14 -84l-186 -81l-14 -80l187 82l-14 -84l-187 -82l-31 -184h64q75 0 122.5 52.5t64.5 160.5h103q-9 -69 -33 -125.5t-61.5 -96.5t-88 -61.5t-113.5 -21.5h-178z" />
    <glyph glyph-name="uni20BD" unicode="&#x20bd;" 
d="M204 127l-21 -127h-110l21 127h-73l14 84h73l13 76h-73l14 84h73l54 327h232q91 0 136 -46.5t45 -124.5q0 -55 -16.5 -99t-47 -75.5t-75 -48.5t-101.5 -17h-131l-13 -76h218l-14 -84h-218zM245 371h114q52 0 82 22.5t38 72.5l6 36q3 18 3 32q0 76 -91 76h-112z" />
    <glyph glyph-name="uni20BF" unicode="&#x20bf;" 
d="M273 0h-66l-19 -113h-70l19 113h-96l116 698h96l19 113h70l-19 -113h66l19 113h70l-20 -123q52 -16 79 -55t27 -96q0 -71 -36.5 -115t-100.5 -61l-1 -4q51 -13 80.5 -45t29.5 -92q0 -42 -13.5 -79.5t-38.5 -66.5t-61 -48t-80 -24l-19 -115h-70zM215 398h107
q56 0 85.5 20.5t37.5 65.5l5 30q3 18 3 32q0 37 -24.5 53t-67.5 16h-110zM163 84h123q116 0 132 97l4 24q2 9 3 19.5t1 20.5q0 35 -25.5 53.5t-73.5 18.5h-125z" />
    <glyph glyph-name="fi" unicode="&#xfb01;" 
d="M127 429h-61l14 87h61l17 97q9 55 45.5 91t103.5 36h105l-14 -87h-127l-23 -137h310l-86 -516h-107l71 429h-202l-72 -429h-107zM526 611q-38 0 -53 14.5t-15 34.5q0 6 1 14t3 17q5 27 22.5 42.5t55.5 15.5t53 -14.5t15 -34.5q0 -6 -1 -14t-3 -17q-5 -27 -22.5 -42.5
t-55.5 -15.5z" />
    <glyph glyph-name="fl" unicode="&#xfb02;" 
d="M127 429h-61l14 87h61l17 97q9 55 45.5 91t103.5 36h112l-14 -87h-134l-23 -137h136l-14 -87h-136l-72 -429h-107zM488 740h107l-123 -740h-107z" />
    <glyph glyph-name="aacute" unicode="&#xe1;" 
d="M367 0l20 122h-4q-29 -60 -70 -97t-108 -37q-80 0 -118.5 52t-38.5 148q0 62 14.5 123t44.5 109t75.5 78t107.5 30q59 0 94 -27t49 -78h5l15 93h107l-86 -516h-107zM248 75q59 0 106 54q17 19 32 47t21 64l17 103q8 45 -19.5 71.5t-81.5 26.5q-67 0 -103.5 -40.5
t-47.5 -103.5l-12 -71q-2 -9 -3 -20.5t-1 -22.5q0 -49 22 -78.5t70 -29.5zM346 579l-63 35l111 176l87 -47z" />
    <glyph glyph-name="abreve" unicode="&#x103;" 
d="M367 0l20 122h-4q-29 -60 -70 -97t-108 -37q-80 0 -118.5 52t-38.5 148q0 62 14.5 123t44.5 109t75.5 78t107.5 30q59 0 94 -27t49 -78h5l15 93h107l-86 -516h-107zM248 75q59 0 106 54q17 19 32 47t21 64l17 103q8 45 -19.5 71.5t-81.5 26.5q-67 0 -103.5 -40.5
t-47.5 -103.5l-12 -71q-2 -9 -3 -20.5t-1 -22.5q0 -49 22 -78.5t70 -29.5zM343 585q-41 0 -68.5 15t-45.5 38t-28 51t-15 54l62 30l17 -35q17 -36 33 -55t49 -19q30 0 49.5 18t49.5 57l26 34l64 -30q-13 -27 -30 -55t-39.5 -51t-53 -37.5t-70.5 -14.5z" />
    <glyph glyph-name="acircumflex" unicode="&#xe2;" 
d="M367 0l20 122h-4q-29 -60 -70 -97t-108 -37q-80 0 -118.5 52t-38.5 148q0 62 14.5 123t44.5 109t75.5 78t107.5 30q59 0 94 -27t49 -78h5l15 93h107l-86 -516h-107zM248 75q59 0 106 54q17 19 32 47t21 64l17 103q8 45 -19.5 71.5t-81.5 26.5q-67 0 -103.5 -40.5
t-47.5 -103.5l-12 -71q-2 -9 -3 -20.5t-1 -22.5q0 -49 22 -78.5t70 -29.5zM420 773l96 -151l-59 -40l-100 116l-136 -116l-52 43l142 148h109z" />
    <glyph glyph-name="adieresis" unicode="&#xe4;" 
d="M367 0l20 122h-4q-29 -60 -70 -97t-108 -37q-80 0 -118.5 52t-38.5 148q0 62 14.5 123t44.5 109t75.5 78t107.5 30q59 0 94 -27t49 -78h5l15 93h107l-86 -516h-107zM248 75q59 0 106 54q17 19 32 47t21 64l17 103q8 45 -19.5 71.5t-81.5 26.5q-67 0 -103.5 -40.5
t-47.5 -103.5l-12 -71q-2 -9 -3 -20.5t-1 -22.5q0 -49 22 -78.5t70 -29.5zM243 608q-34 0 -47.5 12.5t-13.5 30.5q0 5 0.5 10.5t2.5 14.5q4 23 19 39t53 16q34 0 47.5 -12.5t13.5 -30.5q0 -5 -0.5 -10.5t-2.5 -14.5q-4 -23 -19 -39t-53 -16zM443 608q-34 0 -47.5 12.5
t-13.5 30.5q0 5 0.5 10.5t2.5 14.5q4 23 19 39t53 16q34 0 47.5 -12.5t13.5 -30.5q0 -5 -0.5 -10.5t-2.5 -14.5q-4 -23 -19 -39t-53 -16z" />
    <glyph glyph-name="uni1EA1" unicode="&#x1ea1;" 
d="M367 0l20 122h-4q-29 -60 -70 -97t-108 -37q-80 0 -118.5 52t-38.5 148q0 62 14.5 123t44.5 109t75.5 78t107.5 30q59 0 94 -27t49 -78h5l15 93h107l-86 -516h-107zM248 75q59 0 106 54q17 19 32 47t21 64l17 103q8 45 -19.5 71.5t-81.5 26.5q-67 0 -103.5 -40.5
t-47.5 -103.5l-12 -71q-2 -9 -3 -20.5t-1 -22.5q0 -49 22 -78.5t70 -29.5zM222 -184q-34 0 -47.5 12.5t-13.5 31.5q0 5 1 11.5t3 15.5q4 23 19 37.5t50 14.5q34 0 47.5 -12.5t13.5 -31.5q0 -5 -1 -11.5t-3 -15.5q-4 -23 -19 -37.5t-50 -14.5z" />
    <glyph glyph-name="agrave" unicode="&#xe0;" 
d="M367 0l20 122h-4q-29 -60 -70 -97t-108 -37q-80 0 -118.5 52t-38.5 148q0 62 14.5 123t44.5 109t75.5 78t107.5 30q59 0 94 -27t49 -78h5l15 93h107l-86 -516h-107zM248 75q59 0 106 54q17 19 32 47t21 64l17 103q8 45 -19.5 71.5t-81.5 26.5q-67 0 -103.5 -40.5
t-47.5 -103.5l-12 -71q-2 -9 -3 -20.5t-1 -22.5q0 -49 22 -78.5t70 -29.5zM233 750l95 40l63 -183l-67 -28z" />
    <glyph glyph-name="uni1EA3" unicode="&#x1ea3;" 
d="M367 0l20 122h-4q-29 -60 -70 -97t-108 -37q-80 0 -118.5 52t-38.5 148q0 62 14.5 123t44.5 109t75.5 78t107.5 30q59 0 94 -27t49 -78h5l15 93h107l-86 -516h-107zM248 75q59 0 106 54q17 19 32 47t21 64l17 103q8 45 -19.5 71.5t-81.5 26.5q-67 0 -103.5 -40.5
t-47.5 -103.5l-12 -71q-2 -9 -3 -20.5t-1 -22.5q0 -49 22 -78.5t70 -29.5zM270 776h121q38 0 55.5 -15.5t17.5 -39.5q0 -26 -14 -49.5t-37 -49.5l-46 -52l-55 30l63 97h-118z" />
    <glyph glyph-name="amacron" unicode="&#x101;" 
d="M367 0l20 122h-4q-29 -60 -70 -97t-108 -37q-80 0 -118.5 52t-38.5 148q0 62 14.5 123t44.5 109t75.5 78t107.5 30q59 0 94 -27t49 -78h5l15 93h107l-86 -516h-107zM248 75q59 0 106 54q17 19 32 47t21 64l17 103q8 45 -19.5 71.5t-81.5 26.5q-67 0 -103.5 -40.5
t-47.5 -103.5l-12 -71q-2 -9 -3 -20.5t-1 -22.5q0 -49 22 -78.5t70 -29.5zM212 710h289l-14 -81h-289z" />
    <glyph glyph-name="aogonek" unicode="&#x105;" 
d="M474 0q-40 -25 -63.5 -43.5t-35.5 -32t-15.5 -23.5t-3.5 -18q0 -15 9.5 -23t26.5 -8q14 0 27.5 6.5t26.5 20.5l45 -44q-16 -18 -42.5 -31t-65.5 -13q-44 0 -76 19t-32 60q0 40 33.5 71t97.5 54v5h-39l20 122h-4q-29 -60 -70 -97t-108 -37q-80 0 -118.5 52t-38.5 148
q0 62 14.5 123t44.5 109t75.5 78t107.5 30q59 0 94 -27t49 -78h5l15 93h107zM248 75q59 0 106 54q17 19 32 47t21 64l17 103q8 45 -19.5 71.5t-81.5 26.5q-67 0 -103.5 -40.5t-47.5 -103.5l-12 -71q-2 -9 -3 -20.5t-1 -22.5q0 -49 22 -78.5t70 -29.5z" />
    <glyph glyph-name="aring" unicode="&#xe5;" 
d="M367 0l20 122h-4q-29 -60 -70 -97t-108 -37q-80 0 -118.5 52t-38.5 148q0 62 14.5 123t44.5 109t75.5 78t107.5 30q59 0 94 -27t49 -78h5l15 93h107l-86 -516h-107zM248 75q59 0 106 54q17 19 32 47t21 64l17 103q8 45 -19.5 71.5t-81.5 26.5q-67 0 -103.5 -40.5
t-47.5 -103.5l-12 -71q-2 -9 -3 -20.5t-1 -22.5q0 -49 22 -78.5t70 -29.5zM336 566q-49 0 -81 31t-32 79q0 30 11.5 56t31.5 44.5t46.5 29.5t56.5 11q49 0 81 -31t32 -79q0 -30 -11.5 -56t-31.5 -44.5t-46.5 -29.5t-56.5 -11zM342 625q26 0 42 13.5t21 40.5q2 14 3.5 22.5
t1.5 14.5q0 20 -12 31t-35 11q-26 0 -42 -13.5t-21 -40.5q-2 -14 -3.5 -22.5t-1.5 -14.5q0 -20 12 -31t35 -11z" />
    <glyph glyph-name="aringacute" unicode="&#x1fb;" 
d="M367 0l20 122h-4q-29 -60 -70 -97t-108 -37q-80 0 -118.5 52t-38.5 148q0 62 14.5 123t44.5 109t75.5 78t107.5 30q59 0 94 -27t49 -78h5l15 93h107l-86 -516h-107zM248 75q59 0 106 54q17 19 32 47t21 64l17 103q8 45 -19.5 71.5t-81.5 26.5q-67 0 -103.5 -40.5
t-47.5 -103.5l-12 -71q-2 -9 -3 -20.5t-1 -22.5q0 -49 22 -78.5t70 -29.5zM378 811l-42 39l112 116l58 -56zM339 563q-49 0 -81.5 27.5t-32.5 73.5q0 29 11.5 53t31.5 41t46.5 26.5t55.5 9.5q50 0 82.5 -27.5t32.5 -73.5q0 -29 -11.5 -53t-31.5 -41t-46.5 -26.5t-56.5 -9.5z
M346 619q24 0 41 12t22 39q2 9 3 16t1 12q0 40 -49 40q-24 0 -41 -12t-22 -39q-2 -9 -3 -16t-1 -12q0 -40 49 -40z" />
    <glyph glyph-name="atilde" unicode="&#xe3;" 
d="M367 0l20 122h-4q-29 -60 -70 -97t-108 -37q-80 0 -118.5 52t-38.5 148q0 62 14.5 123t44.5 109t75.5 78t107.5 30q59 0 94 -27t49 -78h5l15 93h107l-86 -516h-107zM248 75q59 0 106 54q17 19 32 47t21 64l17 103q8 45 -19.5 71.5t-81.5 26.5q-67 0 -103.5 -40.5
t-47.5 -103.5l-12 -71q-2 -9 -3 -20.5t-1 -22.5q0 -49 22 -78.5t70 -29.5zM415 604q-24 0 -41 7.5t-34 17.5q-17 11 -34 17t-34 6q-16 0 -30.5 -7t-32.5 -21l-33 52q19 23 47 40t63 17q24 0 41 -7.5t34 -17.5q17 -11 34 -17t34 -6q16 0 30.5 7t32.5 21l33 -52
q-19 -23 -47 -40t-63 -17z" />
    <glyph glyph-name="uni1EAF" unicode="&#x1eaf;" 
d="M367 0l20 122h-4q-29 -60 -70 -97t-108 -37q-80 0 -118.5 52t-38.5 148q0 62 14.5 123t44.5 109t75.5 78t107.5 30q59 0 94 -27t49 -78h5l15 93h107l-86 -516h-107zM248 75q59 0 106 54q17 19 32 47t21 64l17 103q8 45 -19.5 71.5t-81.5 26.5q-67 0 -103.5 -40.5
t-47.5 -103.5l-12 -71q-2 -9 -3 -20.5t-1 -22.5q0 -49 22 -78.5t70 -29.5zM340 576q-42 0 -71 13t-47.5 33.5t-29 46t-15.5 50.5l57 33l17 -30q21 -38 40 -53t52 -15q30 0 54 14.5t57 53.5l25 30l60 -33q-14 -27 -32 -52.5t-41.5 -46t-54.5 -32.5t-71 -12zM363 715l-59 32
l106 177l83 -45z" />
    <glyph glyph-name="uni1EB7" unicode="&#x1eb7;" 
d="M367 0l20 122h-4q-29 -60 -70 -97t-108 -37q-80 0 -118.5 52t-38.5 148q0 62 14.5 123t44.5 109t75.5 78t107.5 30q59 0 94 -27t49 -78h5l15 93h107l-86 -516h-107zM248 75q59 0 106 54q17 19 32 47t21 64l17 103q8 45 -19.5 71.5t-81.5 26.5q-67 0 -103.5 -40.5
t-47.5 -103.5l-12 -71q-2 -9 -3 -20.5t-1 -22.5q0 -49 22 -78.5t70 -29.5zM343 585q-41 0 -68.5 15t-45.5 38t-28 51t-15 54l62 30l17 -35q17 -36 33 -55t49 -19q30 0 49.5 18t49.5 57l26 34l64 -30q-13 -27 -30 -55t-39.5 -51t-53 -37.5t-70.5 -14.5zM222 -184
q-34 0 -47.5 12.5t-13.5 31.5q0 5 1 11.5t3 15.5q4 23 19 37.5t50 14.5q34 0 47.5 -12.5t13.5 -31.5q0 -5 -1 -11.5t-3 -15.5q-4 -23 -19 -37.5t-50 -14.5z" />
    <glyph glyph-name="uni1EB1" unicode="&#x1eb1;" 
d="M367 0l20 122h-4q-29 -60 -70 -97t-108 -37q-80 0 -118.5 52t-38.5 148q0 62 14.5 123t44.5 109t75.5 78t107.5 30q59 0 94 -27t49 -78h5l15 93h107l-86 -516h-107zM248 75q59 0 106 54q17 19 32 47t21 64l17 103q8 45 -19.5 71.5t-81.5 26.5q-67 0 -103.5 -40.5
t-47.5 -103.5l-12 -71q-2 -9 -3 -20.5t-1 -22.5q0 -49 22 -78.5t70 -29.5zM340 576q-42 0 -71 13t-47.5 33.5t-29 46t-15.5 50.5l57 33l17 -30q21 -38 40 -53t52 -15q30 0 54 14.5t57 53.5l25 30l60 -33q-14 -27 -32 -52.5t-41.5 -46t-54.5 -32.5t-71 -12zM243 885l92 39
l59 -182l-62 -27z" />
    <glyph glyph-name="uni1EB3" unicode="&#x1eb3;" 
d="M367 0l20 122h-4q-29 -60 -70 -97t-108 -37q-80 0 -118.5 52t-38.5 148q0 62 14.5 123t44.5 109t75.5 78t107.5 30q59 0 94 -27t49 -78h5l15 93h107l-86 -516h-107zM248 75q59 0 106 54q17 19 32 47t21 64l17 103q8 45 -19.5 71.5t-81.5 26.5q-67 0 -103.5 -40.5
t-47.5 -103.5l-12 -71q-2 -9 -3 -20.5t-1 -22.5q0 -49 22 -78.5t70 -29.5zM340 576q-42 0 -71 13t-47.5 33.5t-29 46t-15.5 50.5l57 33l17 -30q21 -38 40 -53t52 -15q30 0 54 14.5t57 53.5l25 30l60 -33q-14 -27 -32 -52.5t-41.5 -46t-54.5 -32.5t-71 -12zM267 912h112
q38 0 55.5 -16t17.5 -39t-14.5 -46t-41.5 -52l-48 -52l-50 28l65 99h-109z" />
    <glyph glyph-name="uni1EB5" unicode="&#x1eb5;" 
d="M367 0l20 122h-4q-29 -60 -70 -97t-108 -37q-80 0 -118.5 52t-38.5 148q0 62 14.5 123t44.5 109t75.5 78t107.5 30q59 0 94 -27t49 -78h5l15 93h107l-86 -516h-107zM248 75q59 0 106 54q17 19 32 47t21 64l17 103q8 45 -19.5 71.5t-81.5 26.5q-67 0 -103.5 -40.5
t-47.5 -103.5l-12 -71q-2 -9 -3 -20.5t-1 -22.5q0 -49 22 -78.5t70 -29.5zM340 576q-42 0 -71 13t-47.5 33.5t-29 46t-15.5 50.5l57 33l17 -30q21 -38 40 -53t52 -15q30 0 54 14.5t57 53.5l25 30l60 -33q-14 -27 -32 -52.5t-41.5 -46t-54.5 -32.5t-71 -12zM428 779
q-25 0 -42 7t-32 14q-20 9 -36 14.5t-32 5.5q-17 0 -31 -6.5t-31 -19.5l-33 47q20 23 46.5 39.5t64.5 16.5q25 0 42 -6.5t32 -14.5q21 -11 36.5 -15.5t31.5 -4.5q17 0 31 6.5t31 19.5l33 -47q-20 -23 -46.5 -39.5t-64.5 -16.5z" />
    <glyph glyph-name="uni1EA5" unicode="&#x1ea5;" 
d="M367 0l20 122h-4q-29 -60 -70 -97t-108 -37q-80 0 -118.5 52t-38.5 148q0 62 14.5 123t44.5 109t75.5 78t107.5 30q59 0 94 -27t49 -78h5l15 93h107l-86 -516h-107zM248 75q59 0 106 54q17 19 32 47t21 64l17 103q8 45 -19.5 71.5t-81.5 26.5q-67 0 -103.5 -40.5
t-47.5 -103.5l-12 -71q-2 -9 -3 -20.5t-1 -22.5q0 -49 22 -78.5t70 -29.5zM517 716l-58 31l104 177l84 -45zM412 762l101 -147l-57 -42l-102 112l-137 -112l-49 46l148 143h96z" />
    <glyph glyph-name="uni1EAD" unicode="&#x1ead;" 
d="M367 0l20 122h-4q-29 -60 -70 -97t-108 -37q-80 0 -118.5 52t-38.5 148q0 62 14.5 123t44.5 109t75.5 78t107.5 30q59 0 94 -27t49 -78h5l15 93h107l-86 -516h-107zM248 75q59 0 106 54q17 19 32 47t21 64l17 103q8 45 -19.5 71.5t-81.5 26.5q-67 0 -103.5 -40.5
t-47.5 -103.5l-12 -71q-2 -9 -3 -20.5t-1 -22.5q0 -49 22 -78.5t70 -29.5zM420 773l96 -151l-59 -40l-100 116l-136 -116l-52 43l142 148h109zM222 -184q-34 0 -47.5 12.5t-13.5 31.5q0 5 1 11.5t3 15.5q4 23 19 37.5t50 14.5q34 0 47.5 -12.5t13.5 -31.5q0 -5 -1 -11.5
t-3 -15.5q-4 -23 -19 -37.5t-50 -14.5z" />
    <glyph glyph-name="uni1EA7" unicode="&#x1ea7;" 
d="M367 0l20 122h-4q-29 -60 -70 -97t-108 -37q-80 0 -118.5 52t-38.5 148q0 62 14.5 123t44.5 109t75.5 78t107.5 30q59 0 94 -27t49 -78h5l15 93h107l-86 -516h-107zM248 75q59 0 106 54q17 19 32 47t21 64l17 103q8 45 -19.5 71.5t-81.5 26.5q-67 0 -103.5 -40.5
t-47.5 -103.5l-12 -71q-2 -9 -3 -20.5t-1 -22.5q0 -49 22 -78.5t70 -29.5zM105 888l89 38l61 -182l-59 -26zM412 762l101 -147l-57 -42l-102 112l-137 -112l-49 46l148 143h96z" />
    <glyph glyph-name="uni1EA9" unicode="&#x1ea9;" 
d="M367 0l20 122h-4q-29 -60 -70 -97t-108 -37q-80 0 -118.5 52t-38.5 148q0 62 14.5 123t44.5 109t75.5 78t107.5 30q59 0 94 -27t49 -78h5l15 93h107l-86 -516h-107zM248 75q59 0 106 54q17 19 32 47t21 64l17 103q8 45 -19.5 71.5t-81.5 26.5q-67 0 -103.5 -40.5
t-47.5 -103.5l-12 -71q-2 -9 -3 -20.5t-1 -22.5q0 -49 22 -78.5t70 -29.5zM431 915h117q38 0 55 -15.5t17 -38.5t-11.5 -44t-30.5 -44l-55 -64l-54 30l63 98h-114zM412 762l101 -147l-57 -42l-102 112l-137 -112l-49 46l148 143h96z" />
    <glyph glyph-name="uni1EAB" unicode="&#x1eab;" 
d="M367 0l20 122h-4q-29 -60 -70 -97t-108 -37q-80 0 -118.5 52t-38.5 148q0 62 14.5 123t44.5 109t75.5 78t107.5 30q59 0 94 -27t49 -78h5l15 93h107l-86 -516h-107zM248 75q59 0 106 54q17 19 32 47t21 64l17 103q8 45 -19.5 71.5t-81.5 26.5q-67 0 -103.5 -40.5
t-47.5 -103.5l-12 -71q-2 -9 -3 -20.5t-1 -22.5q0 -49 22 -78.5t70 -29.5zM314 910q24 0 41 -8t35 -17q19 -10 35 -16.5t33 -6.5t31.5 7t31.5 21l33 -51q-19 -23 -47 -40t-63 -17q-24 0 -41 8t-35 17q-19 10 -35 16.5t-33 6.5t-31.5 -7t-31.5 -21l-33 51q19 23 47 40t63 17z
M412 751l102 -137l-57 -41l-104 105l-134 -105l-50 47l146 131h97z" />
    <glyph glyph-name="aacute.alt01" 
d="M211 -12q-75 0 -117.5 35t-42.5 96q0 86 61 132.5t189 46.5h107l5 30q3 18 3 29q0 42 -26 64.5t-77 22.5t-83.5 -19t-59.5 -52l-60 57q14 19 34.5 36.5t47 31t59 22t70.5 8.5q93 0 147 -43t54 -115q0 -14 -2 -29t-4 -29l-52 -312h-102l15 91h-5q-22 -47 -63 -75t-98 -28z
M244 67q28 0 52 7.5t43 19.5t31 28.5t15 34.5l12 72h-103q-124 0 -133 -74q-2 -13 -2 -18.5v-12.5q0 -28 22.5 -42.5t62.5 -14.5zM355 579l-63 35l111 176l87 -47z" />
    <glyph glyph-name="abreve.alt01" 
d="M211 -12q-75 0 -117.5 35t-42.5 96q0 86 61 132.5t189 46.5h107l5 30q3 18 3 29q0 42 -26 64.5t-77 22.5t-83.5 -19t-59.5 -52l-60 57q14 19 34.5 36.5t47 31t59 22t70.5 8.5q93 0 147 -43t54 -115q0 -14 -2 -29t-4 -29l-52 -312h-102l15 91h-5q-22 -47 -63 -75t-98 -28z
M244 67q28 0 52 7.5t43 19.5t31 28.5t15 34.5l12 72h-103q-124 0 -133 -74q-2 -13 -2 -18.5v-12.5q0 -28 22.5 -42.5t62.5 -14.5zM352 585q-41 0 -68.5 15t-45.5 38t-28 51t-15 54l62 30l17 -35q17 -36 33 -55t49 -19q30 0 49.5 18t49.5 57l26 34l64 -30q-13 -27 -30 -55
t-39.5 -51t-53 -37.5t-70.5 -14.5z" />
    <glyph glyph-name="acircumflex.alt01" 
d="M211 -12q-75 0 -117.5 35t-42.5 96q0 86 61 132.5t189 46.5h107l5 30q3 18 3 29q0 42 -26 64.5t-77 22.5t-83.5 -19t-59.5 -52l-60 57q14 19 34.5 36.5t47 31t59 22t70.5 8.5q93 0 147 -43t54 -115q0 -14 -2 -29t-4 -29l-52 -312h-102l15 91h-5q-22 -47 -63 -75t-98 -28z
M244 67q28 0 52 7.5t43 19.5t31 28.5t15 34.5l12 72h-103q-124 0 -133 -74q-2 -13 -2 -18.5v-12.5q0 -28 22.5 -42.5t62.5 -14.5zM429 773l96 -151l-59 -40l-100 116l-136 -116l-52 43l142 148h109z" />
    <glyph glyph-name="adieresis.alt01" 
d="M211 -12q-75 0 -117.5 35t-42.5 96q0 86 61 132.5t189 46.5h107l5 30q3 18 3 29q0 42 -26 64.5t-77 22.5t-83.5 -19t-59.5 -52l-60 57q14 19 34.5 36.5t47 31t59 22t70.5 8.5q93 0 147 -43t54 -115q0 -14 -2 -29t-4 -29l-52 -312h-102l15 91h-5q-22 -47 -63 -75t-98 -28z
M244 67q28 0 52 7.5t43 19.5t31 28.5t15 34.5l12 72h-103q-124 0 -133 -74q-2 -13 -2 -18.5v-12.5q0 -28 22.5 -42.5t62.5 -14.5zM252 608q-34 0 -47.5 12.5t-13.5 30.5q0 5 0.5 10.5t2.5 14.5q4 23 19 39t53 16q34 0 47.5 -12.5t13.5 -30.5q0 -5 -0.5 -10.5t-2.5 -14.5
q-4 -23 -19 -39t-53 -16zM452 608q-34 0 -47.5 12.5t-13.5 30.5q0 5 0.5 10.5t2.5 14.5q4 23 19 39t53 16q34 0 47.5 -12.5t13.5 -30.5q0 -5 -0.5 -10.5t-2.5 -14.5q-4 -23 -19 -39t-53 -16z" />
    <glyph glyph-name="uni1EA1.alt01" 
d="M211 -12q-75 0 -117.5 35t-42.5 96q0 86 61 132.5t189 46.5h107l5 30q3 18 3 29q0 42 -26 64.5t-77 22.5t-83.5 -19t-59.5 -52l-60 57q14 19 34.5 36.5t47 31t59 22t70.5 8.5q93 0 147 -43t54 -115q0 -14 -2 -29t-4 -29l-52 -312h-102l15 91h-5q-22 -47 -63 -75t-98 -28z
M244 67q28 0 52 7.5t43 19.5t31 28.5t15 34.5l12 72h-103q-124 0 -133 -74q-2 -13 -2 -18.5v-12.5q0 -28 22.5 -42.5t62.5 -14.5zM229 -184q-34 0 -47.5 12.5t-13.5 31.5q0 5 1 11.5t3 15.5q4 23 19 37.5t50 14.5q34 0 47.5 -12.5t13.5 -31.5q0 -5 -1 -11.5t-3 -15.5
q-4 -23 -19 -37.5t-50 -14.5z" />
    <glyph glyph-name="agrave.alt01" 
d="M211 -12q-75 0 -117.5 35t-42.5 96q0 86 61 132.5t189 46.5h107l5 30q3 18 3 29q0 42 -26 64.5t-77 22.5t-83.5 -19t-59.5 -52l-60 57q14 19 34.5 36.5t47 31t59 22t70.5 8.5q93 0 147 -43t54 -115q0 -14 -2 -29t-4 -29l-52 -312h-102l15 91h-5q-22 -47 -63 -75t-98 -28z
M244 67q28 0 52 7.5t43 19.5t31 28.5t15 34.5l12 72h-103q-124 0 -133 -74q-2 -13 -2 -18.5v-12.5q0 -28 22.5 -42.5t62.5 -14.5zM242 750l95 40l63 -183l-67 -28z" />
    <glyph glyph-name="uni1EA3.alt01" 
d="M211 -12q-75 0 -117.5 35t-42.5 96q0 86 61 132.5t189 46.5h107l5 30q3 18 3 29q0 42 -26 64.5t-77 22.5t-83.5 -19t-59.5 -52l-60 57q14 19 34.5 36.5t47 31t59 22t70.5 8.5q93 0 147 -43t54 -115q0 -14 -2 -29t-4 -29l-52 -312h-102l15 91h-5q-22 -47 -63 -75t-98 -28z
M244 67q28 0 52 7.5t43 19.5t31 28.5t15 34.5l12 72h-103q-124 0 -133 -74q-2 -13 -2 -18.5v-12.5q0 -28 22.5 -42.5t62.5 -14.5zM279 776h121q38 0 55.5 -15.5t17.5 -39.5q0 -26 -14 -49.5t-37 -49.5l-46 -52l-55 30l63 97h-118z" />
    <glyph glyph-name="amacron.alt01" 
d="M211 -12q-75 0 -117.5 35t-42.5 96q0 86 61 132.5t189 46.5h107l5 30q3 18 3 29q0 42 -26 64.5t-77 22.5t-83.5 -19t-59.5 -52l-60 57q14 19 34.5 36.5t47 31t59 22t70.5 8.5q93 0 147 -43t54 -115q0 -14 -2 -29t-4 -29l-52 -312h-102l15 91h-5q-22 -47 -63 -75t-98 -28z
M244 67q28 0 52 7.5t43 19.5t31 28.5t15 34.5l12 72h-103q-124 0 -133 -74q-2 -13 -2 -18.5v-12.5q0 -28 22.5 -42.5t62.5 -14.5zM221 710h289l-14 -81h-289z" />
    <glyph glyph-name="aogonek.alt01" 
d="M372 -209q-44 0 -76 19t-32 60q0 40 34 71t99 54l-1 5h-34l15 91h-5q-22 -47 -63 -75t-98 -28q-75 0 -117.5 35t-42.5 96q0 86 61 132.5t189 46.5h107l5 30q3 18 3 29q0 42 -26 64.5t-77 22.5t-83.5 -19t-59.5 -52l-60 57q14 19 34.5 36.5t47 31t59 22t70.5 8.5
q93 0 147 -43t54 -115q0 -14 -2 -29t-4 -29l-52 -312q-40 -25 -63.5 -43.5t-36 -32t-16 -23.5t-3.5 -18q0 -15 9.5 -23t26.5 -8q14 0 27.5 6.5t26.5 20.5l45 -44q-16 -18 -42.5 -31t-65.5 -13zM244 67q28 0 52 7.5t43 19.5t31 28.5t15 34.5l12 72h-103q-124 0 -133 -74
q-2 -13 -2 -18.5v-12.5q0 -28 22.5 -42.5t62.5 -14.5z" />
    <glyph glyph-name="aring.alt01" 
d="M211 -12q-75 0 -117.5 35t-42.5 96q0 86 61 132.5t189 46.5h107l5 30q3 18 3 29q0 42 -26 64.5t-77 22.5t-83.5 -19t-59.5 -52l-60 57q14 19 34.5 36.5t47 31t59 22t70.5 8.5q93 0 147 -43t54 -115q0 -14 -2 -29t-4 -29l-52 -312h-102l15 91h-5q-22 -47 -63 -75t-98 -28z
M244 67q28 0 52 7.5t43 19.5t31 28.5t15 34.5l12 72h-103q-124 0 -133 -74q-2 -13 -2 -18.5v-12.5q0 -28 22.5 -42.5t62.5 -14.5zM345 566q-49 0 -81 31t-32 79q0 30 11.5 56t31.5 44.5t46.5 29.5t56.5 11q49 0 81 -31t32 -79q0 -30 -11.5 -56t-31.5 -44.5t-46.5 -29.5
t-56.5 -11zM351 625q26 0 42 13.5t21 40.5q2 14 3.5 22.5t1.5 14.5q0 20 -12 31t-35 11q-26 0 -42 -13.5t-21 -40.5q-2 -14 -3.5 -22.5t-1.5 -14.5q0 -20 12 -31t35 -11z" />
    <glyph glyph-name="aringacute.alt01" 
d="M211 -12q-75 0 -117.5 35t-42.5 96q0 86 61 132.5t189 46.5h107l5 30q3 18 3 29q0 42 -26 64.5t-77 22.5t-83.5 -19t-59.5 -52l-60 57q14 19 34.5 36.5t47 31t59 22t70.5 8.5q93 0 147 -43t54 -115q0 -14 -2 -29t-4 -29l-52 -312h-102l15 91h-5q-22 -47 -63 -75t-98 -28z
M244 67q28 0 52 7.5t43 19.5t31 28.5t15 34.5l12 72h-103q-124 0 -133 -74q-2 -13 -2 -18.5v-12.5q0 -28 22.5 -42.5t62.5 -14.5zM377 811l-42 39l112 116l58 -56zM338 563q-49 0 -81.5 27.5t-32.5 73.5q0 29 11.5 53t31.5 41t46.5 26.5t55.5 9.5q50 0 82.5 -27.5
t32.5 -73.5q0 -29 -11.5 -53t-31.5 -41t-46.5 -26.5t-56.5 -9.5zM345 619q24 0 41 12t22 39q2 9 3 16t1 12q0 40 -49 40q-24 0 -41 -12t-22 -39q-2 -9 -3 -16t-1 -12q0 -40 49 -40z" />
    <glyph glyph-name="atilde.alt01" 
d="M211 -12q-75 0 -117.5 35t-42.5 96q0 86 61 132.5t189 46.5h107l5 30q3 18 3 29q0 42 -26 64.5t-77 22.5t-83.5 -19t-59.5 -52l-60 57q14 19 34.5 36.5t47 31t59 22t70.5 8.5q93 0 147 -43t54 -115q0 -14 -2 -29t-4 -29l-52 -312h-102l15 91h-5q-22 -47 -63 -75t-98 -28z
M244 67q28 0 52 7.5t43 19.5t31 28.5t15 34.5l12 72h-103q-124 0 -133 -74q-2 -13 -2 -18.5v-12.5q0 -28 22.5 -42.5t62.5 -14.5zM424 604q-24 0 -41 7.5t-34 17.5q-17 11 -34 17t-34 6q-16 0 -30.5 -7t-32.5 -21l-33 52q19 23 47 40t63 17q24 0 41 -7.5t34 -17.5
q17 -11 34 -17t34 -6q16 0 30.5 7t32.5 21l33 -52q-19 -23 -47 -40t-63 -17z" />
    <glyph glyph-name="uni1EAF.alt01" 
d="M211 -12q-75 0 -117.5 35t-42.5 96q0 86 61 132.5t189 46.5h107l5 30q3 18 3 29q0 42 -26 64.5t-77 22.5t-83.5 -19t-59.5 -52l-60 57q14 19 34.5 36.5t47 31t59 22t70.5 8.5q93 0 147 -43t54 -115q0 -14 -2 -29t-4 -29l-52 -312h-102l15 91h-5q-22 -47 -63 -75t-98 -28z
M244 67q28 0 52 7.5t43 19.5t31 28.5t15 34.5l12 72h-103q-124 0 -133 -74q-2 -13 -2 -18.5v-12.5q0 -28 22.5 -42.5t62.5 -14.5zM349 576q-42 0 -71 13t-47.5 33.5t-29 46t-15.5 50.5l57 33l17 -30q21 -38 40 -53t52 -15q30 0 54 14.5t57 53.5l25 30l60 -33
q-14 -27 -32 -52.5t-41.5 -46t-54.5 -32.5t-71 -12zM372 715l-59 32l106 177l83 -45z" />
    <glyph glyph-name="uni1EB7.alt01" 
d="M211 -12q-75 0 -117.5 35t-42.5 96q0 86 61 132.5t189 46.5h107l5 30q3 18 3 29q0 42 -26 64.5t-77 22.5t-83.5 -19t-59.5 -52l-60 57q14 19 34.5 36.5t47 31t59 22t70.5 8.5q93 0 147 -43t54 -115q0 -14 -2 -29t-4 -29l-52 -312h-102l15 91h-5q-22 -47 -63 -75t-98 -28z
M244 67q28 0 52 7.5t43 19.5t31 28.5t15 34.5l12 72h-103q-124 0 -133 -74q-2 -13 -2 -18.5v-12.5q0 -28 22.5 -42.5t62.5 -14.5zM352 585q-41 0 -68.5 15t-45.5 38t-28 51t-15 54l62 30l17 -35q17 -36 33 -55t49 -19q30 0 49.5 18t49.5 57l26 34l64 -30q-13 -27 -30 -55
t-39.5 -51t-53 -37.5t-70.5 -14.5zM229 -184q-34 0 -47.5 12.5t-13.5 31.5q0 5 1 11.5t3 15.5q4 23 19 37.5t50 14.5q34 0 47.5 -12.5t13.5 -31.5q0 -5 -1 -11.5t-3 -15.5q-4 -23 -19 -37.5t-50 -14.5z" />
    <glyph glyph-name="uni1EB1.alt01" 
d="M211 -12q-75 0 -117.5 35t-42.5 96q0 86 61 132.5t189 46.5h107l5 30q3 18 3 29q0 42 -26 64.5t-77 22.5t-83.5 -19t-59.5 -52l-60 57q14 19 34.5 36.5t47 31t59 22t70.5 8.5q93 0 147 -43t54 -115q0 -14 -2 -29t-4 -29l-52 -312h-102l15 91h-5q-22 -47 -63 -75t-98 -28z
M244 67q28 0 52 7.5t43 19.5t31 28.5t15 34.5l12 72h-103q-124 0 -133 -74q-2 -13 -2 -18.5v-12.5q0 -28 22.5 -42.5t62.5 -14.5zM349 576q-42 0 -71 13t-47.5 33.5t-29 46t-15.5 50.5l57 33l17 -30q21 -38 40 -53t52 -15q30 0 54 14.5t57 53.5l25 30l60 -33
q-14 -27 -32 -52.5t-41.5 -46t-54.5 -32.5t-71 -12zM252 885l92 39l59 -182l-62 -27z" />
    <glyph glyph-name="uni1EB3.alt01" 
d="M211 -12q-75 0 -117.5 35t-42.5 96q0 86 61 132.5t189 46.5h107l5 30q3 18 3 29q0 42 -26 64.5t-77 22.5t-83.5 -19t-59.5 -52l-60 57q14 19 34.5 36.5t47 31t59 22t70.5 8.5q93 0 147 -43t54 -115q0 -14 -2 -29t-4 -29l-52 -312h-102l15 91h-5q-22 -47 -63 -75t-98 -28z
M244 67q28 0 52 7.5t43 19.5t31 28.5t15 34.5l12 72h-103q-124 0 -133 -74q-2 -13 -2 -18.5v-12.5q0 -28 22.5 -42.5t62.5 -14.5zM349 576q-42 0 -71 13t-47.5 33.5t-29 46t-15.5 50.5l57 33l17 -30q21 -38 40 -53t52 -15q30 0 54 14.5t57 53.5l25 30l60 -33
q-14 -27 -32 -52.5t-41.5 -46t-54.5 -32.5t-71 -12zM276 912h112q38 0 55.5 -16t17.5 -39t-14.5 -46t-41.5 -52l-48 -52l-50 28l65 99h-109z" />
    <glyph glyph-name="uni1EB5.alt01" 
d="M211 -12q-75 0 -117.5 35t-42.5 96q0 86 61 132.5t189 46.5h107l5 30q3 18 3 29q0 42 -26 64.5t-77 22.5t-83.5 -19t-59.5 -52l-60 57q14 19 34.5 36.5t47 31t59 22t70.5 8.5q93 0 147 -43t54 -115q0 -14 -2 -29t-4 -29l-52 -312h-102l15 91h-5q-22 -47 -63 -75t-98 -28z
M244 67q28 0 52 7.5t43 19.5t31 28.5t15 34.5l12 72h-103q-124 0 -133 -74q-2 -13 -2 -18.5v-12.5q0 -28 22.5 -42.5t62.5 -14.5zM349 576q-42 0 -71 13t-47.5 33.5t-29 46t-15.5 50.5l57 33l17 -30q21 -38 40 -53t52 -15q30 0 54 14.5t57 53.5l25 30l60 -33
q-14 -27 -32 -52.5t-41.5 -46t-54.5 -32.5t-71 -12zM437 779q-25 0 -42 7t-32 14q-20 9 -36 14.5t-32 5.5q-17 0 -31 -6.5t-31 -19.5l-33 47q20 23 46.5 39.5t64.5 16.5q25 0 42 -6.5t32 -14.5q21 -11 36.5 -15.5t31.5 -4.5q17 0 31 6.5t31 19.5l33 -47q-20 -23 -46.5 -39.5
t-64.5 -16.5z" />
    <glyph glyph-name="uni1EA5.alt01" 
d="M211 -12q-75 0 -117.5 35t-42.5 96q0 86 61 132.5t189 46.5h107l5 30q3 18 3 29q0 42 -26 64.5t-77 22.5t-83.5 -19t-59.5 -52l-60 57q14 19 34.5 36.5t47 31t59 22t70.5 8.5q93 0 147 -43t54 -115q0 -14 -2 -29t-4 -29l-52 -312h-102l15 91h-5q-22 -47 -63 -75t-98 -28z
M244 67q28 0 52 7.5t43 19.5t31 28.5t15 34.5l12 72h-103q-124 0 -133 -74q-2 -13 -2 -18.5v-12.5q0 -28 22.5 -42.5t62.5 -14.5zM526 716l-58 31l104 177l84 -45zM421 762l101 -147l-57 -42l-102 112l-137 -112l-49 46l148 143h96z" />
    <glyph glyph-name="uni1EAD.alt01" 
d="M211 -12q-75 0 -117.5 35t-42.5 96q0 86 61 132.5t189 46.5h107l5 30q3 18 3 29q0 42 -26 64.5t-77 22.5t-83.5 -19t-59.5 -52l-60 57q14 19 34.5 36.5t47 31t59 22t70.5 8.5q93 0 147 -43t54 -115q0 -14 -2 -29t-4 -29l-52 -312h-102l15 91h-5q-22 -47 -63 -75t-98 -28z
M244 67q28 0 52 7.5t43 19.5t31 28.5t15 34.5l12 72h-103q-124 0 -133 -74q-2 -13 -2 -18.5v-12.5q0 -28 22.5 -42.5t62.5 -14.5zM429 773l96 -151l-59 -40l-100 116l-136 -116l-52 43l142 148h109zM229 -184q-34 0 -47.5 12.5t-13.5 31.5q0 5 1 11.5t3 15.5q4 23 19 37.5
t50 14.5q34 0 47.5 -12.5t13.5 -31.5q0 -5 -1 -11.5t-3 -15.5q-4 -23 -19 -37.5t-50 -14.5z" />
    <glyph glyph-name="uni1EA7.alt01" 
d="M211 -12q-75 0 -117.5 35t-42.5 96q0 86 61 132.5t189 46.5h107l5 30q3 18 3 29q0 42 -26 64.5t-77 22.5t-83.5 -19t-59.5 -52l-60 57q14 19 34.5 36.5t47 31t59 22t70.5 8.5q93 0 147 -43t54 -115q0 -14 -2 -29t-4 -29l-52 -312h-102l15 91h-5q-22 -47 -63 -75t-98 -28z
M244 67q28 0 52 7.5t43 19.5t31 28.5t15 34.5l12 72h-103q-124 0 -133 -74q-2 -13 -2 -18.5v-12.5q0 -28 22.5 -42.5t62.5 -14.5zM114 888l89 38l61 -182l-59 -26zM421 762l101 -147l-57 -42l-102 112l-137 -112l-49 46l148 143h96z" />
    <glyph glyph-name="uni1EA9.alt01" 
d="M211 -12q-75 0 -117.5 35t-42.5 96q0 86 61 132.5t189 46.5h107l5 30q3 18 3 29q0 42 -26 64.5t-77 22.5t-83.5 -19t-59.5 -52l-60 57q14 19 34.5 36.5t47 31t59 22t70.5 8.5q93 0 147 -43t54 -115q0 -14 -2 -29t-4 -29l-52 -312h-102l15 91h-5q-22 -47 -63 -75t-98 -28z
M244 67q28 0 52 7.5t43 19.5t31 28.5t15 34.5l12 72h-103q-124 0 -133 -74q-2 -13 -2 -18.5v-12.5q0 -28 22.5 -42.5t62.5 -14.5zM440 915h117q38 0 55 -15.5t17 -38.5t-11.5 -44t-30.5 -44l-55 -64l-54 30l63 98h-114zM421 762l101 -147l-57 -42l-102 112l-137 -112l-49 46
l148 143h96z" />
    <glyph glyph-name="uni1EAB.alt01" 
d="M211 -12q-75 0 -117.5 35t-42.5 96q0 86 61 132.5t189 46.5h107l5 30q3 18 3 29q0 42 -26 64.5t-77 22.5t-83.5 -19t-59.5 -52l-60 57q14 19 34.5 36.5t47 31t59 22t70.5 8.5q93 0 147 -43t54 -115q0 -14 -2 -29t-4 -29l-52 -312h-102l15 91h-5q-22 -47 -63 -75t-98 -28z
M244 67q28 0 52 7.5t43 19.5t31 28.5t15 34.5l12 72h-103q-124 0 -133 -74q-2 -13 -2 -18.5v-12.5q0 -28 22.5 -42.5t62.5 -14.5zM323 910q24 0 41 -8t35 -17q19 -10 35 -16.5t33 -6.5t31.5 7t31.5 21l33 -51q-19 -23 -47 -40t-63 -17q-24 0 -41 8t-35 17q-19 10 -35 16.5
t-33 6.5t-31.5 -7t-31.5 -21l-33 51q19 23 47 40t63 17zM421 751l102 -137l-57 -41l-104 105l-134 -105l-50 47l146 131h97z" />
    <glyph glyph-name="ae" unicode="&#xe6;" 
d="M116 -12q-52 0 -85.5 32t-33.5 98q0 82 55.5 127t152.5 48l53 2l8 50q2 11 3 21t1 18q0 72 -64 72q-33 0 -56 -19.5t-43 -55.5l-60 40q26 51 66 79t98 28q57 0 86 -25t31 -65h4q22 42 56.5 66t83.5 24q57 0 91.5 -33.5t34.5 -92.5q0 -29 -11.5 -58.5t-40.5 -53.5
t-79.5 -40t-128.5 -18l-3 -19q-2 -14 -3 -27.5t-1 -23.5q0 -48 17.5 -73t50.5 -25q35 0 55 24.5t37 59.5l70 -32q-24 -55 -65 -91.5t-103 -36.5q-55 0 -92.5 31t-42.5 96h-5q-31 -127 -137 -127zM141 60q35 0 60.5 27t33.5 75l12 69l-44 -1q-51 -2 -81 -19t-37 -62
q-2 -14 -2.5 -21.5t-0.5 -11.5q0 -28 16.5 -42t42.5 -14zM462 456q-45 0 -73 -41.5t-39 -106.5l-2 -13q48 1 80 10t51.5 23t28 32.5t8.5 38.5q0 57 -54 57z" />
    <glyph glyph-name="aeacute" unicode="&#x1fd;" 
d="M363 579l-63 35l111 176l87 -47zM116 -12q-52 0 -85.5 32t-33.5 98q0 82 55.5 127t152.5 48l53 2l8 50q2 11 3 21t1 18q0 72 -64 72q-33 0 -56 -19.5t-43 -55.5l-60 40q26 51 66 79t98 28q57 0 86 -25t31 -65h4q22 42 56.5 66t83.5 24q57 0 91.5 -33.5t34.5 -92.5
q0 -29 -11.5 -58.5t-40.5 -53.5t-79.5 -40t-128.5 -18l-3 -19q-2 -14 -3 -27.5t-1 -23.5q0 -48 17.5 -73t50.5 -25q35 0 55 24.5t37 59.5l70 -32q-24 -55 -65 -91.5t-103 -36.5q-55 0 -92.5 31t-42.5 96h-5q-31 -127 -137 -127zM141 60q35 0 60.5 27t33.5 75l12 69l-44 -1
q-51 -2 -81 -19t-37 -62q-2 -14 -2.5 -21.5t-0.5 -11.5q0 -28 16.5 -42t42.5 -14zM462 456q-45 0 -73 -41.5t-39 -106.5l-2 -13q48 1 80 10t51.5 23t28 32.5t8.5 38.5q0 57 -54 57z" />
    <glyph glyph-name="cacute" unicode="&#x107;" 
d="M360 579l-63 35l111 176l87 -47zM271 -12q-100 0 -152 59t-52 159q0 70 20 129.5t56.5 102t87 66.5t111.5 24q42 0 74 -9.5t55 -27t37.5 -40.5t21.5 -50l-89 -39q-13 42 -38 59.5t-71 17.5q-55 0 -92.5 -35.5t-49.5 -107.5l-10 -60q-2 -14 -3 -25t-1 -22q0 -56 28.5 -84
t82.5 -28q16 0 32.5 3.5t35 16t41.5 36t52 63.5l71 -44q-25 -40 -51 -70.5t-55 -51.5t-64 -31.5t-78 -10.5z" />
    <glyph glyph-name="ccaron" unicode="&#x10d;" 
d="M298 591l-95 151l58 40l100 -116l136 116l52 -43l-142 -148h-109zM271 -12q-100 0 -152 59t-52 159q0 70 20 129.5t56.5 102t87 66.5t111.5 24q42 0 74 -9.5t55 -27t37.5 -40.5t21.5 -50l-89 -39q-13 42 -38 59.5t-71 17.5q-55 0 -92.5 -35.5t-49.5 -107.5l-10 -60
q-2 -14 -3 -25t-1 -22q0 -56 28.5 -84t82.5 -28q16 0 32.5 3.5t35 16t41.5 36t52 63.5l71 -44q-25 -40 -51 -70.5t-55 -51.5t-64 -31.5t-78 -10.5z" />
    <glyph glyph-name="ccedilla" unicode="&#xe7;" 
d="M342 528q42 0 74 -9.5t55 -27t37.5 -40.5t21.5 -50l-89 -39q-13 42 -38 59.5t-71 17.5q-55 0 -92.5 -35.5t-49.5 -107.5l-10 -60q-2 -14 -3 -25t-1 -22q0 -56 28.5 -84t82.5 -28q16 0 32.5 3.5t35 16t41.5 36t52 63.5l71 -44q-46 -74 -97 -115.5t-124 -47.5l-17 -47l2 -4
q11 3 21 4t18 1q28 0 45.5 -14.5t17.5 -45.5q0 -23 -10 -40t-27 -28.5t-40 -17.5t-49 -6q-42 0 -68 13t-37 30l44 45q8 -10 22.5 -18.5t37.5 -8.5q20 0 34 8t14 24q0 11 -11.5 22t-51.5 16l-26 3l24 65q-86 9 -130 66.5t-44 149.5q0 70 20 129.5t56.5 102t87 66.5t111.5 24z
" />
    <glyph glyph-name="ccircumflex" unicode="&#x109;" 
d="M434 773l96 -151l-59 -40l-100 116l-136 -116l-52 43l142 148h109zM271 -12q-100 0 -152 59t-52 159q0 70 20 129.5t56.5 102t87 66.5t111.5 24q42 0 74 -9.5t55 -27t37.5 -40.5t21.5 -50l-89 -39q-13 42 -38 59.5t-71 17.5q-55 0 -92.5 -35.5t-49.5 -107.5l-10 -60
q-2 -14 -3 -25t-1 -22q0 -56 28.5 -84t82.5 -28q16 0 32.5 3.5t35 16t41.5 36t52 63.5l71 -44q-25 -40 -51 -70.5t-55 -51.5t-64 -31.5t-78 -10.5z" />
    <glyph glyph-name="cdotaccent" unicode="&#x10b;" 
d="M271 -12q-100 0 -152 59t-52 159q0 70 20 129.5t56.5 102t87 66.5t111.5 24q42 0 74 -9.5t55 -27t37.5 -40.5t21.5 -50l-89 -39q-13 42 -38 59.5t-71 17.5q-55 0 -92.5 -35.5t-49.5 -107.5l-10 -60q-2 -14 -3 -25t-1 -22q0 -56 28.5 -84t82.5 -28q16 0 32.5 3.5t35 16
t41.5 36t52 63.5l71 -44q-25 -40 -51 -70.5t-55 -51.5t-64 -31.5t-78 -10.5zM356 600q-38 0 -53 14.5t-15 34.5q0 6 1 14t3 17q5 27 22.5 42.5t55.5 15.5t53 -14.5t15 -34.5q0 -6 -1 -14t-3 -17q-5 -27 -22.5 -42.5t-55.5 -15.5z" />
    <glyph glyph-name="dcaron" unicode="&#x10f;" 
d="M175 -12q-73 0 -108.5 52t-35.5 148q0 62 13 123t40 109t68.5 78t98.5 30q54 0 86 -27t46 -78h4l53 317h104l-124 -740h-104l19 111h-5q-26 -55 -61.5 -89t-93.5 -34zM218 75q23 0 43.5 9.5t41.5 32.5q17 18 31 45t19 61l20 118q9 49 -17 74.5t-71 25.5q-59 0 -89.5 -41
t-41.5 -104l-11 -66q-2 -14 -3.5 -26.5t-1.5 -26.5q0 -47 20.5 -74.5t59.5 -27.5zM608 740h113l-84 -197h-65z" />
    <glyph glyph-name="dcroat" unicode="&#x111;" 
d="M387 122h-4q-29 -60 -70 -97t-108 -37q-80 0 -118.5 52t-38.5 148q0 62 14.5 123t44.5 109t75.5 78t107.5 30q59 0 94 -27t49 -78h5l28 174h-146l13 80h147l10 63h107l-10 -63h60l-13 -80h-61l-99 -597h-107zM248 75q59 0 106 54q17 19 32 47t21 64l17 103
q8 45 -19.5 71.5t-81.5 26.5q-67 0 -103.5 -40.5t-47.5 -103.5l-12 -71q-2 -9 -3 -20t-1 -23q0 -49 22 -78.5t70 -29.5z" />
    <glyph glyph-name="eth" unicode="&#xf0;" 
d="M448 646q43 -54 73 -129t30 -174q0 -86 -20.5 -152t-59 -111t-93 -68.5t-122.5 -23.5q-48 0 -86.5 15t-65.5 43t-41.5 67.5t-14.5 87.5q0 64 19 119t52.5 95.5t80 63.5t101.5 23q54 0 91 -25.5t54 -67.5l6 3q-15 95 -90 185l-103 -61l-35 52l94 56q-29 26 -62.5 50.5
t-71.5 45.5h166q13 -10 27 -21.5t28 -25.5l100 60l35 -52zM271 73q62 0 102 36t51 104l9 54l3.5 24.5t1.5 18.5q0 54 -31 80t-84 26q-62 0 -102 -36t-51 -104l-9 -54l-3.5 -24.5t-1.5 -18.5q0 -54 31 -80t84 -26z" />
    <glyph glyph-name="eacute" unicode="&#xe9;" 
d="M370 579l-63 35l111 176l87 -47zM279 -12q-106 0 -159.5 56t-53.5 165q0 71 21.5 129.5t60 100.5t92 65.5t118.5 23.5q39 0 72 -9t57.5 -26.5t38.5 -44t14 -60.5q0 -29 -12.5 -59t-51.5 -55t-111 -42t-190 -21q-1 -7 -1 -12.5v-7.5q0 -24 5.5 -45.5t18.5 -37.5t35.5 -25
t57.5 -9q25 0 45.5 5.5t39 17.5t37 31.5t39.5 48.5l70 -45q-21 -33 -45 -59.5t-53.5 -45t-65 -29t-79.5 -10.5zM348 447q-66 0 -108 -39t-55 -119l-2 -11q84 3 133.5 13.5t76 25t34 31.5t7.5 33q0 29 -19.5 47.5t-66.5 18.5z" />
    <glyph glyph-name="ebreve" unicode="&#x115;" 
d="M279 -12q-106 0 -159.5 56t-53.5 165q0 71 21.5 129.5t60 100.5t92 65.5t118.5 23.5q39 0 72 -9t57.5 -26.5t38.5 -44t14 -60.5q0 -29 -12.5 -59t-51.5 -55t-111 -42t-190 -21q-1 -7 -1 -12.5v-7.5q0 -24 5.5 -45.5t18.5 -37.5t35.5 -25t57.5 -9q25 0 45.5 5.5t39 17.5
t37 31.5t39.5 48.5l70 -45q-21 -33 -45 -59.5t-53.5 -45t-65 -29t-79.5 -10.5zM348 447q-66 0 -108 -39t-55 -119l-2 -11q84 3 133.5 13.5t76 25t34 31.5t7.5 33q0 29 -19.5 47.5t-66.5 18.5zM367 585q-41 0 -68.5 15t-45.5 38t-28 51t-15 54l62 30l17 -35q17 -36 33 -55
t49 -19q30 0 49.5 18t49.5 57l26 34l64 -30q-13 -27 -30 -55t-39.5 -51t-53 -37.5t-70.5 -14.5z" />
    <glyph glyph-name="ecaron" unicode="&#x11b;" 
d="M308 591l-95 151l58 40l100 -116l136 116l52 -43l-142 -148h-109zM279 -12q-106 0 -159.5 56t-53.5 165q0 71 21.5 129.5t60 100.5t92 65.5t118.5 23.5q39 0 72 -9t57.5 -26.5t38.5 -44t14 -60.5q0 -29 -12.5 -59t-51.5 -55t-111 -42t-190 -21q-1 -7 -1 -12.5v-7.5
q0 -24 5.5 -45.5t18.5 -37.5t35.5 -25t57.5 -9q25 0 45.5 5.5t39 17.5t37 31.5t39.5 48.5l70 -45q-21 -33 -45 -59.5t-53.5 -45t-65 -29t-79.5 -10.5zM348 447q-66 0 -108 -39t-55 -119l-2 -11q84 3 133.5 13.5t76 25t34 31.5t7.5 33q0 29 -19.5 47.5t-66.5 18.5z" />
    <glyph glyph-name="ecircumflex" unicode="&#xea;" 
d="M444 773l96 -151l-59 -40l-100 116l-136 -116l-52 43l142 148h109zM279 -12q-106 0 -159.5 56t-53.5 165q0 71 21.5 129.5t60 100.5t92 65.5t118.5 23.5q39 0 72 -9t57.5 -26.5t38.5 -44t14 -60.5q0 -29 -12.5 -59t-51.5 -55t-111 -42t-190 -21q-1 -7 -1 -12.5v-7.5
q0 -24 5.5 -45.5t18.5 -37.5t35.5 -25t57.5 -9q25 0 45.5 5.5t39 17.5t37 31.5t39.5 48.5l70 -45q-21 -33 -45 -59.5t-53.5 -45t-65 -29t-79.5 -10.5zM348 447q-66 0 -108 -39t-55 -119l-2 -11q84 3 133.5 13.5t76 25t34 31.5t7.5 33q0 29 -19.5 47.5t-66.5 18.5z" />
    <glyph glyph-name="edieresis" unicode="&#xeb;" 
d="M267 608q-34 0 -47.5 12.5t-13.5 30.5q0 5 0.5 10.5t2.5 14.5q4 23 19 39t53 16q34 0 47.5 -12.5t13.5 -30.5q0 -5 -0.5 -10.5t-2.5 -14.5q-4 -23 -19 -39t-53 -16zM467 608q-34 0 -47.5 12.5t-13.5 30.5q0 5 0.5 10.5t2.5 14.5q4 23 19 39t53 16q34 0 47.5 -12.5
t13.5 -30.5q0 -5 -0.5 -10.5t-2.5 -14.5q-4 -23 -19 -39t-53 -16zM279 -12q-106 0 -159.5 56t-53.5 165q0 71 21.5 129.5t60 100.5t92 65.5t118.5 23.5q39 0 72 -9t57.5 -26.5t38.5 -44t14 -60.5q0 -29 -12.5 -59t-51.5 -55t-111 -42t-190 -21q-1 -7 -1 -12.5v-7.5
q0 -24 5.5 -45.5t18.5 -37.5t35.5 -25t57.5 -9q25 0 45.5 5.5t39 17.5t37 31.5t39.5 48.5l70 -45q-21 -33 -45 -59.5t-53.5 -45t-65 -29t-79.5 -10.5zM348 447q-66 0 -108 -39t-55 -119l-2 -11q84 3 133.5 13.5t76 25t34 31.5t7.5 33q0 29 -19.5 47.5t-66.5 18.5z" />
    <glyph glyph-name="edotaccent" unicode="&#x117;" 
d="M279 -12q-106 0 -159.5 56t-53.5 165q0 71 21.5 129.5t60 100.5t92 65.5t118.5 23.5q39 0 72 -9t57.5 -26.5t38.5 -44t14 -60.5q0 -29 -12.5 -59t-51.5 -55t-111 -42t-190 -21q-1 -7 -1 -12.5v-7.5q0 -24 5.5 -45.5t18.5 -37.5t35.5 -25t57.5 -9q25 0 45.5 5.5t39 17.5
t37 31.5t39.5 48.5l70 -45q-21 -33 -45 -59.5t-53.5 -45t-65 -29t-79.5 -10.5zM348 447q-66 0 -108 -39t-55 -119l-2 -11q84 3 133.5 13.5t76 25t34 31.5t7.5 33q0 29 -19.5 47.5t-66.5 18.5zM366 600q-38 0 -53 14.5t-15 34.5q0 6 1 14t3 17q5 27 22.5 42.5t55.5 15.5
t53 -14.5t15 -34.5q0 -6 -1 -14t-3 -17q-5 -27 -22.5 -42.5t-55.5 -15.5z" />
    <glyph glyph-name="uni1EB9" unicode="&#x1eb9;" 
d="M279 -12q-106 0 -159.5 56t-53.5 165q0 71 21.5 129.5t60 100.5t92 65.5t118.5 23.5q39 0 72 -9t57.5 -26.5t38.5 -44t14 -60.5q0 -29 -12.5 -59t-51.5 -55t-111 -42t-190 -21q-1 -7 -1 -12.5v-7.5q0 -24 5.5 -45.5t18.5 -37.5t35.5 -25t57.5 -9q25 0 45.5 5.5t39 17.5
t37 31.5t39.5 48.5l70 -45q-21 -33 -45 -59.5t-53.5 -45t-65 -29t-79.5 -10.5zM348 447q-66 0 -108 -39t-55 -119l-2 -11q84 3 133.5 13.5t76 25t34 31.5t7.5 33q0 29 -19.5 47.5t-66.5 18.5zM260 -184q-34 0 -47.5 12.5t-13.5 31.5q0 5 1 11.5t3 15.5q4 23 19 37.5t50 14.5
q34 0 47.5 -12.5t13.5 -31.5q0 -5 -1 -11.5t-3 -15.5q-4 -23 -19 -37.5t-50 -14.5z" />
    <glyph glyph-name="egrave" unicode="&#xe8;" 
d="M279 -12q-106 0 -159.5 56t-53.5 165q0 71 21.5 129.5t60 100.5t92 65.5t118.5 23.5q39 0 72 -9t57.5 -26.5t38.5 -44t14 -60.5q0 -29 -12.5 -59t-51.5 -55t-111 -42t-190 -21q-1 -7 -1 -12.5v-7.5q0 -24 5.5 -45.5t18.5 -37.5t35.5 -25t57.5 -9q25 0 45.5 5.5t39 17.5
t37 31.5t39.5 48.5l70 -45q-21 -33 -45 -59.5t-53.5 -45t-65 -29t-79.5 -10.5zM348 447q-66 0 -108 -39t-55 -119l-2 -11q84 3 133.5 13.5t76 25t34 31.5t7.5 33q0 29 -19.5 47.5t-66.5 18.5zM257 750l95 40l63 -183l-67 -28z" />
    <glyph glyph-name="uni1EBB" unicode="&#x1ebb;" 
d="M279 -12q-106 0 -159.5 56t-53.5 165q0 71 21.5 129.5t60 100.5t92 65.5t118.5 23.5q39 0 72 -9t57.5 -26.5t38.5 -44t14 -60.5q0 -29 -12.5 -59t-51.5 -55t-111 -42t-190 -21q-1 -7 -1 -12.5v-7.5q0 -24 5.5 -45.5t18.5 -37.5t35.5 -25t57.5 -9q25 0 45.5 5.5t39 17.5
t37 31.5t39.5 48.5l70 -45q-21 -33 -45 -59.5t-53.5 -45t-65 -29t-79.5 -10.5zM348 447q-66 0 -108 -39t-55 -119l-2 -11q84 3 133.5 13.5t76 25t34 31.5t7.5 33q0 29 -19.5 47.5t-66.5 18.5zM294 776h121q38 0 55.5 -15.5t17.5 -39.5q0 -26 -14 -49.5t-37 -49.5l-46 -52
l-55 30l63 97h-118z" />
    <glyph glyph-name="emacron" unicode="&#x113;" 
d="M279 -12q-106 0 -159.5 56t-53.5 165q0 71 21.5 129.5t60 100.5t92 65.5t118.5 23.5q39 0 72 -9t57.5 -26.5t38.5 -44t14 -60.5q0 -29 -12.5 -59t-51.5 -55t-111 -42t-190 -21q-1 -7 -1 -12.5v-7.5q0 -24 5.5 -45.5t18.5 -37.5t35.5 -25t57.5 -9q25 0 45.5 5.5t39 17.5
t37 31.5t39.5 48.5l70 -45q-21 -33 -45 -59.5t-53.5 -45t-65 -29t-79.5 -10.5zM348 447q-66 0 -108 -39t-55 -119l-2 -11q84 3 133.5 13.5t76 25t34 31.5t7.5 33q0 29 -19.5 47.5t-66.5 18.5zM236 710h289l-14 -81h-289z" />
    <glyph glyph-name="eogonek" unicode="&#x119;" 
d="M322 -209q-44 0 -76 19t-32 60q0 38 29 67.5t78 49.5l-1 4q-8 -2 -19 -2.5t-22 -0.5q-106 0 -159.5 56t-53.5 165q0 71 21.5 129.5t60 100.5t92 65.5t118.5 23.5q39 0 72 -9t57.5 -26.5t38.5 -44t14 -60.5q0 -29 -12.5 -59t-51.5 -55t-111 -42t-190 -21q-1 -7 -1 -12.5
v-7.5q0 -24 5.5 -45.5t18.5 -37.5t35.5 -25t57.5 -9q25 0 45.5 5.5t39 17.5t37 31.5t39.5 48.5l70 -45q-23 -35 -48.5 -61.5t-63.5 -51.5q-35 -23 -57.5 -42.5t-35 -35.5t-17.5 -29.5t-5 -25.5q0 -18 10.5 -26t25.5 -8q14 0 27.5 6.5t26.5 20.5l45 -44q-16 -18 -43 -31
t-65 -13zM348 447q-66 0 -108 -39t-55 -119l-2 -11q84 3 133.5 13.5t76 25t34 31.5t7.5 33q0 29 -19.5 47.5t-66.5 18.5z" />
    <glyph glyph-name="uni1EBD" unicode="&#x1ebd;" 
d="M279 -12q-106 0 -159.5 56t-53.5 165q0 71 21.5 129.5t60 100.5t92 65.5t118.5 23.5q39 0 72 -9t57.5 -26.5t38.5 -44t14 -60.5q0 -29 -12.5 -59t-51.5 -55t-111 -42t-190 -21q-1 -7 -1 -12.5v-7.5q0 -24 5.5 -45.5t18.5 -37.5t35.5 -25t57.5 -9q25 0 45.5 5.5t39 17.5
t37 31.5t39.5 48.5l70 -45q-21 -33 -45 -59.5t-53.5 -45t-65 -29t-79.5 -10.5zM348 447q-66 0 -108 -39t-55 -119l-2 -11q84 3 133.5 13.5t76 25t34 31.5t7.5 33q0 29 -19.5 47.5t-66.5 18.5zM439 604q-24 0 -41 7.5t-34 17.5q-17 11 -34 17t-34 6q-16 0 -30.5 -7t-32.5 -21
l-33 52q19 23 47 40t63 17q24 0 41 -7.5t34 -17.5q17 -11 34 -17t34 -6q16 0 30.5 7t32.5 21l33 -52q-19 -23 -47 -40t-63 -17z" />
    <glyph glyph-name="uni1EBF" unicode="&#x1ebf;" 
d="M541 716l-58 31l104 177l84 -45zM436 762l101 -147l-57 -42l-102 112l-137 -112l-49 46l148 143h96zM279 -12q-106 0 -159.5 56t-53.5 165q0 71 21.5 129.5t60 100.5t92 65.5t118.5 23.5q39 0 72 -9t57.5 -26.5t38.5 -44t14 -60.5q0 -29 -12.5 -59t-51.5 -55t-111 -42
t-190 -21q-1 -7 -1 -12.5v-7.5q0 -24 5.5 -45.5t18.5 -37.5t35.5 -25t57.5 -9q25 0 45.5 5.5t39 17.5t37 31.5t39.5 48.5l70 -45q-21 -33 -45 -59.5t-53.5 -45t-65 -29t-79.5 -10.5zM348 447q-66 0 -108 -39t-55 -119l-2 -11q84 3 133.5 13.5t76 25t34 31.5t7.5 33
q0 29 -19.5 47.5t-66.5 18.5z" />
    <glyph glyph-name="uni1EC7" unicode="&#x1ec7;" 
d="M444 773l96 -151l-59 -40l-100 116l-136 -116l-52 43l142 148h109zM279 -12q-106 0 -159.5 56t-53.5 165q0 71 21.5 129.5t60 100.5t92 65.5t118.5 23.5q39 0 72 -9t57.5 -26.5t38.5 -44t14 -60.5q0 -29 -12.5 -59t-51.5 -55t-111 -42t-190 -21q-1 -7 -1 -12.5v-7.5
q0 -24 5.5 -45.5t18.5 -37.5t35.5 -25t57.5 -9q25 0 45.5 5.5t39 17.5t37 31.5t39.5 48.5l70 -45q-21 -33 -45 -59.5t-53.5 -45t-65 -29t-79.5 -10.5zM348 447q-66 0 -108 -39t-55 -119l-2 -11q84 3 133.5 13.5t76 25t34 31.5t7.5 33q0 29 -19.5 47.5t-66.5 18.5zM260 -184
q-34 0 -47.5 12.5t-13.5 31.5q0 5 1 11.5t3 15.5q4 23 19 37.5t50 14.5q34 0 47.5 -12.5t13.5 -31.5q0 -5 -1 -11.5t-3 -15.5q-4 -23 -19 -37.5t-50 -14.5z" />
    <glyph glyph-name="uni1EC1" unicode="&#x1ec1;" 
d="M129 888l89 38l61 -182l-59 -26zM436 762l101 -147l-57 -42l-102 112l-137 -112l-49 46l148 143h96zM279 -12q-106 0 -159.5 56t-53.5 165q0 71 21.5 129.5t60 100.5t92 65.5t118.5 23.5q39 0 72 -9t57.5 -26.5t38.5 -44t14 -60.5q0 -29 -12.5 -59t-51.5 -55t-111 -42
t-190 -21q-1 -7 -1 -12.5v-7.5q0 -24 5.5 -45.5t18.5 -37.5t35.5 -25t57.5 -9q25 0 45.5 5.5t39 17.5t37 31.5t39.5 48.5l70 -45q-21 -33 -45 -59.5t-53.5 -45t-65 -29t-79.5 -10.5zM348 447q-66 0 -108 -39t-55 -119l-2 -11q84 3 133.5 13.5t76 25t34 31.5t7.5 33
q0 29 -19.5 47.5t-66.5 18.5z" />
    <glyph glyph-name="uni1EC3" unicode="&#x1ec3;" 
d="M279 -12q-106 0 -159.5 56t-53.5 165q0 71 21.5 129.5t60 100.5t92 65.5t118.5 23.5q39 0 72 -9t57.5 -26.5t38.5 -44t14 -60.5q0 -29 -12.5 -59t-51.5 -55t-111 -42t-190 -21q-1 -7 -1 -12.5v-7.5q0 -24 5.5 -45.5t18.5 -37.5t35.5 -25t57.5 -9q25 0 45.5 5.5t39 17.5
t37 31.5t39.5 48.5l70 -45q-21 -33 -45 -59.5t-53.5 -45t-65 -29t-79.5 -10.5zM348 447q-66 0 -108 -39t-55 -119l-2 -11q84 3 133.5 13.5t76 25t34 31.5t7.5 33q0 29 -19.5 47.5t-66.5 18.5zM455 915h117q38 0 55 -15.5t17 -38.5t-11.5 -44t-30.5 -44l-55 -64l-54 30l63 98
h-114zM436 762l101 -147l-57 -42l-102 112l-137 -112l-49 46l148 143h96z" />
    <glyph glyph-name="uni1EC5" unicode="&#x1ec5;" 
d="M279 -12q-106 0 -159.5 56t-53.5 165q0 71 21.5 129.5t60 100.5t92 65.5t118.5 23.5q39 0 72 -9t57.5 -26.5t38.5 -44t14 -60.5q0 -29 -12.5 -59t-51.5 -55t-111 -42t-190 -21q-1 -7 -1 -12.5v-7.5q0 -24 5.5 -45.5t18.5 -37.5t35.5 -25t57.5 -9q25 0 45.5 5.5t39 17.5
t37 31.5t39.5 48.5l70 -45q-21 -33 -45 -59.5t-53.5 -45t-65 -29t-79.5 -10.5zM348 447q-66 0 -108 -39t-55 -119l-2 -11q84 3 133.5 13.5t76 25t34 31.5t7.5 33q0 29 -19.5 47.5t-66.5 18.5zM338 910q24 0 41 -8t35 -17q19 -10 35 -16.5t33 -6.5t31.5 7t31.5 21l33 -51
q-19 -23 -47 -40t-63 -17q-24 0 -41 8t-35 17q-19 10 -35 16.5t-33 6.5t-31.5 -7t-31.5 -21l-33 51q19 23 47 40t63 17zM436 751l102 -137l-57 -41l-104 105l-134 -105l-50 47l146 131h97z" />
    <glyph glyph-name="uni0259" unicode="&#x259;" 
d="M242 -12q-39 0 -72 9t-57.5 26.5t-38.5 43.5t-14 61q0 29 12.5 59t51.5 55t111 42t190 21q1 7 1 12.5v7.5q0 24 -5.5 45.5t-18.5 37.5t-36 25t-57 9q-25 0 -45.5 -5.5t-39 -17.5t-37 -32t-39.5 -48l-70 45q21 33 45 59.5t53 45t65 29t80 10.5q106 0 159.5 -56t53.5 -165
q0 -71 -21.5 -129.5t-60 -100.5t-92 -65.5t-118.5 -23.5zM252 69q66 0 108 39t55 119l2 11q-84 -3 -133.5 -13.5t-76 -25t-34 -31.5t-7.5 -33q0 -29 19.5 -47.5t66.5 -18.5z" />
    <glyph glyph-name="gbreve" unicode="&#x11f;" 
d="M216 -212q-66 0 -113.5 17t-80.5 56l68 68q43 -54 127 -54q31 0 56.5 7t45 25t32.5 47.5t21 74.5l19 112h-5q-29 -62 -70 -98.5t-108 -36.5q-81 0 -119.5 53.5t-38.5 144.5q0 58 14.5 116t43.5 104.5t74 75t107 28.5q60 0 95 -27t49 -78h5l15 93h107l-83 -498
q-10 -61 -32.5 -104.5t-56 -71.5t-77 -41t-95.5 -13zM251 94q58 0 105 53q14 15 30.5 42t23.5 67l14 85q8 46 -19.5 73t-81.5 27q-66 0 -103 -40t-48 -105l-8 -48q-2 -12 -3 -23t-1 -24q0 -50 21.5 -78.5t69.5 -28.5zM347 585q-41 0 -68.5 15t-45.5 38t-28 51t-15 54l62 30
l17 -35q17 -36 33 -55t49 -19q30 0 49.5 18t49.5 57l26 34l64 -30q-13 -27 -30 -55t-39.5 -51t-53 -37.5t-70.5 -14.5z" />
    <glyph glyph-name="gcircumflex" unicode="&#x11d;" 
d="M424 773l96 -151l-59 -40l-100 116l-136 -116l-52 43l142 148h109zM216 -212q-66 0 -113.5 17t-80.5 56l68 68q43 -54 127 -54q31 0 56.5 7t45 25t32.5 47.5t21 74.5l19 112h-5q-29 -62 -70 -98.5t-108 -36.5q-81 0 -119.5 53.5t-38.5 144.5q0 58 14.5 116t43.5 104.5
t74 75t107 28.5q60 0 95 -27t49 -78h5l15 93h107l-83 -498q-10 -61 -32.5 -104.5t-56 -71.5t-77 -41t-95.5 -13zM251 94q58 0 105 53q14 15 30.5 42t23.5 67l14 85q8 46 -19.5 73t-81.5 27q-66 0 -103 -40t-48 -105l-8 -48q-2 -12 -3 -23t-1 -24q0 -50 21.5 -78.5
t69.5 -28.5z" />
    <glyph glyph-name="gcommaaccent" unicode="&#x123;" 
d="M216 -212q-66 0 -113.5 17t-80.5 56l68 68q43 -54 127 -54q31 0 56.5 7t45 25t32.5 47.5t21 74.5l19 112h-5q-29 -62 -70 -98.5t-108 -36.5q-81 0 -119.5 53.5t-38.5 144.5q0 58 14.5 116t43.5 104.5t74 75t107 28.5q60 0 95 -27t49 -78h5l15 93h107l-83 -498
q-10 -61 -32.5 -104.5t-56 -71.5t-77 -41t-95.5 -13zM251 94q58 0 105 53q14 15 30.5 42t23.5 67l14 85q8 46 -19.5 73t-81.5 27q-66 0 -103 -40t-48 -105l-8 -48q-2 -12 -3 -23t-1 -24q0 -50 21.5 -78.5t69.5 -28.5zM385 782h73l-54 -197h-129z" />
    <glyph glyph-name="gdotaccent" unicode="&#x121;" 
d="M216 -212q-66 0 -113.5 17t-80.5 56l68 68q43 -54 127 -54q31 0 56.5 7t45 25t32.5 47.5t21 74.5l19 112h-5q-29 -62 -70 -98.5t-108 -36.5q-81 0 -119.5 53.5t-38.5 144.5q0 58 14.5 116t43.5 104.5t74 75t107 28.5q60 0 95 -27t49 -78h5l15 93h107l-83 -498
q-10 -61 -32.5 -104.5t-56 -71.5t-77 -41t-95.5 -13zM251 94q58 0 105 53q14 15 30.5 42t23.5 67l14 85q8 46 -19.5 73t-81.5 27q-66 0 -103 -40t-48 -105l-8 -48q-2 -12 -3 -23t-1 -24q0 -50 21.5 -78.5t69.5 -28.5zM346 600q-38 0 -53 14.5t-15 34.5q0 6 1 14t3 17
q5 27 22.5 42.5t55.5 15.5t53 -14.5t15 -34.5q0 -6 -1 -14t-3 -17q-5 -27 -22.5 -42.5t-55.5 -15.5z" />
    <glyph glyph-name="gbreve.alt01" 
d="M229 -212q-62 0 -105.5 8t-70.5 22.5t-39.5 35t-12.5 46.5q0 46 28 73t81 40l1 9q-21 9 -33 25t-12 42q0 42 28.5 64t78.5 32l2 6q-36 20 -55.5 53t-19.5 79t18 83.5t49.5 64.5t75.5 42t96 15q45 0 78 -12h179l-13 -77h-76q19 -30 19 -67q0 -46 -18 -83.5t-50 -64.5
t-76.5 -42t-96.5 -15q-18 0 -34.5 1.5t-30.5 6.5q-11 -3 -22.5 -7.5t-21 -11.5t-16 -16.5t-6.5 -21.5q0 -23 20.5 -28.5t52.5 -5.5h114q94 0 137 -34t43 -92q0 -83 -71 -126.5t-221 -43.5zM297 241q52 0 82 24t38 69q3 18 4 29.5t1 16.5q0 34 -22 54t-71 20q-52 0 -82 -24
t-38 -69q-3 -18 -4 -29.5t-1 -16.5q0 -34 22 -54t71 -20zM418 -57q0 25 -19 38.5t-70 13.5h-181q-50 -22 -50 -67q0 -27 23 -45t77 -18h87q64 0 98.5 20.5t34.5 57.5zM355 582q-41 0 -68.5 15t-45.5 38t-28 51t-15 54l62 30l17 -35q17 -36 33 -55t49 -19q30 0 49.5 18
t49.5 57l26 34l64 -30q-13 -27 -30 -55t-39.5 -51t-53 -37.5t-70.5 -14.5z" />
    <glyph glyph-name="gcircumflex.alt01" 
d="M432 770l96 -151l-59 -40l-100 116l-136 -116l-52 43l142 148h109zM229 -212q-62 0 -105.5 8t-70.5 22.5t-39.5 35t-12.5 46.5q0 46 28 73t81 40l1 9q-21 9 -33 25t-12 42q0 42 28.5 64t78.5 32l2 6q-36 20 -55.5 53t-19.5 79t18 83.5t49.5 64.5t75.5 42t96 15
q45 0 78 -12h179l-13 -77h-76q19 -30 19 -67q0 -46 -18 -83.5t-50 -64.5t-76.5 -42t-96.5 -15q-18 0 -34.5 1.5t-30.5 6.5q-11 -3 -22.5 -7.5t-21 -11.5t-16 -16.5t-6.5 -21.5q0 -23 20.5 -28.5t52.5 -5.5h114q94 0 137 -34t43 -92q0 -83 -71 -126.5t-221 -43.5zM297 241
q52 0 82 24t38 69q3 18 4 29.5t1 16.5q0 34 -22 54t-71 20q-52 0 -82 -24t-38 -69q-3 -18 -4 -29.5t-1 -16.5q0 -34 22 -54t71 -20zM418 -57q0 25 -19 38.5t-70 13.5h-181q-50 -22 -50 -67q0 -27 23 -45t77 -18h87q64 0 98.5 20.5t34.5 57.5z" />
    <glyph glyph-name="gcommaaccent.alt01" 
d="M229 -212q-62 0 -105.5 8t-70.5 22.5t-39.5 35t-12.5 46.5q0 46 28 73t81 40l1 9q-21 9 -33 25t-12 42q0 42 28.5 64t78.5 32l2 6q-36 20 -55.5 53t-19.5 79t18 83.5t49.5 64.5t75.5 42t96 15q29 0 53 -5t44 -14l3 19q5 30 26 49.5t56 19.5h91l-14 -85h-118l-5 -28
q24 -20 37.5 -47.5t13.5 -64.5q0 -46 -18 -83.5t-50 -64.5t-76.5 -42t-96.5 -15q-18 0 -34.5 1.5t-30.5 6.5q-11 -3 -22.5 -7.5t-21 -11.5t-16 -16.5t-6.5 -21.5q0 -23 20.5 -28.5t52.5 -5.5h114q94 0 137 -34t43 -92q0 -83 -71 -126.5t-221 -43.5zM98 -72q0 -27 23 -45
t77 -18h87q64 0 98.5 20.5t34.5 57.5q0 25 -19 38.5t-70 13.5h-181q-50 -22 -50 -67zM297 241q52 0 82 24t38 69q3 18 4 29.5t1 16.5q0 34 -22 54t-71 20q-52 0 -82 -24t-38 -69q-3 -18 -4 -29.5t-1 -16.5q0 -34 22 -54t71 -20zM393 782h73l-54 -197h-129z" />
    <glyph glyph-name="gdotaccent.alt01" 
d="M229 -212q-62 0 -105.5 8t-70.5 22.5t-39.5 35t-12.5 46.5q0 46 28 73t81 40l1 9q-21 9 -33 25t-12 42q0 42 28.5 64t78.5 32l2 6q-36 20 -55.5 53t-19.5 79t18 83.5t49.5 64.5t75.5 42t96 15q29 0 53 -5t44 -14l3 19q5 30 26 49.5t56 19.5h91l-14 -85h-118l-5 -28
q24 -20 37.5 -47.5t13.5 -64.5q0 -46 -18 -83.5t-50 -64.5t-76.5 -42t-96.5 -15q-18 0 -34.5 1.5t-30.5 6.5q-11 -3 -22.5 -7.5t-21 -11.5t-16 -16.5t-6.5 -21.5q0 -23 20.5 -28.5t52.5 -5.5h114q94 0 137 -34t43 -92q0 -83 -71 -126.5t-221 -43.5zM98 -72q0 -27 23 -45
t77 -18h87q64 0 98.5 20.5t34.5 57.5q0 25 -19 38.5t-70 13.5h-181q-50 -22 -50 -67zM297 241q52 0 82 24t38 69q3 18 4 29.5t1 16.5q0 34 -22 54t-71 20q-52 0 -82 -24t-38 -69q-3 -18 -4 -29.5t-1 -16.5q0 -34 22 -54t71 -20zM354 600q-38 0 -53 14.5t-15 34.5q0 6 1 14
t3 17q5 27 22.5 42.5t55.5 15.5t53 -14.5t15 -34.5q0 -6 -1 -14t-3 -17q-5 -27 -22.5 -42.5t-55.5 -15.5z" />
    <glyph glyph-name="hbar" unicode="&#x127;" 
d="M144 597h-62l14 80h61l11 63h107l-11 -63h145l-14 -80h-144l-34 -203h5q29 62 68 98t102 36q69 0 104.5 -41.5t35.5 -107.5q0 -18 -1.5 -37.5t-6.5 -45.5l-49 -296h-107l50 300q2 14 4 29.5t2 28.5q0 35 -17.5 59t-57.5 24q-30 0 -53.5 -14t-43.5 -38q-10 -12 -28.5 -42
t-25.5 -71l-46 -276h-107z" />
    <glyph glyph-name="hcircumflex" unicode="&#x125;" 
d="M168 740h107l-58 -346h5q29 62 68 98t102 36q69 0 104.5 -41.5t35.5 -107.5q0 -18 -1.5 -37.5t-6.5 -45.5l-49 -296h-107l50 300q2 14 4 29.5t2 28.5q0 35 -17.5 59t-57.5 24q-30 0 -53.5 -14t-43.5 -38q-10 -12 -28.5 -42t-25.5 -71l-46 -276h-107zM308 955l96 -151
l-59 -40l-100 116l-136 -116l-52 43l142 148h109z" />
    <glyph glyph-name="dotlessi" unicode="&#x131;" 
d="M282 -12q-48 0 -72 25t-24 65q0 23 7 57l57 294h-174l14 87h283l-84 -433l20 -8l173 159l61 -55l-78 -78q-31 -31 -56 -52.5t-46 -35t-40.5 -19.5t-40.5 -6z" />
    <glyph glyph-name="iacute" unicode="&#xed;" 
d="M337 579l-63 35l111 176l87 -47zM282 -12q-48 0 -72 25t-24 65q0 23 7 57l57 294h-174l14 87h283l-84 -433l20 -8l173 159l61 -55l-78 -78q-31 -31 -56 -52.5t-46 -35t-40.5 -19.5t-40.5 -6z" />
    <glyph glyph-name="ibreve" unicode="&#x12d;" 
d="M282 -12q-48 0 -72 25t-24 65q0 23 7 57l57 294h-174l14 87h283l-84 -433l20 -8l173 159l61 -55l-78 -78q-31 -31 -56 -52.5t-46 -35t-40.5 -19.5t-40.5 -6zM334 585q-41 0 -68.5 15t-45.5 38t-28 51t-15 54l62 30l17 -35q17 -36 33 -55t49 -19q30 0 49.5 18t49.5 57
l26 34l64 -30q-13 -27 -30 -55t-39.5 -51t-53 -37.5t-70.5 -14.5z" />
    <glyph glyph-name="icircumflex" unicode="&#xee;" 
d="M411 773l96 -151l-59 -40l-100 116l-136 -116l-52 43l142 148h109zM282 -12q-48 0 -72 25t-24 65q0 23 7 57l57 294h-174l14 87h283l-84 -433l20 -8l173 159l61 -55l-78 -78q-31 -31 -56 -52.5t-46 -35t-40.5 -19.5t-40.5 -6z" />
    <glyph glyph-name="idieresis" unicode="&#xef;" 
d="M234 608q-34 0 -47.5 12.5t-13.5 30.5q0 5 0.5 10.5t2.5 14.5q4 23 19 39t53 16q34 0 47.5 -12.5t13.5 -30.5q0 -5 -0.5 -10.5t-2.5 -14.5q-4 -23 -19 -39t-53 -16zM434 608q-34 0 -47.5 12.5t-13.5 30.5q0 5 0.5 10.5t2.5 14.5q4 23 19 39t53 16q34 0 47.5 -12.5
t13.5 -30.5q0 -5 -0.5 -10.5t-2.5 -14.5q-4 -23 -19 -39t-53 -16zM282 -12q-48 0 -72 25t-24 65q0 23 7 57l57 294h-174l14 87h283l-84 -433l20 -8l173 159l61 -55l-78 -78q-31 -31 -56 -52.5t-46 -35t-40.5 -19.5t-40.5 -6z" />
    <glyph glyph-name="uni1ECB" unicode="&#x1ecb;" 
d="M340 611q-38 0 -53 14.5t-15 34.5q0 6 1 14t3 17q5 27 22.5 42.5t55.5 15.5t53 -14.5t15 -34.5q0 -6 -1 -14t-3 -17q-5 -27 -22.5 -42.5t-55.5 -15.5zM282 -12q-48 0 -72 25t-24 65q0 13 2 26t5 31l57 294h-174l14 87h283l-84 -433l20 -8l173 159l61 -55l-78 -78
q-31 -31 -56 -52.5t-46 -35t-40.5 -19.5t-40.5 -6zM251 -184q-34 0 -47.5 12.5t-13.5 31.5q0 5 1 11.5t3 15.5q4 23 19 37.5t50 14.5q34 0 47.5 -12.5t13.5 -31.5q0 -5 -1 -11.5t-3 -15.5q-4 -23 -19 -37.5t-50 -14.5z" />
    <glyph glyph-name="igrave" unicode="&#xec;" 
d="M282 -12q-48 0 -72 25t-24 65q0 23 7 57l57 294h-174l14 87h283l-84 -433l20 -8l173 159l61 -55l-78 -78q-31 -31 -56 -52.5t-46 -35t-40.5 -19.5t-40.5 -6zM224 750l95 40l63 -183l-67 -28z" />
    <glyph glyph-name="uni1EC9" unicode="&#x1ec9;" 
d="M282 -12q-48 0 -72 25t-24 65q0 23 7 57l57 294h-174l14 87h283l-84 -433l20 -8l173 159l61 -55l-78 -78q-31 -31 -56 -52.5t-46 -35t-40.5 -19.5t-40.5 -6zM261 776h121q38 0 55.5 -15.5t17.5 -39.5q0 -26 -14 -49.5t-37 -49.5l-46 -52l-55 30l63 97h-118z" />
    <glyph glyph-name="imacron" unicode="&#x12b;" 
d="M282 -12q-48 0 -72 25t-24 65q0 23 7 57l57 294h-174l14 87h283l-84 -433l20 -8l173 159l61 -55l-78 -78q-31 -31 -56 -52.5t-46 -35t-40.5 -19.5t-40.5 -6zM203 710h289l-14 -81h-289z" />
    <glyph glyph-name="iogonek" unicode="&#x12f;" 
d="M294 -209q-44 0 -76 19t-32 60q0 39 29 65.5t74 49.5l-1 5q-5 -1 -8 -1h-9q-44 0 -64.5 26.5t-20.5 62.5q0 23 7 57l57 294h-174l14 87h283l-84 -433l20 -8l173 159l61 -55l-168 -158q-32 -29 -52.5 -50t-33 -36.5t-17.5 -28t-5 -23.5q0 -15 9.5 -23t26.5 -8
q14 0 27.5 6.5t26.5 20.5l45 -44q-16 -18 -42.5 -31t-65.5 -13zM340 611q-38 0 -53 14.5t-15 34.5q0 6 1 14t3 17q5 27 22.5 42.5t55.5 15.5t53 -14.5t15 -34.5q0 -6 -1 -14t-3 -17q-5 -27 -22.5 -42.5t-55.5 -15.5z" />
    <glyph glyph-name="itilde" unicode="&#x129;" 
d="M282 -12q-48 0 -72 25t-24 65q0 23 7 57l57 294h-174l14 87h283l-84 -433l20 -8l173 159l61 -55l-78 -78q-31 -31 -56 -52.5t-46 -35t-40.5 -19.5t-40.5 -6zM406 604q-24 0 -41 7.5t-34 17.5q-17 11 -34 17t-34 6q-16 0 -30.5 -7t-32.5 -21l-33 52q19 23 47 40t63 17
q24 0 41 -7.5t34 -17.5q17 -11 34 -17t34 -6q16 0 30.5 7t32.5 21l33 -52q-19 -23 -47 -40t-63 -17z" />
    <glyph glyph-name="ij" unicode="&#x133;" 
d="M135 516h107l-86 -516h-107zM321 -212q-39 0 -71 26t-67 68l-32 39l71 58l96 -104l16 5l106 636h107l-99 -594q-10 -60 -40 -97t-87 -37zM210 611q-38 0 -53 14.5t-15 34.5q0 6 1 14t3 17q5 27 22.5 42.5t55.5 15.5t53 -14.5t15 -34.5q0 -6 -1 -14t-3 -17
q-5 -27 -22.5 -42.5t-55.5 -15.5zM513 611q-38 0 -53 14.5t-15 34.5q0 6 1 14t3 17q5 27 22.5 42.5t55.5 15.5t53 -14.5t15 -34.5q0 -6 -1 -14t-3 -17q-5 -27 -22.5 -42.5t-55.5 -15.5z" />
    <glyph glyph-name="ijacute" 
d="M135 516h107l-86 -516h-107zM321 -212q-39 0 -71 26t-67 68l-32 39l71 58l96 -104l16 5l106 636h107l-99 -594q-10 -60 -40 -97t-87 -37zM152 615l111 175l87 -47l-135 -164zM457 615l111 175l87 -47l-135 -164z" />
    <glyph glyph-name="uni0237" unicode="&#x237;" 
d="M251 -212q-21 0 -39 7t-36.5 23t-39.5 40.5t-49 60.5l-51 62l72 57l140 -163l15 5l92 549h-203l14 87h310l-99 -594q-11 -63 -40.5 -98.5t-85.5 -35.5z" />
    <glyph glyph-name="jacute" 
d="M251 -212q-21 0 -39 7t-36.5 23t-39.5 40.5t-49 60.5l-51 62l72 57l140 -163l15 5l92 549h-203l14 87h310l-99 -594q-11 -63 -40.5 -98.5t-85.5 -35.5zM443 579l-63 35l111 176l87 -47z" />
    <glyph glyph-name="jcircumflex" unicode="&#x135;" 
d="M251 -212q-21 0 -39 7t-36.5 23t-39.5 40.5t-49 60.5l-51 62l72 57l140 -163l15 5l92 549h-203l14 87h310l-99 -594q-11 -63 -40.5 -98.5t-85.5 -35.5zM517 773l96 -151l-59 -40l-100 116l-136 -116l-52 43l142 148h109z" />
    <glyph glyph-name="kcommaaccent" unicode="&#x137;" 
d="M176 -60h128l-110 -197h-72zM168 740h107l-58 -346h5q13 29 30.5 53.5t39 42.5t48 28t59.5 10q63 0 99 -35t36 -90q0 -29 -9.5 -56t-32 -51.5t-60.5 -45t-94 -35.5l59 -136l14 -2l111 104l55 -55l-63 -65q-37 -37 -66 -55t-63 -18q-35 0 -56 19.5t-38 59.5l-68 160
q110 28 156.5 65t46.5 84q0 31 -19.5 49t-57.5 18q-30 0 -54 -13.5t-45 -40.5q-18 -23 -32 -49.5t-20 -62.5l-46 -277h-107z" />
    <glyph glyph-name="kgreenlandic" unicode="&#x138;" 
d="M282 242l-99 -85l-26 -157h-107l86 516h107l-39 -236h6l97 90l161 146h129l-232 -212l173 -304h-122z" />
    <glyph glyph-name="lacute" unicode="&#x13a;" 
d="M258 -12q-50 0 -72.5 25t-22.5 67q0 20 6 52l100 521h-170l15 87h279l-127 -658l21 -7l178 161l60 -55l-86 -84q-32 -31 -57 -52t-46 -33.5t-40 -18t-38 -5.5zM350 761l-63 35l111 176l87 -47z" />
    <glyph glyph-name="lcaron" unicode="&#x13e;" 
d="M509 541h-74l38 199h125zM258 -12q-50 0 -72.5 25t-22.5 67q0 20 6 52l100 521h-170l15 87h279l-127 -658l21 -7l178 161l60 -55l-86 -84q-32 -31 -57 -52t-46 -33.5t-40 -18t-38 -5.5z" />
    <glyph glyph-name="lcommaaccent" unicode="&#x13c;" 
d="M184 -60h128l-110 -197h-72zM258 -12q-50 0 -72.5 25t-22.5 67q0 20 6 52l100 521h-170l15 87h279l-127 -658l21 -7l178 161l60 -55l-86 -84q-32 -31 -57 -52t-46 -33.5t-40 -18t-38 -5.5z" />
    <glyph glyph-name="ldot" unicode="&#x140;" 
d="M258 -12q-50 0 -72.5 25t-22.5 67q0 20 6 52l100 521h-170l15 87h279l-127 -658l21 -7l178 161l60 -55l-86 -84q-32 -31 -57 -52t-46 -33.5t-40 -18t-38 -5.5zM480 317q-38 0 -53 14.5t-15 34.5q0 6 1 14t3 17q5 27 22.5 42.5t55.5 15.5t53 -14.5t15 -34.5q0 -6 -1 -14
t-3 -17q-5 -27 -22.5 -42.5t-55.5 -15.5z" />
    <glyph glyph-name="lslash" unicode="&#x142;" 
d="M258 -12q-50 0 -72.5 25t-22.5 67q0 11 1.5 23t4.5 29l30 155l-143 -44l14 84l145 45l54 281h-170l14 87h280l-65 -337l151 47l-14 -85l-154 -48l-45 -235l21 -7l178 161l60 -55l-86 -84q-32 -31 -57 -52t-46 -33.5t-40 -18t-38 -5.5z" />
    <glyph glyph-name="nacute" unicode="&#x144;" 
d="M355 579l-63 35l111 176l87 -47zM45 0l86 516h107l-21 -122h5q29 62 68 98t102 36q69 0 104.5 -41.5t35.5 -107.5q0 -18 -1.5 -37.5t-6.5 -45.5l-49 -296h-107l50 300q2 14 4 29.5t2 28.5q0 35 -17.5 59t-57.5 24q-30 0 -53.5 -14t-43.5 -38q-10 -12 -28.5 -42t-25.5 -71
l-46 -276h-107z" />
    <glyph glyph-name="ncaron" unicode="&#x148;" 
d="M293 591l-95 151l58 40l100 -116l136 116l52 -43l-142 -148h-109zM45 0l86 516h107l-21 -122h5q29 62 68 98t102 36q69 0 104.5 -41.5t35.5 -107.5q0 -18 -1.5 -37.5t-6.5 -45.5l-49 -296h-107l50 300q2 14 4 29.5t2 28.5q0 35 -17.5 59t-57.5 24q-30 0 -53.5 -14
t-43.5 -38q-10 -12 -28.5 -42t-25.5 -71l-46 -276h-107z" />
    <glyph glyph-name="ncommaaccent" unicode="&#x146;" 
d="M183 -60h128l-110 -197h-72zM45 0l86 516h107l-21 -122h5q29 62 68 98t102 36q69 0 104.5 -41.5t35.5 -107.5q0 -18 -1.5 -37.5t-6.5 -45.5l-49 -296h-107l50 300q2 14 4 29.5t2 28.5q0 35 -17.5 59t-57.5 24q-30 0 -53.5 -14t-43.5 -38q-10 -12 -28.5 -42t-25.5 -71
l-46 -276h-107z" />
    <glyph glyph-name="ntilde" unicode="&#xf1;" 
d="M45 0l86 516h107l-21 -122h5q29 62 68 98t102 36q69 0 104.5 -41.5t35.5 -107.5q0 -18 -1.5 -37.5t-6.5 -45.5l-49 -296h-107l50 300q2 14 4 29.5t2 28.5q0 35 -17.5 59t-57.5 24q-30 0 -53.5 -14t-43.5 -38q-10 -12 -28.5 -42t-25.5 -71l-46 -276h-107zM424 604
q-24 0 -41 7.5t-34 17.5q-17 11 -34 17t-34 6q-16 0 -30.5 -7t-32.5 -21l-33 52q19 23 47 40t63 17q24 0 41 -7.5t34 -17.5q17 -11 34 -17t34 -6q16 0 30.5 7t32.5 21l33 -52q-19 -23 -47 -40t-63 -17z" />
    <glyph glyph-name="napostrophe" unicode="&#x149;" 
d="M154 516h104l-20 -116h5q27 60 65.5 94t98.5 34q66 0 100.5 -40t34.5 -105q0 -17 -1 -36t-6 -46l-50 -301h-104l50 302q3 18 4 32t1 26q0 35 -17 58t-54 23q-29 0 -51 -12.5t-42 -35.5q-10 -11 -28 -40t-25 -68l-47 -285h-104zM94 740h107l-86 -195h-61z" />
    <glyph glyph-name="eng" unicode="&#x14b;" 
d="M335 -212q-40 0 -70 27t-65 68l-28 33l70 57l90 -98l16 5l70 420q2 14 4 29.5t2 28.5q0 35 -17.5 59t-57.5 24q-30 0 -53.5 -14t-43.5 -38q-10 -12 -28.5 -42t-25.5 -71l-46 -276h-107l86 516h107l-21 -122h5q29 62 68 98t102 36q69 0 104.5 -41.5t35.5 -107.5
q0 -18 -1.5 -37.5t-6.5 -45.5l-62 -374q-10 -60 -40 -97t-87 -37z" />
    <glyph glyph-name="oacute" unicode="&#xf3;" 
d="M364 579l-63 35l111 176l87 -47zM265 -12q-51 0 -90 16t-65.5 44.5t-40.5 69t-14 90.5q0 74 21 133t58.5 100.5t89 64t111.5 22.5q51 0 90 -16t65.5 -44.5t40.5 -69.5t14 -90q0 -74 -21 -133t-58.5 -100.5t-89 -64t-111.5 -22.5zM272 73q63 0 101 38.5t49 106.5l11 66
q2 14 3.5 26t1.5 21q0 57 -29.5 84.5t-80.5 27.5q-63 0 -101 -38.5t-49 -106.5l-11 -66q-2 -14 -3.5 -26t-1.5 -21q0 -57 29.5 -84.5t80.5 -27.5z" />
    <glyph glyph-name="obreve" unicode="&#x14f;" 
d="M265 -12q-51 0 -90 16t-65.5 44.5t-40.5 69t-14 90.5q0 74 21 133t58.5 100.5t89 64t111.5 22.5q51 0 90 -16t65.5 -44.5t40.5 -69.5t14 -90q0 -74 -21 -133t-58.5 -100.5t-89 -64t-111.5 -22.5zM272 73q63 0 101 38.5t49 106.5l11 66q2 14 3.5 26t1.5 21
q0 57 -29.5 84.5t-80.5 27.5q-63 0 -101 -38.5t-49 -106.5l-11 -66q-2 -14 -3.5 -26t-1.5 -21q0 -57 29.5 -84.5t80.5 -27.5zM361 585q-41 0 -68.5 15t-45.5 38t-28 51t-15 54l62 30l17 -35q17 -36 33 -55t49 -19q30 0 49.5 18t49.5 57l26 34l64 -30q-13 -27 -30 -55
t-39.5 -51t-53 -37.5t-70.5 -14.5z" />
    <glyph glyph-name="ocircumflex" unicode="&#xf4;" 
d="M438 773l96 -151l-59 -40l-100 116l-136 -116l-52 43l142 148h109zM265 -12q-51 0 -90 16t-65.5 44.5t-40.5 69t-14 90.5q0 74 21 133t58.5 100.5t89 64t111.5 22.5q51 0 90 -16t65.5 -44.5t40.5 -69.5t14 -90q0 -74 -21 -133t-58.5 -100.5t-89 -64t-111.5 -22.5zM272 73
q63 0 101 38.5t49 106.5l11 66q2 14 3.5 26t1.5 21q0 57 -29.5 84.5t-80.5 27.5q-63 0 -101 -38.5t-49 -106.5l-11 -66q-2 -14 -3.5 -26t-1.5 -21q0 -57 29.5 -84.5t80.5 -27.5z" />
    <glyph glyph-name="odieresis" unicode="&#xf6;" 
d="M261 608q-34 0 -47.5 12.5t-13.5 30.5q0 5 0.5 10.5t2.5 14.5q4 23 19 39t53 16q34 0 47.5 -12.5t13.5 -30.5q0 -5 -0.5 -10.5t-2.5 -14.5q-4 -23 -19 -39t-53 -16zM461 608q-34 0 -47.5 12.5t-13.5 30.5q0 5 0.5 10.5t2.5 14.5q4 23 19 39t53 16q34 0 47.5 -12.5
t13.5 -30.5q0 -5 -0.5 -10.5t-2.5 -14.5q-4 -23 -19 -39t-53 -16zM265 -12q-51 0 -90 16t-65.5 44.5t-40.5 69t-14 90.5q0 74 21 133t58.5 100.5t89 64t111.5 22.5q51 0 90 -16t65.5 -44.5t40.5 -69.5t14 -90q0 -74 -21 -133t-58.5 -100.5t-89 -64t-111.5 -22.5zM272 73
q63 0 101 38.5t49 106.5l11 66q2 14 3.5 26t1.5 21q0 57 -29.5 84.5t-80.5 27.5q-63 0 -101 -38.5t-49 -106.5l-11 -66q-2 -14 -3.5 -26t-1.5 -21q0 -57 29.5 -84.5t80.5 -27.5z" />
    <glyph glyph-name="uni1ECD" unicode="&#x1ecd;" 
d="M265 -12q-51 0 -90 16t-65.5 44.5t-40.5 69t-14 90.5q0 74 21 133t58.5 100.5t89 64t111.5 22.5q51 0 90 -16t65.5 -44.5t40.5 -69.5t14 -90q0 -74 -21 -133t-58.5 -100.5t-89 -64t-111.5 -22.5zM272 73q63 0 101 38.5t49 106.5l11 66q2 14 3.5 26t1.5 21
q0 57 -29.5 84.5t-80.5 27.5q-63 0 -101 -38.5t-49 -106.5l-11 -66q-2 -14 -3.5 -26t-1.5 -21q0 -57 29.5 -84.5t80.5 -27.5zM231 -184q-34 0 -47.5 12.5t-13.5 31.5q0 5 1 11.5t3 15.5q4 23 19 37.5t50 14.5q34 0 47.5 -12.5t13.5 -31.5q0 -5 -1 -11.5t-3 -15.5
q-4 -23 -19 -37.5t-50 -14.5z" />
    <glyph glyph-name="ograve" unicode="&#xf2;" 
d="M265 -12q-51 0 -90 16t-65.5 44.5t-40.5 69t-14 90.5q0 74 21 133t58.5 100.5t89 64t111.5 22.5q51 0 90 -16t65.5 -44.5t40.5 -69.5t14 -90q0 -74 -21 -133t-58.5 -100.5t-89 -64t-111.5 -22.5zM272 73q63 0 101 38.5t49 106.5l11 66q2 14 3.5 26t1.5 21
q0 57 -29.5 84.5t-80.5 27.5q-63 0 -101 -38.5t-49 -106.5l-11 -66q-2 -14 -3.5 -26t-1.5 -21q0 -57 29.5 -84.5t80.5 -27.5zM251 750l95 40l63 -183l-67 -28z" />
    <glyph glyph-name="uni1ECF" unicode="&#x1ecf;" 
d="M265 -12q-51 0 -90 16t-65.5 44.5t-40.5 69t-14 90.5q0 74 21 133t58.5 100.5t89 64t111.5 22.5q51 0 90 -16t65.5 -44.5t40.5 -69.5t14 -90q0 -74 -21 -133t-58.5 -100.5t-89 -64t-111.5 -22.5zM272 73q63 0 101 38.5t49 106.5l11 66q2 14 3.5 26t1.5 21
q0 57 -29.5 84.5t-80.5 27.5q-63 0 -101 -38.5t-49 -106.5l-11 -66q-2 -14 -3.5 -26t-1.5 -21q0 -57 29.5 -84.5t80.5 -27.5zM288 776h121q38 0 55.5 -15.5t17.5 -39.5q0 -26 -14 -49.5t-37 -49.5l-46 -52l-55 30l63 97h-118z" />
    <glyph glyph-name="ohungarumlaut" unicode="&#x151;" 
d="M275 580l-59 31l108 177l83 -45zM452 580l-59 31l108 177l83 -45zM265 -12q-51 0 -90 16t-65.5 44.5t-40.5 69t-14 90.5q0 74 21 133t58.5 100.5t89 64t111.5 22.5q51 0 90 -16t65.5 -44.5t40.5 -69.5t14 -90q0 -74 -21 -133t-58.5 -100.5t-89 -64t-111.5 -22.5zM272 73
q63 0 101 38.5t49 106.5l11 66q2 14 3.5 26t1.5 21q0 57 -29.5 84.5t-80.5 27.5q-63 0 -101 -38.5t-49 -106.5l-11 -66q-2 -14 -3.5 -26t-1.5 -21q0 -57 29.5 -84.5t80.5 -27.5z" />
    <glyph glyph-name="omacron" unicode="&#x14d;" 
d="M230 710h289l-14 -81h-289zM265 -12q-51 0 -90 16t-65.5 44.5t-40.5 69t-14 90.5q0 74 21 133t58.5 100.5t89 64t111.5 22.5q51 0 90 -16t65.5 -44.5t40.5 -69.5t14 -90q0 -74 -21 -133t-58.5 -100.5t-89 -64t-111.5 -22.5zM272 73q63 0 101 38.5t49 106.5l11 66
q2 14 3.5 26t1.5 21q0 57 -29.5 84.5t-80.5 27.5q-63 0 -101 -38.5t-49 -106.5l-11 -66q-2 -14 -3.5 -26t-1.5 -21q0 -57 29.5 -84.5t80.5 -27.5z" />
    <glyph glyph-name="oslash" unicode="&#xf8;" 
d="M-3 1l85 87q-13 25 -20 55t-7 65q0 74 21 133t58.5 100.5t89 64t111.5 22.5q85 0 139 -45l75 77l54 -45l-85 -87q13 -25 20 -55t7 -65q0 -74 -21 -133t-58.5 -100.5t-89 -64t-111.5 -22.5q-85 0 -139 45l-75 -77zM328 443q-63 0 -101 -38.5t-49 -105.5l-11 -67
q-2 -14 -3.5 -26t-1.5 -21v-10t1 -10l244 251q-29 27 -79 27zM272 73q63 0 101 38.5t49 105.5l11 67q2 14 3.5 26t1.5 21v10t-1 10l-244 -251q28 -27 79 -27z" />
    <glyph glyph-name="oslashacute" unicode="&#x1ff;" 
d="M-3 1l85 87q-13 25 -20 55t-7 65q0 74 21 133t58.5 100.5t89 64t111.5 22.5q85 0 139 -45l75 77l54 -45l-85 -87q13 -25 20 -55t7 -65q0 -74 -21 -133t-58.5 -100.5t-89 -64t-111.5 -22.5q-85 0 -139 45l-75 -77zM328 443q-63 0 -101 -38.5t-49 -105.5l-11 -67
q-2 -14 -3.5 -26t-1.5 -21v-10t1 -10l244 251q-29 27 -79 27zM272 73q63 0 101 38.5t49 105.5l11 67q2 14 3.5 26t1.5 21v10t-1 10l-244 -251q28 -27 79 -27zM345 579l-63 35l111 176l87 -47z" />
    <glyph glyph-name="otilde" unicode="&#xf5;" 
d="M265 -12q-51 0 -90 16t-65.5 44.5t-40.5 69t-14 90.5q0 74 21 133t58.5 100.5t89 64t111.5 22.5q51 0 90 -16t65.5 -44.5t40.5 -69.5t14 -90q0 -74 -21 -133t-58.5 -100.5t-89 -64t-111.5 -22.5zM272 73q63 0 101 38.5t49 106.5l11 66q2 14 3.5 26t1.5 21
q0 57 -29.5 84.5t-80.5 27.5q-63 0 -101 -38.5t-49 -106.5l-11 -66q-2 -14 -3.5 -26t-1.5 -21q0 -57 29.5 -84.5t80.5 -27.5zM433 604q-24 0 -41 7.5t-34 17.5q-17 11 -34 17t-34 6q-16 0 -30.5 -7t-32.5 -21l-33 52q19 23 47 40t63 17q24 0 41 -7.5t34 -17.5q17 -11 34 -17
t34 -6q16 0 30.5 7t32.5 21l33 -52q-19 -23 -47 -40t-63 -17z" />
    <glyph glyph-name="ohorn" unicode="&#x1a1;" 
d="M265 -12q-51 0 -90 16t-65.5 44.5t-40.5 69t-14 90.5q0 74 21 133t58.5 100.5t88.5 64t111 22.5q44 0 80 -12h91l19 113h92l-17 -102q-6 -38 -27.5 -56t-72.5 -18q23 -28 34.5 -63t11.5 -82q0 -74 -21 -133t-58.5 -100.5t-89 -64t-111.5 -22.5zM272 73q63 0 101 38.5
t49 106.5l11 66q2 14 3.5 26t1.5 21q0 57 -29.5 84.5t-80.5 27.5q-63 0 -101 -38.5t-49 -106.5l-11 -66q-2 -14 -3.5 -26t-1.5 -21q0 -57 29.5 -84.5t80.5 -27.5z" />
    <glyph glyph-name="uni1EDB" unicode="&#x1edb;" 
d="M364 579l-63 35l111 176l87 -47zM265 -12q-51 0 -90 16t-65.5 44.5t-40.5 69t-14 90.5q0 74 21 133t58.5 100.5t88.5 64t111 22.5q44 0 80 -12h91l19 113h92l-17 -102q-6 -38 -27.5 -56t-72.5 -18q23 -28 34.5 -63t11.5 -82q0 -74 -21 -133t-58.5 -100.5t-89 -64
t-111.5 -22.5zM272 73q63 0 101 38.5t49 106.5l11 66q2 14 3.5 26t1.5 21q0 57 -29.5 84.5t-80.5 27.5q-63 0 -101 -38.5t-49 -106.5l-11 -66q-2 -14 -3.5 -26t-1.5 -21q0 -57 29.5 -84.5t80.5 -27.5z" />
    <glyph glyph-name="uni1EE3" unicode="&#x1ee3;" 
d="M265 -12q-51 0 -90 16t-65.5 44.5t-40.5 69t-14 90.5q0 74 21 133t58.5 100.5t88.5 64t111 22.5q44 0 80 -12h91l19 113h92l-17 -102q-6 -38 -27.5 -56t-72.5 -18q23 -28 34.5 -63t11.5 -82q0 -74 -21 -133t-58.5 -100.5t-89 -64t-111.5 -22.5zM272 73q63 0 101 38.5
t49 106.5l11 66q2 14 3.5 26t1.5 21q0 57 -29.5 84.5t-80.5 27.5q-63 0 -101 -38.5t-49 -106.5l-11 -66q-2 -14 -3.5 -26t-1.5 -21q0 -57 29.5 -84.5t80.5 -27.5zM231 -184q-34 0 -47.5 12.5t-13.5 31.5q0 5 1 11.5t3 15.5q4 23 19 37.5t50 14.5q34 0 47.5 -12.5t13.5 -31.5
q0 -5 -1 -11.5t-3 -15.5q-4 -23 -19 -37.5t-50 -14.5z" />
    <glyph glyph-name="uni1EDD" unicode="&#x1edd;" 
d="M265 -12q-51 0 -90 16t-65.5 44.5t-40.5 69t-14 90.5q0 74 21 133t58.5 100.5t88.5 64t111 22.5q44 0 80 -12h91l19 113h92l-17 -102q-6 -38 -27.5 -56t-72.5 -18q23 -28 34.5 -63t11.5 -82q0 -74 -21 -133t-58.5 -100.5t-89 -64t-111.5 -22.5zM272 73q63 0 101 38.5
t49 106.5l11 66q2 14 3.5 26t1.5 21q0 57 -29.5 84.5t-80.5 27.5q-63 0 -101 -38.5t-49 -106.5l-11 -66q-2 -14 -3.5 -26t-1.5 -21q0 -57 29.5 -84.5t80.5 -27.5zM251 750l95 40l63 -183l-67 -28z" />
    <glyph glyph-name="uni1EDF" unicode="&#x1edf;" 
d="M265 -12q-51 0 -90 16t-65.5 44.5t-40.5 69t-14 90.5q0 74 21 133t58.5 100.5t88.5 64t111 22.5q44 0 80 -12h91l19 113h92l-17 -102q-6 -38 -27.5 -56t-72.5 -18q23 -28 34.5 -63t11.5 -82q0 -74 -21 -133t-58.5 -100.5t-89 -64t-111.5 -22.5zM272 73q63 0 101 38.5
t49 106.5l11 66q2 14 3.5 26t1.5 21q0 57 -29.5 84.5t-80.5 27.5q-63 0 -101 -38.5t-49 -106.5l-11 -66q-2 -14 -3.5 -26t-1.5 -21q0 -57 29.5 -84.5t80.5 -27.5zM288 776h121q38 0 55.5 -15.5t17.5 -39.5q0 -26 -14 -49.5t-37 -49.5l-46 -52l-55 30l63 97h-118z" />
    <glyph glyph-name="uni1EE1" unicode="&#x1ee1;" 
d="M414 606q-20 0 -34 6t-31 17q-31 20 -58 20t-57 -24l-35 49q18 23 43.5 40t59.5 17q20 0 34 -6t31 -17q31 -20 58 -20t57 24l35 -49q-18 -23 -43.5 -40t-59.5 -17zM265 -12q-51 0 -90 16t-65.5 44.5t-40.5 69t-14 90.5q0 74 21 133t58.5 100.5t88.5 64t111 22.5
q44 0 80 -12h91l19 113h92l-17 -102q-6 -38 -27.5 -56t-72.5 -18q23 -28 34.5 -63t11.5 -82q0 -74 -21 -133t-58.5 -100.5t-89 -64t-111.5 -22.5zM272 73q63 0 101 38.5t49 106.5l11 66q2 14 3.5 26t1.5 21q0 57 -29.5 84.5t-80.5 27.5q-63 0 -101 -38.5t-49 -106.5l-11 -66
q-2 -14 -3.5 -26t-1.5 -21q0 -57 29.5 -84.5t80.5 -27.5z" />
    <glyph glyph-name="uni1ED1" unicode="&#x1ed1;" 
d="M535 716l-58 31l104 177l84 -45zM430 762l101 -147l-57 -42l-102 112l-137 -112l-49 46l148 143h96zM265 -12q-51 0 -90 16t-65.5 44.5t-40.5 69t-14 90.5q0 74 21 133t58.5 100.5t89 64t111.5 22.5q51 0 90 -16t65.5 -44.5t40.5 -69.5t14 -90q0 -74 -21 -133
t-58.5 -100.5t-89 -64t-111.5 -22.5zM272 73q63 0 101 38.5t49 106.5l11 66q2 14 3.5 26t1.5 21q0 57 -29.5 84.5t-80.5 27.5q-63 0 -101 -38.5t-49 -106.5l-11 -66q-2 -14 -3.5 -26t-1.5 -21q0 -57 29.5 -84.5t80.5 -27.5z" />
    <glyph glyph-name="uni1ED9" unicode="&#x1ed9;" 
d="M438 773l96 -151l-59 -40l-100 116l-136 -116l-52 43l142 148h109zM265 -12q-51 0 -90 16t-65.5 44.5t-40.5 69t-14 90.5q0 74 21 133t58.5 100.5t89 64t111.5 22.5q51 0 90 -16t65.5 -44.5t40.5 -69.5t14 -90q0 -74 -21 -133t-58.5 -100.5t-89 -64t-111.5 -22.5zM272 73
q63 0 101 38.5t49 106.5l11 66q2 14 3.5 26t1.5 21q0 57 -29.5 84.5t-80.5 27.5q-63 0 -101 -38.5t-49 -106.5l-11 -66q-2 -14 -3.5 -26t-1.5 -21q0 -57 29.5 -84.5t80.5 -27.5zM231 -184q-34 0 -47.5 12.5t-13.5 31.5q0 5 1 11.5t3 15.5q4 23 19 37.5t50 14.5
q34 0 47.5 -12.5t13.5 -31.5q0 -5 -1 -11.5t-3 -15.5q-4 -23 -19 -37.5t-50 -14.5z" />
    <glyph glyph-name="uni1ED3" unicode="&#x1ed3;" 
d="M123 888l89 38l61 -182l-59 -26zM430 762l101 -147l-57 -42l-102 112l-137 -112l-49 46l148 143h96zM265 -12q-51 0 -90 16t-65.5 44.5t-40.5 69t-14 90.5q0 74 21 133t58.5 100.5t89 64t111.5 22.5q51 0 90 -16t65.5 -44.5t40.5 -69.5t14 -90q0 -74 -21 -133
t-58.5 -100.5t-89 -64t-111.5 -22.5zM272 73q63 0 101 38.5t49 106.5l11 66q2 14 3.5 26t1.5 21q0 57 -29.5 84.5t-80.5 27.5q-63 0 -101 -38.5t-49 -106.5l-11 -66q-2 -14 -3.5 -26t-1.5 -21q0 -57 29.5 -84.5t80.5 -27.5z" />
    <glyph glyph-name="uni1ED5" unicode="&#x1ed5;" 
d="M449 915h117q38 0 55 -15.5t17 -38.5t-11.5 -44t-30.5 -44l-55 -64l-54 30l63 98h-114zM430 762l101 -147l-57 -42l-102 112l-137 -112l-49 46l148 143h96zM265 -12q-51 0 -90 16t-65.5 44.5t-40.5 69t-14 90.5q0 74 21 133t58.5 100.5t89 64t111.5 22.5q51 0 90 -16
t65.5 -44.5t40.5 -69.5t14 -90q0 -74 -21 -133t-58.5 -100.5t-89 -64t-111.5 -22.5zM272 73q63 0 101 38.5t49 106.5l11 66q2 14 3.5 26t1.5 21q0 57 -29.5 84.5t-80.5 27.5q-63 0 -101 -38.5t-49 -106.5l-11 -66q-2 -14 -3.5 -26t-1.5 -21q0 -57 29.5 -84.5t80.5 -27.5z
" />
    <glyph glyph-name="uni1ED7" unicode="&#x1ed7;" 
d="M265 -12q-51 0 -90 16t-65.5 44.5t-40.5 69t-14 90.5q0 74 21 133t58.5 100.5t89 64t111.5 22.5q51 0 90 -16t65.5 -44.5t40.5 -69.5t14 -90q0 -74 -21 -133t-58.5 -100.5t-89 -64t-111.5 -22.5zM272 73q63 0 101 38.5t49 106.5l11 66q2 14 3.5 26t1.5 21
q0 57 -29.5 84.5t-80.5 27.5q-63 0 -101 -38.5t-49 -106.5l-11 -66q-2 -14 -3.5 -26t-1.5 -21q0 -57 29.5 -84.5t80.5 -27.5zM332 910q24 0 41 -8t35 -17q19 -10 35 -16.5t33 -6.5t31.5 7t31.5 21l33 -51q-19 -23 -47 -40t-63 -17q-24 0 -41 8t-35 17q-19 10 -35 16.5
t-33 6.5t-31.5 -7t-31.5 -21l-33 51q19 23 47 40t63 17zM430 751l102 -137l-57 -41l-104 105l-134 -105l-50 47l146 131h97z" />
    <glyph glyph-name="oe" unicode="&#x153;" 
d="M404 -12q-48 0 -80 24t-40 73h-5q-6 -19 -17.5 -36.5t-28 -31t-38 -21.5t-47.5 -8q-68 0 -100.5 50.5t-32.5 141.5q0 69 13.5 132t39.5 111t65 76.5t89 28.5q49 0 76 -26.5t34 -61.5h4q24 42 60 65t82 23q57 0 92.5 -33.5t35.5 -90.5q0 -30 -11 -60t-40.5 -54t-80 -40
t-128.5 -18l-3 -19q-2 -14 -3 -27.5t-1 -23.5q0 -48 18 -73t51 -25q34 0 56 24.5t39 59.5l69 -32q-23 -55 -64.5 -91.5t-103.5 -36.5zM160 62q34 0 58 31.5t36 103.5l20 120q2 15 3 28.5t1 23.5q0 45 -16.5 65t-43.5 20q-34 0 -58 -31.5t-36 -103.5l-20 -120
q-2 -15 -3 -28.5t-1 -23.5q0 -45 16.5 -65t43.5 -20zM468 456q-43 0 -71 -41t-39 -107l-2 -13q47 1 79 10t52 23t28.5 32.5t8.5 40.5q0 55 -56 55z" />
    <glyph glyph-name="racute" unicode="&#x155;" 
d="M384 579l-63 35l111 176l87 -47zM165 0l71 429h-133l15 87h240l-25 -146h6q29 67 74 106.5t120 39.5h60l-18 -107h-90q-43 0 -70.5 -11.5t-48.5 -37.5q-10 -12 -27.5 -39t-23.5 -63l-43 -258h-107z" />
    <glyph glyph-name="rcaron" unicode="&#x159;" 
d="M322 591l-95 151l58 40l100 -116l136 116l52 -43l-142 -148h-109zM165 0l71 429h-133l15 87h240l-25 -146h6q29 67 74 106.5t120 39.5h60l-18 -107h-90q-43 0 -70.5 -11.5t-48.5 -37.5q-10 -12 -27.5 -39t-23.5 -63l-43 -258h-107z" />
    <glyph glyph-name="rcommaaccent" unicode="&#x157;" 
d="M144 -60h128l-110 -197h-72zM165 0l71 429h-133l15 87h240l-25 -146h6q29 67 74 106.5t120 39.5h60l-18 -107h-90q-43 0 -70.5 -11.5t-48.5 -37.5q-10 -12 -27.5 -39t-23.5 -63l-43 -258h-107z" />
    <glyph glyph-name="sacute" unicode="&#x15b;" 
d="M356 579l-63 35l111 176l87 -47zM264 -12q-76 0 -132 23.5t-87 68.5l68 60q55 -70 159 -70q59 0 92.5 21t33.5 60q0 30 -18.5 41.5t-46.5 16.5l-75 13q-29 5 -55.5 14t-46.5 24.5t-32.5 39.5t-12.5 59q0 42 17.5 73.5t48 53t71.5 32t89 10.5q69 0 119.5 -20.5t79.5 -55.5
l-66 -63q-15 21 -49 39t-90 18t-85.5 -20t-29.5 -56q0 -31 19.5 -42t47.5 -16l75 -14q28 -5 54 -13.5t46.5 -23t33 -38t12.5 -58.5q0 -41 -17 -74t-48.5 -56t-76 -35t-98.5 -12z" />
    <glyph glyph-name="scaron" unicode="&#x161;" 
d="M294 591l-95 151l58 40l100 -116l136 116l52 -43l-142 -148h-109zM264 -12q-76 0 -132 23.5t-87 68.5l68 60q55 -70 159 -70q59 0 92.5 21t33.5 60q0 30 -18.5 41.5t-46.5 16.5l-75 13q-29 5 -55.5 14t-46.5 24.5t-32.5 39.5t-12.5 59q0 42 17.5 73.5t48 53t71.5 32
t89 10.5q69 0 119.5 -20.5t79.5 -55.5l-66 -63q-15 21 -49 39t-90 18t-85.5 -20t-29.5 -56q0 -31 19.5 -42t47.5 -16l75 -14q28 -5 54 -13.5t46.5 -23t33 -38t12.5 -58.5q0 -41 -17 -74t-48.5 -56t-76 -35t-98.5 -12z" />
    <glyph glyph-name="scedilla" unicode="&#x15f;" 
d="M252 -209q-41 0 -66.5 13t-37.5 30l45 45q8 -10 21.5 -18.5t36.5 -8.5q22 0 36 8t14 24q0 11 -12.5 22t-51.5 16l-26 3l23 64q-133 9 -189 91l68 60q55 -70 159 -70q59 0 92.5 21t33.5 60q0 30 -18.5 41.5t-46.5 16.5l-75 13q-29 5 -55.5 14t-46.5 24.5t-32.5 39.5
t-12.5 59q0 42 17.5 73.5t48 53t71.5 32t89 10.5q69 0 119.5 -20.5t79.5 -55.5l-66 -63q-15 21 -49 39t-90 18t-85.5 -20t-29.5 -56q0 -31 19.5 -42t47.5 -16l75 -14q28 -5 54 -13.5t46.5 -23t33 -38t12.5 -58.5q0 -78 -57.5 -124t-154.5 -52l-17 -47l3 -4q11 3 21 4t18 1
q28 0 45 -14.5t17 -43.5q0 -24 -10 -42t-27.5 -29.5t-40.5 -17t-49 -5.5z" />
    <glyph glyph-name="scircumflex" unicode="&#x15d;" 
d="M430 773l96 -151l-59 -40l-100 116l-136 -116l-52 43l142 148h109zM264 -12q-76 0 -132 23.5t-87 68.5l68 60q55 -70 159 -70q59 0 92.5 21t33.5 60q0 30 -18.5 41.5t-46.5 16.5l-75 13q-29 5 -55.5 14t-46.5 24.5t-32.5 39.5t-12.5 59q0 42 17.5 73.5t48 53t71.5 32
t89 10.5q69 0 119.5 -20.5t79.5 -55.5l-66 -63q-15 21 -49 39t-90 18t-85.5 -20t-29.5 -56q0 -31 19.5 -42t47.5 -16l75 -14q28 -5 54 -13.5t46.5 -23t33 -38t12.5 -58.5q0 -41 -17 -74t-48.5 -56t-76 -35t-98.5 -12z" />
    <glyph glyph-name="scommaaccent" unicode="&#x219;" 
d="M195 -60h128l-110 -197h-72zM264 -12q-76 0 -132 23.5t-87 68.5l68 60q55 -70 159 -70q59 0 92.5 21t33.5 60q0 30 -18.5 41.5t-46.5 16.5l-75 13q-29 5 -55.5 14t-46.5 24.5t-32.5 39.5t-12.5 59q0 42 17.5 73.5t48 53t71.5 32t89 10.5q69 0 119.5 -20.5t79.5 -55.5
l-66 -63q-15 21 -49 39t-90 18t-85.5 -20t-29.5 -56q0 -31 19.5 -42t47.5 -16l75 -14q28 -5 54 -13.5t46.5 -23t33 -38t12.5 -58.5q0 -41 -17 -74t-48.5 -56t-76 -35t-98.5 -12z" />
    <glyph glyph-name="germandbls" unicode="&#xdf;" 
d="M43 0l102 611q11 67 50 98t99 31h138l-14 -87h-160l-23 -137h335l-15 -89l-190 -218q78 -10 122 -50.5t44 -114.5q0 -57 -20 -102.5t-58 -77t-92.5 -48t-123.5 -16.5h-70l14 86h63q75 0 120 26.5t53 89.5q3 23 4 33.5t1 16.5q0 48 -36 67t-113 19h-20l15 86l180 205h-228
l-71 -429h-106z" />
    <glyph glyph-name="germandbls.alt01" 
d="M112 428h-63l14 88h63l1 6q9 53 31 95.5t55.5 72.5t77 46t94.5 16q91 0 138.5 -48t47.5 -130q0 -29 -6 -68l-10 -60h-55q-57 0 -89 -18.5t-32 -58.5q0 -26 14.5 -38.5t45.5 -24.5l27 -11q58 -23 80.5 -52.5t22.5 -75.5q0 -41 -15 -74.5t-42 -56.5t-64.5 -35.5
t-82.5 -12.5q-51 0 -93 17t-68 59l66 58q17 -28 44 -40.5t59 -12.5q44 0 68 21.5t24 60.5q0 26 -11.5 42t-40.5 27l-25 11q-24 10 -44.5 21t-35.5 25t-23.5 33.5t-8.5 47.5q0 70 52 110.5t136 48.5l2 12q2 15 3 25t1 19q0 47 -22 71t-73 24q-63 0 -96 -37t-44 -105l-89 -526
h-106z" />
    <glyph glyph-name="tbar" unicode="&#x167;" 
d="M255 -12q-48 0 -72 26t-24 71q0 9 2 22l4 26l21 125h-97l13 77h97l15 94h-142l14 87h96q29 0 43 11.5t19 40.5l22 130h100l-30 -182h208l-14 -87h-209l-16 -94h148l-13 -77h-148l-28 -172l19 -11l192 125l50 -65l-91 -64q-32 -22 -57 -38t-46 -26t-39.5 -14.5t-36.5 -4.5
z" />
    <glyph glyph-name="tcaron" unicode="&#x165;" 
d="M500 569h-74l38 199h125zM255 -12q-48 0 -72 26t-24 71q0 9 2 21.5t4 26.5l49 296h-142l14 87h96q29 0 43 11.5t19 40.5l22 130h100l-30 -182h208l-14 -87h-209l-57 -342l20 -10l196 139l53 -64l-91 -68q-34 -26 -59.5 -44t-47.5 -29.5t-41 -17t-39 -5.5z" />
    <glyph glyph-name="tcommaaccent" unicode="&#x163;" 
d="M180 -60h128l-110 -197h-72zM255 -12q-48 0 -72 26t-24 71q0 9 2 21.5t4 26.5l49 296h-142l14 87h96q29 0 43 11.5t19 40.5l22 130h100l-30 -182h208l-14 -87h-209l-57 -342l20 -10l196 139l53 -64l-91 -68q-34 -26 -59.5 -44t-47.5 -29.5t-41 -17t-39 -5.5z" />
    <glyph glyph-name="uni021B" unicode="&#x21b;" 
d="M180 -60h128l-110 -197h-72zM255 -12q-48 0 -72 26t-24 71q0 9 2 21.5t4 26.5l49 296h-142l14 87h96q29 0 43 11.5t19 40.5l22 130h100l-30 -182h208l-14 -87h-209l-57 -342l20 -10l196 139l53 -64l-91 -68q-34 -26 -59.5 -44t-47.5 -29.5t-41 -17t-39 -5.5z" />
    <glyph glyph-name="thorn" unicode="&#xfe;" 
d="M163 740h107l-57 -346h4q15 30 32 54.5t38 42.5t47.5 27.5t60.5 9.5q80 0 118.5 -52t38.5 -148q0 -62 -14.5 -123t-44.5 -109t-75.5 -78t-107.5 -30q-59 0 -94 27t-49 78h-5l-48 -293h-107zM277 75q67 0 103.5 40.5t47.5 103.5l12 71q2 9 3 20.5t1 22.5q0 49 -22 78.5
t-70 29.5q-60 0 -106 -54q-17 -19 -32 -47t-21 -64l-17 -103q-8 -45 19.5 -71.5t81.5 -26.5z" />
    <glyph glyph-name="uacute" unicode="&#xfa;" 
d="M360 579l-63 35l111 176l87 -47zM384 122h-5q-29 -62 -68 -98t-102 -36q-69 0 -104.5 41.5t-35.5 107.5q0 18 1.5 37.5t6.5 45.5l49 296h107l-50 -300q-2 -14 -4 -29.5t-2 -28.5q0 -35 17.5 -59t57.5 -24q30 0 53.5 14t43.5 38q10 12 28.5 42t25.5 71l46 276h107
l-86 -516h-107z" />
    <glyph glyph-name="ubreve" unicode="&#x16d;" 
d="M384 122h-5q-29 -62 -68 -98t-102 -36q-69 0 -104.5 41.5t-35.5 107.5q0 18 1.5 37.5t6.5 45.5l49 296h107l-50 -300q-2 -14 -4 -29.5t-2 -28.5q0 -35 17.5 -59t57.5 -24q30 0 53.5 14t43.5 38q10 12 28.5 42t25.5 71l46 276h107l-86 -516h-107zM357 585q-41 0 -68.5 15
t-45.5 38t-28 51t-15 54l62 30l17 -35q17 -36 33 -55t49 -19q30 0 49.5 18t49.5 57l26 34l64 -30q-13 -27 -30 -55t-39.5 -51t-53 -37.5t-70.5 -14.5z" />
    <glyph glyph-name="ucircumflex" unicode="&#xfb;" 
d="M434 773l96 -151l-59 -40l-100 116l-136 -116l-52 43l142 148h109zM384 122h-5q-29 -62 -68 -98t-102 -36q-69 0 -104.5 41.5t-35.5 107.5q0 18 1.5 37.5t6.5 45.5l49 296h107l-50 -300q-2 -14 -4 -29.5t-2 -28.5q0 -35 17.5 -59t57.5 -24q30 0 53.5 14t43.5 38
q10 12 28.5 42t25.5 71l46 276h107l-86 -516h-107z" />
    <glyph glyph-name="udieresis" unicode="&#xfc;" 
d="M257 608q-34 0 -47.5 12.5t-13.5 30.5q0 5 0.5 10.5t2.5 14.5q4 23 19 39t53 16q34 0 47.5 -12.5t13.5 -30.5q0 -5 -0.5 -10.5t-2.5 -14.5q-4 -23 -19 -39t-53 -16zM457 608q-34 0 -47.5 12.5t-13.5 30.5q0 5 0.5 10.5t2.5 14.5q4 23 19 39t53 16q34 0 47.5 -12.5
t13.5 -30.5q0 -5 -0.5 -10.5t-2.5 -14.5q-4 -23 -19 -39t-53 -16zM384 122h-5q-29 -62 -68 -98t-102 -36q-69 0 -104.5 41.5t-35.5 107.5q0 18 1.5 37.5t6.5 45.5l49 296h107l-50 -300q-2 -14 -4 -29.5t-2 -28.5q0 -35 17.5 -59t57.5 -24q30 0 53.5 14t43.5 38
q10 12 28.5 42t25.5 71l46 276h107l-86 -516h-107z" />
    <glyph glyph-name="uni1EE5" unicode="&#x1ee5;" 
d="M384 122h-5q-29 -62 -68 -98t-102 -36q-69 0 -104.5 41.5t-35.5 107.5q0 18 1.5 37.5t6.5 45.5l49 296h107l-50 -300q-2 -14 -4 -29.5t-2 -28.5q0 -35 17.5 -59t57.5 -24q30 0 53.5 14t43.5 38q10 12 28.5 42t25.5 71l46 276h107l-86 -516h-107zM237 -184
q-34 0 -47.5 12.5t-13.5 31.5q0 5 1 11.5t3 15.5q4 23 19 37.5t50 14.5q34 0 47.5 -12.5t13.5 -31.5q0 -5 -1 -11.5t-3 -15.5q-4 -23 -19 -37.5t-50 -14.5z" />
    <glyph glyph-name="ugrave" unicode="&#xf9;" 
d="M384 122h-5q-29 -62 -68 -98t-102 -36q-69 0 -104.5 41.5t-35.5 107.5q0 18 1.5 37.5t6.5 45.5l49 296h107l-50 -300q-2 -14 -4 -29.5t-2 -28.5q0 -35 17.5 -59t57.5 -24q30 0 53.5 14t43.5 38q10 12 28.5 42t25.5 71l46 276h107l-86 -516h-107zM247 750l95 40l63 -183
l-67 -28z" />
    <glyph glyph-name="uni1EE7" unicode="&#x1ee7;" 
d="M384 122h-5q-29 -62 -68 -98t-102 -36q-69 0 -104.5 41.5t-35.5 107.5q0 18 1.5 37.5t6.5 45.5l49 296h107l-50 -300q-2 -14 -4 -29.5t-2 -28.5q0 -35 17.5 -59t57.5 -24q30 0 53.5 14t43.5 38q10 12 28.5 42t25.5 71l46 276h107l-86 -516h-107zM284 776h121
q38 0 55.5 -15.5t17.5 -39.5q0 -26 -14 -49.5t-37 -49.5l-46 -52l-55 30l63 97h-118z" />
    <glyph glyph-name="uhungarumlaut" unicode="&#x171;" 
d="M384 122h-5q-29 -62 -68 -98t-102 -36q-69 0 -104.5 41.5t-35.5 107.5q0 18 1.5 37.5t6.5 45.5l49 296h107l-50 -300q-2 -14 -4 -29.5t-2 -28.5q0 -35 17.5 -59t57.5 -24q30 0 53.5 14t43.5 38q10 12 28.5 42t25.5 71l46 276h107l-86 -516h-107zM271 580l-59 31l108 177
l83 -45zM448 580l-59 31l108 177l83 -45z" />
    <glyph glyph-name="umacron" unicode="&#x16b;" 
d="M384 122h-5q-29 -62 -68 -98t-102 -36q-69 0 -104.5 41.5t-35.5 107.5q0 18 1.5 37.5t6.5 45.5l49 296h107l-50 -300q-2 -14 -4 -29.5t-2 -28.5q0 -35 17.5 -59t57.5 -24q30 0 53.5 14t43.5 38q10 12 28.5 42t25.5 71l46 276h107l-86 -516h-107zM226 710h289l-14 -81
h-289z" />
    <glyph glyph-name="uogonek" unicode="&#x173;" 
d="M470 0q-40 -25 -63.5 -43.5t-36 -32t-16 -23.5t-3.5 -18q0 -15 9.5 -23t26.5 -8q14 0 27.5 6.5t26.5 20.5l45 -44q-16 -18 -42.5 -31t-65.5 -13q-44 0 -76 19t-32 60q0 40 33.5 71t98.5 54v5h-39l21 122h-5q-29 -62 -68 -98t-102 -36q-69 0 -104.5 41.5t-35.5 107.5
q0 18 1.5 37.5t6.5 45.5l49 296h107l-50 -300q-2 -14 -4 -29.5t-2 -28.5q0 -35 17.5 -59t57.5 -24q30 0 53.5 14t43.5 38q10 12 28.5 42t25.5 71l46 276h107z" />
    <glyph glyph-name="uring" unicode="&#x16f;" 
d="M350 566q-49 0 -81 31t-32 79q0 30 11.5 56t31.5 44.5t46.5 29.5t56.5 11q49 0 81 -31t32 -79q0 -30 -11.5 -56t-31.5 -44.5t-46.5 -29.5t-56.5 -11zM356 625q26 0 42 13.5t21 40.5q2 14 3.5 22.5t1.5 14.5q0 20 -12 31t-35 11q-26 0 -42 -13.5t-21 -40.5
q-2 -14 -3.5 -22.5t-1.5 -14.5q0 -20 12 -31t35 -11zM384 122h-5q-29 -62 -68 -98t-102 -36q-69 0 -104.5 41.5t-35.5 107.5q0 18 1.5 37.5t6.5 45.5l49 296h107l-50 -300q-2 -14 -4 -29.5t-2 -28.5q0 -35 17.5 -59t57.5 -24q30 0 53.5 14t43.5 38q10 12 28.5 42t25.5 71
l46 276h107l-86 -516h-107z" />
    <glyph glyph-name="utilde" unicode="&#x169;" 
d="M384 122h-5q-29 -62 -68 -98t-102 -36q-69 0 -104.5 41.5t-35.5 107.5q0 18 1.5 37.5t6.5 45.5l49 296h107l-50 -300q-2 -14 -4 -29.5t-2 -28.5q0 -35 17.5 -59t57.5 -24q30 0 53.5 14t43.5 38q10 12 28.5 42t25.5 71l46 276h107l-86 -516h-107zM429 604q-24 0 -41 7.5
t-34 17.5q-17 11 -34 17t-34 6q-16 0 -30.5 -7t-32.5 -21l-33 52q19 23 47 40t63 17q24 0 41 -7.5t34 -17.5q17 -11 34 -17t34 -6q16 0 30.5 7t32.5 21l33 -52q-19 -23 -47 -40t-63 -17z" />
    <glyph glyph-name="uhorn" unicode="&#x1b0;" 
d="M209 -12q-69 0 -104.5 41.5t-35.5 107.5q0 18 1.5 37.5t6.5 45.5l49 296h107l-50 -300q-2 -14 -4 -29.5t-2 -28.5q0 -35 17.5 -59t57.5 -24q30 0 53.5 14t43.5 38q10 12 28.5 42t25.5 71l46 276h90l19 113h92l-17 -102q-6 -35 -24.5 -56.5t-63.5 -21.5l-75 -449h-107
l21 122h-5q-29 -62 -68 -98t-102 -36z" />
    <glyph glyph-name="uni1EE9" unicode="&#x1ee9;" 
d="M361 579l-63 35l111 176l87 -47zM209 -12q-69 0 -104.5 41.5t-35.5 107.5q0 18 1.5 37.5t6.5 45.5l49 296h107l-50 -300q-2 -14 -4 -29.5t-2 -28.5q0 -35 17.5 -59t57.5 -24q30 0 53.5 14t43.5 38q10 12 28.5 42t25.5 71l46 276h90l19 113h92l-17 -102
q-6 -35 -24.5 -56.5t-63.5 -21.5l-75 -449h-107l21 122h-5q-29 -62 -68 -98t-102 -36z" />
    <glyph glyph-name="uni1EF1" unicode="&#x1ef1;" 
d="M209 -12q-69 0 -104.5 41.5t-35.5 107.5q0 18 1.5 37.5t6.5 45.5l49 296h107l-50 -300q-2 -14 -4 -29.5t-2 -28.5q0 -35 17.5 -59t57.5 -24q30 0 53.5 14t43.5 38q10 12 28.5 42t25.5 71l46 276h90l19 113h92l-17 -102q-6 -35 -24.5 -56.5t-63.5 -21.5l-75 -449h-107
l21 122h-5q-29 -62 -68 -98t-102 -36zM241 -184q-34 0 -47.5 12.5t-13.5 31.5q0 5 1 11.5t3 15.5q4 23 19 37.5t50 14.5q34 0 47.5 -12.5t13.5 -31.5q0 -5 -1 -11.5t-3 -15.5q-4 -23 -19 -37.5t-50 -14.5z" />
    <glyph glyph-name="uni1EEB" unicode="&#x1eeb;" 
d="M248 750l95 40l63 -183l-67 -28zM209 -12q-69 0 -104.5 41.5t-35.5 107.5q0 18 1.5 37.5t6.5 45.5l49 296h107l-50 -300q-2 -14 -4 -29.5t-2 -28.5q0 -35 17.5 -59t57.5 -24q30 0 53.5 14t43.5 38q10 12 28.5 42t25.5 71l46 276h90l19 113h92l-17 -102
q-6 -35 -24.5 -56.5t-63.5 -21.5l-75 -449h-107l21 122h-5q-29 -62 -68 -98t-102 -36z" />
    <glyph glyph-name="uni1EED" unicode="&#x1eed;" 
d="M285 776h121q38 0 55.5 -15.5t17.5 -39.5q0 -26 -14 -49.5t-37 -49.5l-46 -52l-55 30l63 97h-118zM209 -12q-69 0 -104.5 41.5t-35.5 107.5q0 18 1.5 37.5t6.5 45.5l49 296h107l-50 -300q-2 -14 -4 -29.5t-2 -28.5q0 -35 17.5 -59t57.5 -24q30 0 53.5 14t43.5 38
q10 12 28.5 42t25.5 71l46 276h90l19 113h92l-17 -102q-6 -35 -24.5 -56.5t-63.5 -21.5l-75 -449h-107l21 122h-5q-29 -62 -68 -98t-102 -36z" />
    <glyph glyph-name="uni1EEF" unicode="&#x1eef;" 
d="M411 606q-20 0 -34 6t-31 17q-31 20 -58 20t-57 -24l-35 49q18 23 43.5 40t59.5 17q20 0 34 -6t31 -17q31 -20 58 -20t57 24l35 -49q-18 -23 -43.5 -40t-59.5 -17zM209 -12q-69 0 -104.5 41.5t-35.5 107.5q0 18 1.5 37.5t6.5 45.5l49 296h107l-50 -300q-2 -14 -4 -29.5
t-2 -28.5q0 -35 17.5 -59t57.5 -24q30 0 53.5 14t43.5 38q10 12 28.5 42t25.5 71l46 276h90l19 113h92l-17 -102q-6 -35 -24.5 -56.5t-63.5 -21.5l-75 -449h-107l21 122h-5q-29 -62 -68 -98t-102 -36z" />
    <glyph glyph-name="wacute" unicode="&#x1e83;" 
d="M363 579l-63 35l111 176l87 -47zM123 -11q-48 0 -70.5 28.5t-22.5 76.5q0 15 2 36t6 43l57 343h90l-58 -337q-2 -14 -4 -28.5t-2 -26.5q0 -48 40 -48q18 0 32 11t26 29q11 16 18 39t10 41l53 320h87l-55 -339q-2 -15 -3.5 -29t-1.5 -25q0 -48 38 -48q24 0 45.5 25.5
t37 67t25 93.5t9.5 106q0 36 -5 71.5t-16 59.5l81 24q14 -27 22 -66.5t8 -87.5q0 -90 -21.5 -168.5t-60.5 -130.5q-60 -80 -145 -80q-47 0 -70 27t-20 80h-5q-20 -51 -50.5 -79t-76.5 -28z" />
    <glyph glyph-name="wcircumflex" unicode="&#x175;" 
d="M437 773l96 -151l-59 -40l-100 116l-136 -116l-52 43l142 148h109zM123 -11q-48 0 -70.5 28.5t-22.5 76.5q0 15 2 36t6 43l57 343h90l-58 -337q-2 -14 -4 -28.5t-2 -26.5q0 -48 40 -48q18 0 32 11t26 29q11 16 18 39t10 41l53 320h87l-55 -339q-2 -15 -3.5 -29t-1.5 -25
q0 -48 38 -48q24 0 45.5 25.5t37 67t25 93.5t9.5 106q0 36 -5 71.5t-16 59.5l81 24q14 -27 22 -66.5t8 -87.5q0 -90 -21.5 -168.5t-60.5 -130.5q-60 -80 -145 -80q-47 0 -70 27t-20 80h-5q-20 -51 -50.5 -79t-76.5 -28z" />
    <glyph glyph-name="wdieresis" unicode="&#x1e85;" 
d="M260 608q-34 0 -47.5 12.5t-13.5 30.5q0 5 0.5 10.5t2.5 14.5q4 23 19 39t53 16q34 0 47.5 -12.5t13.5 -30.5q0 -5 -0.5 -10.5t-2.5 -14.5q-4 -23 -19 -39t-53 -16zM460 608q-34 0 -47.5 12.5t-13.5 30.5q0 5 0.5 10.5t2.5 14.5q4 23 19 39t53 16q34 0 47.5 -12.5
t13.5 -30.5q0 -5 -0.5 -10.5t-2.5 -14.5q-4 -23 -19 -39t-53 -16zM123 -11q-48 0 -70.5 28.5t-22.5 76.5q0 15 2 36t6 43l57 343h90l-58 -337q-2 -14 -4 -28.5t-2 -26.5q0 -48 40 -48q18 0 32 11t26 29q11 16 18 39t10 41l53 320h87l-55 -339q-2 -15 -3.5 -29t-1.5 -25
q0 -48 38 -48q24 0 45.5 25.5t37 67t25 93.5t9.5 106q0 36 -5 71.5t-16 59.5l81 24q14 -27 22 -66.5t8 -87.5q0 -90 -21.5 -168.5t-60.5 -130.5q-60 -80 -145 -80q-47 0 -70 27t-20 80h-5q-20 -51 -50.5 -79t-76.5 -28z" />
    <glyph glyph-name="wgrave" unicode="&#x1e81;" 
d="M123 -11q-48 0 -70.5 28.5t-22.5 76.5q0 15 2 36t6 43l57 343h90l-58 -337q-2 -14 -4 -28.5t-2 -26.5q0 -48 40 -48q18 0 32 11t26 29q11 16 18 39t10 41l53 320h87l-55 -339q-2 -15 -3.5 -29t-1.5 -25q0 -48 38 -48q24 0 45.5 25.5t37 67t25 93.5t9.5 106q0 36 -5 71.5
t-16 59.5l81 24q14 -27 22 -66.5t8 -87.5q0 -90 -21.5 -168.5t-60.5 -130.5q-60 -80 -145 -80q-47 0 -70 27t-20 80h-5q-20 -51 -50.5 -79t-76.5 -28zM250 750l95 40l63 -183l-67 -28z" />
    <glyph glyph-name="yacute" unicode="&#xfd;" 
d="M211 -212q-67 0 -114.5 17t-79.5 56l68 68q43 -54 127 -54q64 0 103.5 34t53.5 122l17 107h-4q-29 -62 -68 -98t-102 -36q-69 0 -104.5 41.5t-35.5 107.5q0 18 1.5 37.5t6.5 45.5l46 280h107l-47 -284q-2 -14 -4 -29.5t-2 -28.5q0 -35 17.5 -59t57.5 -24q30 0 53.5 14
t43.5 38q10 12 28.5 42t25.5 71l43 260h107l-84 -502q-20 -119 -88 -172.5t-173 -53.5zM367 579l-63 35l111 176l87 -47z" />
    <glyph glyph-name="ycircumflex" unicode="&#x177;" 
d="M211 -212q-67 0 -114.5 17t-79.5 56l68 68q43 -54 127 -54q64 0 103.5 34t53.5 122l17 107h-4q-29 -62 -68 -98t-102 -36q-69 0 -104.5 41.5t-35.5 107.5q0 18 1.5 37.5t6.5 45.5l46 280h107l-47 -284q-2 -14 -4 -29.5t-2 -28.5q0 -35 17.5 -59t57.5 -24q30 0 53.5 14
t43.5 38q10 12 28.5 42t25.5 71l43 260h107l-84 -502q-20 -119 -88 -172.5t-173 -53.5zM441 773l96 -151l-59 -40l-100 116l-136 -116l-52 43l142 148h109z" />
    <glyph glyph-name="ydieresis" unicode="&#xff;" 
d="M211 -212q-67 0 -114.5 17t-79.5 56l68 68q43 -54 127 -54q64 0 103.5 34t53.5 122l17 107h-4q-29 -62 -68 -98t-102 -36q-69 0 -104.5 41.5t-35.5 107.5q0 18 1.5 37.5t6.5 45.5l46 280h107l-47 -284q-2 -14 -4 -29.5t-2 -28.5q0 -35 17.5 -59t57.5 -24q30 0 53.5 14
t43.5 38q10 12 28.5 42t25.5 71l43 260h107l-84 -502q-20 -119 -88 -172.5t-173 -53.5zM264 608q-34 0 -47.5 12.5t-13.5 30.5q0 5 0.5 10.5t2.5 14.5q4 23 19 39t53 16q34 0 47.5 -12.5t13.5 -30.5q0 -5 -0.5 -10.5t-2.5 -14.5q-4 -23 -19 -39t-53 -16zM464 608
q-34 0 -47.5 12.5t-13.5 30.5q0 5 0.5 10.5t2.5 14.5q4 23 19 39t53 16q34 0 47.5 -12.5t13.5 -30.5q0 -5 -0.5 -10.5t-2.5 -14.5q-4 -23 -19 -39t-53 -16z" />
    <glyph glyph-name="uni1EF5" unicode="&#x1ef5;" 
d="M211 -212q-67 0 -114.5 17t-79.5 56l68 66q43 -54 127 -54q66 0 104.5 34.5t52.5 123.5l20 125h-4q-29 -63 -68.5 -97.5t-102.5 -34.5q-69 0 -104.5 38t-35.5 101q0 20 1.5 39.5t5.5 42.5l45 271h107l-46 -275q-3 -18 -4 -31.5t-1 -21.5q0 -35 17.5 -57t55.5 -22
q31 0 55 14t44 38q11 13 29 41t25 69l41 245h107l-84 -502q-20 -119 -88 -172.5t-173 -53.5zM214 -102q-27 0 -39 10.5t-12 25.5q0 7 3 25t15.5 30.5t43.5 12.5q27 0 39 -10.5t12 -25.5q0 -7 -3 -25t-15.5 -30.5t-43.5 -12.5z" />
    <glyph glyph-name="ygrave" unicode="&#x1ef3;" 
d="M211 -212q-67 0 -114.5 17t-79.5 56l68 68q43 -54 127 -54q64 0 103.5 34t53.5 122l17 107h-4q-29 -62 -68 -98t-102 -36q-69 0 -104.5 41.5t-35.5 107.5q0 18 1.5 37.5t6.5 45.5l46 280h107l-47 -284q-2 -14 -4 -29.5t-2 -28.5q0 -35 17.5 -59t57.5 -24q30 0 53.5 14
t43.5 38q10 12 28.5 42t25.5 71l43 260h107l-84 -502q-20 -119 -88 -172.5t-173 -53.5zM254 750l95 40l63 -183l-67 -28z" />
    <glyph glyph-name="uni1EF7" unicode="&#x1ef7;" 
d="M211 -212q-67 0 -114.5 17t-79.5 56l68 68q43 -54 127 -54q64 0 103.5 34t53.5 122l17 107h-4q-29 -62 -68 -98t-102 -36q-69 0 -104.5 41.5t-35.5 107.5q0 18 1.5 37.5t6.5 45.5l46 280h107l-47 -284q-2 -14 -4 -29.5t-2 -28.5q0 -35 17.5 -59t57.5 -24q30 0 53.5 14
t43.5 38q10 12 28.5 42t25.5 71l43 260h107l-84 -502q-20 -119 -88 -172.5t-173 -53.5zM291 776h121q38 0 55.5 -15.5t17.5 -39.5q0 -26 -14 -49.5t-37 -49.5l-46 -52l-55 30l63 97h-118z" />
    <glyph glyph-name="uni1EF9" unicode="&#x1ef9;" 
d="M211 -212q-67 0 -114.5 17t-79.5 56l68 68q43 -54 127 -54q64 0 103.5 34t53.5 122l17 107h-4q-29 -62 -68 -98t-102 -36q-69 0 -104.5 41.5t-35.5 107.5q0 18 1.5 37.5t6.5 45.5l46 280h107l-47 -284q-2 -14 -4 -29.5t-2 -28.5q0 -35 17.5 -59t57.5 -24q30 0 53.5 14
t43.5 38q10 12 28.5 42t25.5 71l43 260h107l-84 -502q-20 -119 -88 -172.5t-173 -53.5zM436 604q-24 0 -41 7.5t-34 17.5q-17 11 -34 17t-34 6q-16 0 -30.5 -7t-32.5 -21l-33 52q19 23 47 40t63 17q24 0 41 -7.5t34 -17.5q17 -11 34 -17t34 -6q16 0 30.5 7t32.5 21l33 -52
q-19 -23 -47 -40t-63 -17z" />
    <glyph glyph-name="zacute" unicode="&#x17a;" 
d="M347 579l-63 35l111 176l87 -47zM420 -11q-27 0 -57 6t-66 21l-146 57l-5 -4l-11 -69h-99l16 96l342 297q-48 28 -80.5 38.5t-61.5 10.5q-45 0 -62 -28.5t-17 -73.5h-82v11q0 86 42 131.5t117 45.5q44 0 90 -17t101 -59l13 -8l5 5l11 67h99l-16 -94l-343 -299l230 -50
l11 12l-31 116l69 27l16 -35q13 -27 20 -52.5t7 -48.5q0 -20 -7.5 -38.5t-22 -33t-35.5 -23t-47 -8.5z" />
    <glyph glyph-name="zcaron" unicode="&#x17e;" 
d="M285 591l-95 151l58 40l100 -116l136 116l52 -43l-142 -148h-109zM420 -11q-27 0 -57 6t-66 21l-146 57l-5 -4l-11 -69h-99l16 96l342 297q-48 28 -80.5 38.5t-61.5 10.5q-45 0 -62 -28.5t-17 -73.5h-82v11q0 86 42 131.5t117 45.5q44 0 90 -17t101 -59l13 -8l5 5l11 67
h99l-16 -94l-343 -299l230 -50l11 12l-31 116l69 27l16 -35q13 -27 20 -52.5t7 -48.5q0 -20 -7.5 -38.5t-22 -33t-35.5 -23t-47 -8.5z" />
    <glyph glyph-name="zdotaccent" unicode="&#x17c;" 
d="M420 -11q-27 0 -57 6t-66 21l-146 57l-5 -4l-11 -69h-99l16 96l342 297q-48 28 -80.5 38.5t-61.5 10.5q-45 0 -62 -28.5t-17 -73.5h-82v11q0 86 42 131.5t117 45.5q44 0 90 -17t101 -59l13 -8l5 5l11 67h99l-16 -94l-343 -299l230 -50l11 12l-31 116l69 27l16 -35
q13 -27 20 -52.5t7 -48.5q0 -20 -7.5 -38.5t-22 -33t-35.5 -23t-47 -8.5zM343 600q-38 0 -53 14.5t-15 34.5q0 6 1 14t3 17q5 27 22.5 42.5t55.5 15.5t53 -14.5t15 -34.5q0 -6 -1 -14t-3 -17q-5 -27 -22.5 -42.5t-55.5 -15.5z" />
    <glyph glyph-name="Aacute" unicode="&#xc1;" 
d="M424 0l-20 186h-227l-82 -186h-116l321 698h150l88 -698h-114zM362 588h-9l-136 -309h178zM392 749l-63 35l111 176l87 -47z" />
    <glyph glyph-name="Abreve" unicode="&#x102;" 
d="M424 0l-20 186h-227l-82 -186h-116l321 698h150l88 -698h-114zM362 588h-9l-136 -309h178zM389 755q-41 0 -68.5 15t-45.5 38t-28 51t-15 54l62 30l17 -35q17 -36 33 -55t49 -19q30 0 49.5 18t49.5 57l26 34l64 -30q-13 -27 -30 -55t-39.5 -51t-53 -37.5t-70.5 -14.5z
" />
    <glyph glyph-name="Acircumflex" unicode="&#xc2;" 
d="M424 0l-20 186h-227l-82 -186h-116l321 698h150l88 -698h-114zM362 588h-9l-136 -309h178zM466 943l96 -151l-59 -40l-100 116l-136 -116l-52 43l142 148h109z" />
    <glyph glyph-name="Adieresis" unicode="&#xc4;" 
d="M424 0l-20 186h-227l-82 -186h-116l321 698h150l88 -698h-114zM362 588h-9l-136 -309h178zM289 778q-34 0 -47.5 12.5t-13.5 30.5q0 5 0.5 10.5t2.5 14.5q4 23 19 39t53 16q34 0 47.5 -12.5t13.5 -30.5q0 -5 -0.5 -10.5t-2.5 -14.5q-4 -23 -19 -39t-53 -16zM489 778
q-34 0 -47.5 12.5t-13.5 30.5q0 5 0.5 10.5t2.5 14.5q4 23 19 39t53 16q34 0 47.5 -12.5t13.5 -30.5q0 -5 -0.5 -10.5t-2.5 -14.5q-4 -23 -19 -39t-53 -16z" />
    <glyph glyph-name="uni1EA0" unicode="&#x1ea0;" 
d="M424 0l-20 186h-227l-82 -186h-116l321 698h150l88 -698h-114zM362 588h-9l-136 -309h178zM236 -184q-34 0 -47.5 12.5t-13.5 31.5q0 5 1 11.5t3 15.5q4 23 19 37.5t50 14.5q34 0 47.5 -12.5t13.5 -31.5q0 -5 -1 -11.5t-3 -15.5q-4 -23 -19 -37.5t-50 -14.5z" />
    <glyph glyph-name="Agrave" unicode="&#xc0;" 
d="M424 0l-20 186h-227l-82 -186h-116l321 698h150l88 -698h-114zM362 588h-9l-136 -309h178zM279 920l95 40l63 -183l-67 -28z" />
    <glyph glyph-name="uni1EA2" unicode="&#x1ea2;" 
d="M424 0l-20 186h-227l-82 -186h-116l321 698h150l88 -698h-114zM362 588h-9l-136 -309h178zM316 946h121q38 0 55.5 -15.5t17.5 -39.5q0 -26 -14 -49.5t-37 -49.5l-46 -52l-55 30l63 97h-118z" />
    <glyph glyph-name="Amacron" unicode="&#x100;" 
d="M424 0l-20 186h-227l-82 -186h-116l321 698h150l88 -698h-114zM362 588h-9l-136 -309h178zM258 880h289l-14 -81h-289z" />
    <glyph glyph-name="Aogonek" unicode="&#x104;" 
d="M300 698h150l88 -698q-40 -25 -63.5 -43.5t-36 -32t-16 -23.5t-3.5 -18q0 -15 9.5 -23t25.5 -8q31 0 55 27l45 -44q-16 -18 -43 -31t-65 -13q-44 0 -76 19t-32 60q0 40 34 71t98 54v5h-46l-20 186h-227l-82 -186h-116zM362 588h-9l-136 -309h178z" />
    <glyph glyph-name="Aring" unicode="&#xc5;" 
d="M424 0l-20 186h-227l-82 -186h-116l321 698h150l88 -698h-114zM362 588h-9l-136 -309h178zM382 736q-49 0 -81 31t-32 79q0 30 11.5 56t31.5 44.5t46.5 29.5t56.5 11q49 0 81 -31t32 -79q0 -30 -11.5 -56t-31.5 -44.5t-46.5 -29.5t-56.5 -11zM388 795q26 0 42 13.5
t21 40.5q2 14 3.5 22.5t1.5 14.5q0 20 -12 31t-35 11q-26 0 -42 -13.5t-21 -40.5q-2 -14 -3.5 -22.5t-1.5 -14.5q0 -20 12 -31t35 -11z" />
    <glyph glyph-name="Aringacute" unicode="&#x1fa;" 
d="M424 0l-20 186h-227l-82 -186h-116l321 698h150l88 -698h-114zM362 588h-9l-136 -309h178zM416 981l-42 39l112 116l58 -56zM377 733q-49 0 -81.5 27.5t-32.5 73.5q0 29 11.5 53t31.5 41t46.5 26.5t55.5 9.5q50 0 82.5 -27.5t32.5 -73.5q0 -29 -11.5 -53t-31.5 -41
t-46.5 -26.5t-56.5 -9.5zM384 789q24 0 41 12t22 39q2 9 3 16t1 12q0 40 -49 40q-24 0 -41 -12t-22 -39q-2 -9 -3 -16t-1 -12q0 -40 49 -40z" />
    <glyph glyph-name="Atilde" unicode="&#xc3;" 
d="M424 0l-20 186h-227l-82 -186h-116l321 698h150l88 -698h-114zM362 588h-9l-136 -309h178zM470 774q-24 0 -41 8t-34 17q-19 11 -35 17t-33 6q-16 0 -30.5 -7t-32.5 -21l-33 52q19 23 47 40t63 17q24 0 41 -8t34 -17q19 -11 35 -17t33 -6q16 0 30.5 7t32.5 21l33 -52
q-19 -23 -47 -40t-63 -17z" />
    <glyph glyph-name="uni1EAE" unicode="&#x1eae;" 
d="M424 0l-20 186h-227l-82 -186h-116l321 698h150l88 -698h-114zM362 588h-9l-136 -309h178zM386 746q-42 0 -71 13t-47.5 33.5t-29 46t-15.5 50.5l57 33l17 -30q21 -38 40 -53t52 -15q30 0 54 14.5t57 53.5l25 30l60 -33q-14 -27 -32 -52.5t-41.5 -46t-54.5 -32.5t-71 -12
zM409 885l-59 32l106 177l83 -45z" />
    <glyph glyph-name="uni1EB6" unicode="&#x1eb6;" 
d="M424 0l-20 186h-227l-82 -186h-116l321 698h150l88 -698h-114zM362 588h-9l-136 -309h178zM389 755q-41 0 -68.5 15t-45.5 38t-28 51t-15 54l62 30l17 -35q17 -36 33 -55t49 -19q30 0 49.5 18t49.5 57l26 34l64 -30q-13 -27 -30 -55t-39.5 -51t-53 -37.5t-70.5 -14.5z
M236 -184q-34 0 -47.5 12.5t-13.5 31.5q0 5 1 11.5t3 15.5q4 23 19 37.5t50 14.5q34 0 47.5 -12.5t13.5 -31.5q0 -5 -1 -11.5t-3 -15.5q-4 -23 -19 -37.5t-50 -14.5z" />
    <glyph glyph-name="uni1EB0" unicode="&#x1eb0;" 
d="M424 0l-20 186h-227l-82 -186h-116l321 698h150l88 -698h-114zM362 588h-9l-136 -309h178zM386 746q-42 0 -71 13t-47.5 33.5t-29 46t-15.5 50.5l57 33l17 -30q21 -38 40 -53t52 -15q30 0 54 14.5t57 53.5l25 30l60 -33q-14 -27 -32 -52.5t-41.5 -46t-54.5 -32.5t-71 -12
zM289 1055l92 39l59 -182l-62 -27z" />
    <glyph glyph-name="uni1EB2" unicode="&#x1eb2;" 
d="M424 0l-20 186h-227l-82 -186h-116l321 698h150l88 -698h-114zM362 588h-9l-136 -309h178zM313 1082h112q38 0 55.5 -16t17.5 -39t-14.5 -46t-41.5 -52l-48 -52l-50 28l65 99h-109zM386 746q-42 0 -71 13t-47.5 33.5t-29 46t-15.5 50.5l57 33l17 -30q21 -38 40 -53
t52 -15q30 0 54 14.5t57 53.5l25 30l60 -33q-14 -27 -32 -52.5t-41.5 -46t-54.5 -32.5t-71 -12z" />
    <glyph glyph-name="uni1EB4" unicode="&#x1eb4;" 
d="M424 0l-20 186h-227l-82 -186h-116l321 698h150l88 -698h-114zM362 588h-9l-136 -309h178zM474 949q-25 0 -41.5 7t-32.5 14q-21 9 -36.5 14.5t-31.5 5.5q-17 0 -31 -6.5t-31 -19.5l-33 47q20 23 46.5 39.5t64.5 16.5q25 0 41.5 -7t32.5 -14q21 -9 36.5 -14.5t31.5 -5.5
q17 0 31 6.5t31 19.5l33 -47q-20 -23 -46.5 -39.5t-64.5 -16.5zM386 746q-42 0 -71 13t-47.5 33.5t-29 46t-15.5 50.5l57 33l17 -30q21 -38 40 -53t52 -15q30 0 54 14.5t57 53.5l25 30l60 -33q-14 -27 -32 -52.5t-41.5 -46t-54.5 -32.5t-71 -12z" />
    <glyph glyph-name="uni1EA4" unicode="&#x1ea4;" 
d="M424 0l-20 186h-227l-82 -186h-116l321 698h150l88 -698h-114zM362 588h-9l-136 -309h178zM563 886l-58 31l104 177l84 -45zM458 932l101 -147l-57 -42l-102 112l-137 -112l-49 46l148 143h96z" />
    <glyph glyph-name="uni1EAC" unicode="&#x1eac;" 
d="M424 0l-20 186h-227l-82 -186h-116l321 698h150l88 -698h-114zM362 588h-9l-136 -309h178zM466 943l96 -151l-59 -40l-100 116l-136 -116l-52 43l142 148h109zM236 -184q-34 0 -47.5 12.5t-13.5 31.5q0 5 1 11.5t3 15.5q4 23 19 37.5t50 14.5q34 0 47.5 -12.5t13.5 -31.5
q0 -5 -1 -11.5t-3 -15.5q-4 -23 -19 -37.5t-50 -14.5z" />
    <glyph glyph-name="uni1EA6" unicode="&#x1ea6;" 
d="M424 0l-20 186h-227l-82 -186h-116l321 698h150l88 -698h-114zM362 588h-9l-136 -309h178zM151 1058l89 38l61 -182l-59 -26zM458 932l101 -147l-57 -42l-102 112l-137 -112l-49 46l148 143h96z" />
    <glyph glyph-name="uni1EA8" unicode="&#x1ea8;" 
d="M424 0l-20 186h-227l-82 -186h-116l321 698h150l88 -698h-114zM362 588h-9l-136 -309h178zM477 1085h117q38 0 55 -15.5t17 -38.5t-11.5 -44t-30.5 -44l-55 -64l-54 30l63 98h-114zM458 932l101 -147l-57 -42l-102 112l-137 -112l-49 46l148 143h96z" />
    <glyph glyph-name="uni1EAA" unicode="&#x1eaa;" 
d="M424 0l-20 186h-227l-82 -186h-116l321 698h150l88 -698h-114zM362 588h-9l-136 -309h178zM250 1023q19 23 47 40t63 17q24 0 41 -8t35 -17q19 -10 35 -16.5t33 -6.5t31.5 7t31.5 21l33 -51q-19 -23 -47 -40t-63 -17q-24 0 -41 8t-35 17q-19 10 -35 16.5t-33 6.5
t-31.5 -7t-31.5 -21zM458 921l102 -137l-57 -41l-104 105l-134 -105l-50 47l146 131h97z" />
    <glyph glyph-name="AE" unicode="&#xc6;" 
d="M303 188h-130l-78 -188h-110l302 698h366l-14 -86h-162l-36 -216h151l-14 -86h-151l-38 -224h162l-14 -86h-265zM349 620l-142 -346h111l57 346h-26z" />
    <glyph glyph-name="AEacute" unicode="&#x1fc;" 
d="M303 188h-130l-78 -188h-110l302 698h366l-14 -86h-162l-36 -216h151l-14 -86h-151l-38 -224h162l-14 -86h-265zM349 620l-142 -346h111l57 346h-26zM453 749l-63 35l111 176l87 -47z" />
    <glyph glyph-name="Cacute" unicode="&#x106;" 
d="M288 -12q-115 0 -168.5 67t-53.5 191q0 97 21 181.5t61.5 147.5t100 99t136.5 36q52 0 89 -14.5t61.5 -38.5t38 -56.5t17.5 -68.5l-103 -26q-4 24 -10.5 44.5t-19 35.5t-32 23.5t-49.5 8.5q-73 0 -116 -56t-60 -156l-17 -102q-4 -23 -6 -42t-2 -42q0 -64 28 -102t94 -38
q27 0 49 9t40 25.5t33.5 40.5t31.5 55l91 -35q-20 -45 -44 -79.5t-55 -58.5t-69.5 -36.5t-86.5 -12.5zM404 749l-63 35l111 176l87 -47z" />
    <glyph glyph-name="Ccaron" unicode="&#x10c;" 
d="M288 -12q-115 0 -168.5 67t-53.5 191q0 97 21 181.5t61.5 147.5t100 99t136.5 36q52 0 89 -14.5t61.5 -38.5t38 -56.5t17.5 -68.5l-103 -26q-4 24 -10.5 44.5t-19 35.5t-32 23.5t-49.5 8.5q-73 0 -116 -56t-60 -156l-17 -102q-4 -23 -6 -42t-2 -42q0 -64 28 -102t94 -38
q27 0 49 9t40 25.5t33.5 40.5t31.5 55l91 -35q-20 -45 -44 -79.5t-55 -58.5t-69.5 -36.5t-86.5 -12.5zM342 761l-95 151l58 40l100 -116l136 116l52 -43l-142 -148h-109z" />
    <glyph glyph-name="Ccedilla" unicode="&#xc7;" 
d="M377 618q-73 0 -116 -56t-60 -156l-17 -102q-4 -23 -6 -42t-2 -42q0 -64 28 -102t94 -38q27 0 49 9t40 25.5t33.5 40.5t31.5 55l91 -35q-38 -83 -90.5 -131t-137.5 -55l-17 -47l2 -4q11 3 21 4t18 1q28 0 45.5 -14.5t17.5 -45.5q0 -23 -10 -40t-27 -28.5t-40 -17.5
t-49 -6q-42 0 -68 13t-37 30l44 45q8 -10 22.5 -18.5t37.5 -8.5q20 0 34 8t14 24q0 11 -11.5 22t-51.5 16l-26 3l23 64q-99 10 -145 76t-46 181q0 97 21 181.5t61.5 147.5t100 99t136.5 36q52 0 89 -14.5t61.5 -38.5t38 -56.5t17.5 -68.5l-103 -26q-4 24 -10.5 44.5
t-19 35.5t-32 23.5t-49.5 8.5z" />
    <glyph glyph-name="Ccircumflex" unicode="&#x108;" 
d="M288 -12q-115 0 -168.5 67t-53.5 191q0 97 21 181.5t61.5 147.5t100 99t136.5 36q52 0 89 -14.5t61.5 -38.5t38 -56.5t17.5 -68.5l-103 -26q-4 24 -10.5 44.5t-19 35.5t-32 23.5t-49.5 8.5q-73 0 -116 -56t-60 -156l-17 -102q-4 -23 -6 -42t-2 -42q0 -64 28 -102t94 -38
q27 0 49 9t40 25.5t33.5 40.5t31.5 55l91 -35q-20 -45 -44 -79.5t-55 -58.5t-69.5 -36.5t-86.5 -12.5zM478 943l96 -151l-59 -40l-100 116l-136 -116l-52 43l142 148h109z" />
    <glyph glyph-name="Cdotaccent" unicode="&#x10a;" 
d="M400 770q-38 0 -53 14.5t-15 34.5q0 6 1 14t3 17q5 27 22.5 42.5t55.5 15.5t53 -14.5t15 -34.5q0 -6 -1 -14t-3 -17q-5 -27 -22.5 -42.5t-55.5 -15.5zM288 -12q-115 0 -168.5 67t-53.5 191q0 97 21 181.5t61.5 147.5t100 99t136.5 36q52 0 89 -14.5t61.5 -38.5t38 -56.5
t17.5 -68.5l-103 -26q-4 24 -10.5 44.5t-19 35.5t-32 23.5t-49.5 8.5q-73 0 -116 -56t-60 -156l-17 -102q-4 -23 -6 -42t-2 -42q0 -64 28 -102t94 -38q27 0 49 9t40 25.5t33.5 40.5t31.5 55l91 -35q-20 -45 -44 -79.5t-55 -58.5t-69.5 -36.5t-86.5 -12.5z" />
    <glyph glyph-name="Dcaron" unicode="&#x10e;" 
d="M159 698h186q56 0 99 -17t72 -48t44 -75t15 -98q0 -228 -86 -344t-239 -116h-208zM255 91q78 0 123.5 48.5t61.5 143.5l18 109q3 18 5 39t2 39q0 137 -132 137h-80l-86 -516h88zM285 761l-95 151l58 40l100 -116l136 116l52 -43l-142 -148h-109z" />
    <glyph glyph-name="Dcroat" unicode="&#x110;" 
d="M97 327h-71l14 83h71l48 288h186q56 0 99 -17t72 -48t44 -75t15 -98q0 -228 -86 -344t-239 -116h-208zM255 91q78 0 123.5 48.5t61.5 143.5l18 109q3 18 5 39t2 39q0 137 -132 137h-80l-33 -200h127l-13 -78h-127l-40 -238h88z" />
    <glyph glyph-name="Eth" unicode="&#xd0;" 
d="M97 327h-71l14 83h71l48 288h186q56 0 99 -17t72 -48t44 -75t15 -98q0 -228 -86 -344t-239 -116h-208zM255 91q78 0 123.5 48.5t61.5 143.5l18 109q3 18 5 39t2 39q0 137 -132 137h-80l-33 -200h127l-13 -78h-127l-40 -238h88z" />
    <glyph glyph-name="Eacute" unicode="&#xc9;" 
d="M42 0l117 698h436l-16 -93h-326l-35 -205h315l-16 -93h-314l-36 -214h328l-16 -93h-437zM396 749l-63 35l111 176l87 -47z" />
    <glyph glyph-name="Ebreve" unicode="&#x114;" 
d="M42 0l117 698h436l-16 -93h-326l-35 -205h315l-16 -93h-314l-36 -214h328l-16 -93h-437zM393 755q-41 0 -68.5 15t-45.5 38t-28 51t-15 54l62 30l17 -35q17 -36 33 -55t49 -19q30 0 49.5 18t49.5 57l26 34l64 -30q-13 -27 -30 -55t-39.5 -51t-53 -37.5t-70.5 -14.5z" />
    <glyph glyph-name="Ecaron" unicode="&#x11a;" 
d="M42 0l117 698h436l-16 -93h-326l-35 -205h315l-16 -93h-314l-36 -214h328l-16 -93h-437zM334 761l-95 151l58 40l100 -116l136 116l52 -43l-142 -148h-109z" />
    <glyph glyph-name="Ecircumflex" unicode="&#xca;" 
d="M470 943l96 -151l-59 -40l-100 116l-136 -116l-52 43l142 148h109zM42 0l117 698h436l-16 -93h-326l-35 -205h315l-16 -93h-314l-36 -214h328l-16 -93h-437z" />
    <glyph glyph-name="Edieresis" unicode="&#xcb;" 
d="M42 0l117 698h436l-16 -93h-326l-35 -205h315l-16 -93h-314l-36 -214h328l-16 -93h-437zM293 778q-34 0 -47.5 12.5t-13.5 30.5q0 5 0.5 10.5t2.5 14.5q4 23 19 39t53 16q34 0 47.5 -12.5t13.5 -30.5q0 -5 -0.5 -10.5t-2.5 -14.5q-4 -23 -19 -39t-53 -16zM493 778
q-34 0 -47.5 12.5t-13.5 30.5q0 5 0.5 10.5t2.5 14.5q4 23 19 39t53 16q34 0 47.5 -12.5t13.5 -30.5q0 -5 -0.5 -10.5t-2.5 -14.5q-4 -23 -19 -39t-53 -16z" />
    <glyph glyph-name="Edotaccent" unicode="&#x116;" 
d="M392 770q-38 0 -53 14.5t-15 34.5q0 6 1 14t3 17q5 27 22.5 42.5t55.5 15.5t53 -14.5t15 -34.5q0 -6 -1 -14t-3 -17q-5 -27 -22.5 -42.5t-55.5 -15.5zM42 0l117 698h436l-16 -93h-326l-35 -205h315l-16 -93h-314l-36 -214h328l-16 -93h-437z" />
    <glyph glyph-name="uni1EB8" unicode="&#x1eb8;" 
d="M42 0l117 698h436l-16 -93h-326l-35 -205h315l-16 -93h-314l-36 -214h328l-16 -93h-437zM254 -184q-34 0 -47.5 12.5t-13.5 31.5q0 5 1 11.5t3 15.5q4 23 19 37.5t50 14.5q34 0 47.5 -12.5t13.5 -31.5q0 -5 -1 -11.5t-3 -15.5q-4 -23 -19 -37.5t-50 -14.5z" />
    <glyph glyph-name="Egrave" unicode="&#xc8;" 
d="M283 920l95 40l63 -183l-67 -28zM42 0l117 698h436l-16 -93h-326l-35 -205h315l-16 -93h-314l-36 -214h328l-16 -93h-437z" />
    <glyph glyph-name="uni1EBA" unicode="&#x1eba;" 
d="M42 0l117 698h436l-16 -93h-326l-35 -205h315l-16 -93h-314l-36 -214h328l-16 -93h-437zM320 946h121q38 0 55.5 -15.5t17.5 -39.5q0 -26 -14 -49.5t-37 -49.5l-46 -52l-55 30l63 97h-118z" />
    <glyph glyph-name="Emacron" unicode="&#x112;" 
d="M42 0l117 698h436l-16 -93h-326l-35 -205h315l-16 -93h-314l-36 -214h328l-16 -93h-437zM262 880h289l-14 -81h-289z" />
    <glyph glyph-name="Eogonek" unicode="&#x118;" 
d="M159 698h436l-16 -93h-326l-35 -205h315l-16 -93h-314l-36 -214h328l-16 -93q-40 -25 -63.5 -43.5t-36 -32t-16 -23.5t-3.5 -18q0 -15 9.5 -23t26.5 -8q14 0 27.5 6.5t26.5 20.5l45 -44q-16 -18 -42.5 -31t-65.5 -13q-44 0 -76 19t-32 60q0 40 33.5 71t98.5 54l-1 5h-368
z" />
    <glyph glyph-name="uni1EBC" unicode="&#x1ebc;" 
d="M42 0l117 698h436l-16 -93h-326l-35 -205h315l-16 -93h-314l-36 -214h328l-16 -93h-437zM474 774q-24 0 -41 8t-34 17q-19 11 -35 17t-33 6q-16 0 -30.5 -7t-32.5 -21l-33 52q19 23 47 40t63 17q24 0 41 -8t34 -17q19 -11 35 -17t33 -6q16 0 30.5 7t32.5 21l33 -52
q-19 -23 -47 -40t-63 -17z" />
    <glyph glyph-name="uni1EBE" unicode="&#x1ebe;" 
d="M42 0l117 698h436l-16 -93h-326l-35 -205h315l-16 -93h-314l-36 -214h328l-16 -93h-437zM567 886l-58 31l104 177l84 -45zM462 932l101 -147l-57 -42l-102 112l-137 -112l-49 46l148 143h96z" />
    <glyph glyph-name="uni1EC6" unicode="&#x1ec6;" 
d="M470 943l96 -151l-59 -40l-100 116l-136 -116l-52 43l142 148h109zM42 0l117 698h436l-16 -93h-326l-35 -205h315l-16 -93h-314l-36 -214h328l-16 -93h-437zM254 -184q-34 0 -47.5 12.5t-13.5 31.5q0 5 1 11.5t3 15.5q4 23 19 37.5t50 14.5q34 0 47.5 -12.5t13.5 -31.5
q0 -5 -1 -11.5t-3 -15.5q-4 -23 -19 -37.5t-50 -14.5z" />
    <glyph glyph-name="uni1EC0" unicode="&#x1ec0;" 
d="M155 1058l89 38l61 -182l-59 -26zM462 932l101 -147l-57 -42l-102 112l-137 -112l-49 46l148 143h96zM42 0l117 698h436l-16 -93h-326l-35 -205h315l-16 -93h-314l-36 -214h328l-16 -93h-437z" />
    <glyph glyph-name="uni1EC2" unicode="&#x1ec2;" 
d="M481 1085h117q38 0 55 -15.5t17 -38.5t-11.5 -44t-30.5 -44l-55 -64l-54 30l63 98h-114zM462 932l101 -147l-57 -42l-102 112l-137 -112l-49 46l148 143h96zM42 0l117 698h436l-16 -93h-326l-35 -205h315l-16 -93h-314l-36 -214h328l-16 -93h-437z" />
    <glyph glyph-name="uni1EC4" unicode="&#x1ec4;" 
d="M42 0l117 698h436l-16 -93h-326l-35 -205h315l-16 -93h-314l-36 -214h328l-16 -93h-437zM254 1023q19 23 47 40t63 17q24 0 41 -8t35 -17q19 -10 35 -16.5t33 -6.5t31.5 7t31.5 21l33 -51q-19 -23 -47 -40t-63 -17q-24 0 -41 8t-35 17q-19 10 -35 16.5t-33 6.5t-31.5 -7
t-31.5 -21zM462 921l102 -137l-57 -41l-104 105l-134 -105l-50 47l146 131h97z" />
    <glyph glyph-name="uni018F" unicode="&#x18f;" 
d="M262 -12q-106 0 -158.5 65t-52.5 183q0 20 1.5 50t5.5 53l7 43h396l4 23q4 23 5.5 42.5t1.5 33.5q0 66 -27 102t-88 36q-31 0 -56 -9.5t-45 -27t-36 -42t-30 -55.5l-89 40q35 87 102 136t164 49q110 0 161 -65t51 -198q0 -46 -6.5 -98.5t-21.5 -103.5t-39.5 -97.5
t-59.5 -82t-82 -56.5t-108 -21zM268 78q76 0 119 56.5t59 153.5l2 10h-283q-4 -24 -6 -46.5t-2 -39.5q0 -30 6 -54.5t19 -42t34 -27.5t52 -10z" />
    <glyph glyph-name="Gbreve" unicode="&#x11e;" 
d="M408 102h-7q-14 -23 -28.5 -44t-33.5 -36.5t-43 -24.5t-57 -9q-88 0 -135 64t-47 190q0 96 20 181t59.5 149t99.5 101t140 37q50 0 86.5 -14.5t60.5 -39t37 -56.5t18 -68l-103 -26q-4 22 -10.5 42.5t-19 36t-32 24.5t-48.5 9q-74 0 -115 -57.5t-57 -153.5l-17 -100
q-3 -18 -5 -42t-2 -40q0 -67 25.5 -106.5t84.5 -39.5q32 0 57.5 11.5t44 31t30.5 45.5t17 55l9 51h-137l14 83h235l-59 -356h-99zM383 755q-41 0 -68.5 15t-45.5 38t-28 51t-15 54l62 30l17 -35q17 -36 33 -55t49 -19q30 0 49.5 18t49.5 57l26 34l64 -30q-13 -27 -30 -55
t-39.5 -51t-53 -37.5t-70.5 -14.5z" />
    <glyph glyph-name="Gcircumflex" unicode="&#x11c;" 
d="M460 943l96 -151l-59 -40l-100 116l-136 -116l-52 43l142 148h109zM408 102h-7q-14 -23 -28.5 -44t-33.5 -36.5t-43 -24.5t-57 -9q-88 0 -135 64t-47 190q0 96 20 181t59.5 149t99.5 101t140 37q50 0 86.5 -14.5t60.5 -39t37 -56.5t18 -68l-103 -26q-4 22 -10.5 42.5
t-19 36t-32 24.5t-48.5 9q-74 0 -115 -57.5t-57 -153.5l-17 -100q-3 -18 -5 -42t-2 -40q0 -67 25.5 -106.5t84.5 -39.5q32 0 57.5 11.5t44 31t30.5 45.5t17 55l9 51h-137l14 83h235l-59 -356h-99z" />
    <glyph glyph-name="Gcommaaccent" unicode="&#x122;" 
d="M219 -60h128l-110 -197h-72zM408 102h-7q-14 -23 -28.5 -44t-33.5 -36.5t-43 -24.5t-57 -9q-88 0 -135 64t-47 190q0 96 20 181t59.5 149t99.5 101t140 37q50 0 86.5 -14.5t60.5 -39t37 -56.5t18 -68l-103 -26q-4 22 -10.5 42.5t-19 36t-32 24.5t-48.5 9
q-74 0 -115 -57.5t-57 -153.5l-17 -100q-3 -18 -5 -42t-2 -40q0 -67 25.5 -106.5t84.5 -39.5q32 0 57.5 11.5t44 31t30.5 45.5t17 55l9 51h-137l14 83h235l-59 -356h-99z" />
    <glyph glyph-name="Gdotaccent" unicode="&#x120;" 
d="M382 770q-38 0 -53 14.5t-15 34.5q0 6 1 14t3 17q5 27 22.5 42.5t55.5 15.5t53 -14.5t15 -34.5q0 -6 -1 -14t-3 -17q-5 -27 -22.5 -42.5t-55.5 -15.5zM408 102h-7q-14 -23 -28.5 -44t-33.5 -36.5t-43 -24.5t-57 -9q-88 0 -135 64t-47 190q0 96 20 181t59.5 149t99.5 101
t140 37q50 0 86.5 -14.5t60.5 -39t37 -56.5t18 -68l-103 -26q-4 22 -10.5 42.5t-19 36t-32 24.5t-48.5 9q-74 0 -115 -57.5t-57 -153.5l-17 -100q-3 -18 -5 -42t-2 -40q0 -67 25.5 -106.5t84.5 -39.5q32 0 57.5 11.5t44 31t30.5 45.5t17 55l9 51h-137l14 83h235l-59 -356
h-99z" />
    <glyph glyph-name="Hbar" unicode="&#x126;" 
d="M426 308h-234l-51 -308h-110l85 513h-62l14 84h62l17 101h110l-17 -104h233l17 104h110l-17 -101h62l-14 -84h-62l-85 -513h-110zM441 400l19 116h-233l-19 -116h233z" />
    <glyph glyph-name="Hcircumflex" unicode="&#x124;" 
d="M426 308h-234l-51 -308h-110l116 698h110l-49 -298h233l49 298h110l-116 -698h-110zM466 943l96 -151l-59 -40l-100 116l-136 -116l-52 43l142 148h109z" />
    <glyph glyph-name="Iacute" unicode="&#xcd;" 
d="M38 0l14 84h164l89 530h-164l14 84h438l-14 -84h-164l-89 -530h164l-14 -84h-438zM392 749l-63 35l111 176l87 -47z" />
    <glyph glyph-name="Ibreve" unicode="&#x12c;" 
d="M38 0l14 84h164l89 530h-164l14 84h438l-14 -84h-164l-89 -530h164l-14 -84h-438zM389 755q-41 0 -68.5 15t-45.5 38t-28 51t-15 54l62 30l17 -35q17 -36 33 -55t49 -19q30 0 49.5 18t49.5 57l26 34l64 -30q-13 -27 -30 -55t-39.5 -51t-53 -37.5t-70.5 -14.5z" />
    <glyph glyph-name="Icircumflex" unicode="&#xce;" 
d="M38 0l14 84h164l89 530h-164l14 84h438l-14 -84h-164l-89 -530h164l-14 -84h-438zM466 943l96 -151l-59 -40l-100 116l-136 -116l-52 43l142 148h109z" />
    <glyph glyph-name="Idieresis" unicode="&#xcf;" 
d="M38 0l14 84h164l89 530h-164l14 84h438l-14 -84h-164l-89 -530h164l-14 -84h-438zM289 778q-34 0 -47.5 12.5t-13.5 30.5q0 5 0.5 10.5t2.5 14.5q4 23 19 39t53 16q34 0 47.5 -12.5t13.5 -30.5q0 -5 -0.5 -10.5t-2.5 -14.5q-4 -23 -19 -39t-53 -16zM489 778
q-34 0 -47.5 12.5t-13.5 30.5q0 5 0.5 10.5t2.5 14.5q4 23 19 39t53 16q34 0 47.5 -12.5t13.5 -30.5q0 -5 -0.5 -10.5t-2.5 -14.5q-4 -23 -19 -39t-53 -16z" />
    <glyph glyph-name="Idotaccent" unicode="&#x130;" 
d="M38 0l14 84h164l89 530h-164l14 84h438l-14 -84h-164l-89 -530h164l-14 -84h-438zM388 770q-38 0 -53 14.5t-15 34.5q0 6 1 14t3 17q5 27 22.5 42.5t55.5 15.5t53 -14.5t15 -34.5q0 -6 -1 -14t-3 -17q-5 -27 -22.5 -42.5t-55.5 -15.5z" />
    <glyph glyph-name="uni1ECA" unicode="&#x1eca;" 
d="M38 0l14 84h164l89 530h-164l14 84h438l-14 -84h-164l-89 -530h164l-14 -84h-438zM233 -184q-34 0 -47.5 12.5t-13.5 31.5q0 5 1 11.5t3 15.5q4 23 19 37.5t50 14.5q34 0 47.5 -12.5t13.5 -31.5q0 -5 -1 -11.5t-3 -15.5q-4 -23 -19 -37.5t-50 -14.5z" />
    <glyph glyph-name="Igrave" unicode="&#xcc;" 
d="M38 0l14 84h164l89 530h-164l14 84h438l-14 -84h-164l-89 -530h164l-14 -84h-438zM279 920l95 40l63 -183l-67 -28z" />
    <glyph glyph-name="uni1EC8" unicode="&#x1ec8;" 
d="M38 0l14 84h164l89 530h-164l14 84h438l-14 -84h-164l-89 -530h164l-14 -84h-438zM316 946h121q38 0 55.5 -15.5t17.5 -39.5q0 -26 -14 -49.5t-37 -49.5l-46 -52l-55 30l63 97h-118z" />
    <glyph glyph-name="Imacron" unicode="&#x12a;" 
d="M38 0l14 84h164l89 530h-164l14 84h438l-14 -84h-164l-89 -530h164l-14 -84h-438zM258 880h289l-14 -81h-289z" />
    <glyph glyph-name="Iogonek" unicode="&#x12e;" 
d="M52 84h164l89 530h-164l14 84h438l-14 -84h-164l-89 -530h164l-14 -84q-39 -25 -62.5 -43.5t-36 -32t-16 -23.5t-3.5 -18q0 -15 9.5 -23t26.5 -8q14 0 27.5 6.5t26.5 20.5l45 -44q-16 -18 -42.5 -31t-65.5 -13q-44 0 -76 19t-32 60q0 40 34 71t99 54l-1 5h-371z" />
    <glyph glyph-name="Itilde" unicode="&#x128;" 
d="M38 0l14 84h164l89 530h-164l14 84h438l-14 -84h-164l-89 -530h164l-14 -84h-438zM471 774q-24 0 -41 8t-34 17q-19 11 -35 17t-33 6q-16 0 -30.5 -7t-32.5 -21l-33 52q19 23 47 40t63 17q24 0 41 -8t34 -17q19 -11 35 -17t33 -6q16 0 30.5 7t32.5 21l33 -52
q-19 -23 -47 -40t-63 -17z" />
    <glyph glyph-name="IJ" unicode="&#x132;" 
d="M607 698l-85 -513q-17 -102 -80.5 -149.5t-159.5 -47.5q-94 0 -147 46.5t-59 130.5l104 21q2 -22 8 -41t18 -33.5t32 -22.5t50 -8q105 0 126 121l83 496h110zM171 698h110l-67 -400h-110z" />
    <glyph glyph-name="IJacute" 
d="M607 698l-85 -513q-17 -102 -80.5 -149.5t-159.5 -47.5q-94 0 -147 46.5t-59 130.5l104 21q2 -22 8 -41t18 -33.5t32 -22.5t50 -8q105 0 126 121l83 496h110zM171 698h110l-67 -400h-110zM247 749l-63 35l111 176l87 -47zM563 749l-63 35l111 176l87 -47z" />
    <glyph glyph-name="Jacute" 
d="M566 698l-86 -512q-17 -104 -78.5 -151t-155.5 -47q-91 0 -143 46.5t-57 130.5l104 21q2 -22 7.5 -41t17 -33.5t30 -22.5t47.5 -8q100 0 120 117l68 407h-245l16 93h355zM407 749l-63 35l111 176l87 -47z" />
    <glyph glyph-name="Jcircumflex" unicode="&#x134;" 
d="M566 698l-86 -512q-17 -104 -78.5 -151t-155.5 -47q-91 0 -143 46.5t-57 130.5l104 21q2 -22 7.5 -41t17 -33.5t30 -22.5t47.5 -8q100 0 120 117l68 407h-245l16 93h355zM481 943l96 -151l-59 -40l-100 116l-136 -116l-52 43l142 148h109z" />
    <glyph glyph-name="Kcommaaccent" unicode="&#x136;" 
d="M196 -60h128l-110 -197h-72zM288 319l-107 -111l-35 -208h-110l116 698h110l-56 -336h6l125 140l184 196h133l-282 -302l171 -396h-121z" />
    <glyph glyph-name="Lacute" unicode="&#x139;" 
d="M257 749l-63 35l111 176l87 -47zM67 0l116 698h110l-101 -605h319l-16 -93h-428z" />
    <glyph glyph-name="Lcaron" unicode="&#x13d;" 
d="M424 541h-74l38 199h125zM67 0l116 698h110l-101 -605h319l-16 -93h-428z" />
    <glyph glyph-name="Lcommaaccent" unicode="&#x13b;" 
d="M207 -60h128l-110 -197h-72zM67 0l116 698h110l-101 -605h319l-16 -93h-428z" />
    <glyph glyph-name="Ldot" unicode="&#x13f;" 
d="M67 0l116 698h110l-101 -605h319l-16 -93h-428zM444 260q-38 0 -53 14.5t-15 34.5q0 6 1 14t3 17q5 27 22.5 42.5t55.5 15.5t53 -14.5t15 -34.5q0 -6 -1 -14t-3 -17q-5 -27 -22.5 -42.5t-55.5 -15.5z" />
    <glyph glyph-name="Lslash" unicode="&#x141;" 
d="M499 0h-423l44 262l-82 -25l15 88l81 24l58 349h110l-53 -317l209 66l-15 -88l-209 -66l-33 -200h314z" />
    <glyph glyph-name="Nacute" unicode="&#x143;" 
d="M392 749l-63 35l111 176l87 -47zM228 546h-8l-91 -546h-98l116 698h144l112 -546h8l91 546h98l-116 -698h-144z" />
    <glyph glyph-name="Ncaron" unicode="&#x147;" 
d="M228 546h-8l-91 -546h-98l116 698h144l112 -546h8l91 546h98l-116 -698h-144zM330 761l-95 151l58 40l100 -116l136 116l52 -43l-142 -148h-109z" />
    <glyph glyph-name="Ncommaaccent" unicode="&#x145;" 
d="M182 -60h128l-110 -197h-72zM228 546h-8l-91 -546h-98l116 698h144l112 -546h8l91 546h98l-116 -698h-144z" />
    <glyph glyph-name="Ntilde" unicode="&#xd1;" 
d="M470 774q-24 0 -41 8t-34 17q-19 11 -35 17t-33 6q-16 0 -30.5 -7t-32.5 -21l-33 52q19 23 47 40t63 17q24 0 41 -8t34 -17q19 -11 35 -17t33 -6q16 0 30.5 7t32.5 21l33 -52q-19 -23 -47 -40t-63 -17zM228 546h-8l-91 -546h-98l116 698h144l112 -546h8l91 546h98
l-116 -698h-144z" />
    <glyph glyph-name="Eng" unicode="&#x14a;" 
d="M31 0l116 698h144l112 -546h8l91 546h98l-130 -779q-11 -63 -38 -97t-78 -34q-20 0 -35.5 6t-31 18t-32 30t-37.5 41l-34 38l68 57l96 -102l17 4l21 120h-46l-112 546h-8l-91 -546h-98z" />
    <glyph glyph-name="Oacute" unicode="&#xd3;" 
d="M382 749l-63 35l111 176l87 -47zM268 -12q-113 0 -165 65t-52 183q0 50 6.5 105t21 107.5t38.5 100t58.5 83.5t80.5 57t106 21q113 0 165 -65t52 -183q0 -51 -6.5 -105.5t-21 -107t-38.5 -100t-58.5 -83.5t-80.5 -57t-106 -21zM271 80q73 0 114 55.5t58 155.5l19 115
q4 23 5.5 42t1.5 37q0 63 -26 98t-84 35q-73 0 -114 -55.5t-58 -155.5l-19 -115q-4 -23 -5.5 -42t-1.5 -37q0 -63 26 -98t84 -35z" />
    <glyph glyph-name="Obreve" unicode="&#x14e;" 
d="M268 -12q-113 0 -165 65t-52 183q0 50 6.5 105t21 107.5t38.5 100t58.5 83.5t80.5 57t106 21q113 0 165 -65t52 -183q0 -51 -6.5 -105.5t-21 -107t-38.5 -100t-58.5 -83.5t-80.5 -57t-106 -21zM271 80q73 0 114 55.5t58 155.5l19 115q4 23 5.5 42t1.5 37q0 63 -26 98
t-84 35q-73 0 -114 -55.5t-58 -155.5l-19 -115q-4 -23 -5.5 -42t-1.5 -37q0 -63 26 -98t84 -35zM379 755q-41 0 -68.5 15t-45.5 38t-28 51t-15 54l62 30l17 -35q17 -36 33 -55t49 -19q30 0 49.5 18t49.5 57l26 34l64 -30q-13 -27 -30 -55t-39.5 -51t-53 -37.5t-70.5 -14.5z
" />
    <glyph glyph-name="Ocircumflex" unicode="&#xd4;" 
d="M456 943l96 -151l-59 -40l-100 116l-136 -116l-52 43l142 148h109zM268 -12q-113 0 -165 65t-52 183q0 50 6.5 105t21 107.5t38.5 100t58.5 83.5t80.5 57t106 21q113 0 165 -65t52 -183q0 -51 -6.5 -105.5t-21 -107t-38.5 -100t-58.5 -83.5t-80.5 -57t-106 -21zM271 80
q73 0 114 55.5t58 155.5l19 115q4 23 5.5 42t1.5 37q0 63 -26 98t-84 35q-73 0 -114 -55.5t-58 -155.5l-19 -115q-4 -23 -5.5 -42t-1.5 -37q0 -63 26 -98t84 -35z" />
    <glyph glyph-name="Odieresis" unicode="&#xd6;" 
d="M268 -12q-113 0 -165 65t-52 183q0 50 6.5 105t21 107.5t38.5 100t58.5 83.5t80.5 57t106 21q113 0 165 -65t52 -183q0 -51 -6.5 -105.5t-21 -107t-38.5 -100t-58.5 -83.5t-80.5 -57t-106 -21zM271 80q73 0 114 55.5t58 155.5l19 115q4 23 5.5 42t1.5 37q0 63 -26 98
t-84 35q-73 0 -114 -55.5t-58 -155.5l-19 -115q-4 -23 -5.5 -42t-1.5 -37q0 -63 26 -98t84 -35zM279 778q-34 0 -47.5 12.5t-13.5 30.5q0 5 0.5 10.5t2.5 14.5q4 23 19 39t53 16q34 0 47.5 -12.5t13.5 -30.5q0 -5 -0.5 -10.5t-2.5 -14.5q-4 -23 -19 -39t-53 -16zM479 778
q-34 0 -47.5 12.5t-13.5 30.5q0 5 0.5 10.5t2.5 14.5q4 23 19 39t53 16q34 0 47.5 -12.5t13.5 -30.5q0 -5 -0.5 -10.5t-2.5 -14.5q-4 -23 -19 -39t-53 -16z" />
    <glyph glyph-name="uni1ECC" unicode="&#x1ecc;" 
d="M268 -12q-113 0 -165 65t-52 183q0 50 6.5 105t21 107.5t38.5 100t58.5 83.5t80.5 57t106 21q113 0 165 -65t52 -183q0 -51 -6.5 -105.5t-21 -107t-38.5 -100t-58.5 -83.5t-80.5 -57t-106 -21zM271 80q73 0 114 55.5t58 155.5l19 115q4 23 5.5 42t1.5 37q0 63 -26 98
t-84 35q-73 0 -114 -55.5t-58 -155.5l-19 -115q-4 -23 -5.5 -42t-1.5 -37q0 -63 26 -98t84 -35zM237 -184q-34 0 -47.5 12.5t-13.5 31.5q0 5 1 11.5t3 15.5q4 23 19 37.5t50 14.5q34 0 47.5 -12.5t13.5 -31.5q0 -5 -1 -11.5t-3 -15.5q-4 -23 -19 -37.5t-50 -14.5z" />
    <glyph glyph-name="Ograve" unicode="&#xd2;" 
d="M269 920l95 40l63 -183l-67 -28zM268 -12q-113 0 -165 65t-52 183q0 50 6.5 105t21 107.5t38.5 100t58.5 83.5t80.5 57t106 21q113 0 165 -65t52 -183q0 -51 -6.5 -105.5t-21 -107t-38.5 -100t-58.5 -83.5t-80.5 -57t-106 -21zM271 80q73 0 114 55.5t58 155.5l19 115
q4 23 5.5 42t1.5 37q0 63 -26 98t-84 35q-73 0 -114 -55.5t-58 -155.5l-19 -115q-4 -23 -5.5 -42t-1.5 -37q0 -63 26 -98t84 -35z" />
    <glyph glyph-name="uni1ECE" unicode="&#x1ece;" 
d="M306 946h121q38 0 55.5 -15.5t17.5 -39.5q0 -26 -14 -49.5t-37 -49.5l-46 -52l-55 30l63 97h-118zM268 -12q-113 0 -165 65t-52 183q0 50 6.5 105t21 107.5t38.5 100t58.5 83.5t80.5 57t106 21q113 0 165 -65t52 -183q0 -51 -6.5 -105.5t-21 -107t-38.5 -100t-58.5 -83.5
t-80.5 -57t-106 -21zM271 80q73 0 114 55.5t58 155.5l19 115q4 23 5.5 42t1.5 37q0 63 -26 98t-84 35q-73 0 -114 -55.5t-58 -155.5l-19 -115q-4 -23 -5.5 -42t-1.5 -37q0 -63 26 -98t84 -35z" />
    <glyph glyph-name="Ohungarumlaut" unicode="&#x150;" 
d="M293 750l-59 31l108 177l83 -45zM470 750l-59 31l108 177l83 -45zM268 -12q-113 0 -165 65t-52 183q0 50 6.5 105t21 107.5t38.5 100t58.5 83.5t80.5 57t106 21q113 0 165 -65t52 -183q0 -51 -6.5 -105.5t-21 -107t-38.5 -100t-58.5 -83.5t-80.5 -57t-106 -21zM271 80
q73 0 114 55.5t58 155.5l19 115q4 23 5.5 42t1.5 37q0 63 -26 98t-84 35q-73 0 -114 -55.5t-58 -155.5l-19 -115q-4 -23 -5.5 -42t-1.5 -37q0 -63 26 -98t84 -35z" />
    <glyph glyph-name="Omacron" unicode="&#x14c;" 
d="M268 -12q-113 0 -165 65t-52 183q0 50 6.5 105t21 107.5t38.5 100t58.5 83.5t80.5 57t106 21q113 0 165 -65t52 -183q0 -51 -6.5 -105.5t-21 -107t-38.5 -100t-58.5 -83.5t-80.5 -57t-106 -21zM271 80q73 0 114 55.5t58 155.5l19 115q4 23 5.5 42t1.5 37q0 63 -26 98
t-84 35q-73 0 -114 -55.5t-58 -155.5l-19 -115q-4 -23 -5.5 -42t-1.5 -37q0 -63 26 -98t84 -35zM248 880h289l-14 -81h-289z" />
    <glyph glyph-name="Oslash" unicode="&#xd8;" 
d="M268 -12q-90 0 -143 44l-61 -81l-70 45l80 105q-12 27 -17.5 61t-5.5 74q0 50 6.5 105t21 107.5t38.5 100t58.5 83.5t80.5 57t106 21q90 0 143 -44l61 81l70 -45l-80 -105q12 -27 17.5 -61t5.5 -74q0 -51 -6.5 -105.5t-21 -107t-38.5 -100t-58.5 -83.5t-80.5 -57
t-106 -21zM167 296q-3 -18 -5 -35.5t-2 -31.5v-11t1 -10l284 374q-28 36 -86 36q-72 0 -114 -54.5t-59 -153.5zM271 80q72 0 114 54.5t59 153.5l19 114q3 18 5 35.5t2 31.5v11t-1 10l-284 -374q28 -36 86 -36z" />
    <glyph glyph-name="Oslashacute" unicode="&#x1fe;" 
d="M268 -12q-90 0 -143 44l-61 -81l-70 45l80 105q-12 27 -17.5 61t-5.5 74q0 50 6.5 105t21 107.5t38.5 100t58.5 83.5t80.5 57t106 21q90 0 143 -44l61 81l70 -45l-80 -105q12 -27 17.5 -61t5.5 -74q0 -51 -6.5 -105.5t-21 -107t-38.5 -100t-58.5 -83.5t-80.5 -57
t-106 -21zM167 296q-3 -18 -5 -35.5t-2 -31.5v-11t1 -10l284 374q-28 36 -86 36q-72 0 -114 -54.5t-59 -153.5zM271 80q72 0 114 54.5t59 153.5l19 114q3 18 5 35.5t2 31.5v11t-1 10l-284 -374q28 -36 86 -36zM381 749l-63 35l111 176l87 -47z" />
    <glyph glyph-name="Otilde" unicode="&#xd5;" 
d="M268 -12q-113 0 -165 65t-52 183q0 50 6.5 105t21 107.5t38.5 100t58.5 83.5t80.5 57t106 21q113 0 165 -65t52 -183q0 -51 -6.5 -105.5t-21 -107t-38.5 -100t-58.5 -83.5t-80.5 -57t-106 -21zM271 80q73 0 114 55.5t58 155.5l19 115q4 23 5.5 42t1.5 37q0 63 -26 98
t-84 35q-73 0 -114 -55.5t-58 -155.5l-19 -115q-4 -23 -5.5 -42t-1.5 -37q0 -63 26 -98t84 -35zM460 774q-24 0 -41 8t-34 17q-19 11 -35 17t-33 6q-16 0 -30.5 -7t-32.5 -21l-33 52q19 23 47 40t63 17q24 0 41 -8t34 -17q19 -11 35 -17t33 -6q16 0 30.5 7t32.5 21l33 -52
q-19 -23 -47 -40t-63 -17z" />
    <glyph glyph-name="Ohorn" unicode="&#x1a0;" 
d="M629 709q-6 -35 -24.5 -56.5t-62.5 -21.5h-9q25 -32 35.5 -74t10.5 -95q0 -51 -6.5 -105.5t-21 -107t-38.5 -100t-58.5 -83.5t-80.5 -57t-106 -21q-113 0 -165 65t-52 183q0 50 6.5 105t21 107.5t38.5 100t58.5 83.5t80.5 57t106 21q48 0 84 -12h90l19 113h91zM271 80
q73 0 114 55.5t58 155.5l19 115q4 23 5.5 42t1.5 37q0 63 -26 98t-84 35q-73 0 -114 -55.5t-58 -155.5l-19 -115q-4 -23 -5.5 -42t-1.5 -37q0 -63 26 -98t84 -35z" />
    <glyph glyph-name="uni1EDA" unicode="&#x1eda;" 
d="M382 749l-63 35l111 176l87 -47zM629 709q-6 -35 -24.5 -56.5t-62.5 -21.5h-9q25 -32 35.5 -74t10.5 -95q0 -51 -6.5 -105.5t-21 -107t-38.5 -100t-58.5 -83.5t-80.5 -57t-106 -21q-113 0 -165 65t-52 183q0 50 6.5 105t21 107.5t38.5 100t58.5 83.5t80.5 57t106 21
q48 0 84 -12h90l19 113h91zM271 80q73 0 114 55.5t58 155.5l19 115q4 23 5.5 42t1.5 37q0 63 -26 98t-84 35q-73 0 -114 -55.5t-58 -155.5l-19 -115q-4 -23 -5.5 -42t-1.5 -37q0 -63 26 -98t84 -35z" />
    <glyph glyph-name="uni1EE2" unicode="&#x1ee2;" 
d="M629 709q-6 -35 -24.5 -56.5t-62.5 -21.5h-9q25 -32 35.5 -74t10.5 -95q0 -51 -6.5 -105.5t-21 -107t-38.5 -100t-58.5 -83.5t-80.5 -57t-106 -21q-113 0 -165 65t-52 183q0 50 6.5 105t21 107.5t38.5 100t58.5 83.5t80.5 57t106 21q48 0 84 -12h90l19 113h91zM271 80
q73 0 114 55.5t58 155.5l19 115q4 23 5.5 42t1.5 37q0 63 -26 98t-84 35q-73 0 -114 -55.5t-58 -155.5l-19 -115q-4 -23 -5.5 -42t-1.5 -37q0 -63 26 -98t84 -35zM237 -184q-34 0 -47.5 12.5t-13.5 31.5q0 5 1 11.5t3 15.5q4 23 19 37.5t50 14.5q34 0 47.5 -12.5t13.5 -31.5
q0 -5 -1 -11.5t-3 -15.5q-4 -23 -19 -37.5t-50 -14.5z" />
    <glyph glyph-name="uni1EDC" unicode="&#x1edc;" 
d="M269 920l95 40l63 -183l-67 -28zM629 709q-6 -35 -24.5 -56.5t-62.5 -21.5h-9q25 -32 35.5 -74t10.5 -95q0 -51 -6.5 -105.5t-21 -107t-38.5 -100t-58.5 -83.5t-80.5 -57t-106 -21q-113 0 -165 65t-52 183q0 50 6.5 105t21 107.5t38.5 100t58.5 83.5t80.5 57t106 21
q48 0 84 -12h90l19 113h91zM271 80q73 0 114 55.5t58 155.5l19 115q4 23 5.5 42t1.5 37q0 63 -26 98t-84 35q-73 0 -114 -55.5t-58 -155.5l-19 -115q-4 -23 -5.5 -42t-1.5 -37q0 -63 26 -98t84 -35z" />
    <glyph glyph-name="uni1EDE" unicode="&#x1ede;" 
d="M629 709q-6 -35 -24.5 -56.5t-62.5 -21.5h-9q25 -32 35.5 -74t10.5 -95q0 -51 -6.5 -105.5t-21 -107t-38.5 -100t-58.5 -83.5t-80.5 -57t-106 -21q-113 0 -165 65t-52 183q0 50 6.5 105t21 107.5t38.5 100t58.5 83.5t80.5 57t106 21q48 0 84 -12h90l19 113h91zM271 80
q73 0 114 55.5t58 155.5l19 115q4 23 5.5 42t1.5 37q0 63 -26 98t-84 35q-73 0 -114 -55.5t-58 -155.5l-19 -115q-4 -23 -5.5 -42t-1.5 -37q0 -63 26 -98t84 -35zM306 946h121q38 0 55.5 -15.5t17.5 -39.5q0 -26 -14 -49.5t-37 -49.5l-46 -52l-55 30l63 97h-118z" />
    <glyph glyph-name="uni1EE0" unicode="&#x1ee0;" 
d="M436 776q-20 0 -34 7t-31 16t-30.5 14.5t-27.5 5.5q-27 0 -57 -24l-35 49q18 23 43.5 40t59.5 17q20 0 34 -7t31 -16t30.5 -14.5t27.5 -5.5q27 0 57 24l35 -49q-18 -23 -43.5 -40t-59.5 -17zM629 709q-6 -35 -24.5 -56.5t-62.5 -21.5h-9q25 -32 35.5 -74t10.5 -95
q0 -51 -6.5 -105.5t-21 -107t-38.5 -100t-58.5 -83.5t-80.5 -57t-106 -21q-113 0 -165 65t-52 183q0 50 6.5 105t21 107.5t38.5 100t58.5 83.5t80.5 57t106 21q48 0 84 -12h90l19 113h91zM271 80q73 0 114 55.5t58 155.5l19 115q4 23 5.5 42t1.5 37q0 63 -26 98t-84 35
q-73 0 -114 -55.5t-58 -155.5l-19 -115q-4 -23 -5.5 -42t-1.5 -37q0 -63 26 -98t84 -35z" />
    <glyph glyph-name="uni1ED0" unicode="&#x1ed0;" 
d="M553 886l-58 31l104 177l84 -45zM448 932l101 -147l-57 -42l-102 112l-137 -112l-49 46l148 143h96zM268 -12q-113 0 -165 65t-52 183q0 50 6.5 105t21 107.5t38.5 100t58.5 83.5t80.5 57t106 21q113 0 165 -65t52 -183q0 -51 -6.5 -105.5t-21 -107t-38.5 -100
t-58.5 -83.5t-80.5 -57t-106 -21zM271 80q73 0 114 55.5t58 155.5l19 115q4 23 5.5 42t1.5 37q0 63 -26 98t-84 35q-73 0 -114 -55.5t-58 -155.5l-19 -115q-4 -23 -5.5 -42t-1.5 -37q0 -63 26 -98t84 -35z" />
    <glyph glyph-name="uni1ED8" unicode="&#x1ed8;" 
d="M456 943l96 -151l-59 -40l-100 116l-136 -116l-52 43l142 148h109zM268 -12q-113 0 -165 65t-52 183q0 50 6.5 105t21 107.5t38.5 100t58.5 83.5t80.5 57t106 21q113 0 165 -65t52 -183q0 -51 -6.5 -105.5t-21 -107t-38.5 -100t-58.5 -83.5t-80.5 -57t-106 -21zM271 80
q73 0 114 55.5t58 155.5l19 115q4 23 5.5 42t1.5 37q0 63 -26 98t-84 35q-73 0 -114 -55.5t-58 -155.5l-19 -115q-4 -23 -5.5 -42t-1.5 -37q0 -63 26 -98t84 -35zM237 -184q-34 0 -47.5 12.5t-13.5 31.5q0 5 1 11.5t3 15.5q4 23 19 37.5t50 14.5q34 0 47.5 -12.5t13.5 -31.5
q0 -5 -1 -11.5t-3 -15.5q-4 -23 -19 -37.5t-50 -14.5z" />
    <glyph glyph-name="uni1ED2" unicode="&#x1ed2;" 
d="M141 1058l89 38l61 -182l-59 -26zM448 932l101 -147l-57 -42l-102 112l-137 -112l-49 46l148 143h96zM268 -12q-113 0 -165 65t-52 183q0 50 6.5 105t21 107.5t38.5 100t58.5 83.5t80.5 57t106 21q113 0 165 -65t52 -183q0 -51 -6.5 -105.5t-21 -107t-38.5 -100
t-58.5 -83.5t-80.5 -57t-106 -21zM271 80q73 0 114 55.5t58 155.5l19 115q4 23 5.5 42t1.5 37q0 63 -26 98t-84 35q-73 0 -114 -55.5t-58 -155.5l-19 -115q-4 -23 -5.5 -42t-1.5 -37q0 -63 26 -98t84 -35z" />
    <glyph glyph-name="uni1ED4" unicode="&#x1ed4;" 
d="M467 1085h117q38 0 55 -15.5t17 -38.5t-11.5 -44t-30.5 -44l-55 -64l-54 30l63 98h-114zM448 932l101 -147l-57 -42l-102 112l-137 -112l-49 46l148 143h96zM268 -12q-113 0 -165 65t-52 183q0 50 6.5 105t21 107.5t38.5 100t58.5 83.5t80.5 57t106 21q113 0 165 -65
t52 -183q0 -51 -6.5 -105.5t-21 -107t-38.5 -100t-58.5 -83.5t-80.5 -57t-106 -21zM271 80q73 0 114 55.5t58 155.5l19 115q4 23 5.5 42t1.5 37q0 63 -26 98t-84 35q-73 0 -114 -55.5t-58 -155.5l-19 -115q-4 -23 -5.5 -42t-1.5 -37q0 -63 26 -98t84 -35z" />
    <glyph glyph-name="uni1ED6" unicode="&#x1ed6;" 
d="M268 -12q-113 0 -165 65t-52 183q0 50 6.5 105t21 107.5t38.5 100t58.5 83.5t80.5 57t106 21q113 0 165 -65t52 -183q0 -51 -6.5 -105.5t-21 -107t-38.5 -100t-58.5 -83.5t-80.5 -57t-106 -21zM271 80q73 0 114 55.5t58 155.5l19 115q4 23 5.5 42t1.5 37q0 63 -26 98
t-84 35q-73 0 -114 -55.5t-58 -155.5l-19 -115q-4 -23 -5.5 -42t-1.5 -37q0 -63 26 -98t84 -35zM240 1023q19 23 47 40t63 17q24 0 41 -8t35 -17q19 -10 35 -16.5t33 -6.5t31.5 7t31.5 21l33 -51q-19 -23 -47 -40t-63 -17q-24 0 -41 8t-35 17q-19 10 -35 16.5t-33 6.5
t-31.5 -7t-31.5 -21zM448 921l102 -137l-57 -41l-104 105l-134 -105l-50 47l146 131h97z" />
    <glyph glyph-name="OE" unicode="&#x152;" 
d="M268 0q-111 0 -165.5 63.5t-54.5 178.5q0 107 22 191.5t63.5 143.5t102.5 90t139 31h284l-14 -86h-162l-36 -216h151l-14 -86h-151l-38 -224h162l-14 -86h-275zM380 612h-14q-77 0 -124 -49t-64 -153l-18 -109q-3 -17 -4.5 -37.5t-1.5 -36.5q0 -141 134 -141h4z" />
    <glyph glyph-name="Racute" unicode="&#x154;" 
d="M152 0h-109l116 698h251q90 0 134.5 -48t44.5 -125q0 -100 -50.5 -160.5t-141.5 -73.5l114 -291h-117l-102 283h-93zM347 372q105 0 120 90l6 36q1 5 2 15t1 19q0 74 -89 74h-133l-39 -234h132zM374 749l-63 35l111 176l87 -47z" />
    <glyph glyph-name="Rcaron" unicode="&#x158;" 
d="M152 0h-109l116 698h251q90 0 134.5 -48t44.5 -125q0 -100 -50.5 -160.5t-141.5 -73.5l114 -291h-117l-102 283h-93zM347 372q105 0 120 90l6 36q1 5 2 15t1 19q0 74 -89 74h-133l-39 -234h132zM312 761l-95 151l58 40l100 -116l136 116l52 -43l-142 -148h-109z" />
    <glyph glyph-name="Rcommaaccent" unicode="&#x156;" 
d="M196 -60h128l-110 -197h-72zM152 0h-109l116 698h251q90 0 134.5 -48t44.5 -125q0 -100 -50.5 -160.5t-141.5 -73.5l114 -291h-117l-102 283h-93zM347 372q105 0 120 90l6 36q1 5 2 15t1 19q0 74 -89 74h-133l-39 -234h132z" />
    <glyph glyph-name="Sacute" unicode="&#x15a;" 
d="M267 -12q-90 0 -153 31.5t-94 84.5l75 68q63 -92 178 -92q72 0 112 34.5t40 93.5q0 40 -22 62t-76 34l-72 17q-81 18 -117.5 62t-36.5 111q0 49 18.5 89t52.5 68.5t81.5 43.5t106.5 15q85 0 142 -30.5t86 -77.5l-76 -63q-26 39 -64.5 59.5t-92.5 20.5q-67 0 -104 -31
t-37 -84q0 -41 24.5 -61.5t76.5 -32.5l70 -17q82 -20 117.5 -63t35.5 -110q0 -51 -18.5 -94t-53.5 -73.5t-85.5 -47.5t-113.5 -17zM380 749l-63 35l111 176l87 -47z" />
    <glyph glyph-name="Scaron" unicode="&#x160;" 
d="M267 -12q-90 0 -153 31.5t-94 84.5l75 68q63 -92 178 -92q72 0 112 34.5t40 93.5q0 40 -22 62t-76 34l-72 17q-81 18 -117.5 62t-36.5 111q0 49 18.5 89t52.5 68.5t81.5 43.5t106.5 15q85 0 142 -30.5t86 -77.5l-76 -63q-26 39 -64.5 59.5t-92.5 20.5q-67 0 -104 -31
t-37 -84q0 -41 24.5 -61.5t76.5 -32.5l70 -17q82 -20 117.5 -63t35.5 -110q0 -51 -18.5 -94t-53.5 -73.5t-85.5 -47.5t-113.5 -17zM318 761l-95 151l58 40l100 -116l136 116l52 -43l-142 -148h-109z" />
    <glyph glyph-name="Scedilla" unicode="&#x15e;" 
d="M253 -209q-41 0 -67 13t-37 30l44 45q8 -10 22 -18.5t36 -8.5t36 8t14 24q0 11 -12 22t-51 16l-26 3l23 64q-78 6 -132.5 36.5t-82.5 78.5l75 68q63 -92 178 -92q72 0 112 34.5t40 93.5q0 40 -22 62t-76 34l-72 17q-81 18 -117.5 62t-36.5 111q0 49 18.5 89t52.5 68.5
t81.5 43.5t106.5 15q85 0 142 -30.5t86 -77.5l-76 -63q-26 39 -64.5 59.5t-92.5 20.5q-67 0 -104 -31t-37 -84q0 -41 24.5 -61.5t76.5 -32.5l70 -17q82 -20 117.5 -63t35.5 -110q0 -49 -17 -90t-48.5 -71t-77 -48.5t-102.5 -21.5l-17 -47l2 -4q11 3 21.5 4t18.5 1
q28 0 45 -14.5t17 -43.5q0 -24 -10 -42t-27.5 -29.5t-40.5 -17t-49 -5.5z" />
    <glyph glyph-name="Scircumflex" unicode="&#x15c;" 
d="M267 -12q-90 0 -153 31.5t-94 84.5l75 68q63 -92 178 -92q72 0 112 34.5t40 93.5q0 40 -22 62t-76 34l-72 17q-81 18 -117.5 62t-36.5 111q0 49 18.5 89t52.5 68.5t81.5 43.5t106.5 15q85 0 142 -30.5t86 -77.5l-76 -63q-26 39 -64.5 59.5t-92.5 20.5q-67 0 -104 -31
t-37 -84q0 -41 24.5 -61.5t76.5 -32.5l70 -17q82 -20 117.5 -63t35.5 -110q0 -51 -18.5 -94t-53.5 -73.5t-85.5 -47.5t-113.5 -17zM454 943l96 -151l-59 -40l-100 116l-136 -116l-52 43l142 148h109z" />
    <glyph glyph-name="Scommaaccent" unicode="&#x218;" 
d="M196 -60h128l-110 -197h-72zM267 -12q-90 0 -153 31.5t-94 84.5l75 68q63 -92 178 -92q72 0 112 34.5t40 93.5q0 40 -22 62t-76 34l-72 17q-81 18 -117.5 62t-36.5 111q0 49 18.5 89t52.5 68.5t81.5 43.5t106.5 15q85 0 142 -30.5t86 -77.5l-76 -63q-26 39 -64.5 59.5
t-92.5 20.5q-67 0 -104 -31t-37 -84q0 -41 24.5 -61.5t76.5 -32.5l70 -17q82 -20 117.5 -63t35.5 -110q0 -51 -18.5 -94t-53.5 -73.5t-85.5 -47.5t-113.5 -17z" />
    <glyph glyph-name="uni1E9E" unicode="&#x1e9e;" 
d="M124 698h488l-17 -102l-184 -189v-5q34 -1 63.5 -11t51.5 -30t35 -51t13 -73q0 -45 -14.5 -89.5t-44 -80t-74.5 -57.5t-106 -22q-53 0 -99 20t-72 58l74 64q33 -52 98 -52q51 0 81 30t38 77q5 26 6 37.5t1 19.5q0 35 -21 56t-66 21h-90l16 94l189 196h-272l-102 -609
h-109z" />
    <glyph glyph-name="Tbar" unicode="&#x166;" 
d="M365 315l-53 -315h-110l53 315h-159l14 83h159l34 207h-220l16 93h549l-15 -93h-220l-35 -207h159l-14 -83h-158z" />
    <glyph glyph-name="Tcaron" unicode="&#x164;" 
d="M413 605l-101 -605h-110l101 605h-220l16 93h550l-16 -93h-220zM328 761l-95 151l58 40l100 -116l136 116l52 -43l-142 -148h-109z" />
    <glyph glyph-name="Tcommaaccent" unicode="&#x162;" 
d="M185 -60h128l-110 -197h-72zM413 605l-101 -605h-110l101 605h-220l16 93h550l-16 -93h-220z" />
    <glyph glyph-name="uni021A" unicode="&#x21a;" 
d="M185 -60h128l-110 -197h-72zM413 605l-101 -605h-110l101 605h-220l16 93h550l-16 -93h-220z" />
    <glyph glyph-name="Thorn" unicode="&#xde;" 
d="M42 0l117 698h109l-22 -134h140q45 0 78.5 -12.5t56 -35.5t33.5 -55t11 -70q0 -115 -62.5 -180t-174.5 -65h-152l-25 -146h-109zM192 238h131q105 0 120 90l6 36q1 5 2 15t1 19q0 74 -91 74h-130z" />
    <glyph glyph-name="Uacute" unicode="&#xda;" 
d="M253 698l-69 -413q-7 -41 -10 -66t-3 -41q0 -23 4.5 -41t16 -31t31 -19.5t48.5 -6.5q43 0 69 12.5t41.5 36t23.5 57.5t15 76l73 436h110l-69 -414q-12 -74 -28 -129.5t-44.5 -92.5t-74.5 -55.5t-118 -18.5q-57 0 -96.5 12.5t-64 36t-35 57t-10.5 76.5q0 29 4.5 66
t10.5 73l65 389h110zM388 749l-63 35l111 176l87 -47z" />
    <glyph glyph-name="Ubreve" unicode="&#x16c;" 
d="M253 698l-69 -413q-7 -41 -10 -66t-3 -41q0 -23 4.5 -41t16 -31t31 -19.5t48.5 -6.5q43 0 69 12.5t41.5 36t23.5 57.5t15 76l73 436h110l-69 -414q-12 -74 -28 -129.5t-44.5 -92.5t-74.5 -55.5t-118 -18.5q-57 0 -96.5 12.5t-64 36t-35 57t-10.5 76.5q0 29 4.5 66
t10.5 73l65 389h110zM385 755q-41 0 -68.5 15t-45.5 38t-28 51t-15 54l62 30l17 -35q17 -36 33 -55t49 -19q30 0 49.5 18t49.5 57l26 34l64 -30q-13 -27 -30 -55t-39.5 -51t-53 -37.5t-70.5 -14.5z" />
    <glyph glyph-name="Ucircumflex" unicode="&#xdb;" 
d="M462 943l96 -151l-59 -40l-100 116l-136 -116l-52 43l142 148h109zM253 698l-69 -413q-7 -41 -10 -66t-3 -41q0 -23 4.5 -41t16 -31t31 -19.5t48.5 -6.5q43 0 69 12.5t41.5 36t23.5 57.5t15 76l73 436h110l-69 -414q-12 -74 -28 -129.5t-44.5 -92.5t-74.5 -55.5
t-118 -18.5q-57 0 -96.5 12.5t-64 36t-35 57t-10.5 76.5q0 29 4.5 66t10.5 73l65 389h110z" />
    <glyph glyph-name="Udieresis" unicode="&#xdc;" 
d="M253 698l-69 -413q-7 -41 -10 -66t-3 -41q0 -23 4.5 -41t16 -31t31 -19.5t48.5 -6.5q43 0 69 12.5t41.5 36t23.5 57.5t15 76l73 436h110l-69 -414q-12 -74 -28 -129.5t-44.5 -92.5t-74.5 -55.5t-118 -18.5q-57 0 -96.5 12.5t-64 36t-35 57t-10.5 76.5q0 29 4.5 66
t10.5 73l65 389h110zM285 778q-34 0 -47.5 12.5t-13.5 30.5q0 5 0.5 10.5t2.5 14.5q4 23 19 39t53 16q34 0 47.5 -12.5t13.5 -30.5q0 -5 -0.5 -10.5t-2.5 -14.5q-4 -23 -19 -39t-53 -16zM485 778q-34 0 -47.5 12.5t-13.5 30.5q0 5 0.5 10.5t2.5 14.5q4 23 19 39t53 16
q34 0 47.5 -12.5t13.5 -30.5q0 -5 -0.5 -10.5t-2.5 -14.5q-4 -23 -19 -39t-53 -16z" />
    <glyph glyph-name="uni1EE4" unicode="&#x1ee4;" 
d="M253 698l-69 -413q-7 -41 -10 -66t-3 -41q0 -23 4.5 -41t16 -31t31 -19.5t48.5 -6.5q43 0 69 12.5t41.5 36t23.5 57.5t15 76l73 436h110l-69 -414q-12 -74 -28 -129.5t-44.5 -92.5t-74.5 -55.5t-118 -18.5q-57 0 -96.5 12.5t-64 36t-35 57t-10.5 76.5q0 29 4.5 66
t10.5 73l65 389h110zM234 -184q-34 0 -47.5 12.5t-13.5 31.5q0 5 1 11.5t3 15.5q4 23 19 37.5t50 14.5q34 0 47.5 -12.5t13.5 -31.5q0 -5 -1 -11.5t-3 -15.5q-4 -23 -19 -37.5t-50 -14.5z" />
    <glyph glyph-name="Ugrave" unicode="&#xd9;" 
d="M275 920l95 40l63 -183l-67 -28zM253 698l-69 -413q-7 -41 -10 -66t-3 -41q0 -23 4.5 -41t16 -31t31 -19.5t48.5 -6.5q43 0 69 12.5t41.5 36t23.5 57.5t15 76l73 436h110l-69 -414q-12 -74 -28 -129.5t-44.5 -92.5t-74.5 -55.5t-118 -18.5q-57 0 -96.5 12.5t-64 36
t-35 57t-10.5 76.5q0 29 4.5 66t10.5 73l65 389h110z" />
    <glyph glyph-name="uni1EE6" unicode="&#x1ee6;" 
d="M253 698l-69 -413q-7 -41 -10 -66t-3 -41q0 -23 4.5 -41t16 -31t31 -19.5t48.5 -6.5q43 0 69 12.5t41.5 36t23.5 57.5t15 76l73 436h110l-69 -414q-12 -74 -28 -129.5t-44.5 -92.5t-74.5 -55.5t-118 -18.5q-57 0 -96.5 12.5t-64 36t-35 57t-10.5 76.5q0 29 4.5 66
t10.5 73l65 389h110zM312 946h121q38 0 55.5 -15.5t17.5 -39.5q0 -26 -14 -49.5t-37 -49.5l-46 -52l-55 30l63 97h-118z" />
    <glyph glyph-name="Uhungarumlaut" unicode="&#x170;" 
d="M299 750l-59 31l108 177l83 -45zM476 750l-59 31l108 177l83 -45zM253 698l-69 -413q-7 -41 -10 -66t-3 -41q0 -23 4.5 -41t16 -31t31 -19.5t48.5 -6.5q43 0 69 12.5t41.5 36t23.5 57.5t15 76l73 436h110l-69 -414q-12 -74 -28 -129.5t-44.5 -92.5t-74.5 -55.5
t-118 -18.5q-57 0 -96.5 12.5t-64 36t-35 57t-10.5 76.5q0 29 4.5 66t10.5 73l65 389h110z" />
    <glyph glyph-name="Umacron" unicode="&#x16a;" 
d="M253 698l-69 -413q-7 -41 -10 -66t-3 -41q0 -23 4.5 -41t16 -31t31 -19.5t48.5 -6.5q43 0 69 12.5t41.5 36t23.5 57.5t15 76l73 436h110l-69 -414q-12 -74 -28 -129.5t-44.5 -92.5t-74.5 -55.5t-118 -18.5q-57 0 -96.5 12.5t-64 36t-35 57t-10.5 76.5q0 29 4.5 66
t10.5 73l65 389h110zM254 880h289l-14 -81h-289z" />
    <glyph glyph-name="Uogonek" unicode="&#x172;" 
d="M253 698l-69 -413q-7 -41 -10 -66t-3 -41q0 -23 4.5 -41t16 -31t31 -19.5t48.5 -6.5q43 0 69 12.5t41.5 36t23.5 57.5t15 76l73 436h110l-69 -414q-9 -54 -19.5 -97t-26.5 -76.5t-40 -59t-60 -44.5t-58 -37.5t-35 -34.5t-17.5 -29.5t-4.5 -22.5q0 -15 9.5 -23t26.5 -8
q14 0 27.5 6.5t26.5 20.5l45 -44q-16 -18 -42.5 -31t-65.5 -13q-44 0 -76 19t-32 60q0 35 27 64t77 50l-1 5q-8 -1 -13.5 -1h-12.5q-57 0 -96.5 12.5t-64 36t-35 57t-10.5 76.5q0 29 4.5 66t10.5 73l65 389h110z" />
    <glyph glyph-name="Uring" unicode="&#x16e;" 
d="M378 736q-49 0 -81 31t-32 79q0 30 11.5 56t31.5 44.5t46.5 29.5t56.5 11q49 0 81 -31t32 -79q0 -30 -11.5 -56t-31.5 -44.5t-46.5 -29.5t-56.5 -11zM384 795q26 0 42 13.5t21 40.5q2 14 3.5 22.5t1.5 14.5q0 20 -12 31t-35 11q-26 0 -42 -13.5t-21 -40.5
q-2 -14 -3.5 -22.5t-1.5 -14.5q0 -20 12 -31t35 -11zM253 698l-69 -413q-7 -41 -10 -66t-3 -41q0 -23 4.5 -41t16 -31t31 -19.5t48.5 -6.5q43 0 69 12.5t41.5 36t23.5 57.5t15 76l73 436h110l-69 -414q-12 -74 -28 -129.5t-44.5 -92.5t-74.5 -55.5t-118 -18.5
q-57 0 -96.5 12.5t-64 36t-35 57t-10.5 76.5q0 29 4.5 66t10.5 73l65 389h110z" />
    <glyph glyph-name="Utilde" unicode="&#x168;" 
d="M253 698l-69 -413q-7 -41 -10 -66t-3 -41q0 -23 4.5 -41t16 -31t31 -19.5t48.5 -6.5q43 0 69 12.5t41.5 36t23.5 57.5t15 76l73 436h110l-69 -414q-12 -74 -28 -129.5t-44.5 -92.5t-74.5 -55.5t-118 -18.5q-57 0 -96.5 12.5t-64 36t-35 57t-10.5 76.5q0 29 4.5 66
t10.5 73l65 389h110zM466 774q-24 0 -41 8t-34 17q-19 11 -35 17t-33 6q-16 0 -30.5 -7t-32.5 -21l-33 52q19 23 47 40t63 17q24 0 41 -8t34 -17q19 -11 35 -17t33 -6q16 0 30.5 7t32.5 21l33 -52q-19 -23 -47 -40t-63 -17z" />
    <glyph glyph-name="Uhorn" unicode="&#x1af;" 
d="M253 698l-69 -413q-7 -41 -10 -66t-3 -41q0 -23 4.5 -41t16 -31t31 -19.5t48.5 -6.5q43 0 69 12.5t41.5 36t23.5 57.5t15 76l73 436h86l19 113h91l-17 -102q-6 -34 -22.5 -55t-57.5 -23l-58 -347q-12 -74 -28 -129.5t-44.5 -92.5t-74.5 -55.5t-118 -18.5
q-57 0 -96.5 12.5t-64 36t-35 57t-10.5 76.5q0 29 4.5 66t10.5 73l65 389h110z" />
    <glyph glyph-name="uni1EE8" unicode="&#x1ee8;" 
d="M388 749l-63 35l111 176l87 -47zM253 698l-69 -413q-7 -41 -10 -66t-3 -41q0 -23 4.5 -41t16 -31t31 -19.5t48.5 -6.5q43 0 69 12.5t41.5 36t23.5 57.5t15 76l73 436h86l19 113h91l-17 -102q-6 -34 -22.5 -55t-57.5 -23l-58 -347q-12 -74 -28 -129.5t-44.5 -92.5
t-74.5 -55.5t-118 -18.5q-57 0 -96.5 12.5t-64 36t-35 57t-10.5 76.5q0 29 4.5 66t10.5 73l65 389h110z" />
    <glyph glyph-name="uni1EF0" unicode="&#x1ef0;" 
d="M253 698l-69 -413q-7 -41 -10 -66t-3 -41q0 -23 4.5 -41t16 -31t31 -19.5t48.5 -6.5q43 0 69 12.5t41.5 36t23.5 57.5t15 76l73 436h86l19 113h91l-17 -102q-6 -34 -22.5 -55t-57.5 -23l-58 -347q-12 -74 -28 -129.5t-44.5 -92.5t-74.5 -55.5t-118 -18.5
q-57 0 -96.5 12.5t-64 36t-35 57t-10.5 76.5q0 29 4.5 66t10.5 73l65 389h110zM234 -184q-34 0 -47.5 12.5t-13.5 31.5q0 5 1 11.5t3 15.5q4 23 19 37.5t50 14.5q34 0 47.5 -12.5t13.5 -31.5q0 -5 -1 -11.5t-3 -15.5q-4 -23 -19 -37.5t-50 -14.5z" />
    <glyph glyph-name="uni1EEA" unicode="&#x1eea;" 
d="M275 920l95 40l63 -183l-67 -28zM253 698l-69 -413q-7 -41 -10 -66t-3 -41q0 -23 4.5 -41t16 -31t31 -19.5t48.5 -6.5q43 0 69 12.5t41.5 36t23.5 57.5t15 76l73 436h86l19 113h91l-17 -102q-6 -34 -22.5 -55t-57.5 -23l-58 -347q-12 -74 -28 -129.5t-44.5 -92.5
t-74.5 -55.5t-118 -18.5q-57 0 -96.5 12.5t-64 36t-35 57t-10.5 76.5q0 29 4.5 66t10.5 73l65 389h110z" />
    <glyph glyph-name="uni1EEC" unicode="&#x1eec;" 
d="M312 946h121q38 0 55.5 -15.5t17.5 -39.5q0 -26 -14 -49.5t-37 -49.5l-46 -52l-55 30l63 97h-118zM253 698l-69 -413q-7 -41 -10 -66t-3 -41q0 -23 4.5 -41t16 -31t31 -19.5t48.5 -6.5q43 0 69 12.5t41.5 36t23.5 57.5t15 76l73 436h86l19 113h91l-17 -102
q-6 -34 -22.5 -55t-57.5 -23l-58 -347q-12 -74 -28 -129.5t-44.5 -92.5t-74.5 -55.5t-118 -18.5q-57 0 -96.5 12.5t-64 36t-35 57t-10.5 76.5q0 29 4.5 66t10.5 73l65 389h110z" />
    <glyph glyph-name="uni1EEE" unicode="&#x1eee;" 
d="M437 776q-20 0 -34 7t-31 16t-30.5 14.5t-27.5 5.5q-27 0 -57 -24l-35 49q18 23 43.5 40t59.5 17q20 0 34 -7t31 -16t30.5 -14.5t27.5 -5.5q27 0 57 24l35 -49q-18 -23 -43.5 -40t-59.5 -17zM253 698l-69 -413q-7 -41 -10 -66t-3 -41q0 -23 4.5 -41t16 -31t31 -19.5
t48.5 -6.5q43 0 69 12.5t41.5 36t23.5 57.5t15 76l73 436h86l19 113h91l-17 -102q-6 -34 -22.5 -55t-57.5 -23l-58 -347q-12 -74 -28 -129.5t-44.5 -92.5t-74.5 -55.5t-118 -18.5q-57 0 -96.5 12.5t-64 36t-35 57t-10.5 76.5q0 29 4.5 66t10.5 73l65 389h110z" />
    <glyph glyph-name="Wacute" unicode="&#x1e82;" 
d="M387 749l-63 35l111 176l87 -47zM31 0l66 698h96l-42 -403l-19 -190h9l147 424h112l9 -424h9l41 183l94 410h94l-166 -698h-150l-2 406h-9l-139 -406h-150z" />
    <glyph glyph-name="Wcircumflex" unicode="&#x174;" 
d="M461 943l96 -151l-59 -40l-100 116l-136 -116l-52 43l142 148h109zM31 0l66 698h96l-42 -403l-19 -190h9l147 424h112l9 -424h9l41 183l94 410h94l-166 -698h-150l-2 406h-9l-139 -406h-150z" />
    <glyph glyph-name="Wdieresis" unicode="&#x1e84;" 
d="M31 0l66 698h96l-42 -403l-19 -190h9l147 424h112l9 -424h9l41 183l94 410h94l-166 -698h-150l-2 406h-9l-139 -406h-150zM284 778q-34 0 -47.5 12.5t-13.5 30.5q0 5 0.5 10.5t2.5 14.5q4 23 19 39t53 16q34 0 47.5 -12.5t13.5 -30.5q0 -5 -0.5 -10.5t-2.5 -14.5
q-4 -23 -19 -39t-53 -16zM484 778q-34 0 -47.5 12.5t-13.5 30.5q0 5 0.5 10.5t2.5 14.5q4 23 19 39t53 16q34 0 47.5 -12.5t13.5 -30.5q0 -5 -0.5 -10.5t-2.5 -14.5q-4 -23 -19 -39t-53 -16z" />
    <glyph glyph-name="Wgrave" unicode="&#x1e80;" 
d="M274 920l95 40l63 -183l-67 -28zM31 0l66 698h96l-42 -403l-19 -190h9l147 424h112l9 -424h9l41 183l94 410h94l-166 -698h-150l-2 406h-9l-139 -406h-150z" />
    <glyph glyph-name="Yacute" unicode="&#xdd;" 
d="M203 0l43 261l-161 437h117l62 -175l47 -151h6l100 151l118 175h126l-304 -432l-44 -266h-110zM385 749l-63 35l111 176l87 -47z" />
    <glyph glyph-name="Ycircumflex" unicode="&#x176;" 
d="M203 0l43 261l-161 437h117l62 -175l47 -151h6l100 151l118 175h126l-304 -432l-44 -266h-110zM459 943l96 -151l-59 -40l-100 116l-136 -116l-52 43l142 148h109z" />
    <glyph glyph-name="uni1EF4" unicode="&#x1ef4;" 
d="M203 0l43 261l-161 437h117l62 -175l47 -151h6l100 151l118 175h126l-304 -432l-44 -266h-110zM232 -184q-34 0 -47.5 12.5t-13.5 31.5q0 5 1 11.5t3 15.5q4 23 19 37.5t50 14.5q34 0 47.5 -12.5t13.5 -31.5q0 -5 -1 -11.5t-3 -15.5q-4 -23 -19 -37.5t-50 -14.5z" />
    <glyph glyph-name="Ydieresis" unicode="&#x178;" 
d="M203 0l43 261l-161 437h117l62 -175l47 -151h6l100 151l118 175h126l-304 -432l-44 -266h-110zM282 778q-34 0 -47.5 12.5t-13.5 30.5q0 5 0.5 10.5t2.5 14.5q4 23 19 39t53 16q34 0 47.5 -12.5t13.5 -30.5q0 -5 -0.5 -10.5t-2.5 -14.5q-4 -23 -19 -39t-53 -16zM482 778
q-34 0 -47.5 12.5t-13.5 30.5q0 5 0.5 10.5t2.5 14.5q4 23 19 39t53 16q34 0 47.5 -12.5t13.5 -30.5q0 -5 -0.5 -10.5t-2.5 -14.5q-4 -23 -19 -39t-53 -16z" />
    <glyph glyph-name="Ygrave" unicode="&#x1ef2;" 
d="M203 0l43 261l-161 437h117l62 -175l47 -151h6l100 151l118 175h126l-304 -432l-44 -266h-110zM272 920l95 40l63 -183l-67 -28z" />
    <glyph glyph-name="uni1EF6" unicode="&#x1ef6;" 
d="M203 0l43 261l-161 437h117l62 -175l47 -151h6l100 151l118 175h126l-304 -432l-44 -266h-110zM309 946h121q38 0 55.5 -15.5t17.5 -39.5q0 -26 -14 -49.5t-37 -49.5l-46 -52l-55 30l63 97h-118z" />
    <glyph glyph-name="uni1EF8" unicode="&#x1ef8;" 
d="M203 0l43 261l-161 437h117l62 -175l47 -151h6l100 151l118 175h126l-304 -432l-44 -266h-110zM454 774q-24 0 -41 8t-34 17q-19 11 -35 17t-33 6q-16 0 -30.5 -7t-32.5 -21l-33 52q19 23 47 40t63 17q24 0 41 -8t34 -17q19 -11 35 -17t33 -6q16 0 30.5 7t32.5 21l33 -52
q-19 -23 -47 -40t-63 -17z" />
    <glyph glyph-name="Zacute" unicode="&#x179;" 
d="M507 0h-501l16 98l445 507h-345l16 93h472l-16 -98l-444 -507h373zM384 749l-63 35l111 176l87 -47z" />
    <glyph glyph-name="Zcaron" unicode="&#x17d;" 
d="M507 0h-501l16 98l445 507h-345l16 93h472l-16 -98l-444 -507h373zM322 761l-95 151l58 40l100 -116l136 116l52 -43l-142 -148h-109z" />
    <glyph glyph-name="Zdotaccent" unicode="&#x17b;" 
d="M380 770q-38 0 -53 14.5t-15 34.5q0 6 1 14t3 17q5 27 22.5 42.5t55.5 15.5t53 -14.5t15 -34.5q0 -6 -1 -14t-3 -17q-5 -27 -22.5 -42.5t-55.5 -15.5zM507 0h-501l16 98l445 507h-345l16 93h472l-16 -98l-444 -507h373z" />
    <glyph glyph-name="mu" unicode="&#xb5;" 
d="M9 -200l119 716h107l-50 -300q-2 -14 -4 -29.5t-2 -28.5q0 -35 17.5 -59t57.5 -24q30 0 53.5 14t43.5 38q10 12 28.5 42t25.5 71l46 276h107l-86 -516h-107l21 122h-5q-11 -26 -25.5 -50t-33 -43t-42.5 -30t-54 -11q-29 0 -50.5 13.5t-30.5 43.5h-4l-4 -113l-21 -132
h-107z" />
    <glyph glyph-name="Delta" unicode="&#x2206;" 
d="M16 96l282 602h151l80 -602l-16 -96h-513zM360 589h-9l-221 -496h286z" />
    <glyph glyph-name="product" unicode="&#x220f;" 
d="M146 698h456l-117 -698h-109l101 605h-237l-101 -605h-110z" />
    <glyph glyph-name="summation" unicode="&#x2211;" 
d="M456 -200h-470l16 97l309 361v5l-191 338l16 97h470l-16 -93h-356l182 -322l-12 -70l-280 -320h347z" />
    <glyph glyph-name="Omega" unicode="&#x2126;" 
d="M17 83h148l2 10q-43 26 -70.5 77t-27.5 146q0 79 17.5 150.5t53.5 125.5t91.5 86t131.5 32q106 0 158.5 -65t52.5 -186q0 -63 -11.5 -120t-35.5 -104.5t-60 -84t-84 -57.5l-2 -10h147l-14 -83h-223l22 132q48 16 80.5 62.5t43.5 110.5l17 103q4 23 5.5 42.5t1.5 34.5
q0 61 -26.5 96.5t-83.5 35.5q-62 0 -98 -42t-50 -123l-18 -106q-6 -36 -6 -65q0 -51 12.5 -90.5t52.5 -58.5l-22 -132h-219z" />
    <glyph glyph-name="pi" unicode="&#x3c0;" 
d="M126 429h-84l14 87h548l-14 -87h-96l-59 -351l20 -6l82 60l45 -50l-19 -18q-23 -22 -42 -36.5t-35.5 -23.5t-32 -12.5t-32.5 -3.5q-45 0 -66 23.5t-21 62.5q0 15 2.5 34t7.5 51l45 270h-158l-72 -429h-105z" />
    <glyph glyph-name="uni0430" unicode="&#x430;" 
d="M367 0l20 122h-4q-29 -60 -70 -97t-108 -37q-80 0 -118.5 52t-38.5 148q0 62 14.5 123t44.5 109t75.5 78t107.5 30q59 0 94 -27t49 -78h5l15 93h107l-86 -516h-107zM248 75q59 0 106 54q17 19 32 47t21 64l17 103q8 45 -19.5 71.5t-81.5 26.5q-67 0 -103.5 -40.5
t-47.5 -103.5l-12 -71q-2 -9 -3 -20.5t-1 -22.5q0 -49 22 -78.5t70 -29.5z" />
    <glyph glyph-name="uni0430.alt01" 
d="M211 -12q-75 0 -117.5 35t-42.5 96q0 86 61 132.5t189 46.5h107l5 30q3 18 3 29q0 42 -26 64.5t-77 22.5t-83.5 -19t-59.5 -52l-60 57q14 19 34.5 36.5t47 31t59 22t70.5 8.5q93 0 147 -43t54 -115q0 -14 -2 -29t-4 -29l-52 -312h-102l15 91h-5q-22 -47 -63 -75t-98 -28z
M244 67q28 0 52 7.5t43 19.5t31 28.5t15 34.5l12 72h-103q-124 0 -133 -74q-2 -13 -2 -18.5v-12.5q0 -28 22.5 -42.5t62.5 -14.5z" />
    <glyph glyph-name="uni0431" unicode="&#x431;" 
d="M270 -12q-50 0 -88.5 16t-64.5 44.5t-39.5 68t-13.5 86.5q0 54 10.5 119.5t30 129t47 119t61.5 89.5q40 40 93 61t134 24l145 5l-19 -100l-143 -5q-48 -2 -80.5 -14.5t-56.5 -38.5q-49 -53 -84 -184h6q31 51 69 76.5t94 25.5q38 0 69.5 -13t54.5 -38.5t36 -63.5t13 -87
q0 -74 -21 -133t-57.5 -100.5t-87 -64t-108.5 -22.5zM277 74q59 0 96.5 37.5t49.5 104.5l10 57q2 10 3 21.5t1 21.5q0 55 -29.5 82t-77.5 27q-66 0 -100.5 -34t-45.5 -97l-8 -47q-2 -15 -4 -32.5t-2 -29.5q0 -57 28.5 -84t78.5 -27z" />
    <glyph glyph-name="uni0432" unicode="&#x432;" 
d="M281 -12q-103 0 -157.5 54.5t-54.5 151.5q0 19 2 40.5t7 52.5q9 53 32 97.5t58 76.5t81.5 49.5t102.5 17.5q81 0 128 -35.5t47 -92.5q0 -49 -32.5 -79.5t-87.5 -41.5v-5q48 -8 74 -35t26 -72q0 -39 -17 -71.5t-47 -56.5t-71.5 -37.5t-90.5 -13.5zM287 70q45 0 74 20.5
t36 58.5q1 5 1.5 10.5t0.5 12.5q0 59 -77 59q-18 0 -43 -2t-64 -8l-38 -6q-1 -5 -1.5 -12t-0.5 -15q0 -57 29 -87.5t83 -30.5zM244 293q49 6 81 13.5t51.5 17.5t29 21.5t12.5 26.5q1 4 1 8v9q0 24 -19 40.5t-60 16.5q-63 0 -101.5 -40t-49.5 -106l-3 -14z" />
    <glyph glyph-name="uni0433" unicode="&#x433;" 
d="M251 -12q-97 0 -144.5 36t-47.5 103q0 63 44 109.5t144 61.5l67 10q62 9 86 29t24 49q0 58 -89 58q-48 0 -85 -16t-68 -43l-56 61q45 39 97.5 60.5t124.5 21.5q89 0 136 -35.5t47 -99.5q0 -62 -45.5 -108t-142.5 -60l-68 -10q-60 -8 -84.5 -28.5t-24.5 -52.5
q0 -30 22 -45.5t76 -15.5t97.5 19t78.5 53l57 -61q-48 -46 -106.5 -71t-139.5 -25z" />
    </font>
</defs>
</svg>
